<svg xmlns="http://www.w3.org/2000/svg" xmlns:xlink="http://www.w3.org/1999/xlink" width="500" zoomAndPan="magnify" viewBox="0 0 375 374.999991" height="500" preserveAspectRatio="xMidYMid meet" version="1.0"><defs><clipPath id="id1"><path d="M 30.585938 23.585938 L 313.335938 23.585938 L 313.335938 351 L 30.585938 351 Z M 30.585938 23.585938 " clip-rule="nonzero"/></clipPath></defs><g clip-path="url(#id1)"><path fill="#ff5757" d="M 110.742188 24.820312 C 104.035156 27.117188 99.242188 31.84375 96.753906 38.550781 C 95.605469 41.679688 95.539062 45.507812 95.539062 165.363281 L 95.539062 288.917969 L 97.074219 292.75 C 98.925781 297.28125 103.714844 302.328125 108.125 304.433594 C 110.359375 305.457031 111.511719 306.542969 112.40625 308.332031 C 114.894531 313.183594 120.007812 316.058594 126.011719 316.058594 C 127.609375 316.058594 134.886719 315.351562 142.230469 314.460938 C 159.089844 312.480469 179.589844 310.628906 198.050781 309.351562 C 212.550781 308.394531 251.761719 306.988281 252.207031 307.371094 C 252.527344 307.691406 258.023438 306.21875 183.039062 326.335938 C 110.421875 345.746094 113.167969 345.171875 107.484375 342.296875 C 104.671875 340.894531 101.222656 337.191406 100.265625 334.636719 C 99.882812 333.742188 85.515625 280.425781 68.269531 216.125 C 34.421875 89.632812 36.015625 96.527344 38.953125 90.84375 C 40.867188 87.011719 44.832031 83.820312 49.042969 82.605469 C 51.089844 82.03125 59.964844 79.605469 68.714844 77.242188 C 83.082031 73.410156 84.742188 72.839844 85.636719 71.304688 C 86.46875 69.835938 86.46875 69.515625 85.378906 68.367188 C 84.675781 67.597656 83.65625 67.027344 83.082031 67.027344 C 82.445312 67.027344 73.375 69.324219 62.898438 72.132812 C 42.460938 77.691406 39.585938 78.835938 35.820312 83.628906 C 33.011719 87.203125 31.21875 91.609375 30.835938 96.082031 C 30.578125 99.71875 32.816406 108.535156 62.003906 217.46875 C 79.246094 282.023438 94 336.234375 94.703125 337.898438 C 96.238281 341.535156 101.792969 346.902344 105.753906 348.6875 C 111.695312 351.304688 115.207031 351.117188 130.40625 347.027344 C 137.878906 345.050781 175.046875 335.085938 212.921875 324.933594 L 281.769531 306.480469 L 288.734375 306.480469 C 294.226562 306.480469 296.460938 306.222656 299.269531 305.140625 C 303.933594 303.414062 309.234375 298.496094 311.53125 293.835938 L 313.320312 290.195312 L 313.320312 40.527344 L 311.53125 36.695312 C 308.59375 30.441406 304.121094 26.542969 297.671875 24.628906 C 294.605469 23.734375 284.515625 23.605469 204.171875 23.605469 C 119.171875 23.671875 113.871094 23.734375 110.742188 24.820312 Z M 299.148438 32.101562 C 302.597656 34.144531 305.664062 37.976562 306.621094 41.488281 C 307.066406 43.085938 307.195312 85.671875 307.132812 166.386719 L 306.941406 288.917969 L 305.535156 291.535156 C 303.75 294.859375 300.488281 297.730469 296.976562 299.074219 C 294.421875 300.03125 286.375 300.09375 203.414062 299.964844 L 112.660156 299.777344 L 109.53125 297.859375 C 107.613281 296.644531 105.695312 294.730469 104.484375 292.8125 L 102.570312 289.6875 L 102.378906 166.386719 C 102.25 77.882812 102.378906 42.382812 102.890625 40.65625 C 104.101562 36.441406 108.828125 32.101562 113.746094 30.570312 C 114.640625 30.3125 156.027344 30.121094 205.714844 30.1875 L 296.085938 30.3125 Z M 299.148438 32.101562 " fill-opacity="1" fill-rule="nonzero"/></g><path fill="#ff5757" d="M 120.578125 42.25 C 120.066406 43.082031 117.957031 47.996094 115.914062 53.234375 C 112.976562 60.703125 111.890625 62.808594 110.675781 63.257812 C 108.316406 64.152344 109.71875 65.109375 113.421875 65.109375 C 116.933594 65.109375 118.785156 64.019531 116.359375 63.382812 C 114.828125 63 114.699219 62.300781 115.71875 59.425781 C 116.359375 57.511719 116.550781 57.445312 119.871094 57.445312 C 123.257812 57.445312 123.320312 57.507812 124.277344 59.808594 C 125.171875 61.980469 125.171875 62.300781 124.277344 62.9375 C 122.171875 64.472656 123.257812 65.109375 128.046875 65.109375 C 132.964844 65.109375 134.757812 64.277344 132.070312 63.257812 C 130.730469 62.746094 129.835938 60.828125 126.515625 51.761719 C 124.277344 45.757812 122.234375 40.84375 121.980469 40.84375 C 121.660156 40.847656 121.023438 41.484375 120.578125 42.25 Z M 121.660156 51.957031 C 122.234375 53.679688 122.679688 55.214844 122.679688 55.339844 C 122.679688 55.46875 121.53125 55.53125 120.125 55.53125 C 118.527344 55.53125 117.570312 55.210938 117.570312 54.699219 C 117.570312 53.234375 119.742188 47.867188 120.191406 48.3125 C 120.382812 48.636719 121.085938 50.234375 121.660156 51.957031 Z M 121.660156 51.957031 " fill-opacity="1" fill-rule="nonzero"/><path fill="#ff5757" d="M 117.574219 77.179688 C 112.976562 81.648438 111.828125 83.4375 111.828125 86.3125 C 111.828125 90.140625 115.722656 92.949219 118.726562 91.355469 C 120.640625 90.335938 120.769531 90.460938 120.066406 92.695312 C 119.234375 95.699219 119.300781 95.761719 121.472656 95.761719 C 123.132812 95.761719 123.320312 95.570312 123.070312 94.484375 C 122.878906 93.78125 122.496094 92.632812 122.300781 91.929688 C 121.917969 90.460938 122.238281 90.394531 124.089844 91.355469 C 127.089844 92.953125 130.988281 90.140625 130.988281 86.3125 C 130.921875 83.183594 130.15625 81.96875 125.238281 77.5 L 121.085938 73.730469 Z M 117.574219 77.179688 " fill-opacity="1" fill-rule="nonzero"/><path fill="#ff5757" d="M 201.621094 105.339844 C 197.28125 111.914062 190.574219 118.621094 174.863281 132.285156 C 160.492188 144.734375 157.359375 148.183594 153.976562 155.015625 C 149.761719 163.574219 148.292969 175.707031 150.464844 184.195312 C 155.960938 205.074219 180.996094 213.121094 197.921875 199.394531 L 200.664062 197.160156 L 200.28125 199.582031 C 198.8125 208.203125 194.597656 223.335938 192.488281 227.550781 L 191.53125 229.402344 L 193.960938 228.957031 C 199.839844 228 206.480469 227.804688 211.394531 228.507812 C 214.335938 228.957031 216.824219 229.210938 216.953125 229.082031 C 217.078125 228.957031 216.316406 226.65625 215.292969 224.035156 C 213.121094 218.480469 209.796875 205.644531 209.160156 200.476562 L 208.714844 196.964844 L 210.886719 198.941406 C 217.398438 204.945312 227.941406 207.625 236.941406 205.519531 C 243.839844 203.921875 251.886719 198.238281 255.207031 192.492188 C 258.59375 186.8125 259.550781 182.851562 259.550781 174.617188 C 259.613281 167.65625 259.421875 166.378906 257.636719 161.144531 C 253.738281 149.90625 251.695312 147.351562 233.8125 132.152344 C 219.953125 120.40625 209.417969 109.613281 206.605469 104.441406 L 204.625 100.804688 Z M 201.621094 105.339844 " fill-opacity="1" fill-rule="nonzero"/><path fill="#ff5757" d="M 285.800781 235.410156 C 285.925781 236.050781 286.246094 237.257812 286.503906 238.027344 C 286.886719 239.429688 286.824219 239.492188 285.417969 239.050781 C 280.179688 237.328125 276.027344 242.371094 278.582031 247.289062 C 279.03125 248.054688 281.199219 250.414062 283.5 252.585938 L 287.714844 256.417969 L 292.378906 251.886719 C 296.65625 247.671875 297.042969 247.097656 297.042969 244.667969 C 297.042969 243.265625 296.851562 241.605469 296.65625 241.03125 C 296.015625 239.371094 292.699219 238.21875 290.464844 238.859375 L 288.613281 239.371094 L 288.996094 236.878906 C 289.378906 234.386719 289.378906 234.324219 287.398438 234.324219 C 285.863281 234.320312 285.542969 234.578125 285.800781 235.410156 Z M 285.800781 235.410156 " fill-opacity="1" fill-rule="nonzero"/><path fill="#ff5757" d="M 277.050781 267.335938 C 278.648438 268.738281 279.796875 271.167969 282.734375 279.210938 C 285.355469 286.363281 286.632812 289.234375 287.335938 289.109375 C 287.84375 288.980469 290.078125 284.320312 292.445312 278.378906 C 295.703125 270.402344 297.042969 267.714844 298.191406 267.207031 C 300.621094 266.117188 299.726562 265.609375 295.382812 265.609375 C 292.765625 265.609375 291.359375 265.867188 291.613281 266.246094 C 291.804688 266.566406 292.445312 266.886719 292.957031 266.886719 C 294.042969 266.886719 294.105469 268.484375 293.148438 271.289062 C 292.507812 273.140625 292.316406 273.273438 289.058594 273.273438 L 285.675781 273.273438 L 284.714844 270.460938 C 283.757812 267.714844 283.757812 267.585938 285.101562 266.628906 C 286.378906 265.734375 286.058594 265.671875 280.757812 265.671875 L 275.074219 265.609375 Z M 290.464844 278.699219 C 289.761719 280.683594 288.996094 282.023438 288.738281 281.765625 C 288.480469 281.511719 287.84375 279.914062 287.273438 278.191406 L 286.25 275.1875 L 291.804688 275.1875 Z M 290.464844 278.699219 " fill-opacity="1" fill-rule="nonzero"/><path fill="#ff5757" d="M 57.539062 92.054688 C 56.324219 92.375 54.21875 92.949219 52.941406 93.269531 C 50.0625 93.972656 49.8125 94.929688 52.300781 95.25 C 53.964844 95.441406 54.089844 95.761719 56.457031 104.382812 C 59.265625 114.851562 59.582031 118.109375 57.921875 119.898438 C 57.09375 120.855469 57.027344 121.300781 57.601562 121.6875 C 58.816406 122.390625 62.519531 117.980469 63.03125 115.109375 C 63.417969 113.257812 62.96875 110.511719 61.117188 103.488281 C 59.011719 95.1875 58.882812 94.230469 59.777344 93.207031 C 61.566406 91.226562 61.179688 91.035156 57.539062 92.054688 Z M 57.539062 92.054688 " fill-opacity="1" fill-rule="nonzero"/><path fill="#ff5757" d="M 63.289062 124.367188 C 63.289062 124.6875 62.011719 126.921875 60.414062 129.347656 C 56.964844 134.710938 56.519531 138.226562 59.136719 140.777344 C 60.925781 142.628906 64.566406 142.949219 65.839844 141.414062 C 67.054688 139.945312 67.949219 141.03125 67.566406 143.457031 C 67.246094 145.246094 67.371094 145.628906 68.140625 145.308594 C 68.714844 145.117188 69.738281 144.925781 70.4375 144.925781 C 71.652344 144.925781 71.652344 144.925781 70.375 142.753906 C 69.605469 141.605469 69.035156 140.519531 69.035156 140.328125 C 69.035156 140.199219 70.054688 140.070312 71.332031 140.070312 C 73.949219 140.070312 76.695312 137.578125 76.695312 135.21875 C 76.695312 131.960938 74.78125 129.726562 69.476562 126.917969 C 62.96875 123.472656 63.289062 123.664062 63.289062 124.367188 Z M 63.289062 124.367188 " fill-opacity="1" fill-rule="nonzero"/></svg>