<svg xmlns="http://www.w3.org/2000/svg" xmlns:xlink="http://www.w3.org/1999/xlink" width="500" zoomAndPan="magnify" viewBox="0 0 375 374.999991" height="500" preserveAspectRatio="xMidYMid meet" version="1.0"><defs><clipPath id="id1"><path d="M 130 166 L 267 166 L 267 316.3125 L 130 316.3125 Z M 130 166 " clip-rule="nonzero"/></clipPath></defs><path fill="#ff914d" d="M 291.65625 284.804688 L 278.796875 271.914062 C 279.941406 270.671875 281.054688 269.398438 282.140625 268.101562 C 283.226562 266.800781 284.28125 265.480469 285.304688 264.132812 C 286.328125 262.785156 287.320312 261.417969 288.28125 260.023438 C 289.238281 258.628906 290.167969 257.214844 291.0625 255.777344 C 291.957031 254.34375 292.816406 252.886719 293.644531 251.410156 C 294.472656 249.933594 295.261719 248.4375 296.019531 246.925781 C 296.777344 245.410156 297.5 243.878906 298.1875 242.332031 C 298.875 240.785156 299.523438 239.222656 300.136719 237.644531 C 300.75 236.070312 301.328125 234.476562 301.867188 232.875 C 302.410156 231.269531 302.910156 229.652344 303.375 228.023438 C 303.839844 226.398438 304.269531 224.757812 304.65625 223.109375 C 305.046875 221.464844 305.398438 219.808594 305.710938 218.144531 C 306.019531 216.480469 306.292969 214.808594 306.527344 213.132812 C 306.761719 211.453125 306.960938 209.773438 307.117188 208.085938 C 307.273438 206.402344 307.390625 204.714844 307.46875 203.023438 C 307.546875 201.332031 307.585938 199.636719 307.582031 197.945312 C 307.582031 196.25 307.542969 194.558594 307.464844 192.867188 C 307.386719 191.175781 307.265625 189.488281 307.109375 187.800781 C 306.953125 186.117188 306.757812 184.433594 306.519531 182.757812 C 306.285156 181.082031 306.011719 179.410156 305.699219 177.746094 C 305.382812 176.082031 305.03125 174.425781 304.644531 172.78125 C 304.253906 171.132812 303.824219 169.496094 303.359375 167.867188 C 302.894531 166.238281 302.390625 164.625 301.847656 163.019531 C 301.308594 161.414062 300.730469 159.824219 300.113281 158.246094 C 299.5 156.671875 298.847656 155.109375 298.160156 153.5625 C 297.472656 152.015625 296.75 150.484375 295.992188 148.972656 C 295.234375 147.457031 294.441406 145.964844 293.613281 144.488281 C 292.785156 143.011719 291.925781 141.554688 291.027344 140.121094 C 290.132812 138.683594 289.207031 137.269531 288.246094 135.875 C 287.285156 134.484375 286.289062 133.113281 285.265625 131.769531 C 284.242188 130.421875 283.1875 129.101562 282.101562 127.804688 C 281.015625 126.507812 279.898438 125.234375 278.753906 123.988281 L 291.644531 111.070312 C 293 112.527344 294.320312 114.015625 295.601562 115.535156 C 296.886719 117.054688 298.136719 118.605469 299.347656 120.183594 C 300.558594 121.757812 301.734375 123.367188 302.871094 125 C 304.007812 126.632812 305.105469 128.289062 306.167969 129.976562 C 307.226562 131.660156 308.246094 133.371094 309.226562 135.101562 C 310.203125 136.835938 311.144531 138.589844 312.039062 140.367188 C 312.9375 142.144531 313.792969 143.941406 314.605469 145.757812 C 315.421875 147.574219 316.191406 149.410156 316.917969 151.261719 C 317.648438 153.113281 318.332031 154.984375 318.972656 156.871094 C 319.609375 158.753906 320.207031 160.652344 320.757812 162.566406 C 321.308594 164.480469 321.816406 166.40625 322.277344 168.34375 C 322.738281 170.28125 323.15625 172.226562 323.523438 174.183594 C 323.894531 176.140625 324.21875 178.105469 324.5 180.074219 C 324.777344 182.046875 325.007812 184.023438 325.195312 186.007812 C 325.382812 187.988281 325.519531 189.976562 325.613281 191.964844 C 325.707031 193.953125 325.753906 195.945312 325.753906 197.9375 C 325.753906 199.929688 325.707031 201.917969 325.613281 203.90625 C 325.523438 205.898438 325.382812 207.882812 325.195312 209.867188 C 325.011719 211.847656 324.777344 213.824219 324.5 215.796875 C 324.222656 217.769531 323.898438 219.734375 323.527344 221.691406 C 323.15625 223.648438 322.742188 225.59375 322.28125 227.53125 C 321.820312 229.46875 321.3125 231.394531 320.761719 233.304688 C 320.210938 235.21875 319.613281 237.117188 318.972656 239.003906 C 318.335938 240.890625 317.648438 242.757812 316.921875 244.613281 C 316.195312 246.464844 315.425781 248.300781 314.613281 250.117188 C 313.796875 251.933594 312.941406 253.730469 312.046875 255.507812 C 311.148438 257.285156 310.210938 259.039062 309.230469 260.773438 C 308.25 262.503906 307.230469 264.214844 306.171875 265.898438 C 305.113281 267.582031 304.015625 269.242188 302.878906 270.875 C 301.742188 272.507812 300.566406 274.117188 299.355469 275.695312 C 298.140625 277.273438 296.894531 278.820312 295.609375 280.339844 C 294.324219 281.859375 293.003906 283.347656 291.652344 284.804688 Z M 285.222656 104.628906 L 272.328125 117.546875 C 271.085938 116.398438 269.820312 115.28125 268.523438 114.191406 C 267.230469 113.105469 265.914062 112.046875 264.570312 111.019531 C 263.226562 109.992188 261.859375 108.996094 260.472656 108.035156 C 259.082031 107.070312 257.671875 106.140625 256.238281 105.242188 C 254.804688 104.34375 253.355469 103.480469 251.882812 102.652344 C 250.410156 101.820312 248.917969 101.027344 247.40625 100.265625 C 245.898438 99.507812 244.371094 98.78125 242.828125 98.09375 C 241.285156 97.402344 239.726562 96.75 238.152344 96.136719 C 236.582031 95.519531 234.992188 94.941406 233.394531 94.398438 C 231.792969 93.855469 230.179688 93.351562 228.554688 92.882812 C 226.933594 92.417969 225.296875 91.988281 223.65625 91.597656 C 222.011719 91.207031 220.359375 90.855469 218.699219 90.542969 C 217.039062 90.226562 215.371094 89.953125 213.699219 89.71875 C 212.027344 89.480469 210.347656 89.285156 208.667969 89.128906 C 206.984375 88.96875 205.300781 88.851562 203.613281 88.773438 C 201.925781 88.695312 200.238281 88.65625 198.546875 88.65625 C 196.859375 88.65625 195.167969 88.695312 193.480469 88.773438 C 191.792969 88.851562 190.109375 88.96875 188.425781 89.128906 C 186.746094 89.285156 185.066406 89.480469 183.394531 89.71875 C 181.722656 89.953125 180.054688 90.226562 178.394531 90.542969 C 176.734375 90.855469 175.082031 91.207031 173.4375 91.597656 C 171.796875 91.988281 170.160156 92.417969 168.539062 92.882812 C 166.914062 93.351562 165.300781 93.855469 163.699219 94.398438 C 162.101562 94.941406 160.511719 95.519531 158.941406 96.136719 C 157.367188 96.75 155.808594 97.402344 154.265625 98.09375 C 152.722656 98.78125 151.195312 99.507812 149.6875 100.265625 C 148.175781 101.027344 146.683594 101.820312 145.210938 102.652344 C 143.738281 103.480469 142.289062 104.34375 140.855469 105.242188 C 139.421875 106.140625 138.011719 107.070312 136.621094 108.035156 C 135.234375 108.996094 133.867188 109.992188 132.523438 111.019531 C 131.179688 112.046875 129.863281 113.105469 128.570312 114.191406 C 127.273438 115.28125 126.007812 116.398438 124.765625 117.546875 L 111.875 104.628906 C 113.328125 103.273438 114.8125 101.949219 116.328125 100.660156 C 117.847656 99.375 119.390625 98.125 120.964844 96.910156 C 122.539062 95.695312 124.140625 94.515625 125.773438 93.375 C 127.402344 92.238281 129.058594 91.136719 130.738281 90.074219 C 132.417969 89.011719 134.125 87.992188 135.851562 87.007812 C 137.582031 86.027344 139.332031 85.085938 141.105469 84.1875 C 142.878906 83.289062 144.671875 82.429688 146.484375 81.617188 C 148.296875 80.800781 150.128906 80.027344 151.976562 79.296875 C 153.828125 78.570312 155.691406 77.882812 157.574219 77.242188 C 159.453125 76.601562 161.347656 76.003906 163.257812 75.449219 C 165.167969 74.898438 167.089844 74.390625 169.019531 73.929688 C 170.953125 73.464844 172.894531 73.050781 174.847656 72.679688 C 176.800781 72.308594 178.761719 71.980469 180.726562 71.703125 C 182.695312 71.425781 184.667969 71.191406 186.648438 71.003906 C 188.625 70.820312 190.605469 70.679688 192.59375 70.585938 C 194.578125 70.492188 196.5625 70.445312 198.550781 70.445312 C 200.539062 70.445312 202.523438 70.492188 204.507812 70.585938 C 206.492188 70.679688 208.476562 70.820312 210.453125 71.003906 C 212.429688 71.191406 214.40625 71.425781 216.371094 71.703125 C 218.339844 71.980469 220.300781 72.308594 222.25 72.679688 C 224.203125 73.050781 226.148438 73.464844 228.078125 73.929688 C 230.011719 74.390625 231.933594 74.898438 233.84375 75.449219 C 235.75 76.003906 237.644531 76.601562 239.527344 77.242188 C 241.410156 77.882812 243.273438 78.570312 245.121094 79.296875 C 246.972656 80.027344 248.804688 80.800781 250.617188 81.617188 C 252.429688 82.429688 254.222656 83.289062 255.996094 84.1875 C 257.769531 85.085938 259.519531 86.027344 261.246094 87.007812 C 262.976562 87.992188 264.679688 89.011719 266.363281 90.074219 C 268.042969 91.136719 269.699219 92.238281 271.328125 93.375 C 272.957031 94.515625 274.558594 95.695312 276.132812 96.910156 C 277.710938 98.125 279.253906 99.375 280.769531 100.660156 C 282.285156 101.949219 283.773438 103.273438 285.226562 104.628906 Z M 105.445312 111.066406 L 118.339844 123.988281 C 117.191406 125.234375 116.078125 126.503906 114.992188 127.800781 C 113.90625 129.097656 112.851562 130.417969 111.824219 131.765625 C 110.800781 133.113281 109.808594 134.480469 108.847656 135.875 C 107.886719 137.265625 106.957031 138.679688 106.0625 140.117188 C 105.167969 141.554688 104.304688 143.007812 103.476562 144.484375 C 102.648438 145.960938 101.855469 147.457031 101.097656 148.96875 C 100.339844 150.480469 99.617188 152.011719 98.929688 153.558594 C 98.242188 155.105469 97.59375 156.667969 96.976562 158.246094 C 96.363281 159.820312 95.785156 161.414062 95.242188 163.015625 C 94.703125 164.621094 94.199219 166.238281 93.734375 167.863281 C 93.265625 169.492188 92.839844 171.128906 92.449219 172.777344 C 92.058594 174.425781 91.707031 176.082031 91.394531 177.746094 C 91.082031 179.410156 90.808594 181.078125 90.570312 182.753906 C 90.335938 184.433594 90.140625 186.113281 89.980469 187.800781 C 89.824219 189.484375 89.707031 191.171875 89.628906 192.863281 C 89.546875 194.554688 89.507812 196.25 89.507812 197.941406 C 89.507812 199.636719 89.546875 201.328125 89.625 203.019531 C 89.703125 204.710938 89.820312 206.398438 89.976562 208.085938 C 90.132812 209.769531 90.328125 211.453125 90.5625 213.128906 C 90.796875 214.804688 91.070312 216.476562 91.382812 218.140625 C 91.695312 219.804688 92.046875 221.460938 92.433594 223.109375 C 92.824219 224.757812 93.25 226.394531 93.714844 228.023438 C 94.179688 229.648438 94.683594 231.265625 95.222656 232.871094 C 95.765625 234.476562 96.339844 236.066406 96.953125 237.644531 C 97.570312 239.222656 98.21875 240.78125 98.90625 242.332031 C 99.59375 243.878906 100.3125 245.40625 101.070312 246.921875 C 101.828125 248.433594 102.621094 249.929688 103.449219 251.40625 C 104.273438 252.882812 105.136719 254.339844 106.03125 255.777344 C 106.925781 257.210938 107.851562 258.628906 108.8125 260.019531 C 109.773438 261.414062 110.765625 262.785156 111.789062 264.128906 C 112.8125 265.476562 113.867188 266.800781 114.953125 268.097656 C 116.039062 269.394531 117.152344 270.667969 118.296875 271.914062 L 105.441406 284.804688 C 104.085938 283.347656 102.765625 281.855469 101.480469 280.335938 C 100.199219 278.816406 98.949219 277.269531 97.738281 275.691406 C 96.527344 274.113281 95.351562 272.507812 94.214844 270.875 C 93.078125 269.242188 91.980469 267.582031 90.917969 265.898438 C 89.859375 264.210938 88.839844 262.503906 87.863281 260.769531 C 86.882812 259.039062 85.945312 257.28125 85.046875 255.507812 C 84.148438 253.730469 83.292969 251.933594 82.480469 250.113281 C 81.667969 248.296875 80.898438 246.464844 80.167969 244.609375 C 79.441406 242.757812 78.757812 240.886719 78.117188 239.003906 C 77.476562 237.117188 76.882812 235.21875 76.332031 233.304688 C 75.777344 231.390625 75.273438 229.464844 74.8125 227.527344 C 74.351562 225.589844 73.933594 223.644531 73.566406 221.6875 C 73.195312 219.730469 72.871094 217.765625 72.589844 215.796875 C 72.3125 213.824219 72.082031 211.847656 71.894531 209.863281 C 71.710938 207.878906 71.570312 205.894531 71.476562 203.90625 C 71.382812 201.917969 71.335938 199.925781 71.335938 197.933594 C 71.335938 195.941406 71.382812 193.953125 71.476562 191.964844 C 71.570312 189.972656 71.710938 187.988281 71.894531 186.003906 C 72.082031 184.023438 72.316406 182.046875 72.59375 180.074219 C 72.871094 178.101562 73.195312 176.136719 73.566406 174.179688 C 73.9375 172.222656 74.351562 170.277344 74.8125 168.339844 C 75.277344 166.402344 75.78125 164.476562 76.332031 162.566406 C 76.886719 160.652344 77.480469 158.753906 78.121094 156.867188 C 78.761719 154.980469 79.445312 153.113281 80.171875 151.257812 C 80.898438 149.40625 81.671875 147.570312 82.484375 145.753906 C 83.296875 143.9375 84.152344 142.140625 85.050781 140.363281 C 85.949219 138.585938 86.886719 136.832031 87.867188 135.097656 C 88.847656 133.367188 89.867188 131.65625 90.925781 129.972656 C 91.984375 128.289062 93.082031 126.628906 94.21875 124.996094 C 95.355469 123.363281 96.53125 121.757812 97.742188 120.179688 C 98.957031 118.601562 100.203125 117.050781 101.488281 115.535156 C 102.773438 114.015625 104.09375 112.527344 105.445312 111.066406 Z M 105.445312 111.066406 " fill-opacity="1" fill-rule="nonzero"/><path fill="#ff914d" d="M 198.546875 179.71875 C 199.140625 179.71875 199.734375 179.75 200.328125 179.808594 C 200.921875 179.867188 201.507812 179.953125 202.09375 180.070312 C 202.675781 180.1875 203.253906 180.332031 203.824219 180.503906 C 204.390625 180.675781 204.953125 180.878906 205.5 181.105469 C 206.050781 181.335938 206.589844 181.589844 207.113281 181.871094 C 207.640625 182.152344 208.148438 182.457031 208.644531 182.789062 C 209.136719 183.121094 209.617188 183.476562 210.074219 183.855469 C 210.535156 184.230469 210.976562 184.632812 211.398438 185.054688 C 211.816406 185.476562 212.21875 185.917969 212.59375 186.378906 C 212.972656 186.839844 213.328125 187.316406 213.65625 187.8125 C 213.988281 188.308594 214.292969 188.820312 214.574219 189.347656 C 214.855469 189.871094 215.109375 190.410156 215.335938 190.960938 C 215.566406 191.511719 215.765625 192.074219 215.9375 192.644531 C 216.109375 193.214844 216.253906 193.792969 216.371094 194.378906 C 216.488281 194.964844 216.574219 195.554688 216.632812 196.148438 C 216.691406 196.742188 216.71875 197.335938 216.71875 197.933594 C 216.71875 198.527344 216.691406 199.125 216.632812 199.71875 C 216.574219 200.3125 216.488281 200.898438 216.371094 201.484375 C 216.253906 202.070312 216.109375 202.648438 215.9375 203.21875 C 215.765625 203.789062 215.566406 204.351562 215.335938 204.902344 C 215.109375 205.453125 214.855469 205.992188 214.574219 206.515625 C 214.292969 207.042969 213.988281 207.554688 213.65625 208.050781 C 213.328125 208.546875 212.972656 209.023438 212.59375 209.484375 C 212.21875 209.945312 211.816406 210.386719 211.398438 210.808594 C 210.976562 211.230469 210.535156 211.632812 210.074219 212.011719 C 209.617188 212.390625 209.136719 212.742188 208.644531 213.074219 C 208.148438 213.40625 207.640625 213.710938 207.113281 213.992188 C 206.589844 214.273438 206.050781 214.53125 205.5 214.757812 C 204.953125 214.984375 204.390625 215.1875 203.824219 215.359375 C 203.253906 215.535156 202.675781 215.679688 202.09375 215.792969 C 201.507812 215.910156 200.921875 216 200.328125 216.058594 C 199.734375 216.113281 199.140625 216.144531 198.546875 216.144531 C 197.953125 216.144531 197.359375 216.113281 196.765625 216.058594 C 196.171875 216 195.585938 215.910156 195 215.792969 C 194.417969 215.679688 193.839844 215.535156 193.273438 215.359375 C 192.703125 215.1875 192.144531 214.984375 191.59375 214.757812 C 191.042969 214.53125 190.503906 214.273438 189.980469 213.992188 C 189.457031 213.710938 188.945312 213.40625 188.449219 213.074219 C 187.957031 212.742188 187.480469 212.390625 187.019531 212.011719 C 186.558594 211.632812 186.117188 211.230469 185.695312 210.808594 C 185.277344 210.386719 184.878906 209.945312 184.5 209.484375 C 184.121094 209.023438 183.769531 208.546875 183.4375 208.050781 C 183.105469 207.554688 182.800781 207.042969 182.519531 206.515625 C 182.238281 205.992188 181.984375 205.453125 181.757812 204.902344 C 181.53125 204.351562 181.328125 203.789062 181.15625 203.21875 C 180.984375 202.648438 180.839844 202.070312 180.722656 201.484375 C 180.609375 200.898438 180.519531 200.3125 180.460938 199.71875 C 180.402344 199.125 180.375 198.527344 180.375 197.933594 C 180.375 197.335938 180.40625 196.742188 180.464844 196.148438 C 180.523438 195.554688 180.609375 194.964844 180.726562 194.378906 C 180.84375 193.796875 180.988281 193.21875 181.160156 192.648438 C 181.335938 192.078125 181.535156 191.515625 181.761719 190.964844 C 181.992188 190.414062 182.246094 189.875 182.527344 189.351562 C 182.808594 188.824219 183.113281 188.3125 183.445312 187.820312 C 183.773438 187.324219 184.128906 186.84375 184.503906 186.382812 C 184.882812 185.921875 185.28125 185.480469 185.703125 185.058594 C 186.125 184.636719 186.5625 184.238281 187.023438 183.859375 C 187.484375 183.480469 187.960938 183.125 188.457031 182.796875 C 188.949219 182.464844 189.460938 182.15625 189.984375 181.875 C 190.507812 181.59375 191.046875 181.339844 191.597656 181.113281 C 192.144531 180.882812 192.703125 180.683594 193.273438 180.507812 C 193.84375 180.335938 194.417969 180.191406 195.003906 180.074219 C 195.585938 179.957031 196.175781 179.867188 196.765625 179.808594 C 197.359375 179.75 197.953125 179.71875 198.546875 179.71875 Z M 198.546875 179.71875 " fill-opacity="1" fill-rule="nonzero"/><g clip-path="url(#id1)"><path fill="#ff914d" d="M 266.695312 316.3125 L 130.398438 316.3125 L 130.398438 298.101562 L 266.695312 298.101562 Z M 180.140625 273.894531 L 171.054688 246.574219 C 170.84375 245.941406 170.507812 245.378906 170.050781 244.890625 C 169.59375 244.40625 169.054688 244.035156 168.433594 243.789062 C 165.019531 242.414062 161.746094 240.765625 158.609375 238.84375 C 155.472656 236.917969 152.515625 234.75 149.742188 232.328125 C 146.96875 229.910156 144.414062 227.277344 142.078125 224.429688 C 139.746094 221.582031 137.664062 218.558594 135.835938 215.359375 C 134.054688 212.238281 132.707031 208.9375 131.785156 205.460938 C 130.863281 201.984375 130.402344 198.445312 130.398438 194.847656 L 130.398438 180.792969 L 137.75 166.058594 L 148.570312 166.058594 L 148.570312 172.351562 L 141.996094 175.648438 C 141.535156 175.878906 141.125 176.179688 140.765625 176.554688 C 140.40625 176.925781 140.117188 177.347656 139.902344 177.816406 C 139.683594 178.289062 139.554688 178.78125 139.503906 179.296875 C 139.457031 179.8125 139.496094 180.320312 139.621094 180.824219 L 144.164062 199.035156 C 144.367188 199.851562 144.765625 200.558594 145.359375 201.152344 C 145.953125 201.746094 146.65625 202.144531 147.46875 202.347656 C 150.003906 202.980469 152.4375 203.878906 154.777344 205.042969 C 157.117188 206.203125 159.304688 207.601562 161.339844 209.238281 C 163.375 210.875 165.210938 212.710938 166.851562 214.75 C 168.492188 216.785156 169.894531 218.972656 171.058594 221.3125 L 171.769531 222.734375 C 171.992188 223.183594 172.277344 223.582031 172.632812 223.933594 C 172.988281 224.285156 173.386719 224.570312 173.835938 224.789062 C 174.28125 225.007812 174.753906 225.152344 175.246094 225.214844 C 175.742188 225.277344 176.234375 225.261719 176.722656 225.164062 L 177.183594 225.070312 C 184.234375 223.652344 191.355469 222.941406 198.546875 222.941406 C 205.738281 222.941406 212.863281 223.652344 219.914062 225.070312 L 220.371094 225.164062 C 220.863281 225.261719 221.351562 225.277344 221.847656 225.214844 C 222.339844 225.152344 222.8125 225.007812 223.257812 224.789062 C 223.707031 224.570312 224.109375 224.285156 224.460938 223.933594 C 224.816406 223.582031 225.105469 223.183594 225.328125 222.734375 L 226.035156 221.3125 C 227.203125 218.972656 228.605469 216.785156 230.242188 214.75 C 231.882812 212.714844 233.71875 210.875 235.757812 209.238281 C 237.792969 207.601562 239.980469 206.203125 242.316406 205.042969 C 244.65625 203.878906 247.089844 202.984375 249.625 202.351562 C 250.4375 202.144531 251.140625 201.746094 251.734375 201.152344 C 252.328125 200.558594 252.726562 199.851562 252.929688 199.035156 L 257.472656 180.824219 C 257.597656 180.320312 257.636719 179.8125 257.589844 179.296875 C 257.542969 178.78125 257.410156 178.289062 257.191406 177.816406 C 256.976562 177.347656 256.691406 176.925781 256.328125 176.554688 C 255.96875 176.179688 255.558594 175.878906 255.097656 175.648438 L 248.523438 172.351562 L 248.523438 166.058594 L 259.34375 166.058594 L 266.695312 180.792969 L 266.695312 194.847656 C 266.695312 198.445312 266.230469 201.984375 265.3125 205.460938 C 264.390625 208.9375 263.039062 212.238281 261.257812 215.363281 C 259.429688 218.558594 257.347656 221.582031 255.015625 224.429688 C 252.679688 227.277344 250.125 229.910156 247.351562 232.332031 C 244.578125 234.75 241.625 236.921875 238.484375 238.84375 C 235.347656 240.765625 232.074219 242.414062 228.660156 243.789062 C 228.042969 244.039062 227.503906 244.40625 227.042969 244.894531 C 226.585938 245.378906 226.25 245.941406 226.039062 246.578125 L 216.953125 273.894531 C 216.675781 274.734375 216.640625 275.582031 216.855469 276.441406 L 219.988281 288.992188 L 177.105469 288.992188 L 180.238281 276.4375 C 180.453125 275.582031 180.421875 274.734375 180.140625 273.894531 Z M 180.140625 273.894531 " fill-opacity="1" fill-rule="nonzero"/></g></svg>