<svg xmlns="http://www.w3.org/2000/svg" xmlns:xlink="http://www.w3.org/1999/xlink" width="500" zoomAndPan="magnify" viewBox="0 0 375 374.999991" height="500" preserveAspectRatio="xMidYMid meet" version="1.0"><defs><clipPath id="id1"><path d="M 91 51.84375 L 284.378906 51.84375 L 284.378906 323.34375 L 91 323.34375 Z M 91 51.84375 " clip-rule="nonzero"/></clipPath></defs><g clip-path="url(#id1)"><path fill="#6465f8" d="M 105.027344 52.546875 C 99.625 54.191406 95.554688 57.632812 92.8125 62.796875 C 91.402344 65.457031 91.324219 70.230469 91.089844 186.417969 C 90.933594 297.679688 91.011719 307.617188 92.183594 310.746094 C 93.988281 315.519531 98.058594 319.664062 102.675781 321.699219 L 106.589844 323.34375 L 188.570312 323.183594 C 266.941406 322.949219 270.78125 322.871094 273.363281 321.464844 C 277.199219 319.429688 280.253906 316.457031 282.210938 312.78125 L 283.933594 309.648438 L 284.167969 188.765625 C 284.324219 78.050781 284.246094 67.566406 283.074219 64.4375 C 281.269531 59.742188 277.59375 55.828125 272.972656 53.71875 L 269.058594 51.839844 L 188.023438 51.917969 C 143.46875 51.921875 106.121094 52.234375 105.027344 52.546875 Z M 270.859375 61.230469 C 272.265625 62.09375 274.066406 63.890625 274.929688 65.300781 C 276.496094 67.882812 276.496094 69.527344 276.496094 187.59375 C 276.496094 305.660156 276.496094 307.300781 274.929688 309.882812 C 274.066406 311.292969 272.269531 313.09375 270.859375 313.953125 C 268.351562 315.519531 266.707031 315.519531 187.628906 315.519531 C 108.546875 315.519531 106.902344 315.519531 104.398438 313.953125 C 102.992188 313.09375 101.191406 311.292969 100.328125 309.882812 C 98.761719 307.300781 98.761719 305.660156 98.761719 187.59375 C 98.761719 69.527344 98.761719 67.882812 100.328125 65.300781 C 101.191406 63.894531 102.988281 62.09375 104.398438 61.230469 C 106.90625 59.667969 108.550781 59.667969 187.628906 59.667969 C 266.707031 59.667969 268.351562 59.667969 270.859375 61.230469 Z M 270.859375 61.230469 " fill-opacity="1" fill-rule="nonzero"/></g><path fill="#6465f8" d="M 117.550781 111.699219 L 117.550781 141.039062 L 257.707031 141.039062 L 257.707031 82.355469 L 117.550781 82.355469 Z M 249.875 111.699219 L 249.875 133.214844 L 125.382812 133.214844 L 125.382812 90.179688 L 249.875 90.179688 Z M 249.875 111.699219 " fill-opacity="1" fill-rule="nonzero"/><path fill="#6465f8" d="M 123.816406 154.574219 C 117.710938 156.53125 112.855469 164.667969 113.875 171.160156 C 114.972656 177.96875 118.964844 182.429688 125.617188 184.148438 C 137.128906 187.28125 147.464844 176.480469 144.171875 164.746094 C 141.746094 156.375 132.664062 151.757812 123.816406 154.574219 Z M 133.132812 162.476562 C 138.378906 165.214844 138.222656 173.667969 132.820312 176.089844 C 128.828125 177.890625 124.441406 176.640625 122.5625 173.039062 C 118.886719 165.921875 126.007812 158.800781 133.132812 162.476562 Z M 133.132812 162.476562 " fill-opacity="1" fill-rule="nonzero"/><path fill="#6465f8" d="M 162.964844 154.574219 C 156.859375 156.53125 152.003906 164.667969 153.023438 171.160156 C 154.121094 177.96875 158.113281 182.429688 164.765625 184.148438 C 176.277344 187.28125 186.613281 176.480469 183.320312 164.746094 C 180.894531 156.375 171.8125 151.757812 162.964844 154.574219 Z M 172.28125 162.476562 C 177.527344 165.214844 177.371094 173.667969 171.96875 176.089844 C 167.976562 177.890625 163.589844 176.640625 161.710938 173.039062 C 158.035156 165.921875 165.15625 158.800781 172.28125 162.476562 Z M 172.28125 162.476562 " fill-opacity="1" fill-rule="nonzero"/><path fill="#6465f8" d="M 202.894531 154.574219 C 196.789062 156.53125 191.933594 164.667969 192.953125 171.160156 C 194.050781 177.96875 198.042969 182.429688 204.695312 184.148438 C 216.207031 187.28125 226.542969 176.480469 223.25 164.746094 C 220.828125 156.375 211.742188 151.757812 202.894531 154.574219 Z M 212.214844 162.476562 C 217.460938 165.214844 217.304688 173.667969 211.902344 176.089844 C 204.777344 179.296875 197.886719 172.101562 201.644531 165.371094 C 203.679688 161.695312 208.222656 160.441406 212.214844 162.476562 Z M 212.214844 162.476562 " fill-opacity="1" fill-rule="nonzero"/><path fill="#6465f8" d="M 242.042969 154.574219 C 235.9375 156.53125 231.082031 164.667969 232.101562 171.160156 C 233.199219 177.96875 237.191406 182.429688 243.84375 184.148438 C 255.355469 187.28125 265.691406 176.480469 262.398438 164.746094 C 259.976562 156.375 250.894531 151.757812 242.042969 154.574219 Z M 251.363281 162.476562 C 256.609375 165.214844 256.453125 173.667969 251.050781 176.089844 C 243.925781 179.296875 237.035156 172.101562 240.792969 165.371094 C 242.828125 161.695312 247.371094 160.441406 251.363281 162.476562 Z M 251.363281 162.476562 " fill-opacity="1" fill-rule="nonzero"/><path fill="#6465f8" d="M 123.816406 193.695312 C 117.710938 195.652344 112.855469 203.789062 113.875 210.28125 C 114.972656 217.089844 118.964844 221.550781 125.617188 223.269531 C 137.128906 226.402344 147.464844 215.601562 144.171875 203.867188 C 141.746094 195.496094 132.664062 190.878906 123.816406 193.695312 Z M 133.132812 201.597656 C 138.378906 204.335938 138.222656 212.785156 132.820312 215.210938 C 125.695312 218.417969 118.804688 211.222656 122.5625 204.492188 C 124.597656 200.816406 129.140625 199.5625 133.132812 201.597656 Z M 133.132812 201.597656 " fill-opacity="1" fill-rule="nonzero"/><path fill="#6465f8" d="M 162.964844 193.695312 C 156.859375 195.652344 152.003906 203.789062 153.023438 210.28125 C 154.121094 217.089844 158.113281 221.550781 164.765625 223.269531 C 176.277344 226.402344 186.613281 215.601562 183.320312 203.867188 C 180.894531 195.496094 171.8125 190.878906 162.964844 193.695312 Z M 172.28125 201.597656 C 177.527344 204.335938 177.371094 212.785156 171.96875 215.210938 C 164.84375 218.417969 157.953125 211.222656 161.710938 204.492188 C 163.746094 200.816406 168.289062 199.5625 172.28125 201.597656 Z M 172.28125 201.597656 " fill-opacity="1" fill-rule="nonzero"/><path fill="#6465f8" d="M 202.894531 193.695312 C 196.789062 195.652344 191.933594 203.789062 192.953125 210.28125 C 194.050781 217.089844 198.042969 221.550781 204.695312 223.269531 C 216.207031 226.402344 226.542969 215.601562 223.25 203.867188 C 220.828125 195.496094 211.742188 190.878906 202.894531 193.695312 Z M 212.214844 201.597656 C 217.460938 204.335938 217.304688 212.785156 211.902344 215.210938 C 207.90625 217.011719 203.523438 215.757812 201.644531 212.160156 C 197.964844 205.039062 205.089844 197.921875 212.214844 201.597656 Z M 212.214844 201.597656 " fill-opacity="1" fill-rule="nonzero"/><path fill="#6465f8" d="M 242.042969 193.695312 C 235.9375 195.652344 231.082031 203.789062 232.101562 210.28125 C 233.199219 217.089844 237.191406 221.550781 243.84375 223.269531 C 255.355469 226.402344 265.691406 215.601562 262.398438 203.867188 C 259.976562 195.496094 250.894531 190.878906 242.042969 193.695312 Z M 251.363281 201.597656 C 256.609375 204.335938 256.453125 212.785156 251.050781 215.210938 C 247.058594 217.011719 242.671875 215.757812 240.792969 212.160156 C 237.113281 205.039062 244.238281 197.921875 251.363281 201.597656 Z M 251.363281 201.597656 " fill-opacity="1" fill-rule="nonzero"/><path fill="#6465f8" d="M 123.816406 232.03125 C 117.710938 233.988281 112.855469 242.125 113.875 248.621094 C 114.972656 255.425781 118.964844 259.886719 125.617188 261.605469 C 137.128906 264.738281 147.464844 253.9375 144.171875 242.203125 C 141.746094 233.832031 132.664062 229.21875 123.816406 232.03125 Z M 133.132812 239.9375 C 138.378906 242.675781 138.222656 251.125 132.820312 253.550781 C 125.695312 256.757812 118.804688 249.5625 122.5625 242.832031 C 124.597656 239.15625 129.140625 237.902344 133.132812 239.9375 Z M 133.132812 239.9375 " fill-opacity="1" fill-rule="nonzero"/><path fill="#6465f8" d="M 162.964844 232.03125 C 156.859375 233.988281 152.003906 242.125 153.023438 248.621094 C 154.121094 255.425781 158.113281 259.886719 164.765625 261.605469 C 176.277344 264.738281 186.613281 253.9375 183.320312 242.203125 C 180.894531 233.832031 171.8125 229.21875 162.964844 232.03125 Z M 172.28125 239.9375 C 177.527344 242.675781 177.371094 251.125 171.96875 253.550781 C 164.84375 256.757812 157.953125 249.5625 161.710938 242.832031 C 163.746094 239.15625 168.289062 237.902344 172.28125 239.9375 Z M 172.28125 239.9375 " fill-opacity="1" fill-rule="nonzero"/><path fill="#6465f8" d="M 202.894531 232.03125 C 196.789062 233.988281 191.933594 242.125 192.953125 248.621094 C 194.050781 255.425781 198.042969 259.886719 204.695312 261.605469 C 216.207031 264.738281 226.542969 253.9375 223.25 242.203125 C 220.828125 233.832031 211.742188 229.21875 202.894531 232.03125 Z M 212.214844 239.9375 C 217.460938 242.675781 217.304688 251.125 211.902344 253.550781 C 207.90625 255.351562 203.523438 254.097656 201.644531 250.5 C 197.964844 243.378906 205.089844 236.261719 212.214844 239.9375 Z M 212.214844 239.9375 " fill-opacity="1" fill-rule="nonzero"/><path fill="#6465f8" d="M 242.203125 231.878906 C 238.601562 232.976562 233.667969 238.058594 232.648438 241.96875 C 232.101562 244.003906 231.867188 253.078125 232.023438 267.632812 C 232.257812 287.816406 232.414062 290.402344 233.746094 293.0625 C 236.796875 299.164062 244.46875 302.609375 251.203125 300.730469 C 255.980469 299.480469 259.425781 296.820312 261.304688 293.0625 C 262.636719 290.402344 262.792969 287.820312 263.027344 267.789062 C 263.261719 242.597656 262.949219 240.171875 258.484375 235.710938 C 254.335938 231.566406 248.308594 230.15625 242.203125 231.878906 Z M 251.363281 239.9375 C 255.121094 241.894531 255.355469 243.535156 255.355469 266.304688 C 255.355469 289.226562 255.121094 290.871094 251.050781 292.671875 C 247.058594 294.472656 242.671875 293.21875 240.792969 289.621094 C 239.226562 286.570312 239.226562 245.648438 240.792969 242.832031 C 242.828125 239.15625 247.371094 237.902344 251.363281 239.9375 Z M 251.363281 239.9375 " fill-opacity="1" fill-rule="nonzero"/><path fill="#6465f8" d="M 123.816406 271.152344 C 117.710938 273.109375 112.855469 281.246094 113.875 287.742188 C 114.972656 294.546875 118.964844 299.007812 125.617188 300.726562 C 137.128906 303.859375 147.464844 293.058594 144.171875 281.324219 C 141.746094 272.953125 132.664062 268.339844 123.816406 271.152344 Z M 133.132812 279.058594 C 138.378906 281.796875 138.222656 290.246094 132.820312 292.671875 C 125.695312 295.878906 118.804688 288.683594 122.5625 281.953125 C 124.597656 278.277344 129.140625 277.023438 133.132812 279.058594 Z M 133.132812 279.058594 " fill-opacity="1" fill-rule="nonzero"/><path fill="#6465f8" d="M 162.964844 271.152344 C 156.859375 273.109375 152.003906 281.246094 153.023438 287.742188 C 154.121094 294.546875 158.113281 299.007812 164.765625 300.726562 C 176.277344 303.859375 186.613281 293.058594 183.320312 281.324219 C 180.894531 272.953125 171.8125 268.339844 162.964844 271.152344 Z M 172.28125 279.058594 C 177.527344 281.796875 177.371094 290.246094 171.96875 292.671875 C 164.84375 295.878906 157.953125 288.683594 161.710938 281.953125 C 163.746094 278.277344 168.289062 277.023438 172.28125 279.058594 Z M 172.28125 279.058594 " fill-opacity="1" fill-rule="nonzero"/><path fill="#6465f8" d="M 202.894531 271.152344 C 196.789062 273.109375 191.933594 281.246094 192.953125 287.742188 C 194.050781 294.546875 198.042969 299.007812 204.695312 300.726562 C 216.207031 303.859375 226.542969 293.058594 223.25 281.324219 C 220.828125 272.953125 211.742188 268.339844 202.894531 271.152344 Z M 212.214844 279.058594 C 215.894531 281.015625 217.144531 285.550781 215.113281 289.621094 C 212.371094 294.785156 204.386719 294.785156 201.644531 289.621094 C 197.964844 282.5 205.089844 275.382812 212.214844 279.058594 Z M 212.214844 279.058594 " fill-opacity="1" fill-rule="nonzero"/></svg>