<svg xmlns="http://www.w3.org/2000/svg" xmlns:xlink="http://www.w3.org/1999/xlink" width="500" zoomAndPan="magnify" viewBox="0 0 375 374.999991" height="500" preserveAspectRatio="xMidYMid meet" version="1.0"><defs><clipPath id="id1"><path d="M 190 163 L 317.933594 163 L 317.933594 289 L 190 289 Z M 190 163 " clip-rule="nonzero"/></clipPath><clipPath id="id2"><path d="M 71 213 L 279 213 L 279 320.765625 L 71 320.765625 Z M 71 213 " clip-rule="nonzero"/></clipPath><clipPath id="id3"><path d="M 71 54.515625 L 279 54.515625 L 279 162 L 71 162 Z M 71 54.515625 " clip-rule="nonzero"/></clipPath></defs><g clip-path="url(#id1)"><path fill="#4285f4" d="M 317.683594 190.597656 C 317.683594 179.65625 316.796875 171.660156 314.871094 163.378906 L 190.078125 163.378906 L 190.078125 212.785156 L 263.335938 212.785156 C 261.859375 225.0625 253.875 243.550781 236.160156 255.96875 L 235.90625 257.632812 L 275.367188 288.246094 L 278.097656 288.519531 C 303.203125 265.289062 317.683594 231.128906 317.683594 190.597656 " fill-opacity="1" fill-rule="nonzero"/></g><g clip-path="url(#id2)"><path fill="#34a853" d="M 190.078125 320.765625 C 225.96875 320.765625 256.09375 308.933594 278.097656 288.519531 L 236.160156 255.96875 C 224.929688 263.8125 209.871094 269.289062 190.078125 269.289062 C 154.929688 269.289062 125.097656 246.070312 114.460938 213.96875 L 112.902344 214.101562 L 71.875 245.90625 L 71.339844 247.394531 C 93.195312 290.886719 138.09375 320.765625 190.074219 320.765625 " fill-opacity="1" fill-rule="nonzero"/></g><path fill="#fbbc05" d="M 114.460938 213.96875 C 111.65625 205.6875 110.03125 196.804688 110.03125 187.640625 C 110.03125 178.472656 111.65625 169.589844 114.316406 161.308594 L 114.242188 159.546875 L 72.695312 127.234375 L 71.339844 127.878906 C 62.328125 145.925781 57.160156 166.195312 57.160156 187.640625 C 57.160156 209.082031 62.328125 229.355469 71.339844 247.394531 L 114.460938 213.96875 " fill-opacity="1" fill-rule="nonzero"/><g clip-path="url(#id3)"><path fill="#eb4335" d="M 190.078125 105.988281 C 215.035156 105.988281 231.875 116.785156 241.476562 125.808594 L 278.984375 89.125 C 255.941406 67.679688 225.96875 54.515625 190.078125 54.515625 C 138.09375 54.515625 93.195312 84.394531 71.34375 127.878906 L 114.316406 161.308594 C 125.097656 129.210938 154.929688 105.988281 190.078125 105.988281 " fill-opacity="1" fill-rule="nonzero"/></g></svg>