<svg xmlns="http://www.w3.org/2000/svg" xmlns:xlink="http://www.w3.org/1999/xlink" width="500" zoomAndPan="magnify" viewBox="0 0 375 374.999991" height="500" preserveAspectRatio="xMidYMid meet" version="1.0"><defs><clipPath id="id1"><path d="M 58 221 L 179 221 L 179 283.902344 L 58 283.902344 Z M 58 221 " clip-rule="nonzero"/></clipPath><clipPath id="id2"><path d="M 224 212 L 338.25 212 L 338.25 282 L 224 282 Z M 224 212 " clip-rule="nonzero"/></clipPath><clipPath id="id3"><path d="M 145 91.152344 L 228 91.152344 L 228 225 L 145 225 Z M 145 91.152344 " clip-rule="nonzero"/></clipPath><clipPath id="id4"><path d="M 227.757812 132.800781 C 227.757812 155.425781 186.835938 208.464844 186.835938 224.824219 C 186.835938 208.476562 145.914062 155.425781 145.914062 132.800781 C 145.914062 110.179688 164.234375 91.839844 186.835938 91.839844 C 209.4375 91.839844 227.757812 110.175781 227.757812 132.800781 Z M 227.757812 132.800781 " clip-rule="nonzero"/></clipPath><linearGradient x1="1587.09998" gradientTransform="matrix(0.283612, 0, 0, 0.283895, -263.287889, -324.922232)" y1="1468.010002" x2="1587.09998" gradientUnits="userSpaceOnUse" y2="1936.44007" id="id5"><stop stop-opacity="1" stop-color="rgb(93.60199%, 0%, 0%)" offset="0"/><stop stop-opacity="1" stop-color="rgb(93.464661%, 0%, 0%)" offset="0.015625"/><stop stop-opacity="1" stop-color="rgb(93.190002%, 0%, 0%)" offset="0.03125"/><stop stop-opacity="1" stop-color="rgb(92.915344%, 0%, 0%)" offset="0.046875"/><stop stop-opacity="1" stop-color="rgb(92.640686%, 0%, 0%)" offset="0.0625"/><stop stop-opacity="1" stop-color="rgb(92.366028%, 0%, 0%)" offset="0.078125"/><stop stop-opacity="1" stop-color="rgb(92.09137%, 0%, 0%)" offset="0.09375"/><stop stop-opacity="1" stop-color="rgb(91.816711%, 0%, 0%)" offset="0.109375"/><stop stop-opacity="1" stop-color="rgb(91.542053%, 0%, 0%)" offset="0.125"/><stop stop-opacity="1" stop-color="rgb(91.267395%, 0%, 0%)" offset="0.140625"/><stop stop-opacity="1" stop-color="rgb(90.992737%, 0%, 0%)" offset="0.15625"/><stop stop-opacity="1" stop-color="rgb(90.718079%, 0%, 0%)" offset="0.171875"/><stop stop-opacity="1" stop-color="rgb(90.44342%, 0%, 0%)" offset="0.1875"/><stop stop-opacity="1" stop-color="rgb(90.168762%, 0%, 0%)" offset="0.203125"/><stop stop-opacity="1" stop-color="rgb(89.894104%, 0%, 0%)" offset="0.21875"/><stop stop-opacity="1" stop-color="rgb(89.619446%, 0%, 0%)" offset="0.234375"/><stop stop-opacity="1" stop-color="rgb(89.344788%, 0%, 0%)" offset="0.25"/><stop stop-opacity="1" stop-color="rgb(89.070129%, 0%, 0%)" offset="0.265625"/><stop stop-opacity="1" stop-color="rgb(88.795471%, 0%, 0%)" offset="0.28125"/><stop stop-opacity="1" stop-color="rgb(88.520813%, 0%, 0%)" offset="0.296875"/><stop stop-opacity="1" stop-color="rgb(88.246155%, 0%, 0%)" offset="0.3125"/><stop stop-opacity="1" stop-color="rgb(87.971497%, 0%, 0%)" offset="0.328125"/><stop stop-opacity="1" stop-color="rgb(87.696838%, 0%, 0%)" offset="0.34375"/><stop stop-opacity="1" stop-color="rgb(87.42218%, 0%, 0%)" offset="0.359375"/><stop stop-opacity="1" stop-color="rgb(87.147522%, 0%, 0%)" offset="0.375"/><stop stop-opacity="1" stop-color="rgb(86.872864%, 0%, 0%)" offset="0.390625"/><stop stop-opacity="1" stop-color="rgb(86.598206%, 0%, 0%)" offset="0.40625"/><stop stop-opacity="1" stop-color="rgb(86.323547%, 0%, 0%)" offset="0.421875"/><stop stop-opacity="1" stop-color="rgb(86.048889%, 0%, 0%)" offset="0.4375"/><stop stop-opacity="1" stop-color="rgb(85.775757%, 0%, 0%)" offset="0.453125"/><stop stop-opacity="1" stop-color="rgb(85.501099%, 0%, 0%)" offset="0.46875"/><stop stop-opacity="1" stop-color="rgb(85.22644%, 0%, 0%)" offset="0.484375"/><stop stop-opacity="1" stop-color="rgb(84.951782%, 0%, 0%)" offset="0.5"/><stop stop-opacity="1" stop-color="rgb(84.677124%, 0%, 0%)" offset="0.515625"/><stop stop-opacity="1" stop-color="rgb(84.402466%, 0%, 0%)" offset="0.53125"/><stop stop-opacity="1" stop-color="rgb(84.127808%, 0%, 0%)" offset="0.546875"/><stop stop-opacity="1" stop-color="rgb(83.853149%, 0%, 0%)" offset="0.5625"/><stop stop-opacity="1" stop-color="rgb(83.578491%, 0%, 0%)" offset="0.578125"/><stop stop-opacity="1" stop-color="rgb(83.303833%, 0%, 0%)" offset="0.59375"/><stop stop-opacity="1" stop-color="rgb(83.029175%, 0%, 0%)" offset="0.609375"/><stop stop-opacity="1" stop-color="rgb(82.754517%, 0%, 0%)" offset="0.625"/><stop stop-opacity="1" stop-color="rgb(82.479858%, 0%, 0%)" offset="0.640625"/><stop stop-opacity="1" stop-color="rgb(82.2052%, 0%, 0%)" offset="0.65625"/><stop stop-opacity="1" stop-color="rgb(81.930542%, 0%, 0%)" offset="0.671875"/><stop stop-opacity="1" stop-color="rgb(81.655884%, 0%, 0%)" offset="0.6875"/><stop stop-opacity="1" stop-color="rgb(81.381226%, 0%, 0%)" offset="0.703125"/><stop stop-opacity="1" stop-color="rgb(81.106567%, 0%, 0%)" offset="0.71875"/><stop stop-opacity="1" stop-color="rgb(80.831909%, 0%, 0%)" offset="0.734375"/><stop stop-opacity="1" stop-color="rgb(80.557251%, 0%, 0%)" offset="0.75"/><stop stop-opacity="1" stop-color="rgb(80.282593%, 0%, 0%)" offset="0.765625"/><stop stop-opacity="1" stop-color="rgb(80.007935%, 0%, 0%)" offset="0.78125"/><stop stop-opacity="1" stop-color="rgb(79.733276%, 0%, 0%)" offset="0.796875"/><stop stop-opacity="1" stop-color="rgb(79.458618%, 0%, 0%)" offset="0.8125"/><stop stop-opacity="1" stop-color="rgb(79.18396%, 0%, 0%)" offset="0.828125"/><stop stop-opacity="1" stop-color="rgb(78.909302%, 0%, 0%)" offset="0.84375"/><stop stop-opacity="1" stop-color="rgb(78.585815%, 0%, 0%)" offset="0.875"/><stop stop-opacity="1" stop-color="rgb(78.399658%, 0%, 0%)" offset="1"/></linearGradient><clipPath id="id6"><path d="M 144 91.152344 L 229 91.152344 L 229 226 L 144 226 Z M 144 91.152344 " clip-rule="nonzero"/></clipPath></defs><path fill="#7fc94c" d="M -0.00390625 176.050781 L 48.394531 224.695312 L 119.996094 211.351562 L 71.597656 162.703125 Z M -0.00390625 176.050781 " fill-opacity="1" fill-rule="nonzero"/><path fill="#f9f792" d="M 48.605469 224.652344 L 59.003906 235.101562 L 130.378906 221.796875 L 119.984375 211.347656 Z M 48.605469 224.652344 " fill-opacity="1" fill-rule="nonzero"/><g clip-path="url(#id1)"><path fill="#4ca0c9" d="M 58.800781 235.15625 L 107.3125 283.910156 L 178.910156 270.566406 L 130.402344 221.808594 Z M 58.800781 235.15625 " fill-opacity="1" fill-rule="nonzero"/></g><path fill="#7fc94c" d="M 71.320312 162.703125 L 119.722656 211.347656 L 215.507812 222.3125 L 167.105469 173.664062 Z M 71.320312 162.703125 " fill-opacity="1" fill-rule="nonzero"/><path fill="#f9f792" d="M 119.71875 211.34375 L 130.113281 221.792969 L 164.238281 225.699219 L 212.746094 274.453125 L 240.585938 277.640625 L 192.074219 228.882812 L 225.898438 232.753906 L 215.503906 222.308594 Z M 119.71875 211.34375 " fill-opacity="1" fill-rule="nonzero"/><path fill="#c9a14c" d="M 192.101562 228.898438 L 240.609375 277.65625 L 274.433594 281.527344 L 225.921875 232.769531 Z M 192.101562 228.898438 " fill-opacity="1" fill-rule="nonzero"/><path fill="#4ca0c9" d="M 130.125 221.804688 L 178.636719 270.5625 L 212.761719 274.46875 L 164.25 225.710938 Z M 130.125 221.804688 " fill-opacity="1" fill-rule="nonzero"/><g clip-path="url(#id2)"><path fill="#c9a14c" d="M 224.601562 232.785156 L 273.109375 281.542969 L 338.230469 261.683594 L 289.71875 212.925781 Z M 224.601562 232.785156 " fill-opacity="1" fill-rule="nonzero"/></g><path fill="#7fc94c" d="M 165.796875 173.679688 L 214.195312 222.328125 L 279.3125 202.464844 L 230.914062 153.820312 Z M 165.796875 173.679688 " fill-opacity="1" fill-rule="nonzero"/><path fill="#f9f792" d="M 214.191406 222.324219 L 224.585938 232.769531 L 289.703125 212.910156 L 279.308594 202.460938 Z M 214.191406 222.324219 " fill-opacity="1" fill-rule="nonzero"/><path fill="#000000" d="M 71.496094 162.78125 L 119.765625 211.410156 L 130.285156 221.941406 L 178.554688 270.570312 L 212.902344 274.59375 L 240.75 277.691406 L 274.476562 281.410156 L 225.898438 232.78125 L 215.6875 222.25 L 167.109375 173.625 Z M 71.496094 162.78125 " fill-opacity="0.1529" fill-rule="nonzero"/><g clip-path="url(#id3)"><g clip-path="url(#id4)"><path fill="url(#id5)" d="M 145.914062 91.839844 L 145.914062 224.824219 L 227.757812 224.824219 L 227.757812 91.839844 Z M 145.914062 91.839844 " fill-rule="nonzero"/></g></g><g clip-path="url(#id6)"><path stroke-linecap="square" transform="matrix(0.283612, 0, 0, 0.283895, -263.287889, -324.922215)" fill="none" stroke-linejoin="round" d="M 1731.398983 1612.297128 C 1731.398983 1691.992102 1587.110798 1878.818477 1587.110798 1936.443227 C 1587.110798 1878.859756 1442.822614 1691.992102 1442.822614 1612.297128 C 1442.822614 1532.615913 1507.418985 1468.0151 1587.110798 1468.0151 C 1666.802612 1468.0151 1731.398983 1532.602153 1731.398983 1612.297128 Z M 1731.398983 1612.297128 " stroke="#a00000" stroke-width="4.79" stroke-opacity="1" stroke-miterlimit="4"/></g><path fill="#a00000" d="M 200.910156 131.960938 C 200.910156 132.886719 200.820312 133.800781 200.640625 134.707031 C 200.460938 135.613281 200.191406 136.496094 199.839844 137.351562 C 199.484375 138.203125 199.050781 139.015625 198.539062 139.785156 C 198.023438 140.554688 197.441406 141.265625 196.789062 141.921875 C 196.136719 142.574219 195.425781 143.15625 194.65625 143.671875 C 193.886719 144.183594 193.078125 144.621094 192.222656 144.972656 C 191.371094 145.328125 190.488281 145.59375 189.582031 145.773438 C 188.675781 145.957031 187.761719 146.046875 186.839844 146.046875 C 185.914062 146.046875 185 145.957031 184.09375 145.773438 C 183.1875 145.59375 182.308594 145.328125 181.453125 144.972656 C 180.601562 144.621094 179.789062 144.183594 179.019531 143.671875 C 178.253906 143.15625 177.542969 142.574219 176.886719 141.921875 C 176.234375 141.265625 175.652344 140.554688 175.136719 139.785156 C 174.625 139.015625 174.191406 138.203125 173.839844 137.351562 C 173.484375 136.496094 173.21875 135.613281 173.039062 134.707031 C 172.859375 133.800781 172.765625 132.886719 172.765625 131.960938 C 172.765625 131.035156 172.859375 130.121094 173.039062 129.210938 C 173.21875 128.304688 173.484375 127.425781 173.839844 126.570312 C 174.191406 125.714844 174.625 124.902344 175.140625 124.136719 C 175.652344 123.367188 176.234375 122.65625 176.890625 122 C 177.542969 121.347656 178.253906 120.761719 179.019531 120.25 C 179.789062 119.734375 180.601562 119.300781 181.453125 118.945312 C 182.308594 118.59375 183.1875 118.324219 184.09375 118.144531 C 185 117.964844 185.914062 117.875 186.839844 117.875 C 187.761719 117.875 188.675781 117.964844 189.582031 118.144531 C 190.488281 118.324219 191.371094 118.59375 192.222656 118.945312 C 193.078125 119.300781 193.886719 119.734375 194.65625 120.25 C 195.425781 120.761719 196.136719 121.347656 196.789062 122 C 197.441406 122.65625 198.023438 123.367188 198.539062 124.136719 C 199.050781 124.902344 199.484375 125.714844 199.839844 126.570312 C 200.191406 127.425781 200.460938 128.304688 200.640625 129.210938 C 200.820312 130.121094 200.910156 131.035156 200.910156 131.960938 Z M 200.910156 131.960938 " fill-opacity="1" fill-rule="nonzero"/></svg>