<svg xmlns="http://www.w3.org/2000/svg" xmlns:xlink="http://www.w3.org/1999/xlink" width="500" zoomAndPan="magnify" viewBox="0 0 375 374.999991" height="500" preserveAspectRatio="xMidYMid meet" version="1.0"><defs><clipPath id="id1"><path d="M 51.40625 279 L 76 279 L 76 299 L 51.40625 299 Z M 51.40625 279 " clip-rule="nonzero"/></clipPath><clipPath id="id2"><path d="M 100 313 L 112 313 L 112 330.558594 L 100 330.558594 Z M 100 313 " clip-rule="nonzero"/></clipPath></defs><path fill="#ffdf70" d="M 109.683594 221.699219 C 109.683594 219.246094 109.628906 216.964844 109.683594 214.683594 C 109.683594 213.203125 110.253906 211.890625 111.167969 210.75 C 112.761719 208.8125 115.324219 208.640625 117.148438 210.351562 C 117.320312 210.464844 117.488281 210.636719 117.605469 210.808594 C 119.539062 214.914062 123.527344 216.964844 126.660156 219.875 C 133.097656 225.976562 138.683594 232.761719 144.207031 239.722656 C 145.460938 241.316406 146.828125 242.855469 148.195312 244.398438 C 148.421875 244.625 148.992188 244.683594 149.335938 244.566406 C 149.675781 244.453125 150.132812 244.054688 150.132812 243.769531 C 150.191406 241.945312 150.191406 240.0625 150.074219 238.238281 C 149.507812 228.828125 148.9375 219.363281 148.367188 209.953125 C 148.308594 208.699219 148.308594 207.5 148.421875 206.246094 C 148.539062 205.21875 148.824219 204.25 149.105469 203.28125 C 149.621094 201.796875 150.644531 200.769531 152.242188 200.714844 C 153.835938 200.65625 154.976562 201.683594 155.601562 203.050781 C 156.226562 204.304688 156.683594 205.730469 157.027344 207.101562 C 157.59375 209.722656 158.109375 212.347656 158.449219 214.96875 C 159.304688 222.097656 160.160156 229.226562 160.898438 236.414062 C 161.640625 243.769531 162.722656 251.070312 164.148438 258.367188 C 164.488281 260.195312 164.773438 262.019531 164.714844 263.84375 C 164.488281 269.945312 158.621094 273.253906 153.265625 270.230469 C 151.328125 269.148438 149.5625 267.609375 148.082031 265.953125 C 145.519531 263.046875 143.125 259.910156 140.789062 256.828125 C 136.460938 251.070312 132.246094 245.253906 127.972656 239.492188 C 127.117188 238.351562 126.148438 237.324219 125.125 236.300781 C 124.894531 236.070312 124.324219 236.070312 123.984375 236.242188 C 123.699219 236.414062 123.414062 236.8125 123.359375 237.15625 C 123.242188 237.726562 123.242188 238.410156 123.300781 238.980469 C 123.871094 246.335938 124.496094 253.75 125.007812 261.105469 C 125.179688 263.957031 125.179688 266.867188 125.179688 269.71875 C 125.179688 272 124.609375 274.222656 123.359375 276.160156 C 121.191406 279.582031 116.863281 279.527344 114.871094 275.992188 C 114.1875 274.792969 113.785156 273.367188 113.503906 271.941406 C 113.160156 270.117188 112.988281 268.292969 112.875 266.410156 C 112.304688 257.796875 111.734375 249.1875 111.167969 240.574219 C 110.539062 234.246094 110.085938 227.859375 109.683594 221.699219 Z M 109.683594 221.699219 " fill-opacity="1" fill-rule="nonzero"/><path fill="#ffdf70" d="M 234.046875 206.871094 C 234.445312 203.851562 234.730469 200.769531 235.1875 197.75 C 235.414062 196.324219 236.097656 195.066406 237.238281 194.042969 C 238.546875 192.902344 240.371094 192.84375 241.792969 193.8125 C 243.390625 194.953125 244.300781 196.550781 244.757812 198.375 C 245.726562 202.59375 246.636719 206.816406 247.261719 211.035156 C 248.289062 217.765625 249.65625 224.378906 252.390625 230.652344 C 252.789062 231.566406 253.472656 232.308594 254.15625 233.105469 C 254.269531 233.21875 255.066406 233.105469 255.179688 232.878906 C 255.582031 232.191406 255.980469 231.394531 256.035156 230.652344 C 256.09375 228.429688 255.980469 226.148438 255.863281 223.867188 C 255.75 221.8125 255.410156 219.761719 255.523438 217.707031 C 255.582031 216.339844 255.980469 214.855469 256.664062 213.601562 C 258.542969 210.125 263.441406 209.554688 266.0625 212.519531 C 267.089844 213.714844 267.828125 215.253906 268.339844 216.796875 C 269.253906 219.304688 269.824219 221.929688 270.621094 224.496094 C 271.472656 227.289062 272.726562 229.855469 274.550781 232.136719 C 276.488281 234.589844 278.082031 234.472656 279.5625 231.507812 C 280.304688 230.027344 280.929688 228.542969 281.445312 226.945312 C 283.152344 221.871094 284.179688 216.625 284.578125 211.265625 C 284.976562 205.617188 284.0625 200.199219 280.875 195.351562 C 280.417969 194.667969 280.019531 193.925781 279.734375 193.1875 C 278.3125 189.878906 279.5625 186.511719 282.8125 184.917969 C 284.40625 184.117188 286 184.003906 287.539062 184.859375 C 288.792969 185.542969 290.101562 186.285156 290.957031 187.367188 C 292.4375 189.308594 293.917969 191.359375 294.773438 193.640625 C 296.996094 199.230469 298.136719 205.105469 297.679688 211.148438 C 297.054688 219.191406 295.457031 227.058594 292.152344 234.417969 C 290.902344 237.210938 289.304688 239.890625 287.652344 242.457031 C 286.796875 243.828125 285.601562 245.082031 284.40625 246.109375 C 281.386719 248.730469 277.910156 249.699219 274.152344 247.820312 C 271.757812 246.621094 269.539062 245.136719 267.316406 243.769531 C 265.949219 242.972656 265.035156 243.085938 264.238281 244.453125 C 263.15625 246.222656 262.300781 248.105469 261.050781 249.699219 C 258.429688 253.179688 254.382812 253.75 250.679688 251.355469 C 248.175781 249.757812 246.464844 247.476562 244.984375 244.96875 C 241.792969 239.664062 239.515625 233.902344 237.75 228.03125 C 235.527344 221.242188 234.101562 214.171875 234.046875 206.871094 Z M 234.046875 206.871094 " fill-opacity="1" fill-rule="nonzero"/><path fill="#ffdf70" d="M 194.28125 122.925781 C 193.769531 116.199219 193.199219 109.410156 192.746094 102.683594 C 192.460938 98.578125 192.402344 94.46875 192.402344 90.363281 C 192.402344 89.167969 192.746094 87.96875 193.199219 86.828125 C 193.828125 85.289062 196.21875 85.058594 197.359375 86.316406 C 198.953125 88.082031 199.582031 90.308594 200.035156 92.472656 C 201.117188 97.492188 202.144531 102.511719 202.828125 107.585938 C 205.621094 126.863281 207.957031 146.25 211.488281 165.46875 C 211.886719 167.464844 212.398438 169.460938 212.625 171.515625 C 212.796875 173.113281 212.910156 174.824219 212.683594 176.417969 C 212.398438 178.644531 210.917969 180.070312 208.808594 180.8125 C 206.644531 181.550781 204.707031 180.925781 203.167969 179.328125 C 202.203125 178.300781 201.632812 176.875 200.71875 175.847656 C 200.265625 175.335938 199.351562 174.878906 198.667969 174.9375 C 197.472656 175.050781 196.332031 175.679688 195.136719 175.90625 C 189.382812 177.160156 184.140625 176.191406 179.640625 172.199219 C 172.917969 166.324219 169.785156 159.195312 172.179688 150.242188 C 172.976562 147.277344 173.71875 144.253906 174.855469 141.402344 C 175.769531 139.125 176.964844 136.898438 178.390625 134.960938 C 181.523438 130.683594 185.566406 127.71875 191.148438 127.261719 C 193.65625 127.089844 194.226562 126.179688 194.167969 123.613281 C 194.167969 123.382812 194.167969 123.210938 194.167969 122.984375 C 194.226562 122.984375 194.28125 122.984375 194.28125 122.925781 Z M 197.1875 157.085938 C 196.734375 151.953125 196.277344 146.652344 195.820312 141.347656 C 195.765625 140.71875 195.535156 140.148438 195.363281 139.578125 C 195.023438 138.4375 193.371094 137.867188 192.289062 138.4375 C 190.011719 139.636719 188.585938 141.574219 187.445312 143.800781 C 185.851562 146.9375 185.339844 150.414062 184.65625 153.835938 C 184.085938 156.6875 185.109375 159.082031 186.992188 161.191406 C 189.839844 164.386719 193.429688 163.472656 196.390625 161.421875 C 196.789062 161.136719 197.015625 160.394531 197.132812 159.765625 C 197.300781 158.910156 197.1875 158.054688 197.1875 157.085938 Z M 197.1875 157.085938 " fill-opacity="1" fill-rule="nonzero"/><path fill="#ffdf70" d="M 224.703125 230.082031 C 224.816406 235.84375 224.246094 242.800781 222.539062 249.644531 C 221.171875 255.230469 218.210938 259.792969 213.425781 263.101562 C 208.921875 266.296875 204.082031 266.582031 199.582031 263.671875 C 194.398438 260.308594 189.726562 256.316406 187.730469 250.042969 C 185.507812 242.972656 183.117188 236.015625 181.007812 228.941406 C 179.242188 223.125 179.585938 217.136719 180.210938 211.207031 C 180.496094 208.296875 181.578125 205.5625 183.6875 203.449219 C 189.726562 197.464844 197.015625 194.613281 205.449219 195.808594 C 212.742188 196.835938 217.753906 201.054688 220.773438 207.726562 C 222.539062 211.71875 223.394531 215.941406 223.847656 220.21875 C 224.132812 223.125 224.363281 225.976562 224.703125 230.082031 Z M 211.828125 233.21875 C 211.257812 226.320312 211.257812 220.558594 209.492188 215.027344 C 207.957031 210.125 204.195312 207.785156 199.066406 208.640625 C 197.472656 208.925781 195.933594 209.554688 194.453125 210.179688 C 192.914062 210.863281 191.945312 212.175781 191.492188 213.886719 C 190.636719 217.308594 190.351562 220.789062 191.207031 224.210938 C 192.628906 230.195312 194.167969 236.128906 195.765625 242.058594 C 197.699219 249.414062 197.757812 249.414062 204.992188 251.640625 C 206.53125 252.097656 207.785156 251.640625 208.523438 250.101562 C 209.039062 249.015625 209.550781 247.820312 209.777344 246.679688 C 210.574219 241.773438 211.257812 236.925781 211.828125 233.21875 Z M 211.828125 233.21875 " fill-opacity="1" fill-rule="nonzero"/><path fill="#ffdf70" d="M 137.769531 159.9375 C 137.941406 166.496094 136.347656 172.199219 133.839844 177.675781 C 130.761719 184.347656 125.066406 187.199219 118.34375 188.453125 C 115.953125 188.910156 113.386719 188.679688 110.996094 188.339844 C 106.550781 187.710938 102.964844 185.429688 100.457031 181.550781 C 94.132812 171.855469 91.570312 161.363281 93.734375 149.84375 C 94.53125 145.566406 95.898438 141.519531 98.347656 137.867188 C 103.363281 130.398438 112.019531 127.832031 120.566406 130.910156 C 126.492188 133.019531 130.535156 137.296875 133.496094 142.660156 C 136.574219 148.191406 137.882812 154.179688 137.769531 159.9375 Z M 108.089844 156.859375 C 108.375 162.449219 109 167.351562 110.539062 172.085938 C 111.507812 175.164062 113.671875 176.761719 116.863281 177.105469 C 119.425781 177.390625 121.308594 176.417969 122.273438 174.023438 C 124.554688 168.320312 125.125 162.503906 123.699219 156.515625 C 123.074219 153.78125 121.535156 151.726562 119.3125 150.074219 C 117.089844 148.417969 114.640625 147.5625 111.964844 147.222656 C 110.539062 147.050781 109.457031 147.675781 109.230469 149.046875 C 108.71875 151.785156 108.375 154.636719 108.089844 156.859375 Z M 108.089844 156.859375 " fill-opacity="1" fill-rule="nonzero"/><path fill="#ffdf70" d="M 234.84375 170.316406 C 224.589844 170.144531 216.273438 162.789062 214.792969 152.183594 C 214.109375 147.507812 213.992188 142.773438 215.417969 138.152344 C 216.785156 133.875 218.039062 129.542969 219.578125 125.324219 C 220.316406 123.210938 221.457031 121.214844 222.652344 119.335938 C 225.5 114.941406 229.601562 113.117188 234.785156 113.917969 C 238.089844 114.429688 241.054688 115.742188 243.503906 118.078125 C 247.492188 121.902344 248.175781 126.578125 246.921875 131.652344 C 246.464844 133.421875 245.726562 135.132812 244.925781 136.785156 C 242.421875 142.203125 239.058594 147.105469 234.902344 151.441406 C 233.933594 152.46875 232.964844 153.550781 232.167969 154.691406 C 231.9375 154.976562 232.167969 155.945312 232.566406 156.289062 C 233.875 157.429688 235.46875 157.828125 237.121094 157.484375 C 238.546875 157.199219 239.914062 156.746094 241.28125 156.402344 C 242.648438 156.117188 244.074219 155.832031 245.496094 155.71875 C 248.746094 155.546875 250.796875 157.542969 249.199219 161.421875 C 247.09375 166.554688 240.710938 170.375 234.84375 170.316406 Z M 225.445312 140.265625 C 225.5 140.777344 225.445312 141.234375 225.558594 141.574219 C 225.671875 141.917969 225.957031 142.316406 226.300781 142.429688 C 226.640625 142.542969 227.097656 142.488281 227.4375 142.316406 C 227.78125 142.203125 228.179688 141.917969 228.40625 141.632812 C 231.652344 138.210938 234.273438 134.277344 236.15625 129.941406 C 236.382812 129.371094 236.496094 128.742188 236.609375 128.171875 C 236.894531 126.804688 236.097656 125.4375 234.671875 124.695312 C 232.964844 123.839844 231.140625 124.066406 230.230469 125.324219 C 229.546875 126.292969 228.863281 127.375 228.40625 128.515625 C 226.753906 132.28125 226.128906 136.328125 225.445312 140.265625 Z M 225.445312 140.265625 " fill-opacity="1" fill-rule="nonzero"/><path fill="#ffdf70" d="M 138.566406 128.230469 C 138.566406 127.375 138.566406 127.203125 138.566406 126.976562 C 138.738281 124.808594 139.933594 123.097656 141.472656 122.699219 C 143.070312 122.300781 144.949219 123.210938 146.03125 125.152344 C 146.773438 126.578125 147.285156 128.171875 147.96875 129.65625 C 148.59375 131.023438 149.449219 131.539062 150.875 131.195312 C 153.890625 130.511719 156.855469 129.714844 159.875 129.144531 C 161.867188 128.742188 163.917969 128.515625 165.96875 128.628906 C 168.417969 128.742188 170.183594 130.226562 170.867188 132.621094 C 171.550781 134.960938 171.269531 137.242188 169.332031 138.839844 C 167.964844 139.980469 166.199219 140.71875 164.546875 141.460938 C 162.664062 142.316406 160.671875 142.828125 158.90625 143.800781 C 155.542969 145.679688 153.835938 148.476562 154.574219 152.46875 C 155.316406 156.289062 156 160.109375 156.683594 163.988281 C 157.195312 167.011719 157.710938 170.089844 158.164062 173.113281 C 158.449219 174.824219 158.109375 176.363281 157.140625 177.789062 C 155.601562 180.011719 152.695312 180.46875 150.703125 178.585938 C 149.675781 177.617188 148.765625 176.417969 148.195312 175.164062 C 147.113281 172.710938 146.257812 170.203125 145.460938 167.636719 C 143.070312 159.539062 141.871094 151.214844 140.503906 142.886719 C 139.820312 138.609375 139.25 134.332031 138.683594 130.054688 C 138.625 129.257812 138.566406 128.402344 138.566406 128.230469 Z M 138.566406 128.230469 " fill-opacity="1" fill-rule="nonzero"/><path fill="#ffdf70" d="M 253.300781 116.082031 C 253.472656 115.285156 253.644531 114.257812 253.984375 113.289062 C 255.011719 110.667969 258.199219 109.695312 260.652344 111.179688 C 262.472656 112.320312 263.613281 113.972656 264.523438 115.855469 C 266.289062 119.449219 266.804688 119.621094 270.621094 117.566406 C 272.785156 116.425781 274.949219 115.226562 277.226562 114.316406 C 279.507812 113.347656 281.671875 114.03125 283.496094 115.683594 C 286.230469 118.195312 286.113281 122.472656 283.039062 124.808594 C 281.785156 125.777344 280.191406 126.347656 278.652344 126.976562 C 270.90625 130.167969 268.855469 133.363281 269.59375 141.632812 C 269.992188 145.910156 270.734375 150.1875 271.359375 154.40625 C 271.644531 156.289062 271.644531 158.054688 270.960938 159.824219 C 269.421875 163.816406 264.808594 164.613281 262.1875 161.191406 C 261.335938 160.109375 260.652344 158.742188 260.25 157.371094 C 259.339844 154.40625 258.484375 151.441406 257.972656 148.417969 C 256.433594 138.496094 255.066406 128.574219 253.585938 118.59375 C 253.472656 117.910156 253.414062 117.109375 253.300781 116.082031 Z M 253.300781 116.082031 " fill-opacity="1" fill-rule="nonzero"/><g clip-path="url(#id1)"><path fill="#ffdf70" d="M 57.957031 298.914062 C 56.707031 298.6875 55.90625 298.574219 55.109375 298.34375 C 53.058594 297.773438 51.75 295.949219 51.578125 293.839844 C 51.40625 291.386719 52.261719 289.277344 54.199219 287.910156 C 58.015625 285.171875 61.945312 282.550781 65.992188 280.152344 C 67.300781 279.355469 69.125 279.183594 70.71875 279.183594 C 74.023438 279.183594 76.300781 282.433594 75.449219 285.628906 C 74.933594 287.625 73.910156 289.449219 72.429688 290.875 C 69.464844 293.726562 66.105469 296.066406 62.34375 297.773438 C 60.808594 298.460938 59.15625 298.628906 57.957031 298.914062 Z M 57.957031 298.914062 " fill-opacity="1" fill-rule="nonzero"/></g><path fill="#ffdf70" d="M 316.480469 74.226562 C 317.277344 74.453125 318.699219 74.625 320.011719 75.195312 C 323.144531 76.449219 323.65625 78.160156 321.835938 80.898438 C 319.382812 84.546875 316.25 87.398438 312.09375 88.996094 C 310.726562 89.507812 309.359375 89.738281 307.933594 89.28125 C 304.003906 87.96875 302.351562 83.921875 304.515625 80.441406 C 307.078125 76.222656 311.066406 74.394531 316.480469 74.226562 Z M 316.480469 74.226562 " fill-opacity="1" fill-rule="nonzero"/><path fill="#ffdf70" d="M 283.324219 59.625 C 283.378906 64.300781 282.011719 67.894531 279.90625 71.257812 C 279.5625 71.773438 279.164062 72.230469 278.710938 72.683594 C 276.144531 75.195312 271.816406 74.054688 270.90625 70.574219 C 270.734375 70.003906 270.5625 69.378906 270.621094 68.75 C 270.847656 65.042969 271.191406 61.335938 272.957031 58.027344 C 273.808594 56.433594 275.0625 54.949219 276.488281 53.867188 C 279.109375 51.871094 282.414062 53.351562 283.039062 56.546875 C 283.210938 57.800781 283.265625 59.054688 283.324219 59.625 Z M 283.324219 59.625 " fill-opacity="1" fill-rule="nonzero"/><path fill="#ffdf70" d="M 306.507812 64.871094 C 306.28125 65.5 305.996094 66.984375 305.257812 68.066406 C 302.40625 72.113281 298.304688 74.339844 293.636719 75.652344 C 291.640625 76.222656 289.417969 74.167969 289.589844 72.113281 C 289.648438 71.144531 289.875 70.003906 290.386719 69.207031 C 292.382812 66.070312 294.886719 63.390625 298.136719 61.449219 C 300.015625 60.367188 302.007812 60.308594 304.117188 60.824219 C 305.425781 61.164062 306.453125 62.648438 306.507812 64.871094 Z M 306.507812 64.871094 " fill-opacity="1" fill-rule="nonzero"/><path fill="#ffdf70" d="M 85.929688 309.980469 C 85.417969 311.292969 85.1875 312.546875 84.5625 313.570312 C 82.796875 316.707031 80.0625 318.820312 76.699219 320.128906 C 73.398438 321.441406 69.921875 318.589844 70.433594 314.996094 C 71.117188 310.492188 74.648438 306.558594 79.035156 305.53125 C 80.972656 305.074219 82.796875 305.472656 84.164062 306.898438 C 84.960938 307.699219 85.359375 308.894531 85.929688 309.980469 Z M 85.929688 309.980469 " fill-opacity="1" fill-rule="nonzero"/><g clip-path="url(#id2)"><path fill="#ffdf70" d="M 100.914062 320.414062 C 100.96875 320.074219 101.027344 318.589844 101.425781 317.277344 C 102.164062 314.828125 104.671875 313.402344 107.179688 313.800781 C 109.515625 314.199219 111.621094 316.59375 111.335938 319.046875 C 110.824219 323.152344 109.402344 326.917969 106.152344 329.769531 C 105.414062 330.394531 104.101562 330.167969 103.417969 329.367188 C 101.480469 327.144531 100.914062 324.40625 100.914062 320.414062 Z M 100.914062 320.414062 " fill-opacity="1" fill-rule="nonzero"/></g><path fill="#ffdf70" d="M 278.027344 48.675781 C 277.058594 48.5625 276.257812 47.421875 276.488281 46.453125 C 276.714844 45.597656 277.285156 45.027344 278.195312 45.027344 C 279.164062 44.96875 279.90625 46.054688 279.679688 47.25 C 279.5625 48.105469 278.765625 48.789062 278.027344 48.675781 Z M 278.027344 48.675781 " fill-opacity="1" fill-rule="nonzero"/></svg>