<svg xmlns="http://www.w3.org/2000/svg" xmlns:xlink="http://www.w3.org/1999/xlink" width="500" zoomAndPan="magnify" viewBox="0 0 375 374.999991" height="500" preserveAspectRatio="xMidYMid meet" version="1.0"><defs><clipPath id="id1"><path d="M 49 70.101562 L 325.726562 70.101562 L 325.726562 304.851562 L 49 304.851562 Z M 49 70.101562 " clip-rule="nonzero"/></clipPath></defs><path fill="#ffcc34" d="M 214.726562 134.972656 L 209.726562 131.632812 L 204.910156 138.863281 C 203.246094 138.023438 201.507812 137.390625 199.695312 136.960938 C 197.886719 136.527344 196.046875 136.3125 194.183594 136.3125 C 192.324219 136.3125 190.484375 136.527344 188.671875 136.960938 C 186.863281 137.390625 185.125 138.023438 183.460938 138.863281 L 178.644531 131.632812 L 173.640625 134.972656 L 178.542969 142.332031 C 177.707031 143.097656 176.953125 143.941406 176.289062 144.859375 C 175.625 145.777344 175.058594 146.757812 174.59375 147.792969 C 174.128906 148.828125 173.773438 149.898438 173.53125 151.007812 C 173.285156 152.113281 173.152344 153.234375 173.136719 154.371094 C 173.136719 164.328125 182.582031 172.429688 194.183594 172.429688 C 205.789062 172.429688 215.234375 164.328125 215.234375 154.371094 C 215.21875 153.234375 215.085938 152.113281 214.839844 151.007812 C 214.59375 149.898438 214.242188 148.828125 213.777344 147.792969 C 213.3125 146.757812 212.746094 145.777344 212.082031 144.859375 C 211.414062 143.941406 210.664062 143.097656 209.828125 142.332031 Z M 194.183594 166.410156 C 185.894531 166.410156 179.152344 161.011719 179.152344 154.371094 C 179.152344 147.730469 185.894531 142.332031 194.183594 142.332031 C 202.476562 142.332031 209.21875 147.730469 209.21875 154.371094 C 209.21875 161.011719 202.476562 166.410156 194.183594 166.410156 Z M 194.183594 166.410156 " fill-opacity="1" fill-rule="nonzero"/><path fill="#ffcc34" d="M 203.203125 151.363281 C 203.203125 151.761719 203.128906 152.144531 202.976562 152.511719 C 202.824219 152.882812 202.605469 153.207031 202.324219 153.488281 C 202.042969 153.773438 201.714844 153.988281 201.347656 154.140625 C 200.980469 154.292969 200.597656 154.371094 200.199219 154.371094 C 199.800781 154.371094 199.414062 154.292969 199.046875 154.140625 C 198.679688 153.988281 198.351562 153.773438 198.070312 153.488281 C 197.789062 153.207031 197.574219 152.882812 197.417969 152.511719 C 197.265625 152.144531 197.191406 151.761719 197.191406 151.363281 C 197.191406 150.960938 197.265625 150.578125 197.417969 150.210938 C 197.574219 149.839844 197.789062 149.515625 198.070312 149.234375 C 198.351562 148.953125 198.679688 148.734375 199.046875 148.582031 C 199.414062 148.429688 199.800781 148.351562 200.199219 148.351562 C 200.597656 148.351562 200.980469 148.429688 201.347656 148.582031 C 201.714844 148.734375 202.042969 148.953125 202.324219 149.234375 C 202.605469 149.515625 202.824219 149.839844 202.976562 150.210938 C 203.128906 150.578125 203.203125 150.960938 203.203125 151.363281 Z M 203.203125 151.363281 " fill-opacity="1" fill-rule="nonzero"/><path fill="#ffcc34" d="M 191.175781 151.363281 C 191.175781 151.761719 191.101562 152.144531 190.949219 152.511719 C 190.796875 152.882812 190.578125 153.207031 190.296875 153.488281 C 190.015625 153.773438 189.6875 153.988281 189.320312 154.140625 C 188.953125 154.292969 188.570312 154.371094 188.171875 154.371094 C 187.769531 154.371094 187.386719 154.292969 187.019531 154.140625 C 186.652344 153.988281 186.324219 153.773438 186.042969 153.488281 C 185.761719 153.207031 185.542969 152.882812 185.390625 152.511719 C 185.238281 152.144531 185.164062 151.761719 185.164062 151.363281 C 185.164062 150.960938 185.238281 150.578125 185.390625 150.210938 C 185.542969 149.839844 185.761719 149.515625 186.042969 149.234375 C 186.324219 148.953125 186.652344 148.734375 187.019531 148.582031 C 187.386719 148.429688 187.769531 148.351562 188.171875 148.351562 C 188.570312 148.351562 188.953125 148.429688 189.320312 148.582031 C 189.6875 148.734375 190.015625 148.953125 190.296875 149.234375 C 190.578125 149.515625 190.796875 149.839844 190.949219 150.210938 C 191.101562 150.578125 191.175781 150.960938 191.175781 151.363281 Z M 191.175781 151.363281 " fill-opacity="1" fill-rule="nonzero"/><path fill="#ffcc34" d="M 194.183594 115.246094 C 193.003906 115.246094 191.824219 115.304688 190.648438 115.421875 C 189.472656 115.535156 188.304688 115.710938 187.144531 115.941406 C 185.988281 116.171875 184.84375 116.457031 183.710938 116.800781 C 182.582031 117.144531 181.46875 117.542969 180.378906 117.996094 C 179.285156 118.449219 178.21875 118.953125 177.175781 119.511719 C 176.132812 120.066406 175.121094 120.675781 174.140625 121.332031 C 173.15625 121.988281 172.207031 122.695312 171.292969 123.445312 C 170.382812 124.195312 169.507812 124.988281 168.671875 125.824219 C 167.835938 126.660156 167.042969 127.535156 166.292969 128.449219 C 165.542969 129.363281 164.839844 130.3125 164.183594 131.296875 C 163.527344 132.28125 162.921875 133.292969 162.363281 134.335938 C 161.804688 135.378906 161.300781 136.449219 160.847656 137.539062 C 160.398438 138.632812 160 139.746094 159.65625 140.878906 C 159.3125 142.011719 159.027344 143.15625 158.796875 144.316406 C 158.566406 145.476562 158.390625 146.644531 158.277344 147.820312 C 158.160156 149 158.101562 150.179688 158.101562 151.363281 C 158.101562 152.542969 158.160156 153.722656 158.277344 154.902344 C 158.390625 156.078125 158.566406 157.246094 158.796875 158.40625 C 159.027344 159.566406 159.3125 160.714844 159.65625 161.84375 C 160 162.976562 160.398438 164.089844 160.847656 165.183594 C 161.300781 166.273438 161.804688 167.34375 162.363281 168.386719 C 162.921875 169.429688 163.527344 170.441406 164.183594 171.425781 C 164.839844 172.410156 165.542969 173.359375 166.292969 174.273438 C 167.042969 175.1875 167.835938 176.0625 168.671875 176.898438 C 169.507812 177.734375 170.382812 178.527344 171.292969 179.277344 C 172.207031 180.03125 173.15625 180.734375 174.140625 181.390625 C 175.121094 182.046875 176.132812 182.65625 177.175781 183.210938 C 178.21875 183.769531 179.285156 184.273438 180.378906 184.726562 C 181.46875 185.179688 182.582031 185.578125 183.710938 185.921875 C 184.84375 186.265625 185.988281 186.550781 187.144531 186.78125 C 188.304688 187.015625 189.472656 187.1875 190.648438 187.304688 C 191.824219 187.417969 193.003906 187.476562 194.183594 187.476562 C 195.367188 187.476562 196.546875 187.417969 197.722656 187.304688 C 198.898438 187.1875 200.066406 187.015625 201.226562 186.78125 C 202.382812 186.550781 203.527344 186.265625 204.660156 185.921875 C 205.789062 185.578125 206.902344 185.179688 207.992188 184.726562 C 209.085938 184.273438 210.152344 183.769531 211.195312 183.210938 C 212.238281 182.65625 213.25 182.046875 214.230469 181.390625 C 215.214844 180.734375 216.164062 180.03125 217.074219 179.277344 C 217.988281 178.527344 218.863281 177.734375 219.699219 176.898438 C 220.535156 176.0625 221.328125 175.1875 222.078125 174.273438 C 222.828125 173.359375 223.53125 172.410156 224.1875 171.425781 C 224.84375 170.441406 225.449219 169.429688 226.007812 168.386719 C 226.5625 167.34375 227.070312 166.273438 227.519531 165.183594 C 227.972656 164.089844 228.371094 162.976562 228.714844 161.84375 C 229.058594 160.714844 229.34375 159.566406 229.574219 158.40625 C 229.804688 157.246094 229.976562 156.078125 230.09375 154.902344 C 230.210938 153.722656 230.269531 152.542969 230.269531 151.363281 C 230.265625 150.179688 230.207031 149 230.089844 147.824219 C 229.972656 146.644531 229.800781 145.476562 229.566406 144.320312 C 229.335938 143.160156 229.050781 142.011719 228.707031 140.882812 C 228.363281 139.75 227.964844 138.640625 227.511719 137.546875 C 227.058594 136.453125 226.554688 135.386719 225.996094 134.34375 C 225.4375 133.300781 224.832031 132.289062 224.175781 131.304688 C 223.519531 130.324219 222.816406 129.375 222.066406 128.460938 C 221.316406 127.546875 220.523438 126.671875 219.6875 125.835938 C 218.851562 125 217.976562 124.207031 217.066406 123.457031 C 216.152344 122.707031 215.203125 122.003906 214.222656 121.34375 C 213.242188 120.6875 212.226562 120.082031 211.1875 119.523438 C 210.144531 118.964844 209.078125 118.460938 207.988281 118.007812 C 206.894531 117.554688 205.785156 117.152344 204.65625 116.808594 C 203.523438 116.464844 202.378906 116.179688 201.222656 115.945312 C 200.0625 115.714844 198.894531 115.539062 197.722656 115.421875 C 196.546875 115.308594 195.367188 115.246094 194.183594 115.246094 Z M 194.183594 181.457031 C 193.199219 181.457031 192.21875 181.410156 191.238281 181.3125 C 190.257812 181.214844 189.285156 181.070312 188.320312 180.878906 C 187.351562 180.6875 186.398438 180.449219 185.457031 180.160156 C 184.515625 179.875 183.589844 179.542969 182.679688 179.167969 C 181.769531 178.789062 180.878906 178.367188 180.011719 177.902344 C 179.140625 177.441406 178.296875 176.933594 177.480469 176.386719 C 176.660156 175.839844 175.871094 175.25 175.109375 174.625 C 174.347656 174 173.621094 173.339844 172.921875 172.644531 C 172.226562 171.945312 171.566406 171.214844 170.941406 170.453125 C 170.316406 169.691406 169.730469 168.902344 169.183594 168.082031 C 168.636719 167.261719 168.132812 166.417969 167.667969 165.550781 C 167.203125 164.679688 166.78125 163.789062 166.40625 162.878906 C 166.027344 161.96875 165.695312 161.042969 165.410156 160.097656 C 165.125 159.15625 164.886719 158.199219 164.695312 157.234375 C 164.503906 156.265625 164.359375 155.292969 164.261719 154.3125 C 164.164062 153.332031 164.117188 152.347656 164.117188 151.363281 C 164.117188 150.375 164.164062 149.394531 164.261719 148.410156 C 164.359375 147.429688 164.503906 146.457031 164.695312 145.488281 C 164.886719 144.523438 165.125 143.570312 165.410156 142.625 C 165.695312 141.683594 166.027344 140.753906 166.40625 139.84375 C 166.78125 138.933594 167.203125 138.042969 167.667969 137.175781 C 168.132812 136.304688 168.636719 135.460938 169.183594 134.640625 C 169.730469 133.820312 170.316406 133.03125 170.941406 132.269531 C 171.566406 131.507812 172.226562 130.777344 172.921875 130.082031 C 173.621094 129.382812 174.347656 128.722656 175.109375 128.097656 C 175.871094 127.472656 176.660156 126.886719 177.480469 126.335938 C 178.296875 125.789062 179.140625 125.285156 180.011719 124.820312 C 180.878906 124.355469 181.769531 123.933594 182.679688 123.554688 C 183.589844 123.179688 184.515625 122.847656 185.457031 122.5625 C 186.398438 122.273438 187.351562 122.035156 188.320312 121.84375 C 189.285156 121.652344 190.257812 121.507812 191.238281 121.410156 C 192.21875 121.3125 193.199219 121.265625 194.183594 121.265625 C 195.171875 121.265625 196.152344 121.3125 197.132812 121.410156 C 198.113281 121.507812 199.085938 121.652344 200.050781 121.84375 C 201.015625 122.035156 201.972656 122.273438 202.914062 122.5625 C 203.855469 122.847656 204.78125 123.179688 205.691406 123.554688 C 206.601562 123.933594 207.492188 124.355469 208.359375 124.820312 C 209.226562 125.285156 210.070312 125.789062 210.890625 126.335938 C 211.710938 126.886719 212.5 127.472656 213.261719 128.097656 C 214.023438 128.722656 214.75 129.382812 215.445312 130.082031 C 216.144531 130.777344 216.804688 131.507812 217.429688 132.269531 C 218.054688 133.03125 218.640625 133.820312 219.1875 134.640625 C 219.734375 135.460938 220.238281 136.304688 220.703125 137.175781 C 221.167969 138.042969 221.589844 138.933594 221.964844 139.84375 C 222.34375 140.753906 222.671875 141.683594 222.960938 142.625 C 223.246094 143.570312 223.484375 144.523438 223.675781 145.488281 C 223.867188 146.457031 224.011719 147.429688 224.109375 148.410156 C 224.207031 149.394531 224.253906 150.375 224.253906 151.363281 C 224.253906 152.347656 224.203125 153.328125 224.105469 154.308594 C 224.007812 155.289062 223.863281 156.265625 223.671875 157.230469 C 223.476562 158.195312 223.238281 159.152344 222.953125 160.09375 C 222.664062 161.035156 222.332031 161.964844 221.957031 162.875 C 221.578125 163.785156 221.15625 164.671875 220.691406 165.542969 C 220.230469 166.410156 219.722656 167.253906 219.175781 168.074219 C 218.628906 168.894531 218.042969 169.683594 217.417969 170.445312 C 216.792969 171.207031 216.132812 171.9375 215.4375 172.632812 C 214.742188 173.328125 214.011719 173.988281 213.25 174.617188 C 212.492188 175.242188 211.699219 175.828125 210.882812 176.375 C 210.0625 176.921875 209.21875 177.429688 208.351562 177.894531 C 207.484375 178.359375 206.597656 178.78125 205.6875 179.15625 C 204.777344 179.535156 203.851562 179.867188 202.910156 180.152344 C 201.96875 180.441406 201.015625 180.679688 200.050781 180.875 C 199.082031 181.066406 198.109375 181.210938 197.132812 181.308594 C 196.152344 181.40625 195.167969 181.457031 194.183594 181.457031 Z M 194.183594 181.457031 " fill-opacity="1" fill-rule="nonzero"/><g clip-path="url(#id1)"><path fill="#ffcc34" d="M 310.632812 70.101562 L 64.070312 70.101562 C 63.082031 70.101562 62.105469 70.199219 61.136719 70.394531 C 60.171875 70.585938 59.230469 70.875 58.320312 71.253906 C 57.40625 71.628906 56.542969 72.09375 55.722656 72.644531 C 54.902344 73.191406 54.140625 73.816406 53.445312 74.515625 C 52.746094 75.214844 52.125 75.972656 51.574219 76.792969 C 51.027344 77.613281 50.5625 78.480469 50.183594 79.394531 C 49.808594 80.304688 49.519531 81.246094 49.328125 82.214844 C 49.132812 83.183594 49.035156 84.164062 49.035156 85.148438 L 49.035156 292.8125 C 49.035156 293.605469 49.113281 294.386719 49.269531 295.160156 C 49.421875 295.9375 49.652344 296.6875 49.953125 297.417969 C 50.257812 298.148438 50.628906 298.84375 51.066406 299.5 C 51.503906 300.15625 52.003906 300.765625 52.5625 301.324219 C 53.121094 301.882812 53.726562 302.378906 54.382812 302.820312 C 55.039062 303.257812 55.734375 303.628906 56.460938 303.933594 C 57.191406 304.234375 57.945312 304.464844 58.71875 304.617188 C 59.492188 304.773438 60.273438 304.851562 61.0625 304.851562 L 310.632812 304.851562 C 311.621094 304.851562 312.597656 304.753906 313.566406 304.558594 C 314.535156 304.367188 315.472656 304.082031 316.386719 303.703125 C 317.296875 303.324219 318.164062 302.859375 318.984375 302.308594 C 319.804688 301.761719 320.5625 301.136719 321.261719 300.4375 C 321.957031 299.742188 322.582031 298.980469 323.128906 298.160156 C 323.679688 297.339844 324.140625 296.472656 324.519531 295.558594 C 324.898438 294.648438 325.183594 293.707031 325.378906 292.738281 C 325.570312 291.769531 325.667969 290.792969 325.667969 289.804688 L 325.667969 85.148438 C 325.667969 84.164062 325.570312 83.183594 325.378906 82.214844 C 325.183594 81.246094 324.898438 80.304688 324.519531 79.394531 C 324.140625 78.480469 323.679688 77.613281 323.128906 76.792969 C 322.582031 75.972656 321.957031 75.214844 321.261719 74.515625 C 320.5625 73.816406 319.804688 73.191406 318.984375 72.644531 C 318.164062 72.09375 317.296875 71.628906 316.386719 71.253906 C 315.472656 70.875 314.535156 70.585938 313.566406 70.394531 C 312.597656 70.199219 311.621094 70.101562 310.632812 70.101562 Z M 319.65625 289.804688 C 319.65625 290.398438 319.597656 290.984375 319.480469 291.566406 C 319.363281 292.144531 319.191406 292.710938 318.964844 293.257812 C 318.738281 293.804688 318.460938 294.324219 318.132812 294.816406 C 317.804688 295.308594 317.429688 295.765625 317.011719 296.183594 C 316.589844 296.605469 316.136719 296.980469 315.644531 297.308594 C 315.152344 297.636719 314.632812 297.914062 314.085938 298.144531 C 313.539062 298.371094 312.972656 298.542969 312.394531 298.65625 C 311.8125 298.773438 311.226562 298.832031 310.632812 298.832031 L 61.0625 298.832031 C 60.667969 298.832031 60.277344 298.792969 59.890625 298.714844 C 59.503906 298.636719 59.128906 298.523438 58.761719 298.371094 C 58.398438 298.222656 58.050781 298.035156 57.722656 297.816406 C 57.394531 297.597656 57.09375 297.347656 56.8125 297.066406 C 56.535156 296.789062 56.285156 296.484375 56.066406 296.15625 C 55.847656 295.828125 55.660156 295.480469 55.507812 295.117188 C 55.359375 294.75 55.242188 294.375 55.167969 293.988281 C 55.089844 293.601562 55.050781 293.207031 55.050781 292.8125 L 55.050781 85.148438 C 55.050781 84.558594 55.109375 83.96875 55.222656 83.390625 C 55.339844 82.808594 55.511719 82.242188 55.738281 81.695312 C 55.964844 81.148438 56.242188 80.628906 56.574219 80.136719 C 56.902344 79.644531 57.277344 79.1875 57.695312 78.769531 C 58.113281 78.347656 58.570312 77.976562 59.0625 77.644531 C 59.554688 77.316406 60.074219 77.039062 60.621094 76.8125 C 61.167969 76.585938 61.730469 76.414062 62.3125 76.296875 C 62.890625 76.179688 63.476562 76.121094 64.070312 76.121094 L 310.632812 76.121094 C 311.226562 76.121094 311.8125 76.179688 312.394531 76.296875 C 312.972656 76.414062 313.539062 76.585938 314.085938 76.8125 C 314.632812 77.039062 315.152344 77.316406 315.644531 77.644531 C 316.136719 77.976562 316.589844 78.347656 317.011719 78.769531 C 317.429688 79.1875 317.804688 79.644531 318.132812 80.136719 C 318.460938 80.628906 318.738281 81.148438 318.964844 81.695312 C 319.191406 82.242188 319.363281 82.808594 319.480469 83.390625 C 319.597656 83.96875 319.65625 84.558594 319.65625 85.148438 Z M 319.65625 289.804688 " fill-opacity="1" fill-rule="nonzero"/></g><path fill="#ffcc34" d="M 72.300781 139.3125 L 78.316406 139.3125 L 78.316406 127.273438 L 78.339844 127.273438 C 79.207031 128.097656 80.238281 128.507812 81.429688 128.507812 L 88.136719 128.507812 L 88.136719 140.535156 L 94.152344 140.535156 L 94.152344 128.507812 L 100.859375 128.507812 C 102.054688 128.507812 103.085938 128.097656 103.953125 127.273438 L 105.371094 127.273438 L 105.371094 139.3125 L 111.382812 139.3125 L 111.382812 127.273438 L 118.085938 127.273438 C 118.855469 127.273438 119.578125 127.089844 120.253906 126.722656 C 120.929688 126.351562 121.476562 125.84375 121.890625 125.195312 C 122.296875 124.585938 122.53125 123.917969 122.601562 123.191406 C 122.667969 122.460938 122.5625 121.761719 122.28125 121.085938 L 113.859375 98.964844 C 113.621094 98.429688 113.3125 97.9375 112.929688 97.488281 C 112.546875 97.042969 112.109375 96.660156 111.613281 96.34375 C 111.117188 96.023438 110.589844 95.785156 110.023438 95.625 C 109.457031 95.460938 108.882812 95.386719 108.292969 95.394531 C 107.707031 95.402344 107.132812 95.492188 106.570312 95.671875 C 106.011719 95.847656 105.488281 96.101562 105.003906 96.433594 C 104.515625 96.765625 104.089844 97.15625 103.71875 97.613281 C 103.347656 98.070312 103.050781 98.574219 102.828125 99.117188 L 99.527344 107.800781 L 96.640625 100.203125 C 96.40625 99.667969 96.097656 99.179688 95.71875 98.738281 C 95.34375 98.296875 94.910156 97.914062 94.421875 97.597656 C 93.933594 97.28125 93.414062 97.039062 92.855469 96.871094 C 92.296875 96.707031 91.726562 96.625 91.144531 96.625 C 90.5625 96.625 89.992188 96.707031 89.4375 96.871094 C 88.878906 97.039062 88.355469 97.28125 87.867188 97.597656 C 87.378906 97.914062 86.949219 98.296875 86.570312 98.738281 C 86.191406 99.179688 85.886719 99.667969 85.648438 100.203125 C 85.628906 100.25 85.605469 100.300781 85.589844 100.351562 L 83.449219 105.988281 L 80.785156 98.964844 C 80.546875 98.429688 80.234375 97.9375 79.855469 97.488281 C 79.472656 97.042969 79.03125 96.660156 78.539062 96.34375 C 78.042969 96.023438 77.511719 95.785156 76.949219 95.625 C 76.382812 95.460938 75.804688 95.386719 75.21875 95.394531 C 74.628906 95.402344 74.058594 95.492188 73.496094 95.671875 C 72.933594 95.847656 72.414062 96.101562 71.925781 96.433594 C 71.441406 96.765625 71.011719 97.15625 70.640625 97.613281 C 70.273438 98.070312 69.976562 98.574219 69.753906 99.117188 L 61.460938 120.914062 C 61.308594 121.257812 61.199219 121.617188 61.136719 121.988281 C 61.070312 122.359375 61.054688 122.734375 61.082031 123.109375 C 61.109375 123.484375 61.1875 123.851562 61.308594 124.207031 C 61.425781 124.566406 61.589844 124.902344 61.796875 125.21875 C 62 125.535156 62.242188 125.820312 62.515625 126.074219 C 62.792969 126.332031 63.097656 126.546875 63.429688 126.726562 C 63.761719 126.90625 64.109375 127.042969 64.472656 127.136719 C 64.839844 127.226562 65.207031 127.273438 65.585938 127.273438 L 72.300781 127.273438 Z M 108.300781 101.257812 L 115.914062 121.253906 L 104.640625 121.253906 L 102.742188 116.253906 Z M 91.148438 102.65625 L 98.683594 122.488281 L 83.613281 122.488281 Z M 67.75 121.253906 L 75.226562 101.253906 L 80.234375 114.457031 L 77.652344 121.253906 Z M 67.75 121.253906 " fill-opacity="1" fill-rule="nonzero"/><path fill="#ffcc34" d="M 294.273438 248.234375 C 294.035156 247.695312 293.726562 247.203125 293.34375 246.757812 C 292.960938 246.308594 292.519531 245.925781 292.027344 245.609375 C 291.53125 245.292969 291 245.050781 290.4375 244.890625 C 289.871094 244.730469 289.296875 244.652344 288.707031 244.660156 C 288.121094 244.667969 287.546875 244.761719 286.984375 244.9375 C 286.425781 245.113281 285.902344 245.367188 285.414062 245.699219 C 284.929688 246.03125 284.5 246.425781 284.128906 246.882812 C 283.761719 247.339844 283.464844 247.839844 283.242188 248.382812 L 279.941406 257.070312 L 277.054688 249.46875 C 276.816406 248.9375 276.511719 248.449219 276.132812 248.003906 C 275.757812 247.5625 275.324219 247.179688 274.835938 246.863281 C 274.347656 246.546875 273.824219 246.304688 273.265625 246.140625 C 272.710938 245.972656 272.140625 245.890625 271.558594 245.890625 C 270.976562 245.890625 270.40625 245.972656 269.847656 246.140625 C 269.292969 246.304688 268.769531 246.546875 268.28125 246.863281 C 267.792969 247.179688 267.359375 247.5625 266.984375 248.003906 C 266.605469 248.449219 266.296875 248.9375 266.0625 249.46875 C 266.042969 249.519531 266.019531 249.566406 266 249.617188 L 263.863281 255.25 L 261.195312 248.234375 C 260.960938 247.695312 260.648438 247.203125 260.265625 246.757812 C 259.882812 246.308594 259.445312 245.925781 258.949219 245.609375 C 258.457031 245.292969 257.925781 245.050781 257.359375 244.890625 C 256.796875 244.730469 256.21875 244.652344 255.632812 244.660156 C 255.042969 244.667969 254.46875 244.761719 253.910156 244.9375 C 253.347656 245.113281 252.824219 245.367188 252.339844 245.699219 C 251.851562 246.03125 251.425781 246.425781 251.054688 246.882812 C 250.683594 247.339844 250.386719 247.839844 250.164062 248.382812 L 241.875 270.183594 C 241.722656 270.527344 241.613281 270.882812 241.546875 271.253906 C 241.484375 271.625 241.464844 272 241.496094 272.375 C 241.523438 272.75 241.597656 273.117188 241.71875 273.476562 C 241.839844 273.832031 242.003906 274.167969 242.207031 274.484375 C 242.414062 274.800781 242.652344 275.085938 242.929688 275.34375 C 243.207031 275.597656 243.511719 275.816406 243.839844 275.996094 C 244.171875 276.175781 244.519531 276.308594 244.886719 276.402344 C 245.25 276.496094 245.621094 276.539062 246 276.539062 L 252.714844 276.539062 L 252.714844 288.582031 L 258.726562 288.582031 L 258.726562 276.539062 L 258.753906 276.539062 C 259.621094 277.363281 260.648438 277.773438 261.84375 277.773438 L 268.550781 277.773438 L 268.550781 289.804688 L 274.5625 289.804688 L 274.5625 277.773438 L 281.273438 277.773438 C 282.46875 277.773438 283.496094 277.363281 284.363281 276.539062 L 285.785156 276.539062 L 285.785156 288.582031 L 291.796875 288.582031 L 291.796875 276.539062 L 298.5 276.539062 C 299.269531 276.542969 299.992188 276.359375 300.667969 275.988281 C 301.34375 275.621094 301.890625 275.109375 302.304688 274.460938 C 302.707031 273.851562 302.945312 273.183594 303.015625 272.457031 C 303.082031 271.730469 302.976562 271.027344 302.695312 270.351562 Z M 258.066406 270.519531 L 248.164062 270.519531 L 255.636719 250.523438 L 260.648438 263.722656 Z M 264.023438 271.753906 L 271.558594 251.925781 L 279.09375 271.753906 Z M 285.050781 270.519531 L 283.152344 265.523438 L 288.714844 250.523438 L 296.328125 270.519531 Z M 285.050781 270.519531 " fill-opacity="1" fill-rule="nonzero"/><path fill="#ffcc34" d="M 310.632812 82.140625 L 301.613281 82.140625 C 301.214844 82.140625 300.832031 82.214844 300.464844 82.367188 C 300.09375 82.523438 299.769531 82.738281 299.488281 83.023438 C 299.207031 83.304688 298.988281 83.628906 298.835938 84 C 298.683594 84.367188 298.605469 84.75 298.605469 85.148438 L 298.605469 91.167969 L 295.601562 91.167969 L 295.601562 85.148438 C 295.601562 84.75 295.523438 84.367188 295.371094 84 C 295.21875 83.628906 295 83.304688 294.71875 83.019531 C 294.4375 82.738281 294.113281 82.523438 293.746094 82.367188 C 293.375 82.214844 292.992188 82.140625 292.59375 82.140625 L 280.566406 82.140625 C 280.167969 82.140625 279.785156 82.214844 279.414062 82.367188 C 279.046875 82.523438 278.722656 82.738281 278.4375 83.019531 C 278.15625 83.304688 277.941406 83.628906 277.789062 84 C 277.632812 84.367188 277.558594 84.75 277.558594 85.148438 L 277.558594 91.167969 L 274.550781 91.167969 L 274.550781 85.148438 C 274.550781 84.75 274.476562 84.367188 274.324219 84 C 274.171875 83.628906 273.953125 83.304688 273.671875 83.019531 C 273.390625 82.738281 273.066406 82.523438 272.695312 82.367188 C 272.328125 82.214844 271.945312 82.140625 271.546875 82.140625 L 262.523438 82.140625 C 262.125 82.140625 261.742188 82.214844 261.375 82.367188 C 261.003906 82.523438 260.679688 82.738281 260.398438 83.019531 C 260.117188 83.304688 259.898438 83.628906 259.746094 84 C 259.59375 84.367188 259.515625 84.75 259.515625 85.148438 L 259.515625 103.207031 C 259.519531 103.734375 259.589844 104.25 259.726562 104.757812 C 259.863281 105.265625 260.066406 105.746094 260.328125 106.199219 C 260.59375 106.65625 260.910156 107.070312 261.28125 107.441406 C 261.65625 107.8125 262.070312 108.128906 262.523438 108.390625 L 262.523438 142.332031 C 262.523438 142.730469 262.601562 143.117188 262.753906 143.484375 C 262.90625 143.855469 263.121094 144.179688 263.40625 144.460938 C 263.6875 144.742188 264.011719 144.960938 264.378906 145.113281 C 264.75 145.265625 265.132812 145.34375 265.53125 145.34375 L 307.628906 145.34375 C 308.027344 145.34375 308.410156 145.265625 308.777344 145.113281 C 309.148438 144.960938 309.472656 144.742188 309.753906 144.460938 C 310.035156 144.179688 310.253906 143.855469 310.40625 143.484375 C 310.558594 143.117188 310.632812 142.730469 310.632812 142.332031 L 310.632812 108.390625 C 311.089844 108.128906 311.503906 107.8125 311.875 107.441406 C 312.25 107.070312 312.566406 106.65625 312.832031 106.203125 C 313.09375 105.746094 313.296875 105.265625 313.433594 104.757812 C 313.570312 104.25 313.640625 103.734375 313.640625 103.207031 L 313.640625 85.148438 C 313.640625 84.75 313.566406 84.367188 313.414062 84 C 313.261719 83.628906 313.042969 83.304688 312.761719 83.019531 C 312.480469 82.738281 312.152344 82.523438 311.785156 82.367188 C 311.417969 82.214844 311.035156 82.140625 310.632812 82.140625 Z M 289.585938 139.324219 L 283.574219 139.324219 L 283.574219 130.292969 C 283.574219 129.894531 283.648438 129.511719 283.800781 129.144531 C 283.953125 128.773438 284.171875 128.449219 284.453125 128.167969 C 284.734375 127.882812 285.058594 127.667969 285.429688 127.515625 C 285.796875 127.359375 286.179688 127.285156 286.578125 127.285156 C 286.976562 127.285156 287.363281 127.359375 287.730469 127.515625 C 288.097656 127.667969 288.421875 127.882812 288.707031 128.167969 C 288.988281 128.449219 289.203125 128.773438 289.355469 129.144531 C 289.511719 129.511719 289.585938 129.894531 289.585938 130.292969 Z M 304.621094 139.324219 L 295.601562 139.324219 L 295.601562 130.292969 C 295.601562 129.703125 295.542969 129.113281 295.425781 128.53125 C 295.3125 127.953125 295.140625 127.386719 294.914062 126.839844 C 294.6875 126.292969 294.410156 125.769531 294.078125 125.277344 C 293.75 124.785156 293.375 124.328125 292.957031 123.910156 C 292.539062 123.492188 292.082031 123.117188 291.589844 122.789062 C 291.097656 122.457031 290.578125 122.179688 290.03125 121.953125 C 289.484375 121.726562 288.921875 121.554688 288.339844 121.4375 C 287.757812 121.324219 287.171875 121.265625 286.578125 121.265625 C 285.988281 121.265625 285.402344 121.324219 284.820312 121.4375 C 284.238281 121.554688 283.675781 121.726562 283.128906 121.953125 C 282.582031 122.179688 282.058594 122.457031 281.566406 122.789062 C 281.074219 123.117188 280.621094 123.492188 280.199219 123.910156 C 279.78125 124.328125 279.40625 124.785156 279.078125 125.277344 C 278.75 125.769531 278.472656 126.292969 278.246094 126.839844 C 278.019531 127.386719 277.847656 127.953125 277.730469 128.53125 C 277.617188 129.113281 277.558594 129.703125 277.558594 130.292969 L 277.558594 139.324219 L 268.539062 139.324219 L 268.539062 109.226562 L 304.621094 109.226562 Z M 307.628906 103.207031 L 265.53125 103.207031 L 265.53125 88.160156 L 268.539062 88.160156 L 268.539062 94.179688 C 268.539062 94.578125 268.613281 94.960938 268.765625 95.332031 C 268.917969 95.699219 269.136719 96.023438 269.417969 96.308594 C 269.699219 96.589844 270.027344 96.808594 270.394531 96.960938 C 270.761719 97.113281 271.144531 97.1875 271.546875 97.1875 L 280.566406 97.1875 C 280.964844 97.1875 281.347656 97.113281 281.714844 96.960938 C 282.085938 96.808594 282.410156 96.589844 282.691406 96.308594 C 282.972656 96.023438 283.191406 95.699219 283.34375 95.332031 C 283.496094 94.960938 283.574219 94.578125 283.574219 94.179688 L 283.574219 88.160156 L 289.585938 88.160156 L 289.585938 94.179688 C 289.585938 94.578125 289.664062 94.960938 289.816406 95.332031 C 289.96875 95.699219 290.183594 96.023438 290.464844 96.308594 C 290.75 96.589844 291.074219 96.808594 291.441406 96.960938 C 291.8125 97.113281 292.195312 97.1875 292.59375 97.1875 L 301.613281 97.1875 C 302.011719 97.1875 302.394531 97.113281 302.765625 96.960938 C 303.132812 96.808594 303.457031 96.589844 303.742188 96.308594 C 304.023438 96.023438 304.238281 95.699219 304.390625 95.332031 C 304.542969 94.960938 304.621094 94.578125 304.621094 94.179688 L 304.621094 88.160156 L 307.628906 88.160156 Z M 307.628906 103.207031 " fill-opacity="1" fill-rule="nonzero"/><path fill="#ffcc34" d="M 191.175781 97.1875 L 197.191406 97.1875 L 197.191406 109.226562 L 191.175781 109.226562 Z M 191.175781 97.1875 " fill-opacity="1" fill-rule="nonzero"/><path fill="#ffcc34" d="M 153.785156 112.175781 L 158.039062 107.917969 L 166.542969 116.429688 L 162.292969 120.6875 Z M 153.785156 112.175781 " fill-opacity="1" fill-rule="nonzero"/><path fill="#ffcc34" d="M 221.824219 116.433594 L 230.328125 107.917969 L 234.582031 112.175781 L 226.078125 120.6875 Z M 221.824219 116.433594 " fill-opacity="1" fill-rule="nonzero"/><path fill="#ffcc34" d="M 130.535156 228.269531 L 125.53125 224.933594 L 120.71875 232.160156 C 119.054688 231.324219 117.316406 230.6875 115.503906 230.257812 C 113.691406 229.828125 111.855469 229.613281 109.992188 229.613281 C 108.128906 229.613281 106.292969 229.828125 104.480469 230.257812 C 102.667969 230.6875 100.929688 231.324219 99.265625 232.160156 L 94.453125 224.933594 L 89.449219 228.269531 L 94.351562 235.628906 C 93.511719 236.394531 92.761719 237.238281 92.097656 238.15625 C 91.433594 239.078125 90.867188 240.054688 90.402344 241.089844 C 89.9375 242.125 89.582031 243.195312 89.335938 244.304688 C 89.089844 245.414062 88.960938 246.535156 88.945312 247.667969 C 88.945312 257.625 98.386719 265.726562 109.992188 265.726562 C 121.597656 265.726562 131.039062 257.625 131.039062 247.667969 C 131.023438 246.535156 130.894531 245.414062 130.648438 244.304688 C 130.402344 243.195312 130.046875 242.125 129.582031 241.089844 C 129.117188 240.054688 128.554688 239.078125 127.886719 238.15625 C 127.222656 237.238281 126.472656 236.394531 125.636719 235.628906 Z M 109.992188 259.707031 C 101.703125 259.707031 94.957031 254.308594 94.957031 247.667969 C 94.957031 241.03125 101.703125 235.632812 109.992188 235.632812 C 118.28125 235.632812 125.027344 241.03125 125.027344 247.667969 C 125.027344 254.308594 118.28125 259.707031 109.992188 259.707031 Z M 109.992188 259.707031 " fill-opacity="1" fill-rule="nonzero"/><path fill="#ffcc34" d="M 119.011719 244.660156 C 119.011719 245.058594 118.9375 245.441406 118.78125 245.8125 C 118.628906 246.179688 118.414062 246.503906 118.132812 246.789062 C 117.847656 247.070312 117.523438 247.289062 117.15625 247.441406 C 116.789062 247.59375 116.402344 247.667969 116.003906 247.667969 C 115.605469 247.667969 115.222656 247.59375 114.855469 247.441406 C 114.484375 247.289062 114.160156 247.070312 113.878906 246.789062 C 113.597656 246.503906 113.378906 246.179688 113.226562 245.8125 C 113.074219 245.441406 113 245.058594 113 244.660156 C 113 244.261719 113.074219 243.875 113.226562 243.507812 C 113.378906 243.140625 113.597656 242.8125 113.878906 242.53125 C 114.160156 242.25 114.484375 242.03125 114.855469 241.878906 C 115.222656 241.726562 115.605469 241.648438 116.003906 241.648438 C 116.402344 241.648438 116.789062 241.726562 117.15625 241.878906 C 117.523438 242.03125 117.847656 242.25 118.132812 242.53125 C 118.414062 242.8125 118.628906 243.140625 118.78125 243.507812 C 118.9375 243.875 119.011719 244.261719 119.011719 244.660156 Z M 119.011719 244.660156 " fill-opacity="1" fill-rule="nonzero"/><path fill="#ffcc34" d="M 106.984375 244.660156 C 106.984375 245.058594 106.90625 245.441406 106.753906 245.8125 C 106.601562 246.179688 106.386719 246.503906 106.105469 246.789062 C 105.820312 247.070312 105.496094 247.289062 105.128906 247.441406 C 104.761719 247.59375 104.375 247.667969 103.976562 247.667969 C 103.578125 247.667969 103.195312 247.59375 102.828125 247.441406 C 102.457031 247.289062 102.132812 247.070312 101.851562 246.789062 C 101.570312 246.503906 101.351562 246.179688 101.199219 245.8125 C 101.046875 245.441406 100.96875 245.058594 100.96875 244.660156 C 100.96875 244.261719 101.046875 243.875 101.199219 243.507812 C 101.351562 243.140625 101.570312 242.8125 101.851562 242.53125 C 102.132812 242.25 102.457031 242.03125 102.828125 241.878906 C 103.195312 241.726562 103.578125 241.648438 103.976562 241.648438 C 104.375 241.648438 104.761719 241.726562 105.128906 241.878906 C 105.496094 242.03125 105.820312 242.25 106.105469 242.53125 C 106.386719 242.8125 106.601562 243.140625 106.753906 243.507812 C 106.90625 243.875 106.984375 244.261719 106.984375 244.660156 Z M 106.984375 244.660156 " fill-opacity="1" fill-rule="nonzero"/><path fill="#ffcc34" d="M 109.992188 208.542969 C 108.8125 208.542969 107.632812 208.601562 106.457031 208.71875 C 105.28125 208.835938 104.113281 209.007812 102.953125 209.238281 C 101.792969 209.46875 100.648438 209.757812 99.519531 210.097656 C 98.386719 210.441406 97.277344 210.839844 96.183594 211.292969 C 95.09375 211.746094 94.027344 212.25 92.984375 212.808594 C 91.941406 213.367188 90.929688 213.972656 89.945312 214.628906 C 88.964844 215.289062 88.015625 215.992188 87.101562 216.742188 C 86.1875 217.492188 85.3125 218.285156 84.476562 219.121094 C 83.644531 219.957031 82.851562 220.835938 82.101562 221.75 C 81.351562 222.664062 80.648438 223.613281 79.992188 224.59375 C 79.335938 225.578125 78.726562 226.59375 78.171875 227.636719 C 77.613281 228.679688 77.109375 229.746094 76.65625 230.839844 C 76.203125 231.933594 75.808594 233.042969 75.464844 234.175781 C 75.121094 235.308594 74.832031 236.453125 74.601562 237.613281 C 74.371094 238.773438 74.199219 239.941406 74.082031 241.121094 C 73.96875 242.296875 73.910156 243.476562 73.910156 244.660156 C 73.910156 245.84375 73.96875 247.023438 74.082031 248.199219 C 74.199219 249.375 74.371094 250.546875 74.601562 251.707031 C 74.832031 252.867188 75.121094 254.011719 75.464844 255.144531 C 75.808594 256.273438 76.203125 257.386719 76.65625 258.480469 C 77.109375 259.574219 77.613281 260.640625 78.171875 261.683594 C 78.726562 262.726562 79.335938 263.742188 79.992188 264.722656 C 80.648438 265.707031 81.351562 266.65625 82.101562 267.570312 C 82.851562 268.484375 83.644531 269.359375 84.476562 270.195312 C 85.3125 271.035156 86.1875 271.828125 87.101562 272.578125 C 88.015625 273.328125 88.964844 274.03125 89.945312 274.6875 C 90.929688 275.34375 91.941406 275.953125 92.984375 276.511719 C 94.027344 277.066406 95.09375 277.574219 96.183594 278.027344 C 97.277344 278.480469 98.386719 278.875 99.519531 279.21875 C 100.648438 279.5625 101.792969 279.851562 102.953125 280.082031 C 104.113281 280.3125 105.28125 280.484375 106.457031 280.601562 C 107.632812 280.71875 108.8125 280.773438 109.992188 280.773438 C 111.175781 280.773438 112.351562 280.71875 113.53125 280.601562 C 114.707031 280.484375 115.871094 280.3125 117.03125 280.082031 C 118.191406 279.851562 119.335938 279.5625 120.46875 279.21875 C 121.597656 278.875 122.710938 278.480469 123.800781 278.027344 C 124.894531 277.574219 125.960938 277.066406 127 276.511719 C 128.042969 275.953125 129.054688 275.34375 130.039062 274.6875 C 131.023438 274.03125 131.96875 273.328125 132.882812 272.578125 C 133.796875 271.828125 134.671875 271.035156 135.507812 270.195312 C 136.34375 269.359375 137.136719 268.484375 137.886719 267.570312 C 138.632812 266.65625 139.335938 265.707031 139.996094 264.722656 C 140.652344 263.742188 141.257812 262.726562 141.816406 261.683594 C 142.371094 260.640625 142.875 259.574219 143.328125 258.480469 C 143.78125 257.386719 144.179688 256.273438 144.523438 255.144531 C 144.863281 254.011719 145.152344 252.867188 145.382812 251.707031 C 145.613281 250.546875 145.785156 249.375 145.902344 248.199219 C 146.015625 247.023438 146.074219 245.84375 146.074219 244.660156 C 146.074219 243.476562 146.015625 242.296875 145.898438 241.121094 C 145.78125 239.945312 145.605469 238.777344 145.375 237.617188 C 145.144531 236.457031 144.855469 235.3125 144.511719 234.179688 C 144.167969 233.050781 143.769531 231.9375 143.316406 230.84375 C 142.867188 229.753906 142.359375 228.683594 141.804688 227.644531 C 141.246094 226.601562 140.640625 225.585938 139.980469 224.605469 C 139.324219 223.621094 138.621094 222.671875 137.871094 221.757812 C 137.125 220.84375 136.332031 219.96875 135.496094 219.132812 C 134.660156 218.296875 133.785156 217.503906 132.871094 216.753906 C 131.960938 216.003906 131.011719 215.300781 130.03125 214.644531 C 129.046875 213.984375 128.035156 213.378906 126.992188 212.820312 C 125.953125 212.261719 124.886719 211.757812 123.792969 211.304688 C 122.703125 210.851562 121.59375 210.453125 120.460938 210.109375 C 119.332031 209.765625 118.1875 209.476562 117.027344 209.246094 C 115.871094 209.011719 114.703125 208.839844 113.527344 208.722656 C 112.351562 208.605469 111.175781 208.546875 109.992188 208.542969 Z M 109.992188 274.757812 C 109.007812 274.757812 108.027344 274.707031 107.046875 274.609375 C 106.066406 274.515625 105.09375 274.371094 104.125 274.175781 C 103.160156 273.984375 102.207031 273.746094 101.265625 273.460938 C 100.320312 273.171875 99.394531 272.84375 98.484375 272.464844 C 97.574219 272.085938 96.6875 271.667969 95.816406 271.203125 C 94.949219 270.738281 94.105469 270.230469 93.289062 269.683594 C 92.46875 269.136719 91.679688 268.550781 90.917969 267.925781 C 90.15625 267.300781 89.425781 266.636719 88.730469 265.941406 C 88.035156 265.242188 87.375 264.515625 86.75 263.753906 C 86.125 262.992188 85.539062 262.199219 84.992188 261.378906 C 84.445312 260.5625 83.9375 259.714844 83.472656 258.847656 C 83.011719 257.976562 82.589844 257.085938 82.210938 256.175781 C 81.835938 255.265625 81.503906 254.339844 81.21875 253.394531 C 80.933594 252.453125 80.695312 251.496094 80.5 250.53125 C 80.308594 249.5625 80.164062 248.589844 80.070312 247.609375 C 79.972656 246.628906 79.921875 245.644531 79.921875 244.660156 C 79.921875 243.675781 79.972656 242.691406 80.070312 241.710938 C 80.164062 240.730469 80.308594 239.753906 80.5 238.789062 C 80.695312 237.820312 80.933594 236.867188 81.21875 235.921875 C 81.503906 234.980469 81.835938 234.054688 82.210938 233.140625 C 82.589844 232.230469 83.011719 231.339844 83.472656 230.472656 C 83.9375 229.601562 84.445312 228.757812 84.992188 227.9375 C 85.539062 227.121094 86.125 226.328125 86.75 225.566406 C 87.375 224.804688 88.035156 224.074219 88.730469 223.378906 C 89.425781 222.679688 90.15625 222.019531 90.917969 221.394531 C 91.679688 220.769531 92.46875 220.183594 93.289062 219.636719 C 94.105469 219.089844 94.949219 218.582031 95.816406 218.117188 C 96.6875 217.652344 97.574219 217.230469 98.484375 216.855469 C 99.394531 216.476562 100.320312 216.144531 101.265625 215.859375 C 102.207031 215.574219 103.160156 215.335938 104.125 215.140625 C 105.09375 214.949219 106.066406 214.804688 107.046875 214.707031 C 108.027344 214.613281 109.007812 214.5625 109.992188 214.5625 C 110.976562 214.5625 111.960938 214.613281 112.941406 214.707031 C 113.921875 214.804688 114.894531 214.949219 115.859375 215.140625 C 116.824219 215.335938 117.777344 215.574219 118.722656 215.859375 C 119.664062 216.144531 120.589844 216.476562 121.5 216.855469 C 122.410156 217.230469 123.296875 217.652344 124.167969 218.117188 C 125.035156 218.582031 125.878906 219.089844 126.699219 219.636719 C 127.515625 220.183594 128.308594 220.769531 129.066406 221.394531 C 129.828125 222.019531 130.558594 222.679688 131.253906 223.378906 C 131.949219 224.074219 132.613281 224.804688 133.234375 225.566406 C 133.859375 226.328125 134.445312 227.121094 134.992188 227.9375 C 135.542969 228.757812 136.046875 229.601562 136.511719 230.472656 C 136.976562 231.339844 137.394531 232.230469 137.773438 233.140625 C 138.148438 234.054688 138.480469 234.980469 138.765625 235.921875 C 139.050781 236.867188 139.292969 237.820312 139.484375 238.789062 C 139.675781 239.753906 139.820312 240.730469 139.917969 241.710938 C 140.011719 242.691406 140.0625 243.675781 140.0625 244.660156 C 140.058594 245.644531 140.011719 246.628906 139.914062 247.609375 C 139.816406 248.589844 139.671875 249.5625 139.476562 250.527344 C 139.285156 251.496094 139.046875 252.449219 138.757812 253.390625 C 138.472656 254.335938 138.140625 255.261719 137.761719 256.171875 C 137.386719 257.082031 136.964844 257.972656 136.5 258.839844 C 136.035156 259.707031 135.53125 260.550781 134.984375 261.371094 C 134.4375 262.191406 133.851562 262.980469 133.226562 263.742188 C 132.601562 264.503906 131.941406 265.234375 131.246094 265.929688 C 130.546875 266.628906 129.820312 267.289062 129.058594 267.914062 C 128.296875 268.539062 127.507812 269.125 126.691406 269.671875 C 125.871094 270.21875 125.027344 270.726562 124.160156 271.191406 C 123.292969 271.65625 122.402344 272.078125 121.492188 272.457031 C 120.585938 272.832031 119.660156 273.164062 118.71875 273.453125 C 117.773438 273.738281 116.820312 273.980469 115.855469 274.171875 C 114.890625 274.363281 113.917969 274.511719 112.9375 274.609375 C 111.960938 274.707031 110.976562 274.753906 109.992188 274.757812 Z M 109.992188 274.757812 " fill-opacity="1" fill-rule="nonzero"/><path fill="#ffcc34" d="M 106.984375 190.488281 L 113 190.488281 L 113 202.523438 L 106.984375 202.523438 Z M 106.984375 190.488281 " fill-opacity="1" fill-rule="nonzero"/><path fill="#ffcc34" d="M 69.59375 205.472656 L 73.84375 201.214844 L 82.351562 209.726562 L 78.097656 213.980469 Z M 69.59375 205.472656 " fill-opacity="1" fill-rule="nonzero"/><path fill="#ffcc34" d="M 137.632812 209.730469 L 146.136719 201.21875 L 150.390625 205.472656 L 141.886719 213.988281 Z M 137.632812 209.730469 " fill-opacity="1" fill-rule="nonzero"/><path fill="#ffcc34" d="M 277.558594 208.542969 C 278.347656 208.542969 279.128906 208.46875 279.90625 208.3125 C 280.679688 208.160156 281.433594 207.929688 282.160156 207.628906 C 282.890625 207.324219 283.585938 206.953125 284.242188 206.515625 C 284.898438 206.078125 285.503906 205.578125 286.0625 205.019531 C 286.621094 204.460938 287.121094 203.851562 287.558594 203.195312 C 288 202.535156 288.367188 201.84375 288.671875 201.113281 C 288.972656 200.382812 289.199219 199.628906 289.355469 198.855469 C 289.507812 198.078125 289.585938 197.296875 289.585938 196.507812 C 289.585938 195.714844 289.507812 194.933594 289.355469 194.15625 C 289.199219 193.382812 288.972656 192.628906 288.671875 191.898438 C 288.367188 191.167969 288 190.476562 287.558594 189.816406 C 287.121094 189.160156 286.621094 188.550781 286.0625 187.992188 C 285.503906 187.433594 284.898438 186.933594 284.242188 186.496094 C 283.585938 186.058594 282.890625 185.6875 282.160156 185.382812 C 281.433594 185.082031 280.679688 184.851562 279.90625 184.699219 C 279.128906 184.542969 278.347656 184.46875 277.558594 184.46875 C 276.769531 184.46875 275.988281 184.542969 275.210938 184.699219 C 274.4375 184.851562 273.6875 185.082031 272.957031 185.382812 C 272.226562 185.6875 271.535156 186.058594 270.875 186.496094 C 270.21875 186.933594 269.613281 187.433594 269.054688 187.992188 C 268.496094 188.550781 267.996094 189.160156 267.558594 189.816406 C 267.121094 190.476562 266.75 191.167969 266.445312 191.898438 C 266.144531 192.628906 265.917969 193.382812 265.761719 194.15625 C 265.609375 194.933594 265.53125 195.714844 265.53125 196.507812 C 265.53125 197.296875 265.609375 198.078125 265.765625 198.855469 C 265.917969 199.628906 266.148438 200.382812 266.449219 201.109375 C 266.753906 201.839844 267.125 202.535156 267.5625 203.191406 C 268 203.847656 268.5 204.457031 269.058594 205.015625 C 269.617188 205.574219 270.222656 206.074219 270.878906 206.511719 C 271.535156 206.949219 272.230469 207.320312 272.957031 207.625 C 273.6875 207.925781 274.4375 208.15625 275.214844 208.3125 C 275.988281 208.464844 276.769531 208.542969 277.558594 208.542969 Z M 277.558594 190.488281 C 277.953125 190.488281 278.34375 190.523438 278.730469 190.601562 C 279.121094 190.679688 279.496094 190.792969 279.859375 190.945312 C 280.226562 191.097656 280.570312 191.28125 280.898438 191.5 C 281.226562 191.71875 281.53125 191.96875 281.8125 192.25 C 282.089844 192.527344 282.339844 192.832031 282.558594 193.160156 C 282.777344 193.492188 282.964844 193.835938 283.113281 194.203125 C 283.265625 194.566406 283.378906 194.945312 283.457031 195.332031 C 283.535156 195.71875 283.574219 196.109375 283.574219 196.507812 C 283.574219 196.902344 283.535156 197.292969 283.457031 197.679688 C 283.378906 198.066406 283.265625 198.445312 283.113281 198.808594 C 282.964844 199.175781 282.777344 199.519531 282.558594 199.851562 C 282.339844 200.179688 282.089844 200.484375 281.8125 200.761719 C 281.53125 201.042969 281.226562 201.292969 280.898438 201.511719 C 280.570312 201.730469 280.226562 201.914062 279.859375 202.066406 C 279.496094 202.21875 279.121094 202.332031 278.730469 202.410156 C 278.34375 202.488281 277.953125 202.523438 277.558594 202.523438 C 277.164062 202.523438 276.773438 202.488281 276.386719 202.410156 C 276 202.332031 275.621094 202.21875 275.257812 202.066406 C 274.894531 201.914062 274.546875 201.730469 274.21875 201.511719 C 273.890625 201.292969 273.585938 201.042969 273.304688 200.761719 C 273.027344 200.484375 272.777344 200.179688 272.558594 199.851562 C 272.339844 199.519531 272.152344 199.175781 272.003906 198.808594 C 271.851562 198.445312 271.738281 198.066406 271.660156 197.679688 C 271.582031 197.292969 271.546875 196.902344 271.546875 196.507812 C 271.546875 196.109375 271.585938 195.71875 271.660156 195.332031 C 271.738281 194.945312 271.855469 194.570312 272.003906 194.203125 C 272.15625 193.839844 272.339844 193.492188 272.5625 193.164062 C 272.78125 192.835938 273.03125 192.53125 273.308594 192.25 C 273.585938 191.972656 273.890625 191.722656 274.21875 191.503906 C 274.546875 191.285156 274.894531 191.097656 275.257812 190.945312 C 275.625 190.796875 276 190.679688 276.386719 190.605469 C 276.773438 190.527344 277.164062 190.488281 277.558594 190.488281 Z M 277.558594 190.488281 " fill-opacity="1" fill-rule="nonzero"/><path fill="#ffcc34" d="M 202.386719 232.621094 C 201.597656 232.621094 200.816406 232.699219 200.039062 232.851562 C 199.265625 233.007812 198.511719 233.234375 197.785156 233.539062 C 197.054688 233.839844 196.359375 234.210938 195.703125 234.648438 C 195.046875 235.089844 194.441406 235.589844 193.882812 236.148438 C 193.324219 236.707031 192.824219 237.3125 192.386719 237.972656 C 191.949219 238.628906 191.578125 239.324219 191.273438 240.054688 C 190.972656 240.78125 190.746094 241.535156 190.589844 242.3125 C 190.4375 243.085938 190.359375 243.871094 190.359375 244.660156 C 190.359375 245.449219 190.4375 246.234375 190.589844 247.007812 C 190.746094 247.785156 190.972656 248.535156 191.273438 249.265625 C 191.578125 249.996094 191.949219 250.691406 192.386719 251.347656 C 192.824219 252.003906 193.324219 252.613281 193.882812 253.171875 C 194.441406 253.730469 195.046875 254.230469 195.703125 254.667969 C 196.359375 255.109375 197.054688 255.480469 197.785156 255.78125 C 198.511719 256.085938 199.265625 256.3125 200.039062 256.46875 C 200.816406 256.621094 201.597656 256.699219 202.386719 256.699219 C 203.175781 256.699219 203.957031 256.621094 204.734375 256.46875 C 205.507812 256.3125 206.261719 256.085938 206.988281 255.78125 C 207.71875 255.480469 208.414062 255.109375 209.070312 254.667969 C 209.726562 254.230469 210.332031 253.730469 210.890625 253.171875 C 211.449219 252.613281 211.949219 252.003906 212.386719 251.347656 C 212.824219 250.691406 213.195312 249.996094 213.5 249.265625 C 213.800781 248.535156 214.027344 247.785156 214.183594 247.007812 C 214.335938 246.234375 214.414062 245.449219 214.414062 244.660156 C 214.414062 243.871094 214.335938 243.085938 214.179688 242.3125 C 214.027344 241.535156 213.796875 240.785156 213.496094 240.054688 C 213.191406 239.324219 212.824219 238.632812 212.382812 237.972656 C 211.945312 237.316406 211.445312 236.710938 210.886719 236.152344 C 210.328125 235.59375 209.722656 235.09375 209.066406 234.652344 C 208.410156 234.214844 207.71875 233.84375 206.988281 233.539062 C 206.257812 233.238281 205.507812 233.007812 204.730469 232.855469 C 203.957031 232.699219 203.175781 232.621094 202.386719 232.621094 Z M 202.386719 250.679688 C 201.992188 250.679688 201.601562 250.640625 201.214844 250.5625 C 200.828125 250.484375 200.449219 250.371094 200.085938 250.222656 C 199.71875 250.070312 199.375 249.882812 199.046875 249.664062 C 198.71875 249.445312 198.414062 249.195312 198.132812 248.914062 C 197.855469 248.636719 197.605469 248.332031 197.386719 248.003906 C 197.167969 247.675781 196.980469 247.328125 196.832031 246.964844 C 196.679688 246.597656 196.566406 246.222656 196.488281 245.835938 C 196.410156 245.445312 196.371094 245.054688 196.371094 244.660156 C 196.371094 244.265625 196.410156 243.871094 196.488281 243.484375 C 196.566406 243.097656 196.679688 242.722656 196.832031 242.355469 C 196.980469 241.992188 197.167969 241.644531 197.386719 241.316406 C 197.605469 240.988281 197.855469 240.683594 198.132812 240.402344 C 198.414062 240.125 198.71875 239.875 199.046875 239.65625 C 199.375 239.433594 199.71875 239.25 200.085938 239.097656 C 200.449219 238.949219 200.828125 238.832031 201.214844 238.757812 C 201.601562 238.679688 201.992188 238.640625 202.386719 238.640625 C 202.78125 238.640625 203.171875 238.679688 203.558594 238.757812 C 203.945312 238.832031 204.324219 238.949219 204.6875 239.097656 C 205.054688 239.25 205.398438 239.433594 205.726562 239.65625 C 206.054688 239.875 206.359375 240.125 206.640625 240.402344 C 206.917969 240.683594 207.167969 240.988281 207.386719 241.316406 C 207.605469 241.644531 207.792969 241.992188 207.941406 242.355469 C 208.09375 242.722656 208.207031 243.097656 208.285156 243.484375 C 208.363281 243.871094 208.402344 244.265625 208.402344 244.660156 C 208.398438 245.054688 208.359375 245.445312 208.285156 245.832031 C 208.207031 246.222656 208.09375 246.597656 207.941406 246.960938 C 207.789062 247.328125 207.605469 247.671875 207.382812 248.003906 C 207.164062 248.332031 206.914062 248.632812 206.636719 248.914062 C 206.359375 249.191406 206.054688 249.441406 205.726562 249.664062 C 205.398438 249.882812 205.050781 250.066406 204.6875 250.21875 C 204.324219 250.371094 203.945312 250.484375 203.558594 250.5625 C 203.171875 250.640625 202.78125 250.679688 202.386719 250.679688 Z M 202.386719 250.679688 " fill-opacity="1" fill-rule="nonzero"/></svg>