<svg xmlns="http://www.w3.org/2000/svg" xmlns:xlink="http://www.w3.org/1999/xlink" width="500" zoomAndPan="magnify" viewBox="0 0 375 374.999991" height="500" preserveAspectRatio="xMidYMid meet" version="1.0"><defs><clipPath id="id1"><path d="M 61.527344 61.527344 L 313.527344 61.527344 L 313.527344 313.527344 L 61.527344 313.527344 Z M 61.527344 61.527344 " clip-rule="nonzero"/></clipPath></defs><g clip-path="url(#id1)"><path fill="#ffcc34" d="M 309.125 120.652344 L 242.039062 120.652344 L 242.039062 97.226562 L 255.847656 111.035156 L 261.773438 105.105469 L 240.808594 84.140625 C 239.171875 82.503906 236.519531 82.503906 234.878906 84.140625 L 213.914062 105.105469 L 219.84375 111.035156 L 233.652344 97.226562 L 233.652344 120.652344 L 191.722656 120.652344 L 191.722656 76.261719 L 205.53125 90.070312 L 211.457031 84.140625 L 190.492188 63.175781 C 188.855469 61.539062 186.203125 61.539062 184.566406 63.175781 L 163.597656 84.140625 L 169.527344 90.070312 L 183.335938 76.261719 L 183.335938 120.652344 L 141.40625 120.652344 L 141.40625 97.226562 L 155.214844 111.035156 L 161.140625 105.105469 L 140.175781 84.140625 C 138.539062 82.503906 135.886719 82.503906 134.25 84.140625 L 113.285156 105.105469 L 119.210938 111.035156 L 133.019531 97.226562 L 133.019531 120.652344 L 65.933594 120.652344 C 63.617188 120.652344 61.738281 122.523438 61.738281 124.84375 L 61.738281 238.054688 C 61.738281 240.375 63.617188 242.246094 65.933594 242.246094 L 82.703125 242.246094 L 82.703125 309.335938 C 82.703125 311.65625 84.582031 313.527344 86.898438 313.527344 L 153.984375 313.527344 C 155.640625 313.527344 157.140625 312.554688 157.816406 311.039062 L 174.589844 273.300781 C 174.828125 272.765625 174.949219 272.1875 174.949219 271.597656 L 174.949219 242.246094 L 200.109375 242.246094 L 200.109375 271.597656 C 200.109375 272.1875 200.230469 272.765625 200.46875 273.300781 L 217.242188 311.039062 C 217.914062 312.554688 219.417969 313.527344 221.074219 313.527344 L 288.160156 313.527344 C 290.476562 313.527344 292.355469 311.65625 292.355469 309.335938 L 292.355469 242.246094 L 309.125 242.246094 C 311.441406 242.246094 313.320312 240.375 313.320312 238.054688 L 313.320312 124.84375 C 313.320312 122.523438 311.441406 120.652344 309.125 120.652344 Z M 166.5625 270.710938 L 151.257812 305.144531 L 91.089844 305.144531 L 91.089844 200.316406 C 91.089844 198.003906 92.972656 196.125 95.28125 196.125 C 97.59375 196.125 99.476562 198.003906 99.476562 200.316406 L 99.476562 233.863281 L 107.863281 233.863281 L 107.863281 183.546875 C 107.863281 181.230469 109.746094 179.351562 112.054688 179.351562 C 114.367188 179.351562 116.246094 181.230469 116.246094 183.546875 L 116.246094 233.863281 L 124.632812 233.863281 L 124.632812 166.773438 C 124.632812 164.460938 126.515625 162.582031 128.828125 162.582031 C 131.136719 162.582031 133.019531 164.460938 133.019531 166.773438 L 133.019531 233.863281 L 141.40625 233.863281 L 141.40625 183.546875 C 141.40625 181.230469 143.289062 179.351562 145.597656 179.351562 C 147.910156 179.351562 149.792969 181.230469 149.792969 183.546875 L 149.792969 254.828125 L 158.179688 254.828125 L 158.179688 242.246094 C 158.179688 236.78125 161.683594 232.117188 166.5625 230.386719 Z M 283.96875 305.144531 L 223.796875 305.144531 L 208.496094 270.710938 L 208.496094 230.386719 C 213.375 232.117188 216.878906 236.78125 216.878906 242.246094 L 216.878906 254.828125 L 225.265625 254.828125 L 225.265625 183.546875 C 225.265625 181.230469 227.148438 179.351562 229.460938 179.351562 C 231.769531 179.351562 233.652344 181.230469 233.652344 183.546875 L 233.652344 233.863281 L 242.039062 233.863281 L 242.039062 166.773438 C 242.039062 164.460938 243.921875 162.582031 246.230469 162.582031 C 248.542969 162.582031 250.425781 164.460938 250.425781 166.773438 L 250.425781 233.863281 L 258.808594 233.863281 L 258.808594 183.546875 C 258.808594 181.230469 260.691406 179.351562 263.003906 179.351562 C 265.3125 179.351562 267.195312 181.230469 267.195312 183.546875 L 267.195312 233.863281 L 275.582031 233.863281 L 275.582031 200.316406 C 275.582031 198.003906 277.464844 196.125 279.773438 196.125 C 282.085938 196.125 283.96875 198.003906 283.96875 200.316406 Z M 304.933594 233.863281 L 292.355469 233.863281 L 292.355469 200.316406 C 292.355469 193.382812 286.710938 187.738281 279.773438 187.738281 C 278.300781 187.738281 276.898438 188.039062 275.582031 188.511719 L 275.582031 183.546875 C 275.582031 176.609375 269.9375 170.964844 263.003906 170.964844 C 261.527344 170.964844 260.125 171.269531 258.808594 171.738281 L 258.808594 166.773438 C 258.808594 159.839844 253.167969 154.195312 246.230469 154.195312 C 239.296875 154.195312 233.652344 159.839844 233.652344 166.773438 L 233.652344 171.738281 C 232.335938 171.269531 230.933594 170.964844 229.460938 170.964844 C 222.523438 170.964844 216.878906 176.609375 216.878906 183.546875 L 216.878906 225.585938 C 213.367188 222.921875 209.039062 221.28125 204.300781 221.28125 C 201.988281 221.28125 200.109375 223.15625 200.109375 225.476562 L 200.109375 233.863281 L 174.949219 233.863281 L 174.949219 225.476562 C 174.949219 223.15625 173.070312 221.28125 170.757812 221.28125 C 166.019531 221.28125 161.691406 222.921875 158.179688 225.585938 L 158.179688 183.546875 C 158.179688 176.609375 152.535156 170.964844 145.597656 170.964844 C 144.125 170.964844 142.722656 171.269531 141.40625 171.738281 L 141.40625 166.773438 C 141.40625 159.839844 135.761719 154.195312 128.828125 154.195312 C 121.890625 154.195312 116.246094 159.839844 116.246094 166.773438 L 116.246094 171.738281 C 114.929688 171.269531 113.53125 170.964844 112.054688 170.964844 C 105.121094 170.964844 99.476562 176.609375 99.476562 183.546875 L 99.476562 188.511719 C 98.160156 188.039062 96.757812 187.738281 95.28125 187.738281 C 88.347656 187.738281 82.703125 193.382812 82.703125 200.316406 L 82.703125 233.863281 L 70.125 233.863281 L 70.125 129.035156 L 304.933594 129.035156 Z M 304.933594 233.863281 " fill-opacity="1" fill-rule="nonzero"/></g><path fill="#ffcc34" d="M 78.511719 137.421875 L 112.054688 137.421875 L 112.054688 145.808594 L 78.511719 145.808594 Z M 78.511719 137.421875 " fill-opacity="1" fill-rule="nonzero"/><path fill="#ffcc34" d="M 124.632812 137.421875 L 158.179688 137.421875 L 158.179688 145.808594 L 124.632812 145.808594 Z M 124.632812 137.421875 " fill-opacity="1" fill-rule="nonzero"/><path fill="#ffcc34" d="M 170.757812 137.421875 L 204.300781 137.421875 L 204.300781 145.808594 L 170.757812 145.808594 Z M 170.757812 137.421875 " fill-opacity="1" fill-rule="nonzero"/><path fill="#ffcc34" d="M 216.878906 137.421875 L 250.425781 137.421875 L 250.425781 145.808594 L 216.878906 145.808594 Z M 216.878906 137.421875 " fill-opacity="1" fill-rule="nonzero"/><path fill="#ffcc34" d="M 263.003906 137.421875 L 296.546875 137.421875 L 296.546875 145.808594 L 263.003906 145.808594 Z M 263.003906 137.421875 " fill-opacity="1" fill-rule="nonzero"/><path fill="#ffcc34" d="M 99.476562 154.195312 L 107.863281 154.195312 L 107.863281 162.582031 L 99.476562 162.582031 Z M 99.476562 154.195312 " fill-opacity="1" fill-rule="nonzero"/><path fill="#ffcc34" d="M 149.792969 154.195312 L 179.144531 154.195312 L 179.144531 162.582031 L 149.792969 162.582031 Z M 149.792969 154.195312 " fill-opacity="1" fill-rule="nonzero"/><path fill="#ffcc34" d="M 195.914062 154.195312 L 225.265625 154.195312 L 225.265625 162.582031 L 195.914062 162.582031 Z M 195.914062 154.195312 " fill-opacity="1" fill-rule="nonzero"/><path fill="#ffcc34" d="M 267.195312 154.195312 L 275.582031 154.195312 L 275.582031 162.582031 L 267.195312 162.582031 Z M 267.195312 154.195312 " fill-opacity="1" fill-rule="nonzero"/><path fill="#ffcc34" d="M 283.96875 154.195312 L 296.546875 154.195312 L 296.546875 162.582031 L 283.96875 162.582031 Z M 283.96875 154.195312 " fill-opacity="1" fill-rule="nonzero"/><path fill="#ffcc34" d="M 78.511719 154.195312 L 91.089844 154.195312 L 91.089844 162.582031 L 78.511719 162.582031 Z M 78.511719 154.195312 " fill-opacity="1" fill-rule="nonzero"/><path fill="#ffcc34" d="M 78.511719 170.964844 L 91.089844 170.964844 L 91.089844 179.351562 L 78.511719 179.351562 Z M 78.511719 170.964844 " fill-opacity="1" fill-rule="nonzero"/><path fill="#ffcc34" d="M 170.757812 170.964844 L 204.300781 170.964844 L 204.300781 179.351562 L 170.757812 179.351562 Z M 170.757812 170.964844 " fill-opacity="1" fill-rule="nonzero"/><path fill="#ffcc34" d="M 283.96875 170.964844 L 296.546875 170.964844 L 296.546875 179.351562 L 283.96875 179.351562 Z M 283.96875 170.964844 " fill-opacity="1" fill-rule="nonzero"/><path fill="#ffcc34" d="M 166.5625 187.738281 L 179.144531 187.738281 L 179.144531 196.125 L 166.5625 196.125 Z M 166.5625 187.738281 " fill-opacity="1" fill-rule="nonzero"/><path fill="#ffcc34" d="M 195.914062 187.738281 L 208.496094 187.738281 L 208.496094 196.125 L 195.914062 196.125 Z M 195.914062 187.738281 " fill-opacity="1" fill-rule="nonzero"/><path fill="#ffcc34" d="M 170.757812 204.511719 L 204.300781 204.511719 L 204.300781 212.898438 L 170.757812 212.898438 Z M 170.757812 204.511719 " fill-opacity="1" fill-rule="nonzero"/></svg>