<svg xmlns="http://www.w3.org/2000/svg" xmlns:xlink="http://www.w3.org/1999/xlink" width="500" zoomAndPan="magnify" viewBox="0 0 375 374.999991" height="500" preserveAspectRatio="xMidYMid meet" version="1.0"><defs><clipPath id="id1"><path d="M 74.148438 75.421875 L 300 75.421875 L 300 299 L 74.148438 299 Z M 74.148438 75.421875 " clip-rule="nonzero"/></clipPath></defs><path fill="#5178f2" d="M 158.359375 268.972656 C 158.363281 268.175781 158.324219 267.375 158.25 266.582031 C 158.175781 265.785156 158.0625 264.996094 157.914062 264.210938 C 157.765625 263.425781 157.582031 262.648438 157.359375 261.878906 C 157.140625 261.113281 156.882812 260.355469 156.589844 259.613281 C 156.300781 258.871094 155.972656 258.140625 155.613281 257.429688 C 155.253906 256.714844 154.859375 256.019531 154.4375 255.34375 C 154.011719 254.667969 153.554688 254.011719 153.070312 253.378906 C 152.582031 252.746094 152.066406 252.136719 151.523438 251.550781 C 150.980469 250.964844 150.410156 250.40625 149.816406 249.875 C 149.21875 249.34375 148.601562 248.839844 147.957031 248.367188 C 147.316406 247.894531 146.652344 247.449219 145.96875 247.039062 C 145.285156 246.628906 144.582031 246.25 143.863281 245.902344 C 143.144531 245.558594 142.410156 245.246094 141.660156 244.96875 C 140.910156 244.691406 140.152344 244.453125 139.378906 244.246094 C 138.609375 244.039062 137.832031 243.871094 137.042969 243.738281 C 136.257812 243.605469 135.464844 243.511719 134.667969 243.453125 C 133.871094 243.394531 133.074219 243.375 132.277344 243.390625 C 131.480469 243.410156 130.683594 243.460938 129.890625 243.554688 C 129.097656 243.644531 128.3125 243.773438 127.53125 243.9375 C 126.75 244.105469 125.980469 244.304688 125.21875 244.542969 C 124.457031 244.78125 123.707031 245.050781 122.96875 245.359375 C 122.234375 245.667969 121.511719 246.011719 120.808594 246.386719 C 120.105469 246.761719 119.417969 247.167969 118.753906 247.609375 C 118.085938 248.046875 117.441406 248.519531 116.820312 249.019531 C 116.195312 249.519531 115.597656 250.046875 115.027344 250.601562 C 114.453125 251.160156 113.90625 251.742188 113.390625 252.347656 C 112.871094 252.957031 112.382812 253.585938 111.921875 254.238281 C 111.460938 254.894531 111.035156 255.566406 110.636719 256.257812 C 110.242188 256.953125 109.878906 257.664062 109.546875 258.390625 C 109.21875 259.117188 108.921875 259.859375 108.664062 260.617188 C 108.402344 261.371094 108.175781 262.136719 107.988281 262.914062 C 107.800781 263.6875 107.648438 264.472656 107.53125 265.261719 C 107.335938 266.492188 107.242188 267.730469 107.242188 268.972656 C 107.242188 269.8125 107.285156 270.648438 107.367188 271.480469 C 107.449219 272.316406 107.570312 273.144531 107.734375 273.964844 C 107.898438 274.789062 108.101562 275.601562 108.34375 276.402344 C 108.585938 277.203125 108.867188 277.992188 109.1875 278.765625 C 109.507812 279.542969 109.867188 280.296875 110.261719 281.039062 C 110.65625 281.777344 111.085938 282.496094 111.550781 283.191406 C 112.015625 283.886719 112.511719 284.5625 113.042969 285.207031 C 113.574219 285.855469 114.136719 286.476562 114.730469 287.070312 C 115.320312 287.664062 115.941406 288.222656 116.585938 288.757812 C 117.234375 289.289062 117.90625 289.785156 118.601562 290.253906 C 119.296875 290.71875 120.015625 291.148438 120.753906 291.542969 C 121.492188 291.9375 122.246094 292.296875 123.019531 292.617188 C 123.792969 292.9375 124.582031 293.21875 125.382812 293.464844 C 126.183594 293.707031 126.996094 293.910156 127.816406 294.074219 C 128.636719 294.238281 129.464844 294.359375 130.296875 294.441406 C 131.128906 294.523438 131.964844 294.566406 132.800781 294.566406 C 133.640625 294.566406 134.472656 294.523438 135.308594 294.441406 C 136.140625 294.359375 136.96875 294.238281 137.789062 294.074219 C 138.609375 293.910156 139.421875 293.707031 140.222656 293.464844 C 141.023438 293.21875 141.808594 292.9375 142.582031 292.617188 C 143.355469 292.296875 144.113281 291.9375 144.851562 291.542969 C 145.589844 291.148438 146.304688 290.71875 147.003906 290.253906 C 147.699219 289.785156 148.371094 289.289062 149.015625 288.757812 C 149.664062 288.222656 150.285156 287.664062 150.875 287.070312 C 151.46875 286.476562 152.027344 285.855469 152.558594 285.207031 C 153.089844 284.5625 153.589844 283.886719 154.054688 283.191406 C 154.519531 282.496094 154.949219 281.777344 155.34375 281.039062 C 155.738281 280.296875 156.09375 279.542969 156.414062 278.765625 C 156.734375 277.992188 157.019531 277.203125 157.261719 276.402344 C 157.503906 275.601562 157.707031 274.789062 157.871094 273.964844 C 158.035156 273.144531 158.15625 272.316406 158.238281 271.480469 C 158.320312 270.648438 158.363281 269.8125 158.359375 268.972656 Z M 158.359375 268.972656 " fill-opacity="1" fill-rule="nonzero"/><path fill="#5178f2" d="M 267.308594 268.972656 C 267.3125 268.242188 267.28125 267.511719 267.214844 266.78125 C 267.167969 266.234375 267.101562 265.6875 267.019531 265.144531 C 266.933594 264.597656 266.835938 264.058594 266.71875 263.519531 C 266.597656 262.984375 266.464844 262.453125 266.3125 261.921875 C 266.160156 261.394531 265.992188 260.871094 265.804688 260.351562 C 265.621094 259.835938 265.417969 259.324219 265.199219 258.820312 C 264.980469 258.316406 264.746094 257.816406 264.492188 257.328125 C 264.242188 256.839844 263.976562 256.359375 263.695312 255.886719 C 263.414062 255.414062 263.117188 254.953125 262.804688 254.5 C 262.492188 254.046875 262.167969 253.601562 261.824219 253.171875 C 261.484375 252.738281 261.132812 252.320312 260.765625 251.910156 C 260.398438 251.5 260.015625 251.105469 259.625 250.71875 C 259.230469 250.335938 258.824219 249.964844 258.410156 249.605469 C 257.992188 249.246094 257.5625 248.902344 257.125 248.570312 C 256.6875 248.242188 256.238281 247.925781 255.777344 247.625 C 255.316406 247.320312 254.847656 247.035156 254.371094 246.765625 C 253.894531 246.492188 253.40625 246.238281 252.914062 245.996094 C 252.417969 245.757812 251.917969 245.535156 251.40625 245.328125 C 250.898438 245.121094 250.382812 244.929688 249.863281 244.753906 C 249.339844 244.582031 248.816406 244.425781 248.285156 244.285156 C 247.753906 244.144531 247.21875 244.019531 246.675781 243.914062 C 246.136719 243.808594 245.597656 243.722656 245.050781 243.652344 C 244.507812 243.582031 243.960938 243.527344 243.410156 243.492188 C 242.863281 243.457031 242.3125 243.441406 241.765625 243.441406 C 241.214844 243.441406 240.667969 243.460938 240.117188 243.496094 C 239.570312 243.53125 239.023438 243.585938 238.480469 243.65625 C 237.933594 243.730469 237.390625 243.816406 236.851562 243.925781 C 236.3125 244.03125 235.777344 244.152344 235.25 244.296875 C 234.71875 244.4375 234.191406 244.59375 233.671875 244.769531 C 233.148438 244.945312 232.632812 245.136719 232.125 245.34375 C 231.617188 245.550781 231.117188 245.777344 230.621094 246.015625 C 230.128906 246.257812 229.640625 246.515625 229.164062 246.785156 C 228.6875 247.058594 228.21875 247.34375 227.761719 247.648438 C 227.300781 247.949219 226.851562 248.265625 226.414062 248.597656 C 225.976562 248.929688 225.546875 249.273438 225.132812 249.632812 C 224.714844 249.992188 224.3125 250.363281 223.917969 250.75 C 223.527344 251.136719 223.148438 251.53125 222.78125 251.941406 C 222.414062 252.351562 222.058594 252.773438 221.71875 253.207031 C 221.382812 253.636719 221.054688 254.082031 220.746094 254.535156 C 220.433594 254.988281 220.136719 255.449219 219.855469 255.921875 C 219.574219 256.394531 219.308594 256.878906 219.058594 257.367188 C 218.808594 257.855469 218.574219 258.355469 218.359375 258.859375 C 218.140625 259.363281 217.9375 259.875 217.753906 260.394531 C 217.570312 260.910156 217.402344 261.433594 217.25 261.964844 C 217.097656 262.492188 216.964844 263.027344 216.847656 263.5625 C 216.730469 264.101562 216.632812 264.640625 216.550781 265.1875 C 216.46875 265.730469 216.402344 266.277344 216.355469 266.824219 C 216.308594 267.371094 216.28125 267.921875 216.269531 268.472656 C 216.257812 269.023438 216.265625 269.570312 216.289062 270.121094 C 216.3125 270.671875 216.355469 271.21875 216.414062 271.765625 C 216.472656 272.3125 216.550781 272.855469 216.644531 273.398438 C 216.738281 273.941406 216.851562 274.480469 216.980469 275.015625 C 217.109375 275.546875 217.257812 276.078125 217.417969 276.605469 C 217.582031 277.128906 217.761719 277.648438 217.960938 278.160156 C 218.15625 278.675781 218.371094 279.183594 218.601562 279.679688 C 218.832031 280.179688 219.074219 280.671875 219.335938 281.15625 C 219.597656 281.640625 219.875 282.117188 220.167969 282.582031 C 220.460938 283.046875 220.765625 283.503906 221.085938 283.949219 C 221.410156 284.394531 221.746094 284.832031 222.09375 285.257812 C 222.441406 285.679688 222.804688 286.09375 223.183594 286.496094 C 223.558594 286.894531 223.945312 287.285156 224.347656 287.660156 C 224.75 288.035156 225.164062 288.398438 225.585938 288.746094 C 226.011719 289.097656 226.445312 289.429688 226.894531 289.753906 C 227.339844 290.074219 227.796875 290.378906 228.261719 290.671875 C 228.726562 290.960938 229.203125 291.238281 229.683594 291.5 C 230.167969 291.761719 230.660156 292.003906 231.160156 292.234375 C 231.660156 292.464844 232.167969 292.675781 232.679688 292.871094 C 233.191406 293.070312 233.710938 293.25 234.238281 293.410156 C 234.761719 293.574219 235.289062 293.71875 235.824219 293.847656 C 236.359375 293.976562 236.898438 294.085938 237.4375 294.179688 C 237.980469 294.273438 238.523438 294.351562 239.070312 294.410156 C 239.617188 294.46875 240.164062 294.507812 240.710938 294.53125 C 241.261719 294.554688 241.8125 294.5625 242.359375 294.546875 C 242.910156 294.535156 243.457031 294.507812 244.003906 294.457031 C 244.550781 294.410156 245.097656 294.34375 245.640625 294.261719 C 246.183594 294.179688 246.722656 294.078125 247.261719 293.960938 C 247.796875 293.84375 248.328125 293.707031 248.855469 293.554688 C 249.386719 293.402344 249.90625 293.234375 250.425781 293.046875 C 250.941406 292.859375 251.453125 292.65625 251.957031 292.4375 C 252.460938 292.21875 252.957031 291.984375 253.445312 291.734375 C 253.933594 291.480469 254.414062 291.214844 254.886719 290.933594 C 255.355469 290.648438 255.820312 290.351562 256.269531 290.039062 C 256.722656 289.730469 257.164062 289.402344 257.597656 289.0625 C 258.027344 288.71875 258.449219 288.367188 258.855469 288 C 259.265625 287.628906 259.660156 287.25 260.042969 286.855469 C 260.429688 286.460938 260.800781 286.058594 261.15625 285.640625 C 261.515625 285.222656 261.859375 284.792969 262.1875 284.355469 C 262.519531 283.914062 262.835938 283.464844 263.136719 283.003906 C 263.4375 282.542969 263.722656 282.074219 263.992188 281.597656 C 264.265625 281.117188 264.519531 280.628906 264.757812 280.136719 C 265 279.640625 265.222656 279.136719 265.429688 278.628906 C 265.636719 278.117188 265.828125 277.601562 266 277.082031 C 266.171875 276.558594 266.332031 276.03125 266.46875 275.5 C 266.609375 274.96875 266.734375 274.433594 266.835938 273.890625 C 266.941406 273.351562 267.03125 272.808594 267.101562 272.261719 C 267.171875 271.71875 267.222656 271.171875 267.257812 270.621094 C 267.292969 270.074219 267.308594 269.523438 267.308594 268.972656 Z M 267.308594 268.972656 " fill-opacity="1" fill-rule="nonzero"/><path fill="#6495f9" d="M 142.824219 268.976562 C 142.824219 268.316406 142.757812 267.664062 142.632812 267.019531 C 142.503906 266.371094 142.3125 265.746094 142.0625 265.136719 C 141.808594 264.527344 141.5 263.949219 141.136719 263.402344 C 140.769531 262.855469 140.355469 262.347656 139.890625 261.882812 C 139.425781 261.414062 138.917969 261 138.371094 260.632812 C 137.824219 260.269531 137.246094 259.957031 136.636719 259.707031 C 136.03125 259.453125 135.40625 259.265625 134.757812 259.136719 C 134.113281 259.007812 133.460938 258.941406 132.804688 258.941406 C 132.148438 258.941406 131.496094 259.007812 130.851562 259.136719 C 130.203125 259.265625 129.578125 259.453125 128.96875 259.707031 C 128.363281 259.957031 127.785156 260.269531 127.238281 260.632812 C 126.691406 261 126.183594 261.414062 125.71875 261.882812 C 125.253906 262.347656 124.839844 262.855469 124.472656 263.402344 C 124.109375 263.949219 123.800781 264.527344 123.546875 265.136719 C 123.296875 265.746094 123.105469 266.371094 122.976562 267.019531 C 122.847656 267.664062 122.785156 268.316406 122.785156 268.976562 C 122.785156 269.632812 122.847656 270.285156 122.976562 270.933594 C 123.105469 271.578125 123.296875 272.207031 123.546875 272.816406 C 123.800781 273.421875 124.109375 274 124.472656 274.550781 C 124.839844 275.097656 125.253906 275.601562 125.71875 276.070312 C 126.183594 276.535156 126.691406 276.949219 127.238281 277.316406 C 127.785156 277.683594 128.363281 277.992188 128.96875 278.242188 C 129.578125 278.496094 130.203125 278.6875 130.851562 278.816406 C 131.496094 278.941406 132.148438 279.007812 132.804688 279.007812 C 133.460938 279.007812 134.113281 278.945312 134.757812 278.816406 C 135.40625 278.6875 136.03125 278.496094 136.640625 278.246094 C 137.246094 277.992188 137.824219 277.683594 138.371094 277.320312 C 138.917969 276.953125 139.425781 276.535156 139.890625 276.070312 C 140.355469 275.605469 140.769531 275.097656 141.136719 274.550781 C 141.503906 274.003906 141.8125 273.425781 142.0625 272.816406 C 142.3125 272.207031 142.503906 271.578125 142.632812 270.933594 C 142.761719 270.285156 142.824219 269.632812 142.824219 268.976562 Z M 142.824219 268.976562 " fill-opacity="1" fill-rule="nonzero"/><path fill="#6495f9" d="M 251.765625 268.976562 C 251.765625 268.316406 251.703125 267.664062 251.574219 267.019531 C 251.445312 266.371094 251.257812 265.746094 251.003906 265.136719 C 250.753906 264.527344 250.445312 263.949219 250.078125 263.402344 C 249.714844 262.855469 249.296875 262.347656 248.832031 261.882812 C 248.367188 261.414062 247.863281 261 247.316406 260.632812 C 246.769531 260.269531 246.191406 259.957031 245.582031 259.707031 C 244.976562 259.453125 244.347656 259.265625 243.703125 259.136719 C 243.058594 259.007812 242.40625 258.941406 241.75 258.941406 C 241.089844 258.941406 240.4375 259.007812 239.792969 259.136719 C 239.148438 259.265625 238.523438 259.453125 237.914062 259.707031 C 237.304688 259.957031 236.730469 260.269531 236.183594 260.632812 C 235.636719 261 235.128906 261.414062 234.664062 261.882812 C 234.199219 262.347656 233.78125 262.855469 233.417969 263.402344 C 233.050781 263.949219 232.742188 264.527344 232.492188 265.136719 C 232.238281 265.746094 232.050781 266.371094 231.921875 267.019531 C 231.792969 267.664062 231.730469 268.316406 231.730469 268.976562 C 231.730469 269.632812 231.792969 270.285156 231.921875 270.933594 C 232.050781 271.578125 232.238281 272.207031 232.492188 272.816406 C 232.742188 273.421875 233.050781 274 233.417969 274.550781 C 233.78125 275.097656 234.199219 275.601562 234.664062 276.070312 C 235.128906 276.535156 235.636719 276.949219 236.183594 277.316406 C 236.730469 277.683594 237.304688 277.992188 237.914062 278.242188 C 238.523438 278.496094 239.148438 278.6875 239.792969 278.816406 C 240.4375 278.941406 241.089844 279.007812 241.75 279.007812 C 242.40625 279.007812 243.058594 278.945312 243.703125 278.816406 C 244.347656 278.6875 244.972656 278.496094 245.582031 278.246094 C 246.191406 277.992188 246.765625 277.683594 247.3125 277.320312 C 247.859375 276.953125 248.367188 276.535156 248.832031 276.070312 C 249.296875 275.605469 249.714844 275.097656 250.078125 274.550781 C 250.445312 274.003906 250.753906 273.425781 251.003906 272.816406 C 251.257812 272.207031 251.445312 271.578125 251.574219 270.933594 C 251.703125 270.285156 251.765625 269.632812 251.765625 268.976562 Z M 251.765625 268.976562 " fill-opacity="1" fill-rule="nonzero"/><path fill="#ffe576" d="M 116.839844 249.003906 C 117.777344 248.253906 118.757812 247.574219 119.789062 246.964844 C 120.820312 246.355469 121.886719 245.816406 122.992188 245.355469 C 124.097656 244.898438 125.230469 244.515625 126.390625 244.214844 C 127.546875 243.914062 128.722656 243.695312 129.910156 243.558594 C 131.101562 243.421875 132.292969 243.371094 133.492188 243.402344 C 134.6875 243.433594 135.878906 243.550781 137.058594 243.75 C 138.238281 243.949219 139.398438 244.230469 140.542969 244.59375 C 141.683594 244.957031 142.792969 245.398438 143.871094 245.914062 C 144.953125 246.433594 145.988281 247.027344 146.984375 247.691406 C 147.984375 248.359375 148.925781 249.089844 149.820312 249.890625 C 150.714844 250.6875 151.546875 251.542969 152.320312 252.460938 C 153.09375 253.375 153.800781 254.339844 154.4375 255.355469 C 155.074219 256.371094 155.640625 257.425781 156.128906 258.519531 C 156.617188 259.613281 157.027344 260.734375 157.359375 261.886719 C 157.691406 263.039062 157.941406 264.207031 158.109375 265.394531 C 158.277344 266.582031 158.363281 267.773438 158.363281 268.972656 L 216.191406 268.972656 C 216.191406 268.160156 216.230469 267.34375 216.308594 266.535156 C 216.386719 265.722656 216.503906 264.917969 216.660156 264.117188 C 216.816406 263.320312 217.007812 262.527344 217.238281 261.746094 C 217.46875 260.964844 217.738281 260.195312 218.039062 259.441406 C 218.34375 258.683594 218.683594 257.945312 219.058594 257.222656 C 219.433594 256.5 219.839844 255.796875 220.28125 255.109375 C 220.722656 254.425781 221.195312 253.765625 221.703125 253.125 C 222.207031 252.488281 222.742188 251.875 223.304688 251.285156 C 223.867188 250.699219 224.457031 250.136719 225.074219 249.605469 C 225.691406 249.074219 226.332031 248.574219 226.996094 248.101562 C 227.660156 247.632812 228.34375 247.195312 229.050781 246.789062 C 229.757812 246.386719 230.480469 246.015625 231.222656 245.679688 C 231.960938 245.34375 232.71875 245.042969 233.488281 244.78125 C 234.257812 244.519531 235.039062 244.292969 235.832031 244.101562 C 236.621094 243.914062 237.421875 243.765625 238.226562 243.652344 C 239.03125 243.539062 239.84375 243.464844 240.65625 243.429688 C 241.46875 243.394531 242.28125 243.398438 243.09375 243.441406 C 243.90625 243.484375 244.714844 243.566406 245.519531 243.6875 C 246.324219 243.808594 247.121094 243.964844 247.910156 244.160156 C 248.699219 244.359375 249.480469 244.589844 250.246094 244.863281 C 251.015625 245.132812 251.765625 245.441406 252.503906 245.78125 C 253.242188 246.125 253.964844 246.503906 254.664062 246.914062 C 255.367188 247.324219 256.046875 247.769531 256.707031 248.246094 C 257.367188 248.722656 258.003906 249.230469 258.613281 249.769531 C 259.226562 250.304688 259.8125 250.871094 260.367188 251.464844 C 260.925781 252.058594 261.453125 252.675781 261.953125 253.320312 C 262.449219 253.964844 262.917969 254.632812 263.351562 255.320312 C 263.785156 256.007812 264.1875 256.714844 264.554688 257.441406 C 264.921875 258.171875 265.253906 258.914062 265.550781 259.671875 C 265.847656 260.429688 266.109375 261.199219 266.332031 261.984375 C 266.554688 262.769531 266.738281 263.558594 266.886719 264.363281 C 267.035156 265.164062 267.144531 265.96875 267.214844 266.78125 C 268.316406 266.289062 269.378906 265.71875 270.398438 265.074219 C 271.417969 264.429688 272.386719 263.710938 273.304688 262.925781 C 274.222656 262.140625 275.082031 261.292969 275.875 260.386719 C 276.671875 259.476562 277.398438 258.515625 278.054688 257.5 C 278.710938 256.484375 279.292969 255.429688 279.800781 254.332031 C 280.304688 253.234375 280.726562 252.105469 281.070312 250.945312 C 281.414062 249.785156 281.671875 248.605469 281.84375 247.410156 C 282.019531 246.214844 282.105469 245.011719 282.105469 243.800781 L 282.105469 165.472656 L 95.550781 165.472656 L 95.550781 243.800781 C 95.550781 245.953125 95.820312 248.070312 96.359375 250.15625 C 96.902344 252.238281 97.695312 254.21875 98.746094 256.097656 C 99.792969 257.976562 101.0625 259.691406 102.550781 261.246094 C 104.039062 262.796875 105.699219 264.136719 107.53125 265.261719 C 107.761719 263.675781 108.136719 262.125 108.660156 260.609375 C 109.183594 259.089844 109.84375 257.636719 110.640625 256.246094 C 111.4375 254.855469 112.355469 253.550781 113.398438 252.332031 C 114.441406 251.113281 115.589844 250.003906 116.839844 249.003906 Z M 116.839844 249.003906 " fill-opacity="1" fill-rule="nonzero"/><path fill="#fca338" d="M 89.664062 140.59375 L 284.890625 140.59375 C 285.589844 140.59375 286.28125 140.664062 286.964844 140.796875 C 287.648438 140.933594 288.316406 141.136719 288.960938 141.40625 C 289.605469 141.671875 290.21875 142 290.800781 142.390625 C 291.378906 142.777344 291.917969 143.21875 292.410156 143.714844 C 292.90625 144.207031 293.347656 144.746094 293.734375 145.328125 C 294.121094 145.910156 294.449219 146.523438 294.71875 147.167969 C 294.984375 147.816406 295.1875 148.480469 295.324219 149.167969 C 295.460938 149.851562 295.527344 150.546875 295.527344 151.246094 L 295.527344 154.820312 C 295.527344 155.523438 295.460938 156.214844 295.324219 156.898438 C 295.1875 157.585938 294.984375 158.253906 294.71875 158.898438 C 294.449219 159.542969 294.121094 160.160156 293.734375 160.738281 C 293.347656 161.320312 292.90625 161.859375 292.410156 162.355469 C 291.917969 162.847656 291.378906 163.289062 290.800781 163.679688 C 290.21875 164.066406 289.605469 164.394531 288.960938 164.664062 C 288.316406 164.929688 287.648438 165.132812 286.964844 165.269531 C 286.28125 165.40625 285.589844 165.472656 284.890625 165.472656 L 89.664062 165.472656 C 88.964844 165.472656 88.273438 165.40625 87.585938 165.269531 C 86.902344 165.132812 86.238281 164.929688 85.59375 164.664062 C 84.945312 164.394531 84.332031 164.066406 83.753906 163.679688 C 83.171875 163.289062 82.636719 162.847656 82.140625 162.355469 C 81.648438 161.859375 81.207031 161.320312 80.816406 160.738281 C 80.429688 160.160156 80.101562 159.542969 79.835938 158.898438 C 79.566406 158.253906 79.367188 157.585938 79.230469 156.898438 C 79.09375 156.214844 79.023438 155.523438 79.023438 154.820312 L 79.023438 151.246094 C 79.023438 150.546875 79.09375 149.851562 79.230469 149.167969 C 79.367188 148.480469 79.566406 147.816406 79.835938 147.167969 C 80.101562 146.523438 80.429688 145.910156 80.816406 145.328125 C 81.207031 144.746094 81.648438 144.207031 82.140625 143.714844 C 82.636719 143.21875 83.171875 142.777344 83.753906 142.390625 C 84.332031 142 84.945312 141.671875 85.59375 141.40625 C 86.238281 141.136719 86.902344 140.933594 87.585938 140.796875 C 88.273438 140.664062 88.964844 140.59375 89.664062 140.59375 Z M 89.664062 140.59375 " fill-opacity="1" fill-rule="nonzero"/><path fill="#c47641" d="M 163.175781 103.332031 L 128.148438 96.710938 L 109.914062 115.050781 L 99.355469 140.59375 L 191.492188 140.59375 L 170.375 116.578125 Z M 163.175781 103.332031 " fill-opacity="1" fill-rule="nonzero"/><path fill="#aa5b26" d="M 224.234375 140.59375 L 238.039062 103.84375 L 224.234375 84.488281 L 197.730469 79.816406 L 163.175781 103.332031 L 170.375 116.578125 L 191.492188 140.59375 Z M 224.234375 140.59375 " fill-opacity="1" fill-rule="nonzero"/><path fill="#c47641" d="M 252.914062 102.316406 L 238.039062 103.84375 L 224.234375 140.59375 L 278.40625 140.59375 L 267.308594 116.617188 Z M 252.914062 102.316406 " fill-opacity="1" fill-rule="nonzero"/><path fill="#634029" d="M 147.035156 268.976562 C 147.035156 268.039062 146.941406 267.113281 146.761719 266.195312 C 146.578125 265.277344 146.308594 264.386719 145.949219 263.523438 C 145.59375 262.660156 145.15625 261.835938 144.636719 261.058594 C 144.117188 260.28125 143.527344 259.5625 142.867188 258.902344 C 142.207031 258.238281 141.488281 257.648438 140.710938 257.128906 C 139.933594 256.609375 139.113281 256.171875 138.25 255.8125 C 137.386719 255.453125 136.496094 255.183594 135.582031 255 C 134.664062 254.820312 133.738281 254.726562 132.804688 254.726562 C 131.871094 254.726562 130.945312 254.820312 130.027344 255 C 129.113281 255.183594 128.222656 255.453125 127.359375 255.8125 C 126.496094 256.171875 125.675781 256.609375 124.898438 257.128906 C 124.121094 257.648438 123.402344 258.238281 122.742188 258.902344 C 122.082031 259.5625 121.492188 260.28125 120.972656 261.058594 C 120.453125 261.835938 120.015625 262.660156 119.660156 263.523438 C 119.300781 264.386719 119.03125 265.277344 118.847656 266.195312 C 118.667969 267.113281 118.574219 268.039062 118.574219 268.976562 C 118.574219 269.910156 118.667969 270.835938 118.847656 271.753906 C 119.03125 272.671875 119.300781 273.5625 119.660156 274.425781 C 120.015625 275.292969 120.453125 276.113281 120.972656 276.890625 C 121.492188 277.667969 122.082031 278.386719 122.742188 279.050781 C 123.402344 279.710938 124.121094 280.300781 124.898438 280.820312 C 125.675781 281.339844 126.496094 281.78125 127.359375 282.136719 C 128.222656 282.496094 129.113281 282.765625 130.027344 282.949219 C 130.945312 283.132812 131.871094 283.222656 132.804688 283.222656 C 133.738281 283.222656 134.664062 283.128906 135.578125 282.949219 C 136.496094 282.765625 137.386719 282.492188 138.25 282.136719 C 139.109375 281.777344 139.929688 281.339844 140.707031 280.820312 C 141.484375 280.300781 142.203125 279.707031 142.863281 279.046875 C 143.523438 278.386719 144.113281 277.667969 144.632812 276.886719 C 145.152344 276.109375 145.589844 275.289062 145.949219 274.425781 C 146.304688 273.5625 146.574219 272.671875 146.757812 271.753906 C 146.941406 270.835938 147.03125 269.910156 147.035156 268.976562 Z M 126.996094 268.976562 C 126.996094 268.59375 127.03125 268.214844 127.105469 267.839844 C 127.179688 267.464844 127.292969 267.101562 127.4375 266.75 C 127.582031 266.394531 127.761719 266.0625 127.972656 265.742188 C 128.1875 265.425781 128.425781 265.132812 128.695312 264.863281 C 128.964844 264.59375 129.257812 264.351562 129.578125 264.140625 C 129.894531 263.925781 130.230469 263.746094 130.582031 263.601562 C 130.933594 263.453125 131.296875 263.34375 131.671875 263.269531 C 132.046875 263.195312 132.421875 263.160156 132.804688 263.160156 C 133.1875 263.160156 133.5625 263.195312 133.9375 263.269531 C 134.3125 263.34375 134.675781 263.453125 135.027344 263.601562 C 135.378906 263.746094 135.714844 263.925781 136.03125 264.140625 C 136.347656 264.351562 136.644531 264.59375 136.914062 264.863281 C 137.183594 265.132812 137.421875 265.425781 137.636719 265.742188 C 137.847656 266.0625 138.027344 266.394531 138.171875 266.75 C 138.316406 267.101562 138.429688 267.464844 138.503906 267.839844 C 138.578125 268.214844 138.613281 268.59375 138.613281 268.976562 C 138.613281 269.355469 138.578125 269.734375 138.503906 270.109375 C 138.429688 270.484375 138.316406 270.847656 138.171875 271.203125 C 138.027344 271.554688 137.847656 271.890625 137.636719 272.207031 C 137.421875 272.523438 137.183594 272.820312 136.914062 273.089844 C 136.644531 273.359375 136.347656 273.601562 136.03125 273.8125 C 135.714844 274.023438 135.378906 274.203125 135.027344 274.347656 C 134.675781 274.496094 134.3125 274.605469 133.9375 274.679688 C 133.5625 274.753906 133.1875 274.792969 132.804688 274.792969 C 132.421875 274.792969 132.042969 274.757812 131.667969 274.6875 C 131.292969 274.613281 130.929688 274.503906 130.574219 274.359375 C 130.222656 274.214844 129.886719 274.035156 129.566406 273.824219 C 129.25 273.609375 128.957031 273.371094 128.6875 273.097656 C 128.414062 272.828125 128.175781 272.535156 127.960938 272.214844 C 127.75 271.898438 127.574219 271.5625 127.425781 271.207031 C 127.28125 270.851562 127.171875 270.488281 127.101562 270.113281 C 127.027344 269.738281 126.992188 269.359375 126.996094 268.976562 Z M 126.996094 268.976562 " fill-opacity="1" fill-rule="nonzero"/><path fill="#634029" d="M 255.976562 268.976562 C 255.976562 268.039062 255.886719 267.113281 255.703125 266.195312 C 255.523438 265.277344 255.25 264.386719 254.894531 263.523438 C 254.535156 262.660156 254.097656 261.835938 253.578125 261.058594 C 253.058594 260.28125 252.46875 259.5625 251.808594 258.902344 C 251.148438 258.238281 250.429688 257.648438 249.652344 257.128906 C 248.875 256.609375 248.054688 256.171875 247.195312 255.8125 C 246.332031 255.453125 245.441406 255.183594 244.523438 255 C 243.609375 254.820312 242.683594 254.726562 241.75 254.726562 C 240.8125 254.726562 239.886719 254.820312 238.972656 255 C 238.054688 255.183594 237.167969 255.453125 236.304688 255.8125 C 235.441406 256.171875 234.621094 256.609375 233.84375 257.128906 C 233.066406 257.648438 232.347656 258.238281 231.6875 258.902344 C 231.027344 259.5625 230.4375 260.28125 229.917969 261.058594 C 229.398438 261.835938 228.960938 262.660156 228.601562 263.523438 C 228.246094 264.386719 227.976562 265.277344 227.792969 266.195312 C 227.609375 267.113281 227.519531 268.039062 227.519531 268.976562 C 227.519531 269.910156 227.609375 270.835938 227.792969 271.753906 C 227.976562 272.671875 228.246094 273.5625 228.601562 274.425781 C 228.960938 275.292969 229.398438 276.113281 229.917969 276.890625 C 230.4375 277.667969 231.027344 278.386719 231.6875 279.050781 C 232.347656 279.710938 233.066406 280.300781 233.84375 280.820312 C 234.621094 281.339844 235.441406 281.78125 236.304688 282.136719 C 237.167969 282.496094 238.054688 282.765625 238.972656 282.949219 C 239.886719 283.132812 240.8125 283.222656 241.75 283.222656 C 242.683594 283.222656 243.609375 283.128906 244.523438 282.949219 C 245.441406 282.765625 246.328125 282.492188 247.191406 282.136719 C 248.054688 281.777344 248.875 281.339844 249.652344 280.820312 C 250.429688 280.300781 251.144531 279.707031 251.808594 279.046875 C 252.46875 278.386719 253.058594 277.667969 253.578125 276.886719 C 254.09375 276.109375 254.535156 275.289062 254.890625 274.425781 C 255.25 273.5625 255.519531 272.671875 255.703125 271.753906 C 255.886719 270.835938 255.976562 269.910156 255.976562 268.976562 Z M 235.9375 268.976562 C 235.9375 268.59375 235.976562 268.214844 236.050781 267.839844 C 236.125 267.464844 236.234375 267.101562 236.382812 266.75 C 236.527344 266.394531 236.707031 266.0625 236.917969 265.742188 C 237.128906 265.425781 237.371094 265.132812 237.640625 264.863281 C 237.910156 264.59375 238.203125 264.351562 238.519531 264.140625 C 238.835938 263.925781 239.171875 263.746094 239.523438 263.601562 C 239.878906 263.453125 240.242188 263.34375 240.613281 263.269531 C 240.988281 263.195312 241.367188 263.160156 241.75 263.160156 C 242.128906 263.160156 242.507812 263.195312 242.882812 263.269531 C 243.253906 263.34375 243.617188 263.453125 243.972656 263.601562 C 244.324219 263.746094 244.660156 263.925781 244.976562 264.140625 C 245.292969 264.351562 245.585938 264.59375 245.855469 264.863281 C 246.125 265.132812 246.367188 265.425781 246.578125 265.742188 C 246.789062 266.0625 246.96875 266.394531 247.117188 266.75 C 247.261719 267.101562 247.371094 267.464844 247.445312 267.839844 C 247.519531 268.214844 247.558594 268.59375 247.558594 268.976562 C 247.558594 269.355469 247.519531 269.734375 247.445312 270.109375 C 247.371094 270.484375 247.261719 270.847656 247.117188 271.203125 C 246.96875 271.554688 246.789062 271.890625 246.578125 272.207031 C 246.367188 272.523438 246.125 272.820312 245.855469 273.089844 C 245.585938 273.359375 245.292969 273.601562 244.976562 273.8125 C 244.660156 274.023438 244.324219 274.203125 243.972656 274.347656 C 243.617188 274.496094 243.253906 274.605469 242.882812 274.679688 C 242.507812 274.753906 242.128906 274.792969 241.75 274.792969 C 241.367188 274.792969 240.988281 274.757812 240.613281 274.6875 C 240.238281 274.613281 239.871094 274.503906 239.519531 274.359375 C 239.164062 274.214844 238.832031 274.035156 238.511719 273.824219 C 238.195312 273.609375 237.898438 273.371094 237.628906 273.097656 C 237.359375 272.828125 237.117188 272.535156 236.90625 272.214844 C 236.695312 271.898438 236.515625 271.5625 236.371094 271.207031 C 236.226562 270.851562 236.117188 270.488281 236.042969 270.113281 C 235.972656 269.738281 235.9375 269.359375 235.9375 268.976562 Z M 235.9375 268.976562 " fill-opacity="1" fill-rule="nonzero"/><path fill="#634029" d="M 286.3125 205.066406 L 286.3125 203.410156 C 286.3125 203.132812 286.285156 202.859375 286.234375 202.589844 C 286.179688 202.316406 286.097656 202.054688 285.992188 201.796875 C 285.886719 201.542969 285.757812 201.296875 285.605469 201.070312 C 285.449219 200.839844 285.277344 200.625 285.082031 200.429688 C 284.886719 200.234375 284.671875 200.058594 284.441406 199.90625 C 284.214844 199.753906 283.96875 199.621094 283.714844 199.515625 C 283.460938 199.410156 283.195312 199.332031 282.925781 199.277344 C 282.65625 199.222656 282.378906 199.195312 282.105469 199.195312 C 281.828125 199.195312 281.554688 199.222656 281.28125 199.277344 C 281.011719 199.332031 280.75 199.410156 280.492188 199.515625 C 280.238281 199.621094 279.996094 199.753906 279.765625 199.90625 C 279.535156 200.058594 279.324219 200.234375 279.128906 200.429688 C 278.933594 200.625 278.757812 200.839844 278.605469 201.070312 C 278.449219 201.300781 278.320312 201.542969 278.214844 201.796875 C 278.109375 202.054688 278.027344 202.316406 277.976562 202.589844 C 277.921875 202.859375 277.894531 203.132812 277.894531 203.410156 L 277.894531 205.066406 C 277.894531 205.34375 277.921875 205.617188 277.976562 205.890625 C 278.027344 206.160156 278.109375 206.425781 278.214844 206.679688 C 278.320312 206.9375 278.449219 207.179688 278.605469 207.410156 C 278.757812 207.640625 278.933594 207.851562 279.128906 208.046875 C 279.324219 208.242188 279.535156 208.417969 279.765625 208.574219 C 279.996094 208.726562 280.238281 208.855469 280.492188 208.960938 C 280.75 209.066406 281.011719 209.148438 281.28125 209.203125 C 281.554688 209.257812 281.828125 209.28125 282.105469 209.28125 C 282.378906 209.28125 282.65625 209.257812 282.925781 209.203125 C 283.195312 209.148438 283.460938 209.066406 283.714844 208.960938 C 283.96875 208.855469 284.214844 208.726562 284.441406 208.574219 C 284.671875 208.417969 284.886719 208.242188 285.082031 208.046875 C 285.277344 207.851562 285.449219 207.640625 285.605469 207.410156 C 285.757812 207.179688 285.886719 206.9375 285.992188 206.679688 C 286.097656 206.425781 286.179688 206.160156 286.234375 205.890625 C 286.285156 205.617188 286.3125 205.34375 286.3125 205.066406 Z M 286.3125 205.066406 " fill-opacity="1" fill-rule="nonzero"/><g clip-path="url(#id1)"><path fill="#634029" d="M 282.105469 183.824219 C 282.378906 183.824219 282.65625 183.796875 282.925781 183.746094 C 283.195312 183.691406 283.460938 183.609375 283.714844 183.503906 C 283.96875 183.398438 284.214844 183.269531 284.441406 183.113281 C 284.671875 182.960938 284.886719 182.785156 285.082031 182.589844 C 285.277344 182.394531 285.449219 182.183594 285.605469 181.953125 C 285.757812 181.722656 285.886719 181.480469 285.992188 181.222656 C 286.097656 180.96875 286.179688 180.703125 286.234375 180.433594 C 286.285156 180.160156 286.3125 179.886719 286.3125 179.609375 L 286.3125 169.613281 C 287.222656 169.523438 288.117188 169.355469 288.996094 169.101562 C 289.875 168.847656 290.722656 168.511719 291.542969 168.101562 C 292.359375 167.691406 293.132812 167.210938 293.859375 166.65625 C 294.589844 166.101562 295.261719 165.488281 295.875 164.808594 C 296.488281 164.132812 297.039062 163.402344 297.519531 162.625 C 298 161.84375 298.40625 161.027344 298.734375 160.175781 C 299.066406 159.320312 299.3125 158.445312 299.484375 157.542969 C 299.652344 156.644531 299.734375 155.734375 299.738281 154.820312 L 299.738281 151.242188 C 299.734375 150.265625 299.640625 149.300781 299.449219 148.34375 C 299.257812 147.386719 298.976562 146.457031 298.601562 145.554688 C 298.230469 144.65625 297.769531 143.796875 297.230469 142.988281 C 296.6875 142.175781 296.074219 141.425781 295.382812 140.734375 C 294.695312 140.046875 293.945312 139.429688 293.132812 138.886719 C 292.324219 138.34375 291.46875 137.886719 290.570312 137.511719 C 289.667969 137.136719 288.742188 136.855469 287.785156 136.664062 C 286.828125 136.472656 285.863281 136.378906 284.890625 136.375 L 281.09375 136.375 L 271.128906 114.84375 C 270.917969 114.386719 270.632812 113.976562 270.273438 113.625 L 255.878906 99.324219 C 255.429688 98.878906 254.910156 98.550781 254.316406 98.339844 C 253.722656 98.128906 253.113281 98.054688 252.484375 98.117188 L 240.039062 99.398438 L 227.660156 82.039062 C 226.992188 81.101562 226.09375 80.535156 224.964844 80.335938 L 198.457031 75.664062 C 197.335938 75.46875 196.304688 75.691406 195.363281 76.328125 L 162.257812 98.871094 L 128.929688 92.570312 C 128.242188 92.441406 127.566406 92.480469 126.902344 92.6875 C 126.234375 92.890625 125.65625 93.242188 125.164062 93.738281 L 106.929688 112.074219 C 106.535156 112.46875 106.234375 112.921875 106.023438 113.4375 L 96.539062 136.375 L 89.664062 136.375 C 88.6875 136.378906 87.722656 136.472656 86.765625 136.664062 C 85.8125 136.855469 84.882812 137.136719 83.984375 137.511719 C 83.082031 137.886719 82.226562 138.34375 81.417969 138.886719 C 80.609375 139.429688 79.859375 140.046875 79.167969 140.734375 C 78.480469 141.425781 77.863281 142.175781 77.324219 142.988281 C 76.78125 143.796875 76.324219 144.65625 75.949219 145.554688 C 75.578125 146.457031 75.292969 147.386719 75.105469 148.34375 C 74.914062 149.300781 74.816406 150.265625 74.816406 151.242188 L 74.816406 154.820312 C 74.816406 155.796875 74.914062 156.761719 75.105469 157.71875 C 75.292969 158.675781 75.578125 159.605469 75.949219 160.507812 C 76.324219 161.40625 76.78125 162.265625 77.324219 163.074219 C 77.863281 163.886719 78.480469 164.636719 79.167969 165.328125 C 79.859375 166.015625 80.609375 166.632812 81.417969 167.175781 C 82.226562 167.71875 83.082031 168.175781 83.984375 168.550781 C 84.882812 168.925781 85.8125 169.207031 86.765625 169.398438 C 87.722656 169.589844 88.6875 169.683594 89.664062 169.6875 L 91.347656 169.6875 L 91.347656 243.800781 C 91.339844 246.082031 91.601562 248.332031 92.121094 250.550781 C 92.644531 252.773438 93.414062 254.902344 94.4375 256.941406 C 95.457031 258.976562 96.699219 260.871094 98.164062 262.617188 C 99.628906 264.363281 101.273438 265.917969 103.101562 267.277344 C 103.070312 267.839844 103.039062 268.40625 103.039062 268.964844 C 103.039062 269.894531 103.082031 270.824219 103.167969 271.75 C 103.257812 272.679688 103.386719 273.597656 103.5625 274.515625 C 103.734375 275.429688 103.949219 276.335938 104.207031 277.230469 C 104.46875 278.125 104.765625 279.003906 105.109375 279.871094 C 105.449219 280.738281 105.828125 281.585938 106.25 282.417969 C 106.667969 283.246094 107.128906 284.058594 107.625 284.84375 C 108.121094 285.632812 108.652344 286.394531 109.21875 287.132812 C 109.789062 287.871094 110.386719 288.582031 111.023438 289.261719 C 111.65625 289.941406 112.320312 290.59375 113.015625 291.210938 C 113.710938 291.832031 114.433594 292.417969 115.183594 292.96875 C 115.933594 293.519531 116.707031 294.035156 117.503906 294.511719 C 118.300781 294.992188 119.121094 295.429688 119.960938 295.832031 C 120.800781 296.234375 121.65625 296.59375 122.527344 296.917969 C 123.402344 297.238281 124.289062 297.515625 125.1875 297.753906 C 126.085938 297.992188 126.996094 298.1875 127.910156 298.339844 C 128.828125 298.492188 129.753906 298.601562 130.679688 298.667969 C 131.609375 298.734375 132.535156 298.757812 133.464844 298.738281 C 134.394531 298.714844 135.324219 298.652344 136.246094 298.542969 C 137.171875 298.433594 138.085938 298.285156 138.996094 298.089844 C 139.90625 297.894531 140.804688 297.660156 141.691406 297.378906 C 142.582031 297.101562 143.453125 296.78125 144.308594 296.421875 C 145.167969 296.058594 146.007812 295.660156 146.828125 295.21875 C 147.648438 294.78125 148.445312 294.304688 149.21875 293.789062 C 149.996094 293.277344 150.746094 292.726562 151.46875 292.140625 C 152.191406 291.558594 152.886719 290.941406 153.554688 290.289062 C 154.21875 289.640625 154.855469 288.960938 155.457031 288.25 C 156.058594 287.539062 156.628906 286.804688 157.160156 286.042969 C 157.695312 285.277344 158.191406 284.492188 158.652344 283.683594 C 159.109375 282.875 159.53125 282.042969 159.914062 281.195312 C 160.296875 280.347656 160.636719 279.480469 160.941406 278.601562 C 161.242188 277.71875 161.5 276.824219 161.71875 275.917969 C 161.933594 275.015625 162.109375 274.101562 162.242188 273.179688 L 212.316406 273.179688 C 212.449219 274.097656 212.625 275.003906 212.839844 275.90625 C 213.058594 276.808594 213.316406 277.695312 213.617188 278.574219 C 213.914062 279.449219 214.257812 280.3125 214.636719 281.15625 C 215.015625 282 215.433594 282.824219 215.894531 283.632812 C 216.351562 284.4375 216.84375 285.222656 217.375 285.980469 C 217.90625 286.738281 218.46875 287.472656 219.066406 288.179688 C 219.667969 288.886719 220.296875 289.566406 220.957031 290.214844 C 221.621094 290.859375 222.308594 291.476562 223.03125 292.058594 C 223.75 292.644531 224.492188 293.191406 225.265625 293.707031 C 226.035156 294.21875 226.828125 294.695312 227.640625 295.136719 C 228.457031 295.578125 229.289062 295.976562 230.144531 296.339844 C 230.996094 296.699219 231.863281 297.023438 232.746094 297.300781 C 233.625 297.582031 234.519531 297.824219 235.425781 298.019531 C 236.328125 298.21875 237.242188 298.371094 238.160156 298.484375 C 239.078125 298.59375 240 298.664062 240.925781 298.691406 C 241.851562 298.714844 242.773438 298.699219 243.699219 298.636719 C 244.621094 298.578125 245.542969 298.472656 246.457031 298.328125 C 247.371094 298.179688 248.273438 297.992188 249.171875 297.761719 C 250.066406 297.53125 250.953125 297.257812 251.824219 296.941406 C 252.691406 296.628906 253.546875 296.277344 254.386719 295.882812 C 255.222656 295.488281 256.042969 295.054688 256.839844 294.585938 C 257.636719 294.117188 258.410156 293.609375 259.160156 293.066406 C 259.914062 292.523438 260.636719 291.949219 261.332031 291.339844 C 262.03125 290.726562 262.695312 290.085938 263.332031 289.414062 C 263.96875 288.742188 264.574219 288.039062 265.148438 287.3125 C 265.71875 286.582031 266.253906 285.828125 266.757812 285.050781 C 267.257812 284.269531 267.722656 283.46875 268.148438 282.648438 C 268.574219 281.824219 268.960938 280.984375 269.308594 280.125 C 269.660156 279.265625 269.964844 278.394531 270.234375 277.503906 C 270.5 276.617188 270.726562 275.71875 270.90625 274.8125 C 271.089844 273.902344 271.230469 272.988281 271.328125 272.066406 C 271.425781 271.144531 271.480469 270.21875 271.492188 269.292969 C 272.613281 268.652344 273.683594 267.945312 274.707031 267.164062 C 275.734375 266.382812 276.703125 265.539062 277.617188 264.632812 C 278.53125 263.722656 279.382812 262.757812 280.171875 261.738281 C 280.957031 260.71875 281.675781 259.652344 282.324219 258.535156 C 282.96875 257.421875 283.542969 256.269531 284.039062 255.078125 C 284.535156 253.890625 284.949219 252.671875 285.285156 251.429688 C 285.621094 250.183594 285.875 248.921875 286.046875 247.644531 C 286.214844 246.367188 286.300781 245.082031 286.304688 243.792969 L 286.304688 229.003906 C 286.304688 228.730469 286.277344 228.453125 286.222656 228.183594 C 286.167969 227.910156 286.089844 227.648438 285.984375 227.390625 C 285.878906 227.136719 285.75 226.894531 285.59375 226.664062 C 285.441406 226.433594 285.265625 226.21875 285.070312 226.023438 C 284.875 225.828125 284.664062 225.65625 284.433594 225.5 C 284.203125 225.347656 283.960938 225.21875 283.707031 225.109375 C 283.449219 225.003906 283.1875 224.925781 282.914062 224.871094 C 282.644531 224.816406 282.371094 224.789062 282.09375 224.789062 C 281.816406 224.789062 281.542969 224.816406 281.273438 224.871094 C 281.003906 224.925781 280.738281 225.003906 280.484375 225.109375 C 280.226562 225.21875 279.984375 225.347656 279.753906 225.5 C 279.527344 225.65625 279.3125 225.828125 279.117188 226.023438 C 278.921875 226.21875 278.746094 226.433594 278.59375 226.664062 C 278.441406 226.894531 278.3125 227.136719 278.207031 227.390625 C 278.097656 227.648438 278.019531 227.910156 277.964844 228.183594 C 277.910156 228.453125 277.886719 228.730469 277.886719 229.003906 L 277.886719 243.800781 C 277.882812 245.359375 277.707031 246.898438 277.359375 248.417969 C 277.011719 249.9375 276.503906 251.402344 275.828125 252.804688 C 275.15625 254.210938 274.335938 255.527344 273.371094 256.75 C 272.40625 257.972656 271.320312 259.070312 270.109375 260.050781 C 269.925781 259.476562 269.730469 258.90625 269.515625 258.34375 C 269.300781 257.78125 269.070312 257.226562 268.820312 256.675781 C 268.570312 256.128906 268.308594 255.585938 268.027344 255.054688 C 267.746094 254.519531 267.449219 253.996094 267.132812 253.480469 C 266.820312 252.96875 266.492188 252.460938 266.148438 251.96875 C 265.804688 251.472656 265.449219 250.988281 265.074219 250.515625 C 264.703125 250.042969 264.316406 249.582031 263.914062 249.132812 C 263.511719 248.683594 263.097656 248.246094 262.671875 247.820312 C 262.246094 247.394531 261.804688 246.984375 261.351562 246.585938 C 260.898438 246.191406 260.4375 245.804688 259.960938 245.4375 C 259.484375 245.066406 259 244.714844 258.5 244.371094 C 258.003906 244.03125 257.496094 243.707031 256.980469 243.398438 C 256.464844 243.089844 255.9375 242.796875 255.402344 242.519531 C 254.871094 242.242188 254.328125 241.980469 253.777344 241.738281 C 253.226562 241.492188 252.667969 241.265625 252.105469 241.054688 C 251.542969 240.847656 250.972656 240.652344 250.394531 240.476562 C 249.820312 240.300781 249.238281 240.144531 248.652344 240.003906 C 248.070312 239.863281 247.480469 239.742188 246.886719 239.636719 C 246.292969 239.53125 245.699219 239.445312 245.101562 239.375 C 244.503906 239.308594 243.902344 239.257812 243.300781 239.226562 C 242.699219 239.195312 242.097656 239.179688 241.496094 239.183594 C 240.894531 239.1875 240.292969 239.210938 239.695312 239.253906 C 239.09375 239.292969 238.496094 239.351562 237.898438 239.429688 C 237.300781 239.507812 236.707031 239.605469 236.117188 239.71875 C 235.523438 239.832031 234.9375 239.960938 234.355469 240.113281 C 233.769531 240.261719 233.191406 240.429688 232.621094 240.613281 C 232.046875 240.796875 231.480469 241 230.917969 241.21875 C 230.359375 241.4375 229.804688 241.671875 229.257812 241.925781 C 228.710938 242.175781 228.171875 242.445312 227.644531 242.730469 C 227.113281 243.015625 226.59375 243.316406 226.078125 243.632812 C 225.566406 243.953125 225.066406 244.285156 224.574219 244.632812 C 224.082031 244.976562 223.601562 245.339844 223.132812 245.71875 C 221.667969 246.886719 220.328125 248.1875 219.113281 249.613281 C 217.894531 251.039062 216.824219 252.570312 215.898438 254.199219 C 214.96875 255.828125 214.203125 257.53125 213.601562 259.308594 C 212.996094 261.082031 212.566406 262.898438 212.304688 264.757812 L 162.238281 264.757812 C 162.007812 263.144531 161.648438 261.5625 161.160156 260.007812 C 160.671875 258.457031 160.0625 256.953125 159.328125 255.5 C 158.59375 254.046875 157.746094 252.664062 156.785156 251.351562 C 155.824219 250.035156 154.761719 248.8125 153.601562 247.671875 C 152.4375 246.53125 151.191406 245.496094 149.859375 244.5625 C 148.527344 243.628906 147.128906 242.808594 145.660156 242.105469 C 144.195312 241.398438 142.679688 240.820312 141.121094 240.363281 C 139.558594 239.910156 137.96875 239.585938 136.355469 239.390625 C 134.742188 239.195312 133.121094 239.132812 131.496094 239.203125 C 129.871094 239.277344 128.265625 239.480469 126.671875 239.816406 C 125.082031 240.152344 123.527344 240.617188 122.011719 241.207031 C 120.496094 241.796875 119.039062 242.507812 117.640625 243.339844 C 116.242188 244.167969 114.921875 245.109375 113.675781 246.15625 C 112.429688 247.203125 111.28125 248.347656 110.222656 249.582031 C 109.164062 250.820312 108.214844 252.136719 107.371094 253.527344 C 106.53125 254.921875 105.808594 256.375 105.203125 257.886719 C 103.449219 255.960938 102.101562 253.785156 101.160156 251.355469 C 100.222656 248.925781 99.757812 246.40625 99.761719 243.800781 L 99.761719 169.6875 L 277.894531 169.6875 L 277.894531 179.609375 C 277.894531 179.886719 277.921875 180.160156 277.976562 180.433594 C 278.027344 180.703125 278.109375 180.96875 278.214844 181.222656 C 278.320312 181.480469 278.449219 181.722656 278.605469 181.953125 C 278.757812 182.183594 278.933594 182.394531 279.128906 182.589844 C 279.324219 182.785156 279.535156 182.960938 279.765625 183.113281 C 279.996094 183.269531 280.238281 183.398438 280.492188 183.503906 C 280.75 183.609375 281.011719 183.691406 281.28125 183.746094 C 281.554688 183.796875 281.828125 183.824219 282.105469 183.824219 Z M 228.378906 252.308594 C 229.132812 251.703125 229.921875 251.15625 230.746094 250.65625 C 231.574219 250.160156 232.429688 249.722656 233.316406 249.34375 C 234.199219 248.964844 235.109375 248.644531 236.035156 248.386719 C 236.964844 248.128906 237.90625 247.9375 238.863281 247.804688 C 239.816406 247.675781 240.777344 247.613281 241.738281 247.613281 C 242.703125 247.613281 243.660156 247.675781 244.617188 247.808594 C 245.570312 247.9375 246.511719 248.132812 247.441406 248.390625 C 248.371094 248.648438 249.277344 248.964844 250.164062 249.347656 C 251.046875 249.726562 251.902344 250.164062 252.730469 250.664062 C 253.554688 251.160156 254.34375 251.707031 255.097656 252.3125 C 255.847656 252.914062 256.554688 253.566406 257.21875 254.265625 C 257.882812 254.964844 258.496094 255.707031 259.0625 256.488281 C 259.625 257.269531 260.132812 258.089844 260.585938 258.941406 C 261.039062 259.792969 261.433594 260.667969 261.769531 261.574219 C 262.101562 262.480469 262.375 263.402344 262.585938 264.34375 C 262.792969 265.285156 262.941406 266.238281 263.019531 267.199219 C 263.078125 267.78125 263.09375 268.367188 263.09375 268.972656 C 263.09375 269.421875 263.082031 269.871094 263.054688 270.320312 C 263.023438 270.769531 262.980469 271.214844 262.925781 271.660156 C 262.871094 272.109375 262.800781 272.550781 262.714844 272.992188 C 262.628906 273.433594 262.53125 273.871094 262.417969 274.308594 C 262.308594 274.742188 262.183594 275.175781 262.042969 275.601562 C 261.902344 276.027344 261.75 276.453125 261.585938 276.871094 C 261.417969 277.285156 261.242188 277.699219 261.050781 278.105469 C 260.859375 278.511719 260.652344 278.910156 260.4375 279.304688 C 260.21875 279.699219 259.988281 280.085938 259.75 280.464844 C 259.507812 280.84375 259.253906 281.214844 258.988281 281.578125 C 258.726562 281.941406 258.449219 282.292969 258.164062 282.640625 C 257.875 282.984375 257.578125 283.320312 257.269531 283.648438 C 256.960938 283.976562 256.644531 284.292969 256.316406 284.597656 C 255.988281 284.90625 255.648438 285.203125 255.304688 285.488281 C 254.957031 285.773438 254.601562 286.046875 254.238281 286.308594 C 253.871094 286.574219 253.5 286.824219 253.121094 287.0625 C 252.742188 287.304688 252.355469 287.53125 251.960938 287.746094 C 251.566406 287.960938 251.164062 288.164062 250.757812 288.351562 C 250.351562 288.542969 249.9375 288.71875 249.519531 288.882812 C 249.101562 289.046875 248.679688 289.195312 248.25 289.332031 C 247.824219 289.46875 247.394531 289.59375 246.957031 289.703125 C 246.523438 289.8125 246.085938 289.910156 245.644531 289.992188 C 245.203125 290.074219 244.757812 290.140625 244.3125 290.195312 C 243.867188 290.25 243.417969 290.289062 242.972656 290.316406 C 242.523438 290.339844 242.074219 290.351562 241.625 290.351562 C 241.175781 290.347656 240.730469 290.332031 240.28125 290.300781 C 239.832031 290.269531 239.386719 290.222656 238.941406 290.164062 C 238.496094 290.105469 238.054688 290.03125 237.613281 289.945312 C 237.171875 289.859375 236.734375 289.757812 236.300781 289.644531 C 235.867188 289.527344 235.4375 289.402344 235.011719 289.257812 C 234.585938 289.117188 234.164062 288.960938 233.75 288.792969 C 233.332031 288.625 232.921875 288.445312 232.515625 288.25 C 232.113281 288.054688 231.714844 287.847656 231.320312 287.628906 C 230.929688 287.410156 230.546875 287.179688 230.167969 286.933594 C 229.792969 286.691406 229.421875 286.433594 229.0625 286.167969 C 228.699219 285.902344 228.347656 285.625 228.003906 285.332031 C 227.660156 285.042969 227.328125 284.746094 227.003906 284.433594 C 226.675781 284.125 226.363281 283.804688 226.058594 283.472656 C 225.753906 283.144531 225.460938 282.804688 225.175781 282.453125 C 224.894531 282.105469 224.621094 281.75 224.363281 281.382812 C 224.101562 281.015625 223.851562 280.640625 223.613281 280.261719 C 223.378906 279.878906 223.152344 279.488281 222.941406 279.09375 C 222.726562 278.699219 222.527344 278.296875 222.339844 277.886719 C 222.152344 277.480469 221.980469 277.066406 221.820312 276.644531 C 221.65625 276.226562 221.511719 275.800781 221.375 275.371094 C 221.242188 274.945312 221.121094 274.511719 221.011719 274.074219 C 220.90625 273.636719 220.8125 273.199219 220.734375 272.757812 C 220.652344 272.3125 220.589844 271.871094 220.535156 271.421875 C 220.484375 270.976562 220.449219 270.527344 220.425781 270.082031 C 220.402344 269.632812 220.394531 269.183594 220.398438 268.734375 C 220.402344 268.285156 220.421875 267.835938 220.457031 267.386719 C 220.488281 266.9375 220.535156 266.492188 220.597656 266.046875 C 220.660156 265.601562 220.734375 265.15625 220.824219 264.71875 C 220.914062 264.277344 221.015625 263.839844 221.132812 263.40625 C 221.25 262.972656 221.378906 262.542969 221.523438 262.117188 C 221.667969 261.691406 221.824219 261.269531 221.996094 260.855469 C 222.167969 260.4375 222.351562 260.027344 222.546875 259.625 C 222.742188 259.21875 222.953125 258.820312 223.171875 258.429688 C 223.394531 258.039062 223.628906 257.65625 223.875 257.28125 C 224.117188 256.902344 224.375 256.535156 224.644531 256.175781 C 224.914062 255.816406 225.195312 255.464844 225.484375 255.121094 C 225.773438 254.78125 226.078125 254.445312 226.386719 254.125 C 226.699219 253.800781 227.023438 253.488281 227.351562 253.183594 C 227.683594 252.882812 228.027344 252.589844 228.375 252.308594 Z M 111.710938 265.859375 C 111.894531 264.601562 112.191406 263.371094 112.59375 262.164062 C 113 260.960938 113.507812 259.800781 114.117188 258.683594 C 114.730469 257.570312 115.433594 256.519531 116.234375 255.53125 C 117.035156 254.542969 117.914062 253.632812 118.875 252.800781 C 119.835938 251.96875 120.863281 251.230469 121.957031 250.582031 C 123.050781 249.9375 124.191406 249.390625 125.382812 248.945312 C 126.574219 248.503906 127.792969 248.167969 129.042969 247.945312 C 130.292969 247.71875 131.554688 247.609375 132.824219 247.609375 C 133.523438 247.609375 134.21875 247.644531 134.914062 247.714844 C 135.609375 247.78125 136.300781 247.886719 136.984375 248.023438 C 137.671875 248.160156 138.347656 248.332031 139.015625 248.535156 C 139.683594 248.738281 140.339844 248.972656 140.984375 249.242188 C 141.628906 249.511719 142.261719 249.808594 142.878906 250.140625 C 143.492188 250.472656 144.089844 250.832031 144.671875 251.21875 C 145.253906 251.609375 145.8125 252.027344 146.351562 252.46875 C 146.890625 252.914062 147.40625 253.382812 147.902344 253.878906 C 148.394531 254.375 148.863281 254.894531 149.304688 255.433594 C 149.75 255.976562 150.164062 256.535156 150.550781 257.117188 C 150.9375 257.699219 151.296875 258.300781 151.625 258.917969 C 151.957031 259.535156 152.253906 260.167969 152.519531 260.8125 C 152.785156 261.460938 153.019531 262.117188 153.222656 262.789062 C 153.425781 263.457031 153.59375 264.136719 153.730469 264.820312 C 153.867188 265.507812 153.96875 266.199219 154.035156 266.894531 C 154.105469 267.589844 154.136719 268.289062 154.136719 268.988281 C 154.136719 269.6875 154.101562 270.386719 154.03125 271.082031 C 153.964844 271.777344 153.859375 272.46875 153.722656 273.15625 C 153.585938 273.84375 153.417969 274.519531 153.214844 275.1875 C 153.011719 275.859375 152.773438 276.515625 152.507812 277.160156 C 152.238281 277.808594 151.941406 278.441406 151.609375 279.054688 C 151.28125 279.671875 150.921875 280.273438 150.535156 280.855469 C 150.144531 281.433594 149.730469 281.996094 149.285156 282.535156 C 148.84375 283.078125 148.375 283.59375 147.878906 284.089844 C 147.382812 284.582031 146.867188 285.050781 146.328125 285.496094 C 145.785156 285.9375 145.226562 286.355469 144.644531 286.742188 C 144.0625 287.132812 143.464844 287.492188 142.847656 287.820312 C 142.234375 288.148438 141.601562 288.449219 140.957031 288.714844 C 140.308594 288.984375 139.652344 289.21875 138.984375 289.421875 C 138.316406 289.625 137.640625 289.792969 136.953125 289.929688 C 136.269531 290.066406 135.578125 290.167969 134.882812 290.234375 C 134.1875 290.304688 133.492188 290.339844 132.792969 290.339844 C 132.09375 290.335938 131.394531 290.304688 130.699219 290.234375 C 130.003906 290.164062 129.316406 290.0625 128.628906 289.925781 C 127.945312 289.789062 127.269531 289.621094 126.597656 289.417969 C 125.929688 289.214844 125.273438 288.976562 124.628906 288.710938 C 123.984375 288.441406 123.351562 288.144531 122.738281 287.8125 C 122.121094 287.484375 121.523438 287.125 120.941406 286.734375 C 120.359375 286.347656 119.800781 285.929688 119.261719 285.484375 C 118.71875 285.042969 118.203125 284.574219 117.707031 284.078125 C 117.214844 283.582031 116.746094 283.066406 116.304688 282.523438 C 115.859375 281.984375 115.445312 281.421875 115.054688 280.839844 C 114.667969 280.257812 114.308594 279.660156 113.980469 279.042969 C 113.652344 278.425781 113.351562 277.792969 113.085938 277.148438 C 112.816406 276.5 112.582031 275.84375 112.378906 275.171875 C 112.179688 274.503906 112.007812 273.828125 111.871094 273.140625 C 111.734375 272.453125 111.632812 271.761719 111.566406 271.066406 C 111.496094 270.371094 111.460938 269.671875 111.460938 268.972656 C 111.457031 267.929688 111.539062 266.890625 111.699219 265.859375 Z M 241.058594 107.769531 L 251.363281 106.714844 L 263.808594 119.074219 L 271.816406 136.375 L 230.316406 136.375 Z M 198.683594 84.265625 L 221.808594 88.34375 L 233.308594 104.464844 L 221.320312 136.375 L 193.394531 136.375 L 173.847656 114.148438 L 168.699219 104.671875 Z M 113.484375 117.433594 L 129.558594 101.269531 L 160.433594 107.105469 L 166.6875 118.589844 C 166.839844 118.867188 167.019531 119.125 167.226562 119.363281 L 182.1875 136.375 L 105.652344 136.375 Z M 95.550781 161.257812 L 89.664062 161.257812 C 89.242188 161.253906 88.824219 161.214844 88.410156 161.132812 C 87.996094 161.046875 87.59375 160.925781 87.203125 160.765625 C 86.816406 160.601562 86.445312 160.402344 86.09375 160.167969 C 85.742188 159.933594 85.417969 159.667969 85.121094 159.367188 C 84.820312 159.070312 84.554688 158.746094 84.320312 158.394531 C 84.085938 158.042969 83.886719 157.671875 83.726562 157.28125 C 83.566406 156.890625 83.441406 156.488281 83.359375 156.074219 C 83.277344 155.660156 83.234375 155.242188 83.234375 154.820312 L 83.234375 151.242188 C 83.234375 150.820312 83.277344 150.402344 83.359375 149.988281 C 83.441406 149.574219 83.566406 149.171875 83.726562 148.78125 C 83.886719 148.390625 84.085938 148.019531 84.320312 147.667969 C 84.554688 147.316406 84.820312 146.992188 85.121094 146.695312 C 85.417969 146.394531 85.742188 146.128906 86.09375 145.894531 C 86.445312 145.660156 86.816406 145.460938 87.203125 145.296875 C 87.59375 145.136719 87.996094 145.015625 88.410156 144.933594 C 88.824219 144.847656 89.242188 144.808594 89.664062 144.808594 L 284.890625 144.808594 C 285.3125 144.808594 285.730469 144.847656 286.144531 144.933594 C 286.558594 145.015625 286.957031 145.136719 287.347656 145.296875 C 287.738281 145.460938 288.109375 145.660156 288.460938 145.894531 C 288.808594 146.128906 289.132812 146.394531 289.433594 146.695312 C 289.730469 146.992188 289.996094 147.316406 290.230469 147.667969 C 290.464844 148.019531 290.664062 148.390625 290.828125 148.78125 C 290.988281 149.171875 291.109375 149.574219 291.191406 149.988281 C 291.277344 150.402344 291.316406 150.820312 291.316406 151.242188 L 291.316406 154.820312 C 291.316406 155.242188 291.277344 155.660156 291.191406 156.074219 C 291.109375 156.488281 290.988281 156.890625 290.828125 157.28125 C 290.664062 157.671875 290.464844 158.042969 290.230469 158.394531 C 289.996094 158.746094 289.730469 159.070312 289.433594 159.367188 C 289.132812 159.667969 288.808594 159.933594 288.460938 160.167969 C 288.109375 160.402344 287.738281 160.601562 287.347656 160.765625 C 286.957031 160.925781 286.558594 161.046875 286.144531 161.132812 C 285.730469 161.214844 285.3125 161.253906 284.890625 161.257812 Z M 95.550781 161.257812 " fill-opacity="1" fill-rule="nonzero"/></g></svg>