<svg xmlns="http://www.w3.org/2000/svg" xmlns:xlink="http://www.w3.org/1999/xlink" width="500" zoomAndPan="magnify" viewBox="0 0 375 374.999991" height="500" preserveAspectRatio="xMidYMid meet" version="1.0"><defs><clipPath id="id1"><path d="M 91.816406 37.5 L 283 37.5 L 283 323.25 L 91.816406 323.25 Z M 91.816406 37.5 " clip-rule="nonzero"/></clipPath></defs><path fill="#c0302b" d="M 281.769531 133.117188 C 281.769531 80.96875 239.535156 38.683594 187.441406 38.683594 C 135.34375 38.683594 93.109375 80.96875 93.109375 133.117188 C 93.109375 156.054688 101.285156 177.078125 114.875 193.441406 L 114.875 250.273438 C 114.875 258.597656 121.617188 265.34375 129.925781 265.34375 C 138.238281 265.34375 144.976562 258.597656 144.976562 250.273438 L 145.136719 289.941406 C 145.136719 298.261719 151.878906 305.007812 160.191406 305.007812 C 166.027344 305.007812 171.03125 301.644531 173.53125 296.785156 L 173.53125 306.914062 C 173.53125 315.238281 180.273438 321.988281 188.582031 321.988281 C 196.894531 321.988281 203.636719 315.238281 203.636719 306.914062 L 203.636719 292.34375 C 204.789062 299.515625 210.953125 305.007812 218.449219 305.007812 C 226.757812 305.007812 233.496094 298.261719 233.496094 289.941406 L 233.496094 259.945312 C 236.261719 263.21875 240.335938 265.34375 244.953125 265.34375 C 253.265625 265.34375 260.003906 258.597656 260.003906 250.273438 L 260.003906 193.441406 C 273.59375 177.078125 281.769531 156.054688 281.769531 133.117188 " fill-opacity="1" fill-rule="nonzero"/><g clip-path="url(#id1)"><path fill="#201b2a" d="M 281.769531 133.117188 L 282.976562 133.117188 C 282.976562 80.296875 240.203125 37.476562 187.441406 37.476562 C 134.671875 37.476562 91.902344 80.296875 91.902344 133.117188 C 91.902344 156.34375 100.183594 177.644531 113.945312 194.21875 L 114.875 193.441406 L 113.667969 193.441406 L 113.667969 250.273438 C 113.667969 259.265625 120.949219 266.550781 129.925781 266.554688 C 138.90625 266.550781 146.183594 259.265625 146.183594 250.273438 C 146.183594 249.949219 146.058594 249.644531 145.828125 249.417969 C 145.601562 249.1875 145.296875 249.058594 144.972656 249.0625 C 144.652344 249.0625 144.347656 249.1875 144.121094 249.417969 C 143.894531 249.648438 143.769531 249.953125 143.769531 250.277344 L 143.929688 289.945312 L 143.929688 289.941406 C 143.929688 298.929688 151.210938 306.214844 160.191406 306.214844 C 166.5 306.214844 171.914062 302.578125 174.605469 297.335938 L 173.53125 296.785156 L 172.320312 296.785156 L 172.320312 306.914062 C 172.324219 315.90625 179.605469 323.195312 188.582031 323.195312 C 197.5625 323.195312 204.84375 315.90625 204.84375 306.914062 L 204.84375 292.34375 L 203.636719 292.34375 L 202.441406 292.535156 C 203.6875 300.285156 210.347656 306.214844 218.449219 306.214844 C 227.425781 306.214844 234.703125 298.929688 234.703125 289.941406 L 234.703125 259.945312 L 233.496094 259.945312 L 232.570312 260.722656 C 235.542969 264.25 239.957031 266.554688 244.953125 266.554688 C 253.933594 266.550781 261.210938 259.265625 261.210938 250.273438 L 261.210938 193.441406 L 260.003906 193.441406 L 260.933594 194.21875 C 274.695312 177.644531 282.976562 156.34375 282.976562 133.117188 L 280.5625 133.117188 C 280.5625 155.765625 272.488281 176.511719 259.074219 192.671875 C 258.894531 192.886719 258.796875 193.160156 258.796875 193.441406 L 258.796875 250.273438 C 258.792969 254.105469 257.246094 257.558594 254.738281 260.074219 C 252.230469 262.582031 248.777344 264.132812 244.953125 264.136719 C 240.710938 264.132812 236.980469 262.1875 234.417969 259.164062 C 234.089844 258.773438 233.554688 258.632812 233.082031 258.808594 C 232.601562 258.980469 232.289062 259.433594 232.289062 259.945312 L 232.289062 289.941406 C 232.289062 293.769531 230.738281 297.226562 228.234375 299.738281 C 225.726562 302.246094 222.273438 303.792969 218.449219 303.796875 C 211.558594 303.796875 205.890625 298.75 204.828125 292.152344 C 204.730469 291.527344 204.167969 291.085938 203.542969 291.136719 C 202.914062 291.1875 202.425781 291.710938 202.425781 292.34375 L 202.425781 306.914062 C 202.425781 310.746094 200.878906 314.207031 198.375 316.714844 C 195.863281 319.226562 192.410156 320.773438 188.582031 320.777344 C 184.757812 320.777344 181.304688 319.226562 178.796875 316.714844 C 176.289062 314.207031 174.738281 310.746094 174.738281 306.914062 L 174.738281 296.785156 C 174.738281 296.222656 174.359375 295.738281 173.816406 295.605469 C 173.273438 295.476562 172.710938 295.730469 172.457031 296.230469 C 170.148438 300.710938 165.554688 303.796875 160.191406 303.796875 C 156.363281 303.792969 152.910156 302.246094 150.402344 299.734375 C 147.894531 297.226562 146.347656 293.769531 146.347656 289.941406 L 146.347656 289.933594 L 146.183594 250.265625 C 146.183594 249.597656 145.644531 249.058594 144.972656 249.0625 C 144.304688 249.0625 143.769531 249.605469 143.769531 250.273438 C 143.769531 254.105469 142.222656 257.558594 139.714844 260.074219 C 137.203125 262.582031 133.75 264.132812 129.925781 264.136719 C 126.101562 264.132812 122.648438 262.585938 120.140625 260.074219 C 117.632812 257.558594 116.085938 254.105469 116.082031 250.273438 L 116.082031 193.441406 C 116.082031 193.160156 115.984375 192.886719 115.804688 192.671875 C 102.386719 176.511719 94.316406 155.765625 94.316406 133.117188 C 94.316406 107.371094 104.738281 84.074219 121.59375 67.199219 C 138.449219 50.324219 161.722656 39.894531 187.441406 39.890625 C 213.160156 39.894531 236.429688 50.324219 253.285156 67.199219 C 270.136719 84.074219 280.5625 107.371094 280.5625 133.117188 L 281.769531 133.117188 " fill-opacity="1" fill-rule="nonzero"/></g><path fill="#d9df4f" d="M 187.441406 66.511719 C 229.035156 66.511719 263.355469 97.519531 268.53125 137.636719 C 268.949219 134.3125 269.234375 130.953125 269.234375 127.519531 C 269.234375 82.425781 232.613281 45.875 187.441406 45.875 C 142.265625 45.875 105.644531 82.425781 105.644531 127.519531 C 105.644531 130.953125 105.9375 134.3125 106.34375 137.636719 C 111.519531 97.519531 145.84375 66.511719 187.441406 66.511719 " fill-opacity="1" fill-rule="nonzero"/><path fill="#972420" d="M 114.875 191.53125 C 102.015625 175.542969 94.316406 155.234375 94.316406 133.117188 C 94.316406 128.0625 94.71875 123.109375 95.492188 118.273438 C 98.824219 132.988281 105.5625 146.40625 114.875 157.617188 L 114.875 191.53125 " fill-opacity="1" fill-rule="nonzero"/><path fill="#191520" d="M 114.875 193.441406 C 101.285156 177.078125 93.109375 156.054688 93.109375 133.117188 C 93.109375 126.96875 93.722656 120.964844 94.835938 115.144531 C 95.039062 116.195312 95.253906 117.238281 95.492188 118.273438 C 94.71875 123.109375 94.316406 128.0625 94.316406 133.117188 C 94.316406 155.234375 102.015625 175.542969 114.875 191.53125 L 114.875 193.441406 " fill-opacity="1" fill-rule="nonzero"/><path fill="#972420" d="M 260.003906 191.53125 L 260.003906 157.617188 C 269.320312 146.40625 276.054688 132.984375 279.386719 118.273438 C 280.160156 123.105469 280.5625 128.0625 280.5625 133.117188 C 280.5625 155.234375 272.863281 175.542969 260.003906 191.53125 " fill-opacity="1" fill-rule="nonzero"/><path fill="#191520" d="M 260.003906 193.441406 L 260.003906 191.53125 C 272.863281 175.542969 280.5625 155.234375 280.5625 133.117188 C 280.5625 128.0625 280.160156 123.105469 279.386719 118.273438 C 279.621094 117.234375 279.835938 116.191406 280.039062 115.144531 C 281.160156 120.964844 281.769531 126.96875 281.769531 133.117188 C 281.769531 156.054688 273.59375 177.078125 260.003906 193.441406 " fill-opacity="1" fill-rule="nonzero"/><path fill="#972420" d="M 188.582031 320.777344 C 184.757812 320.777344 181.304688 319.226562 178.796875 316.714844 C 176.289062 314.207031 174.738281 310.746094 174.738281 306.914062 L 174.738281 296.785156 C 174.738281 296.222656 174.359375 295.738281 173.816406 295.605469 C 173.71875 295.582031 173.625 295.574219 173.53125 295.574219 C 173.085938 295.574219 172.667969 295.820312 172.457031 296.230469 C 170.148438 300.710938 165.554688 303.796875 160.191406 303.796875 C 156.363281 303.792969 152.910156 302.246094 150.402344 299.734375 C 147.894531 297.226562 146.347656 293.769531 146.347656 289.941406 L 146.347656 289.933594 L 146.222656 259.746094 C 148.453125 265.277344 153.867188 269.183594 160.191406 269.183594 C 166.027344 269.183594 171.03125 265.820312 173.53125 260.957031 L 173.53125 271.097656 C 173.53125 279.414062 180.273438 286.160156 188.582031 286.160156 C 196.894531 286.160156 203.636719 279.414062 203.636719 271.097656 L 203.636719 256.515625 C 204.789062 263.691406 210.953125 269.183594 218.449219 269.183594 C 224.660156 269.183594 229.988281 265.417969 232.289062 260.042969 L 232.289062 289.941406 C 232.289062 293.769531 230.738281 297.226562 228.234375 299.738281 C 225.726562 302.246094 222.273438 303.792969 218.449219 303.796875 C 218.449219 303.796875 218.445312 303.796875 218.445312 303.796875 C 211.558594 303.796875 205.890625 298.75 204.828125 292.152344 C 204.734375 291.558594 204.226562 291.132812 203.640625 291.132812 C 203.605469 291.132812 203.574219 291.132812 203.542969 291.136719 C 202.914062 291.1875 202.425781 291.710938 202.425781 292.34375 L 202.425781 306.914062 C 202.425781 310.746094 200.878906 314.207031 198.375 316.714844 C 195.863281 319.226562 192.410156 320.773438 188.582031 320.777344 M 244.953125 264.136719 C 240.710938 264.132812 236.980469 262.1875 234.417969 259.164062 C 234.183594 258.882812 233.84375 258.730469 233.496094 258.730469 C 233.359375 258.730469 233.214844 258.757812 233.082031 258.808594 C 232.921875 258.863281 232.78125 258.953125 232.664062 259.066406 C 233.203125 257.511719 233.496094 255.847656 233.496094 254.113281 L 233.496094 224.121094 C 236.261719 227.394531 240.335938 229.515625 244.953125 229.515625 C 251.164062 229.515625 256.496094 225.753906 258.796875 220.375 L 258.796875 250.273438 C 258.792969 254.105469 257.246094 257.558594 254.738281 260.074219 C 252.230469 262.582031 248.777344 264.132812 244.953125 264.136719 M 129.925781 264.136719 C 126.101562 264.132812 122.648438 262.585938 120.140625 260.074219 C 117.632812 257.558594 116.085938 254.105469 116.082031 250.273438 L 116.082031 220.375 C 118.382812 225.753906 123.71875 229.515625 129.925781 229.515625 C 138.238281 229.515625 144.976562 222.777344 144.976562 214.449219 L 145.117188 249.070312 C 145.070312 249.066406 145.023438 249.0625 144.976562 249.0625 C 144.976562 249.0625 144.976562 249.0625 144.972656 249.0625 C 144.4375 249.0625 143.976562 249.417969 143.824219 249.910156 C 143.824219 249.910156 143.820312 249.914062 143.820312 249.917969 C 143.820312 249.921875 143.820312 249.921875 143.820312 249.921875 C 143.820312 249.925781 143.820312 249.925781 143.820312 249.929688 C 143.820312 249.929688 143.820312 249.933594 143.816406 249.933594 C 143.816406 249.933594 143.816406 249.9375 143.816406 249.9375 C 143.816406 249.9375 143.816406 249.941406 143.8125 249.941406 C 143.8125 249.945312 143.8125 249.945312 143.8125 249.945312 C 143.8125 249.949219 143.8125 249.949219 143.8125 249.949219 C 143.8125 249.953125 143.8125 249.953125 143.8125 249.953125 C 143.808594 249.953125 143.808594 249.953125 143.808594 249.957031 C 143.808594 249.957031 143.808594 249.960938 143.808594 249.960938 C 143.808594 249.960938 143.808594 249.964844 143.808594 249.964844 C 143.808594 249.964844 143.804688 249.96875 143.804688 249.972656 C 143.804688 249.972656 143.804688 249.972656 143.804688 249.976562 C 143.804688 249.980469 143.804688 249.984375 143.804688 249.984375 L 143.804688 249.988281 C 143.804688 249.988281 143.804688 249.988281 143.804688 249.992188 C 143.78125 250.085938 143.769531 250.179688 143.769531 250.273438 C 143.769531 254.105469 142.21875 257.558594 139.714844 260.074219 C 137.203125 262.582031 133.75 264.132812 129.925781 264.136719 " fill-opacity="1" fill-rule="nonzero"/><path fill="#191520" d="M 188.582031 321.988281 C 180.273438 321.988281 173.53125 315.238281 173.53125 306.914062 L 173.53125 296.785156 C 171.03125 301.644531 166.027344 305.007812 160.191406 305.007812 C 151.878906 305.007812 145.136719 298.261719 145.136719 289.941406 L 144.976562 250.273438 C 144.976562 258.597656 138.238281 265.34375 129.925781 265.34375 C 121.617188 265.34375 114.875 258.597656 114.875 250.273438 L 114.875 214.449219 C 114.875 216.554688 115.304688 218.558594 116.082031 220.375 L 116.082031 250.273438 C 116.085938 254.105469 117.632812 257.558594 120.140625 260.074219 C 122.648438 262.585938 126.101562 264.132812 129.925781 264.136719 C 133.75 264.132812 137.203125 262.582031 139.714844 260.074219 C 142.21875 257.558594 143.769531 254.105469 143.769531 250.273438 C 143.769531 250.179688 143.78125 250.085938 143.804688 249.992188 C 143.804688 249.988281 143.804688 249.988281 143.804688 249.988281 L 143.804688 249.984375 C 143.804688 249.984375 143.804688 249.980469 143.804688 249.976562 C 143.804688 249.972656 143.804688 249.972656 143.804688 249.972656 C 143.804688 249.96875 143.808594 249.964844 143.808594 249.964844 C 143.808594 249.964844 143.808594 249.960938 143.808594 249.960938 C 143.808594 249.960938 143.808594 249.957031 143.808594 249.957031 C 143.808594 249.953125 143.808594 249.953125 143.8125 249.953125 C 143.8125 249.953125 143.8125 249.953125 143.8125 249.949219 C 143.8125 249.949219 143.8125 249.949219 143.8125 249.945312 C 143.8125 249.945312 143.8125 249.945312 143.8125 249.941406 C 143.816406 249.941406 143.816406 249.9375 143.816406 249.9375 C 143.816406 249.9375 143.816406 249.933594 143.816406 249.933594 C 143.820312 249.933594 143.820312 249.929688 143.820312 249.929688 C 143.820312 249.925781 143.820312 249.925781 143.820312 249.921875 C 143.820312 249.921875 143.820312 249.921875 143.820312 249.917969 C 143.820312 249.914062 143.824219 249.910156 143.824219 249.910156 C 143.976562 249.417969 144.4375 249.0625 144.972656 249.0625 C 144.976562 249.0625 144.976562 249.0625 144.976562 249.0625 C 145.023438 249.0625 145.070312 249.066406 145.117188 249.070312 L 145.136719 254.113281 C 145.136719 256.105469 145.523438 258.007812 146.222656 259.746094 L 146.347656 289.933594 L 146.347656 289.941406 C 146.347656 293.769531 147.894531 297.226562 150.402344 299.734375 C 152.910156 302.246094 156.363281 303.792969 160.191406 303.796875 C 165.554688 303.796875 170.148438 300.710938 172.457031 296.230469 C 172.667969 295.820312 173.085938 295.574219 173.53125 295.574219 C 173.625 295.574219 173.71875 295.582031 173.816406 295.605469 C 174.359375 295.738281 174.738281 296.222656 174.738281 296.785156 L 174.738281 306.914062 C 174.738281 310.746094 176.289062 314.207031 178.796875 316.714844 C 181.304688 319.226562 184.757812 320.777344 188.582031 320.777344 C 192.410156 320.773438 195.863281 319.226562 198.375 316.714844 C 200.878906 314.207031 202.425781 310.746094 202.425781 306.914062 L 202.425781 292.34375 C 202.425781 291.710938 202.914062 291.1875 203.542969 291.136719 C 203.574219 291.132812 203.605469 291.132812 203.640625 291.132812 C 204.226562 291.132812 204.734375 291.558594 204.828125 292.152344 C 205.890625 298.75 211.558594 303.796875 218.445312 303.796875 C 218.445312 303.796875 218.449219 303.796875 218.449219 303.796875 C 222.273438 303.792969 225.726562 302.246094 228.234375 299.738281 C 230.738281 297.226562 232.289062 293.769531 232.289062 289.941406 L 232.289062 260.042969 C 232.421875 259.722656 232.546875 259.398438 232.664062 259.066406 C 232.78125 258.953125 232.921875 258.863281 233.082031 258.808594 C 233.214844 258.757812 233.359375 258.730469 233.496094 258.730469 C 233.84375 258.730469 234.183594 258.882812 234.417969 259.164062 C 236.980469 262.1875 240.710938 264.132812 244.953125 264.136719 C 248.777344 264.132812 252.230469 262.582031 254.738281 260.074219 C 257.246094 257.558594 258.792969 254.105469 258.796875 250.273438 L 258.796875 220.375 C 259.574219 218.558594 260.003906 216.554688 260.003906 214.449219 L 260.003906 250.273438 C 260.003906 258.597656 253.265625 265.34375 244.953125 265.34375 C 240.335938 265.34375 236.261719 263.21875 233.496094 259.945312 L 233.496094 289.941406 C 233.496094 298.261719 226.757812 305.007812 218.449219 305.007812 C 210.953125 305.007812 204.789062 299.515625 203.636719 292.34375 L 203.636719 306.914062 C 203.636719 315.238281 196.894531 321.988281 188.582031 321.988281 " fill-opacity="1" fill-rule="nonzero"/><path fill="#201b2a" d="M 174.542969 136.414062 C 174.542969 154.414062 167.84375 169.011719 159.570312 169.011719 C 151.300781 169.011719 144.589844 154.414062 144.589844 136.414062 C 144.589844 118.414062 151.300781 103.820312 159.570312 103.820312 C 167.84375 103.820312 174.542969 118.414062 174.542969 136.414062 " fill-opacity="1" fill-rule="nonzero"/><path fill="#ffffff" d="M 163.625 151.828125 C 163.625 156.71875 159.011719 160.6875 153.332031 160.6875 C 147.648438 160.6875 143.042969 156.71875 143.042969 151.828125 C 143.042969 146.929688 147.648438 142.964844 153.332031 142.964844 C 159.011719 142.964844 163.625 146.929688 163.625 151.828125 " fill-opacity="1" fill-rule="nonzero"/><path fill="#201b2a" d="M 232.40625 136.414062 C 232.40625 154.414062 225.699219 169.011719 217.425781 169.011719 C 209.15625 169.011719 202.453125 154.414062 202.453125 136.414062 C 202.453125 118.414062 209.15625 103.820312 217.425781 103.820312 C 225.699219 103.820312 232.40625 118.414062 232.40625 136.414062 " fill-opacity="1" fill-rule="nonzero"/><path fill="#ffffff" d="M 221.484375 151.828125 C 221.484375 156.71875 216.875 160.6875 211.191406 160.6875 C 205.507812 160.6875 200.90625 156.71875 200.90625 151.828125 C 200.90625 146.929688 205.507812 142.964844 211.191406 142.964844 C 216.875 142.964844 221.484375 146.929688 221.484375 151.828125 " fill-opacity="1" fill-rule="nonzero"/><path fill="#201b2a" d="M 207.332031 187.230469 C 207.332031 187.230469 207.527344 188.234375 207.765625 189.972656 C 207.820312 190.40625 207.867188 190.890625 207.933594 191.417969 C 207.90625 191.957031 207.820312 192.558594 207.738281 193.207031 C 207.648438 193.886719 207.554688 194.59375 207.453125 195.339844 C 207.328125 196.097656 206.96875 196.765625 206.707031 197.542969 C 206.402344 198.292969 206.152344 199.136719 205.738281 199.917969 C 205.277344 200.671875 204.746094 201.421875 204.210938 202.21875 C 203.710938 203.054688 203.046875 203.769531 202.308594 204.464844 C 201.585938 205.171875 200.851562 205.929688 199.996094 206.539062 C 198.199219 207.648438 196.371094 208.96875 194.160156 209.539062 C 193.089844 209.898438 192.015625 210.324219 190.863281 210.367188 L 189.15625 210.5625 L 188.296875 210.648438 L 187.867188 210.6875 L 187.65625 210.710938 L 187.542969 210.722656 L 187.46875 210.730469 C 187.300781 210.722656 187.808594 210.75 187.078125 210.714844 C 185.066406 210.410156 183.425781 210.554688 180.90625 209.589844 C 178.445312 208.976562 176.683594 207.648438 174.882812 206.546875 C 174.023438 205.929688 173.28125 205.179688 172.5625 204.472656 C 171.828125 203.777344 171.15625 203.058594 170.660156 202.230469 C 170.128906 201.429688 169.597656 200.679688 169.132812 199.925781 C 168.71875 199.136719 168.46875 198.300781 168.160156 197.546875 C 167.902344 196.773438 167.542969 196.089844 167.425781 195.355469 C 167.328125 194.628906 167.238281 193.941406 167.152344 193.289062 C 167.078125 192.652344 166.992188 192.0625 166.957031 191.515625 C 166.992188 190.960938 167.066406 190.449219 167.113281 189.996094 C 167.339844 188.183594 167.550781 187.230469 167.550781 187.230469 C 167.550781 187.230469 167.953125 188.21875 168.527344 189.804688 C 168.667969 190.195312 168.824219 190.621094 168.988281 191.089844 C 169.261719 191.53125 169.503906 192.011719 169.78125 192.503906 C 170.300781 193.507812 170.898438 194.585938 171.789062 195.601562 C 172.21875 196.113281 172.582031 196.691406 173.078125 197.183594 C 173.617188 197.652344 174.121094 198.15625 174.652344 198.65625 C 175.136719 199.199219 175.761719 199.617188 176.429688 199.996094 C 177.097656 200.359375 177.632812 200.910156 178.332031 201.25 C 179.75 201.882812 181.210938 202.585938 182.539062 202.820312 C 183.613281 203.351562 185.960938 203.351562 187.804688 203.574219 C 187.089844 203.539062 187.613281 203.5625 187.457031 203.550781 L 187.476562 203.550781 L 187.511719 203.546875 L 187.585938 203.539062 L 187.738281 203.523438 L 188.035156 203.492188 L 188.636719 203.433594 L 189.828125 203.332031 C 190.636719 203.34375 191.394531 203.09375 192.160156 202.878906 C 193.730469 202.589844 195.128906 201.882812 196.550781 201.257812 C 197.246094 200.914062 197.792969 200.371094 198.460938 200.003906 C 199.125 199.625 199.75 199.210938 200.234375 198.664062 C 200.761719 198.160156 201.265625 197.65625 201.8125 197.195312 C 202.308594 196.695312 202.667969 196.121094 203.09375 195.605469 C 203.996094 194.5625 204.570312 193.550781 205.082031 192.578125 C 205.371094 192.085938 205.632812 191.628906 205.875 191.199219 C 206.070312 190.710938 206.210938 190.242188 206.355469 189.832031 C 206.929688 188.171875 207.332031 187.230469 207.332031 187.230469 " fill-opacity="1" fill-rule="nonzero"/></svg>