<svg xmlns="http://www.w3.org/2000/svg" xmlns:xlink="http://www.w3.org/1999/xlink" width="500" zoomAndPan="magnify" viewBox="0 0 375 374.999991" height="500" preserveAspectRatio="xMidYMid meet" version="1.0"><defs><clipPath id="id1"><path d="M 232 52.71875 L 298 52.71875 L 298 118 L 232 118 Z M 232 52.71875 " clip-rule="nonzero"/></clipPath><clipPath id="id2"><path d="M 49.082031 223 L 115 223 L 115 289 L 49.082031 289 Z M 49.082031 223 " clip-rule="nonzero"/></clipPath></defs><path fill="#eaba40" d="M 223.605469 122.507812 C 227.242188 128.480469 235.9375 133.683594 242.925781 134.074219 L 316.398438 138.179688 C 323.386719 138.570312 325.375 143.230469 320.8125 148.53125 L 272.859375 204.304688 C 268.300781 209.609375 266.03125 219.476562 267.816406 226.238281 L 286.617188 297.328125 C 288.402344 304.085938 284.585938 307.414062 278.125 304.71875 L 210.21875 276.386719 C 203.757812 273.691406 193.667969 274.585938 187.785156 278.375 L 125.925781 318.203125 C 120.046875 321.992188 115.699219 319.386719 116.265625 312.421875 L 122.253906 239.136719 C 122.824219 232.167969 118.851562 222.851562 113.429688 218.433594 L 56.398438 171.957031 C 50.976562 167.539062 52.109375 162.605469 58.917969 160.992188 L 130.523438 144.03125 C 137.332031 142.417969 144.976562 135.765625 147.503906 129.246094 L 174.117188 60.695312 C 176.648438 54.175781 181.695312 53.730469 185.332031 59.699219 Z M 223.605469 122.507812 " fill-opacity="1" fill-rule="nonzero"/><g clip-path="url(#id1)"><path fill="#eaba40" d="M 297.578125 85.242188 C 270.84375 88.46875 268.230469 91.085938 264.996094 117.796875 C 261.769531 91.085938 259.152344 88.46875 232.417969 85.242188 C 259.152344 82.015625 261.769531 79.402344 264.996094 52.6875 C 268.230469 79.402344 270.84375 82.015625 297.578125 85.242188 Z M 297.578125 85.242188 " fill-opacity="1" fill-rule="nonzero"/></g><g clip-path="url(#id2)"><path fill="#eaba40" d="M 114.761719 256.140625 C 88.027344 259.363281 85.414062 261.980469 82.179688 288.691406 C 78.953125 261.980469 76.335938 259.363281 49.601562 256.140625 C 76.335938 252.910156 78.953125 250.296875 82.179688 223.582031 C 85.414062 250.296875 88.027344 252.910156 114.761719 256.140625 Z M 114.761719 256.140625 " fill-opacity="1" fill-rule="nonzero"/></g></svg>