<svg xmlns="http://www.w3.org/2000/svg" xmlns:xlink="http://www.w3.org/1999/xlink" width="500" zoomAndPan="magnify" viewBox="0 0 375 374.999991" height="500" preserveAspectRatio="xMidYMid meet" version="1.0"><defs><clipPath id="id1"><path d="M 82 112.339844 L 156 112.339844 L 156 262.339844 L 82 262.339844 Z M 82 112.339844 " clip-rule="nonzero"/></clipPath><clipPath id="id2"><path d="M 128 112.339844 L 201 112.339844 L 201 262.339844 L 128 262.339844 Z M 128 112.339844 " clip-rule="nonzero"/></clipPath><clipPath id="id3"><path d="M 174 112.339844 L 247 112.339844 L 247 262.339844 L 174 262.339844 Z M 174 112.339844 " clip-rule="nonzero"/></clipPath><clipPath id="id4"><path d="M 219 112.339844 L 293 112.339844 L 293 262.339844 L 219 262.339844 Z M 219 112.339844 " clip-rule="nonzero"/></clipPath></defs><g clip-path="url(#id1)"><path fill="#ffcc34" d="M 126.363281 262.078125 L 153.550781 262.078125 C 153.6875 262.078125 153.824219 262.058594 153.957031 262.023438 C 154.089844 261.988281 154.214844 261.933594 154.335938 261.863281 C 154.453125 261.796875 154.5625 261.710938 154.660156 261.613281 C 154.757812 261.515625 154.839844 261.40625 154.910156 261.289062 C 154.976562 261.167969 155.03125 261.042969 155.066406 260.910156 C 155.101562 260.777344 155.117188 260.640625 155.117188 260.503906 C 155.117188 260.363281 155.101562 260.230469 155.066406 260.097656 C 155.027344 259.960938 154.976562 259.835938 154.90625 259.71875 L 113.359375 187.910156 C 113.078125 187.382812 113.078125 186.859375 113.359375 186.335938 L 154.90625 114.527344 C 154.976562 114.40625 155.027344 114.28125 155.066406 114.148438 C 155.101562 114.015625 155.117188 113.878906 155.117188 113.742188 C 155.117188 113.605469 155.101562 113.46875 155.066406 113.335938 C 155.03125 113.203125 154.976562 113.074219 154.910156 112.957031 C 154.839844 112.835938 154.757812 112.726562 154.660156 112.628906 C 154.5625 112.53125 154.453125 112.449219 154.335938 112.378906 C 154.214844 112.308594 154.089844 112.257812 153.957031 112.222656 C 153.824219 112.183594 153.6875 112.167969 153.550781 112.164062 L 126.363281 112.164062 C 126.082031 112.164062 125.820312 112.230469 125.574219 112.371094 C 125.332031 112.515625 125.140625 112.707031 125.003906 112.953125 L 82.582031 186.335938 C 82.425781 186.574219 82.347656 186.835938 82.347656 187.121094 C 82.347656 187.40625 82.425781 187.671875 82.582031 187.910156 L 125.003906 261.464844 C 125.34375 261.921875 125.796875 262.125 126.363281 262.078125 Z M 126.363281 262.078125 " fill-opacity="1" fill-rule="nonzero"/></g><g clip-path="url(#id2)"><path fill="#ffcc34" d="M 172.113281 262.078125 L 199.300781 262.078125 C 199.433594 262.066406 199.5625 262.039062 199.6875 261.996094 C 199.8125 261.953125 199.929688 261.890625 200.042969 261.820312 C 200.152344 261.746094 200.25 261.660156 200.339844 261.558594 C 200.429688 261.460938 200.503906 261.351562 200.566406 261.234375 C 200.625 261.117188 200.671875 260.992188 200.699219 260.863281 C 200.730469 260.734375 200.746094 260.605469 200.742188 260.472656 C 200.738281 260.339844 200.71875 260.207031 200.679688 260.082031 C 200.644531 259.953125 200.59375 259.832031 200.527344 259.71875 L 159.152344 187.910156 C 158.871094 187.382812 158.871094 186.859375 159.152344 186.335938 L 200.527344 114.527344 C 200.597656 114.40625 200.648438 114.28125 200.683594 114.148438 C 200.71875 114.015625 200.738281 113.878906 200.738281 113.742188 C 200.738281 113.605469 200.71875 113.46875 200.683594 113.335938 C 200.648438 113.203125 200.597656 113.074219 200.527344 112.957031 C 200.460938 112.835938 200.378906 112.726562 200.28125 112.628906 C 200.183594 112.53125 200.074219 112.449219 199.953125 112.378906 C 199.835938 112.308594 199.710938 112.257812 199.578125 112.222656 C 199.441406 112.183594 199.308594 112.167969 199.167969 112.164062 L 172.113281 112.164062 C 171.515625 112.179688 171.0625 112.441406 170.757812 112.953125 L 128.332031 186.335938 C 128.050781 186.859375 128.050781 187.382812 128.332031 187.910156 L 170.757812 261.464844 C 171.101562 261.902344 171.554688 262.109375 172.113281 262.078125 Z M 172.113281 262.078125 " fill-opacity="1" fill-rule="nonzero"/></g><g clip-path="url(#id3)"><path fill="#ffcc34" d="M 218.039062 262.078125 L 245.226562 262.078125 C 245.363281 262.078125 245.5 262.058594 245.632812 262.023438 C 245.765625 261.988281 245.894531 261.933594 246.011719 261.863281 C 246.132812 261.796875 246.238281 261.710938 246.335938 261.613281 C 246.433594 261.515625 246.515625 261.40625 246.585938 261.289062 C 246.65625 261.167969 246.707031 261.042969 246.742188 260.910156 C 246.777344 260.777344 246.796875 260.640625 246.796875 260.503906 C 246.796875 260.363281 246.777344 260.230469 246.742188 260.097656 C 246.707031 259.960938 246.652344 259.835938 246.582031 259.71875 L 204.90625 187.910156 C 204.621094 187.382812 204.621094 186.859375 204.90625 186.335938 L 246.453125 114.527344 C 246.523438 114.40625 246.574219 114.28125 246.609375 114.148438 C 246.644531 114.015625 246.664062 113.878906 246.664062 113.742188 C 246.664062 113.605469 246.644531 113.46875 246.609375 113.335938 C 246.574219 113.203125 246.523438 113.074219 246.453125 112.957031 C 246.386719 112.835938 246.304688 112.726562 246.207031 112.628906 C 246.109375 112.53125 246 112.449219 245.878906 112.378906 C 245.761719 112.308594 245.636719 112.257812 245.503906 112.222656 C 245.367188 112.183594 245.234375 112.167969 245.09375 112.164062 L 218.039062 112.164062 C 217.757812 112.164062 217.496094 112.230469 217.25 112.371094 C 217.007812 112.515625 216.820312 112.707031 216.683594 112.953125 L 174.257812 186.335938 C 174.101562 186.574219 174.023438 186.835938 174.023438 187.121094 C 174.023438 187.40625 174.101562 187.671875 174.257812 187.910156 L 216.550781 261.464844 C 216.71875 261.699219 216.941406 261.875 217.207031 261.984375 C 217.476562 262.09375 217.753906 262.125 218.039062 262.078125 Z M 218.039062 262.078125 " fill-opacity="1" fill-rule="nonzero"/></g><g clip-path="url(#id4)"><path fill="#ff8186" d="M 263.660156 262.078125 L 290.847656 262.078125 C 290.984375 262.078125 291.121094 262.058594 291.253906 262.023438 C 291.386719 261.988281 291.511719 261.933594 291.632812 261.863281 C 291.75 261.796875 291.859375 261.710938 291.957031 261.613281 C 292.054688 261.515625 292.136719 261.40625 292.207031 261.289062 C 292.273438 261.167969 292.324219 261.042969 292.363281 260.910156 C 292.398438 260.777344 292.414062 260.640625 292.414062 260.503906 C 292.414062 260.363281 292.394531 260.230469 292.359375 260.097656 C 292.324219 259.960938 292.273438 259.835938 292.203125 259.71875 L 250.699219 187.910156 C 250.417969 187.382812 250.417969 186.859375 250.699219 186.335938 L 292.203125 114.527344 C 292.273438 114.40625 292.324219 114.28125 292.359375 114.148438 C 292.394531 114.015625 292.414062 113.878906 292.414062 113.742188 C 292.414062 113.605469 292.398438 113.46875 292.363281 113.335938 C 292.324219 113.203125 292.273438 113.074219 292.207031 112.957031 C 292.136719 112.835938 292.054688 112.726562 291.957031 112.628906 C 291.859375 112.53125 291.75 112.449219 291.632812 112.378906 C 291.511719 112.308594 291.386719 112.257812 291.253906 112.222656 C 291.121094 112.183594 290.984375 112.167969 290.847656 112.164062 L 263.660156 112.164062 C 263.058594 112.179688 262.609375 112.441406 262.300781 112.953125 L 219.878906 186.335938 C 219.59375 186.859375 219.59375 187.382812 219.878906 187.910156 L 262.300781 261.464844 C 262.648438 261.902344 263.101562 262.109375 263.660156 262.078125 Z M 263.660156 262.078125 " fill-opacity="1" fill-rule="nonzero"/></g></svg>