<svg xmlns="http://www.w3.org/2000/svg" xmlns:xlink="http://www.w3.org/1999/xlink" width="500" zoomAndPan="magnify" viewBox="0 0 375 374.999991" height="500" preserveAspectRatio="xMidYMid meet" version="1.0"><defs><clipPath id="id1"><path d="M 7.914062 0 L 366.800781 0 L 366.800781 358.886719 L 7.914062 358.886719 Z M 7.914062 0 " clip-rule="nonzero"/></clipPath></defs><g clip-path="url(#id1)"><path fill="#be1931" d="M 187.355469 358.886719 C 139.449219 358.886719 94.335938 340.238281 60.484375 306.316406 C 26.558594 272.464844 7.914062 227.351562 7.914062 179.441406 C 7.914062 131.535156 26.558594 86.421875 60.484375 52.570312 C 94.335938 18.648438 139.449219 0 187.355469 0 C 235.265625 0 280.378906 18.648438 314.230469 52.570312 C 348.152344 86.496094 366.800781 131.535156 366.800781 179.441406 C 366.800781 227.351562 348.152344 272.464844 314.230469 306.316406 C 280.378906 340.238281 235.265625 358.886719 187.355469 358.886719 Z M 187.355469 10.757812 C 142.316406 10.757812 99.929688 28.328125 68.085938 60.171875 C 36.242188 92.015625 18.671875 134.402344 18.671875 179.441406 C 18.671875 224.484375 36.242188 266.871094 68.085938 298.714844 C 99.929688 330.558594 142.316406 348.128906 187.355469 348.128906 C 232.398438 348.128906 274.78125 330.558594 306.625 298.714844 C 338.46875 266.871094 356.042969 224.484375 356.042969 179.441406 C 356.042969 134.402344 338.46875 92.015625 306.625 60.171875 C 274.78125 28.328125 232.398438 10.757812 187.355469 10.757812 Z M 187.355469 10.757812 " fill-opacity="1" fill-rule="nonzero"/></g><path fill="#be1931" d="M 94.339844 222.1875 C 91.347656 210.757812 99.207031 181.648438 86.644531 175.789062 C 81.011719 173.160156 68.457031 176.132812 65.660156 188.832031 C 64.242188 195.265625 72.628906 203.6875 76.621094 209.976562 C 82.117188 218.636719 72.230469 230.980469 54.40625 221.699219 C 36.582031 212.421875 34.214844 184.140625 49.453125 166.996094 C 70.402344 144.417969 107.890625 145.625 120.433594 176.210938 C 126.34375 190.617188 118.28125 205.855469 119.640625 213.199219 C 120.457031 219.183594 134.433594 225.527344 126.082031 235.082031 C 113.871094 249.050781 96.242188 230.894531 94.339844 222.1875 Z M 137.375 242.371094 C 127.265625 243.804688 118.519531 253.171875 130.214844 267.847656 C 136.464844 274.257812 149.9375 271.113281 153.191406 263.136719 C 158.332031 247.09375 147.207031 240.980469 137.375 242.371094 Z M 156.378906 110.929688 C 134.917969 119.007812 123.851562 145.140625 135.3125 161.652344 C 146.773438 178.160156 161.261719 171.835938 160.425781 161.613281 C 159.820312 154.191406 156.3125 142.835938 160.5625 137.796875 C 168.949219 127.859375 181.445312 131.070312 185.207031 136.019531 C 193.597656 147.054688 173.097656 169.160156 170.429688 180.667969 C 168.0625 189.261719 175.222656 213.535156 192.523438 206.855469 C 204.363281 202.285156 194.941406 190.167969 197.007812 184.488281 C 199.222656 177.355469 213.445312 167.621094 214.917969 152.117188 C 218.046875 119.210938 185.425781 100.691406 156.378906 110.929688 Z M 199.132812 218.5625 C 189.515625 215.125 177.417969 219.347656 180.9375 237.777344 C 183.488281 246.363281 196.878906 249.851562 203.46875 244.304688 C 215.484375 232.496094 208.484375 221.90625 199.132812 218.5625 Z M 296.660156 109.46875 C 274.5625 103.335938 250.21875 117.917969 249.734375 138.007812 C 249.253906 158.101562 264.6875 161.542969 270.042969 152.792969 C 273.933594 146.441406 277.796875 135.203125 284.199219 133.640625 C 296.828125 130.558594 305.027344 140.523438 305.148438 146.738281 C 305.417969 160.597656 275.824219 166.363281 266.886719 174.082031 C 259.90625 179.625 251.375 203.453125 269.289062 208.261719 C 281.542969 211.554688 281.082031 196.210938 286.097656 192.84375 C 292.09375 188.386719 309.316406 188.914062 319.648438 177.265625 C 341.582031 152.53125 326.15625 118.335938 296.660156 109.46875 Z M 241.695312 226.402344 C 238.691406 234.839844 247.449219 245.550781 256.042969 244.960938 C 272.707031 242.511719 273.300781 229.828125 267.71875 221.613281 C 261.980469 213.167969 249.71875 209.4375 241.695312 226.402344 Z M 241.695312 226.402344 " fill-opacity="1" fill-rule="nonzero"/><path fill="#be1931" d="M 48.851562 191.0625 C 46.957031 195.71875 48.015625 201 49.820312 205.5625 C 51.265625 209.21875 54.691406 214.976562 59.320312 214.066406 C 60.042969 213.921875 60.601562 212.980469 60.332031 212.28125 C 59.03125 208.871094 55.453125 206.886719 53.980469 203.300781 C 52.386719 199.414062 52.367188 195.101562 51.4375 191.0625 C 51.109375 189.636719 49.308594 189.9375 48.851562 191.0625 Z M 105.332031 195.417969 C 105.964844 197.621094 106.25 199.886719 106.640625 202.140625 C 106.953125 203.941406 107.363281 206.238281 108.171875 207.871094 C 108.382812 208.296875 109.113281 208.3125 109.316406 207.871094 C 111.25 203.726562 109.46875 198.289062 107.636719 194.445312 C 107.011719 193.132812 104.941406 194.0625 105.332031 195.417969 Z M 136.402344 252.46875 C 136.332031 253.363281 136.324219 252.753906 137.410156 252.648438 C 138.535156 252.539062 139.632812 252.707031 140.710938 252.996094 C 143.132812 253.648438 144.800781 255.25 144.574219 257.839844 C 144.339844 260.4375 148.382812 260.414062 148.613281 257.839844 C 149.039062 253.074219 145.3125 249.902344 140.996094 248.902344 C 137.929688 248.191406 132.695312 248.375 132.363281 252.46875 C 132.152344 255.070312 136.195312 255.046875 136.402344 252.46875 Z M 144.679688 131.917969 C 139.300781 136.621094 134.285156 153.433594 143.136719 157.160156 C 144.046875 157.546875 144.945312 156.605469 144.976562 155.761719 C 145.027344 154.246094 144.644531 153.167969 144.132812 151.738281 C 143.253906 149.285156 143.277344 146.644531 143.640625 144.097656 C 144.175781 140.355469 145.921875 136.839844 146.921875 133.21875 C 147.296875 131.863281 145.660156 131.058594 144.679688 131.917969 Z M 192.628906 162.023438 C 192.167969 164.261719 191.367188 166.390625 190.664062 168.5625 C 190.101562 170.3125 189.375 172.570312 189.335938 174.402344 C 189.324219 174.863281 189.925781 175.289062 190.332031 174.976562 C 193.960938 172.207031 194.941406 166.621094 195.109375 162.355469 C 195.167969 160.941406 192.917969 160.621094 192.628906 162.023438 Z M 193.53125 227.128906 C 193.328125 227.445312 192.960938 227.414062 193.265625 227.402344 C 193.675781 227.386719 194.089844 227.570312 194.46875 227.707031 C 195.449219 228.054688 196.34375 228.78125 197.09375 229.476562 C 198.898438 231.144531 199.753906 233.347656 198.347656 235.527344 C 196.929688 237.722656 200.429688 239.746094 201.835938 237.566406 C 204.433594 233.539062 202.734375 228.996094 199.34375 226.074219 C 197.03125 224.082031 192.230469 221.636719 190.039062 225.089844 C 188.640625 227.296875 192.136719 229.320312 193.53125 227.128906 Z M 275.042969 119.503906 C 270.074219 119.773438 265.90625 122.882812 262.542969 126.386719 C 259.890625 129.152344 255.558594 135.511719 258.816406 139.121094 C 259.359375 139.726562 260.3125 139.636719 260.871094 139.121094 C 262.054688 138.027344 262.289062 136.59375 262.746094 135.085938 C 263.457031 132.746094 264.902344 130.796875 266.550781 129.03125 C 269.269531 126.121094 272.953125 124.308594 275.992188 121.792969 C 276.890625 121.050781 276.160156 119.445312 275.042969 119.503906 Z M 295.699219 172.214844 C 294.039062 173.726562 292.164062 174.964844 290.335938 176.265625 C 288.8125 177.355469 286.929688 178.738281 285.808594 180.230469 C 285.496094 180.644531 285.921875 181.230469 286.382812 181.230469 C 288.183594 181.226562 290.507812 180.089844 292.03125 179.160156 C 294.164062 177.859375 295.949219 175.949219 297.488281 174 C 298.476562 172.746094 296.933594 171.089844 295.699219 172.214844 Z M 257.875 225.324219 C 258.425781 225.117188 257.851562 225.328125 257.738281 225.269531 C 258.015625 225.414062 258.242188 225.777344 258.410156 226.023438 C 258.988281 226.871094 259.304688 227.835938 259.554688 228.816406 C 260.136719 231.070312 259.757812 233.8125 257.355469 234.753906 C 254.957031 235.691406 256 239.601562 258.429688 238.652344 C 262.945312 236.882812 264.328125 232.757812 263.554688 228.210938 C 263.074219 225.394531 260.53125 220.015625 256.800781 221.425781 C 254.386719 222.335938 255.429688 226.246094 257.875 225.324219 Z M 257.875 225.324219 " fill-opacity="1" fill-rule="nonzero"/><path fill="#be1931" d="M 130.707031 228.15625 C 130.5625 222.929688 125.40625 218.945312 122.617188 215.054688 C 119.179688 210.253906 123.398438 200.652344 124.078125 195.371094 C 125.152344 186.988281 124.351562 179.550781 120.6875 171.914062 C 115.359375 160.8125 104.96875 153.128906 93.109375 150.402344 C 74.351562 146.085938 53.609375 155.761719 43.480469 171.726562 C 33.101562 188.085938 35.546875 213.433594 53.390625 223.445312 C 53.398438 223.449219 53.402344 223.453125 53.410156 223.457031 C 62.292969 227.726562 75.628906 229.613281 79.730469 218.101562 C 81.292969 213.71875 78.871094 209.578125 76.429688 206.144531 C 70.757812 198.171875 63.535156 190.519531 71.792969 181.347656 C 76.050781 176.621094 84.921875 174.777344 89.035156 180.488281 C 92.792969 185.703125 92.136719 194 92.015625 200.066406 C 91.800781 210.726562 89.785156 221.445312 96.425781 230.582031 C 102.460938 238.882812 113.171875 245.339844 123.164062 240.179688 C 127.53125 237.917969 130.839844 233.074219 130.707031 228.15625 Z M 102.476562 231.433594 C 92.796875 222.140625 95.992188 208.957031 96.097656 196.902344 C 96.175781 188.265625 95.359375 175.921875 85.296875 173.222656 C 75.6875 170.644531 64.710938 179.3125 63.636719 188.832031 C 62.738281 196.8125 69.699219 203.632812 73.957031 209.617188 C 76.761719 213.5625 76.894531 218.058594 72.742188 221.171875 C 67.710938 224.941406 60.378906 222.339844 55.429688 219.953125 C 41.066406 211.894531 38.90625 193.886719 44.097656 179.558594 C 49.484375 164.695312 65.300781 155.160156 80.488281 153.644531 C 95.363281 152.15625 108.941406 159.640625 116.375 172.402344 C 121.578125 181.339844 120.976562 190.859375 119.085938 200.617188 C 118.105469 205.671875 116.375 211.183594 118.550781 216.125 C 121.054688 221.824219 129.503906 225.351562 125.472656 232.582031 C 119.953125 242.480469 108.472656 237.183594 102.476562 231.433594 Z M 137.375 240.351562 C 137.292969 240.359375 137.222656 240.382812 137.144531 240.402344 C 137.042969 240.40625 136.945312 240.40625 136.839844 240.421875 C 128.710938 241.808594 121.167969 248.167969 122.800781 257.167969 C 124.742188 267.847656 132.503906 274.804688 143.363281 272.835938 C 153.589844 270.984375 157.847656 261.039062 156.050781 251.539062 C 154.429688 242.984375 145.121094 239.460938 137.375 240.351562 Z M 143.417969 268.65625 C 134.914062 271.386719 129.003906 265.101562 126.925781 257.339844 C 124.972656 250.058594 131.449219 245.503906 137.707031 244.363281 C 143.03125 243.828125 148.375 245.15625 151.234375 250.054688 C 155.460938 257.285156 150.726562 266.308594 143.417969 268.65625 Z M 150.472656 111.421875 C 132.78125 120.542969 122.082031 144.96875 133.566406 162.671875 C 133.582031 162.695312 133.601562 162.714844 133.617188 162.738281 C 139.464844 170.582031 150.375 178.566406 159.355469 170.296875 C 162.375 167.519531 162.71875 163.21875 162.207031 159.429688 C 160.804688 149.066406 157.46875 137.726562 170.382812 133.769531 C 178.214844 131.367188 186.160156 136.488281 184.992188 144.828125 C 184.011719 151.832031 179.589844 158.453125 176.121094 164.457031 C 170.867188 173.542969 166.546875 181.011719 168.882812 191.671875 C 170.851562 200.667969 176.972656 209.558594 186.839844 210.023438 C 191.59375 210.25 196.4375 207.855469 199.226562 204.117188 C 202.199219 200.132812 200.0625 193.761719 199.117188 189.519531 C 197.714844 183.226562 203.0625 178.6875 206.664062 174.164062 C 210.945312 168.792969 214.453125 163.085938 216.246094 156.414062 C 219.535156 144.1875 215.246094 130.546875 207.375 121.078125 C 193.941406 104.917969 168.503906 102.125 150.472656 111.421875 Z M 213.039062 150.234375 C 212.746094 158.851562 208 166.042969 202.8125 172.558594 C 199.808594 176.328125 196.019531 180.085938 194.824219 184.898438 C 193.585938 189.886719 197.179688 195.074219 196.464844 200.171875 C 195.785156 205.042969 188.808594 206.402344 184.847656 205.808594 C 181.230469 205.265625 178.488281 202.417969 176.519531 199.5625 C 168.894531 188.527344 172.769531 178.347656 178.78125 167.925781 C 183.332031 160.039062 192.945312 146.734375 188.144531 137.058594 C 183.519531 127.734375 169.386719 127.144531 162.066406 133.527344 C 154.730469 139.925781 156.40625 148.15625 157.796875 156.941406 C 158.578125 161.863281 159.160156 167.027344 153.65625 169.28125 C 147.027344 171.996094 140.519531 165.300781 137.058594 160.632812 C 128.101562 146.828125 134.46875 129.882812 145.75 119.601562 C 157.757812 108.65625 176.792969 107.726562 191.167969 114.03125 C 205.707031 120.40625 213.574219 134.6875 213.039062 150.234375 Z M 199.667969 216.613281 C 192.636719 214.289062 184.964844 215.515625 180.679688 221.972656 C 175.316406 230.046875 178.175781 242.210938 186.429688 246.824219 C 195.964844 252.152344 205.628906 247.523438 210.273438 238.433594 C 215.097656 229 208.402344 220.042969 199.667969 216.613281 Z M 206.097656 237.734375 C 202.050781 245.652344 192.855469 247.070312 186.035156 241.773438 C 180.914062 237.792969 181.109375 227.777344 184.933594 222.921875 C 188.191406 218.792969 194.101562 219.027344 198.59375 220.511719 C 206.050781 223.4375 209.933594 230.230469 206.097656 237.734375 Z M 300.597656 108.679688 C 279.085938 100.042969 249.128906 113.183594 247.714844 138.007812 C 247.714844 138.035156 247.71875 138.058594 247.71875 138.082031 C 247.761719 147.339844 251.164062 158.554688 261.972656 159.332031 C 273.273438 160.144531 275.847656 143.183594 282.066406 137.050781 C 288.890625 130.328125 302.398438 138.496094 303.125 146.738281 C 303.695312 153.1875 295.140625 157.480469 290.484375 159.945312 C 281.628906 164.632812 269.414062 167.105469 262.972656 175.308594 C 257.78125 181.917969 254.457031 192.980469 257.886719 201.050781 C 261.332031 209.160156 273 214.460938 279.914062 207.363281 C 282.964844 204.234375 283.890625 199.523438 286.046875 195.832031 C 288.671875 191.332031 298.863281 190.597656 303.378906 189.210938 C 316.675781 185.125 326.054688 175.632812 330.363281 162.421875 C 337.839844 139.507812 321.222656 116.957031 300.597656 108.679688 Z M 312.972656 180.410156 C 307.191406 184.5 299.941406 186.035156 293.21875 187.839844 C 289.113281 188.945312 285.09375 190.191406 282.558594 193.792969 C 279.726562 197.8125 279.457031 204.429688 274.285156 206.445312 C 265.800781 209.75 260.5 199.25 260.671875 192.722656 C 261.003906 180.007812 269.570312 173.871094 280.027344 169.195312 C 288.589844 165.367188 302.363281 161.171875 306.199219 151.5 C 309.886719 142.199219 301.011719 132.457031 291.921875 131.3125 C 279.15625 129.710938 275.019531 139.117188 269.859375 149.003906 C 267.644531 153.25 264.765625 156.296875 259.644531 154.859375 C 252.902344 152.964844 251.773438 143.6875 251.757812 138.007812 C 252.785156 120.007812 270.964844 109.976562 287.394531 110.089844 C 303.746094 110.210938 319.039062 122.574219 325.203125 137.207031 C 331.578125 152.351562 326.414062 170.886719 312.972656 180.410156 Z M 250.335938 213.703125 C 240.199219 218.71875 236 230.765625 242.777344 240.085938 C 249.121094 248.8125 260.292969 248.398438 268.164062 242.027344 C 274.777344 236.679688 273.582031 226.992188 269.464844 220.59375 C 265.210938 214.664062 257.617188 210.097656 250.335938 213.703125 Z M 267.515625 236.542969 C 265.988281 239.425781 262.839844 241.007812 259.902344 242.027344 C 254.800781 243.796875 250.589844 242.421875 246.859375 238.699219 C 240.054688 231.910156 244.117188 222.0625 251.445312 217.652344 C 256.800781 214.429688 262.8125 218.222656 265.972656 222.628906 C 265.972656 222.632812 265.972656 222.632812 265.976562 222.632812 C 268.683594 226.839844 269.972656 231.910156 267.515625 236.542969 Z M 267.515625 236.542969 " fill-opacity="1" fill-rule="nonzero"/></svg>