<svg xmlns="http://www.w3.org/2000/svg" xmlns:xlink="http://www.w3.org/1999/xlink" width="500" zoomAndPan="magnify" viewBox="0 0 375 374.999991" height="500" preserveAspectRatio="xMidYMid meet" version="1.0"><defs><clipPath id="id1"><path d="M 63.375 322 L 311 322 L 311 337 L 63.375 337 Z M 63.375 322 " clip-rule="nonzero"/></clipPath><clipPath id="id2"><path d="M 121 31.019531 L 260 31.019531 L 260 337 L 121 337 Z M 121 31.019531 " clip-rule="nonzero"/></clipPath></defs><path fill="#2dc5e0" d="M 252.101562 119.007812 C 244.085938 119.007812 237.585938 125.511719 237.585938 133.539062 C 237.585938 141.5625 244.085938 148.066406 252.101562 148.066406 C 260.121094 148.066406 266.621094 141.5625 266.621094 133.539062 C 266.621094 125.511719 260.121094 119.007812 252.101562 119.007812 Z M 223.066406 133.539062 C 223.066406 117.488281 236.066406 104.476562 252.101562 104.476562 C 268.140625 104.476562 281.136719 117.488281 281.136719 133.539062 C 281.136719 149.585938 268.140625 162.597656 252.101562 162.597656 C 236.066406 162.597656 223.066406 149.585938 223.066406 133.539062 Z M 223.066406 133.539062 " fill-opacity="1" fill-rule="evenodd"/><path fill="#2dc5e0" d="M 252.101562 148.066406 C 256.113281 148.066406 259.363281 151.320312 259.363281 155.332031 L 259.363281 242.515625 C 259.363281 246.527344 256.113281 249.78125 252.101562 249.78125 C 248.09375 249.78125 244.84375 246.527344 244.84375 242.515625 L 244.84375 155.332031 C 244.84375 151.320312 248.09375 148.066406 252.101562 148.066406 Z M 252.101562 148.066406 " fill-opacity="1" fill-rule="evenodd"/><path fill="#2dc5e0" d="M 252.101562 235.25 C 254.257812 235.25 256.300781 236.207031 257.679688 237.863281 L 293.972656 281.453125 C 296.539062 284.535156 296.125 289.117188 293.042969 291.6875 C 289.964844 294.253906 285.386719 293.839844 282.820312 290.757812 L 252.101562 253.863281 L 221.386719 290.757812 C 218.820312 293.839844 214.242188 294.253906 211.164062 291.6875 C 208.082031 289.117188 207.667969 284.535156 210.234375 281.453125 L 246.527344 237.863281 C 247.90625 236.207031 249.949219 235.25 252.101562 235.25 Z M 252.101562 235.25 " fill-opacity="1" fill-rule="evenodd"/><g clip-path="url(#id1)"><path fill="#2dc5e0" d="M 63.375 329.695312 C 63.375 325.683594 66.625 322.429688 70.632812 322.429688 L 302.914062 322.429688 C 306.921875 322.429688 310.171875 325.683594 310.171875 329.695312 C 310.171875 333.707031 306.921875 336.960938 302.914062 336.960938 L 70.632812 336.960938 C 66.625 336.960938 63.375 333.707031 63.375 329.695312 Z M 63.375 329.695312 " fill-opacity="1" fill-rule="evenodd"/></g><g clip-path="url(#id2)"><path fill="#2dc5e0" d="M 121.445312 39.089844 C 121.445312 35.078125 124.695312 31.824219 128.703125 31.824219 L 252.101562 31.824219 C 256.113281 31.824219 259.363281 35.078125 259.363281 39.089844 L 259.363281 111.742188 C 259.363281 115.753906 256.113281 119.007812 252.101562 119.007812 C 248.09375 119.007812 244.84375 115.753906 244.84375 111.742188 L 244.84375 46.355469 L 135.960938 46.355469 L 135.960938 329.695312 C 135.960938 333.707031 132.710938 336.960938 128.703125 336.960938 C 124.695312 336.960938 121.445312 333.707031 121.445312 329.695312 Z M 121.445312 39.089844 " fill-opacity="1" fill-rule="evenodd"/></g><path fill="#2dc5e0" d="M 245.121094 182.398438 C 246.222656 178.539062 250.242188 176.304688 254.09375 177.40625 L 304.90625 191.9375 C 308.761719 193.039062 310.992188 197.0625 309.890625 200.921875 C 308.792969 204.777344 304.773438 207.011719 300.917969 205.910156 L 250.105469 191.378906 C 246.253906 190.277344 244.019531 186.257812 245.121094 182.398438 Z M 245.121094 182.398438 " fill-opacity="1" fill-rule="evenodd"/></svg>