<svg xmlns="http://www.w3.org/2000/svg" xmlns:xlink="http://www.w3.org/1999/xlink" width="500" zoomAndPan="magnify" viewBox="0 0 375 374.999991" height="500" preserveAspectRatio="xMidYMid meet" version="1.0"><defs><clipPath id="id1"><path d="M 136 109 L 356.085938 109 L 356.085938 374 L 136 374 Z M 136 109 " clip-rule="nonzero"/></clipPath><clipPath id="id2"><path d="M 18.585938 5 L 239 5 L 239 270 L 18.585938 270 Z M 18.585938 5 " clip-rule="nonzero"/></clipPath><clipPath id="id3"><path d="M 18.585938 5 L 188 5 L 188 202 L 18.585938 202 Z M 18.585938 5 " clip-rule="nonzero"/></clipPath></defs><g clip-path="url(#id1)"><path fill="#e88793" d="M 305.230469 223.226562 L 305.230469 109.472656 L 206.421875 109.472656 L 238.308594 155.644531 L 187.390625 155.644531 C 187.316406 155.644531 187.382812 154.511719 187.382812 223.226562 L 136.460938 223.226562 L 236.632812 368.269531 C 241.308594 375.035156 251.300781 375.035156 255.976562 368.269531 L 356.152344 223.226562 Z M 305.230469 223.226562 " fill-opacity="1" fill-rule="nonzero"/></g><g clip-path="url(#id2)"><path fill="#91c656" d="M 168.347656 269.398438 L 136.460938 223.226562 L 187.382812 223.226562 C 187.453125 223.226562 187.390625 224.359375 187.390625 155.644531 L 238.308594 155.644531 L 138.132812 10.605469 C 133.460938 3.835938 123.46875 3.835938 118.792969 10.605469 L 18.617188 155.644531 L 69.539062 155.644531 L 69.539062 269.398438 Z M 168.347656 269.398438 " fill-opacity="1" fill-rule="nonzero"/></g><g clip-path="url(#id3)"><path fill="#9bd65e" d="M 118.792969 10.605469 L 18.617188 155.644531 L 69.539062 155.644531 L 69.539062 201.605469 C 78.957031 197.097656 89.582031 189.410156 101.585938 177.710938 C 137.949219 142.25 166.125 109.042969 187.09375 81.484375 L 138.132812 10.605469 C 133.460938 3.835938 123.46875 3.835938 118.792969 10.605469 Z M 118.792969 10.605469 " fill-opacity="1" fill-rule="nonzero"/></g><path fill="#aced70" d="M 118.792969 10.605469 L 61.933594 92.929688 C 74.824219 97.859375 87.21875 98.480469 97.28125 91.296875 C 120.945312 74.414062 151.445312 64.941406 172.277344 60.035156 L 138.132812 10.605469 C 133.460938 3.835938 123.46875 3.835938 118.792969 10.605469 Z M 118.792969 10.605469 " fill-opacity="1" fill-rule="nonzero"/><path fill="#fc93a0" d="M 254.5625 206.011719 C 228.628906 183.371094 205.84375 178.371094 187.382812 181.121094 L 187.382812 223.226562 L 136.460938 223.226562 L 236.636719 368.269531 C 241.308594 375.035156 251.304688 375.035156 255.976562 368.269531 L 278.375 335.835938 C 280.707031 298.535156 289.367188 236.398438 254.5625 206.011719 Z M 254.5625 206.011719 " fill-opacity="1" fill-rule="nonzero"/><path fill="#fda5b7" d="M 164.054688 263.179688 L 236.636719 368.269531 C 241.308594 375.035156 251.304688 375.035156 255.976562 368.269531 L 273.777344 342.5 C 248.625 325.09375 221.320312 302.988281 207.527344 281.355469 C 198.074219 266.527344 181.796875 262.210938 164.054688 263.179688 Z M 164.054688 263.179688 " fill-opacity="1" fill-rule="nonzero"/></svg>