<svg xmlns="http://www.w3.org/2000/svg" xmlns:xlink="http://www.w3.org/1999/xlink" width="500" zoomAndPan="magnify" viewBox="0 0 375 374.999991" height="500" preserveAspectRatio="xMidYMid meet" version="1.0"><defs><clipPath id="id1"><path d="M 27.5625 62.96875 L 337.3125 62.96875 L 337.3125 331.46875 L 27.5625 331.46875 Z M 27.5625 62.96875 " clip-rule="nonzero"/></clipPath><clipPath id="id2"><path d="M 101 84.585938 L 264 84.585938 L 264 297 L 101 297 Z M 101 84.585938 " clip-rule="nonzero"/></clipPath></defs><g clip-path="url(#id1)"><path fill="#1d1e24" d="M 105.046875 331.46875 L 27.660156 197.21875 L 105.046875 62.96875 L 259.828125 62.96875 L 337.21875 197.21875 L 259.828125 331.46875 Z M 105.046875 331.46875 " fill-opacity="1" fill-rule="nonzero"/></g><g clip-path="url(#id2)"><path fill="#ffbd59" d="M 197.003906 84.585938 C 208.089844 106.714844 157.304688 120.355469 152.578125 138.777344 C 148.253906 155.710938 182.722656 175.394531 182.753906 175.394531 C 177.511719 168.390625 173.722656 162.59375 168.460938 151.6875 C 159.574219 133.242188 220.980469 114.21875 197.003906 84.585938 Z M 232.828125 114.855469 C 232.828125 114.855469 194.53125 117.183594 192.574219 140.550781 C 191.707031 150.953125 202.636719 156.503906 202.949219 164.082031 C 203.210938 170.257812 196.414062 175.394531 196.414062 175.394531 C 196.414062 175.394531 207.640625 173.671875 211.492188 164.238281 C 215.753906 153.777344 204.304688 146.140625 205.585938 137.753906 C 206.804688 129.742188 232.828125 114.855469 232.828125 114.855469 Z M 163.933594 175.414062 C 163.933594 175.414062 121.96875 174.804688 121.96875 186.902344 C 121.96875 192.671875 133.660156 195.878906 149.820312 197.050781 C 143.269531 197.335938 134.054688 202.492188 134.054688 207.535156 C 134.054688 217.96875 183.46875 226 220.054688 210.765625 L 207.398438 202.507812 C 182.707031 210.898438 137.324219 208.242188 150.273438 197.089844 C 169.5 198.425781 195.015625 196.867188 216.195312 192.675781 C 216.195312 192.675781 225.117188 187.625 227.90625 184.910156 C 202.179688 190.238281 145.019531 188.695312 145.019531 184.0625 C 145.019531 179.796875 163.933594 175.414062 163.933594 175.414062 Z M 248.890625 175.414062 C 244.277344 175.210938 239.226562 176.746094 234.875 179.964844 C 243.957031 177.925781 251.625 183.710938 251.625 190.390625 C 251.625 205.402344 230.820312 219.632812 230.820312 219.632812 C 230.820312 219.632812 263.0625 215.789062 263.0625 191.097656 C 263.0625 180.902344 256.578125 175.746094 248.890625 175.414062 Z M 159.703125 219.199219 C 150.671875 219.199219 144.820312 225.476562 144.820312 230.078125 C 144.820312 244.316406 198.707031 244.8125 220.074219 230.335938 L 206.492188 221.566406 C 190.539062 229.144531 150.480469 230.179688 159.703125 219.199219 Z M 120.75 242.925781 C 107.761719 242.507812 101.8125 249.328125 101.8125 254.890625 C 101.8125 284.472656 242.90625 283.039062 242.90625 252.820312 C 242.90625 247.796875 237.441406 245.40625 235.464844 244.265625 C 246.984375 273.164062 118.664062 271.183594 118.664062 254.121094 C 118.664062 250.234375 125.445312 246.285156 134.09375 248.089844 C 134.09375 248.089844 130.933594 244.324219 126.753906 243.578125 C 124.605469 243.199219 122.605469 242.988281 120.75 242.925781 Z M 263.0625 263.246094 C 240.878906 285.734375 179.824219 299.386719 123.308594 285.511719 C 180.085938 309.335938 262.789062 290.839844 263.0625 263.246094 Z M 263.0625 263.246094 " fill-opacity="1" fill-rule="nonzero"/></g></svg>