<svg xmlns="http://www.w3.org/2000/svg" xmlns:xlink="http://www.w3.org/1999/xlink" width="500" zoomAndPan="magnify" viewBox="0 0 375 374.999991" height="500" preserveAspectRatio="xMidYMid meet" version="1.0"><defs><clipPath id="id1"><path d="M 27.5625 62.96875 L 337.3125 62.96875 L 337.3125 331.46875 L 27.5625 331.46875 Z M 27.5625 62.96875 " clip-rule="nonzero"/></clipPath><clipPath id="id2"><path d="M 88.574219 157 L 198 157 L 198 257 L 88.574219 257 Z M 88.574219 157 " clip-rule="nonzero"/></clipPath><clipPath id="id3"><path d="M 177 137 L 286.574219 137 L 286.574219 237 L 177 237 Z M 177 137 " clip-rule="nonzero"/></clipPath><clipPath id="id4"><path d="M 138 98.160156 L 238 98.160156 L 238 296.160156 L 138 296.160156 Z M 138 98.160156 " clip-rule="nonzero"/></clipPath></defs><g clip-path="url(#id1)"><path fill="#1d1e24" d="M 105.046875 331.46875 L 27.660156 197.21875 L 105.046875 62.96875 L 259.828125 62.96875 L 337.21875 197.21875 L 259.828125 331.46875 Z M 105.046875 331.46875 " fill-opacity="1" fill-rule="nonzero"/></g><g clip-path="url(#id2)"><path fill="#ffbd59" d="M 147.972656 256.558594 L 118.273438 256.558594 C 117.300781 256.558594 116.332031 256.507812 115.363281 256.414062 C 114.394531 256.316406 113.433594 256.175781 112.480469 255.984375 C 111.527344 255.792969 110.585938 255.558594 109.65625 255.273438 C 108.722656 254.992188 107.808594 254.664062 106.910156 254.289062 C 106.015625 253.917969 105.136719 253.503906 104.277344 253.042969 C 103.421875 252.585938 102.589844 252.085938 101.78125 251.542969 C 100.972656 251.003906 100.191406 250.425781 99.441406 249.808594 C 98.6875 249.191406 97.96875 248.539062 97.28125 247.851562 C 96.59375 247.164062 95.941406 246.445312 95.324219 245.691406 C 94.707031 244.941406 94.128906 244.160156 93.585938 243.351562 C 93.046875 242.542969 92.546875 241.710938 92.089844 240.855469 C 91.628906 239.996094 91.214844 239.117188 90.839844 238.21875 C 90.46875 237.320312 90.140625 236.40625 89.859375 235.476562 C 89.574219 234.546875 89.339844 233.605469 89.148438 232.652344 C 88.957031 231.699219 88.816406 230.738281 88.71875 229.769531 C 88.621094 228.800781 88.574219 227.832031 88.574219 226.859375 L 88.574219 187.257812 C 88.574219 186.285156 88.621094 185.316406 88.71875 184.347656 C 88.816406 183.382812 88.957031 182.421875 89.148438 181.46875 C 89.339844 180.511719 89.574219 179.570312 89.859375 178.640625 C 90.140625 177.710938 90.46875 176.796875 90.839844 175.898438 C 91.214844 175 91.628906 174.121094 92.089844 173.265625 C 92.546875 172.40625 93.046875 171.574219 93.585938 170.765625 C 94.128906 169.957031 94.707031 169.175781 95.324219 168.425781 C 95.941406 167.675781 96.59375 166.953125 97.28125 166.265625 C 97.96875 165.578125 98.6875 164.925781 99.441406 164.308594 C 100.191406 163.691406 100.972656 163.113281 101.78125 162.574219 C 102.589844 162.035156 103.421875 161.535156 104.277344 161.074219 C 105.136719 160.617188 106.015625 160.199219 106.910156 159.828125 C 107.808594 159.457031 108.722656 159.128906 109.65625 158.84375 C 110.585938 158.5625 111.527344 158.324219 112.480469 158.136719 C 113.433594 157.945312 114.394531 157.800781 115.363281 157.703125 C 116.332031 157.609375 117.300781 157.558594 118.273438 157.558594 L 187.574219 157.558594 C 188.222656 157.558594 188.867188 157.621094 189.503906 157.75 C 190.140625 157.875 190.761719 158.0625 191.363281 158.3125 C 191.960938 158.5625 192.53125 158.867188 193.074219 159.226562 C 193.613281 159.589844 194.113281 160 194.574219 160.457031 C 195.03125 160.917969 195.445312 161.417969 195.804688 161.960938 C 196.164062 162.5 196.472656 163.070312 196.71875 163.671875 C 196.96875 164.269531 197.15625 164.890625 197.28125 165.527344 C 197.410156 166.164062 197.472656 166.808594 197.472656 167.460938 C 197.472656 168.109375 197.410156 168.753906 197.28125 169.390625 C 197.15625 170.027344 196.96875 170.648438 196.71875 171.246094 C 196.472656 171.847656 196.164062 172.417969 195.804688 172.960938 C 195.445312 173.5 195.03125 174 194.574219 174.460938 C 194.113281 174.917969 193.613281 175.328125 193.074219 175.691406 C 192.53125 176.050781 191.960938 176.355469 191.363281 176.605469 C 190.761719 176.855469 190.140625 177.042969 189.503906 177.167969 C 188.867188 177.296875 188.222656 177.359375 187.574219 177.359375 L 118.273438 177.359375 C 117.621094 177.359375 116.980469 177.421875 116.339844 177.550781 C 115.703125 177.675781 115.085938 177.863281 114.484375 178.113281 C 113.882812 178.363281 113.3125 178.667969 112.773438 179.027344 C 112.234375 179.390625 111.730469 179.800781 111.273438 180.257812 C 110.8125 180.71875 110.402344 181.21875 110.042969 181.757812 C 109.679688 182.300781 109.375 182.871094 109.125 183.472656 C 108.878906 184.070312 108.691406 184.691406 108.5625 185.328125 C 108.4375 185.964844 108.375 186.609375 108.375 187.257812 L 108.375 226.859375 C 108.375 227.507812 108.4375 228.152344 108.5625 228.789062 C 108.691406 229.429688 108.878906 230.046875 109.125 230.648438 C 109.375 231.25 109.679688 231.820312 110.042969 232.359375 C 110.402344 232.898438 110.8125 233.398438 111.273438 233.859375 C 111.730469 234.320312 112.234375 234.730469 112.773438 235.089844 C 113.3125 235.453125 113.882812 235.757812 114.484375 236.003906 C 115.085938 236.253906 115.703125 236.441406 116.339844 236.570312 C 116.980469 236.695312 117.621094 236.757812 118.273438 236.757812 L 147.972656 236.757812 C 148.625 236.757812 149.265625 236.824219 149.90625 236.949219 C 150.542969 237.078125 151.160156 237.265625 151.761719 237.511719 C 152.363281 237.761719 152.933594 238.066406 153.472656 238.425781 C 154.015625 238.789062 154.515625 239.199219 154.972656 239.660156 C 155.433594 240.117188 155.84375 240.617188 156.203125 241.160156 C 156.566406 241.699219 156.871094 242.269531 157.121094 242.871094 C 157.367188 243.472656 157.554688 244.089844 157.683594 244.726562 C 157.808594 245.367188 157.875 246.007812 157.875 246.660156 C 157.875 247.308594 157.808594 247.953125 157.683594 248.589844 C 157.554688 249.226562 157.367188 249.847656 157.121094 250.449219 C 156.871094 251.046875 156.566406 251.617188 156.203125 252.160156 C 155.84375 252.699219 155.433594 253.199219 154.972656 253.660156 C 154.515625 254.121094 154.015625 254.53125 153.472656 254.890625 C 152.933594 255.25 152.363281 255.558594 151.761719 255.804688 C 151.160156 256.054688 150.542969 256.242188 149.90625 256.367188 C 149.265625 256.496094 148.625 256.558594 147.972656 256.558594 Z M 147.972656 256.558594 " fill-opacity="1" fill-rule="nonzero"/></g><g clip-path="url(#id3)"><path fill="#ffbd59" d="M 256.875 236.757812 L 187.574219 236.757812 C 186.921875 236.757812 186.277344 236.695312 185.640625 236.570312 C 185.003906 236.441406 184.386719 236.253906 183.785156 236.003906 C 183.183594 235.757812 182.613281 235.453125 182.074219 235.089844 C 181.53125 234.730469 181.03125 234.320312 180.574219 233.859375 C 180.113281 233.398438 179.703125 232.898438 179.339844 232.359375 C 178.980469 231.820312 178.675781 231.25 178.425781 230.648438 C 178.179688 230.046875 177.988281 229.429688 177.863281 228.789062 C 177.738281 228.152344 177.671875 227.507812 177.671875 226.859375 C 177.671875 226.210938 177.738281 225.566406 177.863281 224.929688 C 177.988281 224.289062 178.179688 223.671875 178.425781 223.070312 C 178.675781 222.46875 178.980469 221.898438 179.339844 221.359375 C 179.703125 220.820312 180.113281 220.320312 180.574219 219.859375 C 181.03125 219.398438 181.53125 218.988281 182.074219 218.628906 C 182.613281 218.265625 183.183594 217.960938 183.785156 217.710938 C 184.386719 217.464844 185.003906 217.277344 185.640625 217.148438 C 186.277344 217.023438 186.921875 216.960938 187.574219 216.960938 L 256.875 216.960938 C 257.523438 216.960938 258.167969 216.894531 258.804688 216.769531 C 259.441406 216.640625 260.0625 216.453125 260.660156 216.207031 C 261.261719 215.957031 261.832031 215.652344 262.375 215.289062 C 262.914062 214.929688 263.414062 214.519531 263.875 214.058594 C 264.332031 213.601562 264.742188 213.101562 265.105469 212.558594 C 265.464844 212.019531 265.769531 211.449219 266.019531 210.847656 C 266.269531 210.246094 266.457031 209.628906 266.582031 208.992188 C 266.710938 208.351562 266.773438 207.710938 266.773438 207.058594 L 266.773438 167.460938 C 266.773438 166.808594 266.710938 166.164062 266.582031 165.527344 C 266.457031 164.890625 266.269531 164.269531 266.019531 163.671875 C 265.769531 163.070312 265.464844 162.5 265.105469 161.960938 C 264.742188 161.417969 264.332031 160.917969 263.875 160.457031 C 263.414062 160 262.914062 159.589844 262.375 159.226562 C 261.832031 158.867188 261.261719 158.5625 260.660156 158.3125 C 260.0625 158.0625 259.441406 157.875 258.804688 157.75 C 258.167969 157.621094 257.523438 157.558594 256.875 157.558594 L 227.171875 157.558594 C 226.523438 157.558594 225.878906 157.496094 225.242188 157.367188 C 224.605469 157.242188 223.984375 157.054688 223.382812 156.804688 C 222.785156 156.558594 222.214844 156.253906 221.671875 155.890625 C 221.132812 155.53125 220.632812 155.121094 220.171875 154.660156 C 219.714844 154.199219 219.300781 153.699219 218.941406 153.160156 C 218.582031 152.617188 218.277344 152.046875 218.027344 151.449219 C 217.777344 150.847656 217.589844 150.226562 217.464844 149.589844 C 217.335938 148.953125 217.273438 148.308594 217.273438 147.660156 C 217.273438 147.007812 217.335938 146.367188 217.464844 145.726562 C 217.589844 145.089844 217.777344 144.472656 218.027344 143.871094 C 218.277344 143.269531 218.582031 142.699219 218.941406 142.160156 C 219.300781 141.617188 219.714844 141.117188 220.171875 140.660156 C 220.632812 140.199219 221.132812 139.789062 221.671875 139.429688 C 222.214844 139.066406 222.785156 138.761719 223.382812 138.511719 C 223.984375 138.265625 224.605469 138.078125 225.242188 137.949219 C 225.878906 137.824219 226.523438 137.757812 227.171875 137.757812 L 256.875 137.757812 C 257.84375 137.761719 258.816406 137.808594 259.785156 137.90625 C 260.75 138 261.710938 138.144531 262.664062 138.335938 C 263.617188 138.523438 264.5625 138.761719 265.492188 139.042969 C 266.421875 139.328125 267.335938 139.65625 268.234375 140.027344 C 269.132812 140.402344 270.011719 140.816406 270.867188 141.273438 C 271.726562 141.734375 272.558594 142.234375 273.367188 142.773438 C 274.175781 143.3125 274.953125 143.894531 275.707031 144.511719 C 276.457031 145.128906 277.179688 145.777344 277.867188 146.46875 C 278.554688 147.15625 279.207031 147.875 279.824219 148.625 C 280.4375 149.378906 281.019531 150.15625 281.558594 150.964844 C 282.097656 151.773438 282.597656 152.605469 283.058594 153.464844 C 283.515625 154.320312 283.933594 155.199219 284.304688 156.097656 C 284.675781 156.996094 285.003906 157.910156 285.289062 158.839844 C 285.570312 159.773438 285.808594 160.714844 285.996094 161.667969 C 286.1875 162.621094 286.332031 163.582031 286.425781 164.550781 C 286.523438 165.515625 286.570312 166.488281 286.574219 167.460938 L 286.574219 207.058594 C 286.570312 208.03125 286.523438 209 286.425781 209.96875 C 286.332031 210.9375 286.1875 211.898438 285.996094 212.851562 C 285.808594 213.804688 285.570312 214.746094 285.289062 215.675781 C 285.003906 216.609375 284.675781 217.523438 284.304688 218.421875 C 283.933594 219.320312 283.515625 220.195312 283.058594 221.054688 C 282.597656 221.910156 282.097656 222.746094 281.558594 223.550781 C 281.019531 224.359375 280.4375 225.140625 279.824219 225.894531 C 279.207031 226.644531 278.554688 227.363281 277.867188 228.050781 C 277.179688 228.738281 276.457031 229.390625 275.707031 230.007812 C 274.953125 230.625 274.175781 231.203125 273.367188 231.746094 C 272.558594 232.285156 271.726562 232.785156 270.867188 233.242188 C 270.011719 233.703125 269.132812 234.117188 268.234375 234.492188 C 267.335938 234.863281 266.421875 235.191406 265.492188 235.472656 C 264.5625 235.757812 263.617188 235.992188 262.664062 236.183594 C 261.710938 236.375 260.75 236.515625 259.785156 236.613281 C 258.816406 236.710938 257.84375 236.757812 256.875 236.757812 Z M 256.875 236.757812 " fill-opacity="1" fill-rule="nonzero"/></g><g clip-path="url(#id4)"><path fill="#ffbd59" d="M 207.375 296.160156 L 167.773438 296.160156 C 166.800781 296.160156 165.832031 296.109375 164.863281 296.011719 C 163.894531 295.917969 162.933594 295.773438 161.980469 295.582031 C 161.027344 295.394531 160.085938 295.15625 159.15625 294.875 C 158.222656 294.589844 157.308594 294.261719 156.410156 293.890625 C 155.515625 293.519531 154.636719 293.101562 153.777344 292.644531 C 152.921875 292.183594 152.089844 291.683594 151.28125 291.144531 C 150.472656 290.605469 149.691406 290.027344 148.941406 289.410156 C 148.1875 288.792969 147.46875 288.140625 146.78125 287.453125 C 146.09375 286.765625 145.441406 286.042969 144.824219 285.292969 C 144.207031 284.542969 143.628906 283.761719 143.085938 282.953125 C 142.546875 282.144531 142.046875 281.3125 141.589844 280.453125 C 141.128906 279.597656 140.714844 278.71875 140.339844 277.820312 C 139.96875 276.921875 139.640625 276.007812 139.359375 275.078125 C 139.074219 274.148438 138.839844 273.203125 138.648438 272.25 C 138.457031 271.296875 138.316406 270.335938 138.21875 269.371094 C 138.121094 268.402344 138.074219 267.433594 138.074219 266.460938 L 138.074219 216.960938 C 138.074219 215.988281 138.121094 215.015625 138.21875 214.050781 C 138.316406 213.082031 138.457031 212.121094 138.648438 211.167969 C 138.839844 210.214844 139.074219 209.273438 139.359375 208.339844 C 139.640625 207.410156 139.96875 206.496094 140.339844 205.597656 C 140.714844 204.699219 141.128906 203.820312 141.589844 202.964844 C 142.046875 202.105469 142.546875 201.273438 143.085938 200.464844 C 143.628906 199.65625 144.207031 198.878906 144.824219 198.125 C 145.441406 197.375 146.09375 196.65625 146.78125 195.96875 C 147.46875 195.277344 148.1875 194.628906 148.941406 194.011719 C 149.691406 193.394531 150.472656 192.8125 151.28125 192.273438 C 152.089844 191.734375 152.921875 191.234375 153.777344 190.773438 C 154.636719 190.316406 155.515625 189.902344 156.410156 189.527344 C 157.308594 189.15625 158.222656 188.828125 159.15625 188.542969 C 160.085938 188.261719 161.027344 188.023438 161.980469 187.835938 C 162.933594 187.644531 163.894531 187.5 164.863281 187.40625 C 165.832031 187.308594 166.800781 187.261719 167.773438 187.257812 L 207.375 187.257812 C 208.023438 187.257812 208.667969 187.195312 209.304688 187.070312 C 209.941406 186.941406 210.5625 186.753906 211.160156 186.503906 C 211.761719 186.257812 212.332031 185.953125 212.875 185.589844 C 213.414062 185.230469 213.914062 184.820312 214.375 184.359375 C 214.832031 183.898438 215.242188 183.398438 215.605469 182.859375 C 215.964844 182.320312 216.269531 181.75 216.519531 181.148438 C 216.769531 180.546875 216.957031 179.929688 217.082031 179.289062 C 217.210938 178.652344 217.273438 178.007812 217.273438 177.359375 L 217.273438 127.859375 C 217.273438 127.210938 217.210938 126.566406 217.082031 125.929688 C 216.957031 125.289062 216.769531 124.671875 216.519531 124.070312 C 216.269531 123.46875 215.964844 122.898438 215.605469 122.359375 C 215.242188 121.820312 214.832031 121.320312 214.375 120.859375 C 213.914062 120.398438 213.414062 119.988281 212.875 119.628906 C 212.332031 119.265625 211.761719 118.960938 211.160156 118.710938 C 210.5625 118.464844 209.941406 118.277344 209.304688 118.148438 C 208.667969 118.023438 208.023438 117.960938 207.375 117.960938 L 167.773438 117.960938 C 167.121094 117.960938 166.480469 118.023438 165.839844 118.148438 C 165.203125 118.277344 164.585938 118.464844 163.984375 118.710938 C 163.382812 118.960938 162.8125 119.265625 162.273438 119.628906 C 161.734375 119.988281 161.230469 120.398438 160.773438 120.859375 C 160.3125 121.320312 159.902344 121.820312 159.542969 122.359375 C 159.179688 122.898438 158.875 123.46875 158.625 124.070312 C 158.378906 124.671875 158.191406 125.289062 158.0625 125.929688 C 157.9375 126.566406 157.875 127.210938 157.875 127.859375 L 157.875 167.460938 C 157.875 168.109375 157.808594 168.753906 157.683594 169.390625 C 157.554688 170.027344 157.367188 170.648438 157.121094 171.246094 C 156.871094 171.847656 156.566406 172.417969 156.203125 172.960938 C 155.84375 173.5 155.433594 174 154.972656 174.460938 C 154.515625 174.917969 154.015625 175.328125 153.472656 175.691406 C 152.933594 176.050781 152.363281 176.355469 151.761719 176.605469 C 151.160156 176.855469 150.542969 177.042969 149.90625 177.167969 C 149.265625 177.296875 148.625 177.359375 147.972656 177.359375 C 147.324219 177.359375 146.679688 177.296875 146.042969 177.167969 C 145.402344 177.042969 144.785156 176.855469 144.183594 176.605469 C 143.582031 176.355469 143.011719 176.050781 142.472656 175.691406 C 141.933594 175.328125 141.433594 174.917969 140.972656 174.460938 C 140.511719 174 140.101562 173.5 139.742188 172.960938 C 139.378906 172.417969 139.074219 171.847656 138.828125 171.246094 C 138.578125 170.648438 138.390625 170.027344 138.261719 169.390625 C 138.136719 168.753906 138.074219 168.109375 138.074219 167.460938 L 138.074219 127.859375 C 138.074219 126.886719 138.121094 125.917969 138.21875 124.949219 C 138.316406 123.980469 138.457031 123.019531 138.648438 122.066406 C 138.839844 121.113281 139.074219 120.171875 139.359375 119.242188 C 139.640625 118.3125 139.96875 117.394531 140.339844 116.5 C 140.714844 115.601562 141.128906 114.722656 141.589844 113.863281 C 142.046875 113.007812 142.546875 112.175781 143.085938 111.367188 C 143.628906 110.558594 144.207031 109.777344 144.824219 109.027344 C 145.441406 108.273438 146.09375 107.554688 146.78125 106.867188 C 147.46875 106.179688 148.1875 105.527344 148.941406 104.910156 C 149.691406 104.292969 150.472656 103.714844 151.28125 103.171875 C 152.089844 102.632812 152.921875 102.132812 153.777344 101.675781 C 154.636719 101.214844 155.515625 100.800781 156.410156 100.429688 C 157.308594 100.054688 158.222656 99.726562 159.15625 99.445312 C 160.085938 99.160156 161.027344 98.925781 161.980469 98.734375 C 162.933594 98.542969 163.894531 98.402344 164.863281 98.304688 C 165.832031 98.207031 166.800781 98.160156 167.773438 98.160156 L 207.375 98.160156 C 208.34375 98.160156 209.316406 98.207031 210.285156 98.304688 C 211.25 98.402344 212.210938 98.542969 213.164062 98.734375 C 214.117188 98.925781 215.0625 99.160156 215.992188 99.445312 C 216.921875 99.726562 217.835938 100.054688 218.734375 100.429688 C 219.632812 100.800781 220.511719 101.214844 221.367188 101.675781 C 222.226562 102.132812 223.058594 102.632812 223.867188 103.171875 C 224.675781 103.714844 225.453125 104.292969 226.207031 104.910156 C 226.957031 105.527344 227.679688 106.179688 228.367188 106.867188 C 229.054688 107.554688 229.707031 108.273438 230.324219 109.027344 C 230.9375 109.777344 231.519531 110.558594 232.058594 111.367188 C 232.597656 112.175781 233.097656 113.007812 233.558594 113.863281 C 234.015625 114.722656 234.433594 115.601562 234.804688 116.5 C 235.175781 117.394531 235.503906 118.3125 235.789062 119.242188 C 236.070312 120.171875 236.308594 121.113281 236.496094 122.066406 C 236.6875 123.019531 236.832031 123.980469 236.925781 124.949219 C 237.023438 125.917969 237.070312 126.886719 237.074219 127.859375 L 237.074219 177.359375 C 237.070312 178.332031 237.023438 179.300781 236.925781 180.269531 C 236.832031 181.238281 236.6875 182.199219 236.496094 183.152344 C 236.308594 184.105469 236.070312 185.046875 235.789062 185.976562 C 235.503906 186.90625 235.175781 187.820312 234.804688 188.71875 C 234.433594 189.617188 234.015625 190.496094 233.558594 191.355469 C 233.097656 192.210938 232.597656 193.042969 232.058594 193.851562 C 231.519531 194.660156 230.9375 195.441406 230.324219 196.191406 C 229.707031 196.945312 229.054688 197.664062 228.367188 198.351562 C 227.679688 199.039062 226.957031 199.691406 226.207031 200.308594 C 225.453125 200.925781 224.675781 201.503906 223.867188 202.042969 C 223.058594 202.585938 222.226562 203.085938 221.367188 203.542969 C 220.511719 204.003906 219.632812 204.417969 218.734375 204.789062 C 217.835938 205.164062 216.921875 205.492188 215.992188 205.773438 C 215.0625 206.054688 214.117188 206.292969 213.164062 206.484375 C 212.210938 206.675781 211.25 206.816406 210.285156 206.914062 C 209.316406 207.007812 208.34375 207.058594 207.375 207.058594 L 167.773438 207.058594 C 167.121094 207.058594 166.480469 207.121094 165.839844 207.25 C 165.203125 207.375 164.585938 207.5625 163.984375 207.8125 C 163.382812 208.0625 162.8125 208.367188 162.273438 208.726562 C 161.734375 209.089844 161.230469 209.5 160.773438 209.957031 C 160.3125 210.417969 159.902344 210.917969 159.542969 211.460938 C 159.179688 212 158.875 212.570312 158.625 213.171875 C 158.378906 213.769531 158.191406 214.390625 158.0625 215.027344 C 157.9375 215.664062 157.875 216.308594 157.875 216.960938 L 157.875 266.460938 C 157.875 267.109375 157.9375 267.753906 158.0625 268.390625 C 158.191406 269.027344 158.378906 269.648438 158.625 270.246094 C 158.875 270.847656 159.179688 271.417969 159.542969 271.960938 C 159.902344 272.5 160.3125 273 160.773438 273.460938 C 161.230469 273.917969 161.734375 274.328125 162.273438 274.691406 C 162.8125 275.050781 163.382812 275.355469 163.984375 275.605469 C 164.585938 275.855469 165.203125 276.042969 165.839844 276.167969 C 166.480469 276.296875 167.121094 276.359375 167.773438 276.359375 L 207.375 276.359375 C 208.023438 276.359375 208.667969 276.296875 209.304688 276.167969 C 209.941406 276.042969 210.5625 275.855469 211.160156 275.605469 C 211.761719 275.355469 212.332031 275.050781 212.875 274.691406 C 213.414062 274.328125 213.914062 273.917969 214.375 273.460938 C 214.832031 273 215.242188 272.5 215.605469 271.960938 C 215.964844 271.417969 216.269531 270.847656 216.519531 270.246094 C 216.769531 269.648438 216.957031 269.027344 217.082031 268.390625 C 217.210938 267.753906 217.273438 267.109375 217.273438 266.460938 L 217.273438 226.859375 C 217.273438 226.210938 217.335938 225.566406 217.464844 224.929688 C 217.589844 224.289062 217.777344 223.671875 218.027344 223.070312 C 218.277344 222.46875 218.582031 221.898438 218.941406 221.359375 C 219.300781 220.820312 219.714844 220.320312 220.171875 219.859375 C 220.632812 219.398438 221.132812 218.988281 221.671875 218.628906 C 222.214844 218.265625 222.785156 217.960938 223.382812 217.710938 C 223.984375 217.464844 224.605469 217.277344 225.242188 217.148438 C 225.878906 217.023438 226.523438 216.960938 227.171875 216.960938 C 227.824219 216.960938 228.46875 217.023438 229.105469 217.148438 C 229.742188 217.277344 230.359375 217.464844 230.960938 217.710938 C 231.5625 217.960938 232.132812 218.265625 232.671875 218.628906 C 233.214844 218.988281 233.714844 219.398438 234.171875 219.859375 C 234.632812 220.320312 235.042969 220.820312 235.40625 221.359375 C 235.765625 221.898438 236.070312 222.46875 236.320312 223.070312 C 236.566406 223.671875 236.757812 224.289062 236.882812 224.929688 C 237.007812 225.566406 237.074219 226.210938 237.074219 226.859375 L 237.074219 266.460938 C 237.070312 267.433594 237.023438 268.402344 236.925781 269.371094 C 236.832031 270.335938 236.6875 271.296875 236.496094 272.25 C 236.308594 273.203125 236.070312 274.148438 235.789062 275.078125 C 235.503906 276.007812 235.175781 276.921875 234.804688 277.820312 C 234.433594 278.71875 234.015625 279.597656 233.558594 280.453125 C 233.097656 281.3125 232.597656 282.144531 232.058594 282.953125 C 231.519531 283.761719 230.9375 284.542969 230.324219 285.292969 C 229.707031 286.042969 229.054688 286.765625 228.367188 287.453125 C 227.679688 288.140625 226.957031 288.792969 226.207031 289.410156 C 225.453125 290.027344 224.675781 290.605469 223.867188 291.144531 C 223.058594 291.683594 222.226562 292.183594 221.367188 292.644531 C 220.511719 293.101562 219.632812 293.519531 218.734375 293.890625 C 217.835938 294.261719 216.921875 294.589844 215.992188 294.875 C 215.0625 295.15625 214.117188 295.394531 213.164062 295.582031 C 212.210938 295.773438 211.25 295.917969 210.285156 296.011719 C 209.316406 296.109375 208.34375 296.160156 207.375 296.160156 Z M 207.375 296.160156 " fill-opacity="1" fill-rule="nonzero"/></g><path fill="#ffbd59" d="M 177.671875 147.757812 C 177.023438 147.761719 176.378906 147.699219 175.738281 147.574219 C 175.101562 147.449219 174.480469 147.261719 173.878906 147.015625 C 173.273438 146.765625 172.703125 146.460938 172.160156 146.101562 C 171.617188 145.742188 171.117188 145.332031 170.652344 144.875 C 170.191406 144.414062 169.78125 143.917969 169.414062 143.375 C 169.050781 142.835938 168.746094 142.265625 168.492188 141.664062 C 168.242188 141.066406 168.050781 140.445312 167.921875 139.808594 C 167.792969 139.171875 167.726562 138.527344 167.722656 137.875 C 167.722656 137.222656 167.78125 136.578125 167.90625 135.941406 C 168.03125 135.300781 168.214844 134.679688 168.460938 134.078125 C 168.707031 133.476562 169.011719 132.902344 169.371094 132.359375 C 169.730469 131.816406 170.136719 131.3125 170.597656 130.851562 C 171.054688 130.386719 171.550781 129.972656 172.09375 129.609375 C 172.632812 129.246094 173.199219 128.9375 173.800781 128.683594 C 174.402344 128.433594 175.019531 128.242188 175.65625 128.109375 C 176.296875 127.980469 176.941406 127.914062 177.589844 127.910156 C 178.242188 127.90625 178.886719 127.964844 179.527344 128.089844 C 180.164062 128.210938 180.785156 128.394531 181.390625 128.640625 C 181.992188 128.886719 182.566406 129.1875 183.109375 129.546875 C 183.652344 129.902344 184.15625 130.3125 184.621094 130.769531 C 185.082031 131.226562 185.496094 131.722656 185.863281 132.261719 C 186.226562 132.800781 186.539062 133.371094 186.789062 133.972656 C 187.042969 134.570312 187.238281 135.1875 187.367188 135.828125 C 187.5 136.464844 187.566406 137.109375 187.574219 137.757812 L 187.574219 137.859375 C 187.574219 138.507812 187.507812 139.152344 187.382812 139.789062 C 187.257812 140.425781 187.066406 141.046875 186.820312 141.648438 C 186.570312 142.246094 186.265625 142.816406 185.90625 143.359375 C 185.542969 143.898438 185.132812 144.398438 184.671875 144.859375 C 184.214844 145.316406 183.714844 145.730469 183.171875 146.089844 C 182.632812 146.449219 182.0625 146.757812 181.460938 147.003906 C 180.859375 147.253906 180.242188 147.441406 179.605469 147.566406 C 178.96875 147.695312 178.324219 147.757812 177.671875 147.757812 Z M 177.671875 147.757812 " fill-opacity="1" fill-rule="nonzero"/><path fill="#ffbd59" d="M 197.472656 266.558594 C 196.820312 266.558594 196.175781 266.496094 195.539062 266.371094 C 194.898438 266.246094 194.277344 266.0625 193.675781 265.8125 C 193.074219 265.566406 192.503906 265.261719 191.960938 264.902344 C 191.417969 264.542969 190.914062 264.132812 190.453125 263.675781 C 189.992188 263.214844 189.578125 262.714844 189.214844 262.175781 C 188.851562 261.636719 188.542969 261.066406 188.292969 260.464844 C 188.042969 259.863281 187.851562 259.246094 187.722656 258.609375 C 187.59375 257.96875 187.527344 257.324219 187.523438 256.675781 C 187.519531 256.023438 187.582031 255.378906 187.707031 254.738281 C 187.832031 254.101562 188.015625 253.480469 188.261719 252.878906 C 188.507812 252.273438 188.8125 251.703125 189.171875 251.160156 C 189.53125 250.617188 189.9375 250.113281 190.394531 249.652344 C 190.855469 249.1875 191.351562 248.773438 191.890625 248.410156 C 192.429688 248.046875 193 247.738281 193.601562 247.484375 C 194.203125 247.234375 194.820312 247.042969 195.457031 246.910156 C 196.09375 246.78125 196.738281 246.710938 197.390625 246.710938 C 198.042969 246.707031 198.6875 246.765625 199.328125 246.886719 C 199.964844 247.011719 200.585938 247.195312 201.191406 247.441406 C 201.792969 247.6875 202.367188 247.988281 202.910156 248.347656 C 203.453125 248.703125 203.957031 249.113281 204.417969 249.570312 C 204.882812 250.027344 205.296875 250.523438 205.664062 251.0625 C 206.027344 251.601562 206.335938 252.171875 206.589844 252.769531 C 206.84375 253.371094 207.035156 253.988281 207.167969 254.625 C 207.300781 255.265625 207.367188 255.910156 207.375 256.558594 L 207.375 256.660156 C 207.375 257.308594 207.308594 257.953125 207.183594 258.589844 C 207.054688 259.226562 206.867188 259.847656 206.621094 260.445312 C 206.371094 261.046875 206.066406 261.617188 205.703125 262.160156 C 205.34375 262.699219 204.933594 263.199219 204.472656 263.660156 C 204.015625 264.117188 203.515625 264.527344 202.972656 264.890625 C 202.433594 265.25 201.863281 265.554688 201.261719 265.804688 C 200.660156 266.054688 200.042969 266.242188 199.40625 266.367188 C 198.765625 266.496094 198.125 266.558594 197.472656 266.558594 Z M 197.472656 266.558594 " fill-opacity="1" fill-rule="nonzero"/></svg>