<svg xmlns="http://www.w3.org/2000/svg" xmlns:xlink="http://www.w3.org/1999/xlink" width="500" zoomAndPan="magnify" viewBox="0 0 375 374.999991" height="500" preserveAspectRatio="xMidYMid meet" version="1.0"><defs><clipPath id="id1"><path d="M 81 53 L 310.703125 53 L 310.703125 351 L 81 351 Z M 81 53 " clip-rule="nonzero"/></clipPath><clipPath id="id2"><path d="M 81 53 L 310.703125 53 L 310.703125 351 L 81 351 Z M 81 53 " clip-rule="nonzero"/></clipPath></defs><g clip-path="url(#id1)"><path fill="#58454d" d="M 310.25 116.109375 C 306.296875 98.308594 290.769531 86.527344 279.273438 73.441406 C 267.902344 63.8125 243.929688 65.796875 229.171875 62.671875 C 212.171875 60.664062 195.167969 58.714844 178.164062 56.769531 C 163.964844 56.859375 140.476562 47.253906 129.980469 58.902344 C 121.144531 70.011719 121.605469 85.296875 117.472656 98.398438 C 106.617188 146.652344 96.726562 195.117188 86.457031 243.496094 C 84.90625 255.59375 78.738281 267.738281 82.242188 279.917969 C 86.671875 291.976562 93.359375 303.261719 100.71875 313.769531 C 106.378906 321.863281 115.382812 326.429688 124.882812 328.402344 C 161.566406 335.679688 198.199219 346.871094 235.226562 350.890625 C 254.296875 348.675781 264.988281 332.855469 267.859375 314.871094 C 272.261719 297.132812 276.121094 279.265625 280.125 261.429688 C 289.195312 212.96875 305.632812 164.984375 310.25 116.109375 Z M 310.25 116.109375 " fill-opacity="1" fill-rule="nonzero"/></g><path fill="#54667a" d="M 132.179688 58.742188 C 142.78125 48.125 260.273438 69.71875 269.996094 69.542969 C 277.320312 71.71875 280.675781 78.171875 281.0625 85.699219 C 272.226562 151.105469 248.945312 235.144531 236.214844 296.484375 C 232.710938 308.636719 219.359375 316.265625 204.679688 313.097656 C 199.558594 312.503906 97.496094 291.269531 94.117188 289.6875 C 90.742188 288.101562 84.585938 281.390625 82.835938 275.511719 C 81.085938 269.628906 85.433594 260.007812 85.433594 260.007812 L 125.0625 71.601562 C 125.0625 71.601562 128.1875 61.625 132.179688 58.742188 Z M 132.179688 58.742188 " fill-opacity="1" fill-rule="nonzero"/><path fill="#364659" d="M 102.667969 178.0625 C 104.363281 224.550781 148.453125 297.132812 204.085938 311.96875 C 64.023438 279.023438 71.824219 320.5 102.667969 178.0625 Z M 102.667969 178.0625 " fill-opacity="1" fill-rule="nonzero"/><path fill="#ea6f64" d="M 86.144531 283.058594 C 86.144531 283.058594 101.519531 319.863281 115.46875 324.660156 C 129.414062 329.457031 218.152344 346.882812 230.273438 348.898438 C 242.394531 350.914062 256.355469 340.226562 260.078125 334.53125 C 272.082031 292.167969 300.683594 161.855469 309.242188 118.746094 C 310.265625 106.695312 284.605469 81.550781 279.636719 76.136719 C 288.210938 94.632812 251.273438 218.726562 251.957031 227.597656 C 251.957031 227.59375 237.6875 292.890625 235.875 297.539062 C 234.058594 302.183594 228.34375 309.328125 222.738281 311.96875 C 217.699219 318.683594 108.578125 291.832031 99.671875 291.488281 C 99.671875 291.488281 95.628906 290.191406 92.179688 287.957031 C 88.730469 285.726562 86.144531 283.058594 86.144531 283.058594 Z M 86.144531 283.058594 " fill-opacity="1" fill-rule="nonzero"/><path fill="#e04e44" d="M 89.59375 286.105469 C 89.59375 286.105469 95.285156 290.617188 103.796875 292.304688 C 122.277344 294.589844 207.992188 319.113281 225.625 310.640625 L 246.925781 344.792969 C 232.039062 358.539062 124.726562 325.160156 111.441406 322.46875 C 104.472656 316.746094 88.914062 292.722656 89.59375 286.105469 Z M 89.59375 286.105469 " fill-opacity="1" fill-rule="nonzero"/><path fill="#edd5b8" d="M 118.171875 151.933594 C 123.195312 126.589844 129.121094 101.421875 133.6875 75.988281 C 135.324219 59.753906 154.347656 68.398438 165.007812 68.640625 C 179.148438 70.464844 193.289062 72.273438 207.445312 73.992188 C 220.648438 75.59375 233.855469 77.183594 247.074219 78.6875 C 254.511719 80.488281 271.40625 77.1875 269.613281 89.144531 C 264.023438 114.988281 258.878906 140.96875 253.796875 166.929688 C 251.996094 180.039062 237.65625 174.539062 228.804688 173.5 C 204.101562 169.613281 179.398438 165.746094 154.664062 162.089844 C 147.003906 159.472656 118.046875 161.027344 118.171875 151.933594 Z M 118.171875 151.933594 " fill-opacity="1" fill-rule="nonzero"/><path fill="#ea6f64" d="M 170.316406 130.636719 C 171.976562 119.015625 175.46875 106.757812 177.878906 95.113281 C 178.042969 94.136719 178.816406 92.746094 179.953125 93.65625 C 192.480469 102.230469 204.777344 111.160156 216.796875 120.433594 C 217.605469 121.082031 217.613281 121.25 216.636719 121.683594 C 203.460938 126.78125 189.28125 128.816406 175.792969 133.015625 C 173.429688 133.601562 170.007812 134.636719 170.316406 130.636719 Z M 170.316406 130.636719 " fill-opacity="1" fill-rule="nonzero"/><path fill="#58454d" d="M 267.957031 81.832031 C 259.566406 77.210938 248.988281 78.429688 239.726562 76.40625 C 222.363281 74.199219 204.984375 72.113281 187.605469 70.074219 C 176.214844 68.695312 164.808594 67.480469 153.425781 66.066406 C 146.207031 64.933594 136.195312 62.695312 134.171875 72.351562 C 130.0625 87.300781 127.558594 102.632812 124.382812 117.800781 C 122.1875 128.769531 119.640625 139.671875 117.914062 150.734375 C 116.984375 155.023438 120.695312 157.960938 124.558594 158.492188 C 154.839844 163.671875 185.191406 168.46875 215.589844 172.898438 C 225.511719 172.945312 246.488281 182.171875 252.410156 172.28125 C 258.003906 154.632812 260.378906 135.984375 264.660156 117.949219 C 265.097656 109.347656 274.699219 86.886719 267.957031 81.832031 Z M 268.707031 89.5 C 263.1875 115.035156 258.101562 140.703125 253.082031 166.351562 C 251.300781 179.304688 237.132812 173.871094 228.386719 172.84375 C 211.632812 170.214844 194.878906 167.574219 178.113281 165.023438 C 162.65625 162.707031 147.21875 160.273438 131.71875 158.261719 C 127.113281 157.59375 119.601562 157.605469 119.082031 151.535156 C 124.042969 126.496094 129.898438 101.628906 134.410156 76.5 C 136.027344 60.460938 154.820312 69 165.351562 69.238281 C 185.960938 71.910156 206.582031 74.488281 227.222656 76.925781 C 238.316406 78.300781 249.433594 79.457031 260.546875 80.675781 C 265.210938 80.796875 270.339844 84.191406 268.707031 89.5 Z M 268.707031 89.5 " fill-opacity="1" fill-rule="nonzero"/><path fill="#58454d" d="M 216.992188 119.0625 C 205.101562 110.277344 193.648438 100.65625 180.933594 93.101562 C 178.839844 91.890625 177.46875 93.324219 176.984375 95.414062 C 173.976562 107.082031 170.578125 118.710938 169.023438 130.691406 C 168.695312 133.921875 172.066406 135.398438 174.816406 134.320312 C 179.164062 132.066406 224.597656 124.738281 216.992188 119.0625 Z M 216.210938 121.53125 C 202.339844 126.613281 187.605469 129.320312 173.359375 133.203125 C 167.652344 133.550781 173.09375 121.277344 173.132812 117.476562 C 174.566406 114.617188 177.292969 91.46875 180.210938 94.027344 C 192.507812 102.441406 204.570312 111.203125 216.367188 120.304688 C 217.164062 120.941406 217.167969 121.105469 216.210938 121.53125 Z M 216.210938 121.53125 " fill-opacity="1" fill-rule="nonzero"/><path fill="#ef8980" d="M 261.664062 186.777344 C 261.902344 186.816406 262.238281 186.960938 262.191406 187.144531 C 261.707031 188.898438 263.804688 189.398438 263.953125 190.835938 C 263.988281 191.175781 264.335938 191.136719 264.601562 191.171875 C 266.917969 191.386719 265.816406 193.035156 266.171875 194.679688 C 267.398438 190.339844 270.660156 192.335938 269.492188 196.109375 C 272.441406 194.882812 271.621094 197.503906 273.058594 197.488281 C 274.867188 196.957031 274.992188 198.546875 275.828125 199.5625 C 276.90625 199.929688 277.644531 200.542969 277.542969 201.8125 C 277.535156 201.914062 277.628906 202.109375 277.667969 202.109375 C 278.980469 202.066406 279.507812 203.492188 280.699219 203.707031 C 283.074219 204.042969 282.175781 206.777344 282.425781 208.53125 C 283.203125 206.148438 284.890625 206.882812 286.78125 206.707031 C 292.03125 205.46875 283.589844 227.984375 283.699219 231.628906 C 283.046875 230.589844 284.234375 228.917969 282.867188 228.351562 C 281.226562 227.804688 280.832031 227.355469 281.023438 225.648438 C 281.101562 223.171875 279.171875 221.769531 278.832031 219.394531 C 277.042969 221.800781 276.402344 222.238281 273.925781 220.332031 C 270.863281 220.476562 272.542969 215.03125 269.324219 215.382812 C 266.351562 216.132812 267.648438 212.480469 266.039062 213.261719 C 261.953125 214.324219 265.257812 208.140625 262.390625 208.953125 C 261.804688 209.089844 261.371094 208.578125 261.191406 208.058594 C 260.988281 207.472656 260.707031 207.449219 260.15625 207.542969 C 257.542969 208.023438 258.796875 204.808594 257.878906 203.410156 C 259.144531 197.867188 260.335938 192.304688 261.664062 186.777344 Z M 261.664062 186.777344 " fill-opacity="1" fill-rule="nonzero"/><path fill="#ef8980" d="M 282.628906 93.847656 C 283.421875 89.015625 283.425781 84.578125 282.464844 79.554688 C 292.847656 93.117188 310.59375 106.550781 307.570312 125.515625 C 301.402344 119.3125 296.621094 110.753906 289.964844 104.550781 C 287.667969 101.128906 282.210938 98.25 282.628906 93.847656 Z M 282.628906 93.847656 " fill-opacity="1" fill-rule="nonzero"/><path fill="#ef8980" d="M 228.421875 309.007812 C 229.933594 308.066406 232.410156 302.496094 234.019531 304.53125 C 237.5 309.554688 240.867188 314.648438 244.25 319.734375 C 247.894531 325.128906 251.304688 330.667969 254.871094 336.105469 C 256.546875 337.914062 254.117188 338.359375 253.351562 339.75 C 251.832031 340.234375 249.859375 343.136719 248.507812 341.171875 C 246.707031 338.722656 244.957031 336.246094 243.472656 333.597656 C 239.117188 325.144531 232.40625 317.34375 228.421875 309.007812 Z M 228.421875 309.007812 " fill-opacity="1" fill-rule="nonzero"/><path fill="#ef8980" d="M 241.796875 345.660156 C 235.007812 335.132812 228.105469 324.523438 221.746094 313.679688 C 222.648438 313.1875 223.929688 312.304688 224.460938 313.652344 C 227.011719 317.378906 229.503906 321.148438 232.003906 324.910156 C 235.878906 331.488281 241.222656 337.945312 244.167969 344.71875 C 243.375 345.03125 242.585938 345.34375 241.796875 345.660156 Z M 241.796875 345.660156 " fill-opacity="1" fill-rule="nonzero"/><path fill="#ef8980" d="M 306.019531 131.964844 C 298.050781 121.234375 289.367188 111.050781 281.484375 100.265625 C 281.65625 99.433594 281.828125 98.601562 282 97.773438 C 289.753906 105.832031 296.613281 115.816406 304.1875 124.417969 C 307.109375 127.503906 307.414062 127.800781 306.019531 131.964844 Z M 306.019531 131.964844 " fill-opacity="1" fill-rule="nonzero"/><path fill="#ef8980" d="M 235.457031 299.367188 C 243.476562 310.691406 250.152344 322.988281 258.023438 334.464844 C 257.648438 334.90625 257.273438 335.347656 256.898438 335.789062 C 249.035156 325.660156 242.183594 313.390625 234.835938 302.441406 C 233.679688 301.390625 235.101562 300.441406 235.457031 299.367188 Z M 235.457031 299.367188 " fill-opacity="1" fill-rule="nonzero"/><path fill="#ea6e63" d="M 219.75 314.933594 C 226.140625 325.792969 233.640625 336.234375 240.980469 346.511719 C 240.53125 346.652344 240.085938 346.789062 239.601562 346.730469 C 230.78125 337.296875 225.53125 325.351562 217.710938 315.234375 C 218.390625 315.136719 219.070312 315.035156 219.75 314.933594 Z M 219.75 314.933594 " fill-opacity="1" fill-rule="nonzero"/><path fill="#ef8980" d="M 245.859375 343.859375 C 238.890625 333.410156 231.902344 322.242188 225.742188 311.097656 C 226.003906 310.890625 226.265625 310.683594 226.53125 310.476562 C 233.628906 321.203125 240.46875 332.335938 247.710938 343.074219 C 247.09375 343.335938 246.476562 343.597656 245.859375 343.859375 Z M 245.859375 343.859375 " fill-opacity="1" fill-rule="nonzero"/><path fill="#ef8980" d="M 233.894531 303.886719 C 240.792969 314.847656 248.179688 325.699219 254.355469 337.023438 C 253.679688 337.84375 252.929688 338.585938 252.046875 339.183594 C 251.980469 338.453125 252.460938 338.082031 253.015625 337.832031 C 255.066406 336.449219 250.078125 331.730469 249.503906 329.765625 C 244.097656 321.539062 239.292969 312.328125 233.324219 304.75 C 233.515625 304.464844 233.707031 304.175781 233.894531 303.886719 Z M 233.894531 303.886719 " fill-opacity="1" fill-rule="nonzero"/><path fill="#53454e" d="M 130.117188 295.257812 C 131.035156 295.449219 131.984375 295.492188 132.859375 295.882812 C 131.894531 295.886719 130.929688 295.90625 130.117188 295.257812 Z M 130.117188 295.257812 " fill-opacity="1" fill-rule="nonzero"/><path fill="#edd5b8" d="M 118.546875 182.011719 C 128.996094 183.039062 139.332031 185.074219 149.664062 186.941406 C 155.003906 189.160156 176.257812 188.253906 174.117188 196.277344 C 172.515625 200.652344 168.164062 229.996094 163.539062 227.90625 C 149.230469 225.894531 135.113281 222.605469 120.914062 219.910156 C 115.441406 218.589844 106 219.027344 107.710938 210.707031 C 108.675781 204.074219 110.527344 197.636719 111.96875 191.109375 C 113.054688 187.085938 112.542969 181.410156 118.546875 182.011719 Z M 118.546875 182.011719 " fill-opacity="1" fill-rule="nonzero"/><path fill="#66809d" d="M 116.519531 167.011719 L 115.628906 171.441406 L 245.628906 192.078125 L 246.242188 187.8125 Z M 116.519531 167.011719 " fill-opacity="1" fill-rule="nonzero"/><path fill="#66809d" d="M 184.324219 197.625 L 183.171875 203.242188 L 240.242188 211.601562 L 241.660156 205.882812 Z M 184.324219 197.625 " fill-opacity="1" fill-rule="nonzero"/><path fill="#66809d" d="M 181.75 210.484375 L 180.550781 216.371094 L 215.585938 222.621094 L 216.988281 216.605469 Z M 181.75 210.484375 " fill-opacity="1" fill-rule="nonzero"/><path fill="#66809d" d="M 168.027344 263.285156 L 167.378906 268.703125 L 200.90625 274.578125 L 202.472656 268.417969 Z M 168.027344 263.285156 " fill-opacity="1" fill-rule="nonzero"/><path fill="#66809d" d="M 171.960938 247.511719 L 170.800781 253.667969 L 228.8125 262.242188 L 229.601562 256.011719 Z M 171.960938 247.511719 " fill-opacity="1" fill-rule="nonzero"/><path fill="#edd5b8" d="M 106.097656 233.355469 C 106.097656 233.355469 103.464844 233.78125 103.105469 236.742188 C 102.746094 239.703125 95.382812 265.121094 97.519531 267.355469 C 99.65625 269.589844 137.246094 276.144531 137.246094 276.144531 C 137.246094 276.144531 152.007812 280.042969 154.496094 278.015625 C 156.980469 275.988281 160.679688 256.378906 161.648438 253.597656 C 162.617188 250.816406 162.621094 245.117188 161.648438 243.730469 C 160.675781 242.339844 106.097656 233.355469 106.097656 233.355469 Z M 106.097656 233.355469 " fill-opacity="1" fill-rule="nonzero"/><path fill="#e4c39d" d="M 119.367188 235.578125 C 122.855469 246.921875 141.242188 270.953125 151.035156 278.589844 L 98.863281 269.046875 C 98.863281 269.046875 97.066406 267.605469 96.492188 265.445312 C 95.917969 263.285156 103.832031 234.8125 103.832031 234.8125 C 104.003906 231.9375 120.011719 235.953125 119.367188 235.578125 Z M 119.367188 235.578125 " fill-opacity="1" fill-rule="nonzero"/><path fill="#58454d" d="M 245.800781 186.980469 C 206.28125 180.535156 166.738281 174.199219 127.179688 168 C 123.910156 167.503906 120.632812 167.054688 117.359375 166.570312 C 114.9375 166.179688 115.625 169.429688 115.0625 170.84375 C 114.769531 171.789062 115.160156 171.886719 115.761719 171.988281 C 151.609375 178.070312 187.570312 183.457031 223.457031 189.300781 C 230.597656 190.359375 237.722656 191.480469 244.84375 192.664062 C 245.335938 192.738281 245.902344 192.84375 246.152344 192.128906 C 246.558594 190.480469 248.089844 187.285156 245.800781 186.980469 Z M 245.382812 190.195312 C 245.269531 190.652344 245.632812 191.574219 244.554688 191.351562 C 235.382812 189.933594 226.21875 188.476562 217.058594 186.980469 C 190.804688 182.78125 164.53125 178.71875 138.277344 174.527344 C 135.613281 173.417969 114.003906 172.277344 116.277344 169.984375 C 117.160156 166.734375 116.785156 167.3125 119.730469 167.828125 C 154.882812 173.757812 190.09375 179.34375 225.304688 184.914062 C 231.542969 185.917969 237.773438 186.96875 244.003906 188.015625 C 245.808594 188.316406 245.832031 188.347656 245.382812 190.195312 Z M 245.382812 190.195312 " fill-opacity="1" fill-rule="nonzero"/><path fill="#58454d" d="M 174.808594 193.054688 C 171.871094 188.070312 148.1875 186.761719 141.117188 184.300781 C 134.179688 183.988281 117.195312 177.441406 112.96875 183.730469 C 110.691406 190.917969 109.765625 198.484375 107.789062 205.773438 C 105.25 210.480469 105.285156 218.042969 111.800781 219.066406 C 128.867188 222.882812 146.160156 226.675781 163.511719 228.996094 C 169.75 227.925781 168.996094 217.925781 171.105469 213.101562 C 172.003906 206.476562 175.847656 199.683594 174.808594 193.054688 Z M 173.753906 196.402344 C 172.175781 200.71875 167.886719 229.632812 163.328125 227.570312 C 146.382812 224.949219 129.460938 221.425781 112.703125 217.871094 C 102.808594 215.367188 112.152344 198.347656 112.507812 191.308594 C 113.757812 187.730469 112.574219 182.757812 117.832031 182.351562 C 128.523438 183 139.097656 185.402344 149.65625 187.203125 C 154.917969 189.390625 175.863281 188.496094 173.753906 196.402344 Z M 173.753906 196.402344 " fill-opacity="1" fill-rule="nonzero"/><path fill="#58454d" d="M 162.976562 245.46875 C 163.804688 239.816406 131.351562 238.167969 125.386719 235.929688 C 118.953125 235.886719 102.34375 226.636719 102.105469 237.851562 C 102.105469 237.992188 102.105469 238.132812 102.105469 238.273438 C 100.5625 242.882812 99.09375 247.976562 98.734375 252.835938 C 97.398438 258.101562 92.277344 269.847656 101.480469 270.144531 C 103.019531 271.152344 104.761719 271.257812 106.53125 271.199219 C 110.796875 272.84375 115.84375 273.429688 120.429688 273.734375 C 123.777344 275.195312 128.457031 275.433594 132.011719 275.84375 C 138.332031 277.015625 144.722656 277.796875 150.949219 279.425781 C 156.675781 279.597656 157.296875 275.582031 158.332031 270.910156 C 160.105469 262.5 162.8125 254.113281 162.976562 245.46875 Z M 161.167969 251.746094 C 160.363281 258.265625 158.3125 264.511719 156.960938 270.910156 C 156.808594 275.519531 154.09375 279.410156 149.066406 277.714844 C 140.332031 276.605469 131.71875 274.5625 123.027344 273.101562 C 115.035156 270.484375 103.871094 272.433594 97.898438 266.027344 C 97.605469 257.816406 101.585938 249.425781 102.460938 241.09375 C 103.019531 238.003906 104.378906 233.210938 108.464844 234.128906 C 120.273438 236.273438 132.15625 238.109375 143.953125 240.382812 C 148.96875 241.289062 153.980469 242.21875 159 243.101562 C 162.921875 243.855469 161.441406 248.949219 161.167969 251.746094 Z M 161.167969 251.746094 " fill-opacity="1" fill-rule="nonzero"/><path fill="#57454d" d="M 228.914062 255.148438 C 212.933594 253.300781 197.046875 250.621094 181.125 248.300781 C 173.8125 247.976562 171.402344 243.761719 170.148438 253.007812 C 171.421875 256.003906 183.328125 255.4375 186.980469 256.6875 C 200.578125 258.800781 214.183594 260.886719 227.785156 262.964844 C 229.035156 263.15625 229.128906 263.03125 229.296875 261.714844 C 229.027344 259.949219 231.414062 255.386719 228.914062 255.148438 Z M 228.695312 257.957031 C 228.019531 259.082031 229.039062 261.683594 227.171875 261.652344 C 216.949219 260.105469 206.484375 258.472656 196.230469 256.890625 C 188.140625 255.769531 180.109375 254.175781 172.003906 253.246094 C 170.671875 252.664062 172.234375 249.957031 172.019531 248.652344 C 185.285156 249.023438 200.664062 252.726562 214.605469 254.335938 C 216.921875 255.308594 229.773438 255.265625 228.695312 257.957031 Z M 228.695312 257.957031 " fill-opacity="1" fill-rule="nonzero"/><path fill="#58454d" d="M 241.46875 205.242188 C 225.957031 202.964844 210.421875 200.808594 194.90625 198.535156 C 191.492188 198.027344 188.082031 197.527344 184.644531 197.214844 C 182.867188 197.933594 182.976562 200.992188 182.542969 202.6875 C 182.285156 204 183.582031 204.09375 184.523438 204.292969 C 197.445312 206.289062 210.40625 207.96875 223.351562 209.785156 C 226.65625 209.527344 240.753906 213.953125 241.347656 210.929688 C 241.0625 209.28125 243.355469 205.945312 241.46875 205.242188 Z M 240.96875 207.042969 C 240.195312 208.089844 240.796875 211.082031 239.269531 211.035156 C 228.296875 209.480469 217.519531 207.675781 206.585938 206.035156 C 199.125 204.945312 191.675781 203.753906 184.195312 202.828125 C 183.113281 202.125 184.601562 199.914062 184.507812 198.703125 C 184.628906 198.113281 184.863281 197.992188 185.527344 198.109375 C 203.476562 201.707031 224.378906 202.351562 240.96875 207.042969 Z M 240.96875 207.042969 " fill-opacity="1" fill-rule="nonzero"/><path fill="#58454d" d="M 201.273438 267.421875 C 190.3125 266.339844 179.535156 263.960938 168.578125 262.882812 C 166.804688 263.292969 167.304688 266.488281 166.746094 267.992188 C 166.609375 269.011719 166.976562 269.5 168.019531 269.703125 C 178.96875 271.578125 189.945312 273.425781 200.894531 275.214844 C 203.238281 275.644531 204.007812 266.507812 201.273438 267.421875 Z M 201.671875 269.800781 C 200.925781 270.9375 201.496094 273.871094 199.746094 273.753906 C 189.3125 272.242188 178.964844 270.226562 168.542969 268.664062 C 167.277344 267.875 168.648438 265.523438 168.4375 264.171875 C 168.480469 263.710938 168.671875 263.550781 169.121094 263.65625 C 179.457031 266.4375 192.519531 266.03125 201.671875 269.800781 Z M 201.671875 269.800781 " fill-opacity="1" fill-rule="nonzero"/><path fill="#57454d" d="M 216.765625 215.722656 C 205.757812 213.878906 194.152344 211.777344 183.238281 209.996094 C 180 209.671875 180.746094 213.328125 180.007812 215.390625 C 179.832031 216.894531 179.820312 216.871094 181.308594 217.167969 C 192.277344 219.214844 203.316406 220.871094 214.257812 223.074219 C 216.007812 223.429688 216.324219 223.195312 216.644531 221.441406 C 216.402344 219.949219 218.617188 216.015625 216.765625 215.722656 Z M 216.320312 217.707031 C 215.617188 218.855469 216.074219 221.492188 214.613281 221.785156 C 206.144531 220.441406 197.6875 219.023438 189.234375 217.589844 C 181.53125 215.574219 180.351562 218.847656 181.925781 211.390625 C 181.945312 210.785156 182.285156 210.957031 182.636719 211.023438 C 193.648438 213.058594 204.710938 214.785156 215.726562 216.773438 C 216.238281 216.867188 216.535156 217.050781 216.320312 217.707031 Z M 216.320312 217.707031 " fill-opacity="1" fill-rule="nonzero"/><path fill="#58454d" d="M 266.714844 195.59375 C 266.726562 195.625 266.726562 195.644531 266.738281 195.675781 C 266.75 195.652344 266.757812 195.628906 266.765625 195.605469 C 266.75 195.601562 266.730469 195.597656 266.714844 195.59375 Z M 266.714844 195.59375 " fill-opacity="1" fill-rule="nonzero"/><g clip-path="url(#id2)"><path fill="#58454d" d="M 310.25 116.109375 C 306.296875 98.308594 290.769531 86.527344 279.273438 73.441406 C 270.699219 66.179688 264.496094 66.648438 178.164062 56.769531 C 163.964844 56.859375 140.476562 47.253906 129.980469 58.902344 C 121.144531 70.011719 121.605469 85.296875 117.472656 98.398438 C 106.617188 146.652344 96.726562 195.117188 86.457031 243.496094 C 84.90625 255.59375 78.734375 267.738281 82.242188 279.917969 C 86.671875 291.976562 93.359375 303.261719 100.71875 313.769531 C 106.378906 321.863281 115.382812 326.429688 124.882812 328.402344 C 161.566406 335.679688 198.199219 346.871094 235.226562 350.890625 C 254.296875 348.675781 264.988281 332.855469 267.859375 314.871094 C 272.257812 297.132812 276.121094 279.265625 280.125 261.429688 C 289.195312 212.96875 305.632812 164.984375 310.25 116.109375 Z M 86.519531 278.929688 C 82.535156 267.914062 89.296875 256.097656 90.546875 244.953125 C 103.992188 183.738281 119.929688 104.988281 125.777344 76.683594 C 129.996094 49.421875 137.105469 57.128906 249.75 68.554688 C 281.964844 69.109375 283.53125 80.023438 276.0625 108.726562 C 269.289062 139.101562 262.613281 169.5 255.867188 199.886719 C 250.261719 225.386719 244.75 250.917969 239.09375 276.40625 C 232.554688 316.035156 221.4375 315.347656 186.125 306.433594 C 96.015625 288.414062 93.246094 291.441406 86.519531 278.929688 Z M 306.539062 123.878906 C 300.085938 151.910156 293.929688 180.082031 287.445312 208.132812 C 282.859375 229.074219 270.226562 284.898438 265.570312 306.878906 C 263.503906 316.390625 263.050781 326.769531 256.476562 334.53125 C 250.4375 342.003906 239.382812 346.578125 237.296875 346.300781 C 219.253906 347.402344 201.535156 340.046875 183.777344 337.367188 C 170.878906 334.722656 157.988281 332.070312 145.09375 329.417969 C 112.53125 324.769531 105.578125 319.914062 91.089844 289.914062 C 110.414062 297.449219 131.738281 299.371094 151.933594 304.121094 C 173.730469 307.960938 195.28125 313.726562 217.3125 315.988281 C 229.785156 314.042969 236.960938 301.472656 239.519531 289.121094 C 245.863281 260.59375 252.625 232.136719 259.171875 203.644531 C 267.035156 169.332031 274.714844 134.972656 282.546875 100.652344 C 283.894531 94.160156 284.800781 88.117188 283.449219 81.609375 C 293 94.082031 309.320312 106.4375 306.539062 123.878906 Z M 306.539062 123.878906 " fill-opacity="1" fill-rule="nonzero"/></g></svg>