<svg xmlns="http://www.w3.org/2000/svg" xmlns:xlink="http://www.w3.org/1999/xlink" width="500" zoomAndPan="magnify" viewBox="0 0 375 374.999991" height="500" preserveAspectRatio="xMidYMid meet" version="1.0"><defs><clipPath id="id1"><path d="M 166 222 L 209 222 L 209 288 L 166 288 Z M 166 222 " clip-rule="nonzero"/></clipPath><clipPath id="id2"><path d="M 197.855469 276.992188 L 197.855469 260.933594 C 199.460938 260.054688 200.921875 258.980469 202.234375 257.707031 C 203.550781 256.4375 204.671875 255.011719 205.601562 253.4375 C 206.53125 251.863281 207.234375 250.195312 207.710938 248.429688 C 208.191406 246.664062 208.425781 244.867188 208.417969 243.039062 C 208.417969 242.367188 208.386719 241.695312 208.324219 241.023438 C 208.261719 240.351562 208.164062 239.6875 208.035156 239.023438 C 207.90625 238.363281 207.746094 237.710938 207.550781 237.0625 C 207.359375 236.417969 207.132812 235.78125 206.878906 235.160156 C 206.621094 234.535156 206.335938 233.925781 206.019531 233.332031 C 205.703125 232.734375 205.359375 232.15625 204.988281 231.59375 C 204.613281 231.03125 204.214844 230.488281 203.789062 229.964844 C 203.363281 229.441406 202.914062 228.941406 202.4375 228.464844 C 201.964844 227.984375 201.464844 227.53125 200.945312 227.101562 C 200.425781 226.671875 199.886719 226.265625 199.328125 225.890625 C 198.769531 225.511719 198.191406 225.164062 197.597656 224.84375 C 197.003906 224.523438 196.394531 224.230469 195.773438 223.96875 C 195.152344 223.707031 194.515625 223.476562 193.871094 223.277344 C 193.226562 223.078125 192.574219 222.914062 191.914062 222.777344 C 191.25 222.640625 190.585938 222.539062 189.914062 222.46875 C 189.242188 222.398438 188.570312 222.363281 187.894531 222.359375 C 186.765625 222.347656 185.644531 222.429688 184.527344 222.601562 C 183.410156 222.773438 182.316406 223.03125 181.242188 223.382812 C 180.171875 223.730469 179.132812 224.164062 178.128906 224.683594 C 177.128906 225.199219 176.171875 225.796875 175.269531 226.46875 C 174.363281 227.144531 173.515625 227.882812 172.734375 228.695312 C 171.949219 229.503906 171.234375 230.375 170.59375 231.300781 C 169.949219 232.226562 169.386719 233.199219 168.902344 234.214844 C 168.417969 235.234375 168.019531 236.285156 167.703125 237.367188 C 167.390625 238.449219 167.167969 239.550781 167.035156 240.671875 C 166.902344 241.789062 166.859375 242.910156 166.910156 244.039062 C 166.957031 245.164062 167.097656 246.277344 167.328125 247.382812 C 167.558594 248.484375 167.878906 249.5625 168.285156 250.613281 C 168.691406 251.664062 169.183594 252.675781 169.753906 253.648438 C 170.324219 254.617188 170.972656 255.539062 171.695312 256.40625 C 172.414062 257.273438 173.203125 258.074219 174.054688 258.8125 C 174.90625 259.550781 175.8125 260.21875 176.773438 260.808594 L 176.773438 276.992188 C 176.773438 277.679688 176.84375 278.367188 176.976562 279.042969 C 177.113281 279.722656 177.3125 280.378906 177.578125 281.015625 C 177.84375 281.65625 178.167969 282.261719 178.550781 282.835938 C 178.933594 283.410156 179.371094 283.941406 179.863281 284.429688 C 180.351562 284.917969 180.882812 285.355469 181.457031 285.738281 C 182.035156 286.121094 182.640625 286.445312 183.28125 286.710938 C 183.921875 286.976562 184.578125 287.175781 185.257812 287.308594 C 185.9375 287.445312 186.621094 287.511719 187.3125 287.511719 C 188.007812 287.511719 188.691406 287.445312 189.371094 287.308594 C 190.050781 287.175781 190.707031 286.976562 191.347656 286.710938 C 191.988281 286.445312 192.59375 286.121094 193.167969 285.738281 C 193.746094 285.355469 194.277344 284.917969 194.765625 284.429688 C 195.257812 283.941406 195.691406 283.410156 196.078125 282.835938 C 196.460938 282.261719 196.785156 281.65625 197.050781 281.015625 C 197.316406 280.378906 197.515625 279.722656 197.652344 279.042969 C 197.785156 278.367188 197.855469 277.679688 197.855469 276.992188 Z M 189.132812 258.152344 L 189.132812 276.992188 C 189.132812 277.234375 189.085938 277.464844 188.992188 277.6875 C 188.902344 277.910156 188.769531 278.105469 188.597656 278.273438 C 188.429688 278.445312 188.230469 278.574219 188.007812 278.667969 C 187.789062 278.761719 187.554688 278.804688 187.3125 278.804688 C 187.074219 278.804688 186.839844 278.761719 186.617188 278.667969 C 186.394531 278.574219 186.199219 278.445312 186.03125 278.273438 C 185.859375 278.105469 185.726562 277.910156 185.636719 277.6875 C 185.542969 277.464844 185.496094 277.234375 185.496094 276.992188 L 185.496094 258.152344 C 185.496094 257.726562 185.433594 257.304688 185.3125 256.894531 C 185.1875 256.484375 185.007812 256.101562 184.769531 255.742188 C 184.53125 255.386719 184.246094 255.070312 183.914062 254.796875 C 183.585938 254.523438 183.21875 254.304688 182.824219 254.140625 C 181.742188 253.671875 180.75 253.058594 179.847656 252.300781 C 178.945312 251.539062 178.175781 250.667969 177.535156 249.679688 C 176.890625 248.691406 176.40625 247.632812 176.078125 246.5 C 175.75 245.367188 175.59375 244.214844 175.609375 243.035156 C 175.609375 236.546875 181.234375 231.0625 187.894531 231.0625 C 188.675781 231.070312 189.449219 231.152344 190.210938 231.3125 C 190.976562 231.472656 191.71875 231.703125 192.4375 232.007812 C 193.15625 232.3125 193.839844 232.683594 194.484375 233.125 C 195.128906 233.5625 195.726562 234.058594 196.273438 234.613281 C 196.820312 235.171875 197.308594 235.773438 197.738281 236.425781 C 198.167969 237.078125 198.527344 237.765625 198.820312 238.488281 C 199.113281 239.210938 199.335938 239.953125 199.480469 240.71875 C 199.628906 241.484375 199.699219 242.257812 199.695312 243.035156 C 199.703125 243.636719 199.660156 244.234375 199.574219 244.828125 C 199.488281 245.421875 199.355469 246.003906 199.179688 246.578125 C 199.003906 247.152344 198.78125 247.707031 198.519531 248.246094 C 198.253906 248.785156 197.949219 249.300781 197.605469 249.792969 C 197.261719 250.285156 196.882812 250.746094 196.464844 251.179688 C 196.046875 251.613281 195.601562 252.007812 195.121094 252.371094 C 194.644531 252.734375 194.140625 253.058594 193.609375 253.34375 C 193.082031 253.628906 192.535156 253.871094 191.96875 254.070312 C 191.550781 254.226562 191.167969 254.441406 190.816406 254.710938 C 190.464844 254.984375 190.164062 255.304688 189.910156 255.667969 C 189.65625 256.035156 189.460938 256.429688 189.328125 256.851562 C 189.195312 257.277344 189.132812 257.710938 189.132812 258.152344 Z M 189.132812 258.152344 " clip-rule="nonzero"/></clipPath><linearGradient x1="255.965" gradientTransform="matrix(0.726867, 0, 0, 0.725649, 1.599881, 1.68503)" y1="393.89197" x2="255.965" gradientUnits="userSpaceOnUse" y2="304.091062" id="id3"><stop stop-opacity="1" stop-color="rgb(63.09967%, 38.798523%, 96.099854%)" offset="0"/><stop stop-opacity="1" stop-color="rgb(63.09967%, 38.798523%, 96.099854%)" offset="0.5"/><stop stop-opacity="1" stop-color="rgb(63.215637%, 38.931274%, 96.043396%)" offset="0.625"/><stop stop-opacity="1" stop-color="rgb(63.465881%, 39.215088%, 95.924377%)" offset="0.65625"/><stop stop-opacity="1" stop-color="rgb(63.729858%, 39.515686%, 95.799255%)" offset="0.6875"/><stop stop-opacity="1" stop-color="rgb(63.995361%, 39.816284%, 95.674133%)" offset="0.71875"/><stop stop-opacity="1" stop-color="rgb(64.260864%, 40.116882%, 95.547485%)" offset="0.75"/><stop stop-opacity="1" stop-color="rgb(64.524841%, 40.41748%, 95.422363%)" offset="0.78125"/><stop stop-opacity="1" stop-color="rgb(64.790344%, 40.719604%, 95.295715%)" offset="0.8125"/><stop stop-opacity="1" stop-color="rgb(65.054321%, 41.020203%, 95.170593%)" offset="0.84375"/><stop stop-opacity="1" stop-color="rgb(65.319824%, 41.320801%, 95.045471%)" offset="0.875"/><stop stop-opacity="1" stop-color="rgb(65.585327%, 41.621399%, 94.918823%)" offset="0.90625"/><stop stop-opacity="1" stop-color="rgb(65.849304%, 41.921997%, 94.793701%)" offset="0.9375"/><stop stop-opacity="1" stop-color="rgb(66.114807%, 42.222595%, 94.667053%)" offset="0.96875"/><stop stop-opacity="1" stop-color="rgb(66.38031%, 42.524719%, 94.541931%)" offset="1"/></linearGradient><clipPath id="id4"><path d="M 122 189 L 254 189 L 254 321 L 122 321 Z M 122 189 " clip-rule="nonzero"/></clipPath><clipPath id="id5"><path d="M 253.097656 254.9375 C 253.097656 253.867188 253.070312 252.800781 253.015625 251.730469 C 252.964844 250.664062 252.886719 249.597656 252.78125 248.535156 C 252.675781 247.472656 252.542969 246.410156 252.386719 245.355469 C 252.230469 244.296875 252.046875 243.242188 251.839844 242.195312 C 251.628906 241.148438 251.394531 240.105469 251.136719 239.066406 C 250.875 238.03125 250.589844 237 250.277344 235.980469 C 249.96875 234.957031 249.632812 233.941406 249.273438 232.933594 C 248.910156 231.929688 248.527344 230.929688 248.117188 229.945312 C 247.707031 228.957031 247.273438 227.980469 246.816406 227.011719 C 246.355469 226.046875 245.875 225.09375 245.371094 224.152344 C 244.867188 223.207031 244.339844 222.277344 243.789062 221.363281 C 243.238281 220.445312 242.664062 219.542969 242.070312 218.652344 C 241.476562 217.765625 240.859375 216.890625 240.222656 216.03125 C 239.585938 215.175781 238.925781 214.332031 238.246094 213.503906 C 237.566406 212.679688 236.867188 211.871094 236.148438 211.078125 C 235.429688 210.285156 234.691406 209.511719 233.933594 208.757812 C 233.179688 208 232.402344 207.265625 231.609375 206.546875 C 230.816406 205.828125 230.007812 205.128906 229.179688 204.453125 C 228.351562 203.773438 227.507812 203.117188 226.648438 202.480469 C 225.789062 201.84375 224.914062 201.226562 224.023438 200.632812 C 223.132812 200.039062 222.226562 199.46875 221.308594 198.917969 C 220.390625 198.371094 219.460938 197.84375 218.515625 197.339844 C 217.570312 196.835938 216.617188 196.355469 215.648438 195.898438 C 214.679688 195.441406 213.703125 195.007812 212.710938 194.597656 C 211.722656 194.191406 210.722656 193.804688 209.714844 193.445312 C 208.707031 193.085938 207.691406 192.75 206.667969 192.441406 C 205.644531 192.128906 204.613281 191.84375 203.574219 191.585938 C 202.535156 191.324219 201.492188 191.089844 200.441406 190.882812 C 199.390625 190.675781 198.335938 190.492188 197.277344 190.335938 C 196.21875 190.179688 195.15625 190.046875 194.089844 189.941406 C 193.023438 189.835938 191.957031 189.757812 190.886719 189.707031 C 189.820312 189.65625 188.75 189.628906 187.679688 189.628906 C 186.605469 189.628906 185.539062 189.65625 184.46875 189.707031 C 183.398438 189.757812 182.332031 189.835938 181.265625 189.941406 C 180.199219 190.046875 179.136719 190.179688 178.078125 190.335938 C 177.019531 190.492188 175.964844 190.675781 174.914062 190.882812 C 173.867188 191.089844 172.820312 191.324219 171.78125 191.585938 C 170.742188 191.84375 169.710938 192.128906 168.6875 192.441406 C 167.664062 192.75 166.648438 193.085938 165.640625 193.445312 C 164.632812 193.804688 163.632812 194.191406 162.644531 194.597656 C 161.652344 195.007812 160.675781 195.441406 159.707031 195.898438 C 158.738281 196.355469 157.785156 196.835938 156.839844 197.339844 C 155.894531 197.84375 154.964844 198.371094 154.046875 198.917969 C 153.128906 199.46875 152.222656 200.039062 151.332031 200.632812 C 150.441406 201.226562 149.566406 201.84375 148.707031 202.480469 C 147.847656 203.117188 147.003906 203.773438 146.175781 204.453125 C 145.347656 205.128906 144.539062 205.828125 143.746094 206.546875 C 142.953125 207.265625 142.175781 208 141.421875 208.757812 C 140.664062 209.511719 139.925781 210.285156 139.207031 211.078125 C 138.488281 211.871094 137.789062 212.679688 137.109375 213.503906 C 136.429688 214.332031 135.769531 215.175781 135.132812 216.03125 C 134.496094 216.890625 133.878906 217.765625 133.285156 218.652344 C 132.691406 219.542969 132.117188 220.445312 131.566406 221.363281 C 131.015625 222.277344 130.488281 223.207031 129.984375 224.152344 C 129.480469 225.09375 129 226.046875 128.539062 227.011719 C 128.082031 227.980469 127.648438 228.957031 127.238281 229.945312 C 126.828125 230.929688 126.445312 231.929688 126.082031 232.933594 C 125.722656 233.941406 125.386719 234.957031 125.078125 235.980469 C 124.765625 237 124.480469 238.03125 124.21875 239.066406 C 123.960938 240.105469 123.726562 241.148438 123.515625 242.195312 C 123.308594 243.242188 123.125 244.296875 122.96875 245.355469 C 122.8125 246.410156 122.679688 247.472656 122.574219 248.535156 C 122.46875 249.597656 122.390625 250.664062 122.339844 251.730469 C 122.285156 252.800781 122.261719 253.867188 122.261719 254.9375 C 122.261719 256.003906 122.285156 257.074219 122.339844 258.140625 C 122.390625 259.207031 122.46875 260.273438 122.574219 261.339844 C 122.679688 262.402344 122.8125 263.460938 122.96875 264.519531 C 123.125 265.578125 123.308594 266.628906 123.515625 267.675781 C 123.726562 268.726562 123.960938 269.769531 124.21875 270.804688 C 124.480469 271.84375 124.765625 272.871094 125.078125 273.894531 C 125.386719 274.917969 125.722656 275.933594 126.082031 276.9375 C 126.445312 277.945312 126.828125 278.941406 127.238281 279.929688 C 127.648438 280.917969 128.082031 281.894531 128.539062 282.859375 C 129 283.824219 129.480469 284.78125 129.984375 285.722656 C 130.488281 286.664062 131.015625 287.59375 131.566406 288.511719 C 132.117188 289.429688 132.691406 290.332031 133.285156 291.21875 C 133.878906 292.109375 134.496094 292.980469 135.132812 293.839844 C 135.769531 294.699219 136.429688 295.542969 137.109375 296.367188 C 137.789062 297.195312 138.488281 298.003906 139.207031 298.796875 C 139.925781 299.585938 140.664062 300.359375 141.421875 301.117188 C 142.175781 301.871094 142.953125 302.609375 143.746094 303.328125 C 144.539062 304.042969 145.347656 304.742188 146.175781 305.421875 C 147.003906 306.097656 147.847656 306.757812 148.707031 307.394531 C 149.566406 308.03125 150.441406 308.644531 151.332031 309.238281 C 152.222656 309.832031 153.128906 310.402344 154.046875 310.953125 C 154.964844 311.503906 155.894531 312.03125 156.839844 312.535156 C 157.785156 313.039062 158.738281 313.519531 159.707031 313.976562 C 160.675781 314.433594 161.652344 314.863281 162.644531 315.273438 C 163.632812 315.683594 164.632812 316.066406 165.640625 316.425781 C 166.648438 316.789062 167.664062 317.121094 168.6875 317.433594 C 169.710938 317.742188 170.742188 318.027344 171.78125 318.289062 C 172.820312 318.546875 173.867188 318.78125 174.914062 318.988281 C 175.964844 319.199219 177.019531 319.382812 178.078125 319.539062 C 179.136719 319.695312 180.199219 319.824219 181.265625 319.929688 C 182.332031 320.035156 183.398438 320.113281 184.46875 320.167969 C 185.539062 320.21875 186.605469 320.246094 187.679688 320.246094 C 188.75 320.242188 189.816406 320.214844 190.886719 320.164062 C 191.957031 320.109375 193.023438 320.03125 194.085938 319.925781 C 195.152344 319.816406 196.214844 319.6875 197.273438 319.527344 C 198.332031 319.371094 199.386719 319.1875 200.433594 318.976562 C 201.484375 318.769531 202.527344 318.535156 203.566406 318.273438 C 204.605469 318.011719 205.636719 317.726562 206.660156 317.417969 C 207.683594 317.105469 208.699219 316.769531 209.707031 316.410156 C 210.714844 316.046875 211.710938 315.664062 212.699219 315.253906 C 213.691406 314.84375 214.667969 314.410156 215.632812 313.953125 C 216.601562 313.496094 217.558594 313.015625 218.5 312.511719 C 219.445312 312.007812 220.375 311.480469 221.292969 310.929688 C 222.210938 310.382812 223.113281 309.808594 224.003906 309.214844 C 224.894531 308.621094 225.769531 308.007812 226.628906 307.371094 C 227.488281 306.734375 228.332031 306.078125 229.160156 305.398438 C 229.984375 304.71875 230.796875 304.023438 231.589844 303.304688 C 232.382812 302.585938 233.15625 301.851562 233.914062 301.09375 C 234.671875 300.339844 235.410156 299.566406 236.128906 298.773438 C 236.847656 297.984375 237.546875 297.175781 238.222656 296.347656 C 238.902344 295.523438 239.5625 294.679688 240.199219 293.824219 C 240.835938 292.964844 241.453125 292.089844 242.046875 291.203125 C 242.644531 290.316406 243.214844 289.414062 243.765625 288.496094 C 244.316406 287.578125 244.84375 286.652344 245.351562 285.707031 C 245.855469 284.765625 246.335938 283.8125 246.792969 282.847656 C 247.253906 281.882812 247.6875 280.90625 248.097656 279.917969 C 248.507812 278.929688 248.890625 277.933594 249.253906 276.929688 C 249.613281 275.921875 249.953125 274.910156 250.261719 273.886719 C 250.574219 272.863281 250.859375 271.835938 251.121094 270.796875 C 251.382812 269.761719 251.617188 268.71875 251.828125 267.671875 C 252.035156 266.625 252.21875 265.574219 252.378906 264.515625 C 252.535156 263.457031 252.667969 262.398438 252.773438 261.335938 C 252.878906 260.273438 252.960938 259.207031 253.011719 258.140625 C 253.066406 257.074219 253.09375 256.003906 253.097656 254.9375 Z M 130.980469 254.9375 C 130.980469 253.082031 131.074219 251.234375 131.253906 249.390625 C 131.4375 247.542969 131.710938 245.710938 132.070312 243.894531 C 132.433594 242.078125 132.882812 240.28125 133.421875 238.507812 C 133.960938 236.730469 134.585938 234.988281 135.296875 233.277344 C 136.007812 231.5625 136.800781 229.890625 137.675781 228.253906 C 138.550781 226.621094 139.503906 225.03125 140.535156 223.492188 C 141.570312 221.949219 142.671875 220.460938 143.851562 219.03125 C 145.03125 217.597656 146.273438 216.226562 147.589844 214.914062 C 148.902344 213.601562 150.273438 212.359375 151.710938 211.183594 C 153.144531 210.007812 154.636719 208.90625 156.179688 207.875 C 157.722656 206.84375 159.3125 205.894531 160.953125 205.019531 C 162.589844 204.144531 164.265625 203.355469 165.980469 202.644531 C 167.695312 201.933594 169.441406 201.3125 171.21875 200.773438 C 172.996094 200.234375 174.796875 199.785156 176.617188 199.421875 C 178.4375 199.0625 180.273438 198.789062 182.121094 198.609375 C 183.96875 198.425781 185.820312 198.335938 187.679688 198.335938 C 189.535156 198.335938 191.386719 198.425781 193.234375 198.609375 C 195.082031 198.789062 196.917969 199.0625 198.738281 199.421875 C 200.558594 199.785156 202.359375 200.234375 204.136719 200.773438 C 205.914062 201.3125 207.660156 201.933594 209.375 202.644531 C 211.089844 203.355469 212.765625 204.144531 214.402344 205.019531 C 216.042969 205.894531 217.632812 206.84375 219.175781 207.875 C 220.71875 208.90625 222.210938 210.007812 223.644531 211.183594 C 225.082031 212.359375 226.453125 213.601562 227.769531 214.914062 C 229.082031 216.226562 230.324219 217.597656 231.503906 219.03125 C 232.683594 220.460938 233.785156 221.949219 234.820312 223.492188 C 235.851562 225.03125 236.804688 226.621094 237.679688 228.253906 C 238.554688 229.890625 239.347656 231.5625 240.058594 233.277344 C 240.769531 234.988281 241.394531 236.730469 241.933594 238.507812 C 242.472656 240.28125 242.921875 242.078125 243.285156 243.894531 C 243.644531 245.710938 243.917969 247.542969 244.101562 249.390625 C 244.28125 251.234375 244.375 253.082031 244.375 254.9375 C 244.375 256.789062 244.28125 258.640625 244.101562 260.484375 C 243.917969 262.328125 243.644531 264.160156 243.285156 265.980469 C 242.921875 267.796875 242.472656 269.59375 241.933594 271.367188 C 241.394531 273.140625 240.769531 274.882812 240.058594 276.597656 C 239.347656 278.308594 238.554688 279.984375 237.679688 281.617188 C 236.804688 283.253906 235.851562 284.839844 234.820312 286.382812 C 233.785156 287.921875 232.683594 289.410156 231.503906 290.84375 C 230.324219 292.277344 229.082031 293.648438 227.769531 294.960938 C 226.453125 296.269531 225.082031 297.511719 223.644531 298.691406 C 222.210938 299.867188 220.71875 300.96875 219.175781 302 C 217.632812 303.027344 216.042969 303.980469 214.402344 304.855469 C 212.765625 305.726562 211.089844 306.519531 209.375 307.230469 C 207.660156 307.9375 205.914062 308.5625 204.136719 309.101562 C 202.359375 309.636719 200.558594 310.089844 198.738281 310.449219 C 196.917969 310.8125 195.082031 311.082031 193.234375 311.265625 C 191.386719 311.445312 189.535156 311.539062 187.679688 311.539062 C 185.820312 311.535156 183.96875 311.441406 182.121094 311.257812 C 180.277344 311.074219 178.441406 310.800781 176.621094 310.4375 C 174.800781 310.078125 173.003906 309.625 171.226562 309.085938 C 169.449219 308.546875 167.707031 307.921875 165.992188 307.210938 C 164.277344 306.5 162.601562 305.710938 160.964844 304.835938 C 159.328125 303.960938 157.738281 303.007812 156.195312 301.980469 C 154.652344 300.949219 153.164062 299.847656 151.726562 298.671875 C 150.292969 297.496094 148.917969 296.25 147.605469 294.941406 C 146.292969 293.628906 145.046875 292.257812 143.871094 290.828125 C 142.691406 289.394531 141.589844 287.90625 140.554688 286.367188 C 139.523438 284.828125 138.570312 283.238281 137.695312 281.605469 C 136.820312 279.972656 136.027344 278.296875 135.316406 276.585938 C 134.601562 274.875 133.976562 273.132812 133.4375 271.359375 C 132.898438 269.585938 132.445312 267.792969 132.082031 265.972656 C 131.71875 264.15625 131.445312 262.328125 131.261719 260.484375 C 131.078125 258.636719 130.984375 256.789062 130.980469 254.9375 Z M 130.980469 254.9375 " clip-rule="nonzero"/></clipPath><linearGradient x1="256" gradientTransform="matrix(0.726867, 0, 0, 0.725649, 1.599881, 1.68503)" y1="438.999969" x2="256" gradientUnits="userSpaceOnUse" y2="258.999973" id="id6"><stop stop-opacity="1" stop-color="rgb(63.09967%, 38.798523%, 96.099854%)" offset="0"/><stop stop-opacity="1" stop-color="rgb(63.09967%, 38.798523%, 96.099854%)" offset="0.5"/><stop stop-opacity="1" stop-color="rgb(63.217163%, 38.9328%, 96.043396%)" offset="0.5625"/><stop stop-opacity="1" stop-color="rgb(63.467407%, 39.216614%, 95.924377%)" offset="0.578125"/><stop stop-opacity="1" stop-color="rgb(63.73291%, 39.518738%, 95.797729%)" offset="0.59375"/><stop stop-opacity="1" stop-color="rgb(63.998413%, 39.820862%, 95.672607%)" offset="0.609375"/><stop stop-opacity="1" stop-color="rgb(64.263916%, 40.12146%, 95.545959%)" offset="0.625"/><stop stop-opacity="1" stop-color="rgb(64.529419%, 40.423584%, 95.419312%)" offset="0.640625"/><stop stop-opacity="1" stop-color="rgb(64.794922%, 40.724182%, 95.294189%)" offset="0.65625"/><stop stop-opacity="1" stop-color="rgb(65.060425%, 41.026306%, 95.167542%)" offset="0.671875"/><stop stop-opacity="1" stop-color="rgb(65.325928%, 41.32843%, 95.042419%)" offset="0.6875"/><stop stop-opacity="1" stop-color="rgb(65.591431%, 41.629028%, 94.915771%)" offset="0.703125"/><stop stop-opacity="1" stop-color="rgb(65.856934%, 41.931152%, 94.790649%)" offset="0.71875"/><stop stop-opacity="1" stop-color="rgb(66.122437%, 42.23175%, 94.664001%)" offset="0.734375"/><stop stop-opacity="1" stop-color="rgb(66.387939%, 42.533875%, 94.537354%)" offset="0.75"/><stop stop-opacity="1" stop-color="rgb(66.653442%, 42.835999%, 94.412231%)" offset="0.765625"/><stop stop-opacity="1" stop-color="rgb(66.918945%, 43.136597%, 94.285583%)" offset="0.78125"/><stop stop-opacity="1" stop-color="rgb(67.184448%, 43.438721%, 94.160461%)" offset="0.796875"/><stop stop-opacity="1" stop-color="rgb(67.449951%, 43.739319%, 94.033813%)" offset="0.8125"/><stop stop-opacity="1" stop-color="rgb(67.715454%, 44.041443%, 93.907166%)" offset="0.828125"/><stop stop-opacity="1" stop-color="rgb(67.980957%, 44.343567%, 93.782043%)" offset="0.84375"/><stop stop-opacity="1" stop-color="rgb(68.24646%, 44.644165%, 93.655396%)" offset="0.859375"/><stop stop-opacity="1" stop-color="rgb(68.511963%, 44.946289%, 93.530273%)" offset="0.875"/><stop stop-opacity="1" stop-color="rgb(68.777466%, 45.246887%, 93.403625%)" offset="0.890625"/><stop stop-opacity="1" stop-color="rgb(69.073486%, 45.581055%, 93.269348%)" offset="0.90625"/><stop stop-opacity="1" stop-color="rgb(69.325256%, 45.863342%, 93.161011%)" offset="0.914062"/><stop stop-opacity="1" stop-color="rgb(69.502258%, 46.063232%, 93.086243%)" offset="0.921875"/><stop stop-opacity="1" stop-color="rgb(69.680786%, 46.263123%, 93.011475%)" offset="0.929688"/><stop stop-opacity="1" stop-color="rgb(69.857788%, 46.461487%, 92.936707%)" offset="0.9375"/><stop stop-opacity="1" stop-color="rgb(70.036316%, 46.661377%, 92.861938%)" offset="0.945312"/><stop stop-opacity="1" stop-color="rgb(70.213318%, 46.861267%, 92.78717%)" offset="0.953125"/><stop stop-opacity="1" stop-color="rgb(70.391846%, 47.059631%, 92.712402%)" offset="0.960938"/><stop stop-opacity="1" stop-color="rgb(70.570374%, 47.259521%, 92.637634%)" offset="0.96875"/><stop stop-opacity="1" stop-color="rgb(70.747375%, 47.459412%, 92.562866%)" offset="0.976562"/><stop stop-opacity="1" stop-color="rgb(70.925903%, 47.657776%, 92.488098%)" offset="0.984375"/><stop stop-opacity="1" stop-color="rgb(71.102905%, 47.857666%, 92.41333%)" offset="0.992187"/><stop stop-opacity="1" stop-color="rgb(71.281433%, 48.057556%, 92.338562%)" offset="1"/></linearGradient><clipPath id="id7"><path d="M 76 177 L 86 177 L 86 190 L 76 190 Z M 76 177 " clip-rule="nonzero"/></clipPath><clipPath id="id8"><path d="M 80.828125 189.675781 C 81.113281 189.675781 81.398438 189.648438 81.679688 189.59375 C 81.960938 189.535156 82.234375 189.453125 82.496094 189.34375 C 82.761719 189.234375 83.011719 189.101562 83.25 188.941406 C 83.488281 188.785156 83.710938 188.601562 83.914062 188.402344 C 84.113281 188.199219 84.296875 187.980469 84.453125 187.742188 C 84.613281 187.503906 84.746094 187.253906 84.859375 186.988281 C 84.96875 186.722656 85.050781 186.453125 85.105469 186.171875 C 85.160156 185.890625 85.191406 185.609375 85.191406 185.320312 L 85.191406 181.976562 C 85.191406 181.691406 85.160156 181.40625 85.105469 181.128906 C 85.050781 180.847656 84.96875 180.574219 84.859375 180.3125 C 84.746094 180.046875 84.613281 179.796875 84.453125 179.558594 C 84.296875 179.320312 84.113281 179.101562 83.914062 178.898438 C 83.710938 178.695312 83.488281 178.515625 83.25 178.355469 C 83.011719 178.199219 82.761719 178.0625 82.496094 177.953125 C 82.234375 177.84375 81.960938 177.761719 81.679688 177.707031 C 81.398438 177.652344 81.113281 177.625 80.828125 177.625 C 80.542969 177.625 80.257812 177.652344 79.976562 177.707031 C 79.695312 177.761719 79.425781 177.84375 79.160156 177.953125 C 78.894531 178.0625 78.644531 178.199219 78.40625 178.355469 C 78.167969 178.515625 77.945312 178.695312 77.746094 178.898438 C 77.542969 179.101562 77.359375 179.320312 77.203125 179.558594 C 77.042969 179.796875 76.910156 180.046875 76.800781 180.3125 C 76.691406 180.574219 76.605469 180.847656 76.550781 181.128906 C 76.496094 181.40625 76.46875 181.691406 76.46875 181.976562 L 76.46875 185.320312 C 76.46875 185.609375 76.496094 185.890625 76.550781 186.171875 C 76.605469 186.453125 76.691406 186.722656 76.800781 186.988281 C 76.910156 187.253906 77.042969 187.503906 77.203125 187.742188 C 77.359375 187.980469 77.542969 188.199219 77.746094 188.402344 C 77.945312 188.601562 78.167969 188.785156 78.40625 188.941406 C 78.644531 189.101562 78.894531 189.234375 79.160156 189.34375 C 79.425781 189.453125 79.695312 189.535156 79.976562 189.59375 C 80.257812 189.648438 80.542969 189.675781 80.828125 189.675781 Z M 80.828125 189.675781 " clip-rule="nonzero"/></clipPath><linearGradient x1="109" gradientTransform="matrix(0.726867, 0, 0, 0.725649, 1.599881, 1.68503)" y1="259.065983" x2="109" gradientUnits="userSpaceOnUse" y2="242.455993" id="id9"><stop stop-opacity="1" stop-color="rgb(71.362305%, 48.147583%, 92.306519%)" offset="0"/><stop stop-opacity="1" stop-color="rgb(71.49353%, 48.294067%, 92.250061%)" offset="0.125"/><stop stop-opacity="1" stop-color="rgb(71.755981%, 48.588562%, 92.140198%)" offset="0.25"/><stop stop-opacity="1" stop-color="rgb(72.018433%, 48.883057%, 92.030334%)" offset="0.375"/><stop stop-opacity="1" stop-color="rgb(72.280884%, 49.177551%, 91.918945%)" offset="0.5"/><stop stop-opacity="1" stop-color="rgb(72.543335%, 49.472046%, 91.809082%)" offset="0.625"/><stop stop-opacity="1" stop-color="rgb(72.805786%, 49.766541%, 91.699219%)" offset="0.75"/><stop stop-opacity="1" stop-color="rgb(73.068237%, 50.061035%, 91.58783%)" offset="0.875"/><stop stop-opacity="1" stop-color="rgb(73.332214%, 50.35553%, 91.477966%)" offset="1"/></linearGradient><clipPath id="id10"><path d="M 76 196 L 86 196 L 86 242 L 76 242 Z M 76 196 " clip-rule="nonzero"/></clipPath><clipPath id="id11"><path d="M 76.46875 236.691406 C 76.46875 236.976562 76.496094 237.257812 76.550781 237.539062 C 76.605469 237.820312 76.691406 238.09375 76.800781 238.355469 C 76.910156 238.621094 77.042969 238.871094 77.203125 239.109375 C 77.359375 239.347656 77.542969 239.566406 77.746094 239.769531 C 77.945312 239.972656 78.167969 240.152344 78.40625 240.308594 C 78.644531 240.46875 78.894531 240.601562 79.160156 240.710938 C 79.425781 240.820312 79.695312 240.90625 79.976562 240.960938 C 80.257812 241.015625 80.542969 241.042969 80.828125 241.042969 C 81.113281 241.042969 81.398438 241.015625 81.679688 240.960938 C 81.960938 240.90625 82.234375 240.820312 82.496094 240.710938 C 82.761719 240.601562 83.011719 240.46875 83.25 240.308594 C 83.488281 240.152344 83.710938 239.972656 83.914062 239.769531 C 84.113281 239.566406 84.296875 239.347656 84.453125 239.109375 C 84.613281 238.871094 84.746094 238.621094 84.859375 238.355469 C 84.96875 238.09375 85.050781 237.820312 85.105469 237.539062 C 85.160156 237.257812 85.191406 236.976562 85.191406 236.691406 L 85.191406 200.601562 C 85.191406 200.316406 85.160156 200.03125 85.105469 199.753906 C 85.050781 199.472656 84.96875 199.199219 84.859375 198.9375 C 84.746094 198.671875 84.613281 198.421875 84.453125 198.183594 C 84.296875 197.945312 84.113281 197.726562 83.914062 197.523438 C 83.710938 197.320312 83.488281 197.140625 83.25 196.980469 C 83.011719 196.824219 82.761719 196.6875 82.496094 196.578125 C 82.234375 196.46875 81.960938 196.386719 81.679688 196.332031 C 81.398438 196.277344 81.113281 196.25 80.828125 196.25 C 80.542969 196.25 80.257812 196.277344 79.976562 196.332031 C 79.695312 196.386719 79.425781 196.46875 79.160156 196.578125 C 78.894531 196.6875 78.644531 196.824219 78.40625 196.980469 C 78.167969 197.140625 77.945312 197.320312 77.746094 197.523438 C 77.542969 197.726562 77.359375 197.945312 77.203125 198.183594 C 77.042969 198.421875 76.910156 198.671875 76.800781 198.9375 C 76.691406 199.199219 76.605469 199.472656 76.550781 199.753906 C 76.496094 200.03125 76.46875 200.316406 76.46875 200.601562 Z M 76.46875 236.691406 " clip-rule="nonzero"/></clipPath><linearGradient x1="109" gradientTransform="matrix(0.726867, 0, 0, 0.725649, 1.599881, 1.68503)" y1="329.855011" x2="109" gradientUnits="userSpaceOnUse" y2="268.123023" id="id12"><stop stop-opacity="1" stop-color="rgb(64.080811%, 39.91394%, 95.63446%)" offset="0"/><stop stop-opacity="1" stop-color="rgb(64.170837%, 40.016174%, 95.59021%)" offset="0.03125"/><stop stop-opacity="1" stop-color="rgb(64.352417%, 40.223694%, 95.503235%)" offset="0.0625"/><stop stop-opacity="1" stop-color="rgb(64.535522%, 40.429688%, 95.417786%)" offset="0.09375"/><stop stop-opacity="1" stop-color="rgb(64.717102%, 40.637207%, 95.330811%)" offset="0.125"/><stop stop-opacity="1" stop-color="rgb(64.898682%, 40.843201%, 95.243835%)" offset="0.15625"/><stop stop-opacity="1" stop-color="rgb(65.081787%, 41.05072%, 95.158386%)" offset="0.1875"/><stop stop-opacity="1" stop-color="rgb(65.263367%, 41.256714%, 95.071411%)" offset="0.21875"/><stop stop-opacity="1" stop-color="rgb(65.444946%, 41.464233%, 94.984436%)" offset="0.25"/><stop stop-opacity="1" stop-color="rgb(65.628052%, 41.670227%, 94.898987%)" offset="0.28125"/><stop stop-opacity="1" stop-color="rgb(65.809631%, 41.877747%, 94.812012%)" offset="0.3125"/><stop stop-opacity="1" stop-color="rgb(65.991211%, 42.08374%, 94.725037%)" offset="0.34375"/><stop stop-opacity="1" stop-color="rgb(66.174316%, 42.29126%, 94.639587%)" offset="0.375"/><stop stop-opacity="1" stop-color="rgb(66.355896%, 42.497253%, 94.552612%)" offset="0.40625"/><stop stop-opacity="1" stop-color="rgb(66.537476%, 42.704773%, 94.467163%)" offset="0.4375"/><stop stop-opacity="1" stop-color="rgb(66.720581%, 42.912292%, 94.380188%)" offset="0.46875"/><stop stop-opacity="1" stop-color="rgb(66.902161%, 43.118286%, 94.293213%)" offset="0.5"/><stop stop-opacity="1" stop-color="rgb(67.085266%, 43.325806%, 94.207764%)" offset="0.53125"/><stop stop-opacity="1" stop-color="rgb(67.266846%, 43.531799%, 94.120789%)" offset="0.5625"/><stop stop-opacity="1" stop-color="rgb(67.448425%, 43.739319%, 94.033813%)" offset="0.59375"/><stop stop-opacity="1" stop-color="rgb(67.631531%, 43.945312%, 93.948364%)" offset="0.625"/><stop stop-opacity="1" stop-color="rgb(67.81311%, 44.152832%, 93.861389%)" offset="0.65625"/><stop stop-opacity="1" stop-color="rgb(67.99469%, 44.358826%, 93.774414%)" offset="0.6875"/><stop stop-opacity="1" stop-color="rgb(68.177795%, 44.566345%, 93.688965%)" offset="0.71875"/><stop stop-opacity="1" stop-color="rgb(68.359375%, 44.772339%, 93.60199%)" offset="0.75"/><stop stop-opacity="1" stop-color="rgb(68.540955%, 44.979858%, 93.515015%)" offset="0.78125"/><stop stop-opacity="1" stop-color="rgb(68.72406%, 45.185852%, 93.429565%)" offset="0.8125"/><stop stop-opacity="1" stop-color="rgb(68.90564%, 45.393372%, 93.34259%)" offset="0.84375"/><stop stop-opacity="1" stop-color="rgb(69.119263%, 45.632935%, 93.247986%)" offset="0.875"/><stop stop-opacity="1" stop-color="rgb(69.361877%, 45.906067%, 93.145752%)" offset="0.90625"/><stop stop-opacity="1" stop-color="rgb(69.606018%, 46.179199%, 93.043518%)" offset="0.9375"/><stop stop-opacity="1" stop-color="rgb(69.850159%, 46.452332%, 92.941284%)" offset="0.96875"/><stop stop-opacity="1" stop-color="rgb(70.094299%, 46.72699%, 92.837524%)" offset="1"/></linearGradient><clipPath id="id13"><path d="M 57.554688 19.828125 L 317.804688 19.828125 L 317.804688 355.078125 L 57.554688 355.078125 Z M 57.554688 19.828125 " clip-rule="nonzero"/></clipPath><clipPath id="id14"><path d="M 298.886719 154.796875 L 286.53125 154.796875 L 286.53125 103.457031 C 286.53125 57.347656 249.207031 19.828125 203.023438 19.828125 L 172.324219 19.828125 C 126.140625 19.828125 88.824219 57.347656 88.824219 103.457031 L 88.824219 154.796875 L 76.46875 154.796875 C 75.847656 154.796875 75.230469 154.828125 74.613281 154.886719 C 74 154.949219 73.386719 155.039062 72.78125 155.160156 C 72.171875 155.28125 71.574219 155.429688 70.980469 155.609375 C 70.390625 155.789062 69.808594 155.996094 69.234375 156.234375 C 68.664062 156.46875 68.105469 156.734375 67.558594 157.023438 C 67.011719 157.316406 66.480469 157.632812 65.96875 157.976562 C 65.453125 158.320312 64.957031 158.6875 64.476562 159.078125 C 64 159.472656 63.542969 159.886719 63.105469 160.324219 C 62.667969 160.761719 62.25 161.21875 61.859375 161.695312 C 61.464844 162.171875 61.097656 162.667969 60.753906 163.183594 C 60.410156 163.695312 60.09375 164.226562 59.800781 164.769531 C 59.507812 165.316406 59.242188 165.871094 59.007812 166.445312 C 58.769531 167.015625 58.5625 167.597656 58.382812 168.1875 C 58.203125 168.777344 58.050781 169.378906 57.933594 169.984375 C 57.8125 170.589844 57.71875 171.199219 57.660156 171.816406 C 57.597656 172.429688 57.570312 173.046875 57.570312 173.664062 L 57.570312 191.804688 C 57.570312 192.089844 57.597656 192.375 57.652344 192.65625 C 57.707031 192.933594 57.789062 193.207031 57.902344 193.472656 C 58.011719 193.734375 58.144531 193.984375 58.304688 194.222656 C 58.460938 194.460938 58.644531 194.679688 58.847656 194.882812 C 59.046875 195.085938 59.269531 195.265625 59.507812 195.425781 C 59.746094 195.585938 59.996094 195.71875 60.261719 195.828125 C 60.527344 195.9375 60.796875 196.019531 61.078125 196.074219 C 61.359375 196.132812 61.644531 196.160156 61.929688 196.160156 C 62.214844 196.160156 62.5 196.132812 62.78125 196.074219 C 63.0625 196.019531 63.335938 195.9375 63.597656 195.828125 C 63.863281 195.71875 64.113281 195.585938 64.351562 195.425781 C 64.589844 195.265625 64.8125 195.085938 65.011719 194.882812 C 65.214844 194.679688 65.398438 194.460938 65.554688 194.222656 C 65.714844 193.984375 65.847656 193.734375 65.960938 193.472656 C 66.070312 193.207031 66.152344 192.933594 66.207031 192.65625 C 66.261719 192.375 66.292969 192.089844 66.292969 191.804688 L 66.292969 173.664062 C 66.292969 172.996094 66.355469 172.335938 66.488281 171.683594 C 66.617188 171.027344 66.808594 170.390625 67.066406 169.777344 C 67.320312 169.160156 67.636719 168.574219 68.007812 168.019531 C 68.378906 167.464844 68.800781 166.953125 69.273438 166.480469 C 69.742188 166.007812 70.257812 165.585938 70.8125 165.21875 C 71.371094 164.847656 71.957031 164.535156 72.574219 164.277344 C 73.191406 164.023438 73.828125 163.832031 74.480469 163.699219 C 75.136719 163.570312 75.800781 163.503906 76.46875 163.503906 L 298.886719 163.503906 C 299.554688 163.503906 300.21875 163.570312 300.875 163.699219 C 301.527344 163.832031 302.164062 164.023438 302.78125 164.277344 C 303.398438 164.535156 303.988281 164.847656 304.542969 165.21875 C 305.097656 165.585938 305.613281 166.007812 306.085938 166.480469 C 306.554688 166.953125 306.976562 167.464844 307.347656 168.019531 C 307.722656 168.574219 308.035156 169.160156 308.289062 169.777344 C 308.546875 170.390625 308.738281 171.027344 308.867188 171.683594 C 309 172.335938 309.066406 172.996094 309.066406 173.664062 L 309.066406 336.210938 C 309.066406 336.875 309 337.535156 308.867188 338.191406 C 308.738281 338.84375 308.546875 339.480469 308.289062 340.097656 C 308.035156 340.714844 307.722656 341.296875 307.347656 341.851562 C 306.976562 342.40625 306.554688 342.921875 306.085938 343.394531 C 305.613281 343.863281 305.097656 344.285156 304.542969 344.65625 C 303.988281 345.027344 303.398438 345.339844 302.78125 345.59375 C 302.164062 345.851562 301.527344 346.042969 300.875 346.171875 C 300.21875 346.304688 299.554688 346.367188 298.886719 346.367188 L 76.46875 346.367188 C 75.800781 346.367188 75.136719 346.304688 74.480469 346.171875 C 73.828125 346.042969 73.191406 345.851562 72.574219 345.59375 C 71.957031 345.339844 71.371094 345.027344 70.8125 344.65625 C 70.257812 344.285156 69.742188 343.863281 69.273438 343.394531 C 68.800781 342.921875 68.378906 342.40625 68.007812 341.851562 C 67.636719 341.296875 67.320312 340.714844 67.066406 340.097656 C 66.808594 339.480469 66.617188 338.84375 66.488281 338.191406 C 66.355469 337.535156 66.292969 336.875 66.292969 336.210938 L 66.292969 222.28125 C 66.292969 221.996094 66.261719 221.714844 66.207031 221.433594 C 66.152344 221.152344 66.070312 220.878906 65.960938 220.617188 C 65.847656 220.351562 65.714844 220.101562 65.554688 219.863281 C 65.398438 219.625 65.214844 219.40625 65.011719 219.203125 C 64.8125 219 64.589844 218.820312 64.351562 218.664062 C 64.113281 218.503906 63.863281 218.371094 63.597656 218.261719 C 63.335938 218.152344 63.0625 218.066406 62.78125 218.011719 C 62.5 217.957031 62.214844 217.929688 61.929688 217.929688 C 61.644531 217.929688 61.359375 217.957031 61.078125 218.011719 C 60.796875 218.066406 60.527344 218.152344 60.261719 218.261719 C 59.996094 218.371094 59.746094 218.503906 59.507812 218.664062 C 59.269531 218.820312 59.046875 219 58.847656 219.203125 C 58.644531 219.40625 58.460938 219.625 58.304688 219.863281 C 58.144531 220.101562 58.011719 220.351562 57.902344 220.617188 C 57.789062 220.878906 57.707031 221.152344 57.652344 221.433594 C 57.597656 221.714844 57.570312 221.996094 57.570312 222.28125 L 57.570312 336.210938 C 57.570312 336.828125 57.597656 337.445312 57.660156 338.058594 C 57.71875 338.671875 57.8125 339.285156 57.933594 339.890625 C 58.050781 340.496094 58.203125 341.09375 58.382812 341.6875 C 58.5625 342.277344 58.769531 342.859375 59.007812 343.429688 C 59.242188 344 59.507812 344.558594 59.800781 345.101562 C 60.09375 345.648438 60.410156 346.175781 60.753906 346.691406 C 61.097656 347.203125 61.464844 347.699219 61.859375 348.179688 C 62.25 348.65625 62.667969 349.113281 63.105469 349.550781 C 63.542969 349.988281 64 350.402344 64.476562 350.792969 C 64.957031 351.1875 65.453125 351.554688 65.96875 351.898438 C 66.480469 352.238281 67.011719 352.558594 67.558594 352.847656 C 68.105469 353.140625 68.664062 353.402344 69.234375 353.640625 C 69.808594 353.875 70.390625 354.085938 70.980469 354.265625 C 71.574219 354.441406 72.171875 354.59375 72.78125 354.714844 C 73.386719 354.835938 74 354.925781 74.613281 354.984375 C 75.230469 355.046875 75.847656 355.078125 76.46875 355.078125 L 298.886719 355.078125 C 299.507812 355.078125 300.125 355.046875 300.742188 354.984375 C 301.355469 354.925781 301.96875 354.835938 302.574219 354.714844 C 303.183594 354.59375 303.78125 354.441406 304.375 354.265625 C 304.964844 354.085938 305.546875 353.875 306.121094 353.640625 C 306.691406 353.402344 307.25 353.140625 307.796875 352.847656 C 308.34375 352.558594 308.875 352.238281 309.386719 351.898438 C 309.902344 351.554688 310.398438 351.1875 310.878906 350.792969 C 311.355469 350.402344 311.8125 349.988281 312.25 349.550781 C 312.6875 349.113281 313.105469 348.65625 313.496094 348.179688 C 313.890625 347.699219 314.257812 347.203125 314.601562 346.691406 C 314.945312 346.175781 315.261719 345.648438 315.554688 345.101562 C 315.847656 344.558594 316.113281 344 316.347656 343.429688 C 316.585938 342.859375 316.792969 342.277344 316.972656 341.6875 C 317.152344 341.09375 317.304688 340.496094 317.421875 339.890625 C 317.542969 339.285156 317.636719 338.671875 317.695312 338.058594 C 317.757812 337.445312 317.785156 336.828125 317.785156 336.210938 L 317.785156 173.664062 C 317.785156 173.046875 317.757812 172.429688 317.695312 171.816406 C 317.636719 171.199219 317.542969 170.589844 317.421875 169.984375 C 317.304688 169.378906 317.152344 168.777344 316.972656 168.1875 C 316.792969 167.597656 316.585938 167.015625 316.347656 166.445312 C 316.113281 165.871094 315.847656 165.316406 315.554688 164.769531 C 315.261719 164.226562 314.945312 163.695312 314.601562 163.183594 C 314.257812 162.667969 313.890625 162.171875 313.496094 161.695312 C 313.105469 161.21875 312.6875 160.761719 312.25 160.324219 C 311.8125 159.886719 311.355469 159.472656 310.878906 159.078125 C 310.398438 158.6875 309.902344 158.320312 309.386719 157.976562 C 308.875 157.632812 308.34375 157.316406 307.796875 157.023438 C 307.25 156.734375 306.691406 156.46875 306.121094 156.234375 C 305.546875 155.996094 304.964844 155.789062 304.375 155.609375 C 303.78125 155.429688 303.183594 155.28125 302.574219 155.160156 C 301.96875 155.039062 301.355469 154.949219 300.742188 154.886719 C 300.125 154.828125 299.507812 154.796875 298.886719 154.796875 Z M 174.59375 28.535156 L 200.761719 28.535156 L 200.761719 56.59375 C 199.308594 56.542969 198.71875 56.835938 197.765625 56.835938 L 179.4375 56.835938 C 177.855469 56.835938 176.046875 56.601562 174.59375 56.738281 Z M 126.621094 154.796875 L 97.546875 154.796875 L 97.546875 103.457031 C 97.546875 64.265625 127.347656 32.011719 165.871094 28.808594 L 165.871094 58.25 C 164.476562 58.625 163.097656 59.058594 161.734375 59.546875 C 160.375 60.03125 159.035156 60.574219 157.71875 61.171875 C 156.402344 61.769531 155.113281 62.417969 153.851562 63.121094 C 152.589844 63.824219 151.355469 64.578125 150.152344 65.378906 C 148.953125 66.183594 147.785156 67.035156 146.652344 67.933594 C 145.523438 68.832031 144.429688 69.773438 143.375 70.761719 C 142.320312 71.75 141.308594 72.777344 140.335938 73.847656 C 139.367188 74.917969 138.441406 76.027344 137.5625 77.175781 C 136.683594 78.320312 135.851562 79.5 135.070312 80.714844 C 134.285156 81.929688 133.554688 83.171875 132.871094 84.445312 C 132.191406 85.71875 131.5625 87.019531 130.988281 88.34375 C 130.414062 89.671875 129.894531 91.015625 129.429688 92.382812 C 128.964844 93.753906 128.558594 95.136719 128.207031 96.539062 C 127.855469 97.9375 127.5625 99.351562 127.328125 100.777344 C 127.09375 102.199219 126.917969 103.632812 126.796875 105.074219 C 126.679688 106.511719 126.621094 107.953125 126.621094 109.398438 Z M 242.191406 154.796875 L 135.34375 154.796875 L 135.34375 109.402344 C 135.34375 107.960938 135.414062 106.527344 135.554688 105.09375 C 135.699219 103.660156 135.910156 102.238281 136.191406 100.824219 C 136.472656 99.414062 136.824219 98.019531 137.246094 96.640625 C 137.664062 95.265625 138.152344 93.910156 138.703125 92.582031 C 139.257812 91.25 139.875 89.949219 140.554688 88.683594 C 141.238281 87.414062 141.980469 86.179688 142.78125 84.984375 C 143.585938 83.789062 144.445312 82.632812 145.363281 81.523438 C 146.277344 80.410156 147.246094 79.347656 148.269531 78.332031 C 149.292969 77.316406 150.359375 76.351562 151.476562 75.441406 C 152.59375 74.527344 153.753906 73.675781 154.953125 72.878906 C 156.15625 72.082031 157.394531 71.34375 158.667969 70.667969 C 159.941406 69.992188 161.242188 69.382812 162.578125 68.835938 C 163.914062 68.285156 165.269531 67.804688 166.652344 67.390625 C 168.03125 66.980469 169.429688 66.632812 170.847656 66.355469 C 172.261719 66.082031 173.6875 65.875 175.125 65.738281 C 176.558594 65.601562 178 65.535156 179.441406 65.542969 L 197.757812 65.542969 C 222.136719 65.542969 242.191406 85.070312 242.191406 109.398438 Z M 277.808594 154.796875 L 250.914062 154.796875 L 250.914062 109.394531 C 250.914062 84.230469 232.742188 63.117188 209.484375 57.8125 L 209.484375 28.808594 C 248.007812 32.015625 277.808594 64.269531 277.808594 103.457031 Z M 277.808594 154.796875 " clip-rule="nonzero"/></clipPath><linearGradient x1="256" gradientTransform="matrix(0.726867, 0, 0, 0.725649, 1.599881, 1.68503)" y1="486.999967" x2="256" gradientUnits="userSpaceOnUse" y2="24.999982" id="id15"><stop stop-opacity="1" stop-color="rgb(63.09967%, 38.798523%, 96.099854%)" offset="0"/><stop stop-opacity="1" stop-color="rgb(63.09967%, 38.798523%, 96.099854%)" offset="0.25"/><stop stop-opacity="1" stop-color="rgb(63.09967%, 38.798523%, 96.099854%)" offset="0.3125"/><stop stop-opacity="1" stop-color="rgb(63.157654%, 38.864136%, 96.070862%)" offset="0.320312"/><stop stop-opacity="1" stop-color="rgb(63.38501%, 39.125061%, 95.962524%)" offset="0.328125"/><stop stop-opacity="1" stop-color="rgb(63.725281%, 39.511108%, 95.800781%)" offset="0.335938"/><stop stop-opacity="1" stop-color="rgb(64.067078%, 39.898682%, 95.640564%)" offset="0.34375"/><stop stop-opacity="1" stop-color="rgb(64.407349%, 40.284729%, 95.478821%)" offset="0.351563"/><stop stop-opacity="1" stop-color="rgb(64.74762%, 40.672302%, 95.317078%)" offset="0.359375"/><stop stop-opacity="1" stop-color="rgb(65.089417%, 41.05835%, 95.155334%)" offset="0.367188"/><stop stop-opacity="1" stop-color="rgb(65.429688%, 41.445923%, 94.993591%)" offset="0.375"/><stop stop-opacity="1" stop-color="rgb(65.769958%, 41.833496%, 94.831848%)" offset="0.382813"/><stop stop-opacity="1" stop-color="rgb(66.111755%, 42.219543%, 94.670105%)" offset="0.390625"/><stop stop-opacity="1" stop-color="rgb(66.452026%, 42.607117%, 94.508362%)" offset="0.398438"/><stop stop-opacity="1" stop-color="rgb(66.792297%, 42.993164%, 94.346619%)" offset="0.40625"/><stop stop-opacity="1" stop-color="rgb(67.132568%, 43.380737%, 94.184875%)" offset="0.414063"/><stop stop-opacity="1" stop-color="rgb(67.474365%, 43.766785%, 94.023132%)" offset="0.421875"/><stop stop-opacity="1" stop-color="rgb(67.814636%, 44.154358%, 93.861389%)" offset="0.429688"/><stop stop-opacity="1" stop-color="rgb(68.154907%, 44.541931%, 93.699646%)" offset="0.4375"/><stop stop-opacity="1" stop-color="rgb(68.496704%, 44.927979%, 93.537903%)" offset="0.445312"/><stop stop-opacity="1" stop-color="rgb(68.838501%, 45.317078%, 93.374634%)" offset="0.453125"/><stop stop-opacity="1" stop-color="rgb(69.238281%, 45.767212%, 93.197632%)" offset="0.457031"/><stop stop-opacity="1" stop-color="rgb(69.467163%, 46.02356%, 93.103027%)" offset="0.460938"/><stop stop-opacity="1" stop-color="rgb(69.694519%, 46.279907%, 93.006897%)" offset="0.464844"/><stop stop-opacity="1" stop-color="rgb(69.923401%, 46.536255%, 92.910767%)" offset="0.46875"/><stop stop-opacity="1" stop-color="rgb(70.150757%, 46.791077%, 92.814636%)" offset="0.472656"/><stop stop-opacity="1" stop-color="rgb(70.379639%, 47.047424%, 92.718506%)" offset="0.476562"/><stop stop-opacity="1" stop-color="rgb(70.608521%, 47.302246%, 92.622375%)" offset="0.480469"/><stop stop-opacity="1" stop-color="rgb(70.837402%, 47.558594%, 92.526245%)" offset="0.484375"/><stop stop-opacity="1" stop-color="rgb(71.064758%, 47.814941%, 92.430115%)" offset="0.488281"/><stop stop-opacity="1" stop-color="rgb(71.29364%, 48.071289%, 92.33551%)" offset="0.492188"/><stop stop-opacity="1" stop-color="rgb(71.520996%, 48.326111%, 92.23938%)" offset="0.496094"/><stop stop-opacity="1" stop-color="rgb(71.749878%, 48.582458%, 92.14325%)" offset="0.5"/><stop stop-opacity="1" stop-color="rgb(71.977234%, 48.838806%, 92.047119%)" offset="0.503906"/><stop stop-opacity="1" stop-color="rgb(72.206116%, 49.095154%, 91.950989%)" offset="0.507812"/><stop stop-opacity="1" stop-color="rgb(72.433472%, 49.349976%, 91.854858%)" offset="0.511719"/><stop stop-opacity="1" stop-color="rgb(72.662354%, 49.606323%, 91.758728%)" offset="0.515625"/><stop stop-opacity="1" stop-color="rgb(72.891235%, 49.861145%, 91.662598%)" offset="0.519531"/><stop stop-opacity="1" stop-color="rgb(73.120117%, 50.117493%, 91.566467%)" offset="0.523438"/><stop stop-opacity="1" stop-color="rgb(73.347473%, 50.37384%, 91.470337%)" offset="0.527344"/><stop stop-opacity="1" stop-color="rgb(73.576355%, 50.630188%, 91.375732%)" offset="0.53125"/><stop stop-opacity="1" stop-color="rgb(73.803711%, 50.88501%, 91.279602%)" offset="0.535156"/><stop stop-opacity="1" stop-color="rgb(74.032593%, 51.141357%, 91.183472%)" offset="0.539062"/><stop stop-opacity="1" stop-color="rgb(74.259949%, 51.397705%, 91.087341%)" offset="0.542969"/><stop stop-opacity="1" stop-color="rgb(74.488831%, 51.654053%, 90.991211%)" offset="0.546875"/><stop stop-opacity="1" stop-color="rgb(74.716187%, 51.908875%, 90.895081%)" offset="0.550781"/><stop stop-opacity="1" stop-color="rgb(74.945068%, 52.165222%, 90.79895%)" offset="0.554688"/><stop stop-opacity="1" stop-color="rgb(75.172424%, 52.420044%, 90.70282%)" offset="0.558594"/><stop stop-opacity="1" stop-color="rgb(75.401306%, 52.676392%, 90.608215%)" offset="0.5625"/><stop stop-opacity="1" stop-color="rgb(75.630188%, 52.932739%, 90.512085%)" offset="0.566406"/><stop stop-opacity="1" stop-color="rgb(75.85907%, 53.189087%, 90.415955%)" offset="0.570313"/><stop stop-opacity="1" stop-color="rgb(76.086426%, 53.443909%, 90.319824%)" offset="0.574219"/><stop stop-opacity="1" stop-color="rgb(76.315308%, 53.700256%, 90.223694%)" offset="0.578125"/><stop stop-opacity="1" stop-color="rgb(76.542664%, 53.956604%, 90.127563%)" offset="0.582031"/><stop stop-opacity="1" stop-color="rgb(76.771545%, 54.212952%, 90.031433%)" offset="0.585938"/><stop stop-opacity="1" stop-color="rgb(76.998901%, 54.467773%, 89.935303%)" offset="0.589844"/><stop stop-opacity="1" stop-color="rgb(77.227783%, 54.724121%, 89.840698%)" offset="0.59375"/><stop stop-opacity="1" stop-color="rgb(77.455139%, 54.978943%, 89.744568%)" offset="0.597656"/><stop stop-opacity="1" stop-color="rgb(77.684021%, 55.235291%, 89.648438%)" offset="0.601563"/><stop stop-opacity="1" stop-color="rgb(77.912903%, 55.491638%, 89.552307%)" offset="0.605469"/><stop stop-opacity="1" stop-color="rgb(78.141785%, 55.747986%, 89.456177%)" offset="0.609375"/><stop stop-opacity="1" stop-color="rgb(78.369141%, 56.002808%, 89.360046%)" offset="0.613281"/><stop stop-opacity="1" stop-color="rgb(78.598022%, 56.259155%, 89.263916%)" offset="0.617188"/><stop stop-opacity="1" stop-color="rgb(78.825378%, 56.513977%, 89.167786%)" offset="0.621094"/><stop stop-opacity="1" stop-color="rgb(79.05426%, 56.770325%, 89.071655%)" offset="0.625"/><stop stop-opacity="1" stop-color="rgb(79.281616%, 57.026672%, 88.975525%)" offset="0.628906"/><stop stop-opacity="1" stop-color="rgb(79.510498%, 57.28302%, 88.88092%)" offset="0.632812"/><stop stop-opacity="1" stop-color="rgb(79.737854%, 57.537842%, 88.78479%)" offset="0.636719"/><stop stop-opacity="1" stop-color="rgb(79.966736%, 57.794189%, 88.68866%)" offset="0.640625"/><stop stop-opacity="1" stop-color="rgb(80.195618%, 58.050537%, 88.592529%)" offset="0.644531"/><stop stop-opacity="1" stop-color="rgb(80.4245%, 58.306885%, 88.496399%)" offset="0.648437"/><stop stop-opacity="1" stop-color="rgb(80.651855%, 58.561707%, 88.400269%)" offset="0.652344"/><stop stop-opacity="1" stop-color="rgb(80.880737%, 58.818054%, 88.304138%)" offset="0.65625"/><stop stop-opacity="1" stop-color="rgb(81.108093%, 59.072876%, 88.208008%)" offset="0.660156"/><stop stop-opacity="1" stop-color="rgb(81.336975%, 59.329224%, 88.113403%)" offset="0.664062"/><stop stop-opacity="1" stop-color="rgb(81.564331%, 59.585571%, 88.017273%)" offset="0.667969"/><stop stop-opacity="1" stop-color="rgb(81.793213%, 59.841919%, 87.921143%)" offset="0.671875"/><stop stop-opacity="1" stop-color="rgb(82.020569%, 60.096741%, 87.825012%)" offset="0.675781"/><stop stop-opacity="1" stop-color="rgb(82.249451%, 60.353088%, 87.728882%)" offset="0.679687"/><stop stop-opacity="1" stop-color="rgb(82.476807%, 60.609436%, 87.632751%)" offset="0.683594"/><stop stop-opacity="1" stop-color="rgb(82.705688%, 60.865784%, 87.536621%)" offset="0.6875"/><stop stop-opacity="1" stop-color="rgb(82.93457%, 61.120605%, 87.440491%)" offset="0.691406"/><stop stop-opacity="1" stop-color="rgb(83.163452%, 61.376953%, 87.34436%)" offset="0.695312"/><stop stop-opacity="1" stop-color="rgb(83.390808%, 61.631775%, 87.24823%)" offset="0.699219"/><stop stop-opacity="1" stop-color="rgb(83.61969%, 61.888123%, 87.153625%)" offset="0.703125"/><stop stop-opacity="1" stop-color="rgb(83.847046%, 62.14447%, 87.057495%)" offset="0.707031"/><stop stop-opacity="1" stop-color="rgb(84.075928%, 62.400818%, 86.961365%)" offset="0.710938"/><stop stop-opacity="1" stop-color="rgb(84.303284%, 62.65564%, 86.865234%)" offset="0.714844"/><stop stop-opacity="1" stop-color="rgb(84.532166%, 62.911987%, 86.769104%)" offset="0.71875"/><stop stop-opacity="1" stop-color="rgb(84.777832%, 63.182068%, 86.660767%)" offset="0.722656"/><stop stop-opacity="1" stop-color="rgb(85.025024%, 63.453674%, 86.553955%)" offset="0.726562"/><stop stop-opacity="1" stop-color="rgb(85.281372%, 63.73291%, 86.439514%)" offset="0.730469"/><stop stop-opacity="1" stop-color="rgb(85.53772%, 64.012146%, 86.326599%)" offset="0.734375"/><stop stop-opacity="1" stop-color="rgb(85.794067%, 64.291382%, 86.212158%)" offset="0.738281"/><stop stop-opacity="1" stop-color="rgb(86.050415%, 64.570618%, 86.099243%)" offset="0.742188"/><stop stop-opacity="1" stop-color="rgb(86.306763%, 64.848328%, 85.984802%)" offset="0.746094"/><stop stop-opacity="1" stop-color="rgb(86.56311%, 65.127563%, 85.871887%)" offset="0.75"/><stop stop-opacity="1" stop-color="rgb(86.819458%, 65.406799%, 85.757446%)" offset="0.753906"/><stop stop-opacity="1" stop-color="rgb(87.075806%, 65.686035%, 85.643005%)" offset="0.757812"/><stop stop-opacity="1" stop-color="rgb(87.332153%, 65.965271%, 85.528564%)" offset="0.761719"/><stop stop-opacity="1" stop-color="rgb(87.588501%, 66.244507%, 85.415649%)" offset="0.765625"/><stop stop-opacity="1" stop-color="rgb(87.843323%, 66.523743%, 85.301208%)" offset="0.769531"/><stop stop-opacity="1" stop-color="rgb(88.09967%, 66.802979%, 85.188293%)" offset="0.773438"/><stop stop-opacity="1" stop-color="rgb(88.356018%, 67.082214%, 85.073853%)" offset="0.777344"/><stop stop-opacity="1" stop-color="rgb(88.612366%, 67.36145%, 84.959412%)" offset="0.78125"/><stop stop-opacity="1" stop-color="rgb(88.868713%, 67.63916%, 84.844971%)" offset="0.785156"/><stop stop-opacity="1" stop-color="rgb(89.125061%, 67.918396%, 84.732056%)" offset="0.789062"/><stop stop-opacity="1" stop-color="rgb(89.381409%, 68.197632%, 84.617615%)" offset="0.792969"/><stop stop-opacity="1" stop-color="rgb(89.637756%, 68.476868%, 84.5047%)" offset="0.796875"/><stop stop-opacity="1" stop-color="rgb(89.894104%, 68.756104%, 84.390259%)" offset="0.800781"/><stop stop-opacity="1" stop-color="rgb(90.150452%, 69.035339%, 84.275818%)" offset="0.804688"/><stop stop-opacity="1" stop-color="rgb(90.406799%, 69.314575%, 84.161377%)" offset="0.808594"/><stop stop-opacity="1" stop-color="rgb(90.663147%, 69.593811%, 84.048462%)" offset="0.8125"/><stop stop-opacity="1" stop-color="rgb(90.919495%, 69.873047%, 83.934021%)" offset="0.816406"/><stop stop-opacity="1" stop-color="rgb(91.175842%, 70.152283%, 83.821106%)" offset="0.820313"/><stop stop-opacity="1" stop-color="rgb(91.43219%, 70.431519%, 83.706665%)" offset="0.824219"/><stop stop-opacity="1" stop-color="rgb(91.688538%, 70.710754%, 83.592224%)" offset="0.828125"/><stop stop-opacity="1" stop-color="rgb(91.944885%, 70.988464%, 83.477783%)" offset="0.832031"/><stop stop-opacity="1" stop-color="rgb(92.201233%, 71.2677%, 83.364868%)" offset="0.835938"/><stop stop-opacity="1" stop-color="rgb(92.457581%, 71.546936%, 83.250427%)" offset="0.839844"/><stop stop-opacity="1" stop-color="rgb(92.713928%, 71.826172%, 83.137512%)" offset="0.84375"/><stop stop-opacity="1" stop-color="rgb(92.970276%, 72.105408%, 83.023071%)" offset="0.847656"/><stop stop-opacity="1" stop-color="rgb(93.226624%, 72.384644%, 82.90863%)" offset="0.851563"/><stop stop-opacity="1" stop-color="rgb(93.463135%, 72.640991%, 82.803345%)" offset="0.855469"/><stop stop-opacity="1" stop-color="rgb(93.699646%, 72.898865%, 82.699585%)" offset="0.859375"/><stop stop-opacity="1" stop-color="rgb(93.699646%, 72.898865%, 82.699585%)" offset="0.875"/><stop stop-opacity="1" stop-color="rgb(93.699646%, 72.898865%, 82.699585%)" offset="1"/></linearGradient></defs><g clip-path="url(#id1)"><g clip-path="url(#id2)"><path fill="url(#id3)" d="M 166.859375 222.347656 L 166.859375 287.511719 L 208.425781 287.511719 L 208.425781 222.347656 Z M 166.859375 222.347656 " fill-rule="nonzero"/></g></g><g clip-path="url(#id4)"><g clip-path="url(#id5)"><path fill="url(#id6)" d="M 122.261719 189.628906 L 122.261719 320.246094 L 253.097656 320.246094 L 253.097656 189.628906 Z M 122.261719 189.628906 " fill-rule="nonzero"/></g></g><g clip-path="url(#id7)"><g clip-path="url(#id8)"><path fill="url(#id9)" d="M 76.46875 177.625 L 76.46875 189.675781 L 85.191406 189.675781 L 85.191406 177.625 Z M 76.46875 177.625 " fill-rule="nonzero"/></g></g><g clip-path="url(#id10)"><g clip-path="url(#id11)"><path fill="url(#id12)" d="M 76.46875 196.25 L 76.46875 241.042969 L 85.191406 241.042969 L 85.191406 196.25 Z M 76.46875 196.25 " fill-rule="nonzero"/></g></g><g clip-path="url(#id13)"><g clip-path="url(#id14)"><path fill="url(#id15)" d="M 57.570312 19.828125 L 57.570312 355.078125 L 317.785156 355.078125 L 317.785156 19.828125 Z M 57.570312 19.828125 " fill-rule="nonzero"/></g></g></svg>