<svg xmlns="http://www.w3.org/2000/svg" xmlns:xlink="http://www.w3.org/1999/xlink" width="500" zoomAndPan="magnify" viewBox="0 0 375 374.999991" height="500" preserveAspectRatio="xMidYMid meet" version="1.0"><path fill="#1ed660" d="M 187.390625 324.761719 C 112.621094 325.320312 48.855469 264.089844 49.785156 185.738281 C 50.71875 110.738281 112.4375 49.320312 189.441406 50.4375 C 265.703125 51.554688 326.300781 114.644531 324.621094 190.390625 C 323.316406 264.648438 262.347656 325.136719 187.390625 324.761719 Z M 168.933594 123.019531 C 156.066406 123.019531 144.691406 123.765625 133.503906 125.066406 C 122.691406 126.371094 112.0625 128.417969 101.621094 131.582031 C 95.839844 133.441406 91.738281 139.210938 92.484375 144.609375 C 93.605469 153.542969 101.0625 158.382812 109.824219 155.777344 C 119.335938 152.984375 128.84375 151.125 138.726562 150.007812 C 152.523438 148.332031 166.320312 147.960938 180.121094 148.703125 C 192.796875 149.261719 205.476562 150.75 217.96875 153.355469 C 236.054688 157.078125 253.398438 162.847656 269.433594 172.152344 C 274.464844 175.132812 280.992188 173.828125 284.90625 169.363281 C 290.316406 163.40625 289.011719 154.101562 281.925781 149.820312 C 271.855469 143.679688 261.042969 139.027344 249.667969 135.304688 C 222.816406 126.742188 195.222656 123.207031 168.933594 123.019531 Z M 163.898438 191.695312 C 173.40625 191.695312 182.730469 192.441406 192.050781 193.742188 C 213.496094 196.90625 233.820312 203.234375 252.464844 214.402344 C 254.328125 215.515625 256.378906 216.074219 258.617188 215.890625 C 263.464844 215.515625 267.195312 212.351562 268.3125 207.699219 C 269.433594 203.046875 267.566406 198.582031 263.277344 195.976562 C 252.835938 189.648438 241.648438 184.625 229.902344 180.714844 C 205.105469 172.527344 179.746094 169.175781 153.644531 170.480469 C 138.726562 171.222656 123.996094 173.644531 109.640625 177.921875 C 103.671875 179.785156 100.503906 185.554688 102.179688 191.324219 C 103.859375 196.90625 109.824219 200.070312 115.605469 198.394531 C 131.453125 193.742188 147.488281 191.695312 163.898438 191.695312 Z M 165.949219 215.144531 C 162.03125 215.144531 158.304688 215.332031 154.386719 215.515625 C 140.777344 216.261719 127.351562 218.308594 113.925781 221.472656 C 111.128906 222.03125 109.078125 223.890625 107.960938 226.496094 C 106.65625 229.660156 107.027344 232.640625 109.265625 235.058594 C 111.691406 238.035156 114.859375 238.59375 118.589844 237.851562 C 136.117188 233.941406 153.644531 231.707031 171.542969 232.265625 C 180.492188 232.640625 189.441406 233.570312 198.207031 235.429688 C 212.375 238.410156 225.800781 243.621094 238.292969 251.0625 C 242.582031 253.667969 247.617188 252.367188 250.039062 248.273438 C 252.652344 244.179688 251.34375 239.152344 246.871094 236.363281 C 243.140625 234.128906 239.226562 231.894531 235.125 230.035156 C 213.308594 219.425781 190.1875 215.144531 165.949219 215.144531 Z M 165.949219 215.144531 " fill-opacity="1" fill-rule="nonzero"/><path fill="#020202" d="M 168.933594 123.019531 C 195.222656 123.207031 222.816406 126.742188 249.480469 135.675781 C 260.667969 139.398438 271.484375 144.050781 281.738281 150.191406 C 288.824219 154.472656 290.128906 163.59375 284.722656 169.734375 C 280.804688 174.015625 274.464844 175.316406 269.246094 172.527344 C 253.210938 163.21875 235.871094 157.449219 217.785156 153.730469 C 205.289062 151.125 192.613281 149.820312 179.933594 149.078125 C 166.136719 148.332031 152.335938 148.703125 138.539062 150.378906 C 128.84375 151.496094 119.148438 153.171875 109.640625 156.148438 C 101.0625 158.753906 93.417969 153.914062 92.296875 144.980469 C 91.550781 139.585938 95.65625 133.628906 101.433594 131.953125 C 111.875 128.789062 122.503906 126.742188 133.320312 125.441406 C 144.691406 123.765625 155.878906 123.019531 168.933594 123.019531 Z M 168.933594 123.019531 " fill-opacity="1" fill-rule="nonzero"/><path fill="#020202" d="M 163.898438 191.695312 C 147.488281 191.695312 131.453125 193.742188 115.605469 198.394531 C 109.824219 200.070312 103.859375 197.09375 102.179688 191.324219 C 100.503906 185.554688 103.671875 179.785156 109.640625 177.921875 C 123.996094 173.644531 138.726562 171.222656 153.644531 170.480469 C 179.746094 169.175781 205.105469 172.527344 229.902344 180.714844 C 241.648438 184.625 252.652344 189.648438 263.277344 195.976562 C 267.566406 198.582031 269.433594 203.046875 268.3125 207.699219 C 267.195312 212.167969 263.464844 215.332031 258.617188 215.890625 C 256.378906 216.074219 254.328125 215.515625 252.464844 214.402344 C 233.820312 203.234375 213.496094 196.90625 192.050781 193.742188 C 182.730469 192.441406 173.40625 191.695312 163.898438 191.695312 Z M 163.898438 191.695312 " fill-opacity="1" fill-rule="nonzero"/><path fill="#020202" d="M 165.949219 215.144531 C 190.1875 215.144531 213.308594 219.613281 235.308594 230.035156 C 239.414062 231.894531 243.328125 234.128906 247.058594 236.363281 C 251.53125 238.96875 252.835938 243.992188 250.226562 248.273438 C 247.804688 252.367188 242.769531 253.667969 238.480469 251.0625 C 225.988281 243.621094 212.75 238.410156 198.390625 235.429688 C 189.628906 233.570312 180.679688 232.640625 171.730469 232.265625 C 153.828125 231.707031 136.117188 233.941406 118.773438 237.851562 C 115.046875 238.59375 111.875 238.035156 109.453125 235.058594 C 107.214844 232.453125 106.84375 229.476562 108.148438 226.496094 C 109.265625 223.890625 111.316406 222.21875 114.113281 221.472656 C 127.351562 218.496094 140.777344 216.261719 154.574219 215.515625 C 158.304688 215.144531 162.03125 214.957031 165.949219 215.144531 Z M 165.949219 215.144531 " fill-opacity="1" fill-rule="nonzero"/></svg>