<svg xmlns="http://www.w3.org/2000/svg" xmlns:xlink="http://www.w3.org/1999/xlink" width="500" zoomAndPan="magnify" viewBox="0 0 375 374.999991" height="500" preserveAspectRatio="xMidYMid meet" version="1.0"><defs><clipPath id="id1"><path d="M 25.96875 25.96875 L 349.03125 25.96875 L 349.03125 349.03125 L 25.96875 349.03125 Z M 25.96875 25.96875 " clip-rule="nonzero"/></clipPath><clipPath id="id2"><path d="M 139.773438 112.5 L 235.023438 112.5 L 235.023438 227 L 139.773438 227 Z M 139.773438 112.5 " clip-rule="nonzero"/></clipPath><clipPath id="id3"><path d="M 166 235 L 195 235 L 195 262.5 L 166 262.5 Z M 166 235 " clip-rule="nonzero"/></clipPath></defs><g clip-path="url(#id1)"><path fill="#be1931" d="M 187.5 25.96875 C 98.035156 25.96875 25.96875 98.035156 25.96875 187.5 C 25.96875 276.964844 98.035156 349.03125 187.5 349.03125 C 276.136719 349.03125 349.03125 276.964844 349.03125 187.5 C 349.03125 98.035156 276.136719 25.96875 187.5 25.96875 Z M 187.5 324.179688 C 112.117188 324.179688 50.820312 262.882812 50.820312 187.5 C 50.820312 112.117188 112.117188 50.820312 187.5 50.820312 C 262.882812 50.820312 324.179688 112.117188 324.179688 187.5 C 324.179688 262.882812 262.882812 324.179688 187.5 324.179688 Z M 187.5 324.179688 " fill-opacity="1" fill-rule="nonzero"/></g><path fill="#e74850" d="M 187.5 50.820312 C 112.117188 50.820312 50.820312 112.117188 50.820312 187.5 C 50.820312 262.882812 112.117188 324.179688 187.5 324.179688 C 262.882812 324.179688 324.179688 262.882812 324.179688 187.5 C 324.179688 112.117188 262.882812 50.820312 187.5 50.820312 Z M 187.5 50.820312 " fill-opacity="1" fill-rule="nonzero"/><g clip-path="url(#id2)"><path fill="#ffffff" d="M 180.59375 226.132812 C 173.078125 226.132812 166.988281 220.03125 166.988281 212.5 L 166.988281 194.316406 C 166.988281 186.785156 173.078125 180.683594 180.59375 180.683594 C 183.328125 180.65625 207.808594 176.136719 207.808594 157.957031 C 207.808594 148.867188 198.738281 139.773438 185.128906 139.773438 C 174.058594 139.773438 166.988281 148.867188 166.988281 153.410156 C 166.988281 160.941406 160.894531 167.046875 153.378906 167.046875 C 145.863281 167.046875 139.773438 160.941406 139.773438 153.410156 C 139.773438 131.238281 160.546875 112.503906 185.128906 112.503906 C 221.414062 112.503906 235.023438 139.695312 235.023438 162.5 C 235.023438 181.339844 224.695312 195.742188 205.933594 203.042969 C 201.851562 204.640625 197.816406 205.710938 194.203125 206.441406 L 194.203125 212.5 C 194.203125 220.03125 188.109375 226.132812 180.59375 226.132812 Z M 180.59375 226.132812 " fill-opacity="1" fill-rule="nonzero"/></g><g clip-path="url(#id3)"><path fill="#ffffff" d="M 194.203125 248.859375 C 194.203125 249.753906 194.113281 250.640625 193.941406 251.519531 C 193.765625 252.398438 193.507812 253.25 193.164062 254.078125 C 192.824219 254.90625 192.40625 255.691406 191.90625 256.4375 C 191.410156 257.179688 190.847656 257.867188 190.214844 258.503906 C 189.585938 259.136719 188.898438 259.699219 188.152344 260.199219 C 187.410156 260.695312 186.625 261.113281 185.800781 261.457031 C 184.976562 261.800781 184.125 262.058594 183.25 262.234375 C 182.371094 262.410156 181.488281 262.496094 180.59375 262.496094 C 179.699219 262.496094 178.816406 262.410156 177.941406 262.234375 C 177.0625 262.058594 176.210938 261.800781 175.386719 261.457031 C 174.5625 261.113281 173.777344 260.695312 173.035156 260.199219 C 172.292969 259.699219 171.605469 259.136719 170.972656 258.503906 C 170.339844 257.867188 169.777344 257.179688 169.28125 256.4375 C 168.785156 255.691406 168.363281 254.90625 168.023438 254.078125 C 167.679688 253.25 167.421875 252.398438 167.25 251.519531 C 167.074219 250.640625 166.988281 249.753906 166.988281 248.859375 C 166.988281 247.964844 167.074219 247.078125 167.25 246.199219 C 167.421875 245.320312 167.679688 244.46875 168.023438 243.640625 C 168.363281 242.816406 168.785156 242.027344 169.28125 241.285156 C 169.777344 240.539062 170.339844 239.851562 170.972656 239.21875 C 171.605469 238.585938 172.292969 238.019531 173.035156 237.523438 C 173.777344 237.023438 174.5625 236.605469 175.386719 236.261719 C 176.210938 235.917969 177.0625 235.660156 177.941406 235.488281 C 178.816406 235.3125 179.699219 235.222656 180.59375 235.222656 C 181.488281 235.222656 182.371094 235.3125 183.25 235.488281 C 184.125 235.660156 184.976562 235.917969 185.800781 236.261719 C 186.625 236.605469 187.410156 237.023438 188.152344 237.523438 C 188.898438 238.019531 189.585938 238.585938 190.214844 239.21875 C 190.847656 239.851562 191.410156 240.539062 191.90625 241.285156 C 192.40625 242.027344 192.824219 242.816406 193.164062 243.640625 C 193.507812 244.46875 193.765625 245.320312 193.941406 246.199219 C 194.113281 247.078125 194.203125 247.964844 194.203125 248.859375 Z M 194.203125 248.859375 " fill-opacity="1" fill-rule="nonzero"/></g></svg>