<svg xmlns="http://www.w3.org/2000/svg" xmlns:xlink="http://www.w3.org/1999/xlink" width="500" zoomAndPan="magnify" viewBox="0 0 375 374.999991" height="500" preserveAspectRatio="xMidYMid meet" version="1.0"><defs><clipPath id="id1"><path d="M 11.785156 91 L 363.535156 91 L 363.535156 294 L 11.785156 294 Z M 11.785156 91 " clip-rule="nonzero"/></clipPath></defs><path fill="#ffcc4d" d="M 295.132812 192.617188 C 295.132812 194.375 295.089844 196.128906 295.003906 197.886719 C 294.917969 199.640625 294.789062 201.394531 294.617188 203.144531 C 294.445312 204.890625 294.230469 206.636719 293.972656 208.375 C 293.714844 210.113281 293.414062 211.84375 293.070312 213.570312 C 292.726562 215.292969 292.339844 217.007812 291.914062 218.710938 C 291.484375 220.417969 291.015625 222.109375 290.507812 223.792969 C 289.996094 225.476562 289.445312 227.144531 288.851562 228.800781 C 288.257812 230.453125 287.625 232.09375 286.953125 233.71875 C 286.28125 235.339844 285.566406 236.949219 284.816406 238.535156 C 284.0625 240.125 283.273438 241.695312 282.445312 243.246094 C 281.613281 244.796875 280.75 246.324219 279.84375 247.832031 C 278.941406 249.339844 278 250.824219 277.023438 252.285156 C 276.042969 253.746094 275.03125 255.183594 273.984375 256.597656 C 272.9375 258.007812 271.855469 259.394531 270.738281 260.75 C 269.621094 262.109375 268.472656 263.441406 267.292969 264.742188 C 266.113281 266.046875 264.898438 267.320312 263.65625 268.5625 C 262.414062 269.804688 261.136719 271.015625 259.835938 272.195312 C 258.53125 273.375 257.199219 274.523438 255.839844 275.640625 C 254.480469 276.753906 253.09375 277.835938 251.683594 278.882812 C 250.269531 279.929688 248.832031 280.941406 247.371094 281.917969 C 245.90625 282.894531 244.421875 283.835938 242.914062 284.738281 C 241.402344 285.640625 239.875 286.507812 238.324219 287.335938 C 236.773438 288.164062 235.203125 288.957031 233.609375 289.707031 C 232.019531 290.457031 230.414062 291.171875 228.789062 291.84375 C 227.164062 292.515625 225.523438 293.148438 223.867188 293.742188 C 222.210938 294.332031 220.542969 294.882812 218.859375 295.394531 C 217.175781 295.90625 215.480469 296.371094 213.773438 296.800781 C 212.066406 297.226562 210.351562 297.613281 208.628906 297.957031 C 206.902344 298.296875 205.167969 298.597656 203.429688 298.855469 C 201.691406 299.113281 199.945312 299.328125 198.195312 299.5 C 196.445312 299.675781 194.691406 299.804688 192.933594 299.890625 C 191.175781 299.976562 189.417969 300.019531 187.660156 300.019531 C 185.902344 300.019531 184.144531 299.976562 182.386719 299.890625 C 180.628906 299.804688 178.875 299.675781 177.125 299.5 C 175.375 299.328125 173.628906 299.113281 171.890625 298.855469 C 170.148438 298.597656 168.417969 298.296875 166.691406 297.957031 C 164.96875 297.613281 163.25 297.226562 161.546875 296.800781 C 159.839844 296.371094 158.144531 295.90625 156.460938 295.394531 C 154.777344 294.882812 153.109375 294.332031 151.453125 293.742188 C 149.796875 293.148438 148.15625 292.515625 146.53125 291.84375 C 144.90625 291.171875 143.296875 290.457031 141.707031 289.707031 C 140.117188 288.957031 138.546875 288.164062 136.996094 287.335938 C 135.445312 286.507812 133.914062 285.640625 132.40625 284.738281 C 130.898438 283.835938 129.414062 282.894531 127.949219 281.917969 C 126.488281 280.941406 125.050781 279.929688 123.636719 278.882812 C 122.222656 277.835938 120.839844 276.753906 119.480469 275.640625 C 118.117188 274.523438 116.789062 273.375 115.484375 272.195312 C 114.179688 271.015625 112.90625 269.804688 111.664062 268.5625 C 110.421875 267.320312 109.207031 266.046875 108.027344 264.742188 C 106.84375 263.441406 105.695312 262.109375 104.582031 260.75 C 103.464844 259.394531 102.382812 258.007812 101.335938 256.597656 C 100.289062 255.183594 99.273438 253.746094 98.296875 252.285156 C 97.320312 250.824219 96.378906 249.339844 95.476562 247.832031 C 94.570312 246.324219 93.703125 244.796875 92.875 243.246094 C 92.046875 241.695312 91.257812 240.125 90.503906 238.535156 C 89.75 236.949219 89.039062 235.339844 88.367188 233.71875 C 87.691406 232.09375 87.058594 230.453125 86.46875 228.800781 C 85.875 227.144531 85.324219 225.476562 84.8125 223.792969 C 84.300781 222.109375 83.832031 220.417969 83.40625 218.710938 C 82.980469 217.007812 82.59375 215.292969 82.25 213.570312 C 81.90625 211.84375 81.605469 210.113281 81.347656 208.375 C 81.089844 206.636719 80.875 204.890625 80.703125 203.144531 C 80.53125 201.394531 80.402344 199.640625 80.316406 197.886719 C 80.226562 196.128906 80.183594 194.375 80.183594 192.617188 C 80.183594 190.859375 80.226562 189.101562 80.316406 187.347656 C 80.402344 185.589844 80.53125 183.835938 80.703125 182.089844 C 80.875 180.339844 81.089844 178.59375 81.347656 176.855469 C 81.605469 175.117188 81.90625 173.386719 82.25 171.664062 C 82.59375 169.9375 82.980469 168.222656 83.40625 166.519531 C 83.832031 164.8125 84.300781 163.121094 84.8125 161.4375 C 85.324219 159.757812 85.875 158.089844 86.46875 156.433594 C 87.058594 154.777344 87.691406 153.136719 88.367188 151.515625 C 89.039062 149.890625 89.75 148.285156 90.503906 146.695312 C 91.257812 145.105469 92.046875 143.535156 92.875 141.988281 C 93.703125 140.4375 94.570312 138.90625 95.476562 137.398438 C 96.378906 135.890625 97.320312 134.40625 98.296875 132.945312 C 99.273438 131.484375 100.289062 130.046875 101.335938 128.636719 C 102.382812 127.222656 103.464844 125.839844 104.582031 124.480469 C 105.695312 123.121094 106.84375 121.789062 108.027344 120.488281 C 109.207031 119.1875 110.421875 117.914062 111.664062 116.671875 C 112.90625 115.425781 114.179688 114.214844 115.484375 113.035156 C 116.789062 111.855469 118.117188 110.707031 119.480469 109.59375 C 120.839844 108.476562 122.222656 107.394531 123.636719 106.347656 C 125.050781 105.300781 126.488281 104.289062 127.949219 103.3125 C 129.414062 102.335938 130.898438 101.398438 132.40625 100.492188 C 133.914062 99.589844 135.445312 98.722656 136.996094 97.894531 C 138.546875 97.066406 140.117188 96.277344 141.707031 95.523438 C 143.296875 94.773438 144.90625 94.0625 146.53125 93.386719 C 148.15625 92.714844 149.796875 92.082031 151.453125 91.492188 C 153.109375 90.898438 154.777344 90.347656 156.460938 89.835938 C 158.144531 89.328125 159.839844 88.859375 161.546875 88.433594 C 163.25 88.003906 164.96875 87.621094 166.691406 87.277344 C 168.417969 86.933594 170.148438 86.632812 171.890625 86.375 C 173.628906 86.117188 175.375 85.902344 177.125 85.730469 C 178.875 85.558594 180.628906 85.429688 182.386719 85.34375 C 184.144531 85.257812 185.902344 85.214844 187.660156 85.214844 C 189.417969 85.214844 191.175781 85.257812 192.933594 85.34375 C 194.691406 85.429688 196.445312 85.558594 198.195312 85.730469 C 199.945312 85.902344 201.691406 86.117188 203.429688 86.375 C 205.167969 86.632812 206.902344 86.933594 208.628906 87.277344 C 210.351562 87.621094 212.066406 88.003906 213.773438 88.433594 C 215.480469 88.859375 217.175781 89.328125 218.859375 89.835938 C 220.542969 90.347656 222.210938 90.898438 223.867188 91.492188 C 225.523438 92.082031 227.164062 92.714844 228.789062 93.386719 C 230.414062 94.0625 232.019531 94.773438 233.609375 95.523438 C 235.203125 96.277344 236.773438 97.066406 238.324219 97.894531 C 239.875 98.722656 241.402344 99.589844 242.914062 100.492188 C 244.421875 101.398438 245.90625 102.335938 247.371094 103.3125 C 248.832031 104.289062 250.269531 105.300781 251.683594 106.347656 C 253.09375 107.394531 254.480469 108.476562 255.839844 109.59375 C 257.199219 110.707031 258.53125 111.855469 259.835938 113.035156 C 261.136719 114.214844 262.414062 115.425781 263.65625 116.671875 C 264.898438 117.914062 266.113281 119.1875 267.292969 120.488281 C 268.472656 121.789062 269.621094 123.121094 270.738281 124.480469 C 271.855469 125.839844 272.9375 127.222656 273.984375 128.636719 C 275.03125 130.046875 276.042969 131.484375 277.023438 132.945312 C 278 134.40625 278.941406 135.890625 279.84375 137.398438 C 280.75 138.90625 281.613281 140.4375 282.445312 141.988281 C 283.273438 143.535156 284.0625 145.105469 284.816406 146.695312 C 285.566406 148.285156 286.28125 149.890625 286.953125 151.515625 C 287.625 153.136719 288.257812 154.777344 288.851562 156.433594 C 289.445312 158.089844 289.996094 159.757812 290.507812 161.4375 C 291.015625 163.121094 291.484375 164.8125 291.914062 166.519531 C 292.339844 168.222656 292.726562 169.9375 293.070312 171.664062 C 293.414062 173.386719 293.714844 175.117188 293.972656 176.855469 C 294.230469 178.59375 294.445312 180.339844 294.617188 182.089844 C 294.789062 183.835938 294.917969 185.589844 295.003906 187.347656 C 295.089844 189.101562 295.132812 190.859375 295.132812 192.617188 Z M 295.132812 192.617188 " fill-opacity="1" fill-rule="nonzero"/><path fill="#f4900c" d="M 109.5625 240.332031 C 99.660156 241.003906 92.585938 237.238281 87.421875 231.121094 C 89.570312 236.714844 92.316406 241.980469 95.339844 247.070312 C 103.089844 249.972656 111.328125 251.1875 120.867188 244.339844 C 116.214844 242.058594 112.023438 240.171875 109.5625 240.332031 Z M 238.773438 98.289062 C 239.226562 101.582031 236.894531 103.3125 231.238281 101.933594 C 221.640625 99.605469 213.21875 109.730469 208.382812 118.195312 C 198.867188 134.835938 159.601562 153.585938 159.570312 139.15625 C 159.558594 132.335938 124.878906 147.621094 120.445312 140.773438 C 116.253906 134.304688 103.730469 136.796875 101.140625 129.042969 C 89.734375 144.546875 82.355469 163.210938 80.636719 183.496094 C 84.425781 190.707031 89.320312 196.371094 94.226562 198.824219 C 100.859375 202.136719 131.671875 214.167969 136.171875 206.484375 C 143.679688 193.671875 188.726562 202.738281 187.648438 196 C 185.589844 183.09375 212.042969 193.691406 221.546875 177.058594 C 226.390625 168.59375 236.953125 162.09375 246.5625 164.425781 C 257.777344 167.144531 271.617188 147.921875 270.574219 124.292969 C 261.820312 113.675781 250.964844 104.898438 238.773438 98.289062 Z M 270.742188 260.738281 C 267.347656 262.40625 264 263.683594 260.945312 264.011719 C 238.351562 266.453125 233.46875 284.152344 218.3125 281.117188 C 210.503906 279.550781 199.851562 293.308594 187.660156 294.144531 C 181.519531 294.566406 172.695312 295.558594 163.679688 297.238281 C 171.398438 298.996094 179.410156 300.019531 187.660156 300.019531 C 221.136719 300.019531 251.023438 284.722656 270.742188 260.738281 Z M 270.742188 260.738281 " fill-opacity="1" fill-rule="nonzero"/><g clip-path="url(#id1)"><path fill="#e85e00" d="M 240.171875 98.953125 C 249.75 104.324219 258.371094 111.132812 265.839844 119.070312 C 290.875 117.492188 306.140625 123.378906 304.863281 136.914062 C 304.199219 143.996094 298.984375 152.402344 290.480469 161.371094 C 269.296875 183.675781 227.074219 209.539062 179.226562 227.675781 C 145.972656 240.28125 116.335938 246.757812 95.148438 247.101562 C 73.59375 247.453125 60.796875 241.445312 61.964844 228.992188 C 62.726562 220.808594 69.523438 210.855469 80.578125 200.300781 C 80.386719 197.738281 80.183594 195.207031 80.183594 192.617188 C 80.183594 184.097656 81.28125 175.855469 83.160156 167.898438 C 39.925781 197.859375 11.785156 230.851562 11.785156 256.582031 C 11.785156 291.601562 63.664062 302.359375 135.148438 286.28125 C 151.730469 282.554688 169.367188 277.382812 187.660156 270.722656 C 226.855469 256.472656 262.925781 237.578125 292.167969 217.324219 C 335.394531 187.363281 363.535156 154.371094 363.535156 128.640625 C 363.535156 93.628906 311.65625 82.863281 240.171875 98.953125 Z M 240.171875 98.953125 " fill-opacity="1" fill-rule="nonzero"/></g><path fill="#f4900c" d="M 70.636719 193.128906 C 63.179688 200.269531 56.878906 208.433594 51.742188 217.050781 C 46.820312 225.609375 42.628906 235.238281 43.261719 243.875 C 43.613281 252.472656 50.117188 257.597656 58.917969 259.964844 C 67.703125 262.246094 77.460938 262.847656 87.402344 262.265625 C 107.117188 261.371094 126.898438 258.097656 146.101562 252.574219 C 165.4375 247.503906 184.203125 240.269531 202.535156 232.125 C 239.195312 215.777344 273.566406 194.070312 304.359375 168.03125 C 308.058594 164.683594 312.109375 161.511719 315.65625 158.128906 C 319.003906 154.742188 322.160156 150.964844 324.800781 147.109375 C 330.046875 139.398438 333.101562 130.367188 328.167969 123.488281 C 323.246094 116.496094 313.144531 112.691406 303.515625 110.722656 C 293.65625 108.84375 283.316406 108.414062 273.066406 109.609375 C 283.035156 106.945312 293.535156 105.640625 304.097656 106.433594 C 314.449219 107.359375 325.925781 109.449219 334.328125 118.695312 C 338.449219 123.285156 340.347656 130.195312 339.59375 136.234375 C 339.023438 142.371094 336.652344 147.78125 333.9375 152.652344 C 331.144531 157.523438 328.007812 161.945312 324.441406 166.191406 C 320.902344 170.25 317.316406 173.996094 313.667969 177.871094 C 284.199219 207.941406 248.945312 232.246094 210.542969 249.773438 C 172.191406 267.046875 130.40625 279.007812 87.320312 277.429688 C 76.707031 277.03125 65.644531 276.097656 54.796875 271.929688 C 49.433594 269.828125 43.925781 266.734375 39.722656 261.722656 C 35.414062 256.800781 33.34375 249.964844 33.804688 243.90625 C 34.789062 231.722656 40.878906 222.292969 47.363281 214.019531 C 54.035156 205.792969 61.902344 198.703125 70.636719 193.128906 Z M 70.636719 193.128906 " fill-opacity="1" fill-rule="nonzero"/></svg>