<svg xmlns="http://www.w3.org/2000/svg" xmlns:xlink="http://www.w3.org/1999/xlink" width="1000" zoomAndPan="magnify" viewBox="0 0 750 749.999995" height="1000" preserveAspectRatio="xMidYMid meet" version="1.0"><defs><g/><clipPath id="678b2e64ba"><path d="M 424 549 L 642.683594 549 L 642.683594 675.03125 L 424 675.03125 Z M 424 549 " clip-rule="nonzero"/></clipPath><clipPath id="6177b9bae1"><path d="M 328 154.53125 L 371 154.53125 L 371 178 L 328 178 Z M 328 154.53125 " clip-rule="nonzero"/></clipPath></defs><rect x="-75" width="900" fill="#ffffff" y="-74.999999" height="899.999994" fill-opacity="1"/><rect x="-75" width="900" fill="#ffffff" y="-74.999999" height="899.999994" fill-opacity="1"/><rect x="-75" width="900" fill="#000000" y="-74.999999" height="899.999994" fill-opacity="1"/><path fill="#ff3847" d="M 175.136719 205.929688 C 145.933594 205.929688 121.78125 230.070312 121.78125 259.257812 C 121.78125 288.445312 145.933594 312.585938 175.136719 312.585938 C 204.339844 312.585938 228.496094 288.445312 228.496094 259.257812 C 228.496094 230.070312 204.984375 205.929688 175.136719 205.929688 Z M 175.136719 218.644531 C 197.359375 218.644531 215.773438 236.402344 215.773438 259.257812 C 215.773438 282.113281 198.003906 299.875 175.136719 299.875 C 152.269531 299.875 134.5 282.113281 134.5 259.257812 C 134.5 236.402344 152.914062 218.644531 175.136719 218.644531 " fill-opacity="1" fill-rule="nonzero"/><path fill="#ff3847" d="M 146.527344 258.617188 C 146.527344 258.617188 145.933594 257.972656 145.289062 256.734375 C 144.648438 255.449219 144.003906 253.519531 144.003906 250.996094 C 143.359375 248.472656 144.003906 245.308594 145.289062 242.734375 C 145.933594 241.5 146.527344 239.570312 147.171875 238.285156 C 147.816406 237.046875 149.101562 235.761719 150.339844 234.476562 C 151.625 233.238281 152.914062 231.953125 154.199219 231.308594 C 155.4375 230.070312 157.367188 229.429688 158.605469 229.429688 C 161.824219 228.140625 164.347656 228.140625 166.871094 228.140625 C 169.394531 228.140625 171.324219 228.785156 172.613281 229.429688 C 173.851562 230.070312 174.492188 230.664062 174.492188 230.664062 C 174.492188 230.664062 173.851562 231.308594 172.613281 231.953125 C 171.324219 232.59375 170.039062 233.882812 168.15625 235.117188 C 164.992188 237.691406 161.773438 240.214844 158.605469 243.378906 C 155.4375 246.546875 152.914062 249.761719 150.339844 252.925781 C 149.101562 254.808594 147.816406 256.09375 147.171875 257.328125 C 147.171875 257.972656 146.527344 258.617188 146.527344 258.617188 " fill-opacity="1" fill-rule="nonzero"/><g clip-path="url(#678b2e64ba)"><path fill="#ff3847" d="M 609.519531 619.152344 C 594.917969 624.195312 579.03125 616.578125 573.980469 602.628906 C 568.882812 588.675781 576.507812 572.15625 590.464844 567.109375 C 604.421875 562.011719 620.953125 569.632812 626.003906 583.582031 C 631.101562 597.53125 624.121094 613.414062 609.519531 619.152344 Z M 640.011719 577.894531 C 631.746094 555.679688 607.589844 544.253906 585.367188 551.871094 L 444.398438 616.578125 C 428.511719 622.316406 420.292969 639.433594 425.988281 655.3125 C 431.679688 671.191406 448.855469 679.453125 464.742188 673.714844 L 614.570312 633.101562 C 636.792969 624.839844 648.277344 600.105469 640.011719 577.894531 " fill-opacity="1" fill-rule="nonzero"/></g><path fill="#ff3847" d="M 391.042969 456 L 331.347656 460.453125 L 309.125 404.601562 L 283.089844 458.570312 L 223.394531 450.3125 L 243.097656 479.496094 C 246.90625 477.617188 251.3125 476.332031 255.765625 475.6875 L 250.074219 467.425781 L 290.070312 473.164062 L 307.839844 436.359375 L 323.082031 473.808594 L 363.71875 470.59375 L 338.972656 502.351562 L 361.839844 535.992188 L 321.84375 530.304688 L 304.027344 567.109375 L 300.214844 558.203125 C 297.046875 561.371094 293.878906 563.941406 290.070312 566.464844 L 302.789062 598.820312 L 328.824219 544.898438 L 388.519531 553.109375 L 354.859375 503.640625 L 391.042969 456 " fill-opacity="1" fill-rule="nonzero"/><path fill="#ff3847" d="M 235.671875 219.535156 L 253.292969 209.441406 L 259.28125 219.929688 L 241.609375 230.023438 L 235.671875 219.535156 " fill-opacity="1" fill-rule="nonzero"/><path fill="#ff3847" d="M 278.832031 195.292969 L 303.679688 181.097656 L 309.667969 191.585938 L 284.820312 205.734375 L 278.832031 195.292969 " fill-opacity="1" fill-rule="nonzero"/><g clip-path="url(#6177b9bae1)"><path fill="#ff3847" d="M 363.769531 177.386719 L 349.167969 169.125 L 334.515625 177.386719 L 328.179688 166.601562 L 349.167969 154.53125 L 370.105469 166.601562 L 363.769531 177.386719 " fill-opacity="1" fill-rule="nonzero"/></g><path fill="#ff3847" d="M 434.253906 218 L 399.308594 197.667969 L 405.644531 186.886719 L 440.589844 207.21875 Z M 504.09375 257.972656 L 469.148438 237.691406 L 475.53125 226.90625 L 510.476562 247.1875 Z M 574.574219 297.992188 L 539.632812 277.660156 L 546.015625 266.878906 L 580.960938 287.160156 L 574.574219 297.992188 " fill-opacity="1" fill-rule="nonzero"/><path fill="#ff3847" d="M 615.855469 338.609375 L 609.519531 327.824219 L 617.785156 323.371094 L 609.519531 318.277344 L 615.855469 307.492188 L 642.535156 323.371094 L 615.855469 338.609375 " fill-opacity="1" fill-rule="nonzero"/><path fill="#ff3847" d="M 539.632812 382.390625 L 533.296875 371.605469 L 571.410156 350.035156 L 577.792969 360.820312 Z M 463.457031 425.527344 L 457.070312 414.742188 L 495.183594 393.171875 L 501.566406 403.957031 L 463.457031 425.527344 " fill-opacity="1" fill-rule="nonzero"/><path fill="#ff3847" d="M 401.980469 446.550781 L 419.652344 436.507812 L 425.589844 446.945312 L 407.96875 457.039062 L 401.980469 446.550781 " fill-opacity="1" fill-rule="nonzero"/><path fill="#ff3847" d="M 140.835938 621.03125 C 127.519531 628.003906 110.347656 622.960938 103.367188 609.601562 C 95.746094 595.652344 100.84375 579.128906 114.800781 571.511719 C 128.164062 564.535156 145.289062 569.632812 152.269531 582.9375 C 159.890625 596.9375 154.792969 613.414062 140.835938 621.03125 Z M 290.710938 509.328125 C 285.019531 499.1875 274.824219 493.449219 264.035156 493.449219 C 258.984375 493.449219 254.53125 494.734375 250.074219 497.257812 L 107.820312 558.847656 C 86.882812 569.632812 79.210938 595.652344 90.050781 616.578125 C 97.675781 631.222656 112.277344 639.433594 127.519531 639.433594 C 134.5 639.433594 141.480469 637.554688 147.816406 634.386719 L 277.992188 550.585938 C 293.238281 542.324219 298.335938 523.921875 290.710938 509.328125 " fill-opacity="1" fill-rule="nonzero"/><g fill="#ff9067" fill-opacity="1"><g transform="translate(220.308444, 74.250016)"><g><path d="M 12.65625 -21.09375 L 16.875 -25.3125 L 16.875 -29.53125 L 12.65625 -33.75 L 4.21875 -33.75 L 4.21875 -21.09375 Z M 0 0 L 0 -37.96875 L 14.0625 -37.96875 L 21.09375 -30.9375 L 21.09375 -23.90625 L 14.0625 -16.875 L 4.21875 -16.875 L 4.21875 0 Z M 0 0 "/></g></g><g transform="translate(248.433443, 74.250016)"><g><path d="M 7.03125 8.4375 L 4.21875 7.03125 L 8.4375 -1.40625 L 0 -18.28125 L 0 -29.53125 L 4.21875 -29.53125 L 4.21875 -18.28125 L 10.546875 -5.625 L 16.875 -18.28125 L 16.875 -29.53125 L 21.09375 -29.53125 L 21.09375 -18.28125 L 7.734375 8.4375 Z M 7.03125 8.4375 "/></g></g><g transform="translate(276.558442, 74.250016)"><g><path d="M 9.84375 0 L 4.21875 -5.625 L 4.21875 -25.3125 L 0 -25.3125 L 0 -29.53125 L 4.21875 -29.53125 L 4.21875 -33.75 L 8.4375 -33.75 L 8.4375 -29.53125 L 16.875 -29.53125 L 16.875 -25.3125 L 8.4375 -25.3125 L 8.4375 -7.03125 L 11.25 -4.21875 L 12.65625 -4.21875 L 16.875 -8.4375 L 19.6875 -5.625 L 14.0625 0 Z M 9.84375 0 "/></g></g><g transform="translate(304.68344, 74.250016)"><g><path d="M 0 0 L 0 -37.96875 L 4.21875 -37.96875 L 4.21875 -25.3125 L 8.4375 -29.53125 L 14.0625 -29.53125 L 21.09375 -22.5 L 21.09375 0 L 16.875 0 L 16.875 -21.09375 L 12.65625 -25.3125 L 9.84375 -25.3125 L 4.21875 -19.6875 L 4.21875 0 Z M 0 0 "/></g></g><g transform="translate(332.808439, 74.250016)"><g><path d="M 12.65625 -4.21875 L 16.875 -8.4375 L 16.875 -21.09375 L 12.65625 -25.3125 L 8.4375 -25.3125 L 4.21875 -21.09375 L 4.21875 -8.4375 L 8.4375 -4.21875 Z M 7.03125 0 L 0 -7.03125 L 0 -22.5 L 7.03125 -29.53125 L 14.0625 -29.53125 L 21.09375 -22.5 L 21.09375 -7.03125 L 14.0625 0 Z M 7.03125 0 "/></g></g><g transform="translate(360.933438, 74.250016)"><g><path d="M 0 0 L 0 -29.53125 L 4.21875 -29.53125 L 4.21875 -25.3125 L 8.4375 -29.53125 L 14.0625 -29.53125 L 21.09375 -22.5 L 21.09375 0 L 16.875 0 L 16.875 -21.09375 L 12.65625 -25.3125 L 9.84375 -25.3125 L 4.21875 -19.6875 L 4.21875 0 Z M 0 0 "/></g></g><g transform="translate(389.058436, 74.250016)"><g/></g><g transform="translate(417.183435, 74.250016)"><g><path d="M 12.65625 -21.09375 L 16.875 -25.3125 L 16.875 -29.53125 L 12.65625 -33.75 L 4.21875 -33.75 L 4.21875 -21.09375 Z M 0 0 L 0 -37.96875 L 14.0625 -37.96875 L 21.09375 -30.9375 L 21.09375 -23.90625 L 14.0625 -16.875 L 4.21875 -16.875 L 4.21875 0 Z M 0 0 "/></g></g><g transform="translate(445.308433, 74.250016)"><g><path d="M 12.65625 -4.21875 L 16.875 -8.4375 L 16.875 -21.09375 L 12.65625 -25.3125 L 8.4375 -25.3125 L 4.21875 -21.09375 L 4.21875 -8.4375 L 8.4375 -4.21875 Z M 7.03125 0 L 0 -7.03125 L 0 -22.5 L 7.03125 -29.53125 L 14.0625 -29.53125 L 21.09375 -22.5 L 21.09375 -7.03125 L 14.0625 0 Z M 7.03125 0 "/></g></g><g transform="translate(473.433432, 74.250016)"><g><path d="M 0 0 L 0 -29.53125 L 4.21875 -29.53125 L 4.21875 -25.3125 L 8.4375 -29.53125 L 14.0625 -29.53125 L 21.09375 -22.5 L 21.09375 0 L 16.875 0 L 16.875 -21.09375 L 12.65625 -25.3125 L 9.84375 -25.3125 L 4.21875 -19.6875 L 4.21875 0 Z M 0 0 "/></g></g><g transform="translate(501.558431, 74.250016)"><g><path d="M 15.46875 4.21875 L 17.578125 2.109375 L 15.46875 0 L 7.03125 0 L 5.625 1.40625 L 5.53125 1.40625 L 4.921875 2.109375 L 7.03125 4.21875 Z M 12.65625 -12.65625 L 16.875 -16.875 L 16.875 -19.6875 L 11.25 -25.3125 L 8.4375 -25.3125 L 4.21875 -21.09375 L 4.21875 -16.875 L 8.4375 -12.65625 Z M 5.625 8.4375 L 0 2.8125 L 0 1.40625 L 3.515625 -2.109375 L 0 -5.625 L 0 -7.03125 L 4.21875 -11.25 L 0 -15.46875 L 0 -22.5 L 7.03125 -29.53125 L 21.09375 -29.53125 L 21.09375 -25.3125 L 16.875 -25.3125 L 21.09375 -21.09375 L 21.09375 -15.46875 L 14.0625 -8.4375 L 7.03125 -8.4375 L 5.625 -7.03125 L 5.53125 -7.03125 L 4.921875 -6.328125 L 7.03125 -4.21875 L 16.875 -4.21875 L 22.5 1.40625 L 22.5 2.8125 L 16.875 8.4375 Z M 5.625 8.4375 "/></g></g></g></svg>