<svg xmlns="http://www.w3.org/2000/svg" xmlns:xlink="http://www.w3.org/1999/xlink" width="500" zoomAndPan="magnify" viewBox="0 0 375 374.999991" height="500" preserveAspectRatio="xMidYMid meet" version="1.0"><defs><clipPath id="id1"><path d="M 27.5625 62.96875 L 337.3125 62.96875 L 337.3125 331.46875 L 27.5625 331.46875 Z M 27.5625 62.96875 " clip-rule="nonzero"/></clipPath><clipPath id="id2"><path d="M 88.171875 113 L 277 113 L 277 281 L 88.171875 281 Z M 88.171875 113 " clip-rule="nonzero"/></clipPath></defs><g clip-path="url(#id1)"><path fill="#1d1e24" d="M 105.046875 331.46875 L 27.660156 197.21875 L 105.046875 62.96875 L 259.828125 62.96875 L 337.21875 197.21875 L 259.828125 331.46875 Z M 105.046875 331.46875 " fill-opacity="1" fill-rule="nonzero"/></g><g clip-path="url(#id2)"><path fill="#ffbd59" d="M 243.4375 167.636719 C 241.488281 166.964844 239.460938 166.328125 237.367188 165.722656 C 237.714844 164.324219 238.03125 162.945312 238.3125 161.585938 C 242.902344 139.296875 239.902344 121.339844 229.640625 115.425781 C 219.796875 109.757812 203.707031 115.667969 187.453125 129.800781 C 185.890625 131.160156 184.324219 132.597656 182.761719 134.105469 C 181.714844 133.109375 180.675781 132.144531 179.636719 131.222656 C 162.601562 116.113281 145.53125 109.746094 135.277344 115.675781 C 125.449219 121.359375 122.539062 138.242188 126.675781 159.363281 C 127.074219 161.40625 127.542969 163.488281 128.070312 165.609375 C 125.652344 166.292969 123.320312 167.023438 121.089844 167.800781 C 101.121094 174.757812 88.367188 185.65625 88.367188 196.964844 C 88.367188 208.640625 102.058594 220.359375 122.855469 227.464844 C 124.496094 228.023438 126.199219 228.550781 127.957031 229.054688 C 127.386719 231.34375 126.890625 233.585938 126.476562 235.78125 C 122.53125 256.539062 125.609375 273.019531 135.414062 278.667969 C 145.539062 284.503906 162.535156 278.503906 179.085938 264.054688 C 180.394531 262.914062 181.707031 261.699219 183.019531 260.433594 C 184.726562 262.066406 186.429688 263.621094 188.117188 265.078125 C 204.148438 278.859375 219.980469 284.421875 229.773438 278.761719 C 239.886719 272.910156 243.179688 255.199219 238.910156 233.660156 C 238.585938 232.011719 238.199219 230.335938 237.78125 228.625 C 238.972656 228.273438 240.144531 227.90625 241.289062 227.53125 C 262.910156 220.367188 276.976562 208.804688 276.976562 196.964844 C 276.976562 185.617188 263.808594 174.640625 243.4375 167.636719 Z M 238.753906 219.890625 C 237.722656 220.226562 236.660156 220.558594 235.585938 220.875 C 233.199219 213.332031 229.980469 205.300781 226.03125 197.003906 C 229.792969 188.90625 232.890625 180.980469 235.210938 173.480469 C 237.140625 174.039062 239.011719 174.625 240.816406 175.246094 C 258.269531 181.25 268.917969 190.128906 268.917969 196.964844 C 268.917969 204.246094 257.421875 213.707031 238.753906 219.890625 Z M 231.003906 235.222656 C 232.894531 244.746094 233.160156 253.359375 231.910156 260.09375 C 230.789062 266.144531 228.527344 270.179688 225.734375 271.792969 C 219.789062 275.230469 207.082031 270.761719 193.378906 258.976562 C 191.800781 257.621094 190.214844 256.179688 188.632812 254.65625 C 193.945312 248.847656 199.257812 242.097656 204.441406 234.597656 C 213.558594 233.792969 222.167969 232.46875 229.984375 230.664062 C 230.371094 232.21875 230.707031 233.734375 231.003906 235.222656 Z M 152.671875 271.195312 C 146.863281 273.25 142.238281 273.308594 139.441406 271.695312 C 133.492188 268.265625 131.019531 255.03125 134.394531 237.28125 C 134.78125 235.25 135.242188 233.160156 135.769531 231.027344 C 143.496094 232.734375 152.046875 233.964844 161.1875 234.699219 C 166.40625 242.039062 171.875 248.78125 177.378906 254.683594 C 176.175781 255.847656 174.976562 256.953125 173.78125 257.988281 C 166.464844 264.386719 159.132812 268.921875 152.671875 271.195312 Z M 125.464844 219.84375 C 116.269531 216.703125 108.671875 212.625 103.46875 208.164062 C 98.789062 204.164062 96.429688 200.191406 96.429688 196.964844 C 96.429688 190.105469 106.667969 181.351562 123.742188 175.402344 C 125.816406 174.679688 127.984375 174 130.234375 173.363281 C 132.597656 181.03125 135.691406 189.054688 139.429688 197.15625 C 135.644531 205.386719 132.503906 213.535156 130.121094 221.300781 C 128.515625 220.839844 126.960938 220.351562 125.464844 219.84375 Z M 134.585938 157.820312 C 131.039062 139.71875 133.394531 126.066406 139.320312 122.640625 C 145.628906 118.992188 159.582031 124.195312 174.285156 137.242188 C 175.226562 138.074219 176.167969 138.949219 177.121094 139.851562 C 171.636719 145.730469 166.222656 152.421875 161.050781 159.71875 C 152.179688 160.539062 143.6875 161.859375 135.882812 163.625 C 135.390625 161.652344 134.957031 159.714844 134.585938 157.820312 Z M 215.9375 177.890625 C 214.074219 174.671875 212.15625 171.527344 210.207031 168.464844 C 216.222656 169.226562 221.984375 170.234375 227.402344 171.46875 C 225.78125 176.675781 223.753906 182.117188 221.367188 187.699219 C 219.65625 184.453125 217.84375 181.179688 215.9375 177.890625 Z M 182.761719 145.605469 C 186.480469 149.628906 190.203125 154.117188 193.863281 158.992188 C 190.171875 158.816406 186.4375 158.726562 182.671875 158.726562 C 178.945312 158.726562 175.238281 158.816406 171.570312 158.988281 C 175.230469 154.160156 178.988281 149.671875 182.761719 145.605469 Z M 149.375 177.945312 C 147.507812 181.175781 145.734375 184.429688 144.046875 187.691406 C 141.703125 182.132812 139.695312 176.664062 138.054688 171.386719 C 143.4375 170.183594 149.175781 169.199219 155.15625 168.453125 C 153.175781 171.539062 151.242188 174.707031 149.375 177.945312 Z M 155.328125 226.050781 C 149.148438 225.367188 143.324219 224.429688 137.945312 223.261719 C 139.609375 217.886719 141.660156 212.308594 144.058594 206.625 C 145.746094 209.886719 147.527344 213.140625 149.40625 216.378906 C 151.316406 219.675781 153.296875 222.898438 155.328125 226.050781 Z M 182.980469 248.890625 C 179.164062 244.777344 175.355469 240.21875 171.636719 235.324219 C 175.246094 235.464844 178.929688 235.539062 182.671875 235.539062 C 186.519531 235.539062 190.320312 235.449219 194.054688 235.289062 C 190.386719 240.269531 186.671875 244.835938 182.980469 248.890625 Z M 221.441406 206.335938 C 223.960938 212.078125 226.089844 217.628906 227.777344 222.914062 C 222.308594 224.15625 216.402344 225.160156 210.183594 225.910156 C 212.144531 222.8125 214.074219 219.609375 215.972656 216.320312 C 217.898438 212.992188 219.714844 209.65625 221.441406 206.335938 Z M 208.988281 212.300781 C 206.042969 217.40625 203.015625 222.28125 199.941406 226.882812 C 194.351562 227.277344 188.566406 227.484375 182.671875 227.484375 C 176.800781 227.484375 171.089844 227.308594 165.59375 226.949219 C 162.398438 222.289062 159.308594 217.402344 156.378906 212.34375 C 153.457031 207.300781 150.765625 202.214844 148.332031 197.15625 C 150.765625 192.09375 153.449219 187 156.355469 181.96875 L 156.351562 181.96875 C 159.265625 176.921875 162.332031 172.054688 165.5 167.421875 C 171.105469 166.996094 176.859375 166.777344 182.671875 166.777344 C 188.515625 166.777344 194.269531 167 199.875 167.425781 C 203 172.027344 206.042969 176.878906 208.96875 181.925781 C 211.921875 187.027344 214.640625 192.085938 217.09375 197.046875 C 214.648438 202.089844 211.9375 207.199219 208.988281 212.300781 Z M 225.609375 122.398438 C 231.933594 126.039062 234.386719 140.714844 230.414062 159.960938 C 230.164062 161.1875 229.875 162.4375 229.566406 163.707031 C 221.742188 161.902344 213.246094 160.558594 204.355469 159.726562 C 199.167969 152.351562 193.796875 145.648438 188.40625 139.84375 C 189.855469 138.453125 191.308594 137.125 192.746094 135.871094 C 206.667969 123.765625 219.6875 118.984375 225.609375 122.398438 Z M 182.671875 180.136719 C 191.96875 180.136719 199.515625 187.667969 199.515625 196.964844 C 199.515625 206.253906 191.96875 213.792969 182.671875 213.792969 C 173.375 213.792969 165.832031 206.253906 165.832031 196.964844 C 165.832031 187.667969 173.375 180.136719 182.671875 180.136719 Z M 182.671875 180.136719 " fill-opacity="1" fill-rule="nonzero"/></g></svg>