<svg xmlns="http://www.w3.org/2000/svg" xmlns:xlink="http://www.w3.org/1999/xlink" width="500" zoomAndPan="magnify" viewBox="0 0 375 374.999991" height="500" preserveAspectRatio="xMidYMid meet" version="1.0"><defs><clipPath id="id1"><path d="M 152 64.105469 L 259 64.105469 L 259 152 L 152 152 Z M 152 64.105469 " clip-rule="nonzero"/></clipPath><clipPath id="id2"><path d="M 33 286 L 206 286 L 206 337.855469 L 33 337.855469 Z M 33 286 " clip-rule="nonzero"/></clipPath></defs><path fill="#a96551" d="M 192.929688 177.496094 C 192.929688 177.496094 324.433594 287.269531 328.523438 285.921875 C 332.613281 284.570312 347.535156 267.632812 345.265625 261.84375 C 342.996094 256.046875 200.808594 166.167969 200.808594 166.167969 Z M 192.929688 177.496094 " fill-opacity="1" fill-rule="nonzero"/><path fill="#97503d" d="M 107.085938 161.710938 C 107.085938 161.710938 146.09375 138.457031 158.789062 87.351562 L 239.492188 143.738281 C 239.492188 143.738281 195.175781 172.753906 187.789062 218.101562 Z M 107.085938 161.710938 " fill-opacity="1" fill-rule="nonzero"/><path fill="#a96551" d="M 104.558594 153.628906 C 104.558594 153.628906 83.53125 171.554688 90.914062 180.925781 C 98.300781 190.292969 167.894531 244.183594 175.859375 240.277344 C 183.824219 236.371094 198.515625 219.277344 194.554688 214.40625 C 190.59375 209.535156 123.054688 160.238281 104.558594 153.628906 Z M 104.558594 153.628906 " fill-opacity="1" fill-rule="nonzero"/><g clip-path="url(#id1)"><path fill="#a96551" d="M 167.800781 64.183594 C 167.800781 64.183594 146.777344 82.113281 154.160156 91.480469 C 161.542969 100.847656 231.136719 154.738281 239.101562 150.832031 C 247.066406 146.925781 261.757812 129.835938 257.796875 124.96875 C 253.839844 120.09375 186.296875 70.796875 167.800781 64.183594 Z M 167.800781 64.183594 " fill-opacity="1" fill-rule="nonzero"/></g><path fill="#c4773c" d="M 57.929688 294.101562 C 57.929688 294.101562 49.316406 272.523438 64.820312 266.480469 C 80.320312 260.4375 171.496094 257.109375 179.246094 266.1875 C 186.996094 275.265625 185.75 291.667969 183.359375 297.710938 Z M 57.929688 294.101562 " fill-opacity="1" fill-rule="nonzero"/><g clip-path="url(#id2)"><path fill="#d89355" d="M 35.105469 337.914062 C 35.105469 337.914062 27.21875 301.597656 46.855469 293.945312 C 66.492188 286.292969 188.28125 282.539062 198.101562 294.039062 C 207.917969 305.542969 206.339844 326.316406 203.3125 333.96875 Z M 35.105469 337.914062 " fill-opacity="1" fill-rule="nonzero"/></g></svg>