<svg xmlns="http://www.w3.org/2000/svg" xmlns:xlink="http://www.w3.org/1999/xlink" width="500" zoomAndPan="magnify" viewBox="0 0 375 374.999991" height="500" preserveAspectRatio="xMidYMid meet" version="1.0"><defs><clipPath id="id1"><path d="M 156 51.1875 L 312 51.1875 L 312 203 L 156 203 Z M 156 51.1875 " clip-rule="nonzero"/></clipPath><clipPath id="id2"><path d="M 58.171875 181 L 316.921875 181 L 316.921875 324.1875 L 58.171875 324.1875 Z M 58.171875 181 " clip-rule="nonzero"/></clipPath></defs><path fill="#ffcc34" d="M 128.425781 137.925781 L 123 142.171875 C 117.636719 146.371094 116.6875 154.152344 120.882812 159.523438 C 125.074219 164.890625 132.851562 165.84375 138.214844 161.644531 L 138.636719 161.3125 L 143.640625 157.398438 C 149.003906 153.199219 149.953125 145.414062 145.757812 140.046875 C 141.566406 134.679688 133.789062 133.726562 128.425781 137.925781 " fill-opacity="1" fill-rule="nonzero"/><path fill="#ffcc34" d="M 181.070312 140.476562 L 172.464844 147.210938 L 179.195312 155.824219 L 187.796875 149.089844 L 181.070312 140.476562 " fill-opacity="1" fill-rule="nonzero"/><path fill="#ffcc34" d="M 86.984375 274.171875 L 95.136719 292.648438 L 97.722656 291.21875 L 97.722656 275.4375 C 97.722656 273.902344 98.449219 272.457031 99.671875 271.539062 L 113.308594 261.300781 C 115.746094 259.464844 117.203125 256.550781 117.203125 253.5 L 117.203125 231.5625 C 117.203125 229.929688 118.019531 228.410156 119.375 227.503906 L 133.984375 217.753906 C 134.78125 217.222656 135.722656 216.9375 136.683594 216.9375 L 156.164062 216.9375 C 158.625 216.9375 160.699219 218.773438 161 221.21875 L 165.019531 254.054688 L 190.253906 240.113281 L 190.253906 237.351562 L 180.738281 239.003906 C 179.417969 239.234375 178.0625 238.90625 176.992188 238.105469 C 175.917969 237.304688 175.226562 236.09375 175.070312 234.761719 L 172.28125 210.6875 C 171.71875 205.867188 167.640625 202.15625 162.789062 202.0625 L 135.667969 201.582031 L 97.605469 227.925781 L 102.480469 250.007812 C 102.78125 251.371094 102.484375 252.796875 101.664062 253.925781 L 86.984375 274.171875 " fill-opacity="1" fill-rule="nonzero"/><g clip-path="url(#id1)"><path fill="#ffcc34" d="M 180.515625 95.0625 L 190.253906 95.0625 L 190.253906 104.8125 L 180.515625 104.8125 Z M 199.996094 163.3125 L 209.734375 163.3125 L 209.734375 173.0625 L 199.996094 173.0625 Z M 221.371094 163.3125 L 245.195312 163.3125 L 250.664062 159.25 L 256.46875 167.082031 L 249.703125 172.101562 C 248.863281 172.726562 247.847656 173.0625 246.800781 173.0625 L 221.371094 173.0625 Z M 224.347656 65.8125 L 234.085938 65.8125 L 234.085938 75.5625 L 224.347656 75.5625 Z M 248.695312 119.4375 L 258.4375 119.4375 L 258.4375 129.1875 L 248.695312 129.1875 Z M 266.207031 184.128906 L 256.136719 191.601562 C 255.296875 192.226562 254.28125 192.5625 253.234375 192.5625 L 234.085938 192.5625 L 234.085938 182.8125 L 251.628906 182.8125 L 260.40625 176.296875 Z M 263.59375 149.65625 L 269.023438 132.582031 L 278.304688 135.539062 L 272.398438 154.113281 C 272.089844 155.085938 271.480469 155.941406 270.65625 156.550781 L 266.207031 159.851562 L 260.40625 152.019531 Z M 273.652344 103.332031 L 276.753906 113.082031 L 267.472656 116.039062 L 264.371094 106.289062 Z M 275.839844 76.519531 L 287.3125 85.035156 C 288.132812 85.644531 288.742188 86.496094 289.054688 87.46875 L 294.097656 103.332031 L 284.816406 106.289062 L 280.246094 91.929688 L 270.042969 84.351562 Z M 298.746094 117.957031 L 301.074219 125.269531 C 301.378906 126.234375 301.378906 127.265625 301.074219 128.226562 L 289.054688 166.027344 C 288.742188 167 288.132812 167.851562 287.3125 168.460938 L 275.949219 176.898438 L 270.144531 169.066406 L 280.246094 161.570312 L 291.324219 126.75 L 289.46875 120.914062 Z M 156.40625 126.75 L 161.664062 143.289062 L 162.628906 142.535156 L 178.90625 129.792969 C 181.023438 128.132812 184.085938 128.507812 185.742188 130.628906 L 198.46875 146.921875 C 200.125 149.042969 199.75 152.105469 197.632812 153.765625 L 181.359375 166.507812 L 171.871094 173.933594 L 210.109375 202.3125 L 258.0625 202.3125 L 296.90625 173.484375 L 311.765625 126.75 L 296.90625 80.015625 L 258.0625 51.1875 L 210.109375 51.1875 L 171.269531 80.015625 L 156.40625 126.75 " fill-opacity="1" fill-rule="nonzero"/></g><path fill="#ffcc34" d="M 130.855469 109.773438 L 106.019531 129.261719 C 89.511719 142.214844 82.058594 163.765625 87.023438 184.164062 L 95.199219 217.738281 L 137.492188 188.46875 L 171.519531 161.828125 L 164.792969 153.21875 L 130.652344 179.941406 C 129.632812 180.742188 128.339844 181.097656 127.058594 180.941406 C 125.777344 180.785156 124.609375 180.125 123.816406 179.109375 L 102.601562 151.953125 C 101.804688 150.933594 101.445312 149.640625 101.601562 148.359375 C 101.761719 147.074219 102.421875 145.90625 103.4375 145.109375 L 137.578125 118.382812 L 136.308594 116.757812 L 130.855469 109.773438 " fill-opacity="1" fill-rule="nonzero"/><path fill="#ffcc34" d="M 138.523438 103.765625 L 145.25 112.375 L 153.855469 105.640625 L 147.125 97.03125 L 138.523438 103.765625 " fill-opacity="1" fill-rule="nonzero"/><g clip-path="url(#id2)"><path fill="#ffcc34" d="M 294.859375 226.089844 L 290.195312 217.53125 L 299.933594 212.214844 L 304.601562 220.773438 Z M 270.507812 265.089844 L 265.84375 256.53125 L 292.628906 241.90625 L 297.296875 250.464844 Z M 241.289062 318.714844 L 236.625 310.15625 L 290.195312 280.90625 L 294.859375 289.464844 Z M 182.847656 313.839844 L 178.183594 305.28125 L 213.898438 285.78125 L 218.5625 294.339844 Z M 158.5 294.785156 L 153.832031 286.222656 L 163.574219 280.90625 L 168.238281 289.464844 Z M 124.40625 314.285156 L 119.742188 305.722656 L 129.480469 300.40625 L 134.148438 308.964844 Z M 233.5625 242.085938 L 238.265625 250.625 L 212.089844 265.078125 L 207.382812 256.542969 Z M 251.214844 232.335938 L 255.917969 240.875 L 246.179688 246.253906 L 241.476562 237.714844 Z M 316.878906 181.320312 L 58.191406 324.1875 L 316.878906 324.1875 Z M 316.878906 181.320312 " fill-opacity="1" fill-rule="nonzero"/></g></svg>