<svg xmlns="http://www.w3.org/2000/svg" xmlns:xlink="http://www.w3.org/1999/xlink" width="500" zoomAndPan="magnify" viewBox="0 0 375 374.999991" height="500" preserveAspectRatio="xMidYMid meet" version="1.0"><path fill="#d8d7d5" d="M 194.117188 295.886719 C 171.171875 318.792969 133.972656 318.792969 111.027344 295.886719 C 88.085938 272.980469 88.085938 235.84375 111.027344 212.9375 C 133.972656 190.03125 171.171875 190.03125 194.117188 212.9375 C 217.058594 235.84375 217.058594 272.980469 194.117188 295.886719 " fill-opacity="1" fill-rule="nonzero"/><path fill="#ce6651" d="M 204.140625 161.769531 C 205.875 150.589844 234.25 128.261719 248.984375 118.480469 C 263.71875 108.699219 283.921875 78.589844 283.921875 78.589844 L 283.921875 78.585938 C 287.199219 74.402344 286.023438 67.398438 281.039062 62.421875 C 276.054688 57.441406 269.035156 56.273438 264.84375 59.546875 L 264.84375 59.542969 C 264.84375 59.542969 234.6875 79.714844 224.890625 94.421875 C 215.089844 109.132812 192.726562 137.460938 181.527344 139.191406 C 170.328125 140.921875 162.617188 154.621094 162.617188 154.621094 L 175.652344 167.632812 L 188.6875 180.648438 C 188.6875 180.648438 202.410156 172.953125 204.140625 161.769531 " fill-opacity="1" fill-rule="nonzero"/><path fill="#cdbe84" d="M 191.152344 298.652344 C 192.164062 297.769531 193.152344 296.847656 194.117188 295.886719 C 217.058594 272.980469 217.058594 235.84375 194.117188 212.9375 C 193.746094 212.566406 193.375 212.207031 192.996094 211.847656 C 193.375 212.207031 193.746094 212.570312 194.117188 212.9375 C 217.058594 235.84375 217.058594 272.980469 194.117188 295.886719 C 193.152344 296.847656 192.164062 297.769531 191.152344 298.652344 M 192.972656 211.824219 C 192.96875 211.820312 192.96875 211.820312 192.96875 211.820312 C 192.96875 211.820312 192.96875 211.820312 192.972656 211.824219 " fill-opacity="1" fill-rule="nonzero"/><path fill="#b8b5b3" d="M 152.574219 313.0625 C 151.296875 313.0625 150.023438 313.019531 148.746094 312.941406 L 153.191406 271.550781 C 157.339844 271.402344 161.441406 269.761719 164.625 266.632812 C 164.628906 266.628906 164.628906 266.628906 164.628906 266.628906 C 164.636719 266.625 164.640625 266.617188 164.648438 266.609375 C 164.648438 266.609375 164.652344 266.605469 164.652344 266.605469 C 164.65625 266.601562 164.664062 266.59375 164.667969 266.589844 C 164.671875 266.585938 164.675781 266.585938 164.675781 266.582031 C 164.679688 266.578125 164.6875 266.570312 164.691406 266.566406 C 164.695312 266.566406 164.695312 266.5625 164.699219 266.5625 C 164.707031 266.554688 164.714844 266.546875 164.71875 266.539062 C 168.074219 263.191406 169.75 258.800781 169.75 254.410156 C 169.75 250.023438 168.074219 245.632812 164.71875 242.285156 C 162.453125 240.023438 159.710938 238.527344 156.816406 237.792969 L 161.207031 196.910156 L 175.390625 200.347656 C 181.730469 203.015625 187.699219 206.835938 192.96875 211.820312 C 192.96875 211.820312 192.96875 211.820312 192.972656 211.824219 C 192.980469 211.832031 192.988281 211.839844 192.996094 211.847656 C 193.375 212.207031 193.746094 212.566406 194.117188 212.9375 C 217.058594 235.84375 217.058594 272.980469 194.117188 295.886719 C 193.152344 296.847656 192.164062 297.769531 191.152344 298.652344 C 180.121094 308.261719 166.347656 313.0625 152.574219 313.0625 " fill-opacity="1" fill-rule="nonzero"/><path fill="#a19e9d" d="M 179.0625 190.167969 L 153.039062 164.183594 L 162.617188 154.621094 L 188.644531 180.605469 L 179.0625 190.167969 " fill-opacity="1" fill-rule="nonzero"/><path fill="#a19e9d" d="M 164.71875 242.285156 C 162.164062 239.734375 159.007812 238.160156 155.703125 237.550781 C 155.507812 237.160156 155.316406 236.765625 155.132812 236.363281 C 151.929688 229.355469 150.394531 221.390625 152.039062 213.867188 C 153.441406 207.464844 157.03125 201.863281 161.207031 196.910156 C 162.078125 195.878906 172.566406 185.523438 172.378906 185.246094 C 172.25 185.058594 163.117188 171.464844 163.117188 171.464844 C 162.359375 172.027344 155.472656 177.175781 148.253906 185.566406 C 137.824219 197.691406 132.054688 210.195312 131.105469 222.730469 C 130.476562 231.054688 132.152344 240.945312 136.160156 249.355469 C 134.347656 255.230469 135.765625 261.886719 140.425781 266.539062 C 147.132812 273.238281 158.011719 273.238281 164.71875 266.539062 C 171.429688 259.84375 171.429688 248.980469 164.71875 242.285156 " fill-opacity="1" fill-rule="nonzero"/><path fill="#cdbe84" d="M 182.878906 186.359375 L 188.644531 180.605469 L 182.878906 186.359375 " fill-opacity="1" fill-rule="nonzero"/><path fill="#8a8686" d="M 182.878906 186.359375 C 178.347656 182.351562 173.675781 177.9375 169.054688 173.441406 L 169.050781 173.441406 L 175.261719 167.242188 L 175.652344 167.632812 L 188.644531 180.605469 L 182.878906 186.359375 " fill-opacity="1" fill-rule="nonzero"/><path fill="#d8d7d5" d="M 217.292969 202.582031 C 215.460938 200.753906 212.492188 200.753906 210.660156 202.582031 C 209.582031 203.660156 206.828125 202.816406 205.285156 202.222656 C 201.664062 200.824219 196.957031 197.859375 191.292969 193.414062 C 180.300781 184.785156 167.578125 172.082031 156.351562 160.875 C 133.101562 137.664062 118.859375 142.933594 116.183594 144.257812 C 115.582031 144.472656 115.019531 144.8125 114.542969 145.289062 C 112.761719 147.0625 112.828125 150.011719 114.691406 151.867188 C 116.332031 153.507812 118.824219 153.75 120.613281 152.558594 C 122.402344 152.011719 132.304688 150.105469 149.722656 167.496094 C 161.132812 178.886719 174.066406 191.800781 185.496094 200.773438 C 191.980469 205.863281 197.347656 209.195312 201.902344 210.953125 C 210.027344 214.089844 214.757812 211.734375 217.292969 209.203125 C 219.121094 207.375 219.121094 204.410156 217.292969 202.582031 " fill-opacity="1" fill-rule="nonzero"/><path fill="#cdbe84" d="M 188.6875 180.648438 C 188.71875 180.632812 202.410156 172.941406 204.140625 161.769531 C 205.875 150.589844 234.25 128.261719 248.984375 118.480469 C 263.71875 108.699219 283.921875 78.589844 283.921875 78.589844 C 283.921875 78.589844 263.71875 108.699219 248.984375 118.480469 C 234.25 128.261719 205.875 150.589844 204.140625 161.769531 C 202.410156 172.953125 188.6875 180.648438 188.6875 180.648438 M 283.921875 78.585938 C 287.191406 74.410156 286.03125 67.425781 281.070312 62.449219 C 286.03125 67.425781 287.191406 74.410156 283.921875 78.585938 " fill-opacity="1" fill-rule="nonzero"/><path fill="#b15948" d="M 188.6875 180.648438 L 188.644531 180.605469 L 175.261719 167.242188 L 280.640625 62.035156 C 280.773438 62.164062 280.90625 62.289062 281.039062 62.421875 C 281.050781 62.429688 281.058594 62.441406 281.070312 62.449219 C 286.03125 67.425781 287.191406 74.410156 283.921875 78.585938 L 283.921875 78.589844 C 283.921875 78.589844 263.71875 108.699219 248.984375 118.480469 C 234.25 128.261719 205.875 150.589844 204.140625 161.769531 C 202.410156 172.941406 188.71875 180.632812 188.6875 180.648438 " fill-opacity="1" fill-rule="nonzero"/><path fill="#787473" d="M 188.644531 180.605469 L 175.652344 167.632812 L 175.261719 167.242188 L 188.644531 180.605469 " fill-opacity="1" fill-rule="nonzero"/><path fill="#cdbe84" d="M 209.101562 212.457031 C 207.066406 212.457031 204.683594 212.027344 201.902344 210.953125 C 201.894531 210.949219 201.882812 210.945312 201.875 210.945312 C 201.882812 210.945312 201.894531 210.949219 201.902344 210.953125 C 204.683594 212.027344 207.066406 212.457031 209.101562 212.457031 C 213.007812 212.457031 215.625 210.867188 217.292969 209.203125 C 218.207031 208.289062 218.664062 207.089844 218.664062 205.894531 C 218.664062 207.089844 218.207031 208.289062 217.292969 209.203125 C 215.625 210.867188 213.007812 212.457031 209.101562 212.457031 M 201.871094 210.941406 C 201.863281 210.9375 201.855469 210.933594 201.847656 210.929688 C 201.855469 210.933594 201.863281 210.9375 201.871094 210.941406 M 201.847656 210.929688 C 201.835938 210.925781 201.832031 210.925781 201.820312 210.921875 C 201.828125 210.925781 201.835938 210.925781 201.847656 210.929688 M 201.820312 210.921875 C 201.8125 210.917969 201.804688 210.914062 201.796875 210.910156 C 201.804688 210.914062 201.8125 210.917969 201.820312 210.921875 M 201.792969 210.910156 C 201.777344 210.90625 201.757812 210.898438 201.742188 210.890625 C 201.757812 210.898438 201.777344 210.90625 201.792969 210.910156 M 201.738281 210.886719 C 201.730469 210.886719 201.726562 210.882812 201.71875 210.882812 C 201.726562 210.882812 201.730469 210.886719 201.738281 210.886719 M 201.710938 210.878906 C 201.703125 210.875 201.695312 210.871094 201.691406 210.871094 C 201.695312 210.871094 201.703125 210.875 201.710938 210.878906 M 201.675781 210.867188 C 201.675781 210.863281 201.671875 210.863281 201.667969 210.863281 C 201.671875 210.863281 201.675781 210.863281 201.675781 210.867188 M 201.652344 210.855469 C 201.652344 210.855469 201.652344 210.855469 201.648438 210.855469 C 201.652344 210.855469 201.652344 210.855469 201.652344 210.855469 M 191.292969 193.414062 C 191.28125 193.402344 191.269531 193.394531 191.253906 193.382812 C 191.269531 193.394531 191.28125 193.402344 191.292969 193.414062 M 191.242188 193.375 C 191.234375 193.367188 191.226562 193.359375 191.21875 193.355469 C 191.226562 193.363281 191.234375 193.367188 191.242188 193.375 M 191.203125 193.34375 C 191.195312 193.335938 191.1875 193.332031 191.175781 193.324219 C 191.1875 193.332031 191.195312 193.335938 191.203125 193.34375 M 191.167969 193.3125 C 191.15625 193.304688 191.144531 193.292969 191.132812 193.285156 C 191.144531 193.296875 191.15625 193.304688 191.167969 193.3125 M 191.117188 193.277344 C 191.109375 193.269531 191.101562 193.265625 191.09375 193.257812 C 191.101562 193.265625 191.113281 193.269531 191.117188 193.277344 M 191.078125 193.246094 C 191.070312 193.238281 191.0625 193.234375 191.058594 193.226562 C 191.0625 193.234375 191.070312 193.238281 191.078125 193.246094 M 191.039062 193.214844 C 191.03125 193.207031 191.023438 193.199219 191.015625 193.195312 C 191.019531 193.199219 191.03125 193.207031 191.039062 193.214844 M 191.003906 193.1875 C 190.992188 193.175781 190.980469 193.167969 190.96875 193.15625 C 190.980469 193.167969 190.992188 193.175781 191.003906 193.1875 M 190.957031 193.148438 C 190.949219 193.140625 190.9375 193.132812 190.929688 193.128906 C 190.9375 193.136719 190.945312 193.140625 190.957031 193.148438 M 190.917969 193.117188 C 190.910156 193.109375 190.898438 193.101562 190.890625 193.097656 C 190.898438 193.101562 190.90625 193.109375 190.917969 193.117188 M 190.878906 193.085938 C 190.855469 193.066406 190.828125 193.046875 190.804688 193.027344 C 190.828125 193.046875 190.851562 193.066406 190.878906 193.085938 M 190.792969 193.019531 C 190.78125 193.011719 190.773438 193.003906 190.765625 192.996094 C 190.773438 193.003906 190.78125 193.011719 190.792969 193.019531 M 190.753906 192.988281 C 190.742188 192.980469 190.734375 192.972656 190.722656 192.964844 C 190.734375 192.972656 190.742188 192.980469 190.753906 192.988281 M 190.714844 192.957031 C 190.703125 192.945312 190.691406 192.9375 190.679688 192.925781 C 190.691406 192.9375 190.703125 192.945312 190.714844 192.957031 M 190.671875 192.921875 C 190.664062 192.917969 190.652344 192.90625 190.640625 192.898438 C 190.652344 192.90625 190.664062 192.914062 190.671875 192.921875 M 190.628906 192.886719 C 190.617188 192.882812 190.609375 192.875 190.601562 192.867188 C 190.609375 192.875 190.621094 192.882812 190.628906 192.886719 M 190.589844 192.859375 C 190.578125 192.847656 190.566406 192.839844 190.554688 192.832031 C 190.566406 192.839844 190.578125 192.847656 190.589844 192.859375 M 190.550781 192.828125 C 190.539062 192.816406 190.523438 192.808594 190.511719 192.796875 C 190.523438 192.808594 190.539062 192.816406 190.550781 192.828125 M 190.507812 192.792969 C 190.496094 192.785156 190.484375 192.773438 190.472656 192.765625 C 190.484375 192.773438 190.496094 192.785156 190.507812 192.792969 M 190.464844 192.757812 C 190.457031 192.75 190.445312 192.742188 190.433594 192.734375 C 190.445312 192.742188 190.453125 192.75 190.464844 192.757812 M 190.425781 192.730469 C 190.402344 192.707031 190.375 192.6875 190.347656 192.664062 C 190.375 192.6875 190.402344 192.707031 190.425781 192.730469 M 190.34375 192.660156 C 190.332031 192.652344 190.320312 192.644531 190.308594 192.632812 C 190.320312 192.644531 190.332031 192.652344 190.34375 192.660156 M 190.304688 192.628906 C 187.894531 190.703125 185.410156 188.59375 182.878906 186.359375 C 185.410156 188.59375 187.894531 190.703125 190.304688 192.628906 " fill-opacity="1" fill-rule="nonzero"/><path fill="#8a8686" d="M 169.058594 173.445312 C 169.054688 173.445312 169.054688 173.441406 169.050781 173.441406 C 169.050781 173.441406 169.054688 173.441406 169.054688 173.441406 L 169.058594 173.445312 " fill-opacity="1" fill-rule="nonzero"/><path fill="#787473" d="M 182.878906 186.359375 C 178.351562 182.355469 173.679688 177.941406 169.058594 173.445312 L 169.054688 173.441406 C 173.675781 177.9375 178.347656 182.351562 182.878906 186.359375 " fill-opacity="1" fill-rule="nonzero"/><path fill="#b8b5b3" d="M 209.101562 212.457031 C 207.066406 212.457031 204.683594 212.027344 201.902344 210.953125 C 201.894531 210.949219 201.882812 210.945312 201.875 210.945312 C 201.875 210.941406 201.875 210.941406 201.871094 210.941406 C 201.863281 210.9375 201.855469 210.933594 201.847656 210.929688 C 201.835938 210.925781 201.828125 210.925781 201.820312 210.921875 C 201.8125 210.917969 201.804688 210.914062 201.796875 210.910156 C 201.796875 210.910156 201.792969 210.910156 201.792969 210.910156 C 201.777344 210.90625 201.757812 210.898438 201.742188 210.890625 C 201.742188 210.890625 201.738281 210.886719 201.738281 210.886719 C 201.730469 210.886719 201.726562 210.882812 201.71875 210.882812 C 201.71875 210.882812 201.714844 210.878906 201.710938 210.878906 C 201.703125 210.875 201.695312 210.871094 201.691406 210.871094 C 201.6875 210.867188 201.679688 210.867188 201.675781 210.867188 C 201.675781 210.863281 201.671875 210.863281 201.667969 210.863281 C 201.664062 210.859375 201.65625 210.855469 201.652344 210.855469 C 201.652344 210.855469 201.652344 210.855469 201.648438 210.855469 C 198.453125 209.585938 194.855469 207.546875 190.757812 204.6875 L 162.421875 180.058594 L 169.050781 173.441406 C 169.054688 173.441406 169.054688 173.445312 169.058594 173.445312 C 173.679688 177.941406 178.351562 182.355469 182.878906 186.359375 C 185.410156 188.59375 187.894531 190.703125 190.304688 192.628906 C 190.304688 192.628906 190.304688 192.632812 190.308594 192.632812 C 190.320312 192.644531 190.332031 192.652344 190.34375 192.660156 C 190.34375 192.664062 190.347656 192.664062 190.347656 192.664062 C 190.375 192.6875 190.402344 192.707031 190.425781 192.730469 C 190.429688 192.730469 190.429688 192.730469 190.433594 192.734375 C 190.445312 192.742188 190.457031 192.75 190.464844 192.757812 C 190.46875 192.761719 190.472656 192.765625 190.472656 192.765625 C 190.484375 192.773438 190.496094 192.785156 190.507812 192.792969 C 190.507812 192.792969 190.511719 192.796875 190.511719 192.796875 C 190.523438 192.808594 190.539062 192.816406 190.550781 192.828125 C 190.554688 192.828125 190.554688 192.828125 190.554688 192.832031 C 190.566406 192.839844 190.578125 192.847656 190.589844 192.859375 C 190.59375 192.859375 190.597656 192.863281 190.601562 192.867188 C 190.609375 192.875 190.617188 192.882812 190.628906 192.886719 C 190.632812 192.890625 190.636719 192.894531 190.640625 192.898438 C 190.652344 192.90625 190.664062 192.917969 190.671875 192.921875 C 190.675781 192.925781 190.675781 192.925781 190.679688 192.925781 C 190.691406 192.9375 190.703125 192.945312 190.714844 192.957031 C 190.71875 192.960938 190.722656 192.960938 190.722656 192.964844 C 190.734375 192.972656 190.742188 192.980469 190.753906 192.988281 C 190.757812 192.992188 190.761719 192.996094 190.765625 192.996094 C 190.773438 193.003906 190.78125 193.011719 190.792969 193.019531 C 190.796875 193.019531 190.800781 193.023438 190.804688 193.027344 C 190.828125 193.046875 190.855469 193.066406 190.878906 193.085938 C 190.882812 193.089844 190.886719 193.09375 190.890625 193.097656 C 190.898438 193.101562 190.910156 193.109375 190.917969 193.117188 C 190.917969 193.117188 190.925781 193.125 190.929688 193.128906 C 190.9375 193.132812 190.949219 193.140625 190.957031 193.148438 C 190.960938 193.152344 190.964844 193.15625 190.96875 193.15625 C 190.980469 193.167969 190.992188 193.175781 191.003906 193.1875 C 191.007812 193.1875 191.011719 193.191406 191.015625 193.195312 C 191.023438 193.199219 191.03125 193.207031 191.039062 193.214844 C 191.046875 193.21875 191.050781 193.222656 191.058594 193.226562 C 191.0625 193.234375 191.070312 193.238281 191.078125 193.246094 C 191.082031 193.25 191.089844 193.253906 191.09375 193.257812 C 191.101562 193.265625 191.109375 193.269531 191.117188 193.277344 C 191.121094 193.28125 191.128906 193.285156 191.132812 193.285156 C 191.144531 193.292969 191.15625 193.304688 191.167969 193.3125 C 191.171875 193.316406 191.175781 193.320312 191.175781 193.324219 C 191.1875 193.332031 191.195312 193.335938 191.203125 193.34375 C 191.210938 193.347656 191.214844 193.351562 191.21875 193.355469 C 191.226562 193.359375 191.234375 193.367188 191.242188 193.375 C 191.246094 193.378906 191.253906 193.382812 191.253906 193.382812 C 191.269531 193.394531 191.28125 193.402344 191.292969 193.414062 C 196.957031 197.859375 201.664062 200.824219 205.285156 202.222656 C 206.289062 202.609375 207.808594 203.101562 209.039062 203.101562 C 209.703125 203.101562 210.285156 202.960938 210.660156 202.582031 C 211.574219 201.667969 212.777344 201.214844 213.976562 201.214844 C 215.175781 201.214844 216.375 201.667969 217.292969 202.582031 C 218.207031 203.496094 218.664062 204.695312 218.664062 205.894531 C 218.664062 207.089844 218.207031 208.289062 217.292969 209.203125 C 215.625 210.867188 213.007812 212.457031 209.101562 212.457031 " fill-opacity="1" fill-rule="nonzero"/><path fill="#9d9998" d="M 164.625 266.632812 C 164.628906 266.628906 164.628906 266.628906 164.628906 266.628906 C 164.628906 266.628906 164.628906 266.628906 164.625 266.632812 M 164.648438 266.609375 C 164.648438 266.609375 164.652344 266.605469 164.652344 266.605469 C 164.652344 266.605469 164.648438 266.609375 164.648438 266.609375 M 164.667969 266.589844 C 164.671875 266.585938 164.675781 266.585938 164.675781 266.582031 C 164.675781 266.585938 164.671875 266.585938 164.667969 266.589844 M 164.691406 266.566406 C 164.695312 266.566406 164.695312 266.5625 164.699219 266.5625 C 164.695312 266.5625 164.695312 266.566406 164.691406 266.566406 " fill-opacity="1" fill-rule="nonzero"/><path fill="#8a8686" d="M 157.9375 270.703125 C 147.660156 258 143.246094 243.464844 141.257812 222.945312 C 139.273438 202.480469 162.296875 180.179688 162.421875 180.0625 C 165.011719 182.582031 167.621094 185.078125 170.222656 187.507812 L 170.242188 187.660156 C 167.1875 190.847656 161.867188 196.140625 161.214844 196.902344 C 161.214844 196.902344 161.214844 196.90625 161.210938 196.90625 C 161.210938 196.90625 161.210938 196.910156 161.207031 196.910156 C 157.03125 201.863281 153.441406 207.464844 152.039062 213.867188 C 151.585938 215.953125 151.371094 218.074219 151.371094 220.199219 C 151.371094 225.734375 152.816406 231.300781 155.132812 236.363281 C 155.316406 236.765625 155.507812 237.160156 155.703125 237.550781 C 159.007812 238.160156 162.164062 239.734375 164.71875 242.285156 C 168.074219 245.632812 169.75 250.023438 169.75 254.410156 C 169.75 258.800781 168.074219 263.191406 164.71875 266.539062 C 164.714844 266.546875 164.703125 266.554688 164.699219 266.5625 C 164.695312 266.5625 164.695312 266.566406 164.691406 266.566406 C 164.6875 266.570312 164.679688 266.578125 164.675781 266.582031 C 164.675781 266.585938 164.671875 266.585938 164.667969 266.589844 C 164.664062 266.59375 164.65625 266.601562 164.652344 266.605469 C 164.652344 266.605469 164.648438 266.609375 164.648438 266.609375 C 164.640625 266.617188 164.636719 266.625 164.628906 266.628906 C 164.628906 266.628906 164.628906 266.628906 164.625 266.632812 C 162.675781 268.550781 160.378906 269.90625 157.9375 270.703125 " fill-opacity="1" fill-rule="nonzero"/><path fill="#b8b5b3" d="M 170.222656 187.507812 C 167.621094 185.078125 165.011719 182.582031 162.421875 180.0625 C 162.421875 180.0625 162.421875 180.058594 162.421875 180.058594 L 170.214844 187.421875 L 170.222656 187.507812 " fill-opacity="1" fill-rule="nonzero"/></svg>