<svg xmlns="http://www.w3.org/2000/svg" xmlns:xlink="http://www.w3.org/1999/xlink" width="500" zoomAndPan="magnify" viewBox="0 0 375 374.999991" height="500" preserveAspectRatio="xMidYMid meet" version="1.0"><defs><clipPath id="id1"><path d="M 37.335938 62.523438 L 337.335938 62.523438 L 337.335938 312.273438 L 37.335938 312.273438 Z M 37.335938 62.523438 " clip-rule="nonzero"/></clipPath></defs><g clip-path="url(#id1)"><path fill="#d75f5f" d="M 297.378906 206.53125 L 281.253906 206.53125 L 187.394531 298.761719 L 98.628906 211.535156 L 82.503906 211.535156 L 183.425781 310.714844 C 184.523438 311.796875 185.957031 312.339844 187.382812 312.339844 C 188.804688 312.339844 190.238281 311.796875 191.347656 310.714844 L 297.378906 206.53125 M 263.265625 62.566406 C 244.589844 62.554688 225.84375 69.628906 211.460938 83.757812 L 187.394531 107.414062 L 163.324219 83.757812 C 148.953125 69.640625 130.21875 62.566406 111.542969 62.566406 C 111.53125 62.566406 111.53125 62.566406 111.519531 62.566406 C 101.960938 62.566406 92.402344 64.410156 83.417969 68.089844 C 74.4375 71.773438 66.03125 77.308594 58.808594 84.652344 C 44.675781 99.019531 37.601562 117.757812 37.613281 136.441406 C 37.613281 146 39.453125 155.554688 43.136719 164.535156 C 46.820312 173.515625 52.359375 181.917969 59.714844 189.136719 L 71.011719 200.242188 L 87.136719 200.242188 L 67.632812 181.082031 C 61.386719 174.949219 56.71875 167.84375 53.589844 160.242188 C 50.46875 152.640625 48.898438 144.542969 48.898438 136.441406 C 48.910156 120.582031 54.867188 104.78125 66.855469 92.570312 C 72.988281 86.324219 80.097656 81.65625 87.699219 78.539062 C 95.304688 75.421875 103.40625 73.851562 111.507812 73.851562 C 127.371094 73.863281 143.179688 79.816406 155.394531 91.800781 L 183.425781 119.339844 C 184.523438 120.425781 185.957031 120.96875 187.382812 120.96875 C 188.804688 120.96875 190.238281 120.425781 191.347656 119.339844 L 219.378906 91.800781 C 231.582031 79.816406 247.402344 73.851562 263.253906 73.851562 C 271.355469 73.851562 279.457031 75.421875 287.0625 78.539062 C 294.667969 81.65625 301.761719 86.335938 307.910156 92.570312 C 319.898438 104.769531 325.863281 120.582031 325.863281 136.441406 C 325.863281 144.542969 324.292969 152.640625 321.171875 160.242188 C 318.054688 167.84375 313.378906 174.9375 307.140625 181.082031 L 292.746094 195.238281 L 308.867188 195.238281 L 315.070312 189.148438 C 322.417969 181.929688 327.953125 173.527344 331.636719 164.546875 C 335.320312 155.566406 337.160156 146.011719 337.160156 136.453125 C 337.160156 117.769531 330.101562 99.03125 315.964844 84.664062 C 308.746094 77.320312 300.339844 71.785156 291.355469 68.101562 C 282.382812 64.421875 272.824219 62.566406 263.265625 62.566406 " fill-opacity="1" fill-rule="nonzero"/></g><path fill="#9d9c9c" d="M 71.011719 200.253906 L 50.109375 200.253906 C 46.992188 200.253906 44.460938 202.78125 44.460938 205.898438 C 44.460938 209.019531 46.992188 211.546875 50.109375 211.546875 L 82.515625 211.546875 L 71.011719 200.253906 M 323.117188 195.238281 L 308.867188 195.238281 L 297.378906 206.53125 L 323.117188 206.53125 C 326.234375 206.53125 328.765625 204.003906 328.765625 200.886719 C 328.765625 197.765625 326.234375 195.238281 323.117188 195.238281 M 171.4375 136.09375 C 169.359375 136.09375 167.40625 137.253906 166.433594 139.121094 L 134.332031 200.253906 L 87.125 200.253906 L 98.617188 211.546875 L 137.734375 211.546875 C 139.847656 211.546875 141.753906 210.394531 142.738281 208.519531 L 170.308594 156.007812 L 196.917969 234.171875 C 197.539062 235.992188 199.042969 237.382812 200.917969 237.84375 C 201.371094 237.957031 201.820312 238.003906 202.261719 238.003906 C 203.699219 238.003906 205.097656 237.460938 206.160156 236.445312 L 237.605469 206.53125 L 281.242188 206.53125 L 292.734375 195.238281 L 235.347656 195.238281 C 233.898438 195.238281 232.5 195.800781 231.449219 196.796875 L 204.757812 222.175781 L 176.761719 139.921875 C 176.039062 137.785156 174.09375 136.285156 171.84375 136.113281 C 171.730469 136.09375 171.585938 136.09375 171.4375 136.09375 " fill-opacity="1" fill-rule="nonzero"/><path fill="#843c3a" d="M 87.136719 200.253906 L 71.011719 200.253906 L 82.503906 211.546875 L 98.628906 211.546875 L 87.136719 200.253906 M 308.867188 195.238281 L 292.746094 195.238281 L 281.253906 206.53125 L 297.378906 206.53125 L 308.867188 195.238281 " fill-opacity="1" fill-rule="nonzero"/></svg>