<svg xmlns="http://www.w3.org/2000/svg" xmlns:xlink="http://www.w3.org/1999/xlink" width="500" zoomAndPan="magnify" viewBox="0 0 375 374.999991" height="500" preserveAspectRatio="xMidYMid meet" version="1.0"><defs><clipPath id="id1"><path d="M 38 57.84375 L 308 57.84375 L 308 317.34375 L 38 317.34375 Z M 38 57.84375 " clip-rule="nonzero"/></clipPath></defs><g clip-path="url(#id1)"><path fill="#ffcc00" d="M 184.878906 86.140625 L 190.929688 98.414062 C 191.273438 99.105469 192.109375 99.390625 192.800781 99.046875 C 193.492188 98.707031 193.777344 97.867188 193.4375 97.179688 L 187.382812 84.902344 C 187.039062 84.210938 186.203125 83.925781 185.511719 84.265625 C 184.820312 84.609375 184.535156 85.445312 184.878906 86.140625 Z M 196.980469 110.6875 L 203.035156 122.960938 C 203.375 123.652344 204.210938 123.9375 204.90625 123.597656 C 205.59375 123.253906 205.878906 122.417969 205.539062 121.722656 L 199.484375 109.449219 C 199.144531 108.757812 198.308594 108.476562 197.617188 108.816406 C 196.925781 109.15625 196.640625 109.996094 196.980469 110.6875 Z M 209.085938 135.234375 L 214.710938 146.648438 L 217.117188 146.996094 C 217.878906 147.109375 218.589844 146.574219 218.699219 145.8125 C 218.808594 145.050781 218.28125 144.339844 217.519531 144.226562 L 216.5625 144.089844 L 211.589844 134 C 211.25 133.308594 210.410156 133.023438 209.71875 133.363281 C 209.027344 133.707031 208.746094 134.542969 209.085938 135.234375 Z M 230.648438 148.964844 L 244.179688 150.933594 C 244.941406 151.042969 245.652344 150.515625 245.765625 149.75 C 245.875 148.984375 245.347656 148.277344 244.582031 148.164062 L 231.050781 146.195312 C 230.285156 146.085938 229.578125 146.617188 229.46875 147.378906 C 229.355469 148.144531 229.886719 148.851562 230.648438 148.964844 Z M 257.710938 152.902344 L 271.242188 154.871094 C 272.007812 154.980469 272.714844 154.453125 272.828125 153.6875 C 272.9375 152.921875 272.410156 152.214844 271.648438 152.101562 L 258.113281 150.132812 C 257.347656 150.023438 256.644531 150.554688 256.53125 151.316406 C 256.417969 152.078125 256.949219 152.789062 257.710938 152.902344 Z M 284.777344 156.839844 L 298.308594 158.804688 C 299.070312 158.914062 299.78125 158.386719 299.890625 157.625 C 300 156.859375 299.472656 156.148438 298.710938 156.039062 L 285.175781 154.070312 C 284.414062 153.960938 283.707031 154.488281 283.59375 155.25 C 283.484375 156.015625 284.011719 156.726562 284.777344 156.839844 Z M 305.285156 160.273438 L 295.488281 169.824219 C 294.9375 170.363281 294.925781 171.25 295.464844 171.800781 C 296.003906 172.355469 296.886719 172.367188 297.4375 171.824219 L 307.230469 162.273438 C 307.785156 161.734375 307.796875 160.847656 307.257812 160.296875 C 306.71875 159.742188 305.835938 159.730469 305.285156 160.273438 Z M 285.699219 179.378906 L 275.90625 188.933594 C 275.355469 189.472656 275.34375 190.359375 275.882812 190.910156 C 276.421875 191.464844 277.304688 191.472656 277.855469 190.9375 L 287.648438 181.382812 C 288.203125 180.84375 288.210938 179.957031 287.671875 179.40625 C 287.136719 178.851562 286.25 178.839844 285.699219 179.378906 Z M 266.117188 198.488281 L 256.324219 208.042969 C 255.773438 208.582031 255.757812 209.464844 256.300781 210.019531 C 256.835938 210.570312 257.722656 210.582031 258.273438 210.042969 L 268.066406 200.488281 C 268.617188 199.949219 268.628906 199.066406 268.089844 198.511719 C 267.554688 197.960938 266.667969 197.945312 266.117188 198.488281 Z M 246.53125 217.59375 L 239.855469 224.113281 L 240.839844 229.851562 C 240.96875 230.613281 241.691406 231.121094 242.453125 230.992188 C 243.210938 230.859375 243.722656 230.140625 243.59375 229.378906 L 242.855469 225.085938 L 248.484375 219.597656 C 249.035156 219.058594 249.046875 218.175781 248.507812 217.621094 C 247.96875 217.070312 247.085938 217.058594 246.53125 217.59375 Z M 243.152344 243.339844 L 245.464844 256.832031 C 245.59375 257.589844 246.316406 258.105469 247.074219 257.972656 C 247.835938 257.84375 248.347656 257.117188 248.214844 256.359375 L 245.902344 242.867188 C 245.773438 242.105469 245.050781 241.59375 244.289062 241.726562 C 243.53125 241.859375 243.019531 242.582031 243.152344 243.339844 Z M 247.773438 270.320312 L 250.085938 283.8125 C 250.21875 284.570312 250.941406 285.082031 251.699219 284.953125 C 252.460938 284.824219 252.96875 284.101562 252.839844 283.339844 L 250.527344 269.847656 C 250.398438 269.085938 249.675781 268.578125 248.914062 268.707031 C 248.15625 268.839844 247.644531 269.5625 247.773438 270.320312 Z M 252.398438 297.300781 L 254.710938 310.792969 C 254.839844 311.554688 255.5625 312.0625 256.324219 311.933594 C 257.082031 311.804688 257.59375 311.082031 257.464844 310.320312 L 255.152344 296.828125 C 255.019531 296.070312 254.296875 295.558594 253.539062 295.6875 C 252.777344 295.820312 252.269531 296.539062 252.398438 297.300781 Z M 251.90625 312.96875 L 239.800781 306.597656 C 239.117188 306.242188 238.273438 306.503906 237.914062 307.183594 C 237.558594 307.867188 237.820312 308.714844 238.5 309.070312 L 250.605469 315.441406 C 251.285156 315.800781 252.132812 315.539062 252.492188 314.855469 C 252.847656 314.171875 252.585938 313.328125 251.90625 312.96875 Z M 227.699219 300.230469 L 215.59375 293.859375 C 214.910156 293.503906 214.066406 293.765625 213.707031 294.445312 C 213.347656 295.132812 213.613281 295.976562 214.296875 296.335938 L 226.398438 302.707031 C 227.082031 303.0625 227.925781 302.800781 228.285156 302.117188 C 228.644531 301.433594 228.378906 300.589844 227.699219 300.230469 Z M 203.492188 287.492188 L 191.386719 281.121094 C 190.707031 280.761719 189.859375 281.027344 189.5 281.707031 C 189.144531 282.394531 189.40625 283.238281 190.085938 283.597656 L 202.191406 289.964844 C 202.871094 290.324219 203.71875 290.0625 204.078125 289.378906 C 204.4375 288.695312 204.175781 287.851562 203.492188 287.492188 Z M 179.285156 274.753906 L 174.027344 271.988281 L 165.882812 276.277344 C 165.199219 276.632812 164.933594 277.480469 165.296875 278.160156 C 165.65625 278.84375 166.496094 279.109375 167.183594 278.75 L 174.027344 275.144531 L 177.984375 277.226562 C 178.667969 277.585938 179.511719 277.324219 179.871094 276.640625 C 180.230469 275.957031 179.964844 275.113281 179.285156 274.753906 Z M 153.777344 282.644531 L 141.671875 289.015625 C 140.992188 289.371094 140.730469 290.21875 141.089844 290.898438 C 141.445312 291.582031 142.292969 291.847656 142.972656 291.488281 L 155.078125 285.117188 C 155.761719 284.761719 156.023438 283.914062 155.664062 283.230469 C 155.304688 282.546875 154.460938 282.285156 153.777344 282.644531 Z M 129.570312 295.382812 L 117.46875 301.75 C 116.785156 302.109375 116.519531 302.957031 116.882812 303.640625 C 117.242188 304.320312 118.085938 304.582031 118.765625 304.226562 L 130.871094 297.855469 C 131.554688 297.496094 131.816406 296.652344 131.457031 295.96875 C 131.097656 295.285156 130.253906 295.023438 129.570312 295.382812 Z M 105.363281 308.117188 L 93.261719 314.488281 C 92.578125 314.847656 92.316406 315.695312 92.675781 316.378906 C 93.03125 317.058594 93.878906 317.320312 94.558594 316.964844 L 106.664062 310.59375 C 107.347656 310.234375 107.609375 309.390625 107.25 308.707031 C 106.890625 308.023438 106.046875 307.761719 105.363281 308.117188 Z M 93.898438 307.570312 L 96.210938 294.082031 C 96.339844 293.320312 95.828125 292.597656 95.070312 292.464844 C 94.308594 292.335938 93.585938 292.847656 93.457031 293.605469 L 91.144531 307.097656 C 91.015625 307.859375 91.523438 308.582031 92.285156 308.710938 C 93.046875 308.84375 93.765625 308.332031 93.898438 307.570312 Z M 98.519531 280.589844 L 100.832031 267.101562 C 100.960938 266.339844 100.453125 265.613281 99.695312 265.484375 C 98.933594 265.355469 98.210938 265.867188 98.078125 266.628906 L 95.769531 280.117188 C 95.636719 280.878906 96.148438 281.597656 96.910156 281.730469 C 97.667969 281.859375 98.390625 281.351562 98.519531 280.589844 Z M 103.144531 253.609375 L 105.457031 240.117188 C 105.585938 239.355469 105.074219 238.632812 104.316406 238.503906 C 103.554688 238.375 102.832031 238.882812 102.703125 239.644531 L 100.390625 253.136719 C 100.261719 253.898438 100.769531 254.621094 101.53125 254.75 C 102.292969 254.878906 103.011719 254.371094 103.144531 253.609375 Z M 107.765625 226.625 L 108.199219 224.113281 L 99.179688 215.3125 C 98.628906 214.773438 97.742188 214.785156 97.207031 215.335938 C 96.667969 215.890625 96.679688 216.777344 97.230469 217.3125 L 105.195312 225.085938 L 105.015625 226.152344 C 104.882812 226.914062 105.394531 227.640625 106.15625 227.769531 C 106.914062 227.898438 107.636719 227.386719 107.765625 226.625 Z M 89.390625 205.761719 L 79.597656 196.207031 C 79.042969 195.667969 78.160156 195.679688 77.625 196.230469 C 77.082031 196.785156 77.09375 197.667969 77.648438 198.207031 L 87.4375 207.761719 C 87.992188 208.300781 88.875 208.289062 89.414062 207.738281 C 89.949219 207.183594 89.941406 206.296875 89.390625 205.761719 Z M 69.808594 186.648438 L 60.011719 177.097656 C 59.460938 176.558594 58.578125 176.566406 58.039062 177.121094 C 57.5 177.671875 57.511719 178.5625 58.066406 179.097656 L 67.855469 188.652344 C 68.40625 189.191406 69.292969 189.179688 69.832031 188.625 C 70.367188 188.074219 70.359375 187.191406 69.808594 186.648438 Z M 50.222656 167.542969 L 40.429688 157.988281 C 39.878906 157.449219 38.996094 157.460938 38.457031 158.015625 C 37.917969 158.566406 37.929688 159.453125 38.480469 159.992188 L 48.269531 169.542969 C 48.824219 170.085938 49.707031 170.074219 50.25 169.519531 C 50.785156 168.96875 50.773438 168.082031 50.222656 167.542969 Z M 52.976562 158.335938 L 66.507812 156.367188 C 67.269531 156.257812 67.800781 155.546875 67.6875 154.78125 C 67.578125 154.019531 66.871094 153.492188 66.105469 153.601562 L 52.574219 155.570312 C 51.8125 155.679688 51.28125 156.390625 51.390625 157.15625 C 51.503906 157.917969 52.210938 158.445312 52.976562 158.335938 Z M 80.039062 154.398438 L 93.570312 152.433594 C 94.335938 152.320312 94.863281 151.609375 94.75 150.84375 C 94.640625 150.082031 93.933594 149.554688 93.167969 149.664062 L 79.636719 151.632812 C 78.875 151.742188 78.347656 152.453125 78.457031 153.214844 C 78.566406 153.980469 79.277344 154.507812 80.039062 154.398438 Z M 107.101562 150.464844 L 120.632812 148.496094 C 121.398438 148.382812 121.925781 147.671875 121.816406 146.910156 C 121.703125 146.148438 120.996094 145.617188 120.234375 145.726562 L 106.699219 147.695312 C 105.9375 147.808594 105.40625 148.515625 105.519531 149.28125 C 105.632812 150.042969 106.339844 150.574219 107.101562 150.464844 Z M 134.359375 144.582031 L 140.414062 132.308594 C 140.753906 131.613281 140.46875 130.777344 139.78125 130.433594 C 139.085938 130.09375 138.25 130.378906 137.910156 131.070312 L 131.855469 143.34375 C 131.515625 144.035156 131.800781 144.875 132.488281 145.214844 C 133.183594 145.558594 134.019531 145.273438 134.359375 144.582031 Z M 146.464844 120.035156 L 152.515625 107.757812 C 152.859375 107.070312 152.574219 106.230469 151.882812 105.886719 C 151.191406 105.546875 150.355469 105.828125 150.011719 106.523438 L 143.957031 118.796875 C 143.621094 119.488281 143.902344 120.324219 144.59375 120.667969 C 145.285156 121.007812 146.125 120.726562 146.464844 120.035156 Z M 158.570312 95.484375 L 164.621094 83.210938 C 164.960938 82.519531 164.679688 81.683594 163.984375 81.339844 C 163.296875 80.996094 162.457031 81.285156 162.113281 81.972656 L 156.0625 94.25 C 155.722656 94.941406 156.003906 95.78125 156.699219 96.121094 C 157.386719 96.460938 158.226562 96.179688 158.570312 95.484375 Z M 170.671875 70.9375 L 174.027344 64.132812 L 178.828125 73.867188 C 179.167969 74.558594 180.007812 74.84375 180.695312 74.503906 C 181.390625 74.160156 181.671875 73.324219 181.332031 72.628906 L 174.027344 57.816406 L 168.167969 69.699219 C 167.824219 70.394531 168.109375 71.230469 168.800781 71.574219 C 169.492188 71.914062 170.328125 71.628906 170.671875 70.9375 " fill-opacity="1" fill-rule="nonzero"/></g><path fill="#ffcc00" d="M 137.246094 166.648438 C 137.023438 167.230469 135.425781 170.933594 131.054688 170.703125 C 126.839844 170.480469 125.011719 166.660156 125.011719 166.660156 L 125.015625 166.664062 C 124.339844 165.183594 124.257812 163.507812 124.933594 161.996094 C 126.261719 159.003906 130.046875 157.800781 133.375 159.289062 C 136.425781 160.664062 138.03125 163.832031 137.246094 166.648438 Z M 117.785156 122.804688 C 117.890625 122.09375 118.574219 118.546875 122.050781 117.0625 C 126.023438 115.367188 128.765625 118.183594 129.253906 118.730469 C 130.972656 121.125 130.550781 124.679688 128.148438 127.027344 C 125.53125 129.578125 121.570312 129.738281 119.292969 127.375 C 118.109375 126.148438 117.621094 124.480469 117.785156 122.804688 Z M 140.308594 166.777344 C 140.871094 165.445312 141.21875 164.613281 141.417969 164.113281 C 141.5 163.980469 143.117188 161.109375 139.953125 159.8125 C 136.519531 158.40625 121.613281 152.761719 121.613281 152.761719 L 114.0625 150.210938 C 114.0625 150.210938 113.292969 149.835938 112.578125 150.28125 C 111.242188 149.277344 109.46875 147.636719 108.683594 146.671875 C 109.234375 145.433594 110.265625 143.628906 111.117188 142.429688 C 112.230469 143.140625 113.109375 142.230469 113.109375 142.230469 L 119.339844 137.226562 C 119.339844 137.226562 131.40625 126.777344 134.148438 124.277344 C 136.710938 121.9375 134.117188 119.765625 134.054688 119.710938 C 133.554688 119.15625 132.605469 118.121094 130.859375 116.253906 C 127.78125 112.96875 121.953125 112.765625 118.085938 116.144531 C 114.21875 119.523438 114.261719 123.917969 115.121094 128.894531 C 115.972656 133.867188 109.6875 138.796875 109.6875 138.796875 C 109.15625 139.394531 108.980469 139.695312 109.1875 140.148438 L 103.289062 144.453125 C 94.46875 142.921875 74.648438 139.484375 73.195312 139.238281 C 72.40625 139.101562 72.230469 139.171875 72.292969 139.292969 C 71.285156 139.222656 72.507812 139.847656 72.507812 139.847656 L 97.957031 148.34375 L 76.226562 164.207031 C 76.226562 164.207031 75.273438 165.160156 76.15625 164.824219 C 75.910156 165.132812 75.726562 165.492188 76.855469 164.914062 C 78.207031 164.226562 97.078125 154.496094 104.664062 150.582031 L 111.261719 152.785156 C 110.890625 153.851562 111.042969 154.070312 112.011719 154.59375 C 112.011719 154.59375 119.597656 157.054688 120.492188 162 C 121.386719 166.953125 122.847656 171.074219 127.632812 172.910156 C 132.417969 174.75 137.820312 172.570312 139.59375 168.441406 C 139.828125 167.890625 140.039062 167.402344 140.226562 166.960938 L 140.226562 166.964844 L 140.308594 166.777344 " fill-opacity="1" fill-rule="nonzero"/></svg>