<svg xmlns="http://www.w3.org/2000/svg" xmlns:xlink="http://www.w3.org/1999/xlink" width="500" zoomAndPan="magnify" viewBox="0 0 375 374.999991" height="500" preserveAspectRatio="xMidYMid meet" version="1.0"><defs><clipPath id="id1"><path d="M 94 51.8125 L 221 51.8125 L 221 202 L 94 202 Z M 94 51.8125 " clip-rule="nonzero"/></clipPath><clipPath id="id2"><path d="M 52 196 L 323.3125 196 L 323.3125 323.3125 L 52 323.3125 Z M 52 196 " clip-rule="nonzero"/></clipPath></defs><path fill="#88e647" d="M 291.789062 297.652344 C 291.789062 297.921875 291.765625 298.191406 291.710938 298.453125 C 291.660156 298.71875 291.582031 298.976562 291.476562 299.226562 C 291.375 299.476562 291.246094 299.714844 291.097656 299.941406 C 290.945312 300.164062 290.777344 300.371094 290.585938 300.5625 C 290.394531 300.753906 290.183594 300.925781 289.960938 301.074219 C 289.734375 301.226562 289.5 301.351562 289.25 301.457031 C 289 301.558594 288.742188 301.636719 288.476562 301.691406 C 288.210938 301.742188 287.941406 301.769531 287.671875 301.769531 C 287.402344 301.769531 287.132812 301.742188 286.867188 301.691406 C 286.605469 301.636719 286.347656 301.558594 286.097656 301.457031 C 285.847656 301.351562 285.609375 301.226562 285.382812 301.074219 C 285.160156 300.925781 284.953125 300.753906 284.761719 300.5625 C 284.570312 300.371094 284.398438 300.164062 284.246094 299.941406 C 284.097656 299.714844 283.972656 299.476562 283.867188 299.226562 C 283.765625 298.976562 283.6875 298.71875 283.632812 298.453125 C 283.582031 298.191406 283.554688 297.921875 283.554688 297.652344 C 283.554688 297.382812 283.582031 297.113281 283.632812 296.847656 C 283.6875 296.582031 283.765625 296.324219 283.867188 296.074219 C 283.972656 295.824219 284.097656 295.589844 284.246094 295.363281 C 284.398438 295.136719 284.570312 294.929688 284.761719 294.738281 C 284.953125 294.546875 285.160156 294.378906 285.382812 294.226562 C 285.609375 294.078125 285.847656 293.949219 286.097656 293.847656 C 286.347656 293.742188 286.605469 293.664062 286.867188 293.613281 C 287.132812 293.558594 287.402344 293.53125 287.671875 293.53125 C 287.941406 293.53125 288.210938 293.558594 288.476562 293.613281 C 288.742188 293.664062 289 293.742188 289.25 293.847656 C 289.5 293.949219 289.734375 294.078125 289.960938 294.226562 C 290.183594 294.378906 290.394531 294.546875 290.585938 294.738281 C 290.777344 294.929688 290.945312 295.136719 291.097656 295.363281 C 291.246094 295.589844 291.375 295.824219 291.476562 296.074219 C 291.582031 296.324219 291.660156 296.582031 291.710938 296.847656 C 291.765625 297.113281 291.789062 297.382812 291.789062 297.652344 Z M 291.789062 297.652344 " fill-opacity="1" fill-rule="nonzero"/><path fill="#88e647" d="M 161.585938 171.246094 C 164.121094 170.929688 166.335938 168.710938 166.335938 165.863281 L 166.335938 159.527344 C 166.335938 158.574219 165.070312 156.675781 163.167969 155.722656 L 161.902344 155.089844 Z M 161.585938 171.246094 " fill-opacity="1" fill-rule="nonzero"/><g clip-path="url(#id1)"><path fill="#88e647" d="M 129.269531 201.027344 L 185.027344 201.027344 C 185.980469 201.027344 203.085938 201.027344 213.222656 189.304688 C 218.925781 182.652344 221.460938 173.78125 219.875 163.011719 C 215.757812 129.113281 185.34375 101.234375 174.890625 94.265625 C 174.890625 94.265625 190.097656 76.207031 190.414062 75.890625 C 192.316406 71.136719 190.097656 65.753906 185.34375 63.851562 L 179.007812 61.316406 C 178.691406 55.929688 174.257812 51.8125 168.871094 51.8125 L 145.746094 51.8125 C 140.359375 51.8125 135.921875 55.929688 135.605469 61.316406 L 129.269531 63.851562 C 124.519531 65.753906 122.300781 71.136719 124.203125 75.890625 C 124.519531 76.207031 139.726562 94.265625 139.726562 94.265625 C 128.953125 101.550781 98.542969 129.429688 94.421875 163.328125 C 93.15625 174.097656 95.371094 182.96875 101.074219 189.621094 C 111.53125 201.027344 128.320312 201.027344 129.269531 201.027344 Z M 174.257812 135.132812 C 174.257812 137.347656 172.355469 138.933594 170.457031 138.933594 C 168.554688 138.933594 166.652344 137.03125 166.652344 135.132812 L 166.652344 132.28125 C 166.652344 129.746094 164.753906 127.210938 161.902344 126.894531 L 161.902344 146.535156 L 167.289062 148.753906 C 171.40625 150.339844 174.257812 154.773438 174.574219 159.527344 L 174.574219 165.863281 C 174.574219 172.832031 168.871094 178.851562 161.902344 179.167969 L 161.902344 183.917969 C 161.902344 186.136719 160 187.722656 158.101562 187.722656 C 156.199219 187.722656 154.296875 185.820312 154.296875 183.917969 L 154.296875 179.167969 L 153.980469 179.167969 C 146.695312 179.167969 140.675781 173.148438 140.675781 165.863281 L 140.675781 163.011719 C 140.675781 160.792969 142.578125 159.207031 144.476562 159.207031 C 146.695312 159.207031 148.277344 161.109375 148.277344 163.011719 L 148.277344 165.863281 C 148.277344 168.710938 150.8125 171.246094 153.664062 171.246094 L 153.980469 171.246094 L 153.980469 151.921875 L 147.328125 149.386719 C 141.308594 146.851562 140.042969 141.46875 140.042969 138.617188 L 140.042969 132.28125 C 140.042969 124.992188 146.0625 118.976562 153.347656 118.976562 C 153.347656 118.976562 153.980469 118.976562 153.980469 118.976562 L 153.980469 114.539062 C 153.980469 112.320312 155.882812 110.738281 157.78125 110.738281 C 159.683594 110.738281 161.585938 112.640625 161.585938 114.539062 L 161.585938 118.976562 C 168.554688 119.292969 174.257812 124.992188 174.257812 132.28125 Z M 132.121094 71.453125 L 138.457031 68.921875 L 143.210938 77.789062 C 143.84375 79.058594 145.109375 80.007812 146.695312 80.007812 C 148.914062 80.007812 150.8125 78.105469 150.496094 75.890625 C 150.496094 75.257812 150.179688 74.621094 150.179688 73.988281 C 150.179688 73.988281 143.527344 61.632812 143.210938 61.316406 C 143.527344 60.367188 144.476562 59.734375 145.429688 59.734375 L 168.554688 59.734375 C 169.503906 59.734375 170.457031 60.367188 170.773438 61.316406 L 164.121094 73.671875 C 163.167969 75.574219 163.800781 78.105469 165.703125 79.058594 C 166.335938 79.375 166.96875 79.375 167.605469 79.375 C 169.1875 79.375 170.457031 78.425781 171.089844 77.15625 L 175.839844 68.285156 L 181.859375 70.820312 C 182.492188 71.136719 182.8125 71.453125 182.8125 72.089844 L 166.335938 91.097656 C 160 90.460938 153.664062 90.460938 147.328125 91.097656 L 130.855469 72.089844 C 131.171875 72.089844 131.488281 71.769531 132.121094 71.453125 Z M 132.121094 71.453125 " fill-opacity="1" fill-rule="nonzero"/></g><path fill="#88e647" d="M 147.960938 132.28125 L 147.960938 138.617188 C 147.960938 139.566406 148.914062 141.785156 151.128906 142.417969 L 153.664062 143.367188 L 153.664062 126.894531 L 153.347656 126.894531 C 150.496094 126.894531 147.960938 129.429688 147.960938 132.28125 Z M 147.960938 132.28125 " fill-opacity="1" fill-rule="nonzero"/><g clip-path="url(#id2)"><path fill="#88e647" d="M 319.984375 315.710938 L 269.929688 315.710938 L 269.929688 228.273438 L 311.75 228.273438 C 313.96875 228.273438 315.550781 226.371094 315.550781 224.46875 C 315.550781 222.570312 313.96875 220.351562 311.75 220.351562 L 269.929688 220.351562 L 269.929688 207.679688 C 269.929688 205.460938 268.03125 203.878906 266.128906 203.878906 C 264.230469 203.878906 262.328125 205.777344 262.328125 207.679688 L 262.328125 220.351562 L 239.835938 220.351562 C 237.617188 220.351562 236.035156 222.253906 236.035156 224.152344 L 236.035156 235.558594 L 228.746094 235.558594 L 205.621094 215.28125 C 204.988281 214.648438 204.035156 214.332031 203.085938 214.332031 L 139.410156 214.332031 C 137.507812 214.332031 135.605469 215.601562 135.605469 217.816406 L 135.289062 220.351562 C 135.289062 226.054688 137.191406 231.441406 140.675781 235.875 L 136.242188 235.875 L 120.402344 211.164062 C 115.332031 201.34375 104.242188 193.421875 92.839844 197.226562 C 86.820312 199.125 86.503906 199.441406 86.503906 199.441406 C 85.550781 199.757812 84.601562 200.710938 84.285156 201.660156 C 83.96875 202.609375 83.96875 203.878906 84.601562 204.828125 L 85.867188 207.046875 C 77 202.292969 65.910156 201.660156 58.308594 208.945312 C 53.554688 213.699219 53.238281 214.015625 53.238281 214.015625 C 51.972656 215.601562 51.972656 218.132812 53.871094 219.71875 C 53.871094 219.71875 110.578125 259 110.578125 259 C 110.894531 259.320312 199.917969 292.265625 199.917969 292.265625 C 199.917969 292.265625 225.578125 292.582031 235.398438 292.582031 L 235.398438 298.917969 C 235.398438 301.136719 237.300781 302.71875 239.203125 302.71875 L 261.695312 302.71875 L 261.695312 319.511719 C 261.695312 321.730469 263.59375 323.3125 265.496094 323.3125 L 319.351562 323.3125 C 321.570312 323.3125 323.152344 321.410156 323.152344 319.511719 C 323.152344 317.609375 321.886719 315.710938 319.984375 315.710938 Z M 95.054688 204.828125 C 102.027344 202.609375 109.628906 208.3125 113.113281 215.28125 L 121.667969 228.589844 L 98.542969 215.28125 L 93.15625 205.460938 Z M 235.398438 284.347656 L 202.136719 284.347656 L 114.699219 252.03125 L 62.425781 215.917969 L 63.691406 214.648438 C 69.078125 209.261719 78.265625 211.164062 84.601562 215.601562 L 131.804688 242.84375 C 132.4375 243.160156 133.074219 243.476562 133.707031 243.476562 L 190.414062 243.476562 C 192.632812 243.476562 194.214844 241.578125 194.214844 239.675781 C 194.214844 237.777344 192.316406 235.875 190.414062 235.875 L 154.296875 235.875 C 148.277344 234.925781 143.84375 228.273438 143.210938 222.253906 L 200.867188 222.253906 L 224.3125 242.527344 C 224.945312 243.160156 225.894531 243.476562 226.847656 243.476562 L 235.714844 243.476562 Z M 235.398438 284.347656 " fill-opacity="1" fill-rule="nonzero"/></g></svg>