<svg xmlns="http://www.w3.org/2000/svg" xmlns:xlink="http://www.w3.org/1999/xlink" width="500" zoomAndPan="magnify" viewBox="0 0 375 374.999991" height="500" preserveAspectRatio="xMidYMid meet" version="1.0"><defs><clipPath id="id1"><path d="M 42 282 L 123 282 L 123 363.789062 L 42 363.789062 Z M 42 282 " clip-rule="nonzero"/></clipPath></defs><path fill="#ff4747" d="M 237.949219 38.523438 C 251.957031 50.625 264.957031 63.726562 276.953125 77.824219 C 287.796875 91.167969 297.601562 105.117188 310.835938 116.277344 C 321.703125 125.445312 337.511719 109.804688 326.554688 100.570312 C 313.320312 89.410156 303.515625 75.453125 292.671875 62.117188 C 280.675781 48.015625 267.675781 34.917969 253.671875 22.8125 C 243.082031 13.238281 227.316406 28.902344 237.949219 38.523438 Z M 237.949219 38.523438 " fill-opacity="1" fill-rule="nonzero"/><path fill="#ff4747" d="M 312.804688 22.574219 C 290.09375 51.851562 264.371094 78.191406 235.640625 101.597656 C 224.550781 110.636719 240.359375 126.28125 251.359375 117.304688 C 280.085938 93.898438 305.804688 67.558594 328.515625 38.285156 C 337.1875 27.121094 321.566406 11.289062 312.804688 22.574219 Z M 312.804688 22.574219 " fill-opacity="1" fill-rule="nonzero"/><g clip-path="url(#id1)"><path fill="#ff5757" d="M 120.382812 341.148438 C 118.949219 347.691406 116.429688 354.378906 111.144531 358.5 C 104.402344 363.757812 95.019531 363.511719 86.472656 362.871094 C 76.667969 362.15625 66.34375 361.117188 58.265625 355.515625 C 55.199219 353.25 52.546875 350.574219 50.304688 347.492188 C 48.0625 344.410156 46.335938 341.058594 45.128906 337.445312 C 44.082031 334.710938 43.3125 331.902344 42.820312 329.019531 C 42.328125 326.132812 42.125 323.230469 42.207031 320.304688 C 42.289062 317.378906 42.660156 314.492188 43.3125 311.636719 C 43.964844 308.785156 44.890625 306.023438 46.089844 303.355469 C 56.679688 281.355469 85.488281 276.820312 105.476562 288.613281 C 108.027344 289.976562 110.335938 291.667969 112.402344 293.6875 C 114.472656 295.707031 116.21875 297.976562 117.640625 300.492188 C 119.652344 304.660156 120.914062 309.046875 121.421875 313.648438 C 122.730469 322.878906 122.382812 332.042969 120.382812 341.148438 Z M 120.382812 341.148438 " fill-opacity="1" fill-rule="nonzero"/></g><path fill="#ff914d" d="M 193.847656 64.449219 L 136.460938 64.449219 C 125.347656 64.449219 125.316406 81.726562 136.460938 81.726562 L 193.847656 81.726562 C 204.960938 81.726562 204.988281 64.449219 193.847656 64.449219 Z M 193.847656 64.449219 " fill-opacity="1" fill-rule="nonzero"/><path fill="#ff914d" d="M 84.734375 60.773438 C 81.289062 60.738281 77.878906 61.074219 74.507812 61.78125 C 71.136719 62.492188 67.882812 63.558594 64.746094 64.984375 C 61.609375 66.40625 58.664062 68.152344 55.914062 70.222656 C 53.160156 72.292969 50.664062 74.640625 48.425781 77.257812 C 37.941406 89.652344 36.949219 105.417969 37.808594 120.984375 C 38.40625 132.042969 55.699219 132.113281 55.09375 120.984375 C 54.527344 110.527344 53.859375 98.972656 60.28125 90.019531 C 61.695312 88.121094 63.3125 86.414062 65.132812 84.898438 C 66.953125 83.386719 68.925781 82.109375 71.054688 81.070312 C 73.179688 80.027344 75.402344 79.253906 77.714844 78.742188 C 80.027344 78.234375 82.367188 78.003906 84.734375 78.054688 C 95.859375 78.070312 95.878906 60.792969 84.734375 60.773438 Z M 84.734375 60.773438 " fill-opacity="1" fill-rule="nonzero"/><path fill="#ff914d" d="M 44.476562 166.371094 C 45.441406 181.164062 48.304688 194.988281 60.316406 204.820312 C 72.371094 214.675781 88.027344 216.632812 103.058594 214.84375 C 113.972656 213.542969 114.101562 196.246094 103.058594 197.5625 C 92.980469 198.761719 82.148438 198.882812 73.359375 193.035156 C 64.089844 186.863281 62.441406 176.777344 61.75 166.375 C 61.027344 155.335938 43.734375 155.269531 44.460938 166.375 Z M 44.476562 166.371094 " fill-opacity="1" fill-rule="nonzero"/><path fill="#ff914d" d="M 154.746094 208.164062 L 210.871094 207.582031 C 221.984375 207.46875 222.015625 190.1875 210.871094 190.304688 L 154.746094 190.886719 C 143.632812 191 143.601562 208.277344 154.746094 208.164062 Z M 154.746094 208.164062 " fill-opacity="1" fill-rule="nonzero"/><path fill="#ff914d" d="M 264.09375 204.820312 C 273.792969 206.363281 284.0625 209.355469 291.8125 215.691406 C 299.492188 221.972656 299.441406 232.621094 301.042969 241.726562 C 302.96875 252.65625 319.632812 248.023438 317.714844 237.132812 C 315.472656 224.371094 314.347656 212.46875 304.039062 203.472656 C 298.960938 199.347656 293.425781 195.984375 287.421875 193.386719 C 281.417969 190.785156 275.175781 189.046875 268.691406 188.167969 C 257.808594 186.441406 253.132812 203.085938 264.09375 204.832031 Z M 264.09375 204.820312 " fill-opacity="1" fill-rule="nonzero"/><path fill="#ff914d" d="M 299.785156 283.859375 C 297.179688 292.398438 294.425781 301.425781 288.480469 308.324219 C 282.304688 315.5 273.570312 317.597656 264.472656 318.535156 C 253.515625 319.667969 253.398438 336.960938 264.472656 335.816406 C 277.246094 334.496094 289.441406 331.738281 298.902344 322.453125 C 308.230469 313.296875 312.730469 300.664062 316.457031 288.453125 C 319.707031 277.792969 303.027344 273.238281 299.785156 283.859375 Z M 299.785156 283.859375 " fill-opacity="1" fill-rule="nonzero"/><path fill="#ff914d" d="M 211.519531 320.648438 C 193.625 319.75 175.75 320.019531 157.890625 321.460938 C 146.878906 322.351562 146.777344 339.636719 157.890625 338.742188 C 175.75 337.300781 193.625 337.027344 211.519531 337.925781 C 222.632812 338.484375 222.613281 321.203125 211.519531 320.648438 Z M 211.519531 320.648438 " fill-opacity="1" fill-rule="nonzero"/></svg>