<svg xmlns="http://www.w3.org/2000/svg" xmlns:xlink="http://www.w3.org/1999/xlink" width="500" zoomAndPan="magnify" viewBox="0 0 375 374.999991" height="500" preserveAspectRatio="xMidYMid meet" version="1.0"><defs><clipPath id="id1"><path d="M 27.5625 62.96875 L 337.3125 62.96875 L 337.3125 331.46875 L 27.5625 331.46875 Z M 27.5625 62.96875 " clip-rule="nonzero"/></clipPath><clipPath id="id2"><path d="M 110.097656 150 L 254 150 L 254 300 L 110.097656 300 Z M 110.097656 150 " clip-rule="nonzero"/></clipPath><clipPath id="id3"><path d="M 115 93.050781 L 144 93.050781 L 144 142 L 115 142 Z M 115 93.050781 " clip-rule="nonzero"/></clipPath><clipPath id="id4"><path d="M 147 93.050781 L 176 93.050781 L 176 142 L 147 142 Z M 147 93.050781 " clip-rule="nonzero"/></clipPath><clipPath id="id5"><path d="M 178 93.050781 L 249 93.050781 L 249 142 L 178 142 Z M 178 93.050781 " clip-rule="nonzero"/></clipPath></defs><g clip-path="url(#id1)"><path fill="#1d1e24" d="M 105.046875 331.46875 L 27.660156 197.21875 L 105.046875 62.96875 L 259.828125 62.96875 L 337.21875 197.21875 L 259.828125 331.46875 Z M 105.046875 331.46875 " fill-opacity="1" fill-rule="nonzero"/></g><g clip-path="url(#id2)"><path fill="#ffbd59" d="M 249.605469 156.363281 C 248.800781 155.441406 247.90625 154.617188 246.921875 153.886719 C 245.941406 153.15625 244.890625 152.539062 243.777344 152.03125 C 242.660156 151.527344 241.507812 151.144531 240.308594 150.882812 C 239.113281 150.625 237.902344 150.496094 236.675781 150.496094 L 127.367188 150.496094 C 126.757812 150.496094 126.148438 150.527344 125.539062 150.589844 C 124.933594 150.65625 124.332031 150.75 123.734375 150.878906 C 123.136719 151.007812 122.546875 151.167969 121.964844 151.359375 C 121.386719 151.550781 120.816406 151.773438 120.261719 152.027344 C 119.703125 152.28125 119.164062 152.5625 118.636719 152.871094 C 118.113281 153.183594 117.605469 153.519531 117.113281 153.886719 C 116.625 154.25 116.15625 154.640625 115.707031 155.058594 C 115.257812 155.472656 114.835938 155.910156 114.433594 156.371094 C 114.035156 156.832031 113.660156 157.3125 113.308594 157.816406 C 112.960938 158.316406 112.640625 158.835938 112.34375 159.371094 C 112.050781 159.90625 111.789062 160.457031 111.554688 161.019531 C 111.320312 161.585938 111.117188 162.160156 110.945312 162.746094 C 110.769531 163.332031 110.628906 163.925781 110.519531 164.527344 C 110.414062 165.125 110.335938 165.730469 110.292969 166.339844 C 110.25 166.949219 110.238281 167.558594 110.257812 168.171875 C 110.28125 168.78125 110.335938 169.386719 110.421875 169.992188 L 123.222656 260.941406 C 123.414062 262.222656 123.742188 263.472656 124.210938 264.679688 C 124.679688 265.890625 125.277344 267.035156 126.003906 268.109375 C 126.730469 269.1875 127.566406 270.167969 128.511719 271.054688 C 129.460938 271.945312 130.492188 272.71875 131.613281 273.375 L 173.4375 297.480469 C 174.738281 298.234375 176.117188 298.808594 177.570312 299.199219 C 179.023438 299.589844 180.503906 299.785156 182.011719 299.785156 C 183.515625 299.785156 184.996094 299.589844 186.449219 299.199219 C 187.902344 298.808594 189.28125 298.234375 190.582031 297.480469 L 232.425781 273.347656 C 233.550781 272.695312 234.585938 271.925781 235.539062 271.039062 C 236.488281 270.152344 237.328125 269.171875 238.054688 268.09375 C 238.78125 267.015625 239.378906 265.871094 239.847656 264.660156 C 240.316406 263.449219 240.644531 262.199219 240.832031 260.914062 L 253.644531 169.984375 C 253.808594 168.769531 253.84375 167.554688 253.75 166.332031 C 253.65625 165.109375 253.4375 163.914062 253.089844 162.738281 C 252.742188 161.566406 252.273438 160.441406 251.6875 159.367188 C 251.101562 158.292969 250.40625 157.289062 249.605469 156.363281 Z M 218.417969 188.070312 L 150.601562 188.070312 L 153.9375 211.75 L 213.867188 211.75 C 213.976562 211.769531 214.078125 211.792969 214.183594 211.824219 L 214.460938 211.824219 C 214.644531 211.871094 214.820312 211.933594 214.992188 212.011719 C 215.273438 212.078125 215.546875 212.171875 215.808594 212.289062 C 216.042969 212.421875 216.265625 212.570312 216.476562 212.738281 C 216.699219 212.90625 216.902344 213.089844 217.085938 213.296875 C 217.261719 213.503906 217.417969 213.730469 217.546875 213.96875 C 217.691406 214.207031 217.816406 214.457031 217.914062 214.714844 C 217.992188 214.988281 218.050781 215.261719 218.085938 215.542969 C 218.132812 215.726562 218.164062 215.910156 218.183594 216.101562 L 218.183594 216.40625 C 218.183594 216.40625 218.183594 216.59375 218.183594 216.703125 L 214.199219 244.964844 C 214.109375 245.625 213.875 246.230469 213.503906 246.785156 C 213.132812 247.335938 212.65625 247.777344 212.078125 248.109375 L 184.207031 264.183594 C 183.539062 264.566406 182.820312 264.757812 182.050781 264.757812 C 181.28125 264.757812 180.5625 264.566406 179.890625 264.183594 L 152.019531 248.109375 C 151.445312 247.777344 150.96875 247.335938 150.597656 246.785156 C 150.222656 246.230469 149.992188 245.625 149.898438 244.964844 L 148.667969 236.234375 C 148.617188 235.949219 148.59375 235.660156 148.601562 235.371094 C 148.609375 235.078125 148.644531 234.792969 148.710938 234.511719 C 148.777344 234.226562 148.867188 233.953125 148.988281 233.6875 C 149.109375 233.425781 149.253906 233.175781 149.425781 232.941406 C 149.597656 232.707031 149.789062 232.488281 150.003906 232.292969 C 150.214844 232.097656 150.449219 231.925781 150.695312 231.773438 C 150.945312 231.625 151.207031 231.503906 151.480469 231.40625 C 151.753906 231.308594 152.035156 231.238281 152.324219 231.199219 C 152.609375 231.160156 152.898438 231.148438 153.1875 231.164062 C 153.480469 231.183594 153.765625 231.230469 154.046875 231.304688 C 154.324219 231.378906 154.597656 231.480469 154.855469 231.609375 C 155.117188 231.742188 155.359375 231.894531 155.589844 232.074219 C 155.816406 232.253906 156.027344 232.453125 156.214844 232.671875 C 156.402344 232.894531 156.570312 233.132812 156.710938 233.386719 C 156.851562 233.640625 156.964844 233.90625 157.050781 234.179688 C 157.136719 234.457031 157.195312 234.742188 157.226562 235.03125 L 158.171875 241.679688 L 182.023438 255.378906 L 205.894531 241.605469 L 208.886719 220.347656 L 150.167969 220.347656 C 149.617188 220.34375 149.082031 220.242188 148.570312 220.035156 C 148.398438 219.953125 148.253906 219.828125 148.101562 219.738281 C 147.773438 219.59375 147.472656 219.402344 147.203125 219.164062 C 147.050781 219.007812 146.914062 218.839844 146.789062 218.660156 C 146.589844 218.425781 146.417969 218.175781 146.277344 217.90625 C 146.191406 217.683594 146.121094 217.460938 146.0625 217.230469 C 145.980469 217.035156 145.914062 216.835938 145.863281 216.628906 L 141.3125 184.339844 C 141.269531 184.035156 141.261719 183.726562 141.285156 183.421875 C 141.308594 183.113281 141.363281 182.8125 141.453125 182.515625 C 141.539062 182.21875 141.660156 181.9375 141.808594 181.664062 C 141.957031 181.394531 142.132812 181.144531 142.335938 180.910156 C 142.539062 180.675781 142.761719 180.46875 143.011719 180.285156 C 143.257812 180.101562 143.523438 179.945312 143.804688 179.816406 C 144.082031 179.6875 144.375 179.589844 144.675781 179.523438 C 144.980469 179.460938 145.285156 179.425781 145.59375 179.425781 L 218.417969 179.425781 C 218.703125 179.425781 218.984375 179.453125 219.261719 179.507812 C 219.539062 179.5625 219.8125 179.644531 220.074219 179.753906 C 220.335938 179.863281 220.585938 179.996094 220.824219 180.152344 C 221.058594 180.308594 221.277344 180.488281 221.480469 180.691406 C 221.679688 180.890625 221.859375 181.109375 222.019531 181.34375 C 222.175781 181.582031 222.308594 181.828125 222.417969 182.09375 C 222.527344 182.355469 222.609375 182.625 222.664062 182.902344 C 222.71875 183.183594 222.75 183.464844 222.75 183.746094 C 222.75 184.03125 222.71875 184.3125 222.664062 184.589844 C 222.609375 184.871094 222.527344 185.140625 222.417969 185.402344 C 222.308594 185.664062 222.175781 185.914062 222.019531 186.148438 C 221.859375 186.386719 221.679688 186.605469 221.480469 186.804688 C 221.277344 187.003906 221.058594 187.183594 220.824219 187.34375 C 220.585938 187.5 220.335938 187.632812 220.074219 187.742188 C 219.8125 187.851562 219.539062 187.933594 219.261719 187.988281 C 218.984375 188.042969 218.703125 188.070312 218.417969 188.070312 Z M 218.417969 188.070312 " fill-opacity="1" fill-rule="nonzero"/></g><g clip-path="url(#id3)"><path fill="#ffbd59" d="M 119.539062 141.0625 C 119.820312 141.0625 120.101562 141.035156 120.382812 140.980469 C 120.660156 140.925781 120.929688 140.84375 121.191406 140.734375 C 121.453125 140.625 121.703125 140.492188 121.9375 140.335938 C 122.175781 140.175781 122.390625 139.996094 122.59375 139.796875 C 122.792969 139.597656 122.972656 139.378906 123.128906 139.140625 C 123.285156 138.90625 123.417969 138.65625 123.527344 138.394531 C 123.636719 138.132812 123.71875 137.863281 123.773438 137.585938 C 123.828125 137.304688 123.855469 137.023438 123.855469 136.742188 L 123.855469 121.46875 L 134.839844 121.46875 L 134.839844 136.742188 C 134.828125 137.035156 134.84375 137.324219 134.886719 137.613281 C 134.933594 137.898438 135.007812 138.179688 135.109375 138.453125 C 135.214844 138.726562 135.34375 138.988281 135.496094 139.234375 C 135.652344 139.484375 135.832031 139.710938 136.035156 139.921875 C 136.234375 140.136719 136.457031 140.324219 136.695312 140.488281 C 136.9375 140.65625 137.191406 140.796875 137.460938 140.910156 C 137.730469 141.027344 138.007812 141.113281 138.292969 141.171875 C 138.578125 141.230469 138.867188 141.261719 139.160156 141.261719 C 139.453125 141.261719 139.742188 141.230469 140.027344 141.171875 C 140.3125 141.113281 140.59375 141.027344 140.859375 140.910156 C 141.128906 140.796875 141.382812 140.65625 141.625 140.488281 C 141.863281 140.324219 142.085938 140.136719 142.285156 139.921875 C 142.488281 139.710938 142.667969 139.484375 142.824219 139.234375 C 142.976562 138.988281 143.105469 138.726562 143.210938 138.453125 C 143.3125 138.179688 143.386719 137.898438 143.433594 137.613281 C 143.476562 137.324219 143.492188 137.035156 143.480469 136.742188 L 143.480469 97.480469 C 143.492188 97.1875 143.476562 96.898438 143.433594 96.609375 C 143.386719 96.320312 143.3125 96.039062 143.210938 95.765625 C 143.105469 95.492188 142.976562 95.234375 142.824219 94.984375 C 142.667969 94.738281 142.488281 94.507812 142.285156 94.296875 C 142.085938 94.085938 141.863281 93.898438 141.625 93.730469 C 141.382812 93.566406 141.128906 93.425781 140.859375 93.308594 C 140.59375 93.195312 140.3125 93.109375 140.027344 93.050781 C 139.742188 92.992188 139.453125 92.960938 139.160156 92.960938 C 138.867188 92.960938 138.578125 92.992188 138.292969 93.050781 C 138.007812 93.109375 137.730469 93.195312 137.460938 93.308594 C 137.191406 93.425781 136.9375 93.566406 136.695312 93.730469 C 136.457031 93.898438 136.234375 94.085938 136.035156 94.296875 C 135.832031 94.507812 135.652344 94.738281 135.496094 94.984375 C 135.34375 95.234375 135.214844 95.492188 135.109375 95.765625 C 135.007812 96.039062 134.933594 96.320312 134.886719 96.609375 C 134.84375 96.898438 134.828125 97.1875 134.839844 97.480469 L 134.839844 112.796875 L 123.855469 112.796875 L 123.855469 97.480469 C 123.855469 97.195312 123.824219 96.914062 123.769531 96.636719 C 123.714844 96.359375 123.632812 96.089844 123.523438 95.828125 C 123.414062 95.5625 123.28125 95.316406 123.125 95.078125 C 122.96875 94.84375 122.789062 94.625 122.585938 94.425781 C 122.386719 94.222656 122.167969 94.042969 121.933594 93.886719 C 121.695312 93.730469 121.445312 93.597656 121.183594 93.488281 C 120.921875 93.378906 120.652344 93.296875 120.371094 93.242188 C 120.09375 93.1875 119.8125 93.160156 119.527344 93.160156 C 119.246094 93.160156 118.964844 93.1875 118.683594 93.242188 C 118.40625 93.296875 118.136719 93.378906 117.875 93.488281 C 117.613281 93.597656 117.363281 93.730469 117.125 93.886719 C 116.890625 94.042969 116.671875 94.222656 116.472656 94.425781 C 116.269531 94.625 116.089844 94.84375 115.933594 95.078125 C 115.777344 95.316406 115.640625 95.5625 115.535156 95.828125 C 115.425781 96.089844 115.34375 96.359375 115.289062 96.636719 C 115.230469 96.914062 115.203125 97.195312 115.203125 97.480469 L 115.203125 136.742188 C 115.203125 137.027344 115.230469 137.308594 115.289062 137.585938 C 115.34375 137.863281 115.425781 138.136719 115.535156 138.398438 C 115.644531 138.660156 115.777344 138.910156 115.933594 139.144531 C 116.09375 139.382812 116.273438 139.601562 116.472656 139.800781 C 116.675781 140 116.894531 140.179688 117.132812 140.335938 C 117.367188 140.496094 117.617188 140.628906 117.878906 140.738281 C 118.144531 140.84375 118.414062 140.925781 118.691406 140.980469 C 118.972656 141.035156 119.253906 141.0625 119.539062 141.0625 Z M 119.539062 141.0625 " fill-opacity="1" fill-rule="nonzero"/></g><g clip-path="url(#id4)"><path fill="#ffbd59" d="M 151.363281 101.800781 L 156.847656 101.800781 L 156.847656 136.742188 C 156.847656 137.023438 156.878906 137.304688 156.933594 137.585938 C 156.988281 137.863281 157.070312 138.132812 157.179688 138.394531 C 157.289062 138.65625 157.421875 138.90625 157.578125 139.140625 C 157.734375 139.378906 157.914062 139.597656 158.117188 139.796875 C 158.316406 139.996094 158.535156 140.175781 158.769531 140.335938 C 159.007812 140.492188 159.257812 140.625 159.519531 140.734375 C 159.78125 140.84375 160.050781 140.925781 160.332031 140.980469 C 160.609375 141.035156 160.890625 141.0625 161.175781 141.0625 C 161.457031 141.0625 161.738281 141.035156 162.019531 140.980469 C 162.296875 140.925781 162.566406 140.84375 162.828125 140.734375 C 163.089844 140.625 163.339844 140.492188 163.578125 140.335938 C 163.8125 140.175781 164.03125 139.996094 164.230469 139.796875 C 164.433594 139.597656 164.613281 139.378906 164.769531 139.140625 C 164.925781 138.90625 165.0625 138.65625 165.167969 138.394531 C 165.277344 138.132812 165.359375 137.863281 165.414062 137.585938 C 165.472656 137.304688 165.5 137.023438 165.5 136.742188 L 165.5 101.800781 L 170.992188 101.800781 C 171.277344 101.800781 171.558594 101.773438 171.835938 101.71875 C 172.113281 101.664062 172.382812 101.582031 172.648438 101.472656 C 172.910156 101.363281 173.15625 101.230469 173.394531 101.074219 C 173.628906 100.914062 173.847656 100.738281 174.050781 100.535156 C 174.25 100.335938 174.429688 100.117188 174.585938 99.882812 C 174.746094 99.644531 174.878906 99.394531 174.988281 99.132812 C 175.097656 98.871094 175.179688 98.601562 175.234375 98.324219 C 175.289062 98.046875 175.316406 97.765625 175.316406 97.480469 C 175.316406 97.195312 175.289062 96.914062 175.234375 96.636719 C 175.179688 96.359375 175.097656 96.089844 174.988281 95.828125 C 174.878906 95.5625 174.746094 95.316406 174.585938 95.078125 C 174.429688 94.84375 174.25 94.625 174.050781 94.425781 C 173.847656 94.222656 173.628906 94.042969 173.394531 93.886719 C 173.15625 93.730469 172.910156 93.597656 172.648438 93.488281 C 172.382812 93.378906 172.113281 93.296875 171.835938 93.242188 C 171.558594 93.1875 171.277344 93.160156 170.992188 93.160156 L 151.363281 93.160156 C 151.082031 93.160156 150.800781 93.1875 150.519531 93.242188 C 150.242188 93.296875 149.972656 93.378906 149.710938 93.488281 C 149.449219 93.597656 149.199219 93.730469 148.960938 93.886719 C 148.726562 94.042969 148.507812 94.222656 148.308594 94.425781 C 148.105469 94.625 147.925781 94.84375 147.769531 95.078125 C 147.613281 95.316406 147.476562 95.5625 147.371094 95.828125 C 147.261719 96.089844 147.179688 96.359375 147.125 96.636719 C 147.066406 96.914062 147.039062 97.195312 147.039062 97.480469 C 147.039062 97.765625 147.066406 98.046875 147.125 98.324219 C 147.179688 98.601562 147.261719 98.871094 147.371094 99.132812 C 147.476562 99.394531 147.613281 99.644531 147.769531 99.882812 C 147.925781 100.117188 148.105469 100.335938 148.308594 100.535156 C 148.507812 100.738281 148.726562 100.914062 148.960938 101.074219 C 149.199219 101.230469 149.449219 101.363281 149.710938 101.472656 C 149.972656 101.582031 150.242188 101.664062 150.519531 101.71875 C 150.800781 101.773438 151.082031 101.800781 151.363281 101.800781 Z M 151.363281 101.800781 " fill-opacity="1" fill-rule="nonzero"/></g><g clip-path="url(#id5)"><path fill="#ffbd59" d="M 183.183594 141.0625 C 183.46875 141.0625 183.746094 141.035156 184.027344 140.980469 C 184.304688 140.925781 184.574219 140.84375 184.835938 140.734375 C 185.097656 140.625 185.347656 140.492188 185.582031 140.335938 C 185.820312 140.175781 186.039062 139.996094 186.238281 139.796875 C 186.4375 139.597656 186.617188 139.378906 186.773438 139.140625 C 186.933594 138.90625 187.066406 138.65625 187.171875 138.394531 C 187.28125 138.132812 187.363281 137.863281 187.417969 137.585938 C 187.472656 137.304688 187.5 137.023438 187.5 136.742188 L 187.5 101.800781 L 199.707031 101.800781 L 199.707031 136.742188 C 199.707031 137.023438 199.734375 137.304688 199.792969 137.585938 C 199.847656 137.863281 199.929688 138.132812 200.039062 138.394531 C 200.144531 138.65625 200.277344 138.90625 200.4375 139.140625 C 200.59375 139.378906 200.773438 139.597656 200.972656 139.796875 C 201.175781 139.996094 201.394531 140.175781 201.628906 140.335938 C 201.867188 140.492188 202.113281 140.625 202.378906 140.734375 C 202.640625 140.84375 202.910156 140.925781 203.1875 140.980469 C 203.46875 141.035156 203.75 141.0625 204.03125 141.0625 C 204.316406 141.0625 204.597656 141.035156 204.875 140.980469 C 205.15625 140.925781 205.425781 140.84375 205.6875 140.734375 C 205.949219 140.625 206.199219 140.492188 206.433594 140.335938 C 206.671875 140.175781 206.890625 139.996094 207.089844 139.796875 C 207.292969 139.597656 207.46875 139.378906 207.628906 139.140625 C 207.785156 138.90625 207.917969 138.65625 208.027344 138.394531 C 208.136719 138.132812 208.21875 137.863281 208.273438 137.585938 C 208.328125 137.304688 208.355469 137.023438 208.355469 136.742188 L 208.355469 101.800781 L 220.566406 101.800781 L 220.566406 136.742188 C 220.566406 137.023438 220.59375 137.304688 220.648438 137.585938 C 220.703125 137.863281 220.785156 138.132812 220.894531 138.394531 C 221.003906 138.65625 221.136719 138.90625 221.296875 139.140625 C 221.453125 139.378906 221.632812 139.597656 221.832031 139.796875 C 222.035156 139.996094 222.253906 140.175781 222.488281 140.335938 C 222.722656 140.492188 222.972656 140.625 223.234375 140.734375 C 223.5 140.84375 223.769531 140.925781 224.046875 140.980469 C 224.324219 141.035156 224.605469 141.0625 224.890625 141.0625 L 244.527344 141.0625 C 244.8125 141.0625 245.09375 141.035156 245.371094 140.980469 C 245.648438 140.925781 245.921875 140.84375 246.183594 140.734375 C 246.445312 140.625 246.695312 140.492188 246.929688 140.335938 C 247.167969 140.179688 247.386719 140 247.585938 139.796875 C 247.789062 139.597656 247.96875 139.378906 248.125 139.144531 C 248.285156 138.90625 248.417969 138.660156 248.527344 138.394531 C 248.632812 138.132812 248.714844 137.863281 248.773438 137.585938 C 248.828125 137.308594 248.855469 137.027344 248.855469 136.742188 C 248.855469 136.457031 248.828125 136.175781 248.773438 135.898438 C 248.714844 135.621094 248.632812 135.347656 248.527344 135.085938 C 248.417969 134.824219 248.285156 134.574219 248.125 134.339844 C 247.96875 134.101562 247.789062 133.886719 247.585938 133.683594 C 247.386719 133.484375 247.167969 133.304688 246.929688 133.148438 C 246.695312 132.988281 246.445312 132.855469 246.183594 132.746094 C 245.921875 132.640625 245.648438 132.558594 245.371094 132.503906 C 245.09375 132.449219 244.8125 132.417969 244.527344 132.421875 L 229.242188 132.421875 L 229.242188 97.480469 C 229.242188 97.195312 229.214844 96.914062 229.160156 96.632812 C 229.105469 96.355469 229.023438 96.082031 228.914062 95.820312 C 228.804688 95.554688 228.667969 95.304688 228.511719 95.070312 C 228.351562 94.832031 228.171875 94.613281 227.96875 94.414062 C 227.765625 94.210938 227.546875 94.03125 227.308594 93.875 C 227.070312 93.71875 226.820312 93.585938 226.554688 93.476562 C 226.292969 93.371094 226.019531 93.289062 225.738281 93.234375 C 225.457031 93.183594 225.175781 93.15625 224.890625 93.160156 L 183.183594 93.160156 C 182.898438 93.160156 182.617188 93.183594 182.339844 93.242188 C 182.058594 93.296875 181.789062 93.375 181.527344 93.484375 C 181.261719 93.59375 181.011719 93.726562 180.777344 93.882812 C 180.539062 94.042969 180.320312 94.21875 180.121094 94.421875 C 179.917969 94.621094 179.738281 94.839844 179.582031 95.078125 C 179.421875 95.3125 179.289062 95.5625 179.179688 95.824219 C 179.070312 96.085938 178.988281 96.359375 178.933594 96.636719 C 178.878906 96.914062 178.847656 97.195312 178.847656 97.480469 L 178.847656 136.742188 C 178.847656 137.027344 178.878906 137.308594 178.933594 137.585938 C 178.988281 137.863281 179.070312 138.136719 179.179688 138.398438 C 179.289062 138.660156 179.421875 138.910156 179.582031 139.144531 C 179.738281 139.382812 179.917969 139.601562 180.121094 139.800781 C 180.320312 140 180.539062 140.179688 180.777344 140.335938 C 181.011719 140.496094 181.261719 140.628906 181.527344 140.738281 C 181.789062 140.84375 182.058594 140.925781 182.339844 140.980469 C 182.617188 141.035156 182.898438 141.0625 183.183594 141.0625 Z M 183.183594 141.0625 " fill-opacity="1" fill-rule="nonzero"/></g></svg>