<svg xmlns="http://www.w3.org/2000/svg" xmlns:xlink="http://www.w3.org/1999/xlink" width="500" zoomAndPan="magnify" viewBox="0 0 375 374.999991" height="500" preserveAspectRatio="xMidYMid meet" version="1.0"><defs><clipPath id="id1"><path d="M 50.507812 50.507812 L 324.257812 50.507812 L 324.257812 324.257812 L 50.507812 324.257812 Z M 50.507812 50.507812 " clip-rule="nonzero"/></clipPath></defs><path fill="#ffdd00" d="M 198.789062 187.382812 C 198.789062 188.132812 198.714844 188.875 198.570312 189.609375 C 198.421875 190.34375 198.207031 191.054688 197.921875 191.746094 C 197.632812 192.4375 197.28125 193.097656 196.867188 193.71875 C 196.449219 194.34375 195.976562 194.917969 195.449219 195.449219 C 194.917969 195.976562 194.34375 196.449219 193.71875 196.867188 C 193.097656 197.28125 192.4375 197.632812 191.746094 197.921875 C 191.054688 198.207031 190.34375 198.421875 189.609375 198.570312 C 188.875 198.714844 188.132812 198.789062 187.382812 198.789062 C 186.632812 198.789062 185.890625 198.714844 185.15625 198.570312 C 184.421875 198.421875 183.710938 198.207031 183.015625 197.921875 C 182.324219 197.632812 181.667969 197.28125 181.046875 196.867188 C 180.421875 196.449219 179.847656 195.976562 179.316406 195.449219 C 178.789062 194.917969 178.316406 194.34375 177.898438 193.71875 C 177.484375 193.097656 177.132812 192.4375 176.84375 191.746094 C 176.558594 191.054688 176.339844 190.34375 176.195312 189.609375 C 176.050781 188.875 175.976562 188.132812 175.976562 187.382812 C 175.976562 186.632812 176.050781 185.890625 176.195312 185.15625 C 176.339844 184.421875 176.558594 183.710938 176.84375 183.015625 C 177.132812 182.324219 177.484375 181.667969 177.898438 181.046875 C 178.316406 180.421875 178.789062 179.847656 179.316406 179.316406 C 179.847656 178.789062 180.421875 178.316406 181.046875 177.898438 C 181.667969 177.484375 182.324219 177.132812 183.015625 176.84375 C 183.710938 176.558594 184.421875 176.339844 185.15625 176.195312 C 185.890625 176.050781 186.632812 175.976562 187.382812 175.976562 C 188.132812 175.976562 188.875 176.050781 189.609375 176.195312 C 190.34375 176.339844 191.054688 176.558594 191.746094 176.84375 C 192.4375 177.132812 193.097656 177.484375 193.71875 177.898438 C 194.34375 178.316406 194.917969 178.789062 195.449219 179.316406 C 195.976562 179.847656 196.449219 180.421875 196.867188 181.046875 C 197.28125 181.667969 197.632812 182.324219 197.921875 183.015625 C 198.207031 183.710938 198.421875 184.421875 198.570312 185.15625 C 198.714844 185.890625 198.789062 186.632812 198.789062 187.382812 Z M 198.789062 187.382812 " fill-opacity="1" fill-rule="nonzero"/><g clip-path="url(#id1)"><path fill="#ffdd00" d="M 318.554688 181.679688 L 292.605469 181.679688 C 289.753906 128.070312 246.695312 85.011719 193.085938 82.160156 L 193.085938 56.210938 C 193.085938 53.074219 190.519531 50.507812 187.382812 50.507812 C 184.246094 50.507812 181.679688 53.074219 181.679688 56.210938 L 181.679688 82.160156 C 128.070312 85.011719 85.011719 128.070312 82.160156 181.679688 L 56.210938 181.679688 C 53.074219 181.679688 50.507812 184.246094 50.507812 187.382812 C 50.507812 190.519531 53.074219 193.085938 56.210938 193.085938 L 82.160156 193.085938 C 85.011719 246.695312 128.070312 289.753906 181.679688 292.605469 L 181.679688 318.554688 C 181.679688 321.691406 184.246094 324.257812 187.382812 324.257812 C 190.519531 324.257812 193.085938 321.691406 193.085938 318.554688 L 193.085938 292.605469 C 246.695312 289.753906 289.753906 246.695312 292.605469 193.085938 L 318.554688 193.085938 C 321.691406 193.085938 324.257812 190.519531 324.257812 187.382812 C 324.257812 184.246094 321.691406 181.679688 318.554688 181.679688 Z M 193.085938 93.566406 C 240.421875 96.417969 278.347656 134.34375 281.199219 181.679688 L 246.980469 181.679688 C 244.414062 153.164062 221.601562 130.351562 193.085938 127.785156 Z M 181.679688 93.566406 L 181.679688 127.785156 C 153.164062 130.351562 130.351562 153.164062 127.785156 181.679688 L 93.566406 181.679688 C 96.417969 134.34375 134.34375 96.417969 181.679688 93.566406 Z M 181.679688 281.199219 C 134.34375 278.347656 96.417969 240.421875 93.566406 193.085938 L 127.785156 193.085938 C 130.351562 221.601562 153.164062 244.414062 181.679688 246.980469 Z M 187.382812 221.601562 C 184.246094 221.601562 181.679688 224.167969 181.679688 227.304688 L 181.679688 235.574219 C 159.4375 233.007812 141.757812 215.328125 139.191406 193.085938 L 147.460938 193.085938 C 150.597656 193.085938 153.164062 190.519531 153.164062 187.382812 C 153.164062 184.246094 150.597656 181.679688 147.460938 181.679688 L 139.191406 181.679688 C 141.757812 159.4375 159.4375 141.757812 181.679688 139.191406 L 181.679688 147.460938 C 181.679688 150.597656 184.246094 153.164062 187.382812 153.164062 C 190.519531 153.164062 193.085938 150.597656 193.085938 147.460938 L 193.085938 139.191406 C 215.328125 141.757812 233.007812 159.4375 235.574219 181.679688 L 227.304688 181.679688 C 224.167969 181.679688 221.601562 184.246094 221.601562 187.382812 C 221.601562 190.519531 224.167969 193.085938 227.304688 193.085938 L 235.574219 193.085938 C 233.007812 215.328125 215.328125 233.007812 193.085938 235.574219 L 193.085938 227.304688 C 193.085938 224.167969 190.519531 221.601562 187.382812 221.601562 Z M 193.085938 281.199219 L 193.085938 246.980469 C 221.601562 244.414062 244.414062 221.601562 246.980469 193.085938 L 281.199219 193.085938 C 278.347656 240.421875 240.421875 278.347656 193.085938 281.199219 Z M 193.085938 281.199219 " fill-opacity="1" fill-rule="nonzero"/></g></svg>