<svg xmlns="http://www.w3.org/2000/svg" xmlns:xlink="http://www.w3.org/1999/xlink" width="500" zoomAndPan="magnify" viewBox="0 0 375 374.999991" height="500" preserveAspectRatio="xMidYMid meet" version="1.0"><defs><clipPath id="id1"><path d="M 56 20 L 309 20 L 309 355.058594 L 56 355.058594 Z M 56 20 " clip-rule="nonzero"/></clipPath><clipPath id="id2"><path d="M 57 259 L 309 259 L 309 355.058594 L 57 355.058594 Z M 57 259 " clip-rule="nonzero"/></clipPath><clipPath id="id3"><path d="M 56 24 L 309 24 L 309 355.058594 L 56 355.058594 Z M 56 24 " clip-rule="nonzero"/></clipPath></defs><path fill="#f5f6f5" d="M 310.09375 189.21875 C 313.40625 185.363281 316.433594 181.136719 318.035156 176.320312 C 319.640625 171.496094 319.6875 165.984375 317.242188 161.527344 C 314.800781 157.070312 309.582031 154.011719 304.578125 154.941406 C 301.621094 155.492188 299.066406 157.285156 296.617188 159.027344 C 289.226562 164.289062 281.84375 169.550781 274.453125 174.8125 C 271.359375 177.015625 268.21875 179.261719 265.894531 182.265625 C 262.050781 187.21875 260.824219 193.800781 261.238281 200.050781 C 261.484375 203.746094 262.074219 214.34375 265.898438 216.210938 C 269.574219 218 278.589844 212.597656 281.890625 210.972656 C 292.621094 205.703125 302.300781 198.28125 310.09375 189.21875 " fill-opacity="1" fill-rule="nonzero"/><path fill="#dbdad8" d="M 309.933594 189.402344 C 309.933594 189.402344 309.933594 189.402344 309.9375 189.398438 C 309.9375 189.402344 309.933594 189.402344 309.933594 189.402344 M 309.96875 189.359375 C 309.972656 189.355469 309.976562 189.351562 309.980469 189.347656 C 309.976562 189.351562 309.972656 189.355469 309.96875 189.359375 M 310.011719 189.3125 C 310.015625 189.308594 310.023438 189.300781 310.027344 189.292969 C 310.023438 189.300781 310.015625 189.308594 310.011719 189.3125 M 310.050781 189.265625 C 310.066406 189.25 310.078125 189.234375 310.09375 189.21875 C 313.40625 185.363281 316.433594 181.136719 318.035156 176.320312 C 318.761719 174.136719 319.167969 171.804688 319.167969 169.5 C 319.167969 171.804688 318.761719 174.136719 318.035156 176.320312 C 316.433594 181.136719 313.40625 185.363281 310.09375 189.21875 C 310.078125 189.234375 310.066406 189.246094 310.050781 189.265625 M 292.953125 161.636719 C 293.28125 161.402344 293.613281 161.167969 293.941406 160.933594 C 293.613281 161.167969 293.28125 161.402344 292.953125 161.636719 " fill-opacity="1" fill-rule="nonzero"/><path fill="#cfcecd" d="M 290.542969 206.109375 C 290.65625 192.382812 291.042969 177.769531 291.035156 163.003906 C 291.675781 162.546875 292.3125 162.09375 292.953125 161.636719 C 293.28125 161.402344 293.613281 161.167969 293.941406 160.933594 C 293.042969 166.949219 292.566406 173.027344 292.519531 179.117188 C 292.496094 181.875 294.761719 183.902344 297.257812 183.902344 C 297.96875 183.902344 298.691406 183.738281 299.394531 183.378906 C 304.015625 181.03125 308.09375 177.609375 311.171875 173.4375 C 313.917969 169.714844 315.851562 165.398438 316.859375 160.886719 C 316.992188 161.09375 317.125 161.308594 317.242188 161.527344 C 318.578125 163.964844 319.167969 166.71875 319.167969 169.5 C 319.167969 171.804688 318.761719 174.136719 318.035156 176.320312 C 316.433594 181.136719 313.40625 185.363281 310.09375 189.21875 C 310.078125 189.234375 310.066406 189.25 310.050781 189.265625 C 310.046875 189.273438 310.035156 189.289062 310.027344 189.292969 C 310.023438 189.300781 310.015625 189.308594 310.011719 189.3125 C 310 189.328125 309.988281 189.335938 309.980469 189.347656 C 309.976562 189.351562 309.972656 189.355469 309.96875 189.359375 C 309.960938 189.371094 309.945312 189.386719 309.9375 189.398438 C 309.933594 189.402344 309.933594 189.402344 309.933594 189.402344 C 304.332031 195.878906 297.765625 201.507812 290.542969 206.109375 " fill-opacity="1" fill-rule="nonzero"/><path fill="#f5f6f5" d="M 68.339844 189.21875 C 65.027344 185.363281 62 181.136719 60.398438 176.320312 C 58.792969 171.496094 58.746094 165.984375 61.191406 161.527344 C 63.632812 157.070312 68.851562 154.011719 73.851562 154.941406 C 76.808594 155.492188 79.363281 157.285156 81.816406 159.027344 C 89.203125 164.289062 96.59375 169.550781 103.980469 174.8125 C 107.074219 177.015625 110.214844 179.261719 112.539062 182.265625 C 116.382812 187.21875 117.609375 193.800781 117.195312 200.050781 C 116.953125 203.746094 116.359375 214.34375 112.53125 216.210938 C 108.859375 218 99.84375 212.597656 96.542969 210.972656 C 85.808594 205.703125 76.132812 198.28125 68.339844 189.21875 " fill-opacity="1" fill-rule="nonzero"/><path fill="#dbdad8" d="M 69.886719 190.972656 C 69.882812 190.964844 69.878906 190.960938 69.875 190.953125 C 69.878906 190.960938 69.882812 190.964844 69.886719 190.972656 M 69.851562 190.929688 C 69.84375 190.921875 69.835938 190.914062 69.824219 190.902344 C 69.835938 190.914062 69.839844 190.917969 69.851562 190.929688 M 69.8125 190.886719 C 69.800781 190.875 69.789062 190.859375 69.777344 190.847656 C 69.789062 190.859375 69.800781 190.875 69.8125 190.886719 M 69.773438 190.84375 C 69.289062 190.308594 68.808594 189.765625 68.339844 189.21875 C 65.027344 185.363281 62 181.136719 60.398438 176.320312 C 60.265625 175.925781 60.144531 175.523438 60.035156 175.121094 C 60.144531 175.523438 60.265625 175.925781 60.398438 176.320312 C 62 181.136719 65.027344 185.363281 68.339844 189.21875 C 68.808594 189.765625 69.289062 190.304688 69.773438 190.84375 M 60.035156 175.117188 C 60.035156 175.109375 60.03125 175.101562 60.027344 175.09375 C 60.03125 175.105469 60.035156 175.109375 60.035156 175.117188 M 60.023438 175.078125 C 60.023438 175.074219 60.019531 175.074219 60.019531 175.070312 C 60.019531 175.074219 60.023438 175.074219 60.023438 175.078125 M 88.820312 164.015625 C 87.664062 163.191406 86.503906 162.363281 85.34375 161.539062 C 86.503906 162.363281 87.664062 163.191406 88.820312 164.015625 " fill-opacity="1" fill-rule="nonzero"/><path fill="#cfcecd" d="M 88.351562 206.398438 C 81.539062 202.117188 75.296875 196.925781 69.886719 190.972656 C 69.882812 190.964844 69.878906 190.960938 69.875 190.953125 C 69.867188 190.949219 69.859375 190.9375 69.851562 190.929688 C 69.839844 190.917969 69.835938 190.914062 69.824219 190.902344 C 69.820312 190.894531 69.820312 190.894531 69.8125 190.886719 C 69.800781 190.875 69.789062 190.859375 69.777344 190.847656 C 69.777344 190.847656 69.773438 190.84375 69.773438 190.84375 C 69.289062 190.304688 68.808594 189.765625 68.339844 189.21875 C 65.027344 185.363281 62 181.136719 60.398438 176.320312 C 60.265625 175.925781 60.144531 175.523438 60.035156 175.121094 C 60.035156 175.117188 60.035156 175.117188 60.035156 175.117188 C 60.035156 175.109375 60.03125 175.105469 60.027344 175.09375 C 60.027344 175.089844 60.023438 175.085938 60.023438 175.078125 C 60.023438 175.074219 60.019531 175.074219 60.019531 175.070312 C 58.847656 170.722656 58.957031 165.949219 60.972656 161.957031 C 61.222656 162.210938 61.226562 163.003906 61.347656 163.527344 C 61.617188 164.710938 61.9375 165.886719 62.296875 167.042969 C 63.875 172.117188 66.28125 176.9375 69.40625 181.238281 C 70.417969 182.628906 71.535156 183.992188 72.988281 184.914062 C 73.976562 185.539062 75.15625 185.9375 76.320312 185.9375 C 76.863281 185.9375 77.402344 185.851562 77.914062 185.660156 C 80.195312 184.820312 81.335938 182.277344 81.90625 179.914062 C 83.035156 175.210938 82.859375 170.269531 83.949219 165.550781 C 84.269531 164.191406 84.730469 162.828125 85.34375 161.539062 C 86.503906 162.363281 87.664062 163.191406 88.820312 164.015625 C 87.742188 180.015625 87.824219 194.722656 88.351562 206.398438 " fill-opacity="1" fill-rule="nonzero"/><g clip-path="url(#id1)"><path fill="#f5f6f5" d="M 197.335938 20.902344 C 328.945312 22.257812 277.53125 194.71875 294.503906 260.960938 C 307.101562 310.144531 316.882812 337.53125 299.335938 344.105469 C 290.03125 347.589844 280.84375 340.246094 272.625 332.898438 C 265.34375 326.390625 258.828125 319.882812 253.675781 320.910156 C 242.703125 323.101562 229.808594 355.0625 207.203125 355.058594 C 188.144531 355.058594 187.460938 314.523438 174.304688 314.523438 C 161.140625 314.523438 143.96875 355.058594 120.558594 349.582031 C 93.863281 343.335938 116.171875 314.523438 101.914062 309.042969 C 95.109375 306.429688 86.648438 310.4375 78.785156 314.445312 C 70.167969 318.835938 62.265625 323.222656 58.042969 318.90625 C 46.316406 306.917969 91.867188 267.570312 88.582031 210.796875 C 85.425781 156.300781 90.945312 19.804688 197.335938 20.902344 " fill-opacity="1" fill-rule="nonzero"/></g><path fill="#c4773c" d="M 175.636719 115.3125 C 175.636719 125.917969 167.03125 134.511719 156.417969 134.511719 C 145.804688 134.511719 137.199219 125.917969 137.199219 115.3125 C 137.199219 104.710938 145.804688 96.117188 156.417969 96.117188 C 167.03125 96.117188 175.636719 104.710938 175.636719 115.3125 " fill-opacity="1" fill-rule="nonzero"/><path fill="#ffffff" d="M 156.964844 108.800781 C 156.964844 111.644531 154.65625 113.953125 151.8125 113.953125 C 148.960938 113.953125 146.652344 111.644531 146.652344 108.800781 C 146.652344 105.957031 148.960938 103.652344 151.8125 103.652344 C 154.65625 103.652344 156.964844 105.957031 156.964844 108.800781 " fill-opacity="1" fill-rule="nonzero"/><path fill="#c4773c" d="M 251.164062 115.3125 C 251.164062 125.917969 242.5625 134.511719 231.945312 134.511719 C 221.328125 134.511719 212.726562 125.917969 212.726562 115.3125 C 212.726562 104.710938 221.328125 96.117188 231.945312 96.117188 C 242.5625 96.117188 251.164062 104.710938 251.164062 115.3125 " fill-opacity="1" fill-rule="nonzero"/><path fill="#c4773c" d="M 194.183594 157.070312 C 186.855469 157.070312 180.894531 150.191406 180.894531 141.734375 C 180.894531 140.789062 181.664062 140.015625 182.613281 140.015625 C 183.5625 140.015625 184.332031 140.789062 184.332031 141.734375 C 184.332031 148.300781 188.75 153.636719 194.183594 153.636719 C 199.613281 153.636719 204.03125 148.300781 204.03125 141.734375 C 204.03125 140.789062 204.800781 140.015625 205.75 140.015625 C 206.699219 140.015625 207.46875 140.789062 207.46875 141.734375 C 207.46875 150.191406 201.507812 157.070312 194.183594 157.070312 " fill-opacity="1" fill-rule="nonzero"/><path fill="#ffffff" d="M 231.945312 108.800781 C 231.945312 111.644531 229.636719 113.953125 226.789062 113.953125 C 223.941406 113.953125 221.632812 111.644531 221.632812 108.800781 C 221.632812 105.957031 223.941406 103.652344 226.789062 103.652344 C 229.636719 103.652344 231.945312 105.957031 231.945312 108.800781 " fill-opacity="1" fill-rule="nonzero"/><g clip-path="url(#id2)"><path fill="#dbdad8" d="M 207.210938 355.058594 C 226.027344 355.058594 238.121094 332.894531 247.972656 324.21875 C 238.121094 332.898438 226.03125 355.058594 207.210938 355.058594 M 124.929688 350.089844 L 124.925781 350.089844 L 124.929688 350.089844 M 124.933594 350.089844 C 140.214844 350.082031 152.722656 331.589844 163.128906 321.273438 C 152.71875 331.589844 140.214844 350.085938 124.933594 350.089844 M 294.796875 344.992188 C 296.28125 344.953125 297.773438 344.679688 299.269531 344.128906 C 297.773438 344.679688 296.285156 344.953125 294.796875 344.992188 M 299.300781 344.117188 C 299.308594 344.117188 299.324219 344.109375 299.335938 344.105469 C 306.15625 341.550781 308.847656 335.847656 308.847656 326.949219 C 308.847656 335.847656 306.15625 341.550781 299.335938 344.105469 C 299.324219 344.109375 299.308594 344.117188 299.300781 344.117188 M 272.601562 332.878906 C 272.582031 332.859375 272.5625 332.839844 272.539062 332.820312 C 272.5625 332.839844 272.582031 332.859375 272.601562 332.878906 M 272.421875 332.714844 C 272.355469 332.65625 272.285156 332.597656 272.222656 332.535156 C 272.285156 332.597656 272.355469 332.65625 272.421875 332.714844 M 271.953125 332.300781 C 271.933594 332.28125 271.914062 332.261719 271.890625 332.242188 C 271.914062 332.261719 271.933594 332.28125 271.953125 332.300781 M 271.820312 332.175781 C 271.816406 332.175781 271.8125 332.171875 271.808594 332.167969 C 271.8125 332.171875 271.816406 332.175781 271.820312 332.175781 M 271.765625 332.125 C 271.753906 332.121094 271.746094 332.109375 271.734375 332.101562 C 271.746094 332.109375 271.753906 332.121094 271.765625 332.125 M 271.710938 332.082031 C 271.695312 332.066406 271.683594 332.054688 271.664062 332.039062 C 271.683594 332.054688 271.695312 332.066406 271.710938 332.082031 M 271.445312 331.84375 C 271.445312 331.839844 271.445312 331.839844 271.441406 331.835938 C 271.445312 331.839844 271.445312 331.839844 271.445312 331.84375 M 253.675781 320.910156 C 254.039062 320.839844 254.410156 320.800781 254.785156 320.800781 C 254.410156 320.800781 254.039062 320.839844 253.675781 320.910156 M 254.800781 320.800781 C 254.800781 320.800781 254.792969 320.800781 254.789062 320.800781 C 254.792969 320.800781 254.800781 320.800781 254.800781 320.800781 M 62.574219 320.679688 C 62.554688 320.679688 62.542969 320.679688 62.527344 320.679688 C 62.542969 320.679688 62.554688 320.679688 62.574219 320.679688 M 62.941406 320.671875 C 65.269531 320.582031 67.980469 319.648438 70.917969 318.332031 C 67.980469 319.648438 65.269531 320.582031 62.941406 320.671875 M 58.070312 318.9375 C 58.0625 318.925781 58.050781 318.914062 58.042969 318.90625 C 58.035156 318.898438 58.03125 318.894531 58.023438 318.890625 C 58.03125 318.894531 58.035156 318.898438 58.042969 318.90625 C 58.050781 318.914062 58.0625 318.925781 58.070312 318.9375 M 58.023438 318.886719 C 58.019531 318.878906 58.011719 318.875 58.007812 318.871094 C 58.015625 318.875 58.019531 318.878906 58.023438 318.886719 M 58.003906 318.871094 C 57.996094 318.855469 57.984375 318.847656 57.972656 318.835938 C 57.984375 318.847656 57.996094 318.855469 58.003906 318.871094 M 57.972656 318.835938 C 57.964844 318.828125 57.964844 318.820312 57.957031 318.816406 C 57.964844 318.820312 57.964844 318.828125 57.972656 318.835938 M 57.957031 318.816406 C 57.722656 318.570312 57.511719 318.308594 57.324219 318.039062 C 57.511719 318.308594 57.722656 318.566406 57.957031 318.816406 M 57.324219 318.035156 C 57.320312 318.03125 57.316406 318.023438 57.308594 318.019531 C 57.316406 318.023438 57.320312 318.03125 57.324219 318.035156 M 57.308594 318.015625 C 57.300781 318.003906 57.292969 317.992188 57.285156 317.980469 C 57.292969 317.992188 57.300781 318.003906 57.308594 318.015625 M 57.285156 317.976562 C 57.28125 317.972656 57.273438 317.964844 57.269531 317.960938 C 57.273438 317.964844 57.28125 317.972656 57.285156 317.976562 M 57.265625 317.957031 C 57.265625 317.949219 57.261719 317.945312 57.257812 317.941406 C 57.261719 317.945312 57.265625 317.949219 57.265625 317.957031 M 57.257812 317.9375 C 57.253906 317.933594 57.25 317.925781 57.246094 317.925781 C 57.25 317.925781 57.253906 317.933594 57.257812 317.9375 M 57.246094 317.917969 C 57.242188 317.914062 57.238281 317.90625 57.234375 317.90625 C 57.238281 317.90625 57.242188 317.914062 57.246094 317.917969 M 57.226562 317.898438 C 57.226562 317.890625 57.226562 317.886719 57.222656 317.886719 C 57.226562 317.886719 57.226562 317.894531 57.226562 317.898438 M 57.214844 317.875 C 57.214844 317.871094 57.210938 317.867188 57.207031 317.863281 C 57.210938 317.867188 57.214844 317.871094 57.214844 317.875 M 57.207031 317.859375 C 57.203125 317.855469 57.199219 317.847656 57.195312 317.84375 C 57.199219 317.847656 57.203125 317.855469 57.207031 317.859375 M 57.1875 317.835938 C 57.1875 317.832031 57.1875 317.832031 57.183594 317.828125 C 57.1875 317.832031 57.1875 317.832031 57.1875 317.835938 M 57.175781 317.8125 C 57.175781 317.8125 57.171875 317.808594 57.171875 317.804688 C 57.171875 317.808594 57.175781 317.8125 57.175781 317.8125 M 57.152344 317.773438 C 57.152344 317.773438 57.148438 317.773438 57.148438 317.773438 L 57.152344 317.773438 M 82.976562 312.367188 C 87.789062 310.082031 92.671875 308.21875 97.136719 308.210938 C 92.671875 308.21875 87.785156 310.082031 82.976562 312.367188 M 101.875 309.03125 C 101.863281 309.027344 101.855469 309.023438 101.847656 309.019531 C 101.855469 309.023438 101.863281 309.027344 101.875 309.03125 M 97.164062 308.210938 C 97.164062 308.210938 97.164062 308.210938 97.160156 308.210938 C 97.164062 308.210938 97.164062 308.210938 97.164062 308.210938 M 294.492188 260.917969 C 294.492188 260.914062 294.488281 260.902344 294.488281 260.902344 C 294.488281 260.90625 294.492188 260.910156 294.492188 260.917969 M 294.480469 260.871094 C 294.476562 260.863281 294.476562 260.859375 294.476562 260.851562 C 294.476562 260.863281 294.476562 260.863281 294.480469 260.871094 M 294.46875 260.824219 C 294.464844 260.820312 294.464844 260.808594 294.460938 260.804688 C 294.464844 260.808594 294.464844 260.820312 294.46875 260.824219 M 294.457031 260.777344 C 294.453125 260.765625 294.453125 260.765625 294.453125 260.757812 C 294.453125 260.761719 294.457031 260.773438 294.457031 260.777344 M 294.445312 260.730469 C 294.441406 260.722656 294.4375 260.71875 294.4375 260.710938 C 294.4375 260.71875 294.441406 260.722656 294.445312 260.730469 M 294.433594 260.683594 C 294.429688 260.671875 294.429688 260.671875 294.425781 260.664062 C 294.429688 260.671875 294.429688 260.675781 294.433594 260.683594 M 294.417969 260.636719 C 294.417969 260.625 294.417969 260.625 294.417969 260.617188 C 294.417969 260.625 294.417969 260.625 294.417969 260.636719 M 294.40625 260.585938 C 294.40625 260.582031 294.402344 260.574219 294.402344 260.570312 C 294.402344 260.574219 294.40625 260.582031 294.40625 260.585938 M 294.398438 260.539062 C 294.394531 260.535156 294.394531 260.527344 294.390625 260.523438 C 294.394531 260.527344 294.394531 260.535156 294.398438 260.539062 M 294.382812 260.484375 C 294.378906 260.480469 294.378906 260.480469 294.378906 260.476562 C 294.378906 260.480469 294.378906 260.484375 294.382812 260.484375 M 294.367188 260.429688 L 294.367188 260.425781 L 294.367188 260.429688 M 294.34375 260.328125 L 294.34375 260.328125 M 294.332031 260.285156 C 294.332031 260.28125 294.332031 260.273438 294.328125 260.269531 C 294.332031 260.273438 294.332031 260.28125 294.332031 260.285156 M 294.320312 260.234375 C 294.320312 260.230469 294.316406 260.226562 294.316406 260.222656 C 294.316406 260.226562 294.320312 260.230469 294.320312 260.234375 M 294.308594 260.1875 C 294.308594 260.183594 294.308594 260.179688 294.304688 260.175781 C 294.308594 260.179688 294.308594 260.183594 294.308594 260.1875 M 294.296875 260.140625 C 294.296875 260.128906 294.296875 260.132812 294.292969 260.125 C 294.296875 260.128906 294.296875 260.136719 294.296875 260.140625 M 294.285156 260.089844 C 294.28125 260.085938 294.285156 260.085938 294.28125 260.078125 C 294.285156 260.085938 294.28125 260.085938 294.285156 260.089844 M 294.277344 260.042969 C 294.273438 260.039062 294.273438 260.035156 294.273438 260.03125 C 294.273438 260.035156 294.273438 260.039062 294.277344 260.042969 M 294.257812 259.992188 L 294.257812 259.984375 C 294.257812 259.988281 294.257812 259.988281 294.257812 259.992188 M 294.25 259.941406 L 294.246094 259.933594 L 294.25 259.941406 M 294.238281 259.890625 L 294.238281 259.886719 L 294.238281 259.890625 M 294.179688 259.640625 L 294.175781 259.636719 L 294.179688 259.640625 M 294.164062 259.59375 L 294.164062 259.589844 C 294.164062 259.59375 294.164062 259.589844 294.164062 259.59375 M 294.15625 259.542969 L 294.152344 259.535156 C 294.152344 259.539062 294.152344 259.539062 294.15625 259.542969 M 294.140625 259.496094 L 294.140625 259.488281 L 294.140625 259.496094 M 294.132812 259.445312 L 294.128906 259.4375 C 294.132812 259.445312 294.128906 259.441406 294.132812 259.445312 " fill-opacity="1" fill-rule="nonzero"/></g><g clip-path="url(#id3)"><path fill="#cfcecd" d="M 207.207031 355.058594 C 207.207031 355.058594 207.207031 355.058594 207.203125 355.058594 C 188.144531 355.058594 187.460938 314.523438 174.304688 314.523438 C 170.863281 314.523438 167.15625 317.289062 163.128906 321.273438 C 152.722656 331.589844 140.214844 350.082031 124.933594 350.089844 C 124.929688 350.089844 124.929688 350.089844 124.929688 350.089844 L 124.925781 350.089844 C 123.496094 350.089844 122.039062 349.925781 120.558594 349.582031 C 108.644531 346.792969 106.488281 339.511719 106.492188 331.816406 C 106.492188 327.453125 107.183594 322.960938 107.183594 319.074219 C 107.183594 314.453125 106.203125 310.691406 101.914062 309.042969 C 101.898438 309.042969 101.886719 309.035156 101.875 309.03125 C 101.863281 309.027344 101.855469 309.023438 101.847656 309.019531 C 100.355469 308.457031 98.789062 308.210938 97.164062 308.210938 C 97.164062 308.210938 97.164062 308.210938 97.160156 308.210938 C 97.152344 308.210938 97.144531 308.210938 97.136719 308.210938 C 92.671875 308.21875 87.789062 310.082031 82.976562 312.367188 C 81.570312 313.035156 80.167969 313.742188 78.785156 314.445312 C 76.0625 315.832031 73.40625 317.21875 70.917969 318.332031 C 67.980469 319.648438 65.269531 320.582031 62.941406 320.671875 C 62.816406 320.675781 62.695312 320.679688 62.574219 320.679688 C 62.554688 320.679688 62.542969 320.679688 62.527344 320.679688 C 60.789062 320.667969 59.28125 320.15625 58.070312 318.9375 C 58.0625 318.925781 58.050781 318.914062 58.042969 318.90625 C 58.035156 318.898438 58.03125 318.894531 58.023438 318.890625 L 58.023438 318.886719 C 58.019531 318.878906 58.015625 318.875 58.007812 318.871094 C 58.003906 318.871094 58.003906 318.871094 58.003906 318.871094 C 57.996094 318.855469 57.984375 318.847656 57.972656 318.835938 C 57.964844 318.828125 57.964844 318.820312 57.957031 318.816406 C 57.722656 318.566406 57.511719 318.308594 57.324219 318.039062 C 57.324219 318.039062 57.324219 318.039062 57.324219 318.035156 C 57.320312 318.03125 57.316406 318.023438 57.308594 318.019531 C 57.308594 318.019531 57.308594 318.015625 57.308594 318.015625 C 57.300781 318.003906 57.292969 317.992188 57.285156 317.980469 C 57.285156 317.980469 57.285156 317.980469 57.285156 317.976562 C 57.28125 317.972656 57.273438 317.964844 57.269531 317.960938 C 57.269531 317.960938 57.269531 317.960938 57.265625 317.957031 C 57.265625 317.949219 57.261719 317.945312 57.257812 317.941406 C 57.257812 317.941406 57.257812 317.941406 57.257812 317.9375 C 57.253906 317.933594 57.25 317.925781 57.246094 317.925781 C 57.246094 317.921875 57.246094 317.921875 57.246094 317.917969 C 57.242188 317.914062 57.238281 317.90625 57.234375 317.90625 C 57.230469 317.902344 57.230469 317.898438 57.226562 317.898438 C 57.226562 317.894531 57.226562 317.886719 57.222656 317.886719 C 57.21875 317.882812 57.21875 317.878906 57.214844 317.875 C 57.214844 317.871094 57.210938 317.867188 57.207031 317.863281 C 57.207031 317.863281 57.207031 317.863281 57.207031 317.859375 C 57.203125 317.855469 57.199219 317.847656 57.195312 317.84375 C 57.195312 317.84375 57.191406 317.839844 57.1875 317.835938 C 57.1875 317.832031 57.1875 317.832031 57.183594 317.828125 C 57.183594 317.824219 57.179688 317.820312 57.175781 317.8125 C 57.175781 317.8125 57.171875 317.808594 57.171875 317.804688 C 57.164062 317.796875 57.160156 317.785156 57.152344 317.773438 L 57.148438 317.773438 C 57.144531 317.765625 57.144531 317.757812 57.136719 317.75 C 54.886719 314.089844 56.542969 308.472656 60.039062 301.097656 C 62.570312 302.230469 65.285156 302.878906 68.054688 302.878906 C 69.773438 302.878906 71.515625 302.628906 73.246094 302.089844 C 79.261719 300.203125 84.050781 295.695312 89.617188 292.734375 C 92.496094 291.203125 95.929688 290.1875 99.179688 290.1875 C 102.21875 290.1875 105.101562 291.078125 107.21875 293.261719 C 113.601562 299.871094 107.820312 311.917969 112.867188 319.59375 C 115.148438 323.070312 119.050781 324.582031 123.203125 324.582031 C 127.414062 324.582031 131.886719 323.023438 135.183594 320.382812 C 141.730469 315.144531 145.3125 307.15625 150.199219 300.34375 C 154.613281 294.191406 161.300781 288.542969 168.648438 288.542969 C 169.433594 288.542969 170.230469 288.601562 171.03125 288.738281 C 180.164062 290.296875 185.140625 299.921875 189.441406 308.117188 C 193.425781 315.714844 199.910156 323.960938 208.121094 323.960938 C 208.769531 323.960938 209.433594 323.910156 210.097656 323.800781 C 221.125 322.035156 219.632812 305.816406 227.28125 297.691406 C 231.382812 293.335938 234.179688 290.878906 239.730469 290.878906 C 240.09375 290.878906 240.46875 290.890625 240.851562 290.914062 C 241.347656 290.941406 241.84375 290.953125 242.335938 290.953125 C 253.75 290.953125 264.121094 283.761719 265.15625 272.3125 C 269.195312 227.492188 270.492188 179.34375 266.574219 134.511719 C 264.121094 106.449219 260.175781 83.777344 243.378906 50.539062 C 237.8125 39.523438 231.171875 30.917969 224.863281 24.203125 C 320.554688 48.273438 279.546875 197.394531 294.128906 259.4375 L 294.132812 259.445312 C 294.136719 259.460938 294.136719 259.472656 294.140625 259.488281 L 294.140625 259.496094 C 294.144531 259.511719 294.148438 259.519531 294.152344 259.535156 L 294.15625 259.542969 C 294.160156 259.554688 294.160156 259.574219 294.164062 259.589844 L 294.164062 259.59375 C 294.167969 259.609375 294.171875 259.621094 294.175781 259.636719 L 294.179688 259.640625 C 294.179688 259.65625 294.183594 259.671875 294.1875 259.691406 C 294.203125 259.757812 294.21875 259.820312 294.238281 259.886719 L 294.238281 259.890625 C 294.238281 259.90625 294.242188 259.917969 294.246094 259.933594 L 294.25 259.941406 C 294.253906 259.957031 294.257812 259.96875 294.257812 259.984375 L 294.257812 259.992188 C 294.261719 260.003906 294.265625 260.019531 294.273438 260.03125 C 294.273438 260.035156 294.273438 260.039062 294.277344 260.042969 C 294.277344 260.054688 294.277344 260.066406 294.28125 260.078125 C 294.285156 260.085938 294.28125 260.085938 294.285156 260.089844 C 294.289062 260.105469 294.292969 260.113281 294.292969 260.125 C 294.296875 260.132812 294.296875 260.128906 294.296875 260.140625 C 294.296875 260.148438 294.300781 260.164062 294.304688 260.175781 C 294.308594 260.179688 294.308594 260.183594 294.308594 260.1875 C 294.3125 260.199219 294.316406 260.210938 294.316406 260.222656 C 294.316406 260.226562 294.320312 260.230469 294.320312 260.234375 C 294.324219 260.246094 294.328125 260.261719 294.328125 260.269531 C 294.332031 260.273438 294.332031 260.28125 294.332031 260.285156 C 294.335938 260.296875 294.339844 260.308594 294.34375 260.328125 C 294.351562 260.363281 294.359375 260.398438 294.367188 260.425781 L 294.367188 260.429688 C 294.375 260.445312 294.378906 260.460938 294.378906 260.476562 C 294.378906 260.480469 294.378906 260.480469 294.382812 260.484375 C 294.386719 260.5 294.386719 260.503906 294.390625 260.523438 C 294.394531 260.527344 294.394531 260.535156 294.398438 260.539062 C 294.398438 260.546875 294.398438 260.558594 294.402344 260.570312 C 294.402344 260.574219 294.40625 260.582031 294.40625 260.585938 C 294.410156 260.597656 294.414062 260.605469 294.417969 260.617188 C 294.417969 260.625 294.417969 260.625 294.417969 260.636719 C 294.421875 260.644531 294.425781 260.65625 294.425781 260.664062 C 294.429688 260.671875 294.429688 260.671875 294.433594 260.683594 C 294.433594 260.6875 294.4375 260.703125 294.4375 260.710938 C 294.4375 260.71875 294.441406 260.722656 294.445312 260.730469 C 294.445312 260.742188 294.449219 260.746094 294.453125 260.757812 C 294.453125 260.765625 294.453125 260.765625 294.457031 260.777344 C 294.457031 260.785156 294.457031 260.792969 294.460938 260.804688 C 294.464844 260.808594 294.464844 260.820312 294.46875 260.824219 C 294.472656 260.835938 294.472656 260.84375 294.476562 260.851562 C 294.476562 260.859375 294.476562 260.863281 294.480469 260.871094 C 294.480469 260.878906 294.484375 260.890625 294.488281 260.902344 C 294.488281 260.902344 294.492188 260.914062 294.492188 260.917969 C 294.496094 260.933594 294.5 260.949219 294.503906 260.960938 C 302.203125 291.027344 308.855469 312.949219 308.847656 326.949219 C 308.847656 335.847656 306.15625 341.550781 299.335938 344.105469 C 299.324219 344.109375 299.308594 344.117188 299.300781 344.117188 C 299.296875 344.117188 299.296875 344.117188 299.296875 344.117188 C 299.289062 344.121094 299.28125 344.125 299.269531 344.128906 C 297.773438 344.679688 296.28125 344.953125 294.796875 344.992188 C 294.675781 344.996094 294.550781 344.996094 294.425781 344.996094 C 286.820312 344.996094 279.390625 338.949219 272.625 332.898438 C 272.617188 332.894531 272.609375 332.886719 272.601562 332.878906 C 272.582031 332.859375 272.5625 332.839844 272.539062 332.820312 C 272.5 332.789062 272.460938 332.753906 272.421875 332.714844 C 272.355469 332.65625 272.285156 332.597656 272.222656 332.535156 C 272.128906 332.457031 272.042969 332.378906 271.953125 332.300781 C 271.933594 332.28125 271.914062 332.261719 271.890625 332.242188 C 271.867188 332.21875 271.84375 332.199219 271.820312 332.175781 C 271.816406 332.175781 271.8125 332.171875 271.808594 332.167969 C 271.796875 332.15625 271.78125 332.140625 271.765625 332.125 C 271.753906 332.121094 271.746094 332.109375 271.734375 332.101562 C 271.726562 332.09375 271.71875 332.085938 271.710938 332.082031 C 271.695312 332.066406 271.683594 332.054688 271.664062 332.039062 C 271.59375 331.972656 271.519531 331.90625 271.445312 331.84375 C 271.445312 331.839844 271.445312 331.839844 271.441406 331.835938 C 265.152344 326.167969 259.472656 320.816406 254.800781 320.800781 C 254.800781 320.800781 254.792969 320.800781 254.789062 320.800781 L 254.785156 320.800781 C 254.410156 320.800781 254.039062 320.839844 253.675781 320.910156 C 251.839844 321.277344 249.949219 322.476562 247.972656 324.21875 C 238.121094 332.894531 226.027344 355.058594 207.210938 355.058594 C 207.210938 355.058594 207.207031 355.058594 207.203125 355.058594 " fill-opacity="1" fill-rule="nonzero"/></g></svg>