<svg xmlns="http://www.w3.org/2000/svg" xmlns:xlink="http://www.w3.org/1999/xlink" width="500" zoomAndPan="magnify" viewBox="0 0 375 374.999991" height="500" preserveAspectRatio="xMidYMid meet" version="1.0"><defs><clipPath id="id1"><path d="M 169 41.371094 L 197 41.371094 L 197 106 L 169 106 Z M 169 41.371094 " clip-rule="nonzero"/></clipPath><clipPath id="id2"><path d="M 41.371094 169 L 106 169 L 106 197 L 41.371094 197 Z M 41.371094 169 " clip-rule="nonzero"/></clipPath><clipPath id="id3"><path d="M 169 269 L 197 269 L 197 333.871094 L 169 333.871094 Z M 169 269 " clip-rule="nonzero"/></clipPath><clipPath id="id4"><path d="M 269 169 L 333.871094 169 L 333.871094 197 L 269 197 Z M 269 169 " clip-rule="nonzero"/></clipPath></defs><path fill="#ffde59" d="M 256.175781 80.21875 L 247.035156 80.21875 C 244.523438 80.21875 242.464844 82.277344 242.464844 84.789062 L 242.464844 105.355469 L 247.035156 105.355469 C 248.636719 105.355469 250.234375 105.585938 251.605469 105.8125 L 251.605469 89.359375 L 256.175781 89.359375 C 258.691406 89.359375 260.746094 87.304688 260.746094 84.789062 C 260.746094 82.277344 258.691406 80.21875 256.175781 80.21875 Z M 256.175781 80.21875 " fill-opacity="1" fill-rule="nonzero"/><path fill="#ffde59" d="M 219.613281 71.078125 L 224.183594 71.078125 L 224.183594 105.355469 L 233.324219 105.355469 L 233.324219 66.507812 C 233.324219 63.996094 231.269531 61.9375 228.753906 61.9375 L 224.183594 61.9375 L 224.183594 50.511719 C 224.183594 48 222.128906 45.941406 219.613281 45.941406 C 217.101562 45.941406 215.042969 48 215.042969 50.511719 L 215.042969 66.507812 C 215.042969 69.023438 217.101562 71.078125 219.613281 71.078125 Z M 219.613281 71.078125 " fill-opacity="1" fill-rule="nonzero"/><path fill="#ffde59" d="M 247.035156 114.496094 L 128.207031 114.496094 C 120.667969 114.496094 114.496094 120.667969 114.496094 128.207031 L 114.496094 247.035156 C 114.496094 254.578125 120.667969 260.746094 128.207031 260.746094 L 247.035156 260.746094 C 254.578125 260.746094 260.746094 254.578125 260.746094 247.035156 L 260.746094 128.207031 C 260.746094 120.667969 254.578125 114.496094 247.035156 114.496094 Z M 251.605469 247.035156 C 251.605469 249.550781 249.550781 251.605469 247.035156 251.605469 L 128.207031 251.605469 C 125.695312 251.605469 123.636719 249.550781 123.636719 247.035156 L 123.636719 128.207031 C 123.636719 125.695312 125.695312 123.636719 128.207031 123.636719 L 247.035156 123.636719 C 249.550781 123.636719 251.605469 125.695312 251.605469 128.207031 Z M 251.605469 247.035156 " fill-opacity="1" fill-rule="nonzero"/><path fill="#ffde59" d="M 210.472656 173.910156 L 210.472656 160.199219 C 210.472656 150.144531 201.5625 141.917969 190.59375 141.917969 L 184.652344 141.917969 C 173.683594 141.917969 164.769531 150.144531 164.769531 160.199219 L 164.769531 173.910156 C 158.371094 174.367188 153.34375 179.394531 153.34375 185.792969 L 153.34375 221.441406 C 153.34375 228.070312 158.828125 233.324219 165.683594 233.324219 L 209.558594 233.324219 C 216.414062 233.324219 221.898438 228.070312 221.898438 221.441406 L 221.898438 185.792969 C 221.898438 179.625 216.871094 174.367188 210.472656 173.910156 Z M 184.652344 151.058594 L 190.59375 151.058594 C 196.535156 151.058594 201.332031 155.171875 201.332031 160.199219 L 201.332031 173.910156 L 173.910156 173.910156 L 173.910156 160.199219 C 173.910156 155.171875 178.710938 151.058594 184.652344 151.058594 Z M 212.757812 221.441406 C 212.757812 223.042969 211.386719 224.183594 209.558594 224.183594 L 165.683594 224.183594 C 163.855469 224.183594 162.484375 223.042969 162.484375 221.441406 L 162.484375 185.792969 C 162.484375 184.195312 163.855469 183.050781 165.683594 183.050781 L 209.558594 183.050781 C 211.386719 183.050781 212.757812 184.195312 212.757812 185.792969 Z M 212.757812 221.441406 " fill-opacity="1" fill-rule="nonzero"/><path fill="#ffde59" d="M 187.621094 205.902344 C 185.109375 205.902344 183.050781 207.960938 183.050781 210.472656 L 183.050781 212.757812 C 183.050781 215.273438 185.109375 217.328125 187.621094 217.328125 C 190.136719 217.328125 192.191406 215.273438 192.191406 212.757812 L 192.191406 210.472656 C 192.191406 207.960938 190.136719 205.902344 187.621094 205.902344 Z M 187.621094 205.902344 " fill-opacity="1" fill-rule="nonzero"/><path fill="#ffde59" d="M 141.917969 141.917969 C 141.917969 142.21875 141.890625 142.515625 141.832031 142.808594 C 141.773438 143.105469 141.6875 143.390625 141.570312 143.667969 C 141.457031 143.945312 141.316406 144.207031 141.148438 144.457031 C 140.980469 144.707031 140.792969 144.9375 140.578125 145.152344 C 140.367188 145.363281 140.136719 145.550781 139.886719 145.71875 C 139.636719 145.886719 139.375 146.027344 139.097656 146.140625 C 138.820312 146.257812 138.535156 146.34375 138.238281 146.402344 C 137.945312 146.460938 137.648438 146.488281 137.347656 146.488281 C 137.046875 146.488281 136.75 146.460938 136.457031 146.402344 C 136.164062 146.34375 135.875 146.257812 135.597656 146.140625 C 135.320312 146.027344 135.058594 145.886719 134.808594 145.71875 C 134.558594 145.550781 134.328125 145.363281 134.117188 145.152344 C 133.90625 144.9375 133.714844 144.707031 133.546875 144.457031 C 133.382812 144.207031 133.242188 143.945312 133.125 143.667969 C 133.011719 143.390625 132.925781 143.105469 132.867188 142.808594 C 132.808594 142.515625 132.777344 142.21875 132.777344 141.917969 C 132.777344 141.617188 132.808594 141.320312 132.867188 141.027344 C 132.925781 140.734375 133.011719 140.445312 133.125 140.167969 C 133.242188 139.890625 133.382812 139.628906 133.546875 139.378906 C 133.714844 139.128906 133.90625 138.898438 134.117188 138.6875 C 134.328125 138.476562 134.558594 138.285156 134.808594 138.117188 C 135.058594 137.953125 135.320312 137.8125 135.597656 137.695312 C 135.875 137.582031 136.164062 137.496094 136.457031 137.4375 C 136.75 137.378906 137.046875 137.347656 137.347656 137.347656 C 137.648438 137.347656 137.945312 137.378906 138.238281 137.4375 C 138.535156 137.496094 138.820312 137.582031 139.097656 137.695312 C 139.375 137.8125 139.636719 137.953125 139.886719 138.117188 C 140.136719 138.285156 140.367188 138.476562 140.578125 138.6875 C 140.792969 138.898438 140.980469 139.128906 141.148438 139.378906 C 141.316406 139.628906 141.457031 139.890625 141.570312 140.167969 C 141.6875 140.445312 141.773438 140.734375 141.832031 141.027344 C 141.890625 141.320312 141.917969 141.617188 141.917969 141.917969 Z M 141.917969 141.917969 " fill-opacity="1" fill-rule="nonzero"/><path fill="#ffde59" d="M 141.917969 233.324219 C 141.917969 233.625 141.890625 233.921875 141.832031 234.214844 C 141.773438 234.511719 141.6875 234.796875 141.570312 235.074219 C 141.457031 235.351562 141.316406 235.613281 141.148438 235.863281 C 140.980469 236.113281 140.792969 236.34375 140.578125 236.558594 C 140.367188 236.769531 140.136719 236.957031 139.886719 237.125 C 139.636719 237.292969 139.375 237.433594 139.097656 237.546875 C 138.820312 237.664062 138.535156 237.75 138.238281 237.808594 C 137.945312 237.867188 137.648438 237.894531 137.347656 237.894531 C 137.046875 237.894531 136.75 237.867188 136.457031 237.808594 C 136.164062 237.75 135.875 237.664062 135.597656 237.546875 C 135.320312 237.433594 135.058594 237.292969 134.808594 237.125 C 134.558594 236.957031 134.328125 236.769531 134.117188 236.558594 C 133.90625 236.34375 133.714844 236.113281 133.546875 235.863281 C 133.382812 235.613281 133.242188 235.351562 133.125 235.074219 C 133.011719 234.796875 132.925781 234.511719 132.867188 234.214844 C 132.808594 233.921875 132.777344 233.625 132.777344 233.324219 C 132.777344 233.023438 132.808594 232.726562 132.867188 232.433594 C 132.925781 232.140625 133.011719 231.851562 133.125 231.574219 C 133.242188 231.296875 133.382812 231.035156 133.546875 230.785156 C 133.714844 230.535156 133.90625 230.304688 134.117188 230.09375 C 134.328125 229.882812 134.558594 229.691406 134.808594 229.523438 C 135.058594 229.359375 135.320312 229.21875 135.597656 229.101562 C 135.875 228.988281 136.164062 228.902344 136.457031 228.84375 C 136.75 228.785156 137.046875 228.753906 137.347656 228.753906 C 137.648438 228.753906 137.945312 228.785156 138.238281 228.84375 C 138.535156 228.902344 138.820312 228.988281 139.097656 229.101562 C 139.375 229.21875 139.636719 229.359375 139.886719 229.523438 C 140.136719 229.691406 140.367188 229.882812 140.578125 230.09375 C 140.792969 230.304688 140.980469 230.535156 141.148438 230.785156 C 141.316406 231.035156 141.457031 231.296875 141.570312 231.574219 C 141.6875 231.851562 141.773438 232.140625 141.832031 232.433594 C 141.890625 232.726562 141.917969 233.023438 141.917969 233.324219 Z M 141.917969 233.324219 " fill-opacity="1" fill-rule="nonzero"/><path fill="#ffde59" d="M 141.917969 187.621094 C 141.917969 187.921875 141.890625 188.21875 141.832031 188.511719 C 141.773438 188.808594 141.6875 189.09375 141.570312 189.371094 C 141.457031 189.648438 141.316406 189.910156 141.148438 190.160156 C 140.980469 190.410156 140.792969 190.640625 140.578125 190.855469 C 140.367188 191.066406 140.136719 191.253906 139.886719 191.421875 C 139.636719 191.589844 139.375 191.730469 139.097656 191.84375 C 138.820312 191.960938 138.535156 192.046875 138.238281 192.105469 C 137.945312 192.164062 137.648438 192.191406 137.347656 192.191406 C 137.046875 192.191406 136.75 192.164062 136.457031 192.105469 C 136.164062 192.046875 135.875 191.960938 135.597656 191.84375 C 135.320312 191.730469 135.058594 191.589844 134.808594 191.421875 C 134.558594 191.253906 134.328125 191.066406 134.117188 190.855469 C 133.90625 190.640625 133.714844 190.410156 133.546875 190.160156 C 133.382812 189.910156 133.242188 189.648438 133.125 189.371094 C 133.011719 189.09375 132.925781 188.808594 132.867188 188.511719 C 132.808594 188.21875 132.777344 187.921875 132.777344 187.621094 C 132.777344 187.320312 132.808594 187.023438 132.867188 186.730469 C 132.925781 186.4375 133.011719 186.148438 133.125 185.871094 C 133.242188 185.59375 133.382812 185.332031 133.546875 185.082031 C 133.714844 184.832031 133.90625 184.601562 134.117188 184.390625 C 134.328125 184.179688 134.558594 183.988281 134.808594 183.820312 C 135.058594 183.65625 135.320312 183.515625 135.597656 183.398438 C 135.875 183.285156 136.164062 183.199219 136.457031 183.140625 C 136.75 183.082031 137.046875 183.050781 137.347656 183.050781 C 137.648438 183.050781 137.945312 183.082031 138.238281 183.140625 C 138.535156 183.199219 138.820312 183.285156 139.097656 183.398438 C 139.375 183.515625 139.636719 183.65625 139.886719 183.820312 C 140.136719 183.988281 140.367188 184.179688 140.578125 184.390625 C 140.792969 184.601562 140.980469 184.832031 141.148438 185.082031 C 141.316406 185.332031 141.457031 185.59375 141.570312 185.871094 C 141.6875 186.148438 141.773438 186.4375 141.832031 186.730469 C 141.890625 187.023438 141.917969 187.320312 141.917969 187.621094 Z M 141.917969 187.621094 " fill-opacity="1" fill-rule="nonzero"/><path fill="#ffde59" d="M 242.464844 141.917969 C 242.464844 142.21875 242.4375 142.515625 242.378906 142.808594 C 242.320312 143.105469 242.234375 143.390625 242.117188 143.667969 C 242.003906 143.945312 241.863281 144.207031 241.695312 144.457031 C 241.527344 144.707031 241.339844 144.9375 241.128906 145.152344 C 240.914062 145.363281 240.683594 145.550781 240.433594 145.71875 C 240.183594 145.886719 239.921875 146.027344 239.644531 146.140625 C 239.367188 146.257812 239.082031 146.34375 238.785156 146.402344 C 238.492188 146.460938 238.195312 146.488281 237.894531 146.488281 C 237.59375 146.488281 237.296875 146.460938 237.003906 146.402344 C 236.710938 146.34375 236.421875 146.257812 236.144531 146.140625 C 235.867188 146.027344 235.605469 145.886719 235.355469 145.71875 C 235.105469 145.550781 234.875 145.363281 234.664062 145.152344 C 234.453125 144.9375 234.261719 144.707031 234.09375 144.457031 C 233.929688 144.207031 233.789062 143.945312 233.671875 143.667969 C 233.558594 143.390625 233.472656 143.105469 233.414062 142.808594 C 233.355469 142.515625 233.324219 142.21875 233.324219 141.917969 C 233.324219 141.617188 233.355469 141.320312 233.414062 141.027344 C 233.472656 140.734375 233.558594 140.445312 233.671875 140.167969 C 233.789062 139.890625 233.929688 139.628906 234.09375 139.378906 C 234.261719 139.128906 234.453125 138.898438 234.664062 138.6875 C 234.875 138.476562 235.105469 138.285156 235.355469 138.117188 C 235.605469 137.953125 235.867188 137.8125 236.144531 137.695312 C 236.421875 137.582031 236.710938 137.496094 237.003906 137.4375 C 237.296875 137.378906 237.59375 137.347656 237.894531 137.347656 C 238.195312 137.347656 238.492188 137.378906 238.785156 137.4375 C 239.082031 137.496094 239.367188 137.582031 239.644531 137.695312 C 239.921875 137.8125 240.183594 137.953125 240.433594 138.117188 C 240.683594 138.285156 240.914062 138.476562 241.128906 138.6875 C 241.339844 138.898438 241.527344 139.128906 241.695312 139.378906 C 241.863281 139.628906 242.003906 139.890625 242.117188 140.167969 C 242.234375 140.445312 242.320312 140.734375 242.378906 141.027344 C 242.4375 141.320312 242.464844 141.617188 242.464844 141.917969 Z M 242.464844 141.917969 " fill-opacity="1" fill-rule="nonzero"/><path fill="#ffde59" d="M 242.464844 233.324219 C 242.464844 233.625 242.4375 233.921875 242.378906 234.214844 C 242.320312 234.511719 242.234375 234.796875 242.117188 235.074219 C 242.003906 235.351562 241.863281 235.613281 241.695312 235.863281 C 241.527344 236.113281 241.339844 236.34375 241.128906 236.558594 C 240.914062 236.769531 240.683594 236.957031 240.433594 237.125 C 240.183594 237.292969 239.921875 237.433594 239.644531 237.546875 C 239.367188 237.664062 239.082031 237.75 238.785156 237.808594 C 238.492188 237.867188 238.195312 237.894531 237.894531 237.894531 C 237.59375 237.894531 237.296875 237.867188 237.003906 237.808594 C 236.710938 237.75 236.421875 237.664062 236.144531 237.546875 C 235.867188 237.433594 235.605469 237.292969 235.355469 237.125 C 235.105469 236.957031 234.875 236.769531 234.664062 236.558594 C 234.453125 236.34375 234.261719 236.113281 234.09375 235.863281 C 233.929688 235.613281 233.789062 235.351562 233.671875 235.074219 C 233.558594 234.796875 233.472656 234.511719 233.414062 234.214844 C 233.355469 233.921875 233.324219 233.625 233.324219 233.324219 C 233.324219 233.023438 233.355469 232.726562 233.414062 232.433594 C 233.472656 232.140625 233.558594 231.851562 233.671875 231.574219 C 233.789062 231.296875 233.929688 231.035156 234.09375 230.785156 C 234.261719 230.535156 234.453125 230.304688 234.664062 230.09375 C 234.875 229.882812 235.105469 229.691406 235.355469 229.523438 C 235.605469 229.359375 235.867188 229.21875 236.144531 229.101562 C 236.421875 228.988281 236.710938 228.902344 237.003906 228.84375 C 237.296875 228.785156 237.59375 228.753906 237.894531 228.753906 C 238.195312 228.753906 238.492188 228.785156 238.785156 228.84375 C 239.082031 228.902344 239.367188 228.988281 239.644531 229.101562 C 239.921875 229.21875 240.183594 229.359375 240.433594 229.523438 C 240.683594 229.691406 240.914062 229.882812 241.128906 230.09375 C 241.339844 230.304688 241.527344 230.535156 241.695312 230.785156 C 241.863281 231.035156 242.003906 231.296875 242.117188 231.574219 C 242.234375 231.851562 242.320312 232.140625 242.378906 232.433594 C 242.4375 232.726562 242.464844 233.023438 242.464844 233.324219 Z M 242.464844 233.324219 " fill-opacity="1" fill-rule="nonzero"/><path fill="#ffde59" d="M 242.464844 187.621094 C 242.464844 187.921875 242.4375 188.21875 242.378906 188.511719 C 242.320312 188.808594 242.234375 189.09375 242.117188 189.371094 C 242.003906 189.648438 241.863281 189.910156 241.695312 190.160156 C 241.527344 190.410156 241.339844 190.640625 241.128906 190.855469 C 240.914062 191.066406 240.683594 191.253906 240.433594 191.421875 C 240.183594 191.589844 239.921875 191.730469 239.644531 191.84375 C 239.367188 191.960938 239.082031 192.046875 238.785156 192.105469 C 238.492188 192.164062 238.195312 192.191406 237.894531 192.191406 C 237.59375 192.191406 237.296875 192.164062 237.003906 192.105469 C 236.710938 192.046875 236.421875 191.960938 236.144531 191.84375 C 235.867188 191.730469 235.605469 191.589844 235.355469 191.421875 C 235.105469 191.253906 234.875 191.066406 234.664062 190.855469 C 234.453125 190.640625 234.261719 190.410156 234.09375 190.160156 C 233.929688 189.910156 233.789062 189.648438 233.671875 189.371094 C 233.558594 189.09375 233.472656 188.808594 233.414062 188.511719 C 233.355469 188.21875 233.324219 187.921875 233.324219 187.621094 C 233.324219 187.320312 233.355469 187.023438 233.414062 186.730469 C 233.472656 186.4375 233.558594 186.148438 233.671875 185.871094 C 233.789062 185.59375 233.929688 185.332031 234.09375 185.082031 C 234.261719 184.832031 234.453125 184.601562 234.664062 184.390625 C 234.875 184.179688 235.105469 183.988281 235.355469 183.820312 C 235.605469 183.65625 235.867188 183.515625 236.144531 183.398438 C 236.421875 183.285156 236.710938 183.199219 237.003906 183.140625 C 237.296875 183.082031 237.59375 183.050781 237.894531 183.050781 C 238.195312 183.050781 238.492188 183.082031 238.785156 183.140625 C 239.082031 183.199219 239.367188 183.285156 239.644531 183.398438 C 239.921875 183.515625 240.183594 183.65625 240.433594 183.820312 C 240.683594 183.988281 240.914062 184.179688 241.128906 184.390625 C 241.339844 184.601562 241.527344 184.832031 241.695312 185.082031 C 241.863281 185.332031 242.003906 185.59375 242.117188 185.871094 C 242.234375 186.148438 242.320312 186.4375 242.378906 186.730469 C 242.4375 187.023438 242.464844 187.320312 242.464844 187.621094 Z M 242.464844 187.621094 " fill-opacity="1" fill-rule="nonzero"/><path fill="#ffde59" d="M 187.621094 96.445312 L 187.621094 105.355469 L 196.761719 105.355469 L 196.761719 101.015625 L 210.472656 101.015625 C 212.988281 101.015625 215.042969 98.957031 215.042969 96.445312 L 215.042969 84.789062 C 215.042969 82.277344 212.988281 80.21875 210.472656 80.21875 C 207.960938 80.21875 205.902344 82.277344 205.902344 84.789062 L 205.902344 91.875 L 192.191406 91.875 C 189.679688 91.875 187.621094 93.929688 187.621094 96.445312 Z M 187.621094 96.445312 " fill-opacity="1" fill-rule="nonzero"/><g clip-path="url(#id1)"><path fill="#ffde59" d="M 178.480469 64.222656 L 192.191406 64.222656 C 194.707031 64.222656 196.761719 62.167969 196.761719 59.652344 L 196.761719 45.941406 C 196.761719 43.429688 194.707031 41.371094 192.191406 41.371094 C 189.679688 41.371094 187.621094 43.429688 187.621094 45.941406 L 187.621094 55.082031 L 173.910156 55.082031 C 171.398438 55.082031 169.339844 57.140625 169.339844 59.652344 L 169.339844 105.355469 L 178.480469 105.355469 Z M 178.480469 64.222656 " fill-opacity="1" fill-rule="nonzero"/></g><path fill="#ffde59" d="M 146.488281 93.929688 L 151.058594 93.929688 L 151.058594 105.355469 L 160.199219 105.355469 L 160.199219 89.359375 C 160.199219 86.847656 158.144531 84.789062 155.628906 84.789062 L 151.058594 84.789062 L 151.058594 73.363281 C 151.058594 70.851562 149.003906 68.792969 146.488281 68.792969 C 143.976562 68.792969 141.917969 70.851562 141.917969 73.363281 L 141.917969 89.359375 C 141.917969 91.875 143.976562 93.929688 146.488281 93.929688 Z M 146.488281 93.929688 " fill-opacity="1" fill-rule="nonzero"/><path fill="#ffde59" d="M 119.066406 89.359375 L 123.636719 89.359375 L 123.636719 105.8125 C 125.007812 105.585938 126.609375 105.355469 128.207031 105.355469 L 132.777344 105.355469 L 132.777344 84.789062 C 132.777344 82.277344 130.722656 80.21875 128.207031 80.21875 L 123.636719 80.21875 L 123.636719 55.082031 C 123.636719 52.570312 121.582031 50.511719 119.066406 50.511719 C 116.554688 50.511719 114.496094 52.570312 114.496094 55.082031 L 114.496094 84.789062 C 114.496094 87.304688 116.554688 89.359375 119.066406 89.359375 Z M 119.066406 89.359375 " fill-opacity="1" fill-rule="nonzero"/><path fill="#ffde59" d="M 89.359375 119.066406 C 89.359375 116.554688 87.304688 114.496094 84.789062 114.496094 L 55.082031 114.496094 C 52.570312 114.496094 50.511719 116.554688 50.511719 119.066406 C 50.511719 121.582031 52.570312 123.636719 55.082031 123.636719 L 80.21875 123.636719 L 80.21875 128.207031 C 80.21875 130.722656 82.277344 132.777344 84.789062 132.777344 L 105.355469 132.777344 L 105.355469 128.207031 C 105.355469 126.609375 105.585938 125.007812 105.8125 123.636719 L 89.359375 123.636719 Z M 89.359375 119.066406 " fill-opacity="1" fill-rule="nonzero"/><path fill="#ffde59" d="M 89.359375 141.917969 L 73.363281 141.917969 C 70.851562 141.917969 68.792969 143.976562 68.792969 146.488281 C 68.792969 149.003906 70.851562 151.058594 73.363281 151.058594 L 84.789062 151.058594 L 84.789062 155.628906 C 84.789062 158.144531 86.847656 160.199219 89.359375 160.199219 L 105.355469 160.199219 L 105.355469 151.058594 L 93.929688 151.058594 L 93.929688 146.488281 C 93.929688 143.976562 91.875 141.917969 89.359375 141.917969 Z M 89.359375 141.917969 " fill-opacity="1" fill-rule="nonzero"/><g clip-path="url(#id2)"><path fill="#ffde59" d="M 59.652344 196.761719 C 62.167969 196.761719 64.222656 194.707031 64.222656 192.191406 L 64.222656 178.480469 L 105.355469 178.480469 L 105.355469 169.339844 L 59.652344 169.339844 C 57.140625 169.339844 55.082031 171.398438 55.082031 173.910156 L 55.082031 187.621094 L 45.941406 187.621094 C 43.429688 187.621094 41.371094 189.679688 41.371094 192.191406 C 41.371094 194.707031 43.429688 196.761719 45.941406 196.761719 Z M 59.652344 196.761719 " fill-opacity="1" fill-rule="nonzero"/></g><path fill="#ffde59" d="M 91.875 192.191406 L 91.875 205.902344 L 84.789062 205.902344 C 82.277344 205.902344 80.21875 207.960938 80.21875 210.472656 C 80.21875 212.988281 82.277344 215.042969 84.789062 215.042969 L 96.445312 215.042969 C 98.957031 215.042969 101.015625 212.988281 101.015625 210.472656 L 101.015625 196.761719 L 105.355469 196.761719 L 105.355469 187.621094 L 96.445312 187.621094 C 93.929688 187.621094 91.875 189.679688 91.875 192.191406 Z M 91.875 192.191406 " fill-opacity="1" fill-rule="nonzero"/><path fill="#ffde59" d="M 105.355469 224.183594 L 71.078125 224.183594 L 71.078125 219.613281 C 71.078125 217.101562 69.023438 215.042969 66.507812 215.042969 L 50.511719 215.042969 C 48 215.042969 45.941406 217.101562 45.941406 219.613281 C 45.941406 222.128906 48 224.183594 50.511719 224.183594 L 61.9375 224.183594 L 61.9375 228.753906 C 61.9375 231.269531 63.996094 233.324219 66.507812 233.324219 L 105.355469 233.324219 Z M 105.355469 224.183594 " fill-opacity="1" fill-rule="nonzero"/><path fill="#ffde59" d="M 105.355469 242.464844 L 84.789062 242.464844 C 82.277344 242.464844 80.21875 244.523438 80.21875 247.035156 L 80.21875 256.175781 C 80.21875 258.691406 82.277344 260.746094 84.789062 260.746094 C 87.304688 260.746094 89.359375 258.691406 89.359375 256.175781 L 89.359375 251.605469 L 105.8125 251.605469 C 105.585938 250.234375 105.355469 248.636719 105.355469 247.035156 Z M 105.355469 242.464844 " fill-opacity="1" fill-rule="nonzero"/><path fill="#ffde59" d="M 123.636719 269.429688 L 123.636719 285.882812 L 119.066406 285.882812 C 116.554688 285.882812 114.496094 287.941406 114.496094 290.453125 L 114.496094 320.160156 C 114.496094 322.675781 116.554688 324.730469 119.066406 324.730469 C 121.582031 324.730469 123.636719 322.675781 123.636719 320.160156 L 123.636719 295.023438 L 128.207031 295.023438 C 130.722656 295.023438 132.777344 292.96875 132.777344 290.453125 L 132.777344 269.886719 L 128.207031 269.886719 C 126.609375 269.886719 125.007812 269.660156 123.636719 269.429688 Z M 123.636719 269.429688 " fill-opacity="1" fill-rule="nonzero"/><path fill="#ffde59" d="M 151.058594 281.3125 L 146.488281 281.3125 C 143.976562 281.3125 141.917969 283.371094 141.917969 285.882812 L 141.917969 301.878906 C 141.917969 304.394531 143.976562 306.449219 146.488281 306.449219 C 149.003906 306.449219 151.058594 304.394531 151.058594 301.878906 L 151.058594 290.453125 L 155.628906 290.453125 C 158.144531 290.453125 160.199219 288.398438 160.199219 285.882812 L 160.199219 269.886719 L 151.058594 269.886719 Z M 151.058594 281.3125 " fill-opacity="1" fill-rule="nonzero"/><g clip-path="url(#id3)"><path fill="#ffde59" d="M 192.191406 311.019531 L 178.480469 311.019531 L 178.480469 269.886719 L 169.339844 269.886719 L 169.339844 315.589844 C 169.339844 318.105469 171.398438 320.160156 173.910156 320.160156 L 187.621094 320.160156 L 187.621094 329.300781 C 187.621094 331.816406 189.679688 333.871094 192.191406 333.871094 C 194.707031 333.871094 196.761719 331.816406 196.761719 329.300781 L 196.761719 315.589844 C 196.761719 313.078125 194.707031 311.019531 192.191406 311.019531 Z M 192.191406 311.019531 " fill-opacity="1" fill-rule="nonzero"/></g><path fill="#ffde59" d="M 215.042969 278.800781 C 215.042969 276.285156 212.988281 274.230469 210.472656 274.230469 L 196.761719 274.230469 L 196.761719 269.886719 L 187.621094 269.886719 L 187.621094 278.800781 C 187.621094 281.3125 189.679688 283.371094 192.191406 283.371094 L 205.902344 283.371094 L 205.902344 290.453125 C 205.902344 292.96875 207.960938 295.023438 210.472656 295.023438 C 212.988281 295.023438 215.042969 292.96875 215.042969 290.453125 Z M 215.042969 278.800781 " fill-opacity="1" fill-rule="nonzero"/><path fill="#ffde59" d="M 224.183594 304.164062 L 219.613281 304.164062 C 217.101562 304.164062 215.042969 306.222656 215.042969 308.734375 L 215.042969 324.730469 C 215.042969 327.246094 217.101562 329.300781 219.613281 329.300781 C 222.128906 329.300781 224.183594 327.246094 224.183594 324.730469 L 224.183594 313.304688 L 228.753906 313.304688 C 231.269531 313.304688 233.324219 311.25 233.324219 308.734375 L 233.324219 269.886719 L 224.183594 269.886719 Z M 224.183594 304.164062 " fill-opacity="1" fill-rule="nonzero"/><path fill="#ffde59" d="M 256.175781 285.882812 L 251.605469 285.882812 L 251.605469 269.429688 C 250.234375 269.660156 248.636719 269.886719 247.035156 269.886719 L 242.464844 269.886719 L 242.464844 290.453125 C 242.464844 292.96875 244.523438 295.023438 247.035156 295.023438 L 256.175781 295.023438 C 258.691406 295.023438 260.746094 292.96875 260.746094 290.453125 C 260.746094 287.941406 258.691406 285.882812 256.175781 285.882812 Z M 256.175781 285.882812 " fill-opacity="1" fill-rule="nonzero"/><path fill="#ffde59" d="M 290.453125 242.464844 L 269.886719 242.464844 L 269.886719 247.035156 C 269.886719 248.636719 269.660156 250.234375 269.429688 251.605469 L 285.882812 251.605469 L 285.882812 256.175781 C 285.882812 258.691406 287.941406 260.746094 290.453125 260.746094 C 292.96875 260.746094 295.023438 258.691406 295.023438 256.175781 L 295.023438 247.035156 C 295.023438 244.523438 292.96875 242.464844 290.453125 242.464844 Z M 290.453125 242.464844 " fill-opacity="1" fill-rule="nonzero"/><path fill="#ffde59" d="M 324.730469 215.042969 L 308.734375 215.042969 C 306.222656 215.042969 304.164062 217.101562 304.164062 219.613281 L 304.164062 224.183594 L 269.886719 224.183594 L 269.886719 233.324219 L 308.734375 233.324219 C 311.25 233.324219 313.304688 231.269531 313.304688 228.753906 L 313.304688 224.183594 L 324.730469 224.183594 C 327.246094 224.183594 329.300781 222.128906 329.300781 219.613281 C 329.300781 217.101562 327.246094 215.042969 324.730469 215.042969 Z M 324.730469 215.042969 " fill-opacity="1" fill-rule="nonzero"/><path fill="#ffde59" d="M 278.800781 187.621094 L 269.886719 187.621094 L 269.886719 196.761719 L 274.230469 196.761719 L 274.230469 210.472656 C 274.230469 212.988281 276.285156 215.042969 278.800781 215.042969 L 290.453125 215.042969 C 292.96875 215.042969 295.023438 212.988281 295.023438 210.472656 C 295.023438 207.960938 292.96875 205.902344 290.453125 205.902344 L 283.371094 205.902344 L 283.371094 192.191406 C 283.371094 189.679688 281.3125 187.621094 278.800781 187.621094 Z M 278.800781 187.621094 " fill-opacity="1" fill-rule="nonzero"/><g clip-path="url(#id4)"><path fill="#ffde59" d="M 329.300781 187.621094 L 320.160156 187.621094 L 320.160156 173.910156 C 320.160156 171.398438 318.105469 169.339844 315.589844 169.339844 L 269.886719 169.339844 L 269.886719 178.480469 L 311.019531 178.480469 L 311.019531 192.191406 C 311.019531 194.707031 313.078125 196.761719 315.589844 196.761719 L 329.300781 196.761719 C 331.816406 196.761719 333.871094 194.707031 333.871094 192.191406 C 333.871094 189.679688 331.816406 187.621094 329.300781 187.621094 Z M 329.300781 187.621094 " fill-opacity="1" fill-rule="nonzero"/></g><path fill="#ffde59" d="M 285.882812 141.917969 C 283.371094 141.917969 281.3125 143.976562 281.3125 146.488281 L 281.3125 151.058594 L 269.886719 151.058594 L 269.886719 160.199219 L 285.882812 160.199219 C 288.398438 160.199219 290.453125 158.144531 290.453125 155.628906 L 290.453125 151.058594 L 301.878906 151.058594 C 304.394531 151.058594 306.449219 149.003906 306.449219 146.488281 C 306.449219 143.976562 304.394531 141.917969 301.878906 141.917969 Z M 285.882812 141.917969 " fill-opacity="1" fill-rule="nonzero"/><path fill="#ffde59" d="M 269.886719 132.777344 L 290.453125 132.777344 C 292.96875 132.777344 295.023438 130.722656 295.023438 128.207031 L 295.023438 123.636719 L 320.160156 123.636719 C 322.675781 123.636719 324.730469 121.582031 324.730469 119.066406 C 324.730469 116.554688 322.675781 114.496094 320.160156 114.496094 L 290.453125 114.496094 C 287.941406 114.496094 285.882812 116.554688 285.882812 119.066406 L 285.882812 123.636719 L 269.429688 123.636719 C 269.660156 125.007812 269.886719 126.609375 269.886719 128.207031 Z M 269.886719 132.777344 " fill-opacity="1" fill-rule="nonzero"/></svg>