<svg xmlns="http://www.w3.org/2000/svg" xmlns:xlink="http://www.w3.org/1999/xlink" width="500" zoomAndPan="magnify" viewBox="0 0 375 374.999991" height="500" preserveAspectRatio="xMidYMid meet" version="1.0"><defs><clipPath id="id1"><path d="M 53 74 L 317 74 L 317 337.316406 L 53 337.316406 Z M 53 74 " clip-rule="nonzero"/></clipPath><clipPath id="id2"><path d="M 80 232 L 290 232 L 290 337.316406 L 80 337.316406 Z M 80 232 " clip-rule="nonzero"/></clipPath><clipPath id="id3"><path d="M 185 205 L 317 205 L 317 337.316406 L 185 337.316406 Z M 185 205 " clip-rule="nonzero"/></clipPath><clipPath id="id4"><path d="M 201 37.316406 L 349 37.316406 L 349 269 L 201 269 Z M 201 37.316406 " clip-rule="nonzero"/></clipPath></defs><path fill="#1ea361" d="M 53.609375 310.347656 L 53.609375 96.820312 C 53.609375 96.085938 53.644531 95.351562 53.714844 94.617188 C 53.789062 93.886719 53.898438 93.15625 54.042969 92.433594 C 54.183594 91.714844 54.363281 91 54.578125 90.296875 C 54.792969 89.589844 55.039062 88.898438 55.320312 88.21875 C 55.601562 87.539062 55.917969 86.871094 56.265625 86.222656 C 56.613281 85.574219 56.988281 84.945312 57.398438 84.332031 C 57.808594 83.71875 58.246094 83.128906 58.714844 82.558594 C 59.179688 81.988281 59.675781 81.445312 60.195312 80.925781 C 60.714844 80.402344 61.257812 79.910156 61.828125 79.441406 C 62.398438 78.972656 62.988281 78.535156 63.601562 78.128906 C 64.210938 77.71875 64.84375 77.339844 65.492188 76.992188 C 66.140625 76.644531 66.804688 76.328125 67.488281 76.046875 C 68.167969 75.765625 68.859375 75.515625 69.5625 75.304688 C 70.269531 75.089844 70.980469 74.910156 71.703125 74.765625 C 72.425781 74.621094 73.152344 74.511719 73.886719 74.441406 C 74.617188 74.367188 75.351562 74.332031 76.089844 74.332031 L 289.605469 74.332031 Z M 53.609375 310.347656 " fill-opacity="1" fill-rule="evenodd"/><g clip-path="url(#id1)"><path fill="#fedb43" d="M 53.609375 314.816406 L 53.609375 310.335938 L 289.613281 74.347656 L 294.09375 74.347656 C 294.832031 74.347656 295.566406 74.386719 296.296875 74.457031 C 297.03125 74.53125 297.757812 74.640625 298.480469 74.78125 C 299.203125 74.925781 299.917969 75.105469 300.621094 75.320312 C 301.324219 75.53125 302.019531 75.78125 302.699219 76.0625 C 303.378906 76.34375 304.042969 76.660156 304.691406 77.007812 C 305.34375 77.351562 305.972656 77.730469 306.585938 78.140625 C 307.199219 78.550781 307.789062 78.988281 308.355469 79.453125 C 308.925781 79.921875 309.472656 80.414062 309.992188 80.9375 C 310.511719 81.457031 311.007812 82 311.472656 82.570312 C 311.941406 83.140625 312.378906 83.730469 312.789062 84.34375 C 313.199219 84.953125 313.578125 85.585938 313.925781 86.234375 C 314.273438 86.882812 314.585938 87.546875 314.867188 88.226562 C 315.152344 88.90625 315.398438 89.601562 315.613281 90.304688 C 315.828125 91.007812 316.007812 91.722656 316.152344 92.445312 C 316.292969 93.167969 316.402344 93.894531 316.476562 94.625 C 316.546875 95.359375 316.585938 96.09375 316.585938 96.832031 L 316.585938 101.332031 L 80.578125 337.316406 L 76.078125 337.316406 C 75.34375 337.316406 74.609375 337.28125 73.875 337.207031 C 73.144531 337.136719 72.414062 337.027344 71.695312 336.882812 C 70.972656 336.738281 70.257812 336.558594 69.554688 336.34375 C 68.847656 336.132812 68.15625 335.882812 67.476562 335.601562 C 66.796875 335.320312 66.132812 335.003906 65.484375 334.65625 C 64.832031 334.308594 64.203125 333.929688 63.589844 333.523438 C 62.980469 333.113281 62.386719 332.675781 61.820312 332.207031 C 61.25 331.738281 60.707031 331.246094 60.183594 330.722656 C 59.664062 330.203125 59.171875 329.660156 58.703125 329.089844 C 58.238281 328.519531 57.796875 327.929688 57.390625 327.316406 C 56.980469 326.707031 56.601562 326.074219 56.253906 325.425781 C 55.90625 324.777344 55.59375 324.109375 55.3125 323.429688 C 55.03125 322.75 54.78125 322.058594 54.566406 321.351562 C 54.355469 320.648438 54.175781 319.933594 54.03125 319.214844 C 53.886719 318.492188 53.78125 317.765625 53.707031 317.03125 C 53.636719 316.296875 53.597656 315.5625 53.597656 314.828125 " fill-opacity="1" fill-rule="evenodd"/></g><g clip-path="url(#id2)"><path fill="#5384c4" d="M 80.578125 337.316406 L 185.109375 232.804688 L 289.613281 337.316406 Z M 80.578125 337.316406 " fill-opacity="1" fill-rule="evenodd"/></g><g clip-path="url(#id3)"><path fill="#ffffff" d="M 289.613281 337.316406 L 185.09375 232.785156 L 212.054688 205.816406 L 316.585938 310.347656 L 316.585938 314.828125 C 316.585938 315.5625 316.550781 316.296875 316.476562 317.03125 C 316.402344 317.765625 316.296875 318.492188 316.152344 319.214844 C 316.007812 319.9375 315.828125 320.648438 315.613281 321.355469 C 315.402344 322.058594 315.152344 322.753906 314.871094 323.433594 C 314.589844 324.113281 314.273438 324.777344 313.925781 325.425781 C 313.578125 326.078125 313.203125 326.707031 312.792969 327.320312 C 312.382812 327.933594 311.945312 328.523438 311.476562 329.09375 C 311.011719 329.660156 310.515625 330.207031 309.996094 330.726562 C 309.476562 331.25 308.929688 331.742188 308.359375 332.210938 C 307.792969 332.675781 307.199219 333.117188 306.589844 333.523438 C 305.976562 333.933594 305.34375 334.3125 304.695312 334.660156 C 304.046875 335.007812 303.378906 335.320312 302.699219 335.601562 C 302.019531 335.886719 301.328125 336.132812 300.621094 336.347656 C 299.917969 336.5625 299.203125 336.742188 298.480469 336.882812 C 297.761719 337.027344 297.03125 337.136719 296.300781 337.207031 C 295.566406 337.28125 294.832031 337.316406 294.09375 337.316406 Z M 289.613281 337.316406 " fill-opacity="1" fill-rule="evenodd"/></g><path fill="#c2c2c1" d="M 316.585938 310.347656 L 212.054688 205.816406 L 316.585938 101.285156 Z M 316.585938 310.347656 " fill-opacity="1" fill-rule="evenodd"/><path fill="#efefef" d="M 100.511719 103.410156 C 113.890625 97.289062 130.632812 99.785156 141.5 109.804688 L 131.109375 120.117188 C 120.234375 109.335938 99.828125 114.445312 94.734375 128.714844 C 88.171875 142.757812 99.140625 161.21875 114.796875 161.414062 C 125.046875 162.605469 135.273438 155.742188 137.4375 145.535156 C 130.277344 145.542969 123.132812 145.476562 115.988281 145.589844 L 115.859375 132.34375 L 151.859375 132.832031 C 152.757812 141.578125 152.140625 150.859375 147.433594 158.519531 C 140.054688 172.242188 122.644531 178.242188 107.90625 174.773438 C 89.691406 170.996094 76.0625 152.3125 78.546875 133.804688 C 79.8125 120.753906 88.546875 108.820312 100.511719 103.410156 " fill-opacity="1" fill-rule="nonzero"/><g clip-path="url(#id4)"><path fill="#dc4b3e" d="M 270.648438 37.316406 L 279.199219 37.316406 C 300.507812 38.535156 321.339844 48.941406 334.25 66.070312 C 342.703125 76.890625 347.429688 90.316406 348.5 103.945312 L 348.5 109.007812 C 348 135.445312 331.089844 157.140625 316.4375 177.699219 C 299.992188 200.929688 284.804688 226.261719 280.585938 254.882812 C 279.460938 259.730469 280.8125 266.527344 275.015625 268.710938 C 273.65625 267.652344 272.0625 266.769531 271.109375 265.289062 C 269.390625 249.285156 265.484375 233.472656 258.5625 218.855469 C 250.8125 201.820312 240.03125 186.417969 229.0625 171.371094 C 222.386719 162.34375 216.09375 152.996094 210.890625 143.019531 C 202.71875 128.085938 199.671875 110.441406 203.015625 93.691406 C 205.753906 80.566406 212.671875 68.191406 222.265625 58.722656 C 235.171875 46.09375 252.640625 38.441406 270.648438 37.316406 M 268.988281 83.875 C 258.882812 86.125 250.398438 95.066406 249.546875 105.4375 C 249.441406 106.648438 249.429688 107.859375 249.507812 109.070312 C 249.585938 110.28125 249.75 111.480469 250.007812 112.667969 C 250.261719 113.855469 250.605469 115.015625 251.035156 116.152344 C 251.460938 117.289062 251.972656 118.386719 252.566406 119.445312 C 253.15625 120.507812 253.824219 121.515625 254.566406 122.476562 C 255.3125 123.4375 256.121094 124.339844 256.996094 125.179688 C 257.875 126.019531 258.808594 126.789062 259.800781 127.492188 C 260.792969 128.191406 261.828125 128.816406 262.914062 129.363281 C 264.101562 129.964844 265.324219 130.480469 266.589844 130.902344 C 267.851562 131.324219 269.140625 131.648438 270.449219 131.878906 C 271.761719 132.105469 273.082031 132.238281 274.414062 132.269531 C 275.746094 132.300781 277.074219 132.234375 278.394531 132.066406 C 279.714844 131.898438 281.015625 131.636719 282.296875 131.273438 C 283.578125 130.914062 284.828125 130.460938 286.042969 129.910156 C 287.253906 129.363281 288.421875 128.730469 289.539062 128.007812 C 290.660156 127.285156 291.71875 126.484375 292.71875 125.601562 C 293.625 124.777344 294.464844 123.886719 295.238281 122.933594 C 296.011719 121.976562 296.707031 120.972656 297.328125 119.914062 C 297.949219 118.851562 298.484375 117.753906 298.9375 116.613281 C 299.390625 115.472656 299.753906 114.300781 300.03125 113.105469 C 300.308594 111.910156 300.492188 110.699219 300.585938 109.476562 C 300.675781 108.25 300.675781 107.027344 300.582031 105.804688 C 300.488281 104.578125 300.304688 103.367188 300.027344 102.171875 C 299.75 100.976562 299.386719 99.808594 298.933594 98.667969 C 294.367188 87.25 280.839844 80.742188 268.988281 83.667969 " fill-opacity="1" fill-rule="nonzero"/></g><path fill="#802c27" d="M 268.988281 83.875 C 280.828125 80.847656 294.375 87.34375 298.933594 98.875 C 302.683594 107.996094 300.09375 119.273438 292.71875 125.808594 C 291.71875 126.6875 290.660156 127.492188 289.539062 128.210938 C 288.421875 128.933594 287.253906 129.570312 286.042969 130.117188 C 284.828125 130.664062 283.578125 131.121094 282.296875 131.480469 C 281.015625 131.84375 279.714844 132.105469 278.394531 132.273438 C 277.074219 132.441406 275.746094 132.507812 274.414062 132.476562 C 273.082031 132.445312 271.761719 132.3125 270.449219 132.085938 C 269.136719 131.855469 267.851562 131.53125 266.589844 131.109375 C 265.324219 130.6875 264.101562 130.171875 262.914062 129.566406 C 254.195312 125.253906 248.476562 115.382812 249.546875 105.644531 C 250.484375 95.179688 258.882812 86.238281 268.988281 84.082031 " fill-opacity="1" fill-rule="nonzero"/></svg>