<svg xmlns="http://www.w3.org/2000/svg" xmlns:xlink="http://www.w3.org/1999/xlink" width="500" zoomAndPan="magnify" viewBox="0 0 375 374.999991" height="500" preserveAspectRatio="xMidYMid meet" version="1.0"><defs><clipPath id="id1"><path d="M 62.988281 73.074219 L 311.988281 73.074219 L 311.988281 322.074219 L 62.988281 322.074219 Z M 62.988281 73.074219 " clip-rule="nonzero"/></clipPath><clipPath id="id2"><path d="M 311.988281 197.574219 C 311.988281 199.613281 311.9375 201.648438 311.839844 203.683594 C 311.738281 205.71875 311.589844 207.75 311.390625 209.777344 C 311.191406 211.804688 310.941406 213.828125 310.640625 215.84375 C 310.34375 217.859375 309.996094 219.863281 309.597656 221.863281 C 309.199219 223.863281 308.753906 225.847656 308.257812 227.824219 C 307.761719 229.800781 307.21875 231.765625 306.628906 233.714844 C 306.035156 235.664062 305.398438 237.597656 304.710938 239.515625 C 304.023438 241.4375 303.292969 243.335938 302.511719 245.21875 C 301.730469 247.101562 300.90625 248.964844 300.035156 250.804688 C 299.164062 252.648438 298.25 254.464844 297.289062 256.261719 C 296.328125 258.058594 295.324219 259.832031 294.277344 261.582031 C 293.230469 263.328125 292.140625 265.050781 291.007812 266.742188 C 289.875 268.4375 288.703125 270.101562 287.488281 271.738281 C 286.273438 273.375 285.019531 274.980469 283.730469 276.554688 C 282.4375 278.132812 281.105469 279.675781 279.738281 281.183594 C 278.367188 282.695312 276.964844 284.167969 275.523438 285.609375 C 274.082031 287.050781 272.609375 288.453125 271.097656 289.824219 C 269.589844 291.191406 268.046875 292.523438 266.472656 293.8125 C 264.894531 295.105469 263.289062 296.359375 261.652344 297.574219 C 260.015625 298.789062 258.351562 299.960938 256.65625 301.09375 C 254.964844 302.222656 253.242188 303.3125 251.496094 304.363281 C 249.746094 305.410156 247.976562 306.414062 246.179688 307.375 C 244.382812 308.335938 242.5625 309.25 240.71875 310.121094 C 238.878906 310.992188 237.015625 311.816406 235.132812 312.597656 C 233.25 313.378906 231.351562 314.109375 229.433594 314.796875 C 227.511719 315.484375 225.578125 316.121094 223.628906 316.714844 C 221.679688 317.304688 219.714844 317.847656 217.738281 318.34375 C 215.761719 318.839844 213.777344 319.285156 211.777344 319.683594 C 209.78125 320.078125 207.773438 320.429688 205.757812 320.726562 C 203.742188 321.027344 201.71875 321.273438 199.691406 321.476562 C 197.664062 321.675781 195.632812 321.824219 193.597656 321.925781 C 191.5625 322.023438 189.527344 322.074219 187.488281 322.074219 C 185.453125 322.074219 183.414062 322.023438 181.378906 321.925781 C 179.34375 321.824219 177.3125 321.675781 175.285156 321.476562 C 173.257812 321.273438 171.238281 321.027344 169.222656 320.726562 C 167.207031 320.429688 165.199219 320.078125 163.199219 319.683594 C 161.203125 319.285156 159.214844 318.839844 157.238281 318.34375 C 155.261719 317.847656 153.296875 317.304688 151.347656 316.714844 C 149.398438 316.121094 147.464844 315.484375 145.546875 314.796875 C 143.628906 314.109375 141.726562 313.378906 139.84375 312.597656 C 137.960938 311.816406 136.101562 310.992188 134.257812 310.121094 C 132.417969 309.25 130.597656 308.335938 128.800781 307.375 C 127.003906 306.414062 125.230469 305.410156 123.484375 304.363281 C 121.734375 303.3125 120.015625 302.222656 118.320312 301.09375 C 116.625 299.960938 114.960938 298.789062 113.324219 297.574219 C 111.6875 296.359375 110.082031 295.105469 108.507812 293.8125 C 106.933594 292.523438 105.390625 291.191406 103.878906 289.824219 C 102.371094 288.453125 100.894531 287.050781 99.453125 285.609375 C 98.011719 284.167969 96.609375 282.695312 95.242188 281.183594 C 93.871094 279.675781 92.542969 278.132812 91.25 276.554688 C 89.957031 274.980469 88.703125 273.375 87.488281 271.738281 C 86.277344 270.101562 85.101562 268.4375 83.972656 266.742188 C 82.839844 265.050781 81.75 263.328125 80.703125 261.582031 C 79.652344 259.832031 78.648438 258.058594 77.691406 256.261719 C 76.730469 254.464844 75.8125 252.648438 74.941406 250.804688 C 74.070312 248.964844 73.246094 247.101562 72.464844 245.21875 C 71.6875 243.335938 70.953125 241.4375 70.265625 239.515625 C 69.582031 237.597656 68.941406 235.664062 68.351562 233.714844 C 67.757812 231.765625 67.214844 229.800781 66.71875 227.824219 C 66.226562 225.847656 65.777344 223.863281 65.382812 221.863281 C 64.984375 219.863281 64.636719 217.859375 64.335938 215.84375 C 64.039062 213.828125 63.789062 211.804688 63.589844 209.777344 C 63.390625 207.75 63.238281 205.71875 63.140625 203.683594 C 63.039062 201.648438 62.988281 199.613281 62.988281 197.574219 C 62.988281 195.535156 63.039062 193.5 63.140625 191.464844 C 63.238281 189.429688 63.390625 187.398438 63.589844 185.371094 C 63.789062 183.34375 64.039062 181.320312 64.335938 179.304688 C 64.636719 177.292969 64.984375 175.285156 65.382812 173.285156 C 65.777344 171.289062 66.226562 169.300781 66.71875 167.324219 C 67.214844 165.347656 67.757812 163.382812 68.351562 161.433594 C 68.941406 159.484375 69.582031 157.550781 70.265625 155.632812 C 70.953125 153.714844 71.6875 151.8125 72.464844 149.929688 C 73.246094 148.046875 74.070312 146.1875 74.941406 144.34375 C 75.8125 142.503906 76.730469 140.683594 77.691406 138.886719 C 78.648438 137.089844 79.652344 135.316406 80.703125 133.570312 C 81.75 131.820312 82.839844 130.101562 83.972656 128.40625 C 85.101562 126.710938 86.277344 125.046875 87.488281 123.410156 C 88.703125 121.773438 89.957031 120.167969 91.25 118.59375 C 92.542969 117.019531 93.871094 115.476562 95.242188 113.964844 C 96.609375 112.457031 98.011719 110.980469 99.453125 109.539062 C 100.894531 108.097656 102.371094 106.695312 103.878906 105.328125 C 105.390625 103.957031 106.933594 102.628906 108.507812 101.335938 C 110.082031 100.042969 111.6875 98.789062 113.324219 97.574219 C 114.960938 96.363281 116.625 95.1875 118.320312 94.054688 C 120.015625 92.925781 121.734375 91.835938 123.484375 90.789062 C 125.230469 89.738281 127.003906 88.734375 128.800781 87.777344 C 130.597656 86.816406 132.417969 85.898438 134.257812 85.027344 C 136.101562 84.15625 137.960938 83.332031 139.84375 82.550781 C 141.726562 81.773438 143.628906 81.039062 145.546875 80.351562 C 147.464844 79.664062 149.398438 79.027344 151.347656 78.433594 C 153.296875 77.84375 155.261719 77.300781 157.238281 76.804688 C 159.214844 76.3125 161.203125 75.863281 163.199219 75.46875 C 165.199219 75.070312 167.207031 74.722656 169.222656 74.421875 C 171.238281 74.125 173.257812 73.875 175.285156 73.675781 C 177.3125 73.472656 179.34375 73.324219 181.378906 73.222656 C 183.414062 73.125 185.453125 73.074219 187.488281 73.074219 C 189.527344 73.074219 191.5625 73.125 193.597656 73.222656 C 195.632812 73.324219 197.664062 73.472656 199.691406 73.675781 C 201.71875 73.875 203.742188 74.125 205.757812 74.421875 C 207.773438 74.722656 209.78125 75.070312 211.777344 75.46875 C 213.777344 75.863281 215.761719 76.3125 217.738281 76.804688 C 219.714844 77.300781 221.679688 77.84375 223.628906 78.433594 C 225.578125 79.027344 227.511719 79.664062 229.433594 80.351562 C 231.351562 81.039062 233.25 81.773438 235.132812 82.550781 C 237.015625 83.332031 238.878906 84.15625 240.71875 85.027344 C 242.5625 85.898438 244.382812 86.816406 246.179688 87.777344 C 247.976562 88.734375 249.746094 89.738281 251.496094 90.789062 C 253.242188 91.835938 254.964844 92.925781 256.65625 94.054688 C 258.351562 95.1875 260.015625 96.363281 261.652344 97.574219 C 263.289062 98.789062 264.894531 100.042969 266.472656 101.335938 C 268.046875 102.628906 269.589844 103.957031 271.097656 105.328125 C 272.609375 106.695312 274.082031 108.097656 275.523438 109.539062 C 276.964844 110.980469 278.367188 112.457031 279.738281 113.964844 C 281.105469 115.476562 282.4375 117.019531 283.730469 118.59375 C 285.019531 120.167969 286.273438 121.773438 287.488281 123.410156 C 288.703125 125.046875 289.875 126.710938 291.007812 128.40625 C 292.140625 130.101562 293.230469 131.820312 294.277344 133.570312 C 295.324219 135.316406 296.328125 137.089844 297.289062 138.886719 C 298.25 140.683594 299.164062 142.503906 300.035156 144.34375 C 300.90625 146.1875 301.730469 148.046875 302.511719 149.929688 C 303.292969 151.8125 304.023438 153.714844 304.710938 155.632812 C 305.398438 157.550781 306.035156 159.484375 306.628906 161.433594 C 307.21875 163.382812 307.761719 165.347656 308.257812 167.324219 C 308.753906 169.300781 309.199219 171.289062 309.597656 173.285156 C 309.996094 175.285156 310.34375 177.292969 310.640625 179.308594 C 310.941406 181.320312 311.191406 183.34375 311.390625 185.371094 C 311.589844 187.398438 311.738281 189.429688 311.839844 191.464844 C 311.9375 193.5 311.988281 195.535156 311.988281 197.574219 Z M 311.988281 197.574219 " clip-rule="nonzero"/></clipPath><linearGradient x1="425" gradientTransform="matrix(0.292941, 0, 0, 0.292941, 62.989001, 73.074618)" y1="-0.0000458958" x2="425" gradientUnits="userSpaceOnUse" y2="849.999978" id="id3"><stop stop-opacity="1" stop-color="rgb(10.198975%, 65.899658%, 86.299133%)" offset="0"/><stop stop-opacity="1" stop-color="rgb(10.661316%, 65.557861%, 86.038208%)" offset="0.00390625"/><stop stop-opacity="1" stop-color="rgb(11.123657%, 65.21759%, 85.778809%)" offset="0.0078125"/><stop stop-opacity="1" stop-color="rgb(11.585999%, 64.875793%, 85.519409%)" offset="0.0117188"/><stop stop-opacity="1" stop-color="rgb(12.04834%, 64.533997%, 85.26001%)" offset="0.015625"/><stop stop-opacity="1" stop-color="rgb(12.510681%, 64.1922%, 84.999084%)" offset="0.0195312"/><stop stop-opacity="1" stop-color="rgb(12.973022%, 63.851929%, 84.739685%)" offset="0.0234375"/><stop stop-opacity="1" stop-color="rgb(13.435364%, 63.510132%, 84.480286%)" offset="0.0273438"/><stop stop-opacity="1" stop-color="rgb(13.897705%, 63.169861%, 84.220886%)" offset="0.03125"/><stop stop-opacity="1" stop-color="rgb(14.360046%, 62.828064%, 83.959961%)" offset="0.0351562"/><stop stop-opacity="1" stop-color="rgb(14.822388%, 62.487793%, 83.700562%)" offset="0.0390625"/><stop stop-opacity="1" stop-color="rgb(15.284729%, 62.145996%, 83.439636%)" offset="0.0429687"/><stop stop-opacity="1" stop-color="rgb(15.74707%, 61.804199%, 83.180237%)" offset="0.046875"/><stop stop-opacity="1" stop-color="rgb(16.209412%, 61.462402%, 82.920837%)" offset="0.0507812"/><stop stop-opacity="1" stop-color="rgb(16.671753%, 61.122131%, 82.661438%)" offset="0.0546875"/><stop stop-opacity="1" stop-color="rgb(17.134094%, 60.780334%, 82.400513%)" offset="0.0585938"/><stop stop-opacity="1" stop-color="rgb(17.596436%, 60.440063%, 82.141113%)" offset="0.0625"/><stop stop-opacity="1" stop-color="rgb(18.058777%, 60.098267%, 81.880188%)" offset="0.0664062"/><stop stop-opacity="1" stop-color="rgb(18.522644%, 59.757996%, 81.620789%)" offset="0.0703125"/><stop stop-opacity="1" stop-color="rgb(18.984985%, 59.416199%, 81.361389%)" offset="0.0742188"/><stop stop-opacity="1" stop-color="rgb(19.447327%, 59.075928%, 81.10199%)" offset="0.078125"/><stop stop-opacity="1" stop-color="rgb(19.909668%, 58.734131%, 80.841064%)" offset="0.0820312"/><stop stop-opacity="1" stop-color="rgb(20.372009%, 58.392334%, 80.581665%)" offset="0.0859375"/><stop stop-opacity="1" stop-color="rgb(20.834351%, 58.050537%, 80.32074%)" offset="0.0898437"/><stop stop-opacity="1" stop-color="rgb(21.296692%, 57.710266%, 80.06134%)" offset="0.09375"/><stop stop-opacity="1" stop-color="rgb(21.759033%, 57.368469%, 79.801941%)" offset="0.0976562"/><stop stop-opacity="1" stop-color="rgb(22.221375%, 57.028198%, 79.542542%)" offset="0.101562"/><stop stop-opacity="1" stop-color="rgb(22.683716%, 56.686401%, 79.281616%)" offset="0.105469"/><stop stop-opacity="1" stop-color="rgb(23.146057%, 56.34613%, 79.022217%)" offset="0.109375"/><stop stop-opacity="1" stop-color="rgb(23.608398%, 56.004333%, 78.762817%)" offset="0.113281"/><stop stop-opacity="1" stop-color="rgb(24.07074%, 55.662537%, 78.503418%)" offset="0.117188"/><stop stop-opacity="1" stop-color="rgb(24.533081%, 55.32074%, 78.242493%)" offset="0.121094"/><stop stop-opacity="1" stop-color="rgb(24.995422%, 54.980469%, 77.983093%)" offset="0.125"/><stop stop-opacity="1" stop-color="rgb(25.457764%, 54.638672%, 77.722168%)" offset="0.128906"/><stop stop-opacity="1" stop-color="rgb(25.920105%, 54.298401%, 77.462769%)" offset="0.132812"/><stop stop-opacity="1" stop-color="rgb(26.382446%, 53.956604%, 77.203369%)" offset="0.136719"/><stop stop-opacity="1" stop-color="rgb(26.844788%, 53.616333%, 76.94397%)" offset="0.140625"/><stop stop-opacity="1" stop-color="rgb(27.307129%, 53.274536%, 76.683044%)" offset="0.144531"/><stop stop-opacity="1" stop-color="rgb(27.76947%, 52.934265%, 76.423645%)" offset="0.148438"/><stop stop-opacity="1" stop-color="rgb(28.231812%, 52.592468%, 76.16272%)" offset="0.152344"/><stop stop-opacity="1" stop-color="rgb(28.694153%, 52.250671%, 75.90332%)" offset="0.15625"/><stop stop-opacity="1" stop-color="rgb(29.156494%, 51.908875%, 75.643921%)" offset="0.160156"/><stop stop-opacity="1" stop-color="rgb(29.618835%, 51.568604%, 75.384521%)" offset="0.164062"/><stop stop-opacity="1" stop-color="rgb(30.081177%, 51.226807%, 75.123596%)" offset="0.167969"/><stop stop-opacity="1" stop-color="rgb(30.543518%, 50.886536%, 74.864197%)" offset="0.171875"/><stop stop-opacity="1" stop-color="rgb(31.005859%, 50.544739%, 74.603271%)" offset="0.175781"/><stop stop-opacity="1" stop-color="rgb(31.468201%, 50.204468%, 74.343872%)" offset="0.179687"/><stop stop-opacity="1" stop-color="rgb(31.930542%, 49.862671%, 74.084473%)" offset="0.183594"/><stop stop-opacity="1" stop-color="rgb(32.392883%, 49.5224%, 73.825073%)" offset="0.1875"/><stop stop-opacity="1" stop-color="rgb(32.855225%, 49.180603%, 73.564148%)" offset="0.191406"/><stop stop-opacity="1" stop-color="rgb(33.317566%, 48.838806%, 73.304749%)" offset="0.195312"/><stop stop-opacity="1" stop-color="rgb(33.779907%, 48.497009%, 73.045349%)" offset="0.199219"/><stop stop-opacity="1" stop-color="rgb(34.242249%, 48.156738%, 72.78595%)" offset="0.203125"/><stop stop-opacity="1" stop-color="rgb(34.70459%, 47.814941%, 72.525024%)" offset="0.207031"/><stop stop-opacity="1" stop-color="rgb(35.166931%, 47.47467%, 72.265625%)" offset="0.210937"/><stop stop-opacity="1" stop-color="rgb(35.629272%, 47.132874%, 72.0047%)" offset="0.214844"/><stop stop-opacity="1" stop-color="rgb(36.091614%, 46.792603%, 71.7453%)" offset="0.21875"/><stop stop-opacity="1" stop-color="rgb(36.553955%, 46.450806%, 71.485901%)" offset="0.222656"/><stop stop-opacity="1" stop-color="rgb(37.016296%, 46.109009%, 71.226501%)" offset="0.226562"/><stop stop-opacity="1" stop-color="rgb(37.478638%, 45.767212%, 70.965576%)" offset="0.230469"/><stop stop-opacity="1" stop-color="rgb(37.940979%, 45.426941%, 70.706177%)" offset="0.234375"/><stop stop-opacity="1" stop-color="rgb(38.40332%, 45.085144%, 70.445251%)" offset="0.238281"/><stop stop-opacity="1" stop-color="rgb(38.865662%, 44.744873%, 70.185852%)" offset="0.242187"/><stop stop-opacity="1" stop-color="rgb(39.328003%, 44.403076%, 69.926453%)" offset="0.246094"/><stop stop-opacity="1" stop-color="rgb(39.790344%, 44.062805%, 69.667053%)" offset="0.25"/><stop stop-opacity="1" stop-color="rgb(40.252686%, 43.721008%, 69.406128%)" offset="0.253906"/><stop stop-opacity="1" stop-color="rgb(40.716553%, 43.380737%, 69.146729%)" offset="0.257812"/><stop stop-opacity="1" stop-color="rgb(41.178894%, 43.03894%, 68.885803%)" offset="0.261719"/><stop stop-opacity="1" stop-color="rgb(41.641235%, 42.697144%, 68.626404%)" offset="0.265625"/><stop stop-opacity="1" stop-color="rgb(42.103577%, 42.355347%, 68.367004%)" offset="0.269531"/><stop stop-opacity="1" stop-color="rgb(42.565918%, 42.015076%, 68.107605%)" offset="0.273438"/><stop stop-opacity="1" stop-color="rgb(43.028259%, 41.673279%, 67.84668%)" offset="0.277344"/><stop stop-opacity="1" stop-color="rgb(43.490601%, 41.333008%, 67.58728%)" offset="0.28125"/><stop stop-opacity="1" stop-color="rgb(43.952942%, 40.991211%, 67.327881%)" offset="0.285156"/><stop stop-opacity="1" stop-color="rgb(44.415283%, 40.65094%, 67.068481%)" offset="0.289062"/><stop stop-opacity="1" stop-color="rgb(44.877625%, 40.309143%, 66.807556%)" offset="0.292969"/><stop stop-opacity="1" stop-color="rgb(45.339966%, 39.968872%, 66.548157%)" offset="0.296875"/><stop stop-opacity="1" stop-color="rgb(45.802307%, 39.627075%, 66.287231%)" offset="0.300781"/><stop stop-opacity="1" stop-color="rgb(46.264648%, 39.285278%, 66.027832%)" offset="0.304687"/><stop stop-opacity="1" stop-color="rgb(46.72699%, 38.943481%, 65.768433%)" offset="0.308594"/><stop stop-opacity="1" stop-color="rgb(47.189331%, 38.60321%, 65.509033%)" offset="0.3125"/><stop stop-opacity="1" stop-color="rgb(47.651672%, 38.261414%, 65.248108%)" offset="0.316406"/><stop stop-opacity="1" stop-color="rgb(48.114014%, 37.921143%, 64.988708%)" offset="0.320312"/><stop stop-opacity="1" stop-color="rgb(48.576355%, 37.579346%, 64.727783%)" offset="0.324219"/><stop stop-opacity="1" stop-color="rgb(49.038696%, 37.239075%, 64.468384%)" offset="0.328125"/><stop stop-opacity="1" stop-color="rgb(49.501038%, 36.897278%, 64.208984%)" offset="0.332031"/><stop stop-opacity="1" stop-color="rgb(49.963379%, 36.555481%, 63.949585%)" offset="0.335938"/><stop stop-opacity="1" stop-color="rgb(50.42572%, 36.213684%, 63.68866%)" offset="0.339844"/><stop stop-opacity="1" stop-color="rgb(50.888062%, 35.873413%, 63.42926%)" offset="0.34375"/><stop stop-opacity="1" stop-color="rgb(51.350403%, 35.531616%, 63.168335%)" offset="0.347656"/><stop stop-opacity="1" stop-color="rgb(51.812744%, 35.191345%, 62.908936%)" offset="0.351562"/><stop stop-opacity="1" stop-color="rgb(52.275085%, 34.849548%, 62.649536%)" offset="0.355469"/><stop stop-opacity="1" stop-color="rgb(52.737427%, 34.509277%, 62.390137%)" offset="0.359375"/><stop stop-opacity="1" stop-color="rgb(53.199768%, 34.16748%, 62.129211%)" offset="0.363281"/><stop stop-opacity="1" stop-color="rgb(53.662109%, 33.827209%, 61.869812%)" offset="0.367187"/><stop stop-opacity="1" stop-color="rgb(54.124451%, 33.485413%, 61.610413%)" offset="0.371094"/><stop stop-opacity="1" stop-color="rgb(54.586792%, 33.143616%, 61.351013%)" offset="0.375"/><stop stop-opacity="1" stop-color="rgb(55.049133%, 32.801819%, 61.090088%)" offset="0.378906"/><stop stop-opacity="1" stop-color="rgb(55.511475%, 32.461548%, 60.830688%)" offset="0.382812"/><stop stop-opacity="1" stop-color="rgb(55.973816%, 32.119751%, 60.569763%)" offset="0.386719"/><stop stop-opacity="1" stop-color="rgb(56.436157%, 31.77948%, 60.310364%)" offset="0.390625"/><stop stop-opacity="1" stop-color="rgb(56.898499%, 31.437683%, 60.050964%)" offset="0.394531"/><stop stop-opacity="1" stop-color="rgb(57.36084%, 31.097412%, 59.791565%)" offset="0.398438"/><stop stop-opacity="1" stop-color="rgb(57.823181%, 30.755615%, 59.53064%)" offset="0.402344"/><stop stop-opacity="1" stop-color="rgb(58.285522%, 30.413818%, 59.27124%)" offset="0.40625"/><stop stop-opacity="1" stop-color="rgb(58.747864%, 30.072021%, 59.010315%)" offset="0.410156"/><stop stop-opacity="1" stop-color="rgb(59.210205%, 29.73175%, 58.750916%)" offset="0.414062"/><stop stop-opacity="1" stop-color="rgb(59.672546%, 29.389954%, 58.491516%)" offset="0.417969"/><stop stop-opacity="1" stop-color="rgb(60.134888%, 29.049683%, 58.232117%)" offset="0.421875"/><stop stop-opacity="1" stop-color="rgb(60.597229%, 28.707886%, 57.971191%)" offset="0.425781"/><stop stop-opacity="1" stop-color="rgb(61.05957%, 28.367615%, 57.711792%)" offset="0.429687"/><stop stop-opacity="1" stop-color="rgb(61.521912%, 28.025818%, 57.450867%)" offset="0.433594"/><stop stop-opacity="1" stop-color="rgb(61.984253%, 27.685547%, 57.191467%)" offset="0.4375"/><stop stop-opacity="1" stop-color="rgb(62.446594%, 27.34375%, 56.932068%)" offset="0.441406"/><stop stop-opacity="1" stop-color="rgb(62.908936%, 27.001953%, 56.672668%)" offset="0.445312"/><stop stop-opacity="1" stop-color="rgb(63.371277%, 26.660156%, 56.411743%)" offset="0.449219"/><stop stop-opacity="1" stop-color="rgb(63.835144%, 26.319885%, 56.152344%)" offset="0.453125"/><stop stop-opacity="1" stop-color="rgb(64.297485%, 25.978088%, 55.892944%)" offset="0.457031"/><stop stop-opacity="1" stop-color="rgb(64.759827%, 25.637817%, 55.633545%)" offset="0.460938"/><stop stop-opacity="1" stop-color="rgb(65.222168%, 25.296021%, 55.37262%)" offset="0.464844"/><stop stop-opacity="1" stop-color="rgb(65.684509%, 24.95575%, 55.11322%)" offset="0.46875"/><stop stop-opacity="1" stop-color="rgb(66.146851%, 24.613953%, 54.852295%)" offset="0.472656"/><stop stop-opacity="1" stop-color="rgb(66.609192%, 24.273682%, 54.592896%)" offset="0.476562"/><stop stop-opacity="1" stop-color="rgb(67.071533%, 23.931885%, 54.333496%)" offset="0.480469"/><stop stop-opacity="1" stop-color="rgb(67.533875%, 23.590088%, 54.074097%)" offset="0.484375"/><stop stop-opacity="1" stop-color="rgb(67.922974%, 23.376465%, 53.865051%)" offset="0.488281"/><stop stop-opacity="1" stop-color="rgb(68.313599%, 23.164368%, 53.657532%)" offset="0.492188"/><stop stop-opacity="1" stop-color="rgb(68.518066%, 23.28186%, 53.581238%)" offset="0.496094"/><stop stop-opacity="1" stop-color="rgb(68.722534%, 23.399353%, 53.50647%)" offset="0.5"/><stop stop-opacity="1" stop-color="rgb(68.927002%, 23.516846%, 53.431702%)" offset="0.503906"/><stop stop-opacity="1" stop-color="rgb(69.13147%, 23.634338%, 53.356934%)" offset="0.507812"/><stop stop-opacity="1" stop-color="rgb(69.335938%, 23.750305%, 53.282166%)" offset="0.511719"/><stop stop-opacity="1" stop-color="rgb(69.540405%, 23.867798%, 53.207397%)" offset="0.515625"/><stop stop-opacity="1" stop-color="rgb(69.744873%, 23.985291%, 53.131104%)" offset="0.519531"/><stop stop-opacity="1" stop-color="rgb(69.949341%, 24.102783%, 53.056335%)" offset="0.523438"/><stop stop-opacity="1" stop-color="rgb(70.153809%, 24.21875%, 52.981567%)" offset="0.527344"/><stop stop-opacity="1" stop-color="rgb(70.358276%, 24.336243%, 52.906799%)" offset="0.53125"/><stop stop-opacity="1" stop-color="rgb(70.562744%, 24.453735%, 52.830505%)" offset="0.535156"/><stop stop-opacity="1" stop-color="rgb(70.767212%, 24.571228%, 52.755737%)" offset="0.539063"/><stop stop-opacity="1" stop-color="rgb(70.97168%, 24.688721%, 52.680969%)" offset="0.542969"/><stop stop-opacity="1" stop-color="rgb(71.176147%, 24.806213%, 52.606201%)" offset="0.546875"/><stop stop-opacity="1" stop-color="rgb(71.380615%, 24.92218%, 52.531433%)" offset="0.550781"/><stop stop-opacity="1" stop-color="rgb(71.585083%, 25.039673%, 52.456665%)" offset="0.554688"/><stop stop-opacity="1" stop-color="rgb(71.789551%, 25.157166%, 52.380371%)" offset="0.558594"/><stop stop-opacity="1" stop-color="rgb(71.995544%, 25.274658%, 52.305603%)" offset="0.5625"/><stop stop-opacity="1" stop-color="rgb(72.200012%, 25.390625%, 52.230835%)" offset="0.566406"/><stop stop-opacity="1" stop-color="rgb(72.40448%, 25.508118%, 52.156067%)" offset="0.570312"/><stop stop-opacity="1" stop-color="rgb(72.608948%, 25.62561%, 52.081299%)" offset="0.574219"/><stop stop-opacity="1" stop-color="rgb(72.813416%, 25.743103%, 52.006531%)" offset="0.578125"/><stop stop-opacity="1" stop-color="rgb(73.017883%, 25.860596%, 51.930237%)" offset="0.582031"/><stop stop-opacity="1" stop-color="rgb(73.222351%, 25.978088%, 51.855469%)" offset="0.585938"/><stop stop-opacity="1" stop-color="rgb(73.426819%, 26.094055%, 51.780701%)" offset="0.589844"/><stop stop-opacity="1" stop-color="rgb(73.631287%, 26.211548%, 51.705933%)" offset="0.59375"/><stop stop-opacity="1" stop-color="rgb(73.835754%, 26.329041%, 51.629639%)" offset="0.597656"/><stop stop-opacity="1" stop-color="rgb(74.040222%, 26.446533%, 51.554871%)" offset="0.601562"/><stop stop-opacity="1" stop-color="rgb(74.24469%, 26.5625%, 51.480103%)" offset="0.605469"/><stop stop-opacity="1" stop-color="rgb(74.449158%, 26.679993%, 51.405334%)" offset="0.609375"/><stop stop-opacity="1" stop-color="rgb(74.653625%, 26.797485%, 51.330566%)" offset="0.613281"/><stop stop-opacity="1" stop-color="rgb(74.858093%, 26.914978%, 51.255798%)" offset="0.617188"/><stop stop-opacity="1" stop-color="rgb(75.062561%, 27.032471%, 51.179504%)" offset="0.621094"/><stop stop-opacity="1" stop-color="rgb(75.267029%, 27.149963%, 51.104736%)" offset="0.625"/><stop stop-opacity="1" stop-color="rgb(75.471497%, 27.26593%, 51.029968%)" offset="0.628906"/><stop stop-opacity="1" stop-color="rgb(75.675964%, 27.383423%, 50.9552%)" offset="0.632812"/><stop stop-opacity="1" stop-color="rgb(75.880432%, 27.500916%, 50.878906%)" offset="0.636719"/><stop stop-opacity="1" stop-color="rgb(76.0849%, 27.618408%, 50.804138%)" offset="0.640625"/><stop stop-opacity="1" stop-color="rgb(76.289368%, 27.734375%, 50.72937%)" offset="0.644531"/><stop stop-opacity="1" stop-color="rgb(76.493835%, 27.851868%, 50.654602%)" offset="0.648438"/><stop stop-opacity="1" stop-color="rgb(76.698303%, 27.96936%, 50.579834%)" offset="0.652344"/><stop stop-opacity="1" stop-color="rgb(76.902771%, 28.086853%, 50.505066%)" offset="0.65625"/><stop stop-opacity="1" stop-color="rgb(77.107239%, 28.204346%, 50.428772%)" offset="0.660156"/><stop stop-opacity="1" stop-color="rgb(77.311707%, 28.321838%, 50.354004%)" offset="0.664063"/><stop stop-opacity="1" stop-color="rgb(77.516174%, 28.437805%, 50.279236%)" offset="0.667969"/><stop stop-opacity="1" stop-color="rgb(77.720642%, 28.555298%, 50.204468%)" offset="0.671875"/><stop stop-opacity="1" stop-color="rgb(77.92511%, 28.672791%, 50.1297%)" offset="0.675781"/><stop stop-opacity="1" stop-color="rgb(78.129578%, 28.790283%, 50.054932%)" offset="0.679688"/><stop stop-opacity="1" stop-color="rgb(78.334045%, 28.90625%, 49.978638%)" offset="0.683594"/><stop stop-opacity="1" stop-color="rgb(78.538513%, 29.023743%, 49.90387%)" offset="0.6875"/><stop stop-opacity="1" stop-color="rgb(78.742981%, 29.141235%, 49.829102%)" offset="0.691406"/><stop stop-opacity="1" stop-color="rgb(78.947449%, 29.258728%, 49.754333%)" offset="0.695313"/><stop stop-opacity="1" stop-color="rgb(79.151917%, 29.376221%, 49.67804%)" offset="0.699219"/><stop stop-opacity="1" stop-color="rgb(79.356384%, 29.493713%, 49.603271%)" offset="0.703125"/><stop stop-opacity="1" stop-color="rgb(79.560852%, 29.60968%, 49.528503%)" offset="0.707031"/><stop stop-opacity="1" stop-color="rgb(79.76532%, 29.727173%, 49.453735%)" offset="0.710938"/><stop stop-opacity="1" stop-color="rgb(79.969788%, 29.844666%, 49.378967%)" offset="0.714844"/><stop stop-opacity="1" stop-color="rgb(80.174255%, 29.962158%, 49.304199%)" offset="0.71875"/><stop stop-opacity="1" stop-color="rgb(80.378723%, 30.078125%, 49.227905%)" offset="0.722656"/><stop stop-opacity="1" stop-color="rgb(80.584717%, 30.195618%, 49.153137%)" offset="0.726562"/><stop stop-opacity="1" stop-color="rgb(80.789185%, 30.31311%, 49.078369%)" offset="0.730469"/><stop stop-opacity="1" stop-color="rgb(80.993652%, 30.430603%, 49.003601%)" offset="0.734375"/><stop stop-opacity="1" stop-color="rgb(81.19812%, 30.548096%, 48.927307%)" offset="0.738281"/><stop stop-opacity="1" stop-color="rgb(81.402588%, 30.665588%, 48.852539%)" offset="0.742188"/><stop stop-opacity="1" stop-color="rgb(81.607056%, 30.781555%, 48.777771%)" offset="0.746094"/><stop stop-opacity="1" stop-color="rgb(81.811523%, 30.899048%, 48.703003%)" offset="0.75"/><stop stop-opacity="1" stop-color="rgb(82.015991%, 31.016541%, 48.628235%)" offset="0.753906"/><stop stop-opacity="1" stop-color="rgb(82.220459%, 31.134033%, 48.553467%)" offset="0.757813"/><stop stop-opacity="1" stop-color="rgb(82.424927%, 31.25%, 48.477173%)" offset="0.761719"/><stop stop-opacity="1" stop-color="rgb(82.629395%, 31.367493%, 48.402405%)" offset="0.765625"/><stop stop-opacity="1" stop-color="rgb(82.833862%, 31.484985%, 48.327637%)" offset="0.769531"/><stop stop-opacity="1" stop-color="rgb(83.03833%, 31.602478%, 48.252869%)" offset="0.773438"/><stop stop-opacity="1" stop-color="rgb(83.242798%, 31.719971%, 48.178101%)" offset="0.777344"/><stop stop-opacity="1" stop-color="rgb(83.447266%, 31.837463%, 48.103333%)" offset="0.78125"/><stop stop-opacity="1" stop-color="rgb(83.651733%, 31.95343%, 48.027039%)" offset="0.785156"/><stop stop-opacity="1" stop-color="rgb(83.856201%, 32.070923%, 47.952271%)" offset="0.789063"/><stop stop-opacity="1" stop-color="rgb(84.060669%, 32.188416%, 47.877502%)" offset="0.792969"/><stop stop-opacity="1" stop-color="rgb(84.265137%, 32.305908%, 47.802734%)" offset="0.796875"/><stop stop-opacity="1" stop-color="rgb(84.469604%, 32.421875%, 47.72644%)" offset="0.800781"/><stop stop-opacity="1" stop-color="rgb(84.674072%, 32.539368%, 47.651672%)" offset="0.804688"/><stop stop-opacity="1" stop-color="rgb(84.87854%, 32.65686%, 47.576904%)" offset="0.808594"/><stop stop-opacity="1" stop-color="rgb(85.083008%, 32.774353%, 47.502136%)" offset="0.8125"/><stop stop-opacity="1" stop-color="rgb(85.287476%, 32.891846%, 47.427368%)" offset="0.816406"/><stop stop-opacity="1" stop-color="rgb(85.491943%, 33.009338%, 47.3526%)" offset="0.820313"/><stop stop-opacity="1" stop-color="rgb(85.696411%, 33.125305%, 47.276306%)" offset="0.824219"/><stop stop-opacity="1" stop-color="rgb(85.900879%, 33.242798%, 47.201538%)" offset="0.828125"/><stop stop-opacity="1" stop-color="rgb(86.105347%, 33.360291%, 47.12677%)" offset="0.832031"/><stop stop-opacity="1" stop-color="rgb(86.309814%, 33.477783%, 47.052002%)" offset="0.835938"/><stop stop-opacity="1" stop-color="rgb(86.514282%, 33.59375%, 46.975708%)" offset="0.839844"/><stop stop-opacity="1" stop-color="rgb(86.71875%, 33.711243%, 46.90094%)" offset="0.84375"/><stop stop-opacity="1" stop-color="rgb(86.923218%, 33.828735%, 46.826172%)" offset="0.847656"/><stop stop-opacity="1" stop-color="rgb(87.127686%, 33.946228%, 46.751404%)" offset="0.851562"/><stop stop-opacity="1" stop-color="rgb(87.332153%, 34.063721%, 46.676636%)" offset="0.855469"/><stop stop-opacity="1" stop-color="rgb(87.536621%, 34.181213%, 46.601868%)" offset="0.859375"/><stop stop-opacity="1" stop-color="rgb(87.741089%, 34.29718%, 46.525574%)" offset="0.863281"/><stop stop-opacity="1" stop-color="rgb(87.945557%, 34.414673%, 46.450806%)" offset="0.867188"/><stop stop-opacity="1" stop-color="rgb(88.150024%, 34.532166%, 46.376038%)" offset="0.871094"/><stop stop-opacity="1" stop-color="rgb(88.354492%, 34.649658%, 46.30127%)" offset="0.875"/><stop stop-opacity="1" stop-color="rgb(88.55896%, 34.765625%, 46.226501%)" offset="0.878906"/><stop stop-opacity="1" stop-color="rgb(88.763428%, 34.883118%, 46.151733%)" offset="0.882813"/><stop stop-opacity="1" stop-color="rgb(88.967896%, 35.00061%, 46.075439%)" offset="0.886719"/><stop stop-opacity="1" stop-color="rgb(89.173889%, 35.118103%, 46.000671%)" offset="0.890625"/><stop stop-opacity="1" stop-color="rgb(89.378357%, 35.235596%, 45.925903%)" offset="0.894531"/><stop stop-opacity="1" stop-color="rgb(89.582825%, 35.353088%, 45.851135%)" offset="0.898438"/><stop stop-opacity="1" stop-color="rgb(89.787292%, 35.469055%, 45.774841%)" offset="0.902344"/><stop stop-opacity="1" stop-color="rgb(89.99176%, 35.586548%, 45.700073%)" offset="0.90625"/><stop stop-opacity="1" stop-color="rgb(90.196228%, 35.704041%, 45.625305%)" offset="0.910156"/><stop stop-opacity="1" stop-color="rgb(90.400696%, 35.821533%, 45.550537%)" offset="0.914062"/><stop stop-opacity="1" stop-color="rgb(90.605164%, 35.9375%, 45.475769%)" offset="0.917969"/><stop stop-opacity="1" stop-color="rgb(90.809631%, 36.054993%, 45.401001%)" offset="0.921875"/><stop stop-opacity="1" stop-color="rgb(91.014099%, 36.172485%, 45.324707%)" offset="0.925781"/><stop stop-opacity="1" stop-color="rgb(91.218567%, 36.289978%, 45.249939%)" offset="0.929688"/><stop stop-opacity="1" stop-color="rgb(91.423035%, 36.407471%, 45.175171%)" offset="0.933594"/><stop stop-opacity="1" stop-color="rgb(91.627502%, 36.524963%, 45.100403%)" offset="0.9375"/><stop stop-opacity="1" stop-color="rgb(91.83197%, 36.64093%, 45.024109%)" offset="0.941406"/><stop stop-opacity="1" stop-color="rgb(92.036438%, 36.758423%, 44.949341%)" offset="0.945312"/><stop stop-opacity="1" stop-color="rgb(92.240906%, 36.875916%, 44.874573%)" offset="0.949219"/><stop stop-opacity="1" stop-color="rgb(92.445374%, 36.993408%, 44.799805%)" offset="0.953125"/><stop stop-opacity="1" stop-color="rgb(92.649841%, 37.109375%, 44.725037%)" offset="0.957031"/><stop stop-opacity="1" stop-color="rgb(92.854309%, 37.226868%, 44.650269%)" offset="0.960938"/><stop stop-opacity="1" stop-color="rgb(93.058777%, 37.34436%, 44.573975%)" offset="0.964844"/><stop stop-opacity="1" stop-color="rgb(93.263245%, 37.461853%, 44.499207%)" offset="0.96875"/><stop stop-opacity="1" stop-color="rgb(93.467712%, 37.579346%, 44.424438%)" offset="0.972656"/><stop stop-opacity="1" stop-color="rgb(93.67218%, 37.696838%, 44.34967%)" offset="0.976563"/><stop stop-opacity="1" stop-color="rgb(93.876648%, 37.812805%, 44.274902%)" offset="0.980469"/><stop stop-opacity="1" stop-color="rgb(94.081116%, 37.930298%, 44.200134%)" offset="0.984375"/><stop stop-opacity="1" stop-color="rgb(94.285583%, 38.047791%, 44.12384%)" offset="0.988281"/><stop stop-opacity="1" stop-color="rgb(94.490051%, 38.165283%, 44.049072%)" offset="0.992188"/><stop stop-opacity="1" stop-color="rgb(94.694519%, 38.28125%, 43.974304%)" offset="0.996094"/><stop stop-opacity="1" stop-color="rgb(94.898987%, 38.398743%, 43.899536%)" offset="1"/></linearGradient></defs><g clip-path="url(#id1)"><g clip-path="url(#id2)"><path fill="url(#id3)" d="M 62.988281 73.074219 L 62.988281 322.074219 L 311.988281 322.074219 L 311.988281 73.074219 Z M 62.988281 73.074219 " fill-rule="nonzero"/></g></g><path fill="#ffffff" d="M 119.527344 228.039062 L 119.527344 141.328125 C 119.527344 139.863281 120.699219 138.988281 121.871094 138.988281 L 253.109375 138.988281 C 254.28125 138.988281 255.160156 140.15625 255.160156 141.328125 L 255.160156 228.039062 Z M 181.335938 215.738281 C 181.042969 215.738281 181.042969 215.738281 180.75 215.738281 C 176.941406 215.152344 173.429688 213.394531 170.5 211.34375 C 169.328125 210.757812 169.035156 209.585938 169.621094 208.414062 C 170.5 207.535156 171.671875 207.242188 172.550781 207.828125 C 175.476562 209.585938 178.40625 211.050781 181.628906 211.636719 C 182.800781 211.929688 183.386719 213.101562 183.386719 214.273438 C 183.09375 215.152344 182.214844 215.738281 181.335938 215.738281 Z M 193.640625 215.738281 C 192.761719 215.738281 191.882812 215.152344 191.589844 213.980469 C 191.296875 213.101562 192.175781 211.636719 193.347656 211.636719 C 196.277344 211.050781 199.5 209.585938 202.429688 207.828125 C 203.308594 207.242188 204.480469 207.242188 205.359375 208.414062 C 205.945312 209.292969 205.652344 210.757812 204.480469 211.34375 C 201.257812 213.394531 197.742188 214.859375 194.226562 215.738281 C 193.933594 215.738281 193.640625 215.738281 193.640625 215.738281 Z M 212.097656 203.140625 C 211.804688 203.140625 211.511719 202.847656 211.21875 202.554688 C 210.046875 201.96875 209.753906 200.796875 210.339844 199.625 C 212.390625 196.988281 213.5625 193.765625 214.148438 190.542969 C 214.441406 189.664062 215.613281 188.785156 216.78125 189.078125 C 217.953125 189.371094 218.539062 190.542969 218.246094 191.714844 C 217.660156 195.230469 216.195312 198.746094 214.148438 201.96875 C 213.5625 202.554688 212.976562 203.140625 212.097656 203.140625 Z M 162.882812 203.140625 C 162.003906 203.140625 161.417969 202.554688 160.832031 201.96875 C 158.78125 199.039062 157.316406 195.523438 156.730469 191.714844 C 156.4375 190.542969 157.023438 189.371094 158.195312 189.078125 C 159.367188 188.785156 160.539062 189.664062 160.832031 190.542969 C 161.417969 194.058594 162.589844 196.988281 164.640625 199.625 C 165.226562 200.503906 164.933594 201.96875 163.761719 202.554688 C 163.46875 202.847656 163.175781 203.140625 162.882812 203.140625 Z M 158.78125 180.875 C 158.78125 180.875 158.488281 180.875 158.195312 180.875 C 157.316406 180.585938 156.4375 179.414062 156.730469 178.242188 C 157.609375 174.433594 159.074219 170.917969 161.125 167.988281 C 161.710938 166.816406 163.175781 166.816406 164.054688 167.402344 C 164.933594 167.988281 165.226562 169.160156 164.640625 170.332031 C 162.882812 172.675781 161.710938 175.898438 160.832031 179.121094 C 160.539062 180.292969 159.660156 180.875 158.78125 180.875 Z M 216.195312 180.875 C 215.320312 180.875 214.441406 180 214.148438 179.121094 C 213.269531 175.898438 212.097656 172.96875 210.339844 170.039062 C 209.753906 169.160156 210.046875 167.695312 210.925781 167.109375 C 211.804688 166.523438 213.269531 166.816406 213.855469 167.695312 C 215.902344 170.917969 217.367188 174.433594 218.246094 178.242188 C 218.246094 179.121094 217.660156 180.585938 216.488281 180.585938 C 216.488281 180.875 216.195312 180.875 216.195312 180.875 Z M 203.308594 162.421875 C 203.015625 162.421875 202.722656 162.128906 202.429688 161.835938 C 199.5 160.078125 196.277344 158.90625 193.347656 158.320312 C 192.175781 158.027344 191.296875 156.855469 191.589844 155.683594 C 191.882812 154.511719 193.054688 153.632812 194.226562 153.925781 C 197.742188 154.804688 201.257812 155.976562 204.480469 158.320312 C 205.652344 158.90625 205.945312 160.078125 205.359375 161.25 C 204.773438 161.835938 204.1875 162.421875 203.308594 162.421875 Z M 171.671875 162.421875 C 170.792969 162.421875 170.207031 161.835938 169.621094 161.25 C 169.035156 160.371094 169.328125 158.90625 170.5 158.320312 C 173.429688 156.269531 176.941406 154.804688 180.75 154.21875 C 181.921875 153.925781 183.09375 154.511719 183.386719 155.683594 C 183.386719 156.855469 182.800781 158.027344 181.628906 158.320312 C 178.40625 158.90625 175.476562 160.078125 172.550781 162.128906 C 172.257812 162.128906 171.964844 162.421875 171.671875 162.421875 Z M 176.941406 194.351562 C 171.671875 194.351562 167.570312 190.25 167.570312 184.976562 C 167.570312 179.707031 171.671875 175.3125 176.941406 175.3125 C 178.992188 175.3125 180.75 176.191406 182.214844 177.070312 C 183.09375 177.65625 183.386719 179.121094 182.800781 180 C 181.921875 180.875 180.75 181.167969 179.871094 180.585938 C 178.992188 179.707031 177.820312 179.707031 176.941406 179.707031 C 174.015625 179.707031 171.671875 182.046875 171.671875 184.976562 C 171.671875 187.613281 174.015625 189.957031 176.941406 189.957031 C 179.871094 189.957031 180.457031 189.371094 180.75 186.734375 L 176.648438 186.734375 C 175.476562 186.734375 174.597656 185.5625 174.597656 184.390625 C 174.597656 183.21875 175.476562 182.339844 176.648438 182.339844 L 182.800781 182.339844 C 184.265625 182.339844 185.144531 183.21875 185.144531 184.390625 C 185.144531 188.492188 185.144531 194.351562 176.941406 194.351562 Z M 190.125 194.351562 C 188.953125 194.351562 187.78125 193.472656 187.78125 192.300781 L 187.78125 177.65625 C 187.78125 176.191406 188.953125 175.3125 190.125 175.3125 C 191.296875 175.3125 192.175781 176.191406 192.175781 177.65625 L 192.175781 192.300781 C 192.175781 193.472656 191.296875 194.351562 190.125 194.351562 Z M 205.359375 187.027344 L 201.257812 187.027344 L 201.257812 192.300781 C 201.257812 193.472656 200.085938 194.351562 199.207031 194.351562 C 198.035156 194.351562 196.863281 193.472656 196.863281 192.300781 L 196.863281 177.65625 C 196.863281 176.191406 198.035156 175.3125 199.207031 175.3125 L 205.359375 175.3125 C 206.53125 175.3125 207.410156 176.191406 207.410156 177.65625 C 207.410156 178.828125 206.53125 179.707031 205.359375 179.707031 L 201.257812 179.707031 L 201.257812 182.632812 L 205.359375 182.632812 C 206.53125 182.632812 207.410156 183.511719 207.410156 184.976562 C 207.410156 186.148438 206.53125 187.027344 205.359375 187.027344 Z M 243.441406 221.011719 L 225.570312 221.011719 C 224.105469 221.011719 223.226562 220.132812 223.226562 218.960938 C 223.226562 217.496094 224.105469 216.617188 225.570312 216.617188 L 241.097656 216.617188 L 241.097656 206.363281 C 241.097656 205.191406 242.269531 204.019531 243.441406 204.019531 C 244.613281 204.019531 245.492188 205.191406 245.492188 206.363281 L 245.492188 218.667969 C 245.492188 220.132812 244.613281 221.011719 243.441406 221.011719 Z M 149.40625 221.011719 L 131.539062 221.011719 C 130.367188 221.011719 129.488281 220.132812 129.488281 218.960938 L 129.488281 206.363281 C 129.488281 205.191406 130.367188 204.3125 131.539062 204.3125 C 132.710938 204.3125 133.878906 205.191406 133.878906 206.363281 L 133.878906 216.910156 L 149.40625 216.910156 C 150.871094 216.910156 151.75 217.789062 151.75 218.960938 C 151.75 220.132812 150.578125 221.011719 149.40625 221.011719 Z M 243.441406 170.917969 C 242.269531 170.917969 241.097656 170.039062 241.097656 168.867188 L 241.097656 153.046875 L 225.570312 153.046875 C 224.105469 153.046875 223.226562 152.167969 223.226562 150.996094 C 223.226562 149.824219 224.105469 148.652344 225.570312 148.652344 L 243.441406 148.652344 C 244.613281 148.652344 245.492188 149.824219 245.492188 150.996094 L 245.492188 168.867188 C 245.492188 170.039062 244.613281 170.917969 243.441406 170.917969 Z M 131.539062 170.917969 C 130.367188 170.917969 129.488281 170.039062 129.488281 168.867188 L 129.488281 150.996094 C 129.488281 149.824219 130.367188 148.652344 131.539062 148.652344 L 149.40625 148.652344 C 150.578125 148.652344 151.457031 149.824219 151.457031 150.996094 C 151.457031 152.167969 150.578125 153.046875 149.40625 153.046875 L 133.878906 153.046875 L 133.878906 168.867188 C 133.878906 170.039062 132.710938 170.917969 131.539062 170.917969 Z M 131.539062 170.917969 " fill-opacity="1" fill-rule="evenodd"/><path fill="#ffffff" d="M 251.351562 256.164062 L 123.628906 256.164062 C 117.476562 256.164062 112.496094 250.890625 112.496094 244.152344 L 112.496094 234.484375 C 112.496094 233.3125 113.375 232.140625 114.546875 232.140625 L 168.15625 232.140625 L 168.15625 239.464844 C 168.15625 243.273438 171.085938 246.496094 174.890625 246.496094 L 200.085938 246.496094 C 203.894531 246.496094 206.824219 243.273438 207.117188 239.464844 L 207.117188 232.140625 L 260.429688 232.140625 C 261.601562 232.140625 262.480469 233.3125 262.480469 234.484375 L 262.480469 244.152344 C 262.480469 250.890625 257.5 256.164062 251.351562 256.164062 Z M 139.152344 246.496094 L 126.265625 246.496094 C 125.09375 246.496094 123.921875 245.324219 123.921875 244.152344 C 123.921875 242.980469 125.09375 242.101562 126.265625 242.101562 L 138.859375 242.101562 C 140.03125 242.101562 141.203125 242.980469 141.203125 244.152344 C 141.203125 245.324219 140.03125 246.496094 139.152344 246.496094 Z M 172.550781 232.140625 L 202.722656 232.140625 L 202.722656 239.464844 C 202.722656 240.929688 201.550781 242.101562 200.085938 242.101562 L 175.183594 242.101562 C 173.722656 242.101562 172.550781 240.929688 172.550781 239.464844 Z M 172.550781 232.140625 " fill-opacity="1" fill-rule="evenodd"/></svg>