<svg xmlns="http://www.w3.org/2000/svg" xmlns:xlink="http://www.w3.org/1999/xlink" width="500" zoomAndPan="magnify" viewBox="0 0 375 374.999991" height="500" preserveAspectRatio="xMidYMid meet" version="1.0"><defs><clipPath id="id1"><path d="M 27.5625 62.96875 L 337.3125 62.96875 L 337.3125 331.46875 L 27.5625 331.46875 Z M 27.5625 62.96875 " clip-rule="nonzero"/></clipPath><clipPath id="id2"><path d="M 63 153.847656 L 302 153.847656 L 302 240.097656 L 63 240.097656 Z M 63 153.847656 " clip-rule="nonzero"/></clipPath></defs><g clip-path="url(#id1)"><path fill="#1d1e24" d="M 105.046875 331.46875 L 27.660156 197.21875 L 105.046875 62.96875 L 259.828125 62.96875 L 337.21875 197.21875 L 259.828125 331.46875 Z M 105.046875 331.46875 " fill-opacity="1" fill-rule="nonzero"/></g><g clip-path="url(#id2)"><path fill="#ffbd59" d="M 196.316406 179.949219 L 188.011719 179.949219 L 188.011719 199.105469 C 188.011719 204.019531 185.988281 207.949219 180.039062 207.949219 C 174.152344 208.011719 172.441406 203.96875 172.441406 198.851562 L 172.441406 179.964844 L 164.136719 179.964844 L 164.136719 200.933594 C 164.136719 207 166.289062 215.625 177.675781 215.714844 C 183.941406 215.777344 187.039062 212.746094 188.492188 210.027344 L 188.492188 214.636719 L 196.285156 214.636719 Z M 199.597656 214.613281 L 207.882812 214.613281 L 207.882812 195.480469 C 207.882812 190.617188 209.910156 186.703125 215.792969 186.636719 C 221.613281 186.636719 223.320312 190.617188 223.320312 195.796875 L 223.320312 214.613281 L 231.609375 214.613281 L 231.609375 193.710938 C 231.609375 187.585938 229.457031 178.933594 218.136719 178.867188 C 211.9375 178.804688 208.832031 181.835938 207.320312 184.554688 L 207.382812 179.945312 L 199.597656 179.945312 Z M 234.773438 175.269531 L 243.058594 175.269531 L 243.058594 167.875 L 234.773438 167.875 Z M 234.773438 214.613281 L 243.058594 214.613281 L 243.058594 179.945312 L 234.773438 179.945312 Z M 251.730469 214.617188 L 260.019531 214.617188 L 260.019531 186.324219 L 265.964844 186.324219 L 263.503906 179.945312 L 260.039062 179.945312 L 260.039062 167.875 L 251.734375 167.875 L 251.734375 179.949219 L 245.976562 179.949219 L 245.976562 186.328125 L 251.734375 186.328125 Z M 273.964844 226.742188 L 282.816406 226.742188 L 301.09375 179.949219 L 292.234375 179.949219 L 283.878906 202.996094 L 275.421875 179.949219 L 266.546875 179.949219 L 279.644531 213.296875 Z M 148.082031 188.101562 L 138.824219 153.828125 L 104.335938 163.019531 L 99.238281 171.964844 L 88.914062 171.894531 L 63.75 196.980469 L 88.960938 222.0625 L 99.300781 221.984375 L 104.40625 230.929688 L 138.820312 240.113281 L 148.046875 205.847656 L 142.835938 196.972656 Z M 126.480469 166.667969 L 111.363281 192.742188 L 81.125 192.742188 L 100.160156 173.40625 Z M 111.363281 201.261719 L 126.480469 227.335938 L 100.136719 220.578125 L 81.101562 201.269531 L 111.339844 201.269531 Z M 118.71875 197.027344 L 133.867188 170.910156 L 141.179688 196.984375 L 133.867188 223.046875 Z M 118.71875 197.027344 " fill-opacity="1" fill-rule="nonzero"/></g></svg>