<svg xmlns="http://www.w3.org/2000/svg" xmlns:xlink="http://www.w3.org/1999/xlink" width="500" zoomAndPan="magnify" viewBox="0 0 375 374.999991" height="500" preserveAspectRatio="xMidYMid meet" version="1.0"><defs><clipPath id="id1"><path d="M 84 187 L 159 187 L 159 217.691406 L 84 217.691406 Z M 84 187 " clip-rule="nonzero"/></clipPath><clipPath id="id2"><path d="M 149.933594 182.75 L 163 182.75 L 163 191.953125 L 149.933594 191.953125 Z M 149.933594 182.75 " clip-rule="nonzero"/></clipPath><clipPath id="id3"><path d="M 11.746094 157.003906 L 86 157.003906 L 86 217.691406 L 11.746094 217.691406 Z M 11.746094 157.003906 " clip-rule="nonzero"/></clipPath><clipPath id="id4"><path d="M 77.246094 182.75 L 90 182.75 L 90 191.953125 L 77.246094 191.953125 Z M 77.246094 182.75 " clip-rule="nonzero"/></clipPath><clipPath id="id5"><path d="M 157 187 L 232 187 L 232 217.691406 L 157 217.691406 Z M 157 187 " clip-rule="nonzero"/></clipPath><clipPath id="id6"><path d="M 222.625 182.75 L 236 182.75 L 236 191.953125 L 222.625 191.953125 Z M 222.625 182.75 " clip-rule="nonzero"/></clipPath><clipPath id="id7"><path d="M 229 187 L 304 187 L 304 217.691406 L 229 217.691406 Z M 229 187 " clip-rule="nonzero"/></clipPath><clipPath id="id8"><path d="M 295.308594 182.75 L 308 182.75 L 308 191.953125 L 295.308594 191.953125 Z M 295.308594 182.75 " clip-rule="nonzero"/></clipPath><clipPath id="id9"><path d="M 302.074219 157.003906 L 363.496094 157.003906 L 363.496094 217.691406 L 302.074219 217.691406 Z M 302.074219 157.003906 " clip-rule="nonzero"/></clipPath></defs><g clip-path="url(#id1)"><path stroke-linecap="round" transform="matrix(0.197501, 0, 0, -0.196341, 11.74617, 217.691998)" fill="none" stroke-linejoin="round" d="M 741.86542 154.529611 L 694.100726 154.529611 C 684.171999 154.529611 676.141992 146.49192 676.141992 136.564178 L 676.141992 18.903523 C 676.141992 8.975781 668.092207 0.93809 658.203036 0.93809 L 386.962863 0.93809 C 377.034135 0.93809 368.98435 8.975781 368.98435 18.903523 L 368.98435 101.090903 " stroke="#9d9d9e" stroke-width="1.875" stroke-opacity="1" stroke-miterlimit="10"/></g><path stroke-linecap="round" transform="matrix(0.197501, 0, 0, -0.196341, 11.74617, 217.691998)" fill="none" stroke-linejoin="round" d="M 368.984377 207.968319 L 368.984377 290.155699 C 368.984377 300.083441 377.034163 308.121132 386.962891 308.121132 L 658.203084 308.121132 C 668.092256 308.121132 676.142041 300.083441 676.142041 290.155699 L 676.142041 175.340069 " stroke="#9d9d9e" stroke-width="1.875" stroke-opacity="1" stroke-miterlimit="10"/><g clip-path="url(#id2)"><path fill="#88e647" d="M 154.101562 179.070312 L 149.933594 179.070312 L 158.265625 187.351562 L 149.933594 195.632812 L 154.101562 195.632812 L 162.433594 187.351562 L 154.101562 179.070312 " fill-opacity="1" fill-rule="nonzero"/></g><path fill="#88e647" d="M 141.496094 159.371094 L 88.417969 159.371094 C 87.53125 159.371094 86.8125 160.085938 86.8125 160.96875 L 86.8125 178.863281 L 89.773438 181.804688 L 89.773438 162.316406 L 140.136719 162.316406 L 140.136719 212.386719 L 89.773438 212.386719 L 89.773438 192.898438 L 86.8125 195.839844 L 86.8125 213.734375 C 86.8125 214.617188 87.53125 215.328125 88.417969 215.328125 L 141.496094 215.328125 C 142.375 215.328125 143.101562 214.617188 143.101562 213.734375 L 143.101562 160.96875 C 143.101562 160.085938 142.375 159.371094 141.496094 159.371094 " fill-opacity="1" fill-rule="nonzero"/><g clip-path="url(#id3)"><path stroke-linecap="round" transform="matrix(0.197501, 0, 0, -0.196341, 11.74617, 217.691998)" fill="none" stroke-linejoin="round" d="M 373.830044 154.529611 L 326.085128 154.529611 C 316.176179 154.529611 308.126394 146.49192 308.126394 136.564178 L 308.126394 18.903523 C 308.126394 8.975781 300.076609 0.93809 290.147881 0.93809 L 18.907708 0.93809 C 8.97898 0.93809 0.929195 8.975781 0.929195 18.903523 L 0.929195 290.155699 C 0.929195 300.083441 8.97898 308.121132 18.907708 308.121132 L 290.147881 308.121132 C 300.076609 308.121132 308.126394 300.083441 308.126394 290.155699 L 308.126394 175.340069 " stroke="#9d9d9e" stroke-width="1.875" stroke-opacity="1" stroke-miterlimit="10"/></g><path fill="#ffdd00" d="M 67.449219 212.386719 L 17.085938 212.386719 L 17.085938 162.316406 L 67.449219 162.316406 Z M 68.804688 159.371094 L 15.726562 159.371094 C 14.839844 159.371094 14.121094 160.085938 14.121094 160.96875 L 14.121094 213.734375 C 14.121094 214.617188 14.839844 215.328125 15.726562 215.328125 L 68.804688 215.328125 C 69.691406 215.328125 70.410156 214.617188 70.410156 213.734375 L 70.410156 160.96875 C 70.410156 160.085938 69.691406 159.371094 68.804688 159.371094 " fill-opacity="1" fill-rule="nonzero"/><g clip-path="url(#id4)"><path fill="#ffdd00" d="M 81.417969 179.070312 L 77.246094 179.070312 L 85.578125 187.351562 L 77.246094 195.632812 L 81.417969 195.632812 L 89.742188 187.351562 L 81.417969 179.070312 " fill-opacity="1" fill-rule="nonzero"/></g><g clip-path="url(#id5)"><path stroke-linecap="round" transform="matrix(0.197501, 0, 0, -0.196341, 11.74617, 217.691998)" fill="none" stroke-linejoin="round" d="M 1109.881019 154.529611 L 1062.155881 154.529611 C 1052.227154 154.529611 1044.177369 146.49192 1044.177369 136.564178 L 1044.177369 18.903523 C 1044.177369 8.975781 1036.127584 0.93809 1026.218635 0.93809 L 754.958682 0.93809 C 745.029955 0.93809 736.999948 8.975781 736.999948 18.903523 L 736.999948 101.090903 " stroke="#9d9d9e" stroke-width="1.875" stroke-opacity="1" stroke-miterlimit="10"/></g><path stroke-linecap="round" transform="matrix(0.197501, 0, 0, -0.196341, 11.74617, 217.691998)" fill="none" stroke-linejoin="round" d="M 737.000002 207.968319 L 737.000002 290.155699 C 737.000002 300.083441 745.030009 308.121132 754.958737 308.121132 L 1026.218709 308.121132 C 1036.127659 308.121132 1044.177445 300.083441 1044.177445 290.155699 L 1044.177445 175.340069 " stroke="#9d9d9e" stroke-width="1.875" stroke-opacity="1" stroke-miterlimit="10"/><g clip-path="url(#id6)"><path fill="#3ad682" d="M 226.792969 179.070312 L 222.625 179.070312 L 230.949219 187.351562 L 222.625 195.632812 L 226.792969 195.632812 L 235.125 187.351562 L 226.792969 179.070312 " fill-opacity="1" fill-rule="nonzero"/></g><path fill="#3ad682" d="M 214.175781 159.371094 L 161.097656 159.371094 C 160.210938 159.371094 159.496094 160.085938 159.496094 160.96875 L 159.496094 178.863281 L 162.457031 181.804688 L 162.457031 162.316406 L 212.820312 162.316406 L 212.820312 212.386719 L 162.457031 212.386719 L 162.457031 192.898438 L 159.496094 195.839844 L 159.496094 213.734375 C 159.496094 214.617188 160.210938 215.328125 161.097656 215.328125 L 214.175781 215.328125 C 215.066406 215.328125 215.78125 214.617188 215.78125 213.734375 L 215.78125 160.96875 C 215.78125 160.085938 215.066406 159.371094 214.175781 159.371094 " fill-opacity="1" fill-rule="nonzero"/><g clip-path="url(#id7)"><path stroke-linecap="round" transform="matrix(0.197501, 0, 0, -0.196341, 11.74617, 217.691998)" fill="none" stroke-linejoin="round" d="M 1477.936174 154.529611 L 1430.191257 154.529611 C 1420.242752 154.529611 1412.232524 146.49192 1412.232524 136.564178 L 1412.232524 18.903523 C 1412.232524 8.975781 1404.143182 0.93809 1394.254011 0.93809 L 1123.013837 0.93809 C 1113.08511 0.93809 1105.035325 8.975781 1105.035325 18.903523 L 1105.035325 101.090903 " stroke="#9d9d9e" stroke-width="1.875" stroke-opacity="1" stroke-miterlimit="10"/></g><path stroke-linecap="round" transform="matrix(0.197501, 0, 0, -0.196341, 11.74617, 217.691998)" fill="none" stroke-linejoin="round" d="M 1105.035406 207.968319 L 1105.035406 290.155699 C 1105.035406 300.083441 1113.085191 308.121132 1123.013919 308.121132 L 1394.254113 308.121132 C 1404.143284 308.121132 1412.232626 300.083441 1412.232626 290.155699 L 1412.232626 175.340069 " stroke="#9d9d9e" stroke-width="1.875" stroke-opacity="1" stroke-miterlimit="10"/><g clip-path="url(#id8)"><path fill="#2dc5e0" d="M 299.472656 179.070312 L 295.308594 179.070312 L 303.640625 187.351562 L 295.308594 195.632812 L 299.472656 195.632812 L 307.804688 187.351562 L 299.472656 179.070312 " fill-opacity="1" fill-rule="nonzero"/></g><path fill="#2dc5e0" d="M 286.867188 159.371094 L 233.789062 159.371094 C 232.902344 159.371094 232.175781 160.085938 232.175781 160.96875 L 232.175781 178.863281 L 235.140625 181.804688 L 235.140625 162.316406 L 285.5 162.316406 L 285.5 212.386719 L 235.140625 212.386719 L 235.140625 192.898438 L 232.175781 195.839844 L 232.175781 213.734375 C 232.175781 214.617188 232.902344 215.328125 233.789062 215.328125 L 286.867188 215.328125 C 287.746094 215.328125 288.464844 214.617188 288.464844 213.734375 L 288.464844 160.96875 C 288.464844 160.085938 287.746094 159.371094 286.867188 159.371094 " fill-opacity="1" fill-rule="nonzero"/><g clip-path="url(#id9)"><path stroke-linecap="round" transform="matrix(0.197501, 0, 0, -0.196341, 11.74617, 217.691998)" fill="none" stroke-linejoin="round" d="M 1473.050923 207.968319 L 1473.050923 290.155699 C 1473.050923 300.083441 1481.100708 308.121132 1491.009657 308.121132 L 1762.269609 308.121132 C 1772.178558 308.121132 1780.228343 300.083441 1780.228343 290.155699 L 1780.228343 18.903523 C 1780.228343 8.975781 1772.178558 0.93809 1762.269609 0.93809 L 1491.009657 0.93809 C 1481.100708 0.93809 1473.050923 8.975781 1473.050923 18.903523 L 1473.050923 101.090903 " stroke="#9d9d9e" stroke-width="1.875" stroke-opacity="1" stroke-miterlimit="10"/></g><path fill="#319ae0" d="M 359.550781 159.371094 L 306.472656 159.371094 C 305.582031 159.371094 304.867188 160.085938 304.867188 160.96875 L 304.867188 178.863281 L 307.828125 181.804688 L 307.828125 162.316406 L 358.191406 162.316406 L 358.191406 212.386719 L 307.828125 212.386719 L 307.828125 192.898438 L 304.867188 195.839844 L 304.867188 213.734375 C 304.867188 214.617188 305.582031 215.328125 306.472656 215.328125 L 359.550781 215.328125 C 360.4375 215.328125 361.152344 214.617188 361.152344 213.734375 L 361.152344 160.96875 C 361.152344 160.085938 360.4375 159.371094 359.550781 159.371094 " fill-opacity="1" fill-rule="nonzero"/></svg>