<svg xmlns="http://www.w3.org/2000/svg" xmlns:xlink="http://www.w3.org/1999/xlink" width="500" zoomAndPan="magnify" viewBox="0 0 375 374.999991" height="500" preserveAspectRatio="xMidYMid meet" version="1.0"><path fill="#ffcc34" d="M 60.152344 94.398438 C 57.90625 98.382812 55.957031 102.507812 54.300781 106.773438 C 52.644531 111.035156 51.300781 115.394531 50.265625 119.851562 C 49.230469 124.308594 48.519531 128.8125 48.125 133.371094 C 47.734375 137.929688 47.667969 142.492188 47.925781 147.058594 C 48.101562 150.613281 48.4375 154.15625 48.945312 157.679688 C 49.453125 161.203125 50.121094 164.695312 50.957031 168.15625 C 51.792969 171.621094 52.785156 175.035156 53.945312 178.402344 C 55.101562 181.769531 56.410156 185.074219 57.878906 188.320312 C 59.347656 191.5625 60.964844 194.730469 62.730469 197.824219 C 64.496094 200.917969 66.402344 203.917969 68.453125 206.832031 C 70.5 209.742188 72.679688 212.554688 74.992188 215.261719 C 77.308594 217.96875 79.742188 220.558594 82.300781 223.039062 C 83.222656 223.699219 84.25 223.960938 85.378906 223.828125 C 93.566406 222.097656 101.394531 219.355469 108.871094 215.597656 C 116.347656 211.839844 123.21875 207.191406 129.488281 201.652344 C 94.890625 167.097656 65.707031 124.699219 60.152344 94.398438 Z M 60.152344 94.398438 " fill-opacity="1" fill-rule="nonzero"/><path fill="#ffcc34" d="M 139.695312 193.769531 C 149.402344 185.726562 158.929688 177.019531 168.414062 167.832031 C 172.75 163.183594 177.203125 158.773438 181.359375 154.023438 C 181.542969 153.769531 181.894531 153.558594 182.261719 153.148438 C 186.601562 148.300781 190.445312 143.722656 194.347656 139.128906 C 194 138.699219 193.632812 138.289062 193.246094 137.898438 C 153.980469 98.664062 109.535156 70.992188 85.691406 70.992188 C 83.757812 70.863281 81.871094 71.089844 80.023438 71.671875 C 78.175781 72.257812 76.5 73.15625 74.992188 74.371094 C 62.273438 87.457031 85.113281 139.226562 138.476562 192.652344 C 138.832031 193.046875 139.285156 193.414062 139.695312 193.769531 Z M 139.695312 193.769531 " fill-opacity="1" fill-rule="nonzero"/><path fill="#ffcc34" d="M 223.914062 81.707031 C 221.273438 79.019531 218.511719 76.464844 215.625 74.046875 C 212.734375 71.628906 209.738281 69.359375 206.628906 67.234375 C 203.515625 65.109375 200.3125 63.140625 197.007812 61.332031 C 193.707031 59.519531 190.324219 57.875 186.859375 56.394531 C 183.398438 54.914062 179.871094 53.605469 176.277344 52.472656 C 172.6875 51.335938 169.050781 50.378906 165.363281 49.597656 C 161.679688 48.820312 157.964844 48.222656 154.222656 47.804688 C 150.480469 47.390625 146.722656 47.15625 142.957031 47.109375 C 134.5625 47.066406 126.292969 48.082031 118.152344 50.148438 C 110.015625 52.214844 102.265625 55.273438 94.90625 59.320312 C 123.355469 64.421875 163.960938 90.328125 202.132812 128.753906 C 221.667969 102.507812 227.136719 84.644531 223.914062 81.707031 Z M 223.914062 81.707031 " fill-opacity="1" fill-rule="nonzero"/><path fill="#ffcc34" d="M 265.113281 225.921875 C 263.472656 227.945312 261.734375 229.882812 259.894531 231.730469 C 255.742188 236.632812 251.121094 241.242188 246.625 246.03125 C 238.34375 254.347656 229.65625 262.214844 220.5625 269.632812 C 248.09375 290.550781 273.675781 302.902344 289.730469 302.902344 C 291.605469 303.035156 293.433594 302.8125 295.222656 302.230469 C 297.007812 301.652344 298.621094 300.761719 300.0625 299.554688 C 308.640625 290.875 300.925781 260.5625 270.453125 220.054688 C 268.6875 221.894531 267.003906 223.742188 265.113281 225.921875 Z M 265.113281 225.921875 " fill-opacity="1" fill-rule="nonzero"/><path fill="#ffcc34" d="M 304.824219 164.511719 C 302.214844 171.835938 298.945312 178.855469 295.015625 185.570312 C 290.101562 193.933594 284.625 201.910156 278.582031 209.496094 C 287.125 219.703125 294.492188 230.699219 300.6875 242.480469 C 306.882812 254.261719 311.761719 266.5625 315.328125 279.386719 C 317.539062 275.398438 319.460938 271.273438 321.097656 267.015625 C 322.734375 262.757812 324.070312 258.410156 325.101562 253.964844 C 326.132812 249.523438 326.851562 245.03125 327.257812 240.488281 C 327.664062 235.945312 327.75 231.394531 327.523438 226.839844 C 327.214844 221.230469 326.496094 215.671875 325.367188 210.167969 C 324.238281 204.664062 322.714844 199.273438 320.792969 193.992188 C 318.871094 188.714844 316.570312 183.605469 313.894531 178.664062 C 311.21875 173.722656 308.195312 169.007812 304.824219 164.511719 Z M 304.824219 164.511719 " fill-opacity="1" fill-rule="nonzero"/><path fill="#ffcc34" d="M 164.90625 303.765625 C 169.402344 307.199219 174.128906 310.273438 179.085938 312.996094 C 184.042969 315.71875 189.171875 318.058594 194.480469 320.007812 C 199.789062 321.960938 205.210938 323.507812 210.75 324.644531 C 216.289062 325.785156 221.882812 326.503906 227.53125 326.804688 C 232.085938 327.042969 236.636719 326.960938 241.183594 326.5625 C 245.726562 326.160156 250.222656 325.445312 254.664062 324.414062 C 259.109375 323.382812 263.460938 322.046875 267.714844 320.402344 C 271.972656 318.757812 276.09375 316.828125 280.078125 314.605469 C 267.257812 311.054688 254.957031 306.179688 243.183594 299.984375 C 231.40625 293.789062 220.421875 286.414062 210.230469 277.859375 C 203.496094 283.472656 196.324219 288.457031 188.710938 292.808594 C 181.097656 297.160156 173.164062 300.8125 164.90625 303.765625 Z M 164.90625 303.765625 " fill-opacity="1" fill-rule="nonzero"/><path fill="#ffcc34" d="M 221.695312 251.898438 C 221.855469 251.808594 222 251.699219 222.132812 251.570312 C 227.488281 246.738281 232.605469 242.003906 237.578125 237.042969 C 242.527344 231.800781 247.472656 226.742188 252.109375 221.625 C 252.515625 221.171875 252.898438 220.703125 253.253906 220.210938 C 257.339844 215.589844 261.378906 211.066406 264.925781 206.203125 C 272.078125 197.765625 278.449219 188.777344 284.050781 179.238281 C 295.257812 159.777344 294.183594 152.003906 293.125 150.972656 C 292.199219 150.339844 291.175781 150.0625 290.054688 150.136719 C 276.472656 150.136719 243.839844 169.332031 207.039062 206.148438 C 161.078125 251.898438 146.464844 286.960938 151.496094 292.277344 L 151.550781 292.277344 C 152.460938 292.921875 153.46875 293.179688 154.574219 293.054688 C 164.058594 293.054688 183.4375 283.34375 207.011719 264.390625 C 211.828125 260.5625 216.632812 256.347656 221.695312 251.898438 Z M 221.695312 251.898438 " fill-opacity="1" fill-rule="nonzero"/><path fill="#ffcc34" d="M 287.34375 87.445312 C 287.0625 87.121094 286.75 86.828125 286.40625 86.570312 C 286.0625 86.3125 285.695312 86.09375 285.308594 85.917969 C 284.917969 85.738281 284.511719 85.605469 284.09375 85.511719 C 283.671875 85.421875 283.25 85.375 282.820312 85.375 C 282.390625 85.375 281.96875 85.421875 281.546875 85.511719 C 281.128906 85.605469 280.722656 85.738281 280.332031 85.917969 C 279.945312 86.09375 279.578125 86.3125 279.234375 86.570312 C 278.890625 86.828125 278.578125 87.121094 278.296875 87.445312 L 88.050781 277.734375 C 87.761719 278.015625 87.5 278.328125 87.273438 278.664062 C 87.046875 279 86.851562 279.355469 86.695312 279.730469 C 86.539062 280.105469 86.417969 280.492188 86.339844 280.890625 C 86.257812 281.289062 86.21875 281.691406 86.21875 282.101562 C 86.21875 282.507812 86.257812 282.910156 86.339844 283.308594 C 86.417969 283.707031 86.539062 284.09375 86.695312 284.46875 C 86.851562 284.84375 87.046875 285.199219 87.273438 285.535156 C 87.5 285.871094 87.761719 286.183594 88.050781 286.46875 C 88.59375 287.113281 89.246094 287.617188 90.007812 287.980469 C 90.769531 288.339844 91.574219 288.523438 92.417969 288.53125 C 93.308594 288.527344 94.160156 288.347656 94.972656 287.988281 C 95.789062 287.628906 96.496094 287.121094 97.097656 286.46875 L 287.34375 96.179688 C 287.632812 95.894531 287.890625 95.582031 288.121094 95.246094 C 288.347656 94.910156 288.542969 94.554688 288.699219 94.179688 C 288.855469 93.804688 288.976562 93.417969 289.054688 93.019531 C 289.136719 92.621094 289.175781 92.21875 289.175781 91.8125 C 289.175781 91.40625 289.136719 91 289.054688 90.601562 C 288.976562 90.203125 288.855469 89.816406 288.699219 89.441406 C 288.542969 89.066406 288.347656 88.710938 288.121094 88.375 C 287.890625 88.039062 287.632812 87.730469 287.34375 87.445312 Z M 287.34375 87.445312 " fill-opacity="1" fill-rule="nonzero"/><path fill="#ffcc34" d="M 69.28125 296.175781 L 61.253906 304.203125 C 60.964844 304.503906 60.703125 304.828125 60.472656 305.179688 C 60.246094 305.53125 60.050781 305.898438 59.894531 306.285156 C 59.738281 306.671875 59.617188 307.074219 59.539062 307.484375 C 59.457031 307.894531 59.417969 308.308594 59.417969 308.726562 C 59.417969 309.144531 59.457031 309.558594 59.539062 309.96875 C 59.617188 310.378906 59.738281 310.78125 59.894531 311.167969 C 60.050781 311.554688 60.246094 311.925781 60.472656 312.273438 C 60.703125 312.625 60.964844 312.949219 61.253906 313.25 C 61.855469 313.898438 62.5625 314.402344 63.371094 314.761719 C 64.183594 315.117188 65.03125 315.296875 65.917969 315.296875 C 66.757812 315.265625 67.558594 315.074219 68.316406 314.71875 C 69.078125 314.363281 69.738281 313.875 70.300781 313.25 L 78.328125 305.222656 C 78.601562 304.921875 78.847656 304.59375 79.0625 304.246094 C 79.273438 303.898438 79.453125 303.535156 79.597656 303.152344 C 79.738281 302.769531 79.847656 302.378906 79.914062 301.972656 C 79.984375 301.570312 80.011719 301.167969 80.003906 300.757812 C 79.996094 300.351562 79.945312 299.945312 79.859375 299.546875 C 79.773438 299.148438 79.648438 298.761719 79.488281 298.386719 C 79.328125 298.011719 79.136719 297.652344 78.90625 297.316406 C 78.675781 296.976562 78.417969 296.664062 78.128906 296.375 C 77.839844 296.085938 77.527344 295.828125 77.1875 295.597656 C 76.851562 295.371094 76.492188 295.175781 76.117188 295.015625 C 75.742188 294.855469 75.355469 294.730469 74.957031 294.644531 C 74.558594 294.558594 74.152344 294.507812 73.746094 294.5 C 73.335938 294.492188 72.933594 294.519531 72.53125 294.589844 C 72.125 294.65625 71.734375 294.765625 71.351562 294.90625 C 70.96875 295.050781 70.605469 295.230469 70.257812 295.441406 C 69.910156 295.65625 69.582031 295.902344 69.28125 296.175781 Z M 69.28125 296.175781 " fill-opacity="1" fill-rule="nonzero"/><path fill="#ffcc34" d="M 301.449219 79.472656 C 303.121094 79.445312 304.578125 78.863281 305.816406 77.734375 L 314.039062 69.691406 C 314.355469 69.402344 314.636719 69.085938 314.886719 68.738281 C 315.136719 68.394531 315.347656 68.027344 315.527344 67.636719 C 315.703125 67.25 315.835938 66.847656 315.933594 66.429688 C 316.027344 66.011719 316.078125 65.59375 316.089844 65.164062 C 316.097656 64.738281 316.066406 64.316406 315.992188 63.894531 C 315.917969 63.472656 315.800781 63.066406 315.644531 62.667969 C 315.484375 62.273438 315.289062 61.894531 315.058594 61.539062 C 314.824219 61.179688 314.558594 60.851562 314.257812 60.546875 C 313.957031 60.242188 313.628906 59.972656 313.273438 59.734375 C 312.921875 59.496094 312.546875 59.296875 312.152344 59.132812 C 311.757812 58.972656 311.347656 58.847656 310.929688 58.769531 C 310.511719 58.6875 310.089844 58.652344 309.660156 58.65625 C 309.234375 58.660156 308.8125 58.707031 308.394531 58.796875 C 307.976562 58.886719 307.574219 59.015625 307.183594 59.1875 C 306.789062 59.359375 306.421875 59.566406 306.070312 59.8125 C 305.722656 60.058594 305.402344 60.335938 305.109375 60.648438 L 296.796875 68.675781 C 296.503906 68.972656 296.242188 69.300781 296.011719 69.648438 C 295.777344 70 295.585938 70.367188 295.425781 70.757812 C 295.265625 71.144531 295.144531 71.546875 295.066406 71.957031 C 294.984375 72.371094 294.945312 72.785156 294.945312 73.203125 C 294.945312 73.625 294.984375 74.039062 295.066406 74.453125 C 295.144531 74.863281 295.265625 75.261719 295.425781 75.652344 C 295.585938 76.039062 295.777344 76.410156 296.011719 76.761719 C 296.242188 77.109375 296.503906 77.433594 296.796875 77.734375 C 298.140625 78.867188 299.691406 79.445312 301.449219 79.472656 Z M 301.449219 79.472656 " fill-opacity="1" fill-rule="nonzero"/></svg>