<svg xmlns="http://www.w3.org/2000/svg" xmlns:xlink="http://www.w3.org/1999/xlink" width="500" zoomAndPan="magnify" viewBox="0 0 375 374.999991" height="500" preserveAspectRatio="xMidYMid meet" version="1.0"><defs><clipPath id="id1"><path d="M 56.25 56.25 L 318.75 56.25 L 318.75 318.75 L 56.25 318.75 Z M 56.25 56.25 " clip-rule="nonzero"/></clipPath><clipPath id="id2"><path d="M 318.75 104.375 L 318.75 60.625 C 318.75 58.207031 316.789062 56.25 314.375 56.25 L 270.625 56.25 C 269.464844 56.25 268.351562 56.710938 267.53125 57.53125 L 251.875 73.191406 C 232.285156 62.140625 210.140625 56.25 187.5 56.25 C 166.0625 56.25 145.054688 61.503906 126.25 71.441406 L 126.25 60.625 C 126.25 58.207031 124.289062 56.25 121.875 56.25 L 78.125 56.25 C 76.964844 56.25 75.851562 56.710938 75.03125 57.53125 L 57.53125 75.03125 C 56.710938 75.851562 56.25 76.960938 56.25 78.125 L 56.25 121.875 C 56.25 124.292969 58.210938 126.25 60.625 126.25 L 71.441406 126.25 C 61.503906 145.054688 56.25 166.0625 56.25 187.5 C 56.25 210.136719 62.140625 232.285156 73.191406 251.875 L 57.53125 267.53125 C 56.710938 268.351562 56.25 269.460938 56.25 270.625 L 56.25 314.375 C 56.25 316.792969 58.210938 318.75 60.625 318.75 L 104.375 318.75 C 105.535156 318.75 106.648438 318.289062 107.46875 317.46875 L 123.125 301.808594 C 142.714844 312.859375 164.859375 318.75 187.5 318.75 C 208.9375 318.75 229.945312 313.496094 248.75 303.558594 L 248.75 314.375 C 248.75 316.792969 250.710938 318.75 253.125 318.75 L 296.875 318.75 C 298.035156 318.75 299.148438 318.289062 299.96875 317.46875 L 317.46875 299.96875 C 318.289062 299.148438 318.75 298.039062 318.75 296.875 L 318.75 253.125 C 318.75 250.707031 316.789062 248.75 314.375 248.75 L 303.558594 248.75 C 313.496094 229.945312 318.75 208.9375 318.75 187.5 C 318.75 164.863281 312.859375 142.714844 301.808594 123.125 L 317.46875 107.46875 C 318.289062 106.648438 318.75 105.539062 318.75 104.375 Z M 272.4375 65 L 303.8125 65 L 295.0625 73.75 L 263.6875 73.75 Z M 301.25 183.125 C 295.554688 183.125 290.742188 186.796875 288.929688 191.875 L 226.875 191.875 L 226.875 183.125 L 257.5 183.125 C 259.386719 183.125 261.058594 181.921875 261.652344 180.132812 L 269.40625 156.875 L 284.558594 156.875 C 286.371094 161.953125 291.183594 165.625 296.878906 165.625 C 300.980469 165.625 304.597656 163.699219 307.007812 160.746094 C 308.890625 169.164062 309.898438 177.796875 309.96875 186.511719 C 307.640625 184.429688 304.609375 183.125 301.25 183.125 Z M 305.625 196.25 C 305.625 198.664062 303.660156 200.625 301.25 200.625 C 298.839844 200.625 296.875 198.664062 296.875 196.25 C 296.875 193.835938 298.839844 191.875 301.25 191.875 C 303.660156 191.875 305.625 193.835938 305.625 196.25 Z M 292.5 152.5 C 292.5 150.085938 294.464844 148.125 296.875 148.125 C 299.285156 148.125 301.25 150.085938 301.25 152.5 C 301.25 154.914062 299.285156 156.875 296.875 156.875 C 294.464844 156.875 292.5 154.914062 292.5 152.5 Z M 296.875 139.375 C 291.179688 139.375 286.367188 143.046875 284.554688 148.125 L 266.25 148.125 C 264.363281 148.125 262.691406 149.328125 262.097656 151.117188 L 254.34375 174.375 L 226.875 174.375 L 226.875 165.625 L 240 165.625 C 241.886719 165.625 243.558594 164.421875 244.152344 162.632812 L 256.28125 126.25 L 293.542969 126.25 C 296.101562 130.667969 298.394531 135.222656 300.367188 139.90625 C 299.246094 139.59375 298.089844 139.375 296.875 139.375 Z M 257.5 117.5 L 257.5 82.5 L 292.5 82.5 L 292.5 117.5 Z M 187.5 65 C 209.082031 65 230.1875 70.71875 248.75 81.464844 L 248.75 121.167969 L 236.84375 156.875 L 226.066406 156.875 C 224.253906 151.796875 219.441406 148.125 213.746094 148.125 L 213.746094 137.339844 L 224.921875 129.890625 C 226.144531 129.078125 226.875 127.710938 226.875 126.25 L 226.875 116.695312 C 231.953125 114.882812 235.625 110.070312 235.625 104.375 C 235.625 97.140625 229.734375 91.25 222.5 91.25 C 215.265625 91.25 209.375 97.140625 209.375 104.375 C 209.375 110.070312 213.046875 114.882812 218.125 116.695312 L 218.125 123.910156 L 206.945312 131.359375 C 205.730469 132.171875 205 133.539062 205 135 L 205 148.125 L 191.875 148.125 L 191.875 126.25 C 191.875 125.300781 191.570312 124.382812 191 123.625 L 178.75 107.292969 L 178.75 99.195312 C 183.828125 97.382812 187.5 92.570312 187.5 86.875 C 187.5 79.640625 181.609375 73.75 174.375 73.75 C 167.140625 73.75 161.25 79.640625 161.25 86.875 C 161.25 92.570312 164.921875 97.382812 170 99.195312 L 170 108.75 C 170 109.699219 170.304688 110.617188 170.875 111.375 L 183.125 127.707031 L 183.125 148.125 L 170 148.125 L 170 126.25 C 170 125.085938 169.539062 123.976562 168.71875 123.15625 L 146.84375 101.28125 C 146.023438 100.460938 144.910156 100 143.75 100 L 126.25 100 L 126.25 81.464844 C 144.8125 70.71875 165.917969 65 187.5 65 Z M 161.25 218.125 C 158.839844 218.125 156.875 216.164062 156.875 213.75 L 156.875 161.25 C 156.875 158.835938 158.839844 156.875 161.25 156.875 L 213.75 156.875 C 216.160156 156.875 218.125 158.835938 218.125 161.25 L 218.125 213.75 C 218.125 216.164062 216.160156 218.125 213.75 218.125 Z M 191.875 296.875 C 191.875 299.289062 189.910156 301.25 187.5 301.25 C 185.089844 301.25 183.125 299.289062 183.125 296.875 C 183.125 294.460938 185.089844 292.5 187.5 292.5 C 189.910156 292.5 191.875 294.460938 191.875 296.875 Z M 218.125 104.375 C 218.125 101.960938 220.089844 100 222.5 100 C 224.910156 100 226.875 101.960938 226.875 104.375 C 226.875 106.789062 224.910156 108.75 222.5 108.75 C 220.089844 108.75 218.125 106.789062 218.125 104.375 Z M 170 86.875 C 170 84.460938 171.964844 82.5 174.375 82.5 C 176.785156 82.5 178.75 84.460938 178.75 86.875 C 178.75 89.289062 176.785156 91.25 174.375 91.25 C 171.964844 91.25 170 89.289062 170 86.875 Z M 79.9375 65 L 111.3125 65 L 102.5625 73.75 L 71.1875 73.75 Z M 117.5 71.1875 L 117.5 102.5625 L 108.75 111.3125 L 108.75 79.9375 Z M 65 82.5 L 100 82.5 L 100 117.5 L 65 117.5 Z M 81.457031 126.25 L 104.375 126.25 C 105.535156 126.25 106.648438 125.789062 107.46875 124.96875 L 123.6875 108.75 L 141.9375 108.75 L 161.25 128.0625 L 161.25 148.125 C 155.554688 148.125 150.742188 151.796875 148.929688 156.875 L 136.8125 156.875 L 124.96875 145.03125 C 124.148438 144.210938 123.035156 143.75 121.875 143.75 L 107.945312 143.75 C 106.132812 138.671875 101.320312 135 95.625 135 C 88.390625 135 82.5 140.890625 82.5 148.125 C 82.5 155.359375 88.390625 161.25 95.625 161.25 C 101.320312 161.25 106.132812 157.578125 107.945312 152.5 L 120.0625 152.5 L 131.90625 164.34375 C 132.726562 165.164062 133.839844 165.625 135 165.625 L 148.125 165.625 L 148.125 174.375 L 116.695312 174.375 C 114.882812 169.296875 110.070312 165.625 104.375 165.625 C 97.140625 165.625 91.25 171.515625 91.25 178.75 C 91.25 185.984375 97.140625 191.875 104.375 191.875 C 110.070312 191.875 114.882812 188.203125 116.695312 183.125 L 148.125 183.125 L 148.125 191.875 L 126.25 191.875 C 125.457031 191.875 124.679688 192.089844 123.996094 192.5 L 103.164062 205 L 86.070312 205 C 84.257812 199.921875 79.445312 196.25 73.75 196.25 C 70.664062 196.25 67.859375 197.367188 65.621094 199.152344 C 65.253906 195.289062 65 191.40625 65 187.5 C 65 165.917969 70.71875 144.8125 81.457031 126.25 Z M 148.125 209.375 L 135 209.375 C 133.976562 209.375 132.988281 209.734375 132.199219 210.386719 L 105.949219 232.261719 C 104.953125 233.097656 104.375 234.324219 104.375 235.625 L 104.375 248.75 L 81.457031 248.75 C 76.546875 240.257812 72.679688 231.238281 69.949219 221.871094 C 71.160156 222.242188 72.421875 222.5 73.75 222.5 C 79.445312 222.5 84.257812 218.828125 86.070312 213.75 L 104.375 213.75 C 105.167969 213.75 105.945312 213.535156 106.628906 213.125 L 127.460938 200.625 L 148.125 200.625 Z M 102.5625 266.25 L 71.1875 266.25 L 79.9375 257.5 L 111.3125 257.5 Z M 69.375 209.375 C 69.375 206.960938 71.339844 205 73.75 205 C 76.160156 205 78.125 206.960938 78.125 209.375 C 78.125 211.789062 76.160156 213.75 73.75 213.75 C 71.339844 213.75 69.375 211.789062 69.375 209.375 Z M 100 148.125 C 100 150.539062 98.035156 152.5 95.625 152.5 C 93.214844 152.5 91.25 150.539062 91.25 148.125 C 91.25 145.710938 93.214844 143.75 95.625 143.75 C 98.035156 143.75 100 145.710938 100 148.125 Z M 108.75 178.75 C 108.75 181.164062 106.785156 183.125 104.375 183.125 C 101.964844 183.125 100 181.164062 100 178.75 C 100 176.335938 101.964844 174.375 104.375 174.375 C 106.785156 174.375 108.75 176.335938 108.75 178.75 Z M 65 275 L 100 275 L 100 310 L 65 310 Z M 108.75 303.8125 L 108.75 272.4375 L 117.5 263.6875 L 117.5 295.0625 Z M 187.5 310 C 165.917969 310 144.8125 304.28125 126.25 293.535156 L 126.25 253.125 C 126.25 250.707031 124.289062 248.75 121.875 248.75 L 113.125 248.75 L 113.125 237.675781 L 136.582031 218.125 L 148.933594 218.125 C 150.746094 223.203125 155.558594 226.875 161.253906 226.875 L 161.253906 237.8125 L 145.503906 249.625 C 144.398438 250.453125 143.75 251.75 143.75 253.125 L 143.75 267.054688 C 138.671875 268.867188 135 273.679688 135 279.375 C 135 286.609375 140.890625 292.5 148.125 292.5 C 155.359375 292.5 161.25 286.609375 161.25 279.375 C 161.25 273.679688 157.578125 268.867188 152.5 267.054688 L 152.5 255.3125 L 168.25 243.5 C 169.351562 242.675781 170 241.378906 170 240 L 170 226.875 L 183.125 226.875 L 183.125 284.554688 C 178.046875 286.367188 174.375 291.179688 174.375 296.875 C 174.375 304.109375 180.265625 310 187.5 310 C 194.734375 310 200.625 304.109375 200.625 296.875 C 200.625 291.179688 196.953125 286.367188 191.875 284.554688 L 191.875 226.875 L 205 226.875 L 205 244.375 C 205 246.792969 206.960938 248.75 209.375 248.75 L 242.5625 248.75 L 255.6875 261.875 L 250.03125 267.53125 C 249.210938 268.351562 248.75 269.460938 248.75 270.625 L 248.75 293.535156 C 230.1875 304.28125 209.082031 310 187.5 310 Z M 152.5 279.375 C 152.5 281.789062 150.535156 283.75 148.125 283.75 C 145.714844 283.75 143.75 281.789062 143.75 279.375 C 143.75 276.960938 145.714844 275 148.125 275 C 150.535156 275 152.5 276.960938 152.5 279.375 Z M 295.0625 266.25 L 263.6875 266.25 L 272.4375 257.5 L 303.8125 257.5 Z M 257.5 275 L 292.5 275 L 292.5 310 L 257.5 310 Z M 301.25 303.8125 L 301.25 272.4375 L 310 263.6875 L 310 295.0625 Z M 270.625 248.75 C 269.464844 248.75 268.351562 249.210938 267.53125 250.03125 L 261.875 255.6875 L 247.46875 241.28125 C 246.648438 240.460938 245.535156 240 244.375 240 L 213.75 240 L 213.75 226.875 C 219.445312 226.875 224.257812 223.203125 226.070312 218.125 L 242.5625 218.125 L 254.40625 229.96875 C 255.226562 230.789062 256.339844 231.25 257.5 231.25 L 267.054688 231.25 C 268.867188 236.328125 273.679688 240 279.375 240 C 286.609375 240 292.5 234.109375 292.5 226.875 C 292.5 219.640625 286.609375 213.75 279.375 213.75 C 273.679688 213.75 268.867188 217.421875 267.054688 222.5 L 259.3125 222.5 L 247.46875 210.65625 C 246.648438 209.835938 245.535156 209.375 244.375 209.375 L 226.875 209.375 L 226.875 200.625 L 288.929688 200.625 C 290.742188 205.703125 295.554688 209.375 301.25 209.375 C 303.863281 209.375 306.285156 208.585938 308.332031 207.265625 C 305.953125 221.859375 300.964844 235.914062 293.535156 248.75 Z M 275 226.875 C 275 224.460938 276.964844 222.5 279.375 222.5 C 281.785156 222.5 283.75 224.460938 283.75 226.875 C 283.75 229.289062 281.785156 231.25 279.375 231.25 C 276.964844 231.25 275 229.289062 275 226.875 Z M 301.25 111.3125 L 301.25 79.9375 L 310 71.1875 L 310 102.5625 Z M 301.25 111.3125 " clip-rule="nonzero"/></clipPath><linearGradient x1="2" gradientTransform="matrix(4.375, 0, 0, 4.375, 47.499999, 47.499999)" y1="2" x2="61.999997" gradientUnits="userSpaceOnUse" y2="61.999997" id="id3"><stop stop-opacity="1" stop-color="rgb(56.498718%, 15.299988%, 55.699158%)" offset="0"/><stop stop-opacity="1" stop-color="rgb(56.498718%, 15.299988%, 55.699158%)" offset="0.125"/><stop stop-opacity="1" stop-color="rgb(56.498718%, 15.299988%, 55.699158%)" offset="0.140625"/><stop stop-opacity="1" stop-color="rgb(56.382751%, 15.466309%, 55.792236%)" offset="0.148438"/><stop stop-opacity="1" stop-color="rgb(56.080627%, 15.901184%, 56.033325%)" offset="0.152344"/><stop stop-opacity="1" stop-color="rgb(55.89447%, 16.169739%, 56.182861%)" offset="0.15625"/><stop stop-opacity="1" stop-color="rgb(55.708313%, 16.436768%, 56.330872%)" offset="0.160156"/><stop stop-opacity="1" stop-color="rgb(55.523682%, 16.703796%, 56.480408%)" offset="0.164063"/><stop stop-opacity="1" stop-color="rgb(55.337524%, 16.970825%, 56.628418%)" offset="0.167969"/><stop stop-opacity="1" stop-color="rgb(55.152893%, 17.237854%, 56.777954%)" offset="0.171875"/><stop stop-opacity="1" stop-color="rgb(54.966736%, 17.504883%, 56.925964%)" offset="0.175781"/><stop stop-opacity="1" stop-color="rgb(54.780579%, 17.773438%, 57.0755%)" offset="0.179688"/><stop stop-opacity="1" stop-color="rgb(54.594421%, 18.040466%, 57.223511%)" offset="0.183594"/><stop stop-opacity="1" stop-color="rgb(54.40979%, 18.307495%, 57.373047%)" offset="0.1875"/><stop stop-opacity="1" stop-color="rgb(54.223633%, 18.574524%, 57.521057%)" offset="0.191406"/><stop stop-opacity="1" stop-color="rgb(54.039001%, 18.843079%, 57.670593%)" offset="0.195313"/><stop stop-opacity="1" stop-color="rgb(53.852844%, 19.110107%, 57.818604%)" offset="0.199219"/><stop stop-opacity="1" stop-color="rgb(53.666687%, 19.377136%, 57.96814%)" offset="0.203125"/><stop stop-opacity="1" stop-color="rgb(53.48053%, 19.644165%, 58.11615%)" offset="0.207031"/><stop stop-opacity="1" stop-color="rgb(53.295898%, 19.911194%, 58.265686%)" offset="0.210938"/><stop stop-opacity="1" stop-color="rgb(53.109741%, 20.178223%, 58.413696%)" offset="0.214844"/><stop stop-opacity="1" stop-color="rgb(52.92511%, 20.446777%, 58.563232%)" offset="0.21875"/><stop stop-opacity="1" stop-color="rgb(52.738953%, 20.713806%, 58.711243%)" offset="0.222656"/><stop stop-opacity="1" stop-color="rgb(52.552795%, 20.980835%, 58.860779%)" offset="0.226563"/><stop stop-opacity="1" stop-color="rgb(52.366638%, 21.247864%, 59.008789%)" offset="0.230469"/><stop stop-opacity="1" stop-color="rgb(52.182007%, 21.514893%, 59.158325%)" offset="0.234375"/><stop stop-opacity="1" stop-color="rgb(51.99585%, 21.781921%, 59.306335%)" offset="0.238281"/><stop stop-opacity="1" stop-color="rgb(51.809692%, 22.050476%, 59.455872%)" offset="0.242188"/><stop stop-opacity="1" stop-color="rgb(51.623535%, 22.317505%, 59.603882%)" offset="0.246094"/><stop stop-opacity="1" stop-color="rgb(51.438904%, 22.584534%, 59.753418%)" offset="0.25"/><stop stop-opacity="1" stop-color="rgb(51.252747%, 22.851562%, 59.901428%)" offset="0.253906"/><stop stop-opacity="1" stop-color="rgb(51.068115%, 23.120117%, 60.050964%)" offset="0.257813"/><stop stop-opacity="1" stop-color="rgb(50.881958%, 23.387146%, 60.198975%)" offset="0.261719"/><stop stop-opacity="1" stop-color="rgb(50.695801%, 23.654175%, 60.348511%)" offset="0.265625"/><stop stop-opacity="1" stop-color="rgb(50.509644%, 23.921204%, 60.496521%)" offset="0.269531"/><stop stop-opacity="1" stop-color="rgb(50.325012%, 24.188232%, 60.646057%)" offset="0.273438"/><stop stop-opacity="1" stop-color="rgb(50.138855%, 24.455261%, 60.794067%)" offset="0.277344"/><stop stop-opacity="1" stop-color="rgb(49.954224%, 24.723816%, 60.943604%)" offset="0.28125"/><stop stop-opacity="1" stop-color="rgb(49.768066%, 24.990845%, 61.091614%)" offset="0.285156"/><stop stop-opacity="1" stop-color="rgb(49.581909%, 25.257874%, 61.24115%)" offset="0.289062"/><stop stop-opacity="1" stop-color="rgb(49.395752%, 25.524902%, 61.38916%)" offset="0.292969"/><stop stop-opacity="1" stop-color="rgb(49.211121%, 25.791931%, 61.53717%)" offset="0.296875"/><stop stop-opacity="1" stop-color="rgb(49.024963%, 26.05896%, 61.685181%)" offset="0.300781"/><stop stop-opacity="1" stop-color="rgb(48.840332%, 26.327515%, 61.834717%)" offset="0.304688"/><stop stop-opacity="1" stop-color="rgb(48.654175%, 26.594543%, 61.982727%)" offset="0.308594"/><stop stop-opacity="1" stop-color="rgb(48.468018%, 26.861572%, 62.132263%)" offset="0.3125"/><stop stop-opacity="1" stop-color="rgb(48.28186%, 27.128601%, 62.280273%)" offset="0.316406"/><stop stop-opacity="1" stop-color="rgb(48.097229%, 27.39563%, 62.42981%)" offset="0.320313"/><stop stop-opacity="1" stop-color="rgb(47.911072%, 27.662659%, 62.57782%)" offset="0.324219"/><stop stop-opacity="1" stop-color="rgb(47.72644%, 27.931213%, 62.727356%)" offset="0.328125"/><stop stop-opacity="1" stop-color="rgb(47.540283%, 28.198242%, 62.875366%)" offset="0.332031"/><stop stop-opacity="1" stop-color="rgb(47.354126%, 28.465271%, 63.024902%)" offset="0.335938"/><stop stop-opacity="1" stop-color="rgb(47.167969%, 28.7323%, 63.172913%)" offset="0.339844"/><stop stop-opacity="1" stop-color="rgb(46.983337%, 29.000854%, 63.322449%)" offset="0.34375"/><stop stop-opacity="1" stop-color="rgb(46.79718%, 29.267883%, 63.470459%)" offset="0.347656"/><stop stop-opacity="1" stop-color="rgb(46.612549%, 29.534912%, 63.619995%)" offset="0.351562"/><stop stop-opacity="1" stop-color="rgb(46.426392%, 29.801941%, 63.768005%)" offset="0.355469"/><stop stop-opacity="1" stop-color="rgb(46.240234%, 30.06897%, 63.917542%)" offset="0.359375"/><stop stop-opacity="1" stop-color="rgb(46.054077%, 30.335999%, 64.065552%)" offset="0.363281"/><stop stop-opacity="1" stop-color="rgb(45.869446%, 30.604553%, 64.215088%)" offset="0.367188"/><stop stop-opacity="1" stop-color="rgb(45.683289%, 30.871582%, 64.363098%)" offset="0.371094"/><stop stop-opacity="1" stop-color="rgb(45.498657%, 31.138611%, 64.512634%)" offset="0.375"/><stop stop-opacity="1" stop-color="rgb(45.3125%, 31.40564%, 64.660645%)" offset="0.378906"/><stop stop-opacity="1" stop-color="rgb(45.126343%, 31.672668%, 64.810181%)" offset="0.382813"/><stop stop-opacity="1" stop-color="rgb(44.940186%, 31.939697%, 64.958191%)" offset="0.386719"/><stop stop-opacity="1" stop-color="rgb(44.755554%, 32.208252%, 65.107727%)" offset="0.390625"/><stop stop-opacity="1" stop-color="rgb(44.569397%, 32.475281%, 65.255737%)" offset="0.394531"/><stop stop-opacity="1" stop-color="rgb(44.38324%, 32.74231%, 65.405273%)" offset="0.398438"/><stop stop-opacity="1" stop-color="rgb(44.197083%, 33.009338%, 65.553284%)" offset="0.402344"/><stop stop-opacity="1" stop-color="rgb(44.012451%, 33.277893%, 65.70282%)" offset="0.40625"/><stop stop-opacity="1" stop-color="rgb(43.826294%, 33.544922%, 65.85083%)" offset="0.410156"/><stop stop-opacity="1" stop-color="rgb(43.641663%, 33.811951%, 66.000366%)" offset="0.414062"/><stop stop-opacity="1" stop-color="rgb(43.455505%, 34.078979%, 66.148376%)" offset="0.417969"/><stop stop-opacity="1" stop-color="rgb(43.269348%, 34.346008%, 66.297913%)" offset="0.421875"/><stop stop-opacity="1" stop-color="rgb(43.083191%, 34.613037%, 66.445923%)" offset="0.425781"/><stop stop-opacity="1" stop-color="rgb(42.89856%, 34.881592%, 66.595459%)" offset="0.429688"/><stop stop-opacity="1" stop-color="rgb(42.712402%, 35.148621%, 66.743469%)" offset="0.433594"/><stop stop-opacity="1" stop-color="rgb(42.527771%, 35.415649%, 66.893005%)" offset="0.4375"/><stop stop-opacity="1" stop-color="rgb(42.341614%, 35.682678%, 67.041016%)" offset="0.441406"/><stop stop-opacity="1" stop-color="rgb(42.155457%, 35.949707%, 67.190552%)" offset="0.445313"/><stop stop-opacity="1" stop-color="rgb(41.969299%, 36.216736%, 67.338562%)" offset="0.449219"/><stop stop-opacity="1" stop-color="rgb(41.784668%, 36.485291%, 67.488098%)" offset="0.453125"/><stop stop-opacity="1" stop-color="rgb(41.598511%, 36.752319%, 67.636108%)" offset="0.457031"/><stop stop-opacity="1" stop-color="rgb(41.413879%, 37.019348%, 67.784119%)" offset="0.460938"/><stop stop-opacity="1" stop-color="rgb(41.227722%, 37.286377%, 67.932129%)" offset="0.464844"/><stop stop-opacity="1" stop-color="rgb(41.041565%, 37.553406%, 68.081665%)" offset="0.46875"/><stop stop-opacity="1" stop-color="rgb(40.855408%, 37.820435%, 68.229675%)" offset="0.472656"/><stop stop-opacity="1" stop-color="rgb(40.670776%, 38.088989%, 68.379211%)" offset="0.476562"/><stop stop-opacity="1" stop-color="rgb(40.484619%, 38.356018%, 68.527222%)" offset="0.480469"/><stop stop-opacity="1" stop-color="rgb(40.299988%, 38.623047%, 68.676758%)" offset="0.484375"/><stop stop-opacity="1" stop-color="rgb(40.113831%, 38.890076%, 68.824768%)" offset="0.488281"/><stop stop-opacity="1" stop-color="rgb(39.927673%, 39.15863%, 68.974304%)" offset="0.492188"/><stop stop-opacity="1" stop-color="rgb(39.741516%, 39.425659%, 69.122314%)" offset="0.496094"/><stop stop-opacity="1" stop-color="rgb(39.556885%, 39.692688%, 69.271851%)" offset="0.5"/><stop stop-opacity="1" stop-color="rgb(39.370728%, 39.959717%, 69.419861%)" offset="0.503906"/><stop stop-opacity="1" stop-color="rgb(39.186096%, 40.226746%, 69.569397%)" offset="0.507812"/><stop stop-opacity="1" stop-color="rgb(38.999939%, 40.493774%, 69.717407%)" offset="0.511719"/><stop stop-opacity="1" stop-color="rgb(38.813782%, 40.762329%, 69.866943%)" offset="0.515625"/><stop stop-opacity="1" stop-color="rgb(38.627625%, 41.029358%, 70.014954%)" offset="0.519531"/><stop stop-opacity="1" stop-color="rgb(38.442993%, 41.296387%, 70.16449%)" offset="0.523438"/><stop stop-opacity="1" stop-color="rgb(38.256836%, 41.563416%, 70.3125%)" offset="0.527344"/><stop stop-opacity="1" stop-color="rgb(38.072205%, 41.830444%, 70.462036%)" offset="0.53125"/><stop stop-opacity="1" stop-color="rgb(37.886047%, 42.097473%, 70.610046%)" offset="0.535156"/><stop stop-opacity="1" stop-color="rgb(37.69989%, 42.366028%, 70.759583%)" offset="0.539062"/><stop stop-opacity="1" stop-color="rgb(37.513733%, 42.633057%, 70.907593%)" offset="0.542969"/><stop stop-opacity="1" stop-color="rgb(37.329102%, 42.900085%, 71.057129%)" offset="0.546875"/><stop stop-opacity="1" stop-color="rgb(37.142944%, 43.167114%, 71.205139%)" offset="0.550781"/><stop stop-opacity="1" stop-color="rgb(36.956787%, 43.435669%, 71.354675%)" offset="0.554688"/><stop stop-opacity="1" stop-color="rgb(36.77063%, 43.702698%, 71.502686%)" offset="0.558594"/><stop stop-opacity="1" stop-color="rgb(36.585999%, 43.969727%, 71.652222%)" offset="0.5625"/><stop stop-opacity="1" stop-color="rgb(36.399841%, 44.236755%, 71.800232%)" offset="0.566406"/><stop stop-opacity="1" stop-color="rgb(36.21521%, 44.503784%, 71.949768%)" offset="0.570312"/><stop stop-opacity="1" stop-color="rgb(36.029053%, 44.770813%, 72.097778%)" offset="0.574219"/><stop stop-opacity="1" stop-color="rgb(35.842896%, 45.039368%, 72.247314%)" offset="0.578125"/><stop stop-opacity="1" stop-color="rgb(35.656738%, 45.306396%, 72.395325%)" offset="0.582031"/><stop stop-opacity="1" stop-color="rgb(35.472107%, 45.573425%, 72.544861%)" offset="0.585938"/><stop stop-opacity="1" stop-color="rgb(35.28595%, 45.840454%, 72.692871%)" offset="0.589844"/><stop stop-opacity="1" stop-color="rgb(35.101318%, 46.107483%, 72.842407%)" offset="0.59375"/><stop stop-opacity="1" stop-color="rgb(34.915161%, 46.374512%, 72.990417%)" offset="0.597656"/><stop stop-opacity="1" stop-color="rgb(34.729004%, 46.643066%, 73.139954%)" offset="0.601563"/><stop stop-opacity="1" stop-color="rgb(34.542847%, 46.910095%, 73.287964%)" offset="0.605469"/><stop stop-opacity="1" stop-color="rgb(34.358215%, 47.177124%, 73.4375%)" offset="0.609375"/><stop stop-opacity="1" stop-color="rgb(34.172058%, 47.444153%, 73.58551%)" offset="0.613281"/><stop stop-opacity="1" stop-color="rgb(33.987427%, 47.711182%, 73.735046%)" offset="0.617188"/><stop stop-opacity="1" stop-color="rgb(33.80127%, 47.97821%, 73.883057%)" offset="0.621094"/><stop stop-opacity="1" stop-color="rgb(33.615112%, 48.246765%, 74.031067%)" offset="0.625"/><stop stop-opacity="1" stop-color="rgb(33.428955%, 48.513794%, 74.179077%)" offset="0.628906"/><stop stop-opacity="1" stop-color="rgb(33.244324%, 48.780823%, 74.328613%)" offset="0.632812"/><stop stop-opacity="1" stop-color="rgb(33.058167%, 49.047852%, 74.476624%)" offset="0.636719"/><stop stop-opacity="1" stop-color="rgb(32.873535%, 49.316406%, 74.62616%)" offset="0.640625"/><stop stop-opacity="1" stop-color="rgb(32.687378%, 49.583435%, 74.77417%)" offset="0.644531"/><stop stop-opacity="1" stop-color="rgb(32.501221%, 49.850464%, 74.923706%)" offset="0.648437"/><stop stop-opacity="1" stop-color="rgb(32.315063%, 50.117493%, 75.071716%)" offset="0.652344"/><stop stop-opacity="1" stop-color="rgb(32.130432%, 50.384521%, 75.221252%)" offset="0.65625"/><stop stop-opacity="1" stop-color="rgb(31.944275%, 50.65155%, 75.369263%)" offset="0.660156"/><stop stop-opacity="1" stop-color="rgb(31.759644%, 50.920105%, 75.518799%)" offset="0.664062"/><stop stop-opacity="1" stop-color="rgb(31.573486%, 51.187134%, 75.666809%)" offset="0.667969"/><stop stop-opacity="1" stop-color="rgb(31.387329%, 51.454163%, 75.816345%)" offset="0.671875"/><stop stop-opacity="1" stop-color="rgb(31.201172%, 51.721191%, 75.964355%)" offset="0.675781"/><stop stop-opacity="1" stop-color="rgb(31.016541%, 51.98822%, 76.113892%)" offset="0.679688"/><stop stop-opacity="1" stop-color="rgb(30.830383%, 52.255249%, 76.261902%)" offset="0.683594"/><stop stop-opacity="1" stop-color="rgb(30.645752%, 52.523804%, 76.411438%)" offset="0.6875"/><stop stop-opacity="1" stop-color="rgb(30.459595%, 52.790833%, 76.559448%)" offset="0.691406"/><stop stop-opacity="1" stop-color="rgb(30.273438%, 53.057861%, 76.708984%)" offset="0.695312"/><stop stop-opacity="1" stop-color="rgb(30.08728%, 53.32489%, 76.856995%)" offset="0.699219"/><stop stop-opacity="1" stop-color="rgb(29.902649%, 53.593445%, 77.006531%)" offset="0.703125"/><stop stop-opacity="1" stop-color="rgb(29.716492%, 53.860474%, 77.154541%)" offset="0.707031"/><stop stop-opacity="1" stop-color="rgb(29.530334%, 54.127502%, 77.304077%)" offset="0.710938"/><stop stop-opacity="1" stop-color="rgb(29.344177%, 54.394531%, 77.452087%)" offset="0.714844"/><stop stop-opacity="1" stop-color="rgb(29.159546%, 54.66156%, 77.601624%)" offset="0.71875"/><stop stop-opacity="1" stop-color="rgb(28.973389%, 54.928589%, 77.749634%)" offset="0.722656"/><stop stop-opacity="1" stop-color="rgb(28.788757%, 55.197144%, 77.89917%)" offset="0.726563"/><stop stop-opacity="1" stop-color="rgb(28.6026%, 55.464172%, 78.04718%)" offset="0.730469"/><stop stop-opacity="1" stop-color="rgb(28.416443%, 55.731201%, 78.196716%)" offset="0.734375"/><stop stop-opacity="1" stop-color="rgb(28.230286%, 55.99823%, 78.344727%)" offset="0.738281"/><stop stop-opacity="1" stop-color="rgb(28.045654%, 56.265259%, 78.494263%)" offset="0.742188"/><stop stop-opacity="1" stop-color="rgb(27.859497%, 56.532288%, 78.642273%)" offset="0.746094"/><stop stop-opacity="1" stop-color="rgb(27.674866%, 56.800842%, 78.791809%)" offset="0.75"/><stop stop-opacity="1" stop-color="rgb(27.488708%, 57.067871%, 78.939819%)" offset="0.753906"/><stop stop-opacity="1" stop-color="rgb(27.302551%, 57.3349%, 79.089355%)" offset="0.757812"/><stop stop-opacity="1" stop-color="rgb(27.116394%, 57.601929%, 79.237366%)" offset="0.761719"/><stop stop-opacity="1" stop-color="rgb(26.931763%, 57.868958%, 79.386902%)" offset="0.765625"/><stop stop-opacity="1" stop-color="rgb(26.745605%, 58.135986%, 79.534912%)" offset="0.769531"/><stop stop-opacity="1" stop-color="rgb(26.560974%, 58.404541%, 79.684448%)" offset="0.773437"/><stop stop-opacity="1" stop-color="rgb(26.374817%, 58.67157%, 79.832458%)" offset="0.777344"/><stop stop-opacity="1" stop-color="rgb(26.18866%, 58.938599%, 79.980469%)" offset="0.78125"/><stop stop-opacity="1" stop-color="rgb(26.002502%, 59.205627%, 80.128479%)" offset="0.785156"/><stop stop-opacity="1" stop-color="rgb(25.817871%, 59.474182%, 80.278015%)" offset="0.789062"/><stop stop-opacity="1" stop-color="rgb(25.631714%, 59.741211%, 80.426025%)" offset="0.792969"/><stop stop-opacity="1" stop-color="rgb(25.447083%, 60.00824%, 80.575562%)" offset="0.796875"/><stop stop-opacity="1" stop-color="rgb(25.260925%, 60.275269%, 80.723572%)" offset="0.800781"/><stop stop-opacity="1" stop-color="rgb(25.074768%, 60.542297%, 80.873108%)" offset="0.804688"/><stop stop-opacity="1" stop-color="rgb(24.888611%, 60.809326%, 81.021118%)" offset="0.808594"/><stop stop-opacity="1" stop-color="rgb(24.703979%, 61.077881%, 81.170654%)" offset="0.8125"/><stop stop-opacity="1" stop-color="rgb(24.517822%, 61.34491%, 81.318665%)" offset="0.816406"/><stop stop-opacity="1" stop-color="rgb(24.333191%, 61.611938%, 81.468201%)" offset="0.820312"/><stop stop-opacity="1" stop-color="rgb(24.147034%, 61.878967%, 81.616211%)" offset="0.824219"/><stop stop-opacity="1" stop-color="rgb(23.960876%, 62.145996%, 81.765747%)" offset="0.828125"/><stop stop-opacity="1" stop-color="rgb(23.774719%, 62.413025%, 81.913757%)" offset="0.832031"/><stop stop-opacity="1" stop-color="rgb(23.590088%, 62.68158%, 82.063293%)" offset="0.835938"/><stop stop-opacity="1" stop-color="rgb(23.403931%, 62.948608%, 82.211304%)" offset="0.839844"/><stop stop-opacity="1" stop-color="rgb(23.219299%, 63.215637%, 82.36084%)" offset="0.84375"/><stop stop-opacity="1" stop-color="rgb(23.033142%, 63.482666%, 82.50885%)" offset="0.847656"/><stop stop-opacity="1" stop-color="rgb(22.846985%, 63.751221%, 82.658386%)" offset="0.851563"/><stop stop-opacity="1" stop-color="rgb(22.660828%, 64.01825%, 82.806396%)" offset="0.855469"/><stop stop-opacity="1" stop-color="rgb(22.476196%, 64.285278%, 82.955933%)" offset="0.859375"/><stop stop-opacity="1" stop-color="rgb(22.290039%, 64.552307%, 83.103943%)" offset="0.863281"/><stop stop-opacity="1" stop-color="rgb(22.105408%, 64.819336%, 83.253479%)" offset="0.867188"/><stop stop-opacity="1" stop-color="rgb(21.91925%, 65.086365%, 83.401489%)" offset="0.871094"/><stop stop-opacity="1" stop-color="rgb(21.733093%, 65.354919%, 83.551025%)" offset="0.875"/><stop stop-opacity="1" stop-color="rgb(21.546936%, 65.621948%, 83.699036%)" offset="0.878906"/><stop stop-opacity="1" stop-color="rgb(21.362305%, 65.888977%, 83.848572%)" offset="0.882812"/><stop stop-opacity="1" stop-color="rgb(21.176147%, 66.156006%, 83.996582%)" offset="0.886719"/><stop stop-opacity="1" stop-color="rgb(20.98999%, 66.423035%, 84.146118%)" offset="0.890625"/><stop stop-opacity="1" stop-color="rgb(20.89386%, 66.560364%, 84.222412%)" offset="0.90625"/><stop stop-opacity="1" stop-color="rgb(20.799255%, 66.699219%, 84.298706%)" offset="0.9375"/><stop stop-opacity="1" stop-color="rgb(20.799255%, 66.699219%, 84.298706%)" offset="1"/></linearGradient><clipPath id="id4"><path d="M 165 170 L 192 170 L 192 205 L 165 205 Z M 165 170 " clip-rule="nonzero"/></clipPath><clipPath id="id5"><path d="M 178.75 170 C 171.515625 170 165.625 175.890625 165.625 183.125 L 165.625 200.625 C 165.625 203.042969 167.585938 205 170 205 C 172.414062 205 174.375 203.042969 174.375 200.625 L 174.375 196.25 L 183.125 196.25 L 183.125 200.625 C 183.125 203.042969 185.085938 205 187.5 205 C 189.914062 205 191.875 203.042969 191.875 200.625 L 191.875 183.125 C 191.875 175.890625 185.984375 170 178.75 170 Z M 174.375 187.5 L 174.375 183.125 C 174.375 180.710938 176.339844 178.75 178.75 178.75 C 181.160156 178.75 183.125 180.710938 183.125 183.125 L 183.125 187.5 Z M 174.375 187.5 " clip-rule="nonzero"/></clipPath><linearGradient x1="26.206501" gradientTransform="matrix(4.375, 0, 0, 4.375, 47.499999, 47.499999)" y1="28.7935" x2="33.206501" gradientUnits="userSpaceOnUse" y2="35.7935" id="id6"><stop stop-opacity="1" stop-color="rgb(43.121338%, 34.559631%, 66.416931%)" offset="0"/><stop stop-opacity="1" stop-color="rgb(43.034363%, 34.684753%, 66.485596%)" offset="0.03125"/><stop stop-opacity="1" stop-color="rgb(42.861938%, 34.933472%, 66.624451%)" offset="0.0625"/><stop stop-opacity="1" stop-color="rgb(42.687988%, 35.183716%, 66.763306%)" offset="0.09375"/><stop stop-opacity="1" stop-color="rgb(42.514038%, 35.432434%, 66.902161%)" offset="0.125"/><stop stop-opacity="1" stop-color="rgb(42.341614%, 35.682678%, 67.041016%)" offset="0.15625"/><stop stop-opacity="1" stop-color="rgb(42.167664%, 35.931396%, 67.179871%)" offset="0.1875"/><stop stop-opacity="1" stop-color="rgb(41.995239%, 36.181641%, 67.318726%)" offset="0.21875"/><stop stop-opacity="1" stop-color="rgb(41.821289%, 36.430359%, 67.457581%)" offset="0.25"/><stop stop-opacity="1" stop-color="rgb(41.648865%, 36.680603%, 67.59491%)" offset="0.28125"/><stop stop-opacity="1" stop-color="rgb(41.474915%, 36.929321%, 67.733765%)" offset="0.3125"/><stop stop-opacity="1" stop-color="rgb(41.300964%, 37.179565%, 67.87262%)" offset="0.34375"/><stop stop-opacity="1" stop-color="rgb(41.12854%, 37.428284%, 68.011475%)" offset="0.375"/><stop stop-opacity="1" stop-color="rgb(40.95459%, 37.678528%, 68.15033%)" offset="0.40625"/><stop stop-opacity="1" stop-color="rgb(40.782166%, 37.927246%, 68.289185%)" offset="0.428571"/><stop stop-opacity="1" stop-color="rgb(40.69519%, 38.052368%, 68.359375%)" offset="0.4375"/><stop stop-opacity="1" stop-color="rgb(40.608215%, 38.17749%, 68.42804%)" offset="0.46875"/><stop stop-opacity="1" stop-color="rgb(40.435791%, 38.426208%, 68.566895%)" offset="0.5"/><stop stop-opacity="1" stop-color="rgb(40.261841%, 38.676453%, 68.70575%)" offset="0.53125"/><stop stop-opacity="1" stop-color="rgb(40.089417%, 38.925171%, 68.844604%)" offset="0.5625"/><stop stop-opacity="1" stop-color="rgb(39.915466%, 39.175415%, 68.983459%)" offset="0.571429"/><stop stop-opacity="1" stop-color="rgb(39.828491%, 39.300537%, 69.05365%)" offset="0.59375"/><stop stop-opacity="1" stop-color="rgb(39.741516%, 39.424133%, 69.122314%)" offset="0.625"/><stop stop-opacity="1" stop-color="rgb(39.569092%, 39.674377%, 69.261169%)" offset="0.65625"/><stop stop-opacity="1" stop-color="rgb(39.395142%, 39.924622%, 69.400024%)" offset="0.6875"/><stop stop-opacity="1" stop-color="rgb(39.222717%, 40.17334%, 69.538879%)" offset="0.71875"/><stop stop-opacity="1" stop-color="rgb(39.048767%, 40.423584%, 69.677734%)" offset="0.75"/><stop stop-opacity="1" stop-color="rgb(38.876343%, 40.672302%, 69.816589%)" offset="0.78125"/><stop stop-opacity="1" stop-color="rgb(38.702393%, 40.922546%, 69.955444%)" offset="0.8125"/><stop stop-opacity="1" stop-color="rgb(38.528442%, 41.171265%, 70.094299%)" offset="0.84375"/><stop stop-opacity="1" stop-color="rgb(38.356018%, 41.421509%, 70.233154%)" offset="0.875"/><stop stop-opacity="1" stop-color="rgb(38.182068%, 41.670227%, 70.372009%)" offset="0.90625"/><stop stop-opacity="1" stop-color="rgb(38.009644%, 41.920471%, 70.510864%)" offset="0.9375"/><stop stop-opacity="1" stop-color="rgb(37.835693%, 42.169189%, 70.649719%)" offset="0.96875"/><stop stop-opacity="1" stop-color="rgb(37.663269%, 42.419434%, 70.788574%)" offset="1"/></linearGradient><clipPath id="id7"><path d="M 200 170 L 210 170 L 210 205 L 200 205 Z M 200 170 " clip-rule="nonzero"/></clipPath><clipPath id="id8"><path d="M 205 170 C 202.585938 170 200.625 171.957031 200.625 174.375 L 200.625 200.625 C 200.625 203.042969 202.585938 205 205 205 C 207.414062 205 209.375 203.042969 209.375 200.625 L 209.375 174.375 C 209.375 171.957031 207.414062 170 205 170 Z M 205 170 " clip-rule="nonzero"/></clipPath><linearGradient x1="33.5" gradientTransform="matrix(4.375, 0, 0, 4.375, 47.499999, 47.499999)" y1="29.500002" x2="38.5" gradientUnits="userSpaceOnUse" y2="34.500002" id="id9"><stop stop-opacity="1" stop-color="rgb(39.953613%, 39.122009%, 68.954468%)" offset="0"/><stop stop-opacity="1" stop-color="rgb(39.828491%, 39.300537%, 69.05365%)" offset="0.0625"/><stop stop-opacity="1" stop-color="rgb(39.581299%, 39.656067%, 69.252014%)" offset="0.125"/><stop stop-opacity="1" stop-color="rgb(39.334106%, 40.013123%, 69.450378%)" offset="0.1875"/><stop stop-opacity="1" stop-color="rgb(39.086914%, 40.370178%, 69.648743%)" offset="0.2"/><stop stop-opacity="1" stop-color="rgb(38.963318%, 40.548706%, 69.747925%)" offset="0.25"/><stop stop-opacity="1" stop-color="rgb(38.838196%, 40.725708%, 69.847107%)" offset="0.3125"/><stop stop-opacity="1" stop-color="rgb(38.591003%, 41.082764%, 70.045471%)" offset="0.375"/><stop stop-opacity="1" stop-color="rgb(38.343811%, 41.438293%, 70.243835%)" offset="0.4375"/><stop stop-opacity="1" stop-color="rgb(38.096619%, 41.795349%, 70.4422%)" offset="0.5"/><stop stop-opacity="1" stop-color="rgb(37.8479%, 42.150879%, 70.640564%)" offset="0.5625"/><stop stop-opacity="1" stop-color="rgb(37.600708%, 42.507935%, 70.838928%)" offset="0.625"/><stop stop-opacity="1" stop-color="rgb(37.353516%, 42.86499%, 71.037292%)" offset="0.6875"/><stop stop-opacity="1" stop-color="rgb(37.106323%, 43.22052%, 71.235657%)" offset="0.75"/><stop stop-opacity="1" stop-color="rgb(36.857605%, 43.577576%, 71.434021%)" offset="0.8"/><stop stop-opacity="1" stop-color="rgb(36.734009%, 43.756104%, 71.533203%)" offset="0.8125"/><stop stop-opacity="1" stop-color="rgb(36.610413%, 43.933105%, 71.632385%)" offset="0.875"/><stop stop-opacity="1" stop-color="rgb(36.36322%, 44.290161%, 71.83075%)" offset="0.9375"/><stop stop-opacity="1" stop-color="rgb(36.116028%, 44.645691%, 72.029114%)" offset="1"/></linearGradient></defs><g clip-path="url(#id1)"><g clip-path="url(#id2)"><path fill="url(#id3)" d="M 56.25 56.25 L 56.25 318.75 L 318.75 318.75 L 318.75 56.25 Z M 56.25 56.25 " fill-rule="nonzero"/></g></g><g clip-path="url(#id4)"><g clip-path="url(#id5)"><path fill="url(#id6)" d="M 165.625 170 L 165.625 205 L 191.875 205 L 191.875 170 Z M 165.625 170 " fill-rule="nonzero"/></g></g><g clip-path="url(#id7)"><g clip-path="url(#id8)"><path fill="url(#id9)" d="M 200.625 170 L 200.625 205 L 209.375 205 L 209.375 170 Z M 200.625 170 " fill-rule="nonzero"/></g></g></svg>