<svg xmlns="http://www.w3.org/2000/svg" xmlns:xlink="http://www.w3.org/1999/xlink" width="500" zoomAndPan="magnify" viewBox="0 0 375 374.999991" height="500" preserveAspectRatio="xMidYMid meet" version="1.0"><defs><clipPath id="id1"><path d="M 27.5625 62.96875 L 337.3125 62.96875 L 337.3125 331.46875 L 27.5625 331.46875 Z M 27.5625 62.96875 " clip-rule="nonzero"/></clipPath><clipPath id="id2"><path d="M 91 105.554688 L 274 105.554688 L 274 288.554688 L 91 288.554688 Z M 91 105.554688 " clip-rule="nonzero"/></clipPath><clipPath id="id3"><path d="M 91 105.554688 L 274 105.554688 L 274 156 L 91 156 Z M 91 105.554688 " clip-rule="nonzero"/></clipPath></defs><g clip-path="url(#id1)"><path fill="#1d1e24" d="M 105.046875 331.46875 L 27.660156 197.21875 L 105.046875 62.96875 L 259.828125 62.96875 L 337.21875 197.21875 L 259.828125 331.46875 Z M 105.046875 331.46875 " fill-opacity="1" fill-rule="nonzero"/></g><g clip-path="url(#id2)"><path fill="#ffbd59" d="M 91 130.507812 C 91 116.726562 102.171875 105.554688 115.953125 105.554688 L 249.046875 105.554688 C 262.828125 105.554688 274 116.726562 274 130.507812 L 274 263.601562 C 274 277.382812 262.828125 288.554688 249.046875 288.554688 L 115.953125 288.554688 C 102.171875 288.554688 91 277.382812 91 263.601562 Z M 115.953125 122.191406 C 111.359375 122.191406 107.636719 125.914062 107.636719 130.507812 L 107.636719 263.601562 C 107.636719 268.195312 111.359375 271.917969 115.953125 271.917969 L 249.046875 271.917969 C 253.640625 271.917969 257.363281 268.195312 257.363281 263.601562 L 257.363281 130.507812 C 257.363281 125.914062 253.640625 122.191406 249.046875 122.191406 Z M 115.953125 122.191406 " fill-opacity="1" fill-rule="evenodd"/></g><g clip-path="url(#id3)"><path fill="#ffbd59" d="M 91 130.507812 C 91 116.726562 102.171875 105.554688 115.953125 105.554688 L 249.046875 105.554688 C 262.828125 105.554688 274 116.726562 274 130.507812 L 274 147.144531 C 274 151.738281 270.277344 155.464844 265.683594 155.464844 L 99.320312 155.464844 C 94.722656 155.464844 91 151.738281 91 147.144531 Z M 115.953125 122.191406 C 111.359375 122.191406 107.636719 125.914062 107.636719 130.507812 L 107.636719 138.828125 L 257.363281 138.828125 L 257.363281 130.507812 C 257.363281 125.914062 253.640625 122.191406 249.046875 122.191406 Z M 115.953125 122.191406 " fill-opacity="1" fill-rule="evenodd"/></g><path fill="#ffbd59" d="M 115.953125 192.894531 C 115.953125 176.816406 128.988281 163.78125 145.070312 163.78125 L 153.386719 163.78125 C 169.464844 163.78125 182.5 176.816406 182.5 192.894531 L 182.5 197.054688 L 165.863281 197.054688 L 165.863281 192.894531 C 165.863281 186.003906 160.277344 180.417969 153.386719 180.417969 L 145.070312 180.417969 C 138.175781 180.417969 132.589844 186.003906 132.589844 192.894531 L 132.589844 234.488281 C 132.589844 241.378906 138.175781 246.964844 145.070312 246.964844 L 153.386719 246.964844 C 160.277344 246.964844 165.863281 241.378906 165.863281 234.488281 L 165.863281 230.328125 L 182.5 230.328125 L 182.5 234.488281 C 182.5 250.566406 169.464844 263.601562 153.386719 263.601562 L 145.070312 263.601562 C 128.988281 263.601562 115.953125 250.566406 115.953125 234.488281 Z M 115.953125 192.894531 " fill-opacity="1" fill-rule="evenodd"/><path fill="#ffbd59" d="M 195.042969 245.933594 L 203.359375 179.386719 L 219.867188 181.449219 L 211.550781 247.996094 Z M 195.042969 245.933594 " fill-opacity="1" fill-rule="evenodd"/><path fill="#ffbd59" d="M 215.835938 245.933594 L 224.15625 179.386719 L 240.664062 181.449219 L 232.347656 247.996094 Z M 215.835938 245.933594 " fill-opacity="1" fill-rule="evenodd"/><path fill="#ffbd59" d="M 194.976562 188.738281 L 249.046875 188.738281 L 249.046875 205.375 L 194.976562 205.375 Z M 194.976562 188.738281 " fill-opacity="1" fill-rule="evenodd"/><path fill="#ffbd59" d="M 190.820312 222.007812 L 240.726562 222.007812 L 240.726562 238.644531 L 190.820312 238.644531 Z M 190.820312 222.007812 " fill-opacity="1" fill-rule="evenodd"/></svg>