<svg xmlns="http://www.w3.org/2000/svg" xmlns:xlink="http://www.w3.org/1999/xlink" width="500" zoomAndPan="magnify" viewBox="0 0 375 374.999991" height="500" preserveAspectRatio="xMidYMid meet" version="1.0"><defs><clipPath id="id1"><path d="M 37.5 37.5 L 281 37.5 L 281 348.75 L 37.5 348.75 Z M 37.5 37.5 " clip-rule="nonzero"/></clipPath></defs><path fill="#22a1e2" d="M 77.003906 309.859375 L 86.648438 309.859375 L 86.648438 259.273438 L 77.003906 259.273438 Z M 90.121094 316.804688 L 73.53125 316.804688 C 71.609375 316.804688 70.054688 315.246094 70.054688 313.332031 L 70.054688 255.796875 C 70.054688 253.878906 71.609375 252.324219 73.53125 252.324219 L 90.121094 252.324219 C 92.042969 252.324219 93.59375 253.878906 93.59375 255.796875 L 93.59375 313.332031 C 93.59375 315.246094 92.042969 316.804688 90.121094 316.804688 " fill-opacity="1" fill-rule="nonzero"/><path fill="#22a1e2" d="M 104.546875 309.859375 L 114.195312 309.859375 L 114.195312 274.503906 L 104.546875 274.503906 Z M 117.667969 316.804688 L 101.074219 316.804688 C 99.152344 316.804688 97.601562 315.246094 97.601562 313.332031 L 97.601562 271.03125 C 97.601562 269.109375 99.152344 267.558594 101.074219 267.558594 L 117.667969 267.558594 C 119.585938 267.558594 121.144531 269.109375 121.144531 271.03125 L 121.144531 313.332031 C 121.144531 315.246094 119.585938 316.804688 117.667969 316.804688 " fill-opacity="1" fill-rule="nonzero"/><path fill="#22a1e2" d="M 132.089844 309.859375 L 141.738281 309.859375 L 141.738281 288.921875 L 132.089844 288.921875 Z M 145.214844 316.804688 L 128.617188 316.804688 C 126.699219 316.804688 125.144531 315.246094 125.144531 313.332031 L 125.144531 285.445312 C 125.144531 283.53125 126.699219 281.972656 128.617188 281.972656 L 145.214844 281.972656 C 147.128906 281.972656 148.6875 283.53125 148.6875 285.445312 L 148.6875 313.332031 C 148.6875 315.246094 147.128906 316.804688 145.214844 316.804688 " fill-opacity="1" fill-rule="nonzero"/><path fill="#22a1e2" d="M 107.609375 146.296875 L 107.609375 122.441406 L 131.089844 122.441406 C 129.707031 134.839844 119.945312 144.710938 107.609375 146.296875 Z M 77.183594 122.441406 L 100.660156 122.441406 L 100.660156 146.296875 C 88.328125 144.710938 78.570312 134.839844 77.183594 122.441406 Z M 100.660156 92.527344 L 100.660156 115.496094 L 77.316406 115.496094 C 79.058594 103.523438 88.628906 94.074219 100.660156 92.527344 Z M 130.957031 115.496094 L 107.609375 115.496094 L 107.609375 92.527344 C 119.644531 94.074219 129.214844 103.523438 130.957031 115.496094 Z M 104.15625 85.332031 C 104.152344 85.332031 104.140625 85.332031 104.132812 85.332031 C 104.128906 85.332031 104.125 85.332031 104.117188 85.332031 C 85.335938 85.34375 70.054688 100.625 70.054688 119.410156 C 70.054688 138.203125 85.34375 153.492188 104.132812 153.492188 C 122.929688 153.492188 138.21875 138.203125 138.21875 119.410156 C 138.21875 100.625 122.941406 85.34375 104.15625 85.332031 " fill-opacity="1" fill-rule="nonzero"/><path fill="#22a1e2" d="M 73.523438 236.75 C 72.890625 236.75 72.25 236.574219 71.671875 236.210938 C 70.050781 235.1875 69.566406 233.042969 70.59375 231.417969 L 85.53125 207.800781 C 86.164062 206.792969 87.277344 206.183594 88.464844 206.183594 L 102.292969 206.183594 L 113.148438 184.484375 C 113.734375 183.308594 114.941406 182.566406 116.253906 182.566406 L 133.273438 182.566406 C 135.195312 182.566406 136.746094 184.117188 136.746094 186.039062 C 136.746094 187.953125 135.195312 189.511719 133.273438 189.511719 L 118.402344 189.511719 L 107.546875 211.210938 C 106.960938 212.386719 105.757812 213.128906 104.445312 213.128906 L 90.382812 213.128906 L 76.464844 235.132812 C 75.804688 236.175781 74.675781 236.75 73.523438 236.75 " fill-opacity="1" fill-rule="nonzero"/><path fill="#22a1e2" d="M 123.3125 201.832031 C 122.320312 201.832031 121.339844 201.40625 120.648438 200.59375 C 119.417969 199.125 119.609375 196.929688 121.078125 195.699219 L 133.101562 185.609375 L 120.789062 175.882812 C 119.28125 174.691406 119.027344 172.507812 120.214844 171.003906 C 121.402344 169.5 123.589844 169.242188 125.09375 170.433594 L 140.753906 182.804688 C 141.570312 183.449219 142.054688 184.433594 142.070312 185.480469 C 142.085938 186.519531 141.632812 187.519531 140.828125 188.1875 L 125.542969 201.015625 C 124.894531 201.566406 124.101562 201.832031 123.3125 201.832031 " fill-opacity="1" fill-rule="nonzero"/><path fill="#5271ff" d="M 241.136719 102.5625 L 168.886719 102.5625 C 166.964844 102.5625 165.414062 101.011719 165.414062 99.089844 C 165.414062 97.175781 166.964844 95.617188 168.886719 95.617188 L 241.136719 95.617188 C 243.050781 95.617188 244.609375 97.175781 244.609375 99.089844 C 244.609375 101.011719 243.050781 102.5625 241.136719 102.5625 " fill-opacity="1" fill-rule="nonzero"/><path fill="#5271ff" d="M 241.136719 122.882812 L 168.886719 122.882812 C 166.964844 122.882812 165.414062 121.332031 165.414062 119.410156 C 165.414062 117.492188 166.964844 115.9375 168.886719 115.9375 L 241.136719 115.9375 C 243.050781 115.9375 244.609375 117.492188 244.609375 119.410156 C 244.609375 121.332031 243.050781 122.882812 241.136719 122.882812 " fill-opacity="1" fill-rule="nonzero"/><path fill="#5271ff" d="M 241.136719 143.203125 L 168.886719 143.203125 C 166.964844 143.203125 165.414062 141.648438 165.414062 139.730469 C 165.414062 137.8125 166.964844 136.253906 168.886719 136.253906 L 241.136719 136.253906 C 243.050781 136.253906 244.609375 137.8125 244.609375 139.730469 C 244.609375 141.648438 243.050781 143.203125 241.136719 143.203125 " fill-opacity="1" fill-rule="nonzero"/><path fill="#5271ff" d="M 241.136719 186.371094 L 168.886719 186.371094 C 166.964844 186.371094 165.414062 184.816406 165.414062 182.894531 C 165.414062 180.980469 166.964844 179.421875 168.886719 179.421875 L 241.136719 179.421875 C 243.050781 179.421875 244.609375 180.980469 244.609375 182.894531 C 244.609375 184.816406 243.050781 186.371094 241.136719 186.371094 " fill-opacity="1" fill-rule="nonzero"/><path fill="#5271ff" d="M 241.136719 206.6875 L 168.886719 206.6875 C 166.964844 206.6875 165.414062 205.136719 165.414062 203.214844 C 165.414062 201.300781 166.964844 199.742188 168.886719 199.742188 L 241.136719 199.742188 C 243.050781 199.742188 244.609375 201.300781 244.609375 203.214844 C 244.609375 205.136719 243.050781 206.6875 241.136719 206.6875 " fill-opacity="1" fill-rule="nonzero"/><path fill="#5271ff" d="M 241.136719 227.007812 L 168.886719 227.007812 C 166.964844 227.007812 165.414062 225.457031 165.414062 223.535156 C 165.414062 221.617188 166.964844 220.0625 168.886719 220.0625 L 241.136719 220.0625 C 243.050781 220.0625 244.609375 221.617188 244.609375 223.535156 C 244.609375 225.457031 243.050781 227.007812 241.136719 227.007812 " fill-opacity="1" fill-rule="nonzero"/><path fill="#5271ff" d="M 241.136719 276.167969 L 168.886719 276.167969 C 166.964844 276.167969 165.414062 274.609375 165.414062 272.691406 C 165.414062 270.773438 166.964844 269.21875 168.886719 269.21875 L 241.136719 269.21875 C 243.050781 269.21875 244.609375 270.773438 244.609375 272.691406 C 244.609375 274.609375 243.050781 276.167969 241.136719 276.167969 " fill-opacity="1" fill-rule="nonzero"/><path fill="#5271ff" d="M 241.136719 296.484375 L 168.886719 296.484375 C 166.964844 296.484375 165.414062 294.929688 165.414062 293.011719 C 165.414062 291.089844 166.964844 289.539062 168.886719 289.539062 L 241.136719 289.539062 C 243.050781 289.539062 244.609375 291.089844 244.609375 293.011719 C 244.609375 294.929688 243.050781 296.484375 241.136719 296.484375 " fill-opacity="1" fill-rule="nonzero"/><path fill="#5271ff" d="M 241.136719 316.804688 L 168.886719 316.804688 C 166.964844 316.804688 165.414062 315.246094 165.414062 313.332031 C 165.414062 311.410156 166.964844 309.859375 168.886719 309.859375 L 241.136719 309.859375 C 243.050781 309.859375 244.609375 311.410156 244.609375 313.332031 C 244.609375 315.246094 243.050781 316.804688 241.136719 316.804688 " fill-opacity="1" fill-rule="nonzero"/><g clip-path="url(#id1)"><path fill="#5271ff" d="M 268.671875 348.742188 L 48.847656 348.742188 C 42.589844 348.742188 37.496094 343.648438 37.496094 337.390625 L 37.496094 49 C 37.496094 42.742188 42.589844 37.648438 48.847656 37.648438 L 228.1875 37.648438 C 233.433594 37.648438 240.386719 40.617188 244.015625 44.40625 L 273.613281 75.285156 C 277.210938 79.039062 280.027344 86.054688 280.027344 91.253906 L 280.027344 170.609375 C 280.027344 172.523438 278.46875 174.082031 276.554688 174.082031 C 274.632812 174.082031 273.082031 172.523438 273.082031 170.609375 L 273.082031 91.253906 C 273.082031 87.796875 270.984375 82.585938 268.597656 80.089844 L 239.003906 49.214844 C 236.648438 46.75 231.589844 44.597656 228.1875 44.597656 L 48.847656 44.597656 C 46.421875 44.597656 44.445312 46.570312 44.445312 49 L 44.445312 337.390625 C 44.445312 339.820312 46.421875 341.796875 48.847656 341.796875 L 268.671875 341.796875 C 271.105469 341.796875 273.082031 339.820312 273.082031 337.390625 L 273.082031 231.738281 C 273.082031 229.820312 274.632812 228.265625 276.554688 228.265625 C 278.46875 228.265625 280.027344 229.820312 280.027344 231.738281 L 280.027344 337.390625 C 280.027344 343.648438 274.929688 348.742188 268.671875 348.742188 " fill-opacity="1" fill-rule="nonzero"/></g><path fill="#5271ff" d="M 241.292969 51.867188 L 241.292969 76.496094 C 241.292969 78.921875 243.269531 80.898438 245.695312 80.898438 L 268.53125 80.898438 Z M 268.671875 87.84375 L 245.695312 87.84375 C 239.4375 87.84375 234.347656 82.753906 234.347656 76.496094 L 234.347656 50.96875 C 234.347656 45.453125 237.417969 43.5 240.050781 43.5 C 241.980469 43.5 243.898438 44.492188 245.742188 46.457031 L 273.695312 76.253906 C 276.988281 79.757812 276.457031 82.652344 275.84375 84.0625 C 275.234375 85.472656 273.488281 87.84375 268.671875 87.84375 " fill-opacity="1" fill-rule="nonzero"/><path fill="#22a1e2" d="M 266.636719 242.785156 L 250.648438 235.402344 L 319.363281 86.617188 L 335.351562 94 Z M 251.269531 254.996094 L 250.253906 243.015625 L 261.003906 247.984375 Z M 329.003906 76.742188 C 330.285156 76.742188 331.695312 77.09375 333.191406 77.785156 C 335.570312 78.886719 337.058594 80.351562 337.734375 82.273438 C 338.359375 84.046875 338.230469 85.960938 337.902344 87.53125 L 331.5 84.566406 L 322.582031 80.453125 C 323.929688 78.683594 326.066406 76.742188 329.003906 76.742188 Z M 344.308594 80.023438 C 343 76.265625 340.242188 73.386719 336.101562 71.476562 C 333.6875 70.359375 331.300781 69.792969 329.003906 69.792969 C 319.277344 69.792969 314.96875 79.464844 314.492188 80.605469 L 242.886719 235.640625 C 242.503906 236.476562 242.464844 237.433594 242.78125 238.296875 C 242.8125 238.386719 242.867188 238.464844 242.898438 238.546875 L 244.859375 261.679688 C 244.96875 262.929688 245.734375 264.027344 246.871094 264.546875 C 247.332031 264.757812 247.828125 264.867188 248.320312 264.867188 C 249.039062 264.867188 249.75 264.644531 250.351562 264.210938 L 269.03125 250.765625 C 270.074219 250.550781 271.007812 249.886719 271.492188 248.847656 L 343.085938 93.816406 C 343.402344 93.175781 346.566406 86.511719 344.308594 80.023438 " fill-opacity="1" fill-rule="nonzero"/></svg>