<svg xmlns="http://www.w3.org/2000/svg" xmlns:xlink="http://www.w3.org/1999/xlink" width="500" zoomAndPan="magnify" viewBox="0 0 375 374.999991" height="500" preserveAspectRatio="xMidYMid meet" version="1.0"><defs><clipPath id="id1"><path d="M 28.253906 205 L 34 205 L 34 219 L 28.253906 219 Z M 28.253906 205 " clip-rule="nonzero"/></clipPath><clipPath id="id2"><path d="M 28.253906 183 L 34 183 L 34 202 L 28.253906 202 Z M 28.253906 183 " clip-rule="nonzero"/></clipPath><clipPath id="id3"><path d="M 124 93.34375 L 179 93.34375 L 179 102 L 124 102 Z M 124 93.34375 " clip-rule="nonzero"/></clipPath><clipPath id="id4"><path d="M 205 93.34375 L 261 93.34375 L 261 102 L 205 102 Z M 205 93.34375 " clip-rule="nonzero"/></clipPath><clipPath id="id5"><path d="M 270 238 L 313 238 L 313 281.59375 L 270 281.59375 Z M 270 238 " clip-rule="nonzero"/></clipPath><clipPath id="id6"><path d="M 28.253906 95 L 292 95 L 292 102 L 28.253906 102 Z M 28.253906 95 " clip-rule="nonzero"/></clipPath><clipPath id="id7"><path d="M 60 239 L 103 239 L 103 281.59375 L 60 281.59375 Z M 60 239 " clip-rule="nonzero"/></clipPath></defs><path fill="#37394c" d="M 317.925781 258.796875 L 322.121094 234.488281 L 260.21875 234.488281 L 264.8125 263.128906 L 274.699219 263.128906 L 307.859375 251.136719 L 317.925781 258.796875 " fill-opacity="1" fill-rule="nonzero"/><path fill="#37394c" d="M 112.761719 260.523438 L 50.863281 260.523438 L 50.863281 234.488281 L 112.761719 234.488281 L 112.761719 260.523438 " fill-opacity="1" fill-rule="nonzero"/><g clip-path="url(#id1)"><path fill="#ed2e32" d="M 33.984375 216.214844 C 33.984375 217.683594 32.789062 218.878906 31.316406 218.878906 C 29.84375 218.878906 28.652344 217.683594 28.652344 216.214844 L 28.652344 207.898438 C 28.652344 206.425781 29.84375 205.238281 31.316406 205.238281 C 32.789062 205.238281 33.984375 206.425781 33.984375 207.898438 L 33.984375 216.214844 " fill-opacity="1" fill-rule="nonzero"/></g><g clip-path="url(#id2)"><path fill="#f6951e" d="M 33.984375 198.367188 C 33.984375 200.332031 32.789062 201.917969 31.316406 201.917969 C 29.84375 201.917969 28.652344 200.332031 28.652344 198.367188 L 28.652344 187.273438 C 28.652344 185.3125 29.84375 183.71875 31.316406 183.71875 C 32.789062 183.71875 33.984375 185.3125 33.984375 187.273438 L 33.984375 198.367188 " fill-opacity="1" fill-rule="nonzero"/></g><g clip-path="url(#id3)"><path fill="#ffffff" d="M 178.953125 97.527344 C 178.953125 99.839844 177.082031 101.710938 174.765625 101.710938 L 128.769531 101.710938 C 126.460938 101.710938 124.582031 99.839844 124.582031 97.527344 C 124.582031 95.21875 126.460938 93.34375 128.769531 93.34375 L 174.765625 93.34375 C 177.082031 93.34375 178.953125 95.21875 178.953125 97.527344 " fill-opacity="1" fill-rule="nonzero"/></g><g clip-path="url(#id4)"><path fill="#ffffff" d="M 260.21875 97.527344 C 260.21875 99.839844 258.34375 101.710938 256.03125 101.710938 L 210.035156 101.710938 C 207.722656 101.710938 205.847656 99.839844 205.847656 97.527344 C 205.847656 95.21875 207.722656 93.34375 210.035156 93.34375 L 256.03125 93.34375 C 258.34375 93.34375 260.21875 95.21875 260.21875 97.527344 " fill-opacity="1" fill-rule="nonzero"/></g><path fill="#7b9daa" d="M 343.390625 231.933594 C 343.390625 232.535156 342.902344 233.015625 342.308594 233.015625 C 341.710938 233.015625 341.230469 232.535156 341.230469 231.933594 L 341.230469 222.117188 C 341.230469 221.523438 341.710938 221.042969 342.308594 221.042969 C 342.902344 221.042969 343.390625 221.523438 343.390625 222.117188 L 343.390625 231.933594 " fill-opacity="1" fill-rule="nonzero"/><path fill="#fcfcfd" d="M 346.519531 212.464844 C 346.519531 216.1875 344.515625 219.207031 342.039062 219.207031 C 339.5625 219.207031 337.554688 216.1875 337.554688 212.464844 C 337.554688 208.742188 339.5625 205.722656 342.039062 205.722656 C 344.515625 205.722656 346.519531 208.742188 346.519531 212.464844 " fill-opacity="1" fill-rule="nonzero"/><path fill="#7b9daa" d="M 343.605469 219.207031 L 340.472656 219.207031 L 340.472656 205.722656 L 343.605469 205.722656 L 343.605469 219.207031 " fill-opacity="1" fill-rule="nonzero"/><path fill="#c3e9ee" d="M 342.199219 209.441406 C 342.199219 201.675781 335.675781 198.542969 335.675781 198.542969 L 307.859375 181.773438 L 288.40625 102.035156 L 31.476562 102.035156 L 31.476562 263.128906 L 55.585938 263.128906 C 55.585938 247.667969 65.957031 236.441406 81.433594 236.441406 C 96.90625 236.441406 108.039062 247.667969 108.039062 263.128906 L 264.8125 263.128906 C 265.25 234.597656 292.503906 236.441406 292.503906 236.441406 C 292.992188 236.441406 293.460938 236.457031 293.921875 236.476562 L 293.921875 236.417969 L 342.199219 236.464844 L 342.199219 209.441406 " fill-opacity="1" fill-rule="nonzero"/><path fill="#435672" d="M 290.199219 124.609375 C 290.199219 125.972656 289.402344 127.082031 288.414062 127.082031 C 287.433594 127.082031 286.636719 125.972656 286.636719 124.609375 C 286.636719 123.25 287.433594 122.144531 288.414062 122.144531 C 289.402344 122.144531 290.199219 123.25 290.199219 124.609375 " fill-opacity="1" fill-rule="nonzero"/><path fill="#7b9daa" d="M 344.3125 240.996094 L 344.3125 258.796875 L 317.925781 258.796875 C 316.851562 251.261719 312.226562 236.523438 292.503906 236.441406 C 292.503906 236.441406 292.203125 236.421875 291.65625 236.417969 L 291.65625 234.488281 L 342.199219 234.488281 C 342.199219 234.488281 344.800781 233.554688 344.3125 240.996094 " fill-opacity="1" fill-rule="nonzero"/><g clip-path="url(#id5)"><path fill="#1d1f26" d="M 312.976562 260.054688 C 312.976562 271.691406 303.535156 281.125 291.882812 281.125 C 280.230469 281.125 270.785156 271.691406 270.785156 260.054688 C 270.785156 248.417969 280.230469 238.984375 291.882812 238.984375 C 303.535156 238.984375 312.976562 248.417969 312.976562 260.054688 " fill-opacity="1" fill-rule="nonzero"/></g><path fill="#87becc" d="M 303.277344 260.054688 C 303.277344 266.339844 298.175781 271.4375 291.882812 271.4375 C 285.589844 271.4375 280.488281 266.339844 280.488281 260.054688 C 280.488281 253.765625 285.589844 248.671875 291.882812 248.671875 C 298.175781 248.671875 303.277344 253.765625 303.277344 260.054688 " fill-opacity="1" fill-rule="nonzero"/><path fill="#b0dfe3" d="M 300.285156 260.054688 C 300.285156 264.691406 296.523438 268.445312 291.882812 268.445312 C 287.242188 268.445312 283.480469 264.691406 283.480469 260.054688 C 283.480469 255.417969 287.242188 251.660156 291.882812 251.660156 C 296.523438 251.660156 300.285156 255.417969 300.285156 260.054688 " fill-opacity="1" fill-rule="nonzero"/><path fill="#c3e9ee" d="M 67.453125 198.410156 L 196.039062 198.410156 L 196.039062 127.589844 L 67.453125 127.589844 Z M 67.453125 198.410156 " fill-opacity="1" fill-rule="nonzero"/><path fill="#65a0a3" d="M 196.039062 198.410156 L 196.039062 197.386719 L 68.476562 197.386719 L 68.476562 128.613281 L 195.015625 128.613281 L 195.015625 198.410156 L 196.039062 198.410156 L 196.039062 197.386719 L 196.039062 198.410156 L 197.0625 198.410156 L 197.0625 126.566406 L 66.429688 126.566406 L 66.429688 199.433594 L 197.0625 199.433594 L 197.0625 198.410156 L 196.039062 198.410156 " fill-opacity="1" fill-rule="nonzero"/><path fill="#4d6f86" d="M 72.027344 198.410156 L 191.464844 198.410156 L 191.464844 127.527344 L 72.027344 127.527344 Z M 72.027344 198.410156 " fill-opacity="1" fill-rule="nonzero"/><path fill="#2e3146" d="M 288.902344 128.695312 C 290.417969 128.695312 291.957031 129.902344 292.320312 131.371094 L 304.113281 178.941406 C 304.480469 180.410156 303.539062 181.609375 302.023438 181.609375 L 275.945312 181.609375 C 274.425781 181.609375 273.191406 180.375 273.191406 178.859375 L 273.191406 131.449219 C 273.191406 129.9375 274.425781 128.695312 275.945312 128.695312 L 288.902344 128.695312 " fill-opacity="1" fill-rule="nonzero"/><path fill="#68cce7" d="M 288.882812 131.28125 C 290.25 131.28125 291.636719 132.367188 291.964844 133.691406 L 302.609375 176.617188 C 302.9375 177.945312 302.089844 179.03125 300.722656 179.03125 L 277.191406 179.03125 C 275.820312 179.03125 274.703125 177.910156 274.703125 176.546875 L 274.703125 133.761719 C 274.703125 132.398438 275.820312 131.28125 277.191406 131.28125 L 288.882812 131.28125 " fill-opacity="1" fill-rule="nonzero"/><path fill="#ed2e32" d="M 322.652344 201.40625 C 322.652344 202.6875 321.613281 203.726562 320.328125 203.726562 L 311.476562 203.726562 C 310.191406 203.726562 309.152344 202.6875 309.152344 201.40625 C 309.152344 200.128906 310.191406 199.085938 311.476562 199.085938 L 320.328125 199.085938 C 321.613281 199.085938 322.652344 200.128906 322.652344 201.40625 " fill-opacity="1" fill-rule="nonzero"/><path fill="#ed4552" d="M 311.476562 200.378906 L 320.328125 200.378906 C 321.386719 200.378906 322.277344 201.089844 322.558594 202.050781 C 322.617188 201.851562 322.652344 201.628906 322.652344 201.40625 C 322.652344 200.128906 321.613281 199.085938 320.328125 199.085938 L 311.476562 199.085938 C 310.191406 199.085938 309.152344 200.128906 309.152344 201.40625 C 309.152344 201.628906 309.1875 201.851562 309.246094 202.050781 C 309.527344 201.089844 310.417969 200.378906 311.476562 200.378906 " fill-opacity="1" fill-rule="nonzero"/><path fill="#435672" d="M 290.199219 189.808594 L 287.015625 189.808594 L 287.015625 184.578125 L 290.199219 184.578125 L 290.199219 189.808594 " fill-opacity="1" fill-rule="nonzero"/><path fill="#435672" d="M 299.433594 178.859375 C 299.433594 180.375 298.195312 181.699219 296.683594 181.804688 L 293.351562 182.035156 C 291.839844 182.144531 290.605469 180.988281 290.605469 179.476562 L 290.605469 145.042969 C 290.605469 143.53125 291.570312 143.066406 292.753906 144.015625 L 297.285156 147.65625 C 298.464844 148.605469 299.433594 150.621094 299.433594 152.132812 L 299.433594 178.859375 " fill-opacity="1" fill-rule="nonzero"/><path fill="#2e3146" d="M 288.949219 187.238281 L 288.53125 186.015625 L 294.507812 183.992188 C 295.6875 183.59375 296.679688 182.210938 296.679688 180.96875 L 296.679688 127.402344 C 296.679688 126.242188 295.734375 125.300781 294.574219 125.300781 L 288.742188 125.300781 L 288.742188 124.007812 L 294.574219 124.007812 C 296.445312 124.007812 297.972656 125.527344 297.972656 127.402344 L 297.972656 180.96875 C 297.972656 182.769531 296.636719 184.636719 294.925781 185.21875 L 288.949219 187.238281 " fill-opacity="1" fill-rule="nonzero"/><path fill="#36414c" d="M 302.414062 233.015625 L 304.144531 233.015625 L 304.144531 182.042969 L 302.414062 182.042969 Z M 302.414062 233.015625 " fill-opacity="1" fill-rule="nonzero"/><g clip-path="url(#id6)"><path fill="#8ea8ae" d="M 287.121094 95.902344 L 33.191406 95.902344 C 30.683594 95.902344 28.652344 98.609375 28.652344 101.945312 L 291.65625 101.945312 C 291.65625 98.609375 289.628906 95.902344 287.121094 95.902344 " fill-opacity="1" fill-rule="nonzero"/></g><path fill="#435672" d="M 283.953125 189.808594 C 283.953125 190.480469 283.40625 191.023438 282.738281 191.023438 L 275.199219 191.023438 C 274.53125 191.023438 273.984375 190.480469 273.984375 189.808594 C 273.984375 189.140625 274.53125 188.59375 275.199219 188.59375 L 282.738281 188.59375 C 283.40625 188.59375 283.953125 189.140625 283.953125 189.808594 " fill-opacity="1" fill-rule="nonzero"/><path fill="#538085" d="M 269.949219 234.488281 L 254.722656 258.796875 L 218.753906 258.796875 L 218.753906 121.144531 L 269.949219 121.144531 L 269.949219 234.488281 " fill-opacity="1" fill-rule="nonzero"/><path fill="#c3e9ee" d="M 221.289062 256.207031 L 253.535156 256.207031 L 267.550781 233.015625 L 267.550781 127.746094 L 221.289062 127.746094 L 221.289062 256.207031 " fill-opacity="1" fill-rule="nonzero"/><path fill="#435672" d="M 234.390625 189.808594 C 234.390625 190.480469 233.847656 191.023438 233.175781 191.023438 L 225.640625 191.023438 C 224.96875 191.023438 224.421875 190.480469 224.421875 189.808594 C 224.421875 189.140625 224.96875 188.59375 225.640625 188.59375 L 233.175781 188.59375 C 233.847656 188.59375 234.390625 189.140625 234.390625 189.808594 " fill-opacity="1" fill-rule="nonzero"/><path fill="#65a0a3" d="M 262.660156 265.269531 L 218.753906 265.269531 L 218.753906 263.128906 L 262.660156 263.128906 L 262.660156 265.269531 " fill-opacity="1" fill-rule="nonzero"/><path fill="#c3e9ee" d="M 264.292969 267.695312 L 216.816406 267.695312 L 216.816406 265.269531 L 264.292969 265.269531 L 264.292969 267.695312 " fill-opacity="1" fill-rule="nonzero"/><path fill="#445c61" d="M 206.210938 202.050781 L 33.984375 202.050781 L 33.984375 198.410156 L 206.210938 198.410156 L 206.210938 202.050781 " fill-opacity="1" fill-rule="nonzero"/><path fill="#ffffff" d="M 200.679688 205.5625 L 67.453125 205.5625 L 67.453125 201.917969 L 200.679688 201.917969 L 200.679688 205.5625 " fill-opacity="1" fill-rule="nonzero"/><path fill="#94cacc" d="M 200.679688 201.917969 L 67.453125 201.917969 L 67.453125 203.742188 L 200.679688 203.742188 L 200.679688 201.917969 " fill-opacity="1" fill-rule="nonzero"/><path fill="#94cacc" d="M 197.625 208.796875 L 72.027344 208.796875 L 72.027344 205.5625 L 197.625 205.5625 L 197.625 208.796875 " fill-opacity="1" fill-rule="nonzero"/><path fill="#2e3146" d="M 264.347656 182.945312 C 264.347656 184.375 263.1875 185.535156 261.753906 185.535156 L 227.085938 185.535156 C 225.652344 185.535156 224.492188 184.375 224.492188 182.945312 L 224.492188 133.871094 C 224.492188 132.441406 225.652344 131.28125 227.085938 131.28125 L 261.753906 131.28125 C 263.1875 131.28125 264.347656 132.441406 264.347656 133.871094 L 264.347656 182.945312 " fill-opacity="1" fill-rule="nonzero"/><path fill="#68cce7" d="M 261.917969 179.953125 C 261.917969 181.207031 260.898438 182.226562 259.644531 182.226562 L 229.199219 182.226562 C 227.941406 182.226562 226.921875 181.207031 226.921875 179.953125 L 226.921875 136.863281 C 226.921875 135.605469 227.941406 134.585938 229.199219 134.585938 L 259.644531 134.585938 C 260.898438 134.585938 261.917969 135.605469 261.917969 136.863281 L 261.917969 179.953125 " fill-opacity="1" fill-rule="nonzero"/><path fill="#fff9ef" d="M 204.765625 127.558594 L 58.671875 127.558594 L 77.585938 106.65625 L 185.851562 106.65625 L 204.765625 127.558594 " fill-opacity="1" fill-rule="nonzero"/><path fill="#ea252e" d="M 71.953125 127.59375 L 58.671875 127.59375 L 77.585938 106.65625 L 87.429688 106.65625 L 71.953125 127.59375 " fill-opacity="1" fill-rule="nonzero"/><path fill="#ea252e" d="M 98.515625 127.59375 L 85.234375 127.59375 L 97.269531 106.65625 L 107.109375 106.65625 L 98.515625 127.59375 " fill-opacity="1" fill-rule="nonzero"/><path fill="#ea252e" d="M 125.074219 127.59375 L 111.796875 127.59375 L 116.953125 106.65625 L 126.796875 106.65625 L 125.074219 127.59375 " fill-opacity="1" fill-rule="nonzero"/><path fill="#ea252e" d="M 151.640625 127.59375 L 138.359375 127.59375 L 136.640625 106.65625 L 146.480469 106.65625 L 151.640625 127.59375 " fill-opacity="1" fill-rule="nonzero"/><path fill="#ea252e" d="M 178.203125 127.59375 L 164.917969 127.59375 L 156.324219 106.65625 L 166.164062 106.65625 L 178.203125 127.59375 " fill-opacity="1" fill-rule="nonzero"/><path fill="#ea252e" d="M 204.765625 127.59375 L 191.484375 127.59375 L 176.007812 106.65625 L 185.851562 106.65625 L 204.765625 127.59375 " fill-opacity="1" fill-rule="nonzero"/><path fill="#c32028" d="M 72.019531 127.59375 C 72.019531 131.277344 69.03125 134.261719 65.34375 134.261719 C 61.660156 134.261719 58.671875 131.277344 58.671875 127.59375 L 72.019531 127.59375 " fill-opacity="1" fill-rule="nonzero"/><path fill="#c3e9ee" d="M 85.382812 127.59375 C 85.382812 131.277344 82.394531 134.261719 78.703125 134.261719 C 75.011719 134.261719 72.019531 131.277344 72.019531 127.59375 L 85.382812 127.59375 " fill-opacity="1" fill-rule="nonzero"/><path fill="#c32028" d="M 98.394531 127.59375 C 98.394531 131.277344 95.4375 134.261719 91.789062 134.261719 C 88.144531 134.261719 85.183594 131.277344 85.183594 127.59375 L 98.394531 127.59375 " fill-opacity="1" fill-rule="nonzero"/><path fill="#c3e9ee" d="M 111.945312 127.59375 C 111.945312 131.277344 108.882812 134.261719 105.113281 134.261719 C 101.339844 134.261719 98.28125 131.277344 98.28125 127.59375 L 111.945312 127.59375 " fill-opacity="1" fill-rule="nonzero"/><path fill="#c32028" d="M 125.027344 127.59375 C 125.027344 131.277344 122.082031 134.261719 118.453125 134.261719 C 114.820312 134.261719 111.878906 131.277344 111.878906 127.59375 L 125.027344 127.59375 " fill-opacity="1" fill-rule="nonzero"/><path fill="#c3e9ee" d="M 138.363281 127.59375 C 138.363281 131.277344 135.40625 134.261719 131.757812 134.261719 C 128.113281 134.261719 125.160156 131.277344 125.160156 127.59375 L 138.363281 127.59375 " fill-opacity="1" fill-rule="nonzero"/><path fill="#c32028" d="M 151.722656 127.59375 C 151.722656 131.277344 148.699219 134.261719 144.96875 134.261719 C 141.242188 134.261719 138.214844 131.277344 138.214844 127.59375 L 151.722656 127.59375 " fill-opacity="1" fill-rule="nonzero"/><path fill="#c3e9ee" d="M 165.097656 127.59375 C 165.097656 131.277344 162.117188 134.261719 158.441406 134.261719 C 154.765625 134.261719 151.789062 131.277344 151.789062 127.59375 L 165.097656 127.59375 " fill-opacity="1" fill-rule="nonzero"/><path fill="#c32028" d="M 178.285156 127.59375 C 178.285156 131.277344 175.300781 134.261719 171.617188 134.261719 C 167.929688 134.261719 164.945312 131.277344 164.945312 127.59375 L 178.285156 127.59375 " fill-opacity="1" fill-rule="nonzero"/><path fill="#c3e9ee" d="M 191.519531 127.59375 C 191.519531 131.277344 188.570312 134.261719 184.933594 134.261719 C 181.300781 134.261719 178.351562 131.277344 178.351562 127.59375 L 191.519531 127.59375 " fill-opacity="1" fill-rule="nonzero"/><path fill="#c32028" d="M 204.71875 127.59375 C 204.71875 131.277344 201.75 134.261719 198.078125 134.261719 C 194.414062 134.261719 191.441406 131.277344 191.441406 127.59375 L 204.71875 127.59375 " fill-opacity="1" fill-rule="nonzero"/><path fill="#ed2e32" d="M 47.582031 114.464844 C 47.582031 115.746094 46.542969 116.78125 45.261719 116.78125 L 38.835938 116.78125 C 37.554688 116.78125 36.511719 115.746094 36.511719 114.464844 C 36.511719 113.183594 37.554688 112.144531 38.835938 112.144531 L 45.261719 112.144531 C 46.542969 112.144531 47.582031 113.183594 47.582031 114.464844 " fill-opacity="1" fill-rule="nonzero"/><path fill="#ed2e32" d="M 48.472656 225.679688 C 48.472656 226.957031 47.433594 228 46.148438 228 L 39.722656 228 C 38.441406 228 37.402344 226.957031 37.402344 225.679688 C 37.402344 224.398438 38.441406 223.359375 39.722656 223.359375 L 46.148438 223.359375 C 47.433594 223.359375 48.472656 224.398438 48.472656 225.679688 " fill-opacity="1" fill-rule="nonzero"/><g clip-path="url(#id7)"><path fill="#1d1f26" d="M 102.710938 260.523438 C 102.710938 272.160156 93.265625 281.59375 81.617188 281.59375 C 69.964844 281.59375 60.519531 272.160156 60.519531 260.523438 C 60.519531 248.886719 69.964844 239.453125 81.617188 239.453125 C 93.265625 239.453125 102.710938 248.886719 102.710938 260.523438 " fill-opacity="1" fill-rule="nonzero"/></g><path fill="#87becc" d="M 93.011719 260.523438 C 93.011719 266.8125 87.910156 271.90625 81.617188 271.90625 C 75.324219 271.90625 70.222656 266.8125 70.222656 260.523438 C 70.222656 254.238281 75.324219 249.140625 81.617188 249.140625 C 87.910156 249.140625 93.011719 254.238281 93.011719 260.523438 " fill-opacity="1" fill-rule="nonzero"/><path fill="#b0dfe3" d="M 90.019531 260.523438 C 90.019531 265.160156 86.257812 268.917969 81.617188 268.917969 C 76.976562 268.917969 73.214844 265.160156 73.214844 260.523438 C 73.214844 255.886719 76.976562 252.132812 81.617188 252.132812 C 86.257812 252.132812 90.019531 255.886719 90.019531 260.523438 " fill-opacity="1" fill-rule="nonzero"/><path fill="#538085" d="M 221.289062 263.128906 L 218.753906 263.128906 L 218.753906 229.835938 L 221.289062 229.835938 L 221.289062 263.128906 " fill-opacity="1" fill-rule="nonzero"/><path fill="#d57f57" d="M 138.742188 155.609375 C 138.742188 155.609375 139.667969 153.882812 140.335938 154.359375 C 141.007812 154.835938 140.496094 160.34375 138.503906 159.835938 C 136.511719 159.324219 138.742188 155.609375 138.742188 155.609375 " fill-opacity="1" fill-rule="nonzero"/><path fill="#d57f57" d="M 123.042969 155.609375 C 123.042969 155.609375 122.117188 153.882812 121.445312 154.359375 C 120.773438 154.835938 121.285156 160.34375 123.273438 159.835938 C 125.273438 159.324219 123.042969 155.609375 123.042969 155.609375 " fill-opacity="1" fill-rule="nonzero"/><path fill="#f47e26" d="M 135.707031 187.546875 L 136.269531 171.652344 C 134.898438 171.367188 132.433594 171.238281 131.816406 171.09375 L 129.347656 171.09375 C 128.347656 171.328125 125.589844 171.617188 124.042969 172.003906 L 124.042969 187.546875 L 135.707031 187.546875 " fill-opacity="1" fill-rule="nonzero"/><path fill="#f47e26" d="M 141.429688 198.058594 C 141.894531 190.15625 143.769531 175.847656 143.769531 175.847656 C 143.789062 172.660156 138.226562 172.039062 138.226562 172.039062 C 137.597656 171.871094 136.722656 171.722656 135.84375 171.585938 C 135.84375 171.585938 133.539062 181.894531 131.777344 184.886719 L 131.0625 185.269531 L 130.351562 184.886719 C 128.585938 181.894531 126.285156 171.585938 126.285156 171.585938 C 125.40625 171.722656 124.53125 171.871094 123.902344 172.039062 C 123.902344 172.039062 118.335938 172.660156 118.359375 175.847656 C 118.359375 175.847656 120.234375 190.15625 120.699219 198.058594 L 141.429688 198.058594 " fill-opacity="1" fill-rule="nonzero"/><path fill="#d57f57" d="M 127.816406 162.269531 C 127.816406 162.269531 128.300781 167.644531 127.460938 171.902344 C 127.460938 171.902344 129.273438 175.347656 130.835938 175.722656 C 130.835938 175.722656 133.367188 173.015625 134.265625 171.675781 C 134.265625 171.675781 132.921875 168.375 133.503906 162.269531 L 127.816406 162.269531 " fill-opacity="1" fill-rule="nonzero"/><path fill="#f7a176" d="M 138.695312 146.496094 L 122.980469 146.496094 C 122.980469 146.496094 123.148438 161.585938 124.644531 164.542969 C 126.128906 167.476562 129.207031 168.800781 130.835938 168.757812 C 132.496094 168.800781 135.546875 167.476562 137.03125 164.542969 C 138.527344 161.585938 138.695312 146.496094 138.695312 146.496094 " fill-opacity="1" fill-rule="nonzero"/><path fill="#282c3d" d="M 126.605469 148.429688 C 125.328125 151.34375 124.105469 152.375 124.105469 152.375 C 124.207031 152.84375 124.125 156.765625 123.800781 156.84375 C 123.476562 156.925781 123.347656 155.996094 123.347656 155.996094 C 120.378906 143.089844 126.660156 142.28125 126.660156 142.28125 C 139.273438 139.582031 139.53125 148.625 139.53125 148.625 C 139.539062 155.699219 137.933594 157.25 137.675781 157.152344 C 137.417969 157.054688 137.675781 152.851562 137.675781 152.851562 C 136.824219 152.285156 135.621094 149.71875 135.570312 148.484375 C 135.570312 148.484375 133.371094 149.132812 131.175781 149.132812 C 128.984375 149.132812 126.605469 148.429688 126.605469 148.429688 " fill-opacity="1" fill-rule="nonzero"/><path fill="#c82a2b" d="M 120.175781 198.058594 L 141.808594 198.058594 L 141.75 196.851562 C 139.320312 193.457031 139.914062 172.148438 139.914062 172.148438 L 138.480469 171.855469 L 136.511719 185.257812 C 134.765625 185.316406 132.785156 185.34375 130.992188 185.355469 C 129.195312 185.34375 127.222656 185.316406 125.476562 185.257812 L 123.503906 171.855469 L 122.074219 172.148438 C 122.074219 172.148438 122.667969 193.457031 120.238281 196.851562 L 120.175781 198.058594 " fill-opacity="1" fill-rule="nonzero"/><path fill="#a2c3ca" d="M 143.285156 187.371094 C 143.285156 187.613281 143.09375 187.804688 142.859375 187.804688 L 119.898438 187.804688 C 119.65625 187.804688 119.464844 187.613281 119.464844 187.371094 C 119.464844 187.132812 119.65625 186.941406 119.898438 186.941406 L 142.859375 186.941406 C 143.09375 186.941406 143.285156 187.132812 143.285156 187.371094 " fill-opacity="1" fill-rule="nonzero"/><path fill="#d57f57" d="M 111.316406 181.988281 L 100.753906 190.855469 L 105.441406 190.855469 L 114.472656 185.660156 L 111.316406 181.988281 " fill-opacity="1" fill-rule="nonzero"/><path fill="#f47e26" d="M 119.464844 173.714844 L 108.679688 182.714844 L 110.863281 188.890625 L 119.464844 184.136719 L 119.464844 173.714844 " fill-opacity="1" fill-rule="nonzero"/><path fill="#f5a23e" d="M 109.128906 181.660156 L 113.054688 188.113281 L 110.792969 189.710938 L 107.046875 183.242188 L 109.128906 181.660156 " fill-opacity="1" fill-rule="nonzero"/><path fill="#f7a176" d="M 120.730469 187.875 C 120.730469 187.875 103.285156 194.769531 101.21875 194.019531 C 99.6875 193.460938 99.625 190.957031 101.304688 190.238281 C 102.992188 189.519531 120.085938 185.914062 120.085938 185.914062 L 120.730469 187.875 " fill-opacity="1" fill-rule="nonzero"/><path fill="#d57f57" d="M 150.863281 181.988281 L 161.425781 190.855469 L 156.738281 190.855469 L 147.703125 185.660156 L 150.863281 181.988281 " fill-opacity="1" fill-rule="nonzero"/><path fill="#f47e26" d="M 142.710938 173.714844 L 153.5 182.714844 L 151.316406 188.890625 L 142.710938 184.136719 L 142.710938 173.714844 " fill-opacity="1" fill-rule="nonzero"/><path fill="#f5a23e" d="M 153.046875 181.660156 L 149.121094 188.113281 L 151.386719 189.710938 L 155.132812 183.242188 L 153.046875 181.660156 " fill-opacity="1" fill-rule="nonzero"/><path fill="#f7a176" d="M 141.449219 187.875 C 141.449219 187.875 158.894531 194.769531 160.957031 194.019531 C 162.492188 193.460938 162.554688 190.957031 160.871094 190.238281 C 159.1875 189.519531 142.089844 185.914062 142.089844 185.914062 L 141.449219 187.875 " fill-opacity="1" fill-rule="nonzero"/><path fill="#f7a176" d="M 144.097656 186.320312 C 144.097656 186.320312 141.953125 184.980469 141.277344 186.191406 L 141 187.546875 C 141 187.546875 138.558594 187.082031 137.957031 188.113281 C 137.957031 188.113281 137.859375 188.386719 138.34375 188.410156 C 138.34375 188.410156 137.382812 189.03125 138.300781 189.351562 C 138.300781 189.351562 137.511719 189.816406 138.269531 190.070312 C 138.269531 190.070312 137.828125 190.554688 138.773438 190.816406 C 139.898438 191.136719 142.828125 191.980469 144.03125 187.6875 L 144.097656 186.320312 " fill-opacity="1" fill-rule="nonzero"/><path fill="#f7a176" d="M 118.140625 186.320312 C 118.140625 186.320312 120.285156 184.980469 120.957031 186.191406 L 121.238281 187.546875 C 121.238281 187.546875 123.679688 187.082031 124.285156 188.113281 C 124.285156 188.113281 124.378906 188.386719 123.894531 188.410156 C 123.894531 188.410156 124.855469 189.03125 123.9375 189.351562 C 123.9375 189.351562 124.722656 189.816406 123.972656 190.070312 C 123.972656 190.070312 124.40625 190.554688 123.464844 190.816406 C 122.339844 191.136719 119.410156 191.980469 118.203125 187.6875 L 118.140625 186.320312 " fill-opacity="1" fill-rule="nonzero"/><path fill="#4c211d" d="M 131.175781 161.1875 C 131.175781 161.1875 130.007812 160.921875 128.8125 161.386719 C 127.617188 161.851562 126.464844 162.359375 125.753906 161.851562 C 125.753906 161.851562 128.113281 164.085938 131.175781 162.269531 L 131.175781 161.1875 " fill-opacity="1" fill-rule="nonzero"/><path fill="#282c3d" d="M 136.578125 161.851562 C 135.867188 162.359375 134.714844 161.851562 133.519531 161.386719 C 132.382812 160.945312 131.269531 161.164062 131.167969 161.183594 C 131.0625 161.164062 129.953125 160.945312 128.8125 161.386719 C 127.617188 161.851562 126.464844 162.359375 125.753906 161.851562 C 125.753906 161.851562 128.109375 164.078125 131.167969 162.277344 C 134.226562 164.078125 136.578125 161.851562 136.578125 161.851562 " fill-opacity="1" fill-rule="nonzero"/><path fill="#f5eef4" d="M 123.96875 144.070312 C 123.96875 144.070312 132.515625 143.207031 138.117188 144.988281 C 138.117188 144.988281 136.761719 138.554688 136.085938 138.324219 C 133.066406 137.300781 132.472656 136.753906 130.683594 136.445312 C 130.683594 136.445312 127.816406 137.621094 126.167969 138.296875 C 126.167969 138.296875 124.472656 140.78125 123.96875 144.070312 " fill-opacity="1" fill-rule="nonzero"/><path fill="#c3212a" d="M 130.023438 137.648438 C 129.429688 137.355469 127.789062 137.757812 126.613281 138.113281 C 126.460938 138.179688 126.308594 138.242188 126.167969 138.296875 C 126.167969 138.296875 125.992188 138.558594 125.734375 139.019531 C 127.375 138.449219 129.386719 138.335938 129.386719 138.335938 C 130.164062 139.183594 130.304688 142.574219 130.332031 143.882812 C 130.546875 143.890625 130.761719 143.894531 130.984375 143.90625 C 130.964844 142.417969 130.828125 138.050781 130.023438 137.648438 " fill-opacity="1" fill-rule="nonzero"/><path fill="#c3212a" d="M 136.546875 139.09375 C 136.378906 138.660156 136.21875 138.371094 136.085938 138.324219 C 135.886719 138.257812 135.699219 138.191406 135.519531 138.128906 C 134.34375 137.769531 132.667969 137.347656 132.0625 137.648438 C 131.253906 138.050781 131.121094 142.425781 131.101562 143.914062 C 131.320312 143.921875 131.535156 143.933594 131.75 143.945312 C 131.773438 142.683594 131.910156 139.195312 132.699219 138.335938 C 132.699219 138.335938 134.875 138.457031 136.546875 139.09375 " fill-opacity="1" fill-rule="nonzero"/><path fill="#b92828" d="M 188.28125 198.382812 C 188.390625 197.699219 189.777344 188.605469 188.277344 184.742188 L 185.683594 184.773438 L 183.089844 184.753906 C 181.589844 188.617188 182.976562 197.699219 183.082031 198.382812 L 188.28125 198.382812 " fill-opacity="1" fill-rule="nonzero"/><path fill="#c12c2f" d="M 183.085938 184.773438 C 183.085938 185.039062 184.253906 185.25 185.683594 185.25 C 187.113281 185.25 188.277344 185.039062 188.277344 184.773438 C 188.277344 184.507812 187.113281 184.289062 185.683594 184.289062 C 184.253906 184.289062 183.085938 184.507812 183.085938 184.773438 " fill-opacity="1" fill-rule="nonzero"/><path fill="#992327" d="M 185.65625 184.992188 C 184.636719 184.992188 183.808594 184.859375 183.808594 184.699219 C 183.808594 184.535156 184.636719 184.402344 185.65625 184.402344 C 186.675781 184.402344 187.503906 184.535156 187.503906 184.699219 C 187.503906 184.859375 186.675781 184.992188 185.65625 184.992188 " fill-opacity="1" fill-rule="nonzero"/><path fill="#bddbe8" d="M 183.964844 184.570312 C 183.964844 184.757812 184.734375 184.914062 185.683594 184.914062 C 186.632812 184.914062 187.402344 184.757812 187.402344 184.570312 L 186.980469 182.917969 L 184.351562 182.917969 L 183.964844 184.570312 " fill-opacity="1" fill-rule="nonzero"/><path fill="#cfe3eb" d="M 184.351562 182.917969 C 184.351562 183.0625 184.941406 183.179688 185.667969 183.179688 C 186.394531 183.179688 186.980469 183.0625 186.980469 182.917969 C 186.980469 182.769531 186.394531 182.65625 185.667969 182.65625 C 184.941406 182.65625 184.351562 182.769531 184.351562 182.917969 " fill-opacity="1" fill-rule="nonzero"/><path fill="#78a0aa" d="M 185.171875 182.867188 C 185.171875 182.945312 185.386719 183.003906 185.65625 183.003906 C 185.921875 183.003906 186.140625 182.945312 186.140625 182.867188 C 186.140625 182.792969 185.921875 182.730469 185.65625 182.730469 C 185.386719 182.730469 185.171875 182.792969 185.171875 182.867188 " fill-opacity="1" fill-rule="nonzero"/><path fill="#bddbe8" d="M 185.226562 182.808594 C 185.226562 182.894531 185.429688 182.964844 185.683594 182.964844 C 185.933594 182.964844 186.140625 182.894531 186.140625 182.808594 L 185.914062 180.292969 L 185.449219 180.292969 L 185.226562 182.808594 " fill-opacity="1" fill-rule="nonzero"/><path fill="#cfe3eb" d="M 185.449219 180.292969 C 185.449219 180.359375 185.554688 180.410156 185.679688 180.410156 C 185.808594 180.410156 185.914062 180.359375 185.914062 180.292969 C 185.914062 180.226562 185.808594 180.171875 185.679688 180.171875 C 185.554688 180.171875 185.449219 180.226562 185.449219 180.292969 " fill-opacity="1" fill-rule="nonzero"/><path fill="#7aaab7" d="M 185.507812 180.292969 C 185.507812 180.335938 185.585938 180.363281 185.683594 180.363281 C 185.78125 180.363281 185.859375 180.335938 185.859375 180.292969 C 185.859375 180.25 185.78125 180.21875 185.683594 180.21875 C 185.585938 180.21875 185.507812 180.25 185.507812 180.292969 " fill-opacity="1" fill-rule="nonzero"/><path fill="#f0b724" d="M 180.613281 198.382812 C 180.722656 197.699219 182.109375 188.605469 180.609375 184.742188 L 178.015625 184.773438 L 175.421875 184.753906 C 173.921875 188.617188 175.308594 197.699219 175.414062 198.382812 L 180.613281 198.382812 " fill-opacity="1" fill-rule="nonzero"/><path fill="#b07324" d="M 175.421875 184.773438 C 175.421875 185.039062 176.582031 185.25 178.015625 185.25 C 179.445312 185.25 180.609375 185.039062 180.609375 184.773438 C 180.609375 184.507812 179.445312 184.289062 178.015625 184.289062 C 176.582031 184.289062 175.421875 184.507812 175.421875 184.773438 " fill-opacity="1" fill-rule="nonzero"/><path fill="#9b5e24" d="M 177.988281 184.992188 C 176.96875 184.992188 176.140625 184.859375 176.140625 184.699219 C 176.140625 184.535156 176.96875 184.402344 177.988281 184.402344 C 179.007812 184.402344 179.835938 184.535156 179.835938 184.699219 C 179.835938 184.859375 179.007812 184.992188 177.988281 184.992188 " fill-opacity="1" fill-rule="nonzero"/><path fill="#bddbe8" d="M 176.296875 184.570312 C 176.296875 184.757812 177.066406 184.914062 178.015625 184.914062 C 178.964844 184.914062 179.734375 184.757812 179.734375 184.570312 L 179.316406 182.917969 L 176.683594 182.917969 L 176.296875 184.570312 " fill-opacity="1" fill-rule="nonzero"/><path fill="#cfe3eb" d="M 176.683594 182.917969 C 176.683594 183.0625 177.273438 183.179688 178 183.179688 C 178.726562 183.179688 179.316406 183.0625 179.316406 182.917969 C 179.316406 182.769531 178.726562 182.65625 178 182.65625 C 177.273438 182.65625 176.683594 182.769531 176.683594 182.917969 " fill-opacity="1" fill-rule="nonzero"/><path fill="#78a0aa" d="M 177.503906 182.867188 C 177.503906 182.945312 177.71875 183.003906 177.988281 183.003906 C 178.253906 183.003906 178.472656 182.945312 178.472656 182.867188 C 178.472656 182.792969 178.253906 182.730469 177.988281 182.730469 C 177.71875 182.730469 177.503906 182.792969 177.503906 182.867188 " fill-opacity="1" fill-rule="nonzero"/><path fill="#bddbe8" d="M 177.558594 182.808594 C 177.558594 182.894531 177.761719 182.964844 178.015625 182.964844 C 178.265625 182.964844 178.472656 182.894531 178.472656 182.808594 L 178.246094 180.292969 L 177.78125 180.292969 L 177.558594 182.808594 " fill-opacity="1" fill-rule="nonzero"/><path fill="#cfe3eb" d="M 177.78125 180.292969 C 177.78125 180.359375 177.886719 180.410156 178.011719 180.410156 C 178.140625 180.410156 178.246094 180.359375 178.246094 180.292969 C 178.246094 180.226562 178.140625 180.171875 178.011719 180.171875 C 177.886719 180.171875 177.78125 180.226562 177.78125 180.292969 " fill-opacity="1" fill-rule="nonzero"/><path fill="#7aaab7" d="M 177.839844 180.292969 C 177.839844 180.335938 177.917969 180.363281 178.015625 180.363281 C 178.113281 180.363281 178.191406 180.335938 178.191406 180.292969 C 178.191406 180.25 178.113281 180.21875 178.015625 180.21875 C 177.917969 180.21875 177.839844 180.25 177.839844 180.292969 " fill-opacity="1" fill-rule="nonzero"/><path fill="#e2d4ae" d="M 172.945312 198.382812 C 173.054688 197.699219 174.441406 188.605469 172.941406 184.742188 L 170.347656 184.773438 L 167.753906 184.753906 C 166.253906 188.617188 167.640625 197.699219 167.75 198.382812 L 172.945312 198.382812 " fill-opacity="1" fill-rule="nonzero"/><path fill="#b99e64" d="M 167.753906 184.773438 C 167.753906 185.039062 168.914062 185.25 170.347656 185.25 C 171.777344 185.25 172.941406 185.039062 172.941406 184.773438 C 172.941406 184.507812 171.777344 184.289062 170.347656 184.289062 C 168.914062 184.289062 167.753906 184.507812 167.753906 184.773438 " fill-opacity="1" fill-rule="nonzero"/><path fill="#a0824b" d="M 170.320312 184.992188 C 169.300781 184.992188 168.472656 184.859375 168.472656 184.699219 C 168.472656 184.535156 169.300781 184.402344 170.320312 184.402344 C 171.339844 184.402344 172.167969 184.535156 172.167969 184.699219 C 172.167969 184.859375 171.339844 184.992188 170.320312 184.992188 " fill-opacity="1" fill-rule="nonzero"/><path fill="#bddbe8" d="M 168.628906 184.570312 C 168.628906 184.757812 169.398438 184.914062 170.347656 184.914062 C 171.296875 184.914062 172.066406 184.757812 172.066406 184.570312 L 171.648438 182.917969 L 169.015625 182.917969 L 168.628906 184.570312 " fill-opacity="1" fill-rule="nonzero"/><path fill="#cfe3eb" d="M 169.015625 182.917969 C 169.015625 183.0625 169.605469 183.179688 170.332031 183.179688 C 171.058594 183.179688 171.648438 183.0625 171.648438 182.917969 C 171.648438 182.769531 171.058594 182.65625 170.332031 182.65625 C 169.605469 182.65625 169.015625 182.769531 169.015625 182.917969 " fill-opacity="1" fill-rule="nonzero"/><path fill="#78a0aa" d="M 169.835938 182.867188 C 169.835938 182.945312 170.050781 183.003906 170.320312 183.003906 C 170.585938 183.003906 170.804688 182.945312 170.804688 182.867188 C 170.804688 182.792969 170.585938 182.730469 170.320312 182.730469 C 170.050781 182.730469 169.835938 182.792969 169.835938 182.867188 " fill-opacity="1" fill-rule="nonzero"/><path fill="#bddbe8" d="M 169.890625 182.808594 C 169.890625 182.894531 170.09375 182.964844 170.347656 182.964844 C 170.597656 182.964844 170.804688 182.894531 170.804688 182.808594 L 170.578125 180.292969 L 170.113281 180.292969 L 169.890625 182.808594 " fill-opacity="1" fill-rule="nonzero"/><path fill="#cfe3eb" d="M 170.113281 180.292969 C 170.113281 180.359375 170.21875 180.410156 170.34375 180.410156 C 170.472656 180.410156 170.578125 180.359375 170.578125 180.292969 C 170.578125 180.226562 170.472656 180.171875 170.34375 180.171875 C 170.21875 180.171875 170.113281 180.226562 170.113281 180.292969 " fill-opacity="1" fill-rule="nonzero"/><path fill="#7aaab7" d="M 170.171875 180.292969 C 170.171875 180.335938 170.25 180.363281 170.347656 180.363281 C 170.445312 180.363281 170.523438 180.335938 170.523438 180.292969 C 170.523438 180.25 170.445312 180.21875 170.347656 180.21875 C 170.25 180.21875 170.171875 180.25 170.171875 180.292969 " fill-opacity="1" fill-rule="nonzero"/><path fill="#e79730" d="M 122.421875 186.140625 C 122.421875 186.53125 122.734375 186.851562 123.117188 186.851562 L 132.144531 186.851562 C 132.527344 186.851562 132.835938 186.53125 132.835938 186.140625 L 132.835938 185.8125 L 122.421875 185.8125 L 122.421875 186.140625 " fill-opacity="1" fill-rule="nonzero"/><path fill="#3fb93c" d="M 132.921875 185.527344 L 132.695312 185.421875 L 122.535156 185.382812 L 122.246094 185.460938 C 122.246094 185.460938 122.054688 185.742188 122.074219 186.027344 L 122.414062 185.921875 C 122.414062 185.921875 122.386719 186.101562 122.414062 186.242188 C 122.414062 186.242188 122.785156 186.027344 122.933594 186.039062 L 122.839844 186.332031 C 122.839844 186.332031 123.386719 186.011719 123.601562 186 L 123.601562 186.242188 C 123.601562 186.242188 124.105469 185.949219 124.332031 185.929688 L 124.332031 186.253906 C 124.332031 186.253906 124.816406 185.910156 125.09375 185.929688 L 125.164062 186.230469 C 125.164062 186.230469 125.546875 186.011719 125.789062 185.929688 L 125.867188 186.21875 C 125.867188 186.21875 126.199219 185.976562 126.398438 185.929688 L 126.589844 186.253906 C 126.589844 186.253906 126.9375 185.976562 127.097656 185.929688 L 127.5625 186.179688 L 128.027344 185.929688 C 128.191406 185.976562 128.535156 186.253906 128.535156 186.253906 L 128.722656 185.929688 C 128.921875 185.976562 129.253906 186.21875 129.253906 186.21875 L 129.335938 185.929688 C 129.574219 186.011719 129.964844 186.230469 129.964844 186.230469 L 130.03125 185.929688 C 130.3125 185.910156 130.789062 186.253906 130.789062 186.253906 L 130.789062 185.929688 C 131.015625 185.949219 131.527344 186.242188 131.527344 186.242188 L 131.527344 186 C 131.738281 186.011719 132.285156 186.332031 132.285156 186.332031 L 132.191406 186.039062 C 132.335938 186.027344 132.710938 186.242188 132.710938 186.242188 C 132.738281 186.101562 132.710938 185.921875 132.710938 185.921875 L 133.054688 186.027344 C 133.074219 185.742188 132.921875 185.527344 132.921875 185.527344 " fill-opacity="1" fill-rule="nonzero"/><path fill="#502c1c" d="M 133.003906 184.65625 C 133.003906 185.023438 132.589844 185.3125 132.078125 185.3125 L 123.046875 185.3125 C 122.535156 185.3125 122.125 185.023438 122.125 184.65625 L 122.125 184.496094 C 122.125 184.132812 122.535156 183.839844 123.046875 183.839844 L 132.078125 183.839844 C 132.589844 183.839844 133.003906 184.132812 133.003906 184.496094 L 133.003906 184.65625 " fill-opacity="1" fill-rule="nonzero"/><path fill="#e3a659" d="M 122.269531 183.835938 C 122.269531 183.835938 123.402344 184.53125 124.152344 184.871094 C 124.152344 184.871094 125.230469 184.605469 127.382812 183.527344 C 127.382812 183.527344 123.019531 182.628906 122.269531 183.835938 " fill-opacity="1" fill-rule="nonzero"/><path fill="#e3a659" d="M 132.144531 184.132812 C 132.144531 184.132812 131.011719 184.824219 130.261719 185.167969 C 130.261719 185.167969 129.1875 184.902344 127.03125 183.824219 C 127.03125 183.824219 131.394531 182.925781 132.144531 184.132812 " fill-opacity="1" fill-rule="nonzero"/><path fill="#3fb93c" d="M 132.921875 183.527344 L 132.710938 183.09375 L 122.414062 183.09375 L 122.199219 183.527344 C 122.199219 183.527344 122.054688 183.75 122.074219 184.027344 L 122.414062 183.929688 C 122.414062 183.929688 122.386719 184.105469 122.414062 184.246094 C 122.414062 184.246094 122.785156 184.027344 122.933594 184.042969 L 122.839844 184.335938 C 122.839844 184.335938 123.386719 184.015625 123.601562 184.003906 L 123.601562 184.246094 C 123.601562 184.246094 124.105469 183.953125 124.332031 183.929688 L 124.332031 184.261719 C 124.332031 184.261719 124.816406 183.914062 125.09375 183.929688 L 125.164062 184.234375 C 125.164062 184.234375 125.546875 184.015625 125.789062 183.929688 L 125.867188 184.21875 C 125.867188 184.21875 126.199219 183.976562 126.398438 183.929688 L 126.589844 184.261719 C 126.589844 184.261719 126.9375 183.976562 127.097656 183.929688 L 127.5625 184.179688 L 128.027344 183.929688 C 128.191406 183.976562 128.535156 184.261719 128.535156 184.261719 L 128.722656 183.929688 C 128.921875 183.976562 129.253906 184.21875 129.253906 184.21875 L 129.335938 183.929688 C 129.574219 184.015625 129.964844 184.234375 129.964844 184.234375 L 130.03125 183.929688 C 130.3125 183.914062 130.789062 184.261719 130.789062 184.261719 L 130.789062 183.929688 C 131.015625 183.953125 131.527344 184.246094 131.527344 184.246094 L 131.527344 184.003906 C 131.738281 184.015625 132.285156 184.335938 132.285156 184.335938 L 132.191406 184.042969 C 132.335938 184.027344 132.710938 184.246094 132.710938 184.246094 C 132.738281 184.105469 132.710938 183.929688 132.710938 183.929688 L 133.054688 184.027344 C 133.074219 183.75 132.921875 183.527344 132.921875 183.527344 " fill-opacity="1" fill-rule="nonzero"/><path fill="#e83432" d="M 133.191406 183.3125 C 133.191406 183.433594 133.054688 183.527344 132.890625 183.527344 L 122.269531 183.527344 C 122.101562 183.527344 121.964844 183.433594 121.964844 183.3125 C 121.964844 183.191406 122.101562 183.09375 122.269531 183.09375 L 132.890625 183.09375 C 133.054688 183.09375 133.191406 183.191406 133.191406 183.3125 " fill-opacity="1" fill-rule="nonzero"/><path fill="#e83432" d="M 132.910156 185.460938 C 132.910156 185.582031 132.78125 185.679688 132.621094 185.679688 L 122.539062 185.679688 C 122.375 185.679688 122.246094 185.582031 122.246094 185.460938 C 122.246094 185.34375 122.375 185.246094 122.539062 185.246094 L 132.621094 185.246094 C 132.78125 185.246094 132.910156 185.34375 132.910156 185.460938 " fill-opacity="1" fill-rule="nonzero"/><path fill="#f5aa2f" d="M 133.160156 182.800781 C 133.160156 179.726562 130.707031 179.085938 127.632812 179.085938 C 124.550781 179.085938 122.011719 179.726562 122.011719 182.800781 L 122.199219 183.09375 L 132.921875 183.09375 L 133.160156 182.800781 " fill-opacity="1" fill-rule="nonzero"/><path fill="#ffffff" d="M 137.4375 179.085938 L 138.769531 172.945312 C 138.824219 172.699219 139.082031 172.4375 139.328125 172.378906 L 141.0625 171.972656 L 141.023438 171.789062 L 139.285156 172.199219 C 138.964844 172.273438 138.65625 172.585938 138.585938 172.90625 L 137.257812 179.046875 L 137.4375 179.085938 " fill-opacity="1" fill-rule="nonzero"/><path fill="#359490" d="M 134.183594 186.808594 L 138.75 186.808594 L 139.40625 176.996094 L 133.53125 176.996094 L 134.183594 186.808594 " fill-opacity="1" fill-rule="nonzero"/><path fill="#ffffff" d="M 133.347656 177.070312 L 133.332031 176.96875 C 133.332031 176.738281 133.515625 176.550781 133.746094 176.550781 L 139.195312 176.550781 C 139.421875 176.550781 139.605469 176.738281 139.605469 176.96875 L 139.59375 177.070312 L 133.347656 177.070312 " fill-opacity="1" fill-rule="nonzero"/></svg>