<svg xmlns="http://www.w3.org/2000/svg" xmlns:xlink="http://www.w3.org/1999/xlink" width="500" zoomAndPan="magnify" viewBox="0 0 375 374.999991" height="500" preserveAspectRatio="xMidYMid meet" version="1.0"><defs><clipPath id="id1"><path d="M 191 73 L 340.5 73 L 340.5 223 L 191 223 Z M 191 73 " clip-rule="nonzero"/></clipPath></defs><path fill="#38b6ff" d="M 162.816406 59.554688 C 146.242188 61.171875 130.203125 65.84375 115.539062 73.328125 C 102.078125 80.21875 92.742188 87.046875 81.972656 97.828125 C 73.710938 106.09375 67.964844 113.460938 62.222656 123.046875 C 37.507812 164.136719 37.507812 216.183594 62.222656 257.210938 C 97.648438 316.089844 171.433594 337.832031 232.414062 307.402344 C 265.148438 291.050781 289.984375 261.402344 300.15625 226.484375 C 302.191406 219.359375 304.945312 205.28125 304.40625 204.683594 C 304.226562 204.5625 303.148438 205.042969 302.015625 205.765625 C 299.980469 207.082031 299.855469 207.441406 298.660156 213.789062 C 295.667969 229.65625 286.875 250.683594 278.496094 261.761719 L 277.117188 263.675781 L 269.457031 261.039062 C 260.421875 257.925781 248.09375 254.75 239.355469 253.3125 C 235.886719 252.710938 232.832031 252.054688 232.59375 251.816406 C 232.292969 251.574219 232.894531 247.742188 233.910156 243.371094 C 235.648438 235.765625 237.621094 223.183594 238.460938 214.683594 L 238.878906 210.789062 L 236.785156 209.769531 L 234.628906 208.753906 L 234.273438 212.167969 C 232.65625 227.742188 228.828125 249.421875 227.507812 250.742188 C 227.210938 251.042969 223.800781 250.859375 219.851562 250.382812 C 192.742188 246.90625 160.363281 246.785156 131.941406 250.082031 C 126.375 250.679688 121.707031 251.21875 121.644531 251.21875 C 120.929688 251.21875 117.097656 231.992188 115.839844 221.871094 C 115.0625 215.757812 113.6875 197.910156 113.6875 193.539062 C 113.6875 192.582031 116.441406 192.519531 163.65625 192.519531 C 191.125 192.519531 213.625 192.339844 213.625 192.160156 C 213.625 191.980469 212.90625 190.902344 212.070312 189.765625 L 210.511719 187.726562 L 113.625 187.726562 L 113.988281 180.363281 C 114.527344 169.878906 115.902344 156.585938 117.335938 148.257812 C 118.59375 140.890625 121.046875 129.808594 121.644531 129.269531 C 121.765625 129.089844 125.117188 129.390625 129.003906 129.871094 C 144.925781 131.90625 153.242188 132.324219 175.742188 132.324219 C 190.167969 132.324219 198.84375 132.085938 199.144531 131.726562 C 199.503906 131.363281 199.921875 130.226562 200.160156 129.148438 L 200.578125 127.171875 L 196.152344 127.652344 C 189.570312 128.308594 156.476562 128.128906 146.898438 127.289062 C 138.160156 126.570312 123.082031 124.835938 122.78125 124.59375 C 122.542969 124.296875 127.269531 110.9375 129.542969 105.667969 C 141.691406 77.214844 160.84375 61.164062 179.09375 64.222656 C 187.46875 65.597656 197.226562 71.828125 204.105469 80.03125 C 207.699219 84.347656 212.785156 91.953125 215.058594 96.503906 C 215.898438 98.242188 216.855469 99.679688 217.09375 99.679688 C 217.394531 99.679688 218.234375 99.019531 218.949219 98.242188 L 220.324219 96.742188 L 218.351562 93.269531 C 212.488281 82.792969 204.347656 72.910156 197.527344 67.941406 C 195.554688 66.503906 193.996094 65.246094 194.058594 65.125 C 194.179688 65.0625 196.929688 65.542969 200.164062 66.203125 C 212.3125 68.660156 229.246094 75.25 239.359375 81.417969 C 242.46875 83.332031 242.953125 83.453125 244.804688 82.855469 C 245.945312 82.4375 247.019531 81.957031 247.320312 81.773438 C 247.917969 81.234375 236.789062 74.589844 230.382812 71.652344 C 218.296875 66.082031 205.726562 62.3125 193.160156 60.453125 C 185.082031 59.3125 170.238281 58.835938 162.816406 59.554688 Z M 154.679688 65.425781 C 154.320312 65.664062 152.164062 67.460938 149.832031 69.316406 C 142.351562 75.304688 135.53125 84.46875 129.125 96.929688 C 125.59375 103.9375 121.226562 114.660156 119.433594 120.945312 L 118.476562 124.121094 L 112.074219 122.921875 C 99.683594 120.707031 78.621094 114.957031 75.507812 112.917969 C 74.550781 112.320312 75.984375 110.464844 83.707031 102.4375 C 101.898438 83.628906 123.800781 71.53125 149.535156 66.140625 C 152.347656 65.539062 154.800781 65.003906 154.980469 65.003906 C 155.097656 64.945312 154.980469 65.183594 154.679688 65.425781 Z M 79.875 119.269531 C 87.417969 121.847656 99.441406 124.957031 108.003906 126.636719 C 111.652344 127.292969 115.183594 128.011719 115.839844 128.132812 L 117.097656 128.433594 L 116.019531 133.042969 C 112.726562 146.699219 110.511719 162.871094 109.734375 178.863281 L 109.316406 187.726562 L 47.917969 187.726562 L 48.160156 186.050781 C 48.28125 185.15625 48.519531 181.976562 48.699219 178.984375 C 49.777344 160.535156 57.316406 138.671875 68.503906 121.480469 C 71.136719 117.40625 72.035156 116.449219 72.871094 116.75 C 73.410156 116.992188 76.585938 118.132812 79.875 119.269531 Z M 109.738281 201.328125 C 110.457031 216.898438 112.789062 233.910156 116.023438 247.203125 L 117.101562 251.816406 L 115.84375 252.117188 C 115.1875 252.234375 111.65625 252.953125 108.003906 253.613281 C 95.855469 255.949219 80.179688 260.382812 72.875 263.496094 C 72.035156 263.796875 71.140625 262.898438 68.566406 258.882812 C 56.359375 240.140625 49.773438 219.894531 48.28125 196.535156 L 47.980469 192.523438 L 109.320312 192.523438 Z M 206.144531 253.316406 C 216.976562 254.273438 225.714844 255.351562 226.132812 255.769531 C 226.3125 255.890625 225.539062 258.644531 224.460938 261.882812 C 213.867188 293.386719 197.230469 313.152344 178.800781 315.964844 C 157.796875 319.261719 137.6875 299.316406 125 262.660156 C 123.683594 258.882812 122.726562 255.769531 122.847656 255.648438 C 123.265625 255.230469 145.949219 252.957031 154.683594 252.414062 C 167.1875 251.757812 193.28125 252.179688 206.144531 253.316406 Z M 121.167969 264.457031 C 128.707031 286.617188 140.140625 304.046875 153.484375 313.8125 C 154.617188 314.652344 154.617188 314.652344 153.066406 314.707031 C 150.550781 314.707031 136.128906 310.875 130.027344 308.480469 C 119.253906 304.347656 108.363281 298.359375 98.90625 291.410156 C 89.210938 284.164062 73.832031 268.351562 75.566406 267.273438 C 76.765625 266.492188 90.289062 262.183594 96.632812 260.5625 C 102.199219 259.1875 117.996094 256.011719 118.296875 256.25 C 118.414062 256.3125 119.671875 260.023438 121.167969 264.457031 Z M 252.222656 260.5625 C 260.542969 262.660156 272.746094 266.492188 273.648438 267.332031 C 274.246094 267.933594 267.601562 275.597656 260.960938 281.890625 C 245.28125 296.863281 226.429688 307.285156 205.425781 312.675781 C 193.9375 315.609375 193.339844 315.492188 198.664062 311.355469 C 210.574219 302.011719 222.0625 283.085938 229.183594 261.101562 C 229.902344 258.765625 230.621094 256.730469 230.742188 256.550781 C 231.039062 256.011719 242.527344 258.164062 252.222656 260.5625 Z M 252.222656 260.5625 " fill-opacity="1" fill-rule="nonzero"/><g clip-path="url(#id1)"><path fill="#38b6ff" d="M 263.773438 80.339844 L 263.59375 87.40625 L 259.105469 87.824219 C 249.890625 88.785156 238.699219 93.035156 230.679688 98.785156 C 226.492188 101.78125 218.890625 109.507812 216.140625 113.582031 C 210.933594 121.1875 206.863281 132.332031 205.964844 141.015625 L 205.546875 145.507812 L 198.546875 145.6875 L 191.484375 145.867188 L 191.484375 149.9375 L 198.546875 150.117188 L 205.546875 150.292969 L 205.964844 154.726562 C 206.566406 160.714844 208.417969 167.183594 211.234375 173.175781 C 214.347656 179.882812 217.339844 184.195312 222.484375 189.648438 C 231.941406 199.589844 244.328125 205.820312 258.210938 207.734375 L 263.59375 208.453125 L 263.953125 222.46875 L 268.082031 222.46875 L 268.082031 208.09375 L 270.355469 208.09375 C 273.886719 208.09375 282.921875 205.996094 288.007812 204.019531 C 308.117188 196.175781 322.960938 177.25 325.652344 155.804688 L 326.371094 149.996094 L 340.492188 149.996094 L 340.492188 145.800781 L 326.132812 145.800781 L 326.132812 143.523438 C 326.132812 139.925781 324.035156 130.945312 322.003906 125.734375 C 317.992188 115.3125 309.015625 104.050781 299.859375 97.882812 C 291.601562 92.371094 281.308594 88.597656 272.453125 87.878906 L 268.082031 87.523438 L 268.082031 73.328125 L 263.953125 73.328125 Z M 263.890625 99.382812 L 263.890625 106.871094 L 268.082031 106.871094 L 268.082031 91.71875 L 271.910156 92.136719 C 285.972656 93.574219 300.339844 101.421875 309.3125 112.5625 C 315.777344 120.585938 320.503906 131.96875 321.582031 142.027344 L 322 145.800781 L 306.382812 145.800781 L 306.382812 149.996094 L 322 149.996094 L 321.640625 153.410156 C 320.621094 162.335938 316.433594 173.476562 311.527344 180.242188 C 302.191406 193.121094 287.410156 201.804688 271.851562 203.601562 L 268.082031 204.019531 L 268.082031 188.925781 L 263.890625 188.925781 L 263.890625 196.414062 C 263.890625 205.035156 264.609375 204.4375 256.53125 203 C 231.875 198.6875 212.785156 178.382812 210.273438 153.824219 L 209.855469 149.992188 L 224.996094 149.992188 L 224.996094 145.796875 L 209.855469 145.796875 L 210.273438 141.605469 C 212.1875 122.078125 225.953125 103.808594 244.5625 96.082031 C 249.46875 94.046875 257.851562 92.007812 261.679688 91.953125 L 263.890625 91.890625 Z M 263.890625 99.382812 " fill-opacity="1" fill-rule="nonzero"/></g><path fill="#38b6ff" d="M 257.667969 122.984375 C 246.957031 126.515625 239.953125 136.398438 239.953125 147.960938 C 239.953125 158.320312 245.699219 167.1875 255.394531 171.738281 C 259.105469 173.535156 259.882812 173.652344 265.6875 173.652344 C 270.832031 173.652344 272.570312 173.355469 275.445312 172.214844 C 293.097656 165.148438 297.644531 142.027344 283.882812 129.03125 C 282.085938 127.355469 278.855469 125.140625 276.640625 124.0625 C 273.109375 122.441406 271.792969 122.144531 266.882812 122.023438 C 262.515625 121.90625 260.363281 122.085938 257.667969 122.984375 Z M 274.304688 127.714844 C 280.828125 130.648438 285.316406 136.042969 287.050781 143.105469 C 288.789062 150.234375 286.632812 157.722656 281.1875 163.171875 C 270.359375 174.011719 252.644531 170.71875 246.058594 156.703125 C 244.683594 153.769531 244.445312 152.511719 244.445312 147.898438 C 244.445312 143.34375 244.683594 141.96875 246.003906 139.152344 C 248.816406 133.222656 253.660156 128.910156 259.886719 126.871094 C 263.535156 125.675781 270.65625 126.097656 274.304688 127.714844 Z M 274.304688 127.714844 " fill-opacity="1" fill-rule="nonzero"/></svg>