<svg xmlns="http://www.w3.org/2000/svg" xmlns:xlink="http://www.w3.org/1999/xlink" width="500" zoomAndPan="magnify" viewBox="0 0 375 374.999991" height="500" preserveAspectRatio="xMidYMid meet" version="1.0"><defs><clipPath id="id1"><path d="M 31.800781 31.800781 L 343.050781 31.800781 L 343.050781 343.050781 L 31.800781 343.050781 Z M 31.800781 31.800781 " clip-rule="nonzero"/></clipPath></defs><path fill="#fc785e" d="M 314.359375 132.226562 C 305.359375 139.523438 294.175781 143.65625 282.261719 143.65625 C 270.101562 143.65625 258.671875 139.523438 249.675781 131.742188 C 254.78125 128.824219 260.375 127.851562 260.617188 127.851562 C 266.453125 126.878906 270.101562 122.746094 272.046875 118.855469 C 273.019531 119.339844 273.992188 119.582031 274.964844 119.828125 C 275.207031 119.828125 276.910156 120.3125 279.828125 120.554688 C 280.558594 120.554688 281.042969 120.554688 281.773438 120.554688 C 283.71875 120.554688 285.179688 120.3125 286.394531 120.070312 C 287.609375 119.828125 288.339844 119.828125 288.339844 119.828125 C 289.3125 119.582031 290.285156 119.339844 291.257812 118.855469 C 293.203125 122.988281 296.851562 126.878906 302.929688 128.09375 C 302.929688 127.851562 309.007812 128.824219 314.359375 132.226562 Z M 314.359375 132.226562 " fill-opacity="1" fill-rule="nonzero"/><path fill="#e1ebf4" d="M 299.28125 89.917969 C 297.09375 97.457031 293.203125 104.019531 288.339844 107.910156 C 283.234375 112.046875 275.453125 111.074219 270.589844 105.722656 C 268.15625 103.046875 266.210938 99.644531 264.996094 95.996094 L 268.886719 95.996094 C 269.371094 95.996094 269.859375 95.996094 270.589844 95.753906 C 272.535156 95.265625 273.75 94.539062 276.425781 87.484375 C 286.636719 93.320312 297.09375 90.648438 297.578125 90.402344 C 297.824219 90.402344 297.824219 90.402344 298.066406 90.160156 C 298.308594 90.402344 298.796875 90.160156 299.28125 89.917969 Z M 299.28125 89.917969 " fill-opacity="1" fill-rule="nonzero"/><path fill="#e1ebf4" d="M 109.613281 89.917969 C 107.425781 97.457031 103.535156 104.019531 98.671875 107.910156 C 93.566406 112.046875 85.785156 111.074219 80.921875 105.722656 C 78.488281 103.046875 76.542969 99.644531 75.328125 95.996094 L 79.21875 95.996094 C 79.703125 95.996094 80.191406 95.996094 80.921875 95.753906 C 82.867188 95.265625 84.082031 94.539062 86.757812 87.484375 C 96.96875 93.320312 107.425781 90.648438 107.910156 90.402344 C 108.15625 90.402344 108.15625 90.402344 108.398438 90.160156 C 108.640625 90.402344 109.128906 90.160156 109.613281 89.917969 Z M 109.613281 89.917969 " fill-opacity="1" fill-rule="nonzero"/><path fill="#fc785e" d="M 124.691406 132.226562 C 115.691406 139.523438 104.507812 143.65625 92.59375 143.65625 C 80.433594 143.65625 69.003906 139.523438 60.007812 131.742188 C 65.113281 128.824219 70.707031 127.851562 70.949219 127.851562 C 76.785156 126.878906 80.433594 122.746094 82.378906 118.855469 C 83.351562 119.339844 84.324219 119.582031 85.296875 119.828125 C 85.539062 119.828125 87.242188 120.3125 90.160156 120.554688 C 90.890625 120.554688 91.375 120.554688 92.105469 120.554688 C 94.050781 120.554688 95.511719 120.3125 96.726562 120.070312 C 97.941406 119.828125 98.671875 119.828125 98.671875 119.828125 C 99.644531 119.582031 100.617188 119.339844 101.589844 118.855469 C 103.535156 122.988281 107.183594 126.878906 113.261719 128.09375 C 113.261719 127.851562 119.339844 128.824219 124.691406 132.226562 Z M 124.691406 132.226562 " fill-opacity="1" fill-rule="nonzero"/><path fill="#e1ebf4" d="M 109.613281 279.585938 C 107.425781 287.125 103.535156 293.6875 98.671875 297.578125 C 93.566406 301.714844 85.785156 300.742188 80.921875 295.390625 C 78.488281 292.714844 76.542969 289.3125 75.328125 285.664062 L 79.21875 285.664062 C 79.703125 285.664062 80.191406 285.664062 80.921875 285.421875 C 82.867188 284.933594 84.082031 284.207031 86.757812 277.152344 C 96.96875 282.988281 107.425781 280.316406 107.910156 280.070312 C 108.15625 280.070312 108.15625 280.070312 108.398438 279.828125 C 108.640625 280.070312 109.128906 279.828125 109.613281 279.585938 Z M 109.613281 279.585938 " fill-opacity="1" fill-rule="nonzero"/><path fill="#fc785e" d="M 124.691406 321.894531 C 115.691406 329.191406 104.507812 333.324219 92.59375 333.324219 C 80.433594 333.324219 69.003906 329.191406 59.765625 321.410156 C 64.871094 318.492188 70.464844 317.519531 70.707031 317.519531 C 76.542969 316.546875 80.191406 312.414062 82.136719 308.523438 C 83.109375 309.007812 84.082031 309.25 85.054688 309.496094 C 85.296875 309.496094 87 309.980469 89.917969 310.222656 C 90.648438 310.222656 91.132812 310.222656 91.863281 310.222656 C 93.808594 310.222656 95.265625 309.980469 96.484375 309.738281 C 97.699219 309.496094 98.429688 309.496094 98.429688 309.496094 C 99.402344 309.25 100.375 309.007812 101.347656 308.523438 C 103.292969 312.65625 106.9375 316.546875 112.773438 317.761719 C 113.261719 317.519531 119.339844 318.492188 124.691406 321.894531 Z M 124.691406 321.894531 " fill-opacity="1" fill-rule="nonzero"/><path fill="#fc785e" d="M 314.359375 321.894531 C 305.359375 329.191406 294.175781 333.324219 282.261719 333.324219 C 270.101562 333.324219 258.671875 329.191406 249.433594 321.410156 C 254.539062 318.492188 260.132812 317.519531 260.375 317.519531 C 266.210938 316.546875 269.859375 312.414062 271.804688 308.523438 C 272.777344 309.007812 273.75 309.25 274.722656 309.496094 C 274.964844 309.496094 276.667969 309.980469 279.585938 310.222656 C 280.316406 310.222656 280.800781 310.222656 281.53125 310.222656 C 283.476562 310.222656 284.933594 309.980469 286.152344 309.738281 C 287.367188 309.496094 288.097656 309.496094 288.097656 309.496094 C 289.070312 309.25 290.042969 309.007812 291.015625 308.523438 C 292.960938 312.65625 296.605469 316.546875 302.441406 317.761719 C 302.929688 317.519531 309.007812 318.492188 314.359375 321.894531 Z M 314.359375 321.894531 " fill-opacity="1" fill-rule="nonzero"/><path fill="#e1ebf4" d="M 299.28125 279.585938 C 297.09375 287.125 293.203125 293.6875 288.339844 297.578125 C 283.234375 301.714844 275.453125 300.742188 270.589844 295.390625 C 268.15625 292.714844 266.210938 289.3125 264.996094 285.664062 L 268.886719 285.664062 C 269.371094 285.664062 270.101562 285.664062 270.589844 285.421875 C 272.535156 284.933594 273.75 284.207031 276.425781 277.152344 C 286.636719 282.988281 297.09375 280.316406 297.578125 280.070312 C 297.824219 280.070312 297.824219 280.070312 298.066406 279.828125 C 298.308594 280.070312 298.796875 279.828125 299.28125 279.585938 Z M 299.28125 279.585938 " fill-opacity="1" fill-rule="nonzero"/><path fill="#d68751" d="M 294.660156 271.074219 C 293.203125 271.316406 284.449219 273.019531 277.398438 266.210938 C 276.179688 264.996094 274.480469 264.507812 273.019531 264.996094 C 271.316406 265.238281 270.101562 266.453125 269.617188 268.15625 C 268.644531 270.832031 267.425781 274.234375 266.453125 276.179688 L 262.808594 276.179688 C 261.835938 269.859375 262.078125 262.5625 264.753906 261.589844 C 265.726562 261.347656 266.699219 260.617188 267.183594 259.644531 C 267.425781 259.402344 271.316406 253.808594 279.097656 253.808594 C 281.53125 253.808594 284.207031 254.296875 287.367188 255.753906 C 287.367188 255.753906 287.367188 255.753906 287.609375 255.753906 C 289.070312 256.484375 296.363281 259.160156 301.957031 259.402344 C 302.441406 263.78125 300.984375 268.398438 294.660156 271.074219 Z M 294.660156 271.074219 " fill-opacity="1" fill-rule="nonzero"/><path fill="#d68751" d="M 294.660156 81.40625 C 293.203125 81.648438 284.449219 83.351562 277.398438 76.542969 C 276.179688 75.328125 274.480469 74.839844 273.019531 75.328125 C 271.316406 75.570312 270.101562 76.785156 269.617188 78.488281 C 268.644531 81.164062 267.425781 84.566406 266.453125 86.511719 L 262.808594 86.511719 C 261.835938 80.191406 262.078125 72.894531 264.753906 71.921875 C 265.726562 71.679688 266.699219 70.949219 267.183594 69.976562 C 267.671875 69.25 271.804688 64.140625 279.097656 64.140625 C 281.53125 64.140625 284.207031 64.628906 287.367188 66.085938 C 287.367188 66.085938 287.367188 66.085938 287.609375 66.085938 C 289.070312 66.816406 296.363281 69.492188 301.957031 69.734375 C 302.441406 74.113281 300.984375 78.730469 294.660156 81.40625 Z M 294.660156 81.40625 " fill-opacity="1" fill-rule="nonzero"/><path fill="#d68751" d="M 104.992188 81.40625 C 103.535156 81.648438 94.78125 83.351562 87.730469 76.542969 C 86.511719 75.328125 84.8125 74.839844 83.351562 75.328125 C 81.648438 75.570312 80.433594 76.785156 79.949219 78.488281 C 78.976562 81.164062 77.757812 84.566406 76.785156 86.511719 L 73.140625 86.511719 C 72.167969 80.191406 72.410156 72.894531 75.085938 71.921875 C 76.058594 71.679688 77.03125 70.949219 77.515625 69.976562 C 78.003906 69.25 82.136719 64.140625 89.429688 64.140625 C 91.863281 64.140625 94.539062 64.628906 97.699219 66.085938 C 97.699219 66.085938 97.699219 66.085938 97.941406 66.085938 C 99.402344 66.816406 106.695312 69.492188 112.289062 69.734375 C 112.773438 74.113281 111.316406 78.730469 104.992188 81.40625 Z M 104.992188 81.40625 " fill-opacity="1" fill-rule="nonzero"/><path fill="#d68751" d="M 104.992188 271.074219 C 103.535156 271.316406 94.78125 273.019531 87.730469 266.210938 C 86.511719 264.996094 84.8125 264.507812 83.351562 264.996094 C 81.648438 265.238281 80.433594 266.453125 79.949219 268.15625 C 78.976562 270.832031 77.757812 274.234375 76.785156 276.179688 L 73.140625 276.179688 C 72.167969 269.859375 72.410156 262.5625 75.085938 261.589844 C 76.058594 261.347656 77.03125 260.617188 77.515625 259.644531 C 77.757812 259.402344 81.648438 253.808594 89.429688 253.808594 C 91.863281 253.808594 94.539062 254.296875 97.699219 255.753906 C 97.699219 255.753906 97.699219 255.753906 97.941406 255.753906 C 99.402344 256.484375 106.695312 259.160156 112.289062 259.402344 C 112.773438 263.78125 111.316406 268.398438 104.992188 271.074219 Z M 104.992188 271.074219 " fill-opacity="1" fill-rule="nonzero"/><path fill="#feaca4" d="M 187.425781 138.792969 C 160.679688 138.792969 138.792969 160.679688 138.792969 187.425781 C 138.792969 214.175781 160.679688 236.058594 187.425781 236.058594 C 214.175781 236.058594 236.058594 214.175781 236.058594 187.425781 C 236.058594 160.679688 214.175781 138.792969 187.425781 138.792969 Z M 219.765625 197.394531 C 219.765625 200.070312 217.578125 202.257812 214.902344 202.257812 L 186.453125 202.257812 L 171.621094 214.175781 C 170.648438 214.902344 169.675781 215.148438 168.460938 215.148438 C 167.730469 215.148438 167 214.902344 166.269531 214.660156 C 164.570312 213.929688 163.597656 212.230469 163.597656 210.285156 L 163.597656 202.015625 L 159.707031 202.015625 C 157.03125 202.015625 154.84375 199.828125 154.84375 197.152344 L 154.84375 164.570312 C 154.84375 161.894531 157.03125 159.707031 159.707031 159.707031 L 214.902344 159.707031 C 217.578125 159.707031 219.765625 161.894531 219.765625 164.570312 Z M 219.765625 197.394531 " fill-opacity="1" fill-rule="nonzero"/><path fill="#feaca4" d="M 143.65625 282.261719 C 143.65625 294.417969 139.523438 305.847656 131.742188 315.085938 C 124.203125 309.496094 115.207031 308.035156 114.71875 308.035156 C 110.34375 307.304688 109.371094 301.714844 109.371094 300.742188 C 114.964844 293.933594 117.882812 286.394531 119.097656 281.773438 C 119.828125 278.855469 120.3125 275.9375 120.3125 273.019531 C 120.3125 271.804688 120.3125 270.832031 120.070312 269.617188 C 122.257812 264.753906 122.257812 259.402344 121.042969 254.78125 C 120.3125 251.621094 117.152344 249.675781 113.746094 249.917969 C 111.316406 250.164062 104.75 248.21875 101.347656 246.757812 C 86.027344 240.191406 74.839844 247.488281 70.222656 253.082031 C 63.414062 256.242188 62.195312 264.507812 62.683594 271.5625 C 62.683594 272.046875 62.683594 272.535156 62.683594 273.019531 C 62.683594 282.988281 67.058594 294.417969 73.625 301.957031 C 73.867188 302.199219 73.867188 302.199219 74.113281 302.441406 C 73.625 304.386719 72.167969 307.304688 69.25 308.035156 C 68.761719 308.035156 60.496094 309.496094 52.957031 314.601562 C 45.660156 305.605469 41.527344 294.417969 41.527344 282.503906 C 41.527344 254.296875 64.386719 231.4375 92.59375 231.4375 C 120.800781 231.4375 143.65625 254.054688 143.65625 282.261719 Z M 143.65625 282.261719 " fill-opacity="1" fill-rule="nonzero"/><path fill="#feaca4" d="M 333.324219 282.261719 C 333.324219 294.417969 329.191406 305.847656 321.410156 315.085938 C 313.871094 309.496094 304.875 308.035156 304.386719 308.035156 C 300.011719 307.304688 299.039062 301.714844 299.039062 300.742188 C 304.632812 293.933594 307.550781 286.394531 308.765625 281.773438 C 309.496094 278.855469 309.980469 275.9375 309.980469 273.019531 C 309.980469 271.804688 309.980469 270.832031 309.738281 269.617188 C 311.925781 264.753906 311.925781 259.402344 310.710938 254.78125 C 309.980469 251.621094 306.820312 249.675781 303.414062 249.917969 C 300.984375 250.164062 294.417969 248.21875 291.015625 246.757812 C 275.695312 240.191406 264.507812 247.488281 259.890625 253.082031 C 253.082031 256.242188 251.863281 264.507812 252.351562 271.5625 C 252.351562 272.046875 252.351562 272.535156 252.351562 273.019531 C 252.351562 282.988281 256.726562 294.417969 263.292969 301.957031 C 263.535156 302.199219 263.535156 302.199219 263.78125 302.441406 C 263.292969 304.386719 261.835938 307.304688 258.917969 308.035156 C 258.429688 308.035156 250.164062 309.496094 242.625 314.601562 C 235.328125 305.605469 231.195312 294.417969 231.195312 282.503906 C 231.195312 254.296875 254.054688 231.4375 282.261719 231.4375 C 310.46875 231.4375 333.324219 254.054688 333.324219 282.261719 Z M 333.324219 282.261719 " fill-opacity="1" fill-rule="nonzero"/><path fill="#feaca4" d="M 333.324219 92.59375 C 333.324219 104.75 329.191406 116.179688 321.410156 125.417969 C 313.871094 119.828125 304.875 118.367188 304.386719 118.367188 C 300.011719 117.636719 299.039062 112.046875 299.039062 111.074219 C 304.632812 104.265625 307.550781 96.726562 308.765625 92.105469 C 309.496094 89.1875 309.980469 86.269531 309.980469 83.351562 C 309.980469 82.136719 309.980469 81.164062 309.738281 79.949219 C 311.925781 75.085938 311.925781 69.734375 310.710938 65.113281 C 309.980469 61.953125 306.820312 60.007812 303.414062 60.25 C 300.984375 60.496094 294.417969 58.550781 291.015625 57.089844 C 275.695312 50.523438 264.507812 57.820312 259.890625 63.414062 C 253.082031 66.574219 251.863281 74.839844 252.351562 81.894531 C 252.351562 82.378906 252.351562 82.867188 252.351562 83.351562 C 252.351562 93.320312 256.726562 104.75 263.292969 112.289062 C 263.535156 112.53125 263.535156 112.53125 263.78125 112.773438 C 263.292969 114.71875 261.835938 117.636719 258.917969 118.367188 C 258.429688 118.367188 250.164062 119.828125 242.625 124.933594 C 235.328125 115.9375 231.195312 104.75 231.195312 92.835938 C 231.195312 64.628906 254.054688 41.769531 282.261719 41.769531 C 310.46875 41.769531 333.324219 64.386719 333.324219 92.59375 Z M 333.324219 92.59375 " fill-opacity="1" fill-rule="nonzero"/><path fill="#feaca4" d="M 143.65625 92.59375 C 143.65625 104.75 139.523438 116.179688 131.742188 125.417969 C 124.203125 119.828125 115.207031 118.367188 114.71875 118.367188 C 110.34375 117.636719 109.371094 112.046875 109.371094 111.074219 C 114.964844 104.265625 117.882812 96.726562 119.097656 92.105469 C 119.828125 89.1875 120.3125 86.269531 120.3125 83.351562 C 120.3125 82.136719 120.3125 81.164062 120.070312 79.949219 C 122.257812 75.085938 122.257812 69.734375 121.042969 65.113281 C 120.3125 61.953125 117.152344 60.007812 113.746094 60.25 C 111.316406 60.496094 104.75 58.550781 101.347656 57.089844 C 86.027344 50.523438 74.839844 57.820312 70.222656 63.414062 C 63.414062 66.574219 62.195312 74.839844 62.683594 81.894531 C 62.683594 82.378906 62.683594 82.867188 62.683594 83.351562 C 62.683594 93.320312 67.058594 104.75 73.625 112.289062 C 73.867188 112.53125 73.867188 112.53125 74.113281 112.773438 C 73.625 114.71875 72.167969 117.636719 69.25 118.367188 C 68.761719 118.367188 60.496094 119.828125 52.957031 124.933594 C 45.660156 115.691406 41.527344 104.507812 41.527344 92.59375 C 41.527344 64.386719 64.386719 41.527344 92.59375 41.527344 C 120.800781 41.527344 143.65625 64.386719 143.65625 92.59375 Z M 143.65625 92.59375 " fill-opacity="1" fill-rule="nonzero"/><path fill="#2d4356" d="M 214.902344 159.707031 L 159.949219 159.707031 C 157.273438 159.707031 155.085938 161.894531 155.085938 164.570312 L 155.085938 197.394531 C 155.085938 200.070312 157.273438 202.257812 159.949219 202.257812 L 163.839844 202.257812 L 163.839844 210.527344 C 163.839844 212.472656 164.8125 214.175781 166.515625 214.902344 C 167.242188 215.148438 167.972656 215.390625 168.703125 215.390625 C 169.675781 215.390625 170.890625 214.902344 171.863281 214.417969 L 186.695312 202.503906 L 215.148438 202.503906 C 217.820312 202.503906 220.011719 200.3125 220.011719 197.640625 L 220.011719 164.570312 C 219.765625 161.894531 217.578125 159.707031 214.902344 159.707031 Z M 210.039062 192.53125 L 184.75 192.53125 C 183.777344 192.53125 182.5625 193.019531 181.589844 193.75 L 173.324219 200.3125 L 173.324219 197.394531 C 173.324219 194.722656 171.132812 192.53125 168.460938 192.53125 L 164.570312 192.53125 L 164.570312 169.433594 L 210.039062 169.433594 Z M 210.039062 192.53125 " fill-opacity="1" fill-rule="nonzero"/><path fill="#ffdb80" d="M 210.039062 169.433594 L 210.039062 192.53125 L 184.75 192.53125 C 183.777344 192.53125 182.5625 193.019531 181.589844 193.75 L 173.324219 200.3125 L 173.324219 197.394531 C 173.324219 194.722656 171.132812 192.53125 168.460938 192.53125 L 164.570312 192.53125 L 164.570312 169.433594 Z M 210.039062 169.433594 " fill-opacity="1" fill-rule="nonzero"/><path fill="#e5d0c3" d="M 111.800781 264.507812 C 106.210938 264.023438 99.402344 261.347656 97.941406 260.863281 C 97.941406 260.863281 97.941406 260.863281 97.699219 260.863281 C 94.539062 259.644531 91.863281 258.917969 89.429688 258.917969 C 81.648438 258.917969 77.757812 264.507812 77.515625 264.753906 C 77.03125 265.726562 76.058594 266.210938 75.085938 266.699219 C 73.625 267.183594 72.894531 269.371094 72.652344 272.289062 C 72.167969 267.183594 72.894531 262.5625 75.085938 261.835938 C 76.058594 261.589844 77.03125 260.863281 77.515625 259.890625 C 77.757812 259.644531 81.648438 254.054688 89.429688 254.054688 C 91.863281 254.054688 94.539062 254.539062 97.699219 256 C 97.699219 256 97.699219 256 97.941406 256 C 99.402344 256.726562 106.695312 259.402344 112.289062 259.644531 C 112.289062 261.105469 112.289062 262.808594 111.800781 264.507812 Z M 111.800781 264.507812 " fill-opacity="0.298" fill-rule="nonzero"/><path fill="#ffdedc" d="M 236.058594 187.425781 C 236.058594 188.15625 236.058594 188.886719 236.058594 189.859375 C 234.84375 164.324219 213.445312 143.65625 187.425781 143.65625 C 161.40625 143.65625 140.253906 164.082031 138.792969 189.859375 C 138.792969 189.128906 138.792969 188.398438 138.792969 187.425781 C 138.792969 160.679688 160.679688 138.792969 187.425781 138.792969 C 214.175781 138.792969 236.058594 160.679688 236.058594 187.425781 Z M 236.058594 187.425781 " fill-opacity="0.498" fill-rule="nonzero"/><path fill="#aa7371" d="M 236.058594 187.425781 C 236.058594 214.175781 214.175781 236.058594 187.425781 236.058594 C 160.679688 236.058594 138.792969 214.175781 138.792969 187.425781 C 138.792969 186.695312 138.792969 185.722656 138.792969 184.996094 C 140.007812 210.527344 161.40625 231.195312 187.425781 231.195312 C 213.445312 231.195312 234.601562 210.769531 236.058594 184.996094 C 236.058594 185.722656 236.058594 186.695312 236.058594 187.425781 Z M 236.058594 187.425781 " fill-opacity="0.498" fill-rule="nonzero"/><path fill="#9fa5aa" d="M 109.613281 279.585938 C 107.425781 287.125 103.535156 293.6875 98.671875 297.578125 C 93.566406 301.714844 85.785156 300.742188 80.921875 295.390625 C 78.488281 292.714844 76.542969 289.3125 75.328125 285.664062 L 77.757812 285.664062 C 78.730469 287.367188 79.949219 289.070312 81.164062 290.527344 C 86.027344 295.878906 93.566406 296.851562 98.914062 292.714844 C 102.5625 289.796875 105.722656 285.421875 107.910156 280.316406 C 107.910156 280.316406 108.15625 280.316406 108.15625 280.316406 C 108.398438 280.316406 108.398438 280.316406 108.640625 280.070312 C 108.640625 280.070312 109.128906 279.828125 109.613281 279.585938 Z M 109.613281 279.585938 " fill-opacity="0.498" fill-rule="nonzero"/><path fill="#ffdedc" d="M 143.65625 282.261719 C 143.65625 282.988281 143.65625 283.960938 143.65625 284.691406 C 142.441406 257.699219 120.070312 236.058594 92.59375 236.058594 C 65.113281 236.058594 42.742188 257.699219 41.527344 284.691406 C 41.527344 283.960938 41.527344 282.988281 41.527344 282.261719 C 41.527344 254.054688 64.386719 231.195312 92.59375 231.195312 C 120.800781 231.195312 143.65625 254.054688 143.65625 282.261719 Z M 143.65625 282.261719 " fill-opacity="0.498" fill-rule="nonzero"/><path fill="#aa7371" d="M 52.957031 309.496094 C 53.929688 310.46875 55.144531 311.441406 55.875 312.65625 C 54.902344 313.140625 53.929688 313.871094 52.957031 314.359375 C 45.660156 305.359375 41.527344 294.175781 41.527344 282.261719 C 41.527344 281.53125 41.527344 280.558594 41.527344 279.828125 C 42.015625 290.769531 46.148438 300.984375 52.957031 309.496094 Z M 52.957031 309.496094 " fill-opacity="0.498" fill-rule="nonzero"/><path fill="#aa7371" d="M 143.65625 282.261719 C 143.65625 294.417969 139.523438 305.847656 131.742188 315.085938 C 130.769531 314.359375 129.796875 313.628906 128.582031 313.140625 C 129.554688 312.414062 130.527344 311.441406 131.742188 310.222656 C 139.035156 301.714844 142.925781 291.257812 143.65625 280.070312 C 143.65625 280.558594 143.65625 281.53125 143.65625 282.261719 Z M 143.65625 282.261719 " fill-opacity="0.498" fill-rule="nonzero"/><path fill="#a54b3f" d="M 124.691406 321.894531 C 115.691406 329.191406 104.507812 333.324219 92.59375 333.324219 C 80.433594 333.324219 69.003906 329.191406 59.765625 321.410156 C 60.980469 320.679688 62.441406 319.949219 63.65625 319.464844 C 72.167969 325.300781 81.894531 328.460938 92.347656 328.460938 C 102.5625 328.460938 112.289062 325.542969 120.554688 319.949219 C 122.257812 320.4375 123.472656 321.167969 124.691406 321.894531 Z M 124.691406 321.894531 " fill-opacity="0.498" fill-rule="nonzero"/><path fill="#e5d0c3" d="M 301.46875 264.507812 C 295.878906 264.023438 289.070312 261.347656 287.609375 260.863281 C 287.609375 260.863281 287.609375 260.863281 287.367188 260.863281 C 284.207031 259.644531 281.53125 258.917969 279.097656 258.917969 C 271.316406 258.917969 267.425781 264.507812 267.183594 264.753906 C 266.699219 265.726562 265.726562 266.210938 264.753906 266.699219 C 263.292969 267.183594 262.5625 269.371094 262.320312 272.289062 C 261.835938 267.183594 262.5625 262.5625 264.753906 261.835938 C 265.726562 261.589844 266.699219 260.863281 267.183594 259.890625 C 267.425781 259.644531 271.316406 254.054688 279.097656 254.054688 C 281.53125 254.054688 284.207031 254.539062 287.367188 256 C 287.367188 256 287.367188 256 287.609375 256 C 289.070312 256.726562 296.363281 259.402344 301.957031 259.644531 C 301.957031 261.105469 301.957031 262.808594 301.46875 264.507812 Z M 301.46875 264.507812 " fill-opacity="0.298" fill-rule="nonzero"/><path fill="#9fa5aa" d="M 299.28125 279.585938 C 297.09375 287.125 293.203125 293.6875 288.339844 297.578125 C 283.234375 301.714844 275.453125 300.742188 270.589844 295.390625 C 268.15625 292.714844 266.210938 289.3125 264.996094 285.664062 L 267.425781 285.664062 C 268.398438 287.367188 269.617188 289.070312 270.832031 290.527344 C 275.695312 295.878906 283.234375 296.851562 288.582031 292.714844 C 292.230469 289.796875 295.390625 285.421875 297.578125 280.316406 C 297.578125 280.316406 297.824219 280.316406 297.824219 280.316406 C 298.066406 280.316406 298.066406 280.316406 298.308594 280.070312 C 298.308594 280.070312 298.796875 279.828125 299.28125 279.585938 Z M 299.28125 279.585938 " fill-opacity="0.498" fill-rule="nonzero"/><path fill="#ffdedc" d="M 333.324219 282.261719 C 333.324219 282.988281 333.324219 283.960938 333.324219 284.691406 C 332.109375 257.699219 309.738281 236.058594 282.261719 236.058594 C 254.78125 236.058594 232.410156 257.699219 231.195312 284.691406 C 231.195312 283.960938 231.195312 282.988281 231.195312 282.261719 C 231.195312 254.054688 254.054688 231.195312 282.261719 231.195312 C 310.46875 231.195312 333.324219 254.054688 333.324219 282.261719 Z M 333.324219 282.261719 " fill-opacity="0.498" fill-rule="nonzero"/><path fill="#aa7371" d="M 242.625 309.496094 C 243.597656 310.46875 244.8125 311.441406 245.542969 312.65625 C 244.570312 313.140625 243.597656 313.871094 242.625 314.359375 C 235.328125 305.359375 231.195312 294.175781 231.195312 282.261719 C 231.195312 281.53125 231.195312 280.558594 231.195312 279.828125 C 231.683594 290.769531 235.816406 300.984375 242.625 309.496094 Z M 242.625 309.496094 " fill-opacity="0.498" fill-rule="nonzero"/><path fill="#aa7371" d="M 333.324219 282.261719 C 333.324219 294.417969 329.191406 305.847656 321.410156 315.085938 C 320.4375 314.359375 319.464844 313.628906 318.25 313.140625 C 319.222656 312.414062 320.195312 311.441406 321.410156 310.222656 C 328.703125 301.714844 332.59375 291.257812 333.324219 280.070312 C 333.324219 280.558594 333.324219 281.53125 333.324219 282.261719 Z M 333.324219 282.261719 " fill-opacity="0.498" fill-rule="nonzero"/><path fill="#a54b3f" d="M 314.359375 321.894531 C 305.359375 329.191406 294.175781 333.324219 282.261719 333.324219 C 270.101562 333.324219 258.671875 329.191406 249.433594 321.410156 C 250.648438 320.679688 252.109375 319.949219 253.324219 319.464844 C 261.835938 325.300781 271.5625 328.460938 282.015625 328.460938 C 292.230469 328.460938 301.957031 325.542969 310.222656 319.949219 C 311.925781 320.4375 313.140625 321.167969 314.359375 321.894531 Z M 314.359375 321.894531 " fill-opacity="0.498" fill-rule="nonzero"/><path fill="#e5d0c3" d="M 111.800781 74.839844 C 106.210938 74.355469 99.402344 71.679688 97.941406 71.195312 C 97.941406 71.195312 97.941406 71.195312 97.699219 71.195312 C 94.539062 69.976562 91.863281 69.25 89.429688 69.25 C 81.648438 69.25 77.757812 74.839844 77.515625 75.085938 C 77.03125 76.058594 76.058594 76.542969 75.085938 77.03125 C 73.625 77.515625 72.894531 79.703125 72.652344 82.621094 C 72.167969 77.515625 72.894531 72.894531 75.085938 72.167969 C 76.058594 71.921875 77.03125 71.195312 77.515625 70.222656 C 77.757812 69.976562 81.648438 64.386719 89.429688 64.386719 C 91.863281 64.386719 94.539062 64.871094 97.699219 66.332031 C 97.699219 66.332031 97.699219 66.332031 97.941406 66.332031 C 99.402344 67.058594 106.695312 69.734375 112.289062 69.976562 C 112.289062 71.4375 112.289062 73.140625 111.800781 74.839844 Z M 111.800781 74.839844 " fill-opacity="0.298" fill-rule="nonzero"/><path fill="#9fa5aa" d="M 109.613281 89.917969 C 107.425781 97.457031 103.535156 104.019531 98.671875 107.910156 C 93.566406 112.046875 85.785156 111.074219 80.921875 105.722656 C 78.488281 103.046875 76.542969 99.644531 75.328125 95.996094 L 77.757812 95.996094 C 78.730469 97.699219 79.949219 99.402344 81.164062 100.859375 C 86.027344 106.210938 93.566406 107.183594 98.914062 103.046875 C 102.5625 100.128906 105.722656 95.753906 107.910156 90.648438 C 107.910156 90.648438 108.15625 90.648438 108.15625 90.648438 C 108.398438 90.648438 108.398438 90.648438 108.640625 90.402344 C 108.640625 90.402344 109.128906 90.160156 109.613281 89.917969 Z M 109.613281 89.917969 " fill-opacity="0.498" fill-rule="nonzero"/><path fill="#ffdedc" d="M 143.65625 92.59375 C 143.65625 93.320312 143.65625 94.292969 143.65625 95.023438 C 142.441406 68.03125 120.070312 46.390625 92.59375 46.390625 C 65.113281 46.390625 42.742188 68.03125 41.527344 95.023438 C 41.527344 94.292969 41.527344 93.320312 41.527344 92.59375 C 41.527344 64.386719 64.386719 41.527344 92.59375 41.527344 C 120.800781 41.527344 143.65625 64.386719 143.65625 92.59375 Z M 143.65625 92.59375 " fill-opacity="0.498" fill-rule="nonzero"/><path fill="#aa7371" d="M 52.957031 119.828125 C 53.929688 120.800781 55.144531 121.773438 55.875 122.988281 C 54.902344 123.472656 53.929688 124.203125 52.957031 124.691406 C 45.660156 115.691406 41.527344 104.507812 41.527344 92.59375 C 41.527344 91.863281 41.527344 90.890625 41.527344 90.160156 C 42.015625 101.101562 46.148438 111.316406 52.957031 119.828125 Z M 52.957031 119.828125 " fill-opacity="0.498" fill-rule="nonzero"/><path fill="#aa7371" d="M 143.65625 92.59375 C 143.65625 104.75 139.523438 116.179688 131.742188 125.417969 C 130.769531 124.691406 129.796875 123.960938 128.582031 123.472656 C 129.554688 122.746094 130.527344 121.773438 131.742188 120.554688 C 139.035156 112.046875 142.925781 101.589844 143.65625 90.402344 C 143.65625 90.890625 143.65625 91.863281 143.65625 92.59375 Z M 143.65625 92.59375 " fill-opacity="0.498" fill-rule="nonzero"/><path fill="#a54b3f" d="M 124.691406 132.226562 C 115.691406 139.523438 104.507812 143.65625 92.59375 143.65625 C 80.433594 143.65625 69.003906 139.523438 59.765625 131.742188 C 60.980469 131.011719 62.441406 130.28125 63.65625 129.796875 C 72.167969 135.632812 82.136719 138.792969 92.59375 138.792969 C 102.804688 138.792969 112.53125 135.875 120.800781 130.28125 C 122.257812 130.769531 123.472656 131.5 124.691406 132.226562 Z M 124.691406 132.226562 " fill-opacity="0.498" fill-rule="nonzero"/><path fill="#e5d0c3" d="M 301.46875 74.839844 C 295.878906 74.355469 289.070312 71.679688 287.609375 71.195312 C 287.609375 71.195312 287.609375 71.195312 287.367188 71.195312 C 284.207031 69.976562 281.53125 69.25 279.097656 69.25 C 271.316406 69.25 267.425781 74.839844 267.183594 75.085938 C 266.699219 76.058594 265.726562 76.542969 264.753906 77.03125 C 263.292969 77.515625 262.5625 79.703125 262.320312 82.621094 C 261.835938 77.515625 262.5625 72.894531 264.753906 72.167969 C 265.726562 71.921875 266.699219 71.195312 267.183594 70.222656 C 267.425781 69.976562 271.316406 64.386719 279.097656 64.386719 C 281.53125 64.386719 284.207031 64.871094 287.367188 66.332031 C 287.367188 66.332031 287.367188 66.332031 287.609375 66.332031 C 289.070312 67.058594 296.363281 69.734375 301.957031 69.976562 C 301.957031 71.4375 301.957031 73.140625 301.46875 74.839844 Z M 301.46875 74.839844 " fill-opacity="0.298" fill-rule="nonzero"/><path fill="#9fa5aa" d="M 299.28125 89.917969 C 297.09375 97.457031 293.203125 104.019531 288.339844 107.910156 C 283.234375 112.046875 275.453125 111.074219 270.589844 105.722656 C 268.15625 103.046875 266.210938 99.644531 264.996094 95.996094 L 267.425781 95.996094 C 268.398438 97.699219 269.617188 99.402344 270.832031 100.859375 C 275.695312 106.210938 283.234375 107.183594 288.582031 103.046875 C 292.230469 100.128906 295.390625 95.753906 297.578125 90.648438 C 297.578125 90.648438 297.824219 90.648438 297.824219 90.648438 C 298.066406 90.648438 298.066406 90.648438 298.308594 90.402344 C 298.308594 90.402344 298.796875 90.160156 299.28125 89.917969 Z M 299.28125 89.917969 " fill-opacity="0.498" fill-rule="nonzero"/><path fill="#ffdedc" d="M 333.324219 92.59375 C 333.324219 93.320312 333.324219 94.292969 333.324219 95.023438 C 332.109375 68.03125 309.738281 46.390625 282.261719 46.390625 C 254.78125 46.390625 232.410156 68.03125 231.195312 95.023438 C 231.195312 94.292969 231.195312 93.320312 231.195312 92.59375 C 231.195312 64.386719 254.054688 41.527344 282.261719 41.527344 C 310.46875 41.527344 333.324219 64.386719 333.324219 92.59375 Z M 333.324219 92.59375 " fill-opacity="0.498" fill-rule="nonzero"/><path fill="#aa7371" d="M 242.625 119.828125 C 243.597656 120.800781 244.8125 121.773438 245.542969 122.988281 C 244.570312 123.472656 243.597656 124.203125 242.625 124.691406 C 235.328125 115.691406 231.195312 104.507812 231.195312 92.59375 C 231.195312 91.863281 231.195312 90.890625 231.195312 90.160156 C 231.683594 101.101562 235.816406 111.316406 242.625 119.828125 Z M 242.625 119.828125 " fill-opacity="0.498" fill-rule="nonzero"/><path fill="#aa7371" d="M 333.324219 92.59375 C 333.324219 104.75 329.191406 116.179688 321.410156 125.417969 C 320.4375 124.691406 319.464844 123.960938 318.25 123.472656 C 319.222656 122.746094 320.195312 121.773438 321.410156 120.554688 C 328.703125 112.046875 332.59375 101.589844 333.324219 90.402344 C 333.324219 90.890625 333.324219 91.863281 333.324219 92.59375 Z M 333.324219 92.59375 " fill-opacity="0.498" fill-rule="nonzero"/><path fill="#a54b3f" d="M 314.359375 132.226562 C 305.359375 139.523438 294.175781 143.65625 282.261719 143.65625 C 270.101562 143.65625 258.671875 139.523438 249.433594 131.742188 C 250.648438 131.011719 252.109375 130.28125 253.324219 129.796875 C 261.835938 135.632812 271.5625 138.792969 282.015625 138.792969 C 292.230469 138.792969 301.957031 135.875 310.222656 130.28125 C 311.925781 130.769531 313.140625 131.5 314.359375 132.226562 Z M 314.359375 132.226562 " fill-opacity="0.498" fill-rule="nonzero"/><g clip-path="url(#id1)"><path fill="#2d4356" d="M 287.609375 221.710938 L 268.886719 187.425781 L 287.609375 153.140625 C 301.957031 151.925781 315.085938 145.84375 325.300781 135.390625 C 336.730469 123.960938 343.050781 108.640625 343.050781 92.59375 C 343.050781 59.035156 315.816406 31.800781 282.261719 31.800781 C 248.703125 31.800781 221.46875 59.035156 221.46875 92.59375 C 221.46875 108.398438 227.546875 123.472656 238.492188 134.660156 C 248.703125 145.359375 262.078125 151.679688 276.667969 153.140625 L 260.617188 182.5625 L 245.542969 182.5625 C 243.109375 152.652344 218.066406 129.066406 187.425781 129.066406 C 156.789062 129.066406 131.742188 152.652344 129.308594 182.5625 L 116.664062 182.5625 L 100.375 152.898438 C 113.746094 151.195312 125.90625 145.117188 135.390625 135.632812 C 146.816406 124.203125 153.140625 108.882812 153.140625 92.835938 C 153.382812 59.035156 126.148438 31.800781 92.59375 31.800781 C 59.035156 31.800781 31.800781 59.035156 31.800781 92.59375 C 31.800781 108.398438 37.878906 123.472656 48.824219 134.660156 C 59.765625 146.089844 74.113281 152.410156 89.675781 153.140625 L 108.398438 187.183594 L 89.675781 221.226562 C 57.578125 223.171875 31.800781 249.675781 31.800781 282.261719 C 31.800781 298.066406 37.878906 313.140625 48.824219 324.328125 C 60.496094 336.242188 76.058594 343.050781 92.59375 343.050781 C 108.882812 343.050781 124.203125 336.730469 135.632812 325.058594 C 147.0625 313.628906 153.382812 298.308594 153.382812 282.261719 C 153.382812 251.378906 130.28125 225.847656 100.375 221.957031 L 116.664062 192.289062 L 129.308594 192.289062 C 131.742188 222.199219 156.789062 245.785156 187.425781 245.785156 C 218.066406 245.785156 243.109375 222.199219 245.542969 192.289062 L 260.617188 192.289062 L 276.667969 221.710938 C 245.785156 224.628906 221.46875 250.648438 221.46875 282.261719 C 221.46875 298.066406 227.546875 313.140625 238.492188 324.328125 C 250.164062 336.242188 265.726562 343.050781 282.261719 343.050781 C 298.550781 343.050781 313.871094 336.730469 325.300781 325.058594 C 336.730469 313.628906 343.050781 298.308594 343.050781 282.261719 C 343.050781 250.648438 318.734375 224.386719 287.609375 221.710938 Z M 231.195312 92.59375 C 231.195312 64.386719 254.054688 41.527344 282.261719 41.527344 C 310.46875 41.527344 333.324219 64.386719 333.324219 92.59375 C 333.324219 104.75 329.191406 116.179688 321.410156 125.417969 C 313.871094 119.828125 304.875 118.367188 304.386719 118.367188 C 300.011719 117.636719 299.039062 112.046875 299.039062 111.074219 C 304.632812 104.265625 307.550781 96.726562 308.765625 92.105469 C 309.496094 89.1875 309.980469 86.269531 309.980469 83.351562 C 309.980469 82.136719 309.980469 81.164062 309.738281 79.949219 C 311.925781 75.085938 311.925781 69.734375 310.710938 65.113281 C 309.980469 61.953125 306.820312 60.007812 303.414062 60.25 C 300.984375 60.496094 294.417969 58.550781 291.015625 57.089844 C 275.695312 50.523438 264.507812 57.820312 259.890625 63.414062 C 253.082031 66.574219 251.863281 74.839844 252.351562 81.894531 C 252.351562 82.378906 252.351562 82.867188 252.351562 83.351562 C 252.351562 93.320312 256.726562 104.75 263.292969 112.289062 C 263.535156 112.53125 263.535156 112.53125 263.78125 112.773438 C 263.292969 114.71875 261.835938 117.636719 258.917969 118.367188 C 258.429688 118.367188 250.164062 119.828125 242.625 124.933594 C 235.328125 115.691406 231.195312 104.507812 231.195312 92.59375 Z M 268.886719 96.238281 C 269.371094 96.238281 269.859375 96.238281 270.589844 95.996094 C 272.535156 95.511719 273.75 94.78125 276.425781 87.730469 C 286.636719 93.566406 297.09375 90.890625 297.578125 90.648438 C 297.824219 90.648438 297.824219 90.648438 298.066406 90.402344 C 298.550781 90.160156 299.039062 89.917969 299.523438 89.675781 C 297.335938 97.210938 293.445312 103.777344 288.582031 107.667969 C 283.476562 111.800781 275.695312 110.828125 270.832031 105.480469 C 268.398438 102.804688 266.453125 99.402344 265.238281 95.753906 Z M 262.808594 86.511719 C 261.835938 80.191406 262.078125 72.894531 264.753906 71.921875 C 265.726562 71.679688 266.699219 70.949219 267.183594 69.976562 C 267.671875 69.25 271.804688 64.140625 279.097656 64.140625 C 281.53125 64.140625 284.207031 64.628906 287.367188 66.085938 C 287.367188 66.085938 287.367188 66.085938 287.609375 66.085938 C 289.070312 66.816406 296.363281 69.492188 301.957031 69.734375 C 302.441406 73.867188 301.226562 78.488281 294.660156 81.164062 C 293.203125 81.40625 284.449219 83.109375 277.398438 76.300781 C 276.179688 75.085938 274.480469 74.597656 273.019531 75.085938 C 271.316406 75.328125 270.101562 76.542969 269.617188 78.246094 C 268.644531 80.921875 267.425781 84.324219 266.453125 86.269531 Z M 249.675781 131.742188 C 254.78125 128.824219 260.375 127.851562 260.617188 127.851562 C 266.453125 126.878906 270.101562 122.746094 272.046875 118.855469 C 273.019531 119.339844 273.992188 119.582031 274.964844 119.828125 C 275.207031 119.828125 276.910156 120.3125 279.828125 120.554688 C 280.558594 120.554688 281.042969 120.554688 281.773438 120.554688 C 283.71875 120.554688 285.179688 120.3125 286.394531 120.070312 C 287.609375 119.828125 288.339844 119.828125 288.339844 119.828125 C 289.3125 119.582031 290.285156 119.339844 291.257812 118.855469 C 293.203125 122.988281 296.851562 126.878906 302.929688 128.09375 C 302.929688 128.09375 309.25 129.308594 314.601562 132.472656 C 305.605469 139.765625 294.417969 143.898438 282.503906 143.898438 C 270.101562 143.65625 258.671875 139.523438 249.675781 131.742188 Z M 41.527344 92.59375 C 41.527344 64.386719 64.386719 41.527344 92.59375 41.527344 C 120.800781 41.527344 143.65625 64.386719 143.65625 92.59375 C 143.65625 104.75 139.523438 116.179688 131.742188 125.417969 C 124.203125 119.828125 115.207031 118.367188 114.71875 118.367188 C 110.34375 117.636719 109.371094 112.046875 109.371094 111.074219 C 114.964844 104.265625 117.882812 96.726562 119.097656 92.105469 C 119.828125 89.1875 120.3125 86.269531 120.3125 83.351562 C 120.3125 82.136719 120.3125 81.164062 120.070312 79.949219 C 122.257812 75.085938 122.257812 69.734375 121.042969 65.113281 C 120.3125 61.953125 117.152344 60.007812 113.746094 60.25 C 111.316406 60.496094 104.75 58.550781 101.347656 57.089844 C 86.027344 50.523438 74.839844 57.820312 70.222656 63.414062 C 63.414062 66.574219 62.195312 74.839844 62.683594 81.894531 C 62.683594 82.378906 62.683594 82.867188 62.683594 83.351562 C 62.683594 93.320312 67.058594 104.75 73.625 112.289062 C 73.867188 112.53125 73.867188 112.53125 74.113281 112.773438 C 73.625 114.71875 72.167969 117.636719 69.25 118.367188 C 68.761719 118.367188 60.496094 119.828125 52.957031 124.933594 C 45.660156 115.691406 41.527344 104.507812 41.527344 92.59375 Z M 79.21875 96.238281 C 79.703125 96.238281 80.191406 96.238281 80.921875 95.996094 C 82.867188 95.511719 84.082031 94.78125 86.757812 87.730469 C 96.96875 93.566406 107.425781 90.890625 107.910156 90.648438 C 108.15625 90.648438 108.15625 90.648438 108.398438 90.402344 C 108.882812 90.160156 109.371094 89.917969 109.855469 89.675781 C 107.667969 97.210938 103.777344 103.777344 98.914062 107.667969 C 93.808594 111.800781 86.027344 110.828125 81.164062 105.480469 C 78.730469 102.804688 76.785156 99.402344 75.570312 95.753906 Z M 73.140625 86.511719 C 72.167969 80.191406 72.410156 72.894531 75.085938 71.921875 C 76.058594 71.679688 77.03125 70.949219 77.515625 69.976562 C 78.003906 69.25 82.136719 64.140625 89.429688 64.140625 C 91.863281 64.140625 94.539062 64.628906 97.699219 66.085938 C 97.699219 66.085938 97.699219 66.085938 97.941406 66.085938 C 99.402344 66.816406 106.695312 69.492188 112.289062 69.734375 C 112.773438 73.867188 111.558594 78.488281 104.992188 81.164062 C 103.535156 81.40625 94.78125 83.109375 87.730469 76.300781 C 86.511719 75.085938 84.8125 74.597656 83.351562 75.085938 C 81.648438 75.328125 80.433594 76.542969 79.949219 78.246094 C 78.976562 80.921875 77.757812 84.324219 76.785156 86.269531 Z M 60.007812 131.742188 C 65.113281 128.824219 70.707031 127.851562 70.949219 127.851562 C 76.785156 126.878906 80.433594 122.746094 82.378906 118.855469 C 83.351562 119.339844 84.324219 119.582031 85.296875 119.828125 C 85.539062 119.828125 87.242188 120.3125 90.160156 120.554688 C 90.890625 120.554688 91.375 120.554688 92.105469 120.554688 C 94.050781 120.554688 95.511719 120.3125 96.726562 120.070312 C 97.941406 119.828125 98.671875 119.828125 98.671875 119.828125 C 99.644531 119.582031 100.617188 119.339844 101.589844 118.855469 C 103.535156 122.988281 107.183594 126.878906 113.261719 128.09375 C 113.261719 128.09375 119.582031 129.308594 124.933594 132.472656 C 115.9375 139.765625 104.75 143.898438 92.835938 143.898438 C 80.433594 143.65625 69.003906 139.523438 60.007812 131.742188 Z M 92.59375 333.324219 C 80.433594 333.324219 69.003906 329.191406 59.765625 321.410156 C 64.871094 318.492188 70.464844 317.519531 70.707031 317.519531 C 76.542969 316.546875 80.191406 312.414062 82.136719 308.523438 C 83.109375 309.007812 84.082031 309.25 85.054688 309.496094 C 85.296875 309.496094 87 309.980469 89.917969 310.222656 C 90.648438 310.222656 91.132812 310.222656 91.863281 310.222656 C 93.808594 310.222656 95.265625 309.980469 96.484375 309.738281 C 97.699219 309.496094 98.429688 309.496094 98.429688 309.496094 C 99.402344 309.25 100.375 309.007812 101.347656 308.523438 C 103.292969 312.65625 106.9375 316.546875 112.773438 317.761719 C 112.773438 317.761719 119.097656 318.734375 124.445312 322.140625 C 115.691406 329.191406 104.507812 333.324219 92.59375 333.324219 Z M 79.21875 285.90625 C 79.703125 285.90625 80.191406 285.90625 80.921875 285.664062 C 82.867188 285.179688 84.082031 284.449219 86.757812 277.398438 C 96.96875 283.234375 107.425781 280.558594 107.910156 280.316406 C 108.15625 280.316406 108.15625 280.316406 108.398438 280.070312 C 108.882812 279.828125 109.371094 279.585938 109.855469 279.34375 C 107.667969 286.878906 103.777344 293.445312 98.914062 297.335938 C 93.808594 301.46875 86.027344 300.496094 81.164062 295.148438 C 78.730469 292.472656 76.785156 289.070312 75.570312 285.421875 Z M 73.140625 276.179688 C 72.167969 269.859375 72.410156 262.5625 75.085938 261.589844 C 76.058594 261.347656 77.03125 260.617188 77.515625 259.644531 C 77.757812 259.402344 81.648438 253.808594 89.429688 253.808594 C 91.863281 253.808594 94.539062 254.296875 97.699219 255.753906 C 97.699219 255.753906 97.699219 255.753906 97.941406 255.753906 C 99.402344 256.484375 106.695312 259.160156 112.289062 259.402344 C 112.773438 263.535156 111.558594 268.15625 104.992188 270.832031 C 103.535156 271.074219 94.78125 272.777344 87.730469 265.96875 C 86.511719 264.753906 84.8125 264.265625 83.351562 264.753906 C 81.648438 264.996094 80.433594 266.210938 79.949219 267.914062 C 78.976562 270.589844 77.757812 273.992188 76.785156 275.9375 Z M 143.65625 282.261719 C 143.65625 294.417969 139.523438 305.847656 131.742188 315.085938 C 124.203125 309.496094 115.207031 308.035156 114.71875 308.035156 C 110.34375 307.304688 109.371094 301.714844 109.371094 300.742188 C 114.964844 293.933594 117.882812 286.394531 119.097656 281.773438 C 119.828125 278.855469 120.3125 275.9375 120.3125 273.019531 C 120.3125 271.804688 120.3125 270.832031 120.070312 269.617188 C 122.257812 264.753906 122.257812 259.402344 121.042969 254.78125 C 120.3125 251.621094 117.152344 249.675781 113.746094 249.917969 C 111.316406 250.164062 104.75 248.21875 101.347656 246.757812 C 86.027344 240.191406 74.839844 247.488281 70.222656 253.082031 C 63.414062 256.242188 62.195312 264.507812 62.683594 271.5625 C 62.683594 272.046875 62.683594 272.535156 62.683594 273.019531 C 62.683594 282.988281 67.058594 294.417969 73.625 301.957031 C 73.867188 302.199219 73.867188 302.199219 74.113281 302.441406 C 73.625 304.386719 72.167969 307.304688 69.25 308.035156 C 68.761719 308.035156 60.496094 309.496094 52.957031 314.601562 C 45.660156 305.605469 41.527344 294.417969 41.527344 282.503906 C 41.527344 254.296875 64.386719 231.4375 92.59375 231.4375 C 120.800781 231.4375 143.65625 254.054688 143.65625 282.261719 Z M 187.425781 236.058594 C 160.679688 236.058594 138.792969 214.175781 138.792969 187.425781 C 138.792969 160.679688 160.679688 138.792969 187.425781 138.792969 C 214.175781 138.792969 236.058594 160.679688 236.058594 187.425781 C 236.058594 214.175781 214.175781 236.058594 187.425781 236.058594 Z M 282.261719 333.324219 C 270.101562 333.324219 258.671875 329.191406 249.433594 321.410156 C 254.539062 318.492188 260.132812 317.519531 260.375 317.519531 C 266.210938 316.546875 269.859375 312.414062 271.804688 308.523438 C 272.777344 309.007812 273.75 309.25 274.722656 309.496094 C 274.964844 309.496094 276.667969 309.980469 279.585938 310.222656 C 280.316406 310.222656 280.800781 310.222656 281.53125 310.222656 C 283.476562 310.222656 284.933594 309.980469 286.152344 309.738281 C 287.367188 309.496094 288.097656 309.496094 288.097656 309.496094 C 289.070312 309.25 290.042969 309.007812 291.015625 308.523438 C 292.960938 312.65625 296.605469 316.546875 302.441406 317.761719 C 302.441406 317.761719 308.765625 318.734375 314.113281 322.140625 C 305.359375 329.191406 294.175781 333.324219 282.261719 333.324219 Z M 268.886719 285.90625 C 269.371094 285.90625 270.101562 285.90625 270.589844 285.664062 C 272.535156 285.179688 273.75 284.449219 276.425781 277.398438 C 286.636719 283.234375 297.09375 280.558594 297.578125 280.316406 C 297.824219 280.316406 297.824219 280.316406 298.066406 280.070312 C 298.550781 279.828125 299.039062 279.585938 299.523438 279.34375 C 297.335938 286.878906 293.445312 293.445312 288.582031 297.335938 C 283.476562 301.46875 275.695312 300.496094 270.832031 295.148438 C 268.398438 292.472656 266.453125 289.070312 265.238281 285.421875 Z M 262.808594 276.179688 C 261.835938 269.859375 262.078125 262.5625 264.753906 261.589844 C 265.726562 261.347656 266.699219 260.617188 267.183594 259.644531 C 267.425781 259.402344 271.316406 253.808594 279.097656 253.808594 C 281.53125 253.808594 284.207031 254.296875 287.367188 255.753906 C 287.367188 255.753906 287.367188 255.753906 287.609375 255.753906 C 289.070312 256.484375 296.363281 259.160156 301.957031 259.402344 C 302.441406 263.535156 301.226562 268.15625 294.660156 270.832031 C 293.203125 271.074219 284.449219 272.777344 277.398438 265.96875 C 276.179688 264.753906 274.480469 264.265625 273.019531 264.753906 C 271.316406 264.996094 270.101562 266.210938 269.617188 267.914062 C 268.644531 270.589844 267.425781 273.992188 266.453125 275.9375 Z M 321.410156 315.085938 C 313.871094 309.496094 304.875 308.035156 304.386719 308.035156 C 300.011719 307.304688 299.039062 301.714844 299.039062 300.742188 C 304.632812 293.933594 307.550781 286.394531 308.765625 281.773438 C 309.496094 278.855469 309.980469 275.9375 309.980469 273.019531 C 309.980469 271.804688 309.980469 270.832031 309.738281 269.617188 C 311.925781 264.753906 311.925781 259.402344 310.710938 254.78125 C 309.980469 251.621094 306.820312 249.675781 303.414062 249.917969 C 300.984375 250.164062 294.417969 248.21875 291.015625 246.757812 C 275.695312 240.191406 264.507812 247.488281 259.890625 253.082031 C 253.082031 256.242188 251.863281 264.507812 252.351562 271.5625 C 252.351562 272.046875 252.351562 272.535156 252.351562 273.019531 C 252.351562 282.988281 256.726562 294.417969 263.292969 301.957031 C 263.535156 302.199219 263.535156 302.199219 263.78125 302.441406 C 263.292969 304.386719 261.835938 307.304688 258.917969 308.035156 C 258.429688 308.035156 250.164062 309.496094 242.625 314.601562 C 235.328125 305.605469 231.195312 294.417969 231.195312 282.503906 C 231.195312 254.296875 254.054688 231.4375 282.261719 231.4375 C 310.46875 231.4375 333.324219 254.296875 333.324219 282.503906 C 333.324219 294.417969 329.191406 305.847656 321.410156 315.085938 Z M 321.410156 315.085938 " fill-opacity="1" fill-rule="nonzero"/></g><path fill="#f9edd2" d="M 164.8125 169.433594 L 210.285156 169.433594 L 210.285156 174.296875 L 164.8125 174.296875 Z M 164.8125 169.433594 " fill-opacity="0.498" fill-rule="nonzero"/><path fill="#846134" d="M 210.039062 187.667969 L 210.039062 192.53125 L 184.75 192.53125 C 183.777344 192.53125 182.5625 193.019531 181.589844 193.75 L 173.324219 200.3125 L 173.324219 197.394531 C 173.324219 194.722656 171.132812 192.53125 168.460938 192.53125 L 164.570312 192.53125 L 164.570312 187.667969 L 168.460938 187.667969 C 171.132812 187.667969 173.324219 189.859375 173.324219 192.53125 L 173.324219 195.449219 L 181.589844 188.886719 C 182.5625 188.15625 183.535156 187.667969 184.75 187.667969 Z M 210.039062 187.667969 " fill-opacity="0.298" fill-rule="nonzero"/></svg>