<svg xmlns="http://www.w3.org/2000/svg" xmlns:xlink="http://www.w3.org/1999/xlink" width="500" zoomAndPan="magnify" viewBox="0 0 375 374.999991" height="500" preserveAspectRatio="xMidYMid meet" version="1.0"><defs><clipPath id="id1"><path d="M 41.410156 57 L 333.910156 57 L 333.910156 318 L 41.410156 318 Z M 41.410156 57 " clip-rule="nonzero"/></clipPath></defs><g clip-path="url(#id1)"><path fill="#00d8ff" d="M 281.707031 141.96875 C 278.683594 140.929688 275.550781 139.941406 272.3125 139.007812 C 272.847656 136.839844 273.335938 134.699219 273.769531 132.597656 C 280.875 98.0625 276.234375 70.242188 260.351562 61.082031 C 245.117188 52.296875 220.214844 61.457031 195.0625 83.351562 C 192.644531 85.453125 190.214844 87.683594 187.796875 90.019531 C 186.179688 88.472656 184.570312 86.980469 182.964844 85.550781 C 156.601562 62.140625 130.179688 52.277344 114.3125 61.460938 C 99.097656 70.273438 94.59375 96.425781 100.996094 129.15625 C 101.617188 132.316406 102.339844 135.546875 103.15625 138.828125 C 99.417969 139.890625 95.804688 141.019531 92.351562 142.226562 C 61.449219 153.003906 41.710938 169.894531 41.710938 187.414062 C 41.710938 205.5 62.898438 223.660156 95.089844 234.664062 C 97.628906 235.53125 100.261719 236.351562 102.980469 237.128906 C 102.097656 240.675781 101.332031 244.152344 100.6875 247.550781 C 94.582031 279.714844 99.351562 305.25 114.523438 313.996094 C 130.195312 323.039062 156.5 313.746094 182.109375 291.355469 C 184.136719 289.589844 186.167969 287.707031 188.195312 285.746094 C 190.84375 288.277344 193.476562 290.683594 196.085938 292.941406 C 220.898438 314.292969 245.402344 322.914062 260.554688 314.144531 C 276.210938 305.078125 281.308594 277.636719 274.695312 244.265625 C 274.191406 241.710938 273.601562 239.113281 272.949219 236.464844 C 274.796875 235.917969 276.609375 235.347656 278.378906 234.765625 C 311.84375 223.667969 333.609375 205.753906 333.609375 187.414062 C 333.609375 169.828125 313.234375 152.824219 281.707031 141.96875 Z M 274.457031 222.929688 C 272.859375 223.453125 271.21875 223.964844 269.550781 224.457031 C 265.859375 212.765625 260.875 200.324219 254.761719 187.472656 C 260.589844 174.925781 265.378906 162.648438 268.96875 151.027344 C 271.957031 151.890625 274.855469 152.800781 277.648438 153.761719 C 304.660156 163.066406 321.136719 176.820312 321.136719 187.414062 C 321.136719 198.691406 303.347656 213.347656 274.457031 222.929688 Z M 262.460938 246.683594 C 265.390625 261.441406 265.800781 274.785156 263.863281 285.222656 C 262.128906 294.597656 258.628906 300.847656 254.308594 303.34375 C 245.105469 308.667969 225.4375 301.746094 204.226562 283.488281 C 201.789062 281.390625 199.335938 279.152344 196.886719 276.792969 C 205.105469 267.796875 213.328125 257.335938 221.355469 245.714844 C 235.460938 244.472656 248.789062 242.417969 260.886719 239.625 C 261.480469 242.03125 262.003906 244.382812 262.460938 246.683594 Z M 141.230469 302.421875 C 132.242188 305.601562 125.085938 305.691406 120.757812 303.195312 C 111.550781 297.878906 107.722656 277.375 112.945312 249.878906 C 113.542969 246.730469 114.253906 243.492188 115.074219 240.183594 C 127.03125 242.828125 140.265625 244.734375 154.410156 245.875 C 162.488281 257.246094 170.949219 267.691406 179.46875 276.839844 C 177.609375 278.640625 175.75 280.351562 173.902344 281.960938 C 162.582031 291.871094 151.234375 298.894531 141.230469 302.421875 Z M 99.125 222.859375 C 84.890625 217.988281 73.136719 211.671875 65.082031 204.761719 C 57.839844 198.566406 54.1875 192.410156 54.1875 187.414062 C 54.1875 176.785156 70.03125 163.21875 96.460938 154.003906 C 99.667969 152.882812 103.023438 151.832031 106.507812 150.839844 C 110.160156 162.726562 114.953125 175.152344 120.734375 187.710938 C 114.878906 200.460938 110.019531 213.085938 106.328125 225.117188 C 103.847656 224.398438 101.441406 223.648438 99.125 222.859375 Z M 113.238281 126.761719 C 107.753906 98.71875 111.398438 77.566406 120.566406 72.257812 C 130.332031 66.601562 151.921875 74.664062 174.679688 94.878906 C 176.136719 96.171875 177.597656 97.523438 179.066406 98.921875 C 170.585938 108.03125 162.203125 118.398438 154.199219 129.699219 C 140.46875 130.972656 127.328125 133.015625 115.246094 135.757812 C 114.488281 132.699219 113.8125 129.695312 113.238281 126.761719 Z M 239.144531 157.859375 C 236.257812 152.867188 233.292969 147.996094 230.273438 143.257812 C 239.589844 144.433594 248.503906 146 256.886719 147.910156 C 254.375 155.976562 251.242188 164.40625 247.546875 173.054688 C 244.902344 168.023438 242.097656 162.953125 239.144531 157.859375 Z M 187.800781 107.835938 C 193.558594 114.070312 199.316406 121.027344 204.980469 128.578125 C 199.269531 128.308594 193.488281 128.167969 187.660156 128.167969 C 181.890625 128.167969 176.15625 128.304688 170.480469 128.570312 C 176.144531 121.089844 181.960938 114.140625 187.796875 107.835938 Z M 136.125 157.945312 C 133.242188 162.949219 130.492188 167.992188 127.886719 173.042969 C 124.253906 164.429688 121.148438 155.957031 118.609375 147.777344 C 126.9375 145.914062 135.820312 144.390625 145.074219 143.234375 C 142.007812 148.019531 139.019531 152.925781 136.125 157.945312 Z M 145.339844 232.472656 C 135.78125 231.414062 126.765625 229.964844 118.4375 228.152344 C 121.015625 219.828125 124.191406 211.179688 127.898438 202.378906 C 130.511719 207.429688 133.273438 212.46875 136.175781 217.488281 C 139.132812 222.597656 142.195312 227.59375 145.339844 232.472656 Z M 188.140625 267.863281 C 182.234375 261.488281 176.339844 254.429688 170.582031 246.84375 C 176.167969 247.0625 181.871094 247.175781 187.660156 247.175781 C 193.613281 247.175781 199.496094 247.039062 205.277344 246.789062 C 199.601562 254.507812 193.851562 261.578125 188.140625 267.863281 Z M 247.660156 201.933594 C 251.558594 210.828125 254.855469 219.425781 257.46875 227.617188 C 249.007812 229.542969 239.863281 231.09375 230.238281 232.257812 C 233.269531 227.457031 236.257812 222.496094 239.199219 217.398438 C 242.175781 212.242188 244.992188 207.074219 247.660156 201.933594 Z M 228.390625 211.171875 C 223.832031 219.085938 219.144531 226.636719 214.390625 233.761719 C 205.734375 234.378906 196.785156 234.699219 187.660156 234.699219 C 178.574219 234.699219 169.738281 234.425781 161.230469 233.867188 C 156.28125 226.644531 151.5 219.074219 146.964844 211.238281 L 146.96875 211.238281 C 142.445312 203.425781 138.285156 195.546875 134.511719 187.710938 C 138.28125 179.863281 142.433594 171.972656 146.929688 164.175781 C 151.4375 156.359375 156.179688 148.816406 161.082031 141.636719 C 169.761719 140.980469 178.664062 140.640625 187.660156 140.640625 C 196.703125 140.640625 205.609375 140.984375 214.285156 141.644531 C 219.121094 148.773438 223.832031 156.289062 228.355469 164.109375 C 232.929688 172.015625 237.136719 179.851562 240.933594 187.539062 C 237.148438 195.351562 232.953125 203.265625 228.390625 211.171875 Z M 254.113281 71.882812 C 263.898438 77.523438 267.695312 100.257812 261.550781 130.078125 C 261.160156 131.980469 260.714844 133.917969 260.238281 135.882812 C 248.128906 133.085938 234.980469 131.007812 221.21875 129.714844 C 213.191406 118.289062 204.878906 107.902344 196.53125 98.914062 C 198.777344 96.753906 201.027344 94.695312 203.25 92.753906 C 224.800781 73.996094 244.945312 66.589844 254.113281 71.882812 Z M 187.660156 161.335938 C 202.050781 161.335938 213.726562 173.007812 213.726562 187.410156 C 213.726562 201.804688 202.050781 213.480469 187.660156 213.480469 C 173.273438 213.480469 161.597656 201.804688 161.597656 187.410156 C 161.597656 173.007812 173.273438 161.335938 187.660156 161.335938 Z M 187.660156 161.335938 " fill-opacity="1" fill-rule="nonzero"/></g></svg>