<svg xmlns="http://www.w3.org/2000/svg" xmlns:xlink="http://www.w3.org/1999/xlink" width="500" zoomAndPan="magnify" viewBox="0 0 375 374.999991" height="500" preserveAspectRatio="xMidYMid meet" version="1.0"><defs><clipPath id="id1"><path d="M 116 149 L 259 149 L 259 334.320312 L 116 334.320312 Z M 116 149 " clip-rule="nonzero"/></clipPath><clipPath id="id2"><path d="M 51 40.320312 L 325 40.320312 L 325 210 L 51 210 Z M 51 40.320312 " clip-rule="nonzero"/></clipPath><clipPath id="id3"><path d="M 313 187 L 345.894531 187 L 345.894531 264 L 313 264 Z M 313 187 " clip-rule="nonzero"/></clipPath><clipPath id="id4"><path d="M 29.394531 187 L 63 187 L 63 264 L 29.394531 264 Z M 29.394531 187 " clip-rule="nonzero"/></clipPath></defs><g clip-path="url(#id1)"><path fill="#a9c7b9" d="M 258.574219 334.320312 L 133.085938 334.320312 C 124.042969 334.320312 116.71875 327.007812 116.71875 317.984375 L 116.71875 149.207031 L 258.574219 149.207031 Z M 258.574219 334.320312 " fill-opacity="1" fill-rule="nonzero"/></g><path fill="#d0d8da" d="M 258.574219 165.542969 L 133.085938 165.542969 C 124.042969 165.542969 116.71875 158.230469 116.71875 149.207031 C 116.71875 140.1875 124.042969 132.875 133.085938 132.875 L 258.574219 132.875 Z M 258.574219 165.542969 " fill-opacity="1" fill-rule="nonzero"/><path fill="#93999a" d="M 258.574219 154.652344 L 133.085938 154.652344 C 130.074219 154.652344 127.628906 152.214844 127.628906 149.207031 C 127.628906 146.203125 130.074219 143.761719 133.085938 143.761719 L 258.574219 143.761719 Z M 258.574219 154.652344 " fill-opacity="1" fill-rule="nonzero"/><g clip-path="url(#id2)"><path fill="#769fb6" d="M 324.046875 209.097656 L 302.222656 209.097656 L 302.222656 176.429688 C 302.222656 113.382812 250.820312 62.097656 187.644531 62.097656 C 124.464844 62.097656 73.070312 113.382812 73.070312 176.429688 L 73.070312 209.097656 L 51.246094 209.097656 L 51.246094 176.429688 C 51.246094 101.378906 112.433594 40.320312 187.644531 40.320312 C 262.855469 40.320312 324.046875 101.378906 324.046875 176.429688 Z M 324.046875 209.097656 " fill-opacity="1" fill-rule="nonzero"/></g><path fill="#ffdd99" d="M 291.308594 285.320312 L 280.398438 285.320312 L 280.398438 165.542969 L 291.308594 165.542969 C 303.363281 165.542969 313.132812 175.292969 313.132812 187.320312 L 313.132812 263.542969 C 313.132812 275.566406 303.363281 285.320312 291.308594 285.320312 Z M 291.308594 285.320312 " fill-opacity="1" fill-rule="nonzero"/><g clip-path="url(#id3)"><path fill="#ffc857" d="M 324.046875 263.542969 L 313.132812 263.542969 L 313.132812 187.320312 L 324.046875 187.320312 C 336.097656 187.320312 345.871094 197.070312 345.871094 209.097656 L 345.871094 241.761719 C 345.871094 253.789062 336.097656 263.542969 324.046875 263.542969 Z M 324.046875 263.542969 " fill-opacity="1" fill-rule="nonzero"/></g><path fill="#ffdd99" d="M 83.980469 285.320312 L 94.894531 285.320312 L 94.894531 165.542969 L 83.980469 165.542969 C 71.929688 165.542969 62.15625 175.292969 62.15625 187.320312 L 62.15625 263.542969 C 62.15625 275.566406 71.929688 285.320312 83.980469 285.320312 Z M 83.980469 285.320312 " fill-opacity="1" fill-rule="nonzero"/><g clip-path="url(#id4)"><path fill="#ffc857" d="M 51.246094 263.542969 L 62.15625 263.542969 L 62.15625 187.320312 L 51.246094 187.320312 C 39.191406 187.320312 29.421875 197.070312 29.421875 209.097656 L 29.421875 241.761719 C 29.421875 253.789062 39.191406 263.542969 51.246094 263.542969 Z M 51.246094 263.542969 " fill-opacity="1" fill-rule="nonzero"/></g><path fill="#ffdd99" d="M 154.910156 241.761719 L 138.542969 241.761719 L 138.542969 263.542969 L 154.910156 263.542969 L 171.277344 274.429688 L 171.277344 230.875 Z M 154.910156 241.761719 " fill-opacity="1" fill-rule="nonzero"/><path fill="#ffdd99" d="M 231.769531 283.101562 C 231.070312 283.101562 230.359375 282.96875 229.679688 282.683594 C 226.894531 281.535156 225.574219 278.351562 226.726562 275.574219 C 232.859375 260.792969 232.859375 244.511719 226.726562 229.730469 C 225.574219 226.953125 226.894531 223.769531 229.679688 222.621094 C 232.460938 221.484375 235.660156 222.789062 236.808594 225.570312 C 244.054688 243.039062 244.054688 262.273438 236.808594 279.738281 C 235.941406 281.835938 233.90625 283.101562 231.769531 283.101562 Z M 231.769531 283.101562 " fill-opacity="1" fill-rule="nonzero"/><path fill="#ffdd99" d="M 211.601562 274.769531 C 210.90625 274.769531 210.195312 274.632812 209.511719 274.347656 C 206.730469 273.199219 205.410156 270.015625 206.5625 267.234375 C 210.46875 257.824219 210.46875 247.46875 206.5625 238.066406 C 205.40625 235.289062 206.726562 232.105469 209.511719 230.949219 C 212.289062 229.808594 215.492188 231.113281 216.644531 233.894531 C 221.667969 245.988281 221.667969 259.304688 216.644531 271.402344 C 215.769531 273.503906 213.734375 274.769531 211.601562 274.769531 Z M 211.601562 274.769531 " fill-opacity="1" fill-rule="nonzero"/><path fill="#ffdd99" d="M 191.4375 266.433594 C 190.746094 266.433594 190.035156 266.296875 189.351562 266.011719 C 186.570312 264.863281 185.25 261.679688 186.402344 258.898438 C 188.078125 254.867188 188.078125 250.425781 186.402344 246.398438 C 185.25 243.621094 186.570312 240.433594 189.359375 239.285156 C 192.148438 238.125 195.332031 239.453125 196.484375 242.238281 C 199.273438 248.957031 199.273438 256.355469 196.484375 263.074219 C 195.609375 265.167969 193.574219 266.433594 191.4375 266.433594 Z M 191.4375 266.433594 " fill-opacity="1" fill-rule="nonzero"/><path fill="#ffdd99" d="M 204.011719 312.542969 L 171.277344 312.542969 C 168.265625 312.542969 165.820312 310.101562 165.820312 307.097656 C 165.820312 304.089844 168.265625 301.652344 171.277344 301.652344 L 204.011719 301.652344 C 207.03125 301.652344 209.46875 304.089844 209.46875 307.097656 C 209.46875 310.101562 207.03125 312.542969 204.011719 312.542969 Z M 204.011719 312.542969 " fill-opacity="1" fill-rule="nonzero"/><path fill="#ffdd99" d="M 204.011719 203.652344 L 171.277344 203.652344 C 168.265625 203.652344 165.820312 201.214844 165.820312 198.207031 C 165.820312 195.203125 168.265625 192.761719 171.277344 192.761719 L 204.011719 192.761719 C 207.03125 192.761719 209.46875 195.203125 209.46875 198.207031 C 209.46875 201.214844 207.03125 203.652344 204.011719 203.652344 Z M 204.011719 203.652344 " fill-opacity="1" fill-rule="nonzero"/><path fill="#83ae9b" d="M 171.277344 239.949219 L 171.277344 274.429688 L 154.910156 263.542969 L 143.996094 263.542969 L 143.996094 268.984375 L 160.367188 268.984375 L 176.734375 279.875 L 176.734375 236.320312 Z M 171.277344 239.949219 " fill-opacity="1" fill-rule="nonzero"/><path fill="#83ae9b" d="M 242.265625 231.011719 C 241.445312 229.035156 239.582031 227.851562 237.578125 227.714844 C 243.96875 244.605469 243.761719 262.980469 236.808594 279.734375 C 235.941406 281.828125 233.914062 283.09375 231.777344 283.097656 C 231.777344 285.230469 233.039062 287.257812 235.140625 288.128906 C 235.820312 288.410156 236.53125 288.546875 237.230469 288.546875 C 239.367188 288.546875 241.402344 287.277344 242.269531 285.183594 C 249.511719 267.71875 249.511719 248.476562 242.265625 231.011719 Z M 242.265625 231.011719 " fill-opacity="1" fill-rule="nonzero"/><path fill="#83ae9b" d="M 222.09375 239.347656 C 221.277344 237.371094 219.410156 236.1875 217.414062 236.050781 C 221.585938 247.5625 221.367188 260.019531 216.636719 271.410156 C 215.769531 273.503906 213.742188 274.769531 211.609375 274.769531 C 211.609375 276.902344 212.867188 278.925781 214.96875 279.796875 C 215.652344 280.082031 216.359375 280.21875 217.058594 280.21875 C 219.199219 280.21875 221.234375 278.953125 222.101562 276.851562 C 227.121094 264.753906 227.121094 251.433594 222.09375 239.347656 Z M 222.09375 239.347656 " fill-opacity="1" fill-rule="nonzero"/><path fill="#83ae9b" d="M 201.933594 247.679688 C 201.101562 245.660156 199.179688 244.441406 197.121094 244.355469 C 199.109375 250.496094 198.976562 257.046875 196.480469 263.074219 C 195.609375 265.167969 193.582031 266.433594 191.441406 266.433594 C 191.441406 268.566406 192.703125 270.589844 194.804688 271.460938 C 195.484375 271.746094 196.195312 271.882812 196.886719 271.882812 C 199.027344 271.882812 201.0625 270.617188 201.929688 268.515625 C 204.722656 261.800781 204.722656 254.398438 201.933594 247.679688 Z M 201.933594 247.679688 " fill-opacity="1" fill-rule="nonzero"/><path fill="#608ea9" d="M 62.15625 187.320312 C 62.15625 179.113281 66.761719 172.054688 73.476562 168.339844 C 73.632812 166.210938 73.816406 164.09375 74.085938 161.996094 C 65.574219 165.324219 59.113281 172.761719 57.253906 181.875 L 51.246094 181.875 L 51.246094 187.320312 Z M 62.15625 187.320312 " fill-opacity="1" fill-rule="nonzero"/><path fill="#608ea9" d="M 301.8125 168.339844 C 308.527344 172.054688 313.132812 179.113281 313.132812 187.320312 L 324.046875 187.320312 L 324.046875 181.875 L 318.039062 181.875 C 316.179688 172.761719 309.710938 165.324219 301.203125 161.996094 C 301.472656 164.09375 301.660156 166.207031 301.8125 168.339844 Z M 301.8125 168.339844 " fill-opacity="1" fill-rule="nonzero"/><path fill="#ffb41f" d="M 56.703125 187.320312 L 62.15625 187.320312 L 62.15625 263.542969 L 56.703125 263.542969 Z M 56.703125 187.320312 " fill-opacity="1" fill-rule="nonzero"/><path fill="#ffb41f" d="M 313.132812 187.320312 L 318.589844 187.320312 L 318.589844 263.542969 L 313.132812 263.542969 Z M 313.132812 187.320312 " fill-opacity="1" fill-rule="nonzero"/></svg>