<svg xmlns="http://www.w3.org/2000/svg" xmlns:xlink="http://www.w3.org/1999/xlink" width="500" zoomAndPan="magnify" viewBox="0 0 375 374.999991" height="500" preserveAspectRatio="xMidYMid meet" version="1.0"><defs><clipPath id="id1"><path d="M 18.730469 85 L 137 85 L 137 290 L 18.730469 290 Z M 18.730469 85 " clip-rule="nonzero"/></clipPath><clipPath id="id2"><path d="M 352.015625 156.269531 L 191.253906 156.269531 L 191.253906 223 L 283.789062 223 C 275.164062 265.394531 239.089844 289.730469 191.253906 289.730469 C 134.792969 289.730469 89.308594 244.199219 89.308594 187.671875 C 89.308594 131.148438 134.792969 85.613281 191.253906 85.613281 C 215.5625 85.613281 237.519531 94.25 254.773438 108.378906 L 304.960938 58.136719 C 274.378906 31.441406 235.167969 14.957031 191.253906 14.957031 C 95.582031 14.957031 18.730469 91.894531 18.730469 187.671875 C 18.730469 283.449219 95.582031 360.386719 191.253906 360.386719 C 277.515625 360.386719 355.933594 297.582031 355.933594 187.671875 C 355.933594 177.464844 354.367188 166.476562 352.015625 156.269531 Z M 352.015625 156.269531 " clip-rule="nonzero"/></clipPath><clipPath id="id3"><path d="M 18.730469 14 L 355.933594 14 L 355.933594 188 L 18.730469 188 Z M 18.730469 14 " clip-rule="nonzero"/></clipPath><clipPath id="id4"><path d="M 352.015625 156.269531 L 191.253906 156.269531 L 191.253906 223 L 283.789062 223 C 275.164062 265.394531 239.089844 289.730469 191.253906 289.730469 C 134.792969 289.730469 89.308594 244.199219 89.308594 187.671875 C 89.308594 131.148438 134.792969 85.613281 191.253906 85.613281 C 215.5625 85.613281 237.519531 94.25 254.773438 108.378906 L 304.960938 58.136719 C 274.378906 31.441406 235.167969 14.957031 191.253906 14.957031 C 95.582031 14.957031 18.730469 91.894531 18.730469 187.671875 C 18.730469 283.449219 95.582031 360.386719 191.253906 360.386719 C 277.515625 360.386719 355.933594 297.582031 355.933594 187.671875 C 355.933594 177.464844 354.367188 166.476562 352.015625 156.269531 Z M 352.015625 156.269531 " clip-rule="nonzero"/></clipPath><clipPath id="id5"><path d="M 18.730469 14 L 355.933594 14 L 355.933594 360.386719 L 18.730469 360.386719 Z M 18.730469 14 " clip-rule="nonzero"/></clipPath><clipPath id="id6"><path d="M 352.015625 156.269531 L 191.253906 156.269531 L 191.253906 223 L 283.789062 223 C 275.164062 265.394531 239.089844 289.730469 191.253906 289.730469 C 134.792969 289.730469 89.308594 244.199219 89.308594 187.671875 C 89.308594 131.148438 134.792969 85.613281 191.253906 85.613281 C 215.5625 85.613281 237.519531 94.25 254.773438 108.378906 L 304.960938 58.136719 C 274.378906 31.441406 235.167969 14.957031 191.253906 14.957031 C 95.582031 14.957031 18.730469 91.894531 18.730469 187.671875 C 18.730469 283.449219 95.582031 360.386719 191.253906 360.386719 C 277.515625 360.386719 355.933594 297.582031 355.933594 187.671875 C 355.933594 177.464844 354.367188 166.476562 352.015625 156.269531 Z M 352.015625 156.269531 " clip-rule="nonzero"/></clipPath><clipPath id="id7"><path d="M 104 85 L 355.933594 85 L 355.933594 360.386719 L 104 360.386719 Z M 104 85 " clip-rule="nonzero"/></clipPath><clipPath id="id8"><path d="M 352.015625 156.269531 L 191.253906 156.269531 L 191.253906 223 L 283.789062 223 C 275.164062 265.394531 239.089844 289.730469 191.253906 289.730469 C 134.792969 289.730469 89.308594 244.199219 89.308594 187.671875 C 89.308594 131.148438 134.792969 85.613281 191.253906 85.613281 C 215.5625 85.613281 237.519531 94.25 254.773438 108.378906 L 304.960938 58.136719 C 274.378906 31.441406 235.167969 14.957031 191.253906 14.957031 C 95.582031 14.957031 18.730469 91.894531 18.730469 187.671875 C 18.730469 283.449219 95.582031 360.386719 191.253906 360.386719 C 277.515625 360.386719 355.933594 297.582031 355.933594 187.671875 C 355.933594 177.464844 354.367188 166.476562 352.015625 156.269531 Z M 352.015625 156.269531 " clip-rule="nonzero"/></clipPath></defs><g clip-path="url(#id1)"><g clip-path="url(#id2)"><path fill="#fbbc05" d="M 3.046875 289.730469 L 3.046875 85.613281 L 136.359375 187.671875 Z M 3.046875 289.730469 " fill-opacity="1" fill-rule="nonzero"/></g></g><g clip-path="url(#id3)"><g clip-path="url(#id4)"><path fill="#ea4335" d="M 3.046875 85.613281 L 136.359375 187.671875 L 191.253906 139.78125 L 379.460938 109.164062 L 379.460938 -0.746094 L 3.046875 -0.746094 Z M 3.046875 85.613281 " fill-opacity="1" fill-rule="nonzero"/></g></g><g clip-path="url(#id5)"><g clip-path="url(#id6)"><path fill="#34a853" d="M 3.046875 289.730469 L 238.304688 109.164062 L 300.257812 117.015625 L 379.460938 -0.746094 L 379.460938 376.089844 L 3.046875 376.089844 Z M 3.046875 289.730469 " fill-opacity="1" fill-rule="nonzero"/></g></g><g clip-path="url(#id7)"><g clip-path="url(#id8)"><path fill="#4285f4" d="M 379.460938 376.089844 L 136.359375 187.671875 L 104.992188 164.121094 L 379.460938 85.613281 Z M 379.460938 376.089844 " fill-opacity="1" fill-rule="nonzero"/></g></g></svg>