<svg xmlns="http://www.w3.org/2000/svg" xmlns:xlink="http://www.w3.org/1999/xlink" width="500" zoomAndPan="magnify" viewBox="0 0 375 374.999991" height="500" preserveAspectRatio="xMidYMid meet" version="1.0"><defs><clipPath id="id1"><path d="M 61 37.5 L 159 37.5 L 159 125 L 61 125 Z M 61 37.5 " clip-rule="nonzero"/></clipPath><clipPath id="id2"><path d="M 282.3125 140 L 326.113281 140 L 326.113281 205 L 282.3125 205 Z M 282.3125 140 " clip-rule="nonzero"/></clipPath><clipPath id="id3"><path d="M 48.726562 66 L 320 66 L 320 312 L 48.726562 312 Z M 48.726562 66 " clip-rule="nonzero"/></clipPath><clipPath id="id4"><path d="M 99 285 L 167 285 L 167 361.5 L 99 361.5 Z M 99 285 " clip-rule="nonzero"/></clipPath></defs><g clip-path="url(#id1)"><path fill="#fbbc05" d="M 137.183594 102.460938 C 130.59375 102.460938 126.386719 99.265625 126.386719 97.066406 C 126.386719 94.867188 130.59375 91.667969 137.183594 91.667969 C 143.773438 91.667969 147.980469 94.867188 147.980469 97.066406 C 147.980469 99.265625 143.773438 102.460938 137.183594 102.460938 Z M 83.203125 113.253906 C 76.613281 113.253906 72.40625 110.058594 72.40625 107.859375 C 72.40625 105.65625 76.613281 102.460938 83.203125 102.460938 C 89.789062 102.460938 94 105.65625 94 107.859375 C 94 110.058594 89.789062 113.253906 83.203125 113.253906 Z M 137.183594 80.875 C 125.074219 80.875 115.589844 87.988281 115.589844 97.066406 C 115.589844 106.140625 125.074219 113.253906 137.183594 113.253906 C 149.289062 113.253906 158.773438 106.140625 158.773438 97.066406 L 158.773438 43.097656 C 158.773438 41.480469 158.046875 39.949219 156.796875 38.925781 C 155.554688 37.902344 153.914062 37.496094 152.320312 37.808594 L 98.335938 48.597656 C 95.816406 49.105469 94 51.320312 94 53.890625 L 94 93.851562 C 90.828125 92.496094 87.183594 91.667969 83.203125 91.667969 C 71.09375 91.667969 61.609375 98.78125 61.609375 107.859375 C 61.609375 116.9375 71.09375 124.046875 83.203125 124.046875 C 95.3125 124.046875 104.792969 116.9375 104.792969 107.859375 L 104.792969 58.316406 L 147.980469 49.683594 L 147.980469 83.058594 C 144.808594 81.703125 141.164062 80.875 137.183594 80.875 " fill-opacity="1" fill-rule="nonzero"/></g><g clip-path="url(#id2)"><path fill="#fbbc05" d="M 304.523438 194.203125 C 297.933594 194.203125 293.726562 191.007812 293.726562 188.808594 C 293.726562 186.605469 297.933594 183.410156 304.523438 183.410156 C 311.113281 183.410156 315.316406 186.605469 315.316406 188.808594 C 315.316406 191.007812 311.113281 194.203125 304.523438 194.203125 Z M 320.71875 140.238281 C 317.734375 140.238281 315.316406 142.65625 315.316406 145.636719 L 315.316406 174.800781 C 312.148438 173.445312 308.503906 172.617188 304.523438 172.617188 C 292.414062 172.617188 282.929688 179.730469 282.929688 188.808594 C 282.929688 197.886719 292.414062 205 304.523438 205 C 316.632812 205 326.117188 197.886719 326.117188 188.808594 L 326.117188 145.636719 C 326.117188 142.65625 323.699219 140.238281 320.71875 140.238281 " fill-opacity="1" fill-rule="nonzero"/></g><g clip-path="url(#id3)"><path fill="#fbbc05" d="M 86.988281 258.230469 L 102.253906 273.496094 L 94.621094 281.125 L 79.355469 265.863281 Z M 114.207031 224.394531 L 136.101562 246.277344 L 110.335938 266.308594 L 94.171875 250.148438 Z M 197.679688 139.933594 L 220.582031 162.832031 L 205.3125 178.09375 L 182.414062 155.199219 Z M 205.3125 117.035156 L 243.484375 155.199219 L 235.851562 162.832031 L 197.679688 124.671875 Z M 224.753906 90.679688 L 254.828125 120.75 L 262.460938 113.117188 L 232.417969 83.082031 C 245.0625 74.105469 262.703125 75.191406 274.023438 86.507812 C 285.34375 97.828125 286.429688 115.464844 277.453125 128.101562 L 270.199219 120.855469 L 262.566406 128.488281 L 269.851562 135.769531 C 262.585938 140.964844 253.566406 142.90625 244.617188 141.070312 L 219.441406 115.898438 C 217.613281 106.972656 219.550781 97.949219 224.753906 90.679688 Z M 56.449219 311.652344 L 83.171875 284.941406 L 90.804688 292.574219 C 91.816406 293.585938 93.1875 294.152344 94.621094 294.152344 C 96.054688 294.152344 97.425781 293.585938 98.4375 292.574219 L 113.453125 277.5625 L 143.796875 253.96875 L 154.730469 264.898438 C 158.390625 268.554688 162.65625 271.445312 167.414062 273.484375 L 181.710938 279.605469 C 185.203125 281.105469 188.324219 283.21875 191.007812 285.902344 L 205.640625 300.53125 L 213.273438 292.898438 L 198.640625 278.273438 C 194.992188 274.613281 190.726562 271.726562 185.957031 269.6875 L 171.671875 263.566406 C 168.175781 262.066406 165.046875 259.949219 162.363281 257.269531 L 79.355469 174.28125 C 78.335938 173.257812 77.773438 171.90625 77.773438 170.464844 C 77.773438 169.023438 78.332031 167.667969 79.359375 166.644531 C 81.394531 164.617188 84.9375 164.601562 86.988281 166.648438 L 121.34375 200.992188 C 123.449219 203.097656 126.867188 203.097656 128.976562 200.992188 C 131.082031 198.878906 131.082031 195.464844 128.976562 193.359375 C 126.871094 191.253906 126.871094 187.832031 128.976562 185.722656 C 131.007812 183.691406 134.574219 183.679688 136.609375 185.726562 C 138.71875 187.832031 142.132812 187.835938 144.242188 185.722656 C 145.292969 184.671875 145.824219 183.289062 145.824219 181.90625 C 145.824219 180.527344 145.292969 179.144531 144.242188 178.089844 C 143.21875 177.074219 142.660156 175.71875 142.660156 174.28125 C 142.660156 172.835938 143.21875 171.484375 144.242188 170.464844 C 146.351562 168.359375 149.765625 168.359375 151.875 170.464844 C 153.984375 172.570312 157.398438 172.570312 159.507812 170.464844 C 160.5625 169.410156 161.089844 168.027344 161.089844 166.648438 C 161.089844 165.265625 160.5625 163.886719 159.507812 162.832031 C 157.40625 160.726562 157.40625 157.300781 159.507812 155.199219 C 161.617188 153.101562 165.035156 153.089844 167.148438 155.199219 L 212.945312 200.992188 L 220.578125 193.359375 L 212.945312 185.726562 L 220.582031 178.09375 L 231.0625 188.574219 C 233.75 191.261719 235.878906 194.394531 237.371094 197.886719 L 243.488281 212.15625 C 245.523438 216.917969 248.417969 221.191406 252.085938 224.855469 L 312.1875 284.9375 L 319.820312 277.308594 L 259.71875 217.226562 C 257.03125 214.535156 254.90625 211.402344 253.410156 207.910156 L 247.292969 193.632812 C 245.253906 188.875 242.363281 184.601562 238.695312 180.941406 L 228.214844 170.464844 L 228.21875 170.464844 L 232.035156 174.28125 C 233.046875 175.289062 234.417969 175.859375 235.851562 175.859375 C 237.285156 175.859375 238.652344 175.289062 239.667969 174.28125 L 254.933594 159.011719 C 256.765625 157.179688 256.910156 154.402344 255.546875 152.308594 C 265.285156 151.28125 274.585938 147 281.652344 139.933594 C 298.492188 123.105469 298.492188 95.714844 281.652344 78.878906 C 264.816406 62.042969 237.421875 62.042969 220.582031 78.878906 C 213.390625 86.070312 209.175781 95.269531 208.195312 104.988281 C 206.128906 103.695312 203.25 103.835938 201.496094 105.589844 L 186.230469 120.855469 C 184.121094 122.960938 184.121094 126.375 186.230469 128.488281 L 190.046875 132.300781 L 174.777344 147.566406 C 168.464844 141.246094 158.191406 141.257812 151.875 147.566406 C 148.941406 150.496094 147.371094 154.277344 147.160156 158.121094 C 143.316406 158.335938 139.539062 159.902344 136.609375 162.828125 C 133.761719 165.675781 132.105469 169.390625 131.890625 173.375 C 127.902344 173.59375 124.183594 175.25 121.34375 178.09375 C 120.003906 179.433594 118.949219 180.949219 118.179688 182.566406 L 94.621094 159.015625 C 88.5 152.894531 77.820312 152.910156 71.71875 159.011719 C 68.664062 162.074219 66.976562 166.132812 66.976562 170.464844 C 66.976562 174.789062 68.664062 178.847656 71.71875 181.910156 L 106.519531 216.699219 L 82.941406 247.011719 L 67.902344 262.046875 C 65.796875 264.15625 65.796875 267.570312 67.902344 269.679688 L 75.535156 277.308594 L 48.816406 304.019531 L 56.449219 311.652344 " fill-opacity="1" fill-rule="nonzero"/></g><path fill="#fbbc05" d="M 214.371094 309.261719 L 251.117188 346 L 258.75 338.367188 L 222.007812 301.628906 L 214.371094 309.261719 " fill-opacity="1" fill-rule="nonzero"/><g clip-path="url(#id4)"><path fill="#fbbc05" d="M 120.988281 350.707031 C 114.398438 350.707031 110.195312 347.507812 110.195312 345.3125 C 110.195312 343.109375 114.398438 339.914062 120.988281 339.914062 C 127.578125 339.914062 131.785156 343.109375 131.785156 345.3125 C 131.785156 347.507812 127.578125 350.707031 120.988281 350.707031 Z M 153.539062 322.414062 C 152.8125 325.308594 154.574219 328.238281 157.46875 328.960938 C 160.351562 329.675781 163.289062 327.921875 164.011719 325.035156 L 166.109375 316.644531 C 168.640625 306.511719 163.238281 295.949219 153.539062 292.078125 L 139.183594 286.335938 C 137.539062 285.667969 135.648438 285.871094 134.15625 286.875 C 132.675781 287.878906 131.785156 289.550781 131.785156 291.34375 L 131.785156 331.304688 C 128.613281 329.949219 124.96875 329.121094 120.988281 329.121094 C 108.878906 329.121094 99.394531 336.234375 99.394531 345.3125 C 99.394531 354.386719 108.878906 361.5 120.988281 361.5 C 133.097656 361.5 142.582031 354.386719 142.582031 345.3125 L 142.582031 299.316406 L 149.535156 302.097656 C 154.242188 303.980469 156.867188 309.109375 155.636719 314.023438 L 153.539062 322.414062 " fill-opacity="1" fill-rule="nonzero"/></g></svg>