<svg xmlns="http://www.w3.org/2000/svg" xmlns:xlink="http://www.w3.org/1999/xlink" width="500" zoomAndPan="magnify" viewBox="0 0 375 374.999991" height="500" preserveAspectRatio="xMidYMid meet" version="1.0"><defs><clipPath id="id1"><path d="M 49.808594 13.207031 L 325.058594 13.207031 L 325.058594 361.957031 L 49.808594 361.957031 Z M 49.808594 13.207031 " clip-rule="nonzero"/></clipPath></defs><path fill="#f7f8fc" d="M 55.425781 247.429688 L 55.425781 309.121094 C 55.425781 335.234375 114.480469 356.261719 187.433594 356.261719 C 260.386719 356.261719 319.441406 335.234375 319.441406 309.121094 L 319.441406 247.429688 Z M 55.425781 247.429688 " fill-opacity="1" fill-rule="nonzero"/><path fill="#d2edf8" d="M 55.425781 187.351562 L 55.425781 249.042969 C 55.425781 275.15625 114.480469 296.183594 187.433594 296.183594 C 260.386719 296.183594 319.441406 275.15625 319.441406 249.042969 L 319.441406 187.351562 Z M 55.425781 187.351562 " fill-opacity="1" fill-rule="nonzero"/><path fill="#f7f8fc" d="M 55.425781 127.042969 L 55.425781 188.738281 C 55.425781 214.847656 114.480469 235.875 187.433594 235.875 C 260.386719 235.875 319.441406 214.847656 319.441406 188.738281 L 319.441406 127.042969 Z M 55.425781 127.042969 " fill-opacity="1" fill-rule="nonzero"/><path fill="#d2edf8" d="M 55.425781 63.5 L 55.425781 125.191406 C 55.425781 151.304688 114.480469 172.328125 187.433594 172.328125 C 260.386719 172.328125 319.441406 151.304688 319.441406 125.191406 L 319.441406 63.5 Z M 55.425781 63.5 " fill-opacity="1" fill-rule="nonzero"/><path fill="#ffe8e7" d="M 319.441406 66.039062 C 319.441406 66.8125 319.386719 67.582031 319.28125 68.351562 C 319.175781 69.125 319.015625 69.890625 318.804688 70.660156 C 318.59375 71.429688 318.328125 72.191406 318.011719 72.957031 C 317.695312 73.71875 317.324219 74.480469 316.902344 75.234375 C 316.484375 75.992188 316.007812 76.746094 315.484375 77.492188 C 314.960938 78.242188 314.382812 78.984375 313.757812 79.722656 C 313.128906 80.460938 312.453125 81.195312 311.722656 81.917969 C 310.996094 82.644531 310.21875 83.367188 309.390625 84.078125 C 308.566406 84.792969 307.691406 85.496094 306.765625 86.195312 C 305.84375 86.890625 304.871094 87.578125 303.851562 88.261719 C 302.835938 88.941406 301.769531 89.613281 300.660156 90.273438 C 299.550781 90.933594 298.394531 91.585938 297.191406 92.226562 C 295.992188 92.871094 294.75 93.5 293.460938 94.121094 C 292.175781 94.738281 290.847656 95.347656 289.476562 95.941406 C 288.105469 96.539062 286.695312 97.125 285.242188 97.695312 C 283.792969 98.265625 282.304688 98.824219 280.777344 99.371094 C 279.25 99.917969 277.683594 100.449219 276.082031 100.964844 C 274.484375 101.484375 272.847656 101.988281 271.175781 102.476562 C 269.507812 102.964844 267.804688 103.441406 266.070312 103.902344 C 264.335938 104.359375 262.570312 104.804688 260.773438 105.234375 C 258.976562 105.660156 257.152344 106.074219 255.296875 106.472656 C 253.445312 106.867188 251.566406 107.246094 249.660156 107.609375 C 247.753906 107.976562 245.828125 108.320312 243.875 108.652344 C 241.921875 108.980469 239.945312 109.292969 237.949219 109.589844 C 235.953125 109.882812 233.9375 110.160156 231.90625 110.421875 C 229.871094 110.679688 227.820312 110.921875 225.753906 111.148438 C 223.683594 111.371094 221.605469 111.578125 219.507812 111.765625 C 217.414062 111.953125 215.304688 112.121094 213.1875 112.269531 C 211.066406 112.421875 208.9375 112.554688 206.800781 112.667969 C 204.664062 112.78125 202.523438 112.875 200.371094 112.949219 C 198.222656 113.027344 196.066406 113.082031 193.910156 113.121094 C 191.753906 113.15625 189.59375 113.175781 187.433594 113.175781 C 185.273438 113.175781 183.113281 113.15625 180.957031 113.121094 C 178.796875 113.082031 176.644531 113.027344 174.492188 112.949219 C 172.34375 112.875 170.199219 112.78125 168.0625 112.667969 C 165.925781 112.554688 163.796875 112.421875 161.679688 112.269531 C 159.5625 112.121094 157.453125 111.953125 155.359375 111.765625 C 153.261719 111.578125 151.179688 111.371094 149.113281 111.148438 C 147.046875 110.921875 144.996094 110.679688 142.960938 110.421875 C 140.925781 110.160156 138.910156 109.882812 136.914062 109.589844 C 134.917969 109.292969 132.945312 108.980469 130.992188 108.652344 C 129.039062 108.320312 127.109375 107.976562 125.203125 107.609375 C 123.300781 107.246094 121.421875 106.867188 119.566406 106.472656 C 117.714844 106.074219 115.890625 105.660156 114.09375 105.234375 C 112.296875 104.804688 110.53125 104.359375 108.796875 103.902344 C 107.0625 103.441406 105.359375 102.964844 103.6875 102.476562 C 102.019531 101.988281 100.382812 101.484375 98.78125 100.964844 C 97.179688 100.449219 95.617188 99.917969 94.089844 99.371094 C 92.5625 98.824219 91.074219 98.265625 89.621094 97.695312 C 88.171875 97.125 86.761719 96.539062 85.390625 95.941406 C 84.019531 95.347656 82.691406 94.738281 81.402344 94.121094 C 80.117188 93.5 78.871094 92.871094 77.671875 92.226562 C 76.472656 91.585938 75.316406 90.933594 74.207031 90.273438 C 73.09375 89.613281 72.03125 88.941406 71.011719 88.261719 C 69.992188 87.578125 69.023438 86.890625 68.097656 86.195312 C 67.175781 85.496094 66.300781 84.792969 65.472656 84.078125 C 64.648438 83.367188 63.871094 82.644531 63.140625 81.917969 C 62.414062 81.195312 61.738281 80.460938 61.109375 79.722656 C 60.480469 78.984375 59.90625 78.242188 59.382812 77.492188 C 58.855469 76.746094 58.382812 75.992188 57.960938 75.234375 C 57.539062 74.480469 57.171875 73.71875 56.855469 72.957031 C 56.535156 72.191406 56.273438 71.429688 56.0625 70.660156 C 55.847656 69.890625 55.691406 69.125 55.585938 68.351562 C 55.476562 67.582031 55.425781 66.8125 55.425781 66.039062 C 55.425781 65.269531 55.476562 64.496094 55.585938 63.726562 C 55.691406 62.957031 55.847656 62.1875 56.0625 61.417969 C 56.273438 60.652344 56.535156 59.886719 56.855469 59.125 C 57.171875 58.359375 57.539062 57.601562 57.960938 56.84375 C 58.382812 56.085938 58.855469 55.335938 59.382812 54.585938 C 59.90625 53.839844 60.480469 53.09375 61.109375 52.355469 C 61.738281 51.617188 62.414062 50.886719 63.140625 50.160156 C 63.871094 49.433594 64.648438 48.714844 65.472656 48 C 66.300781 47.289062 67.175781 46.582031 68.097656 45.886719 C 69.023438 45.1875 69.996094 44.5 71.011719 43.820312 C 72.03125 43.140625 73.09375 42.46875 74.207031 41.804688 C 75.316406 41.144531 76.472656 40.492188 77.671875 39.851562 C 78.871094 39.210938 80.117188 38.578125 81.402344 37.960938 C 82.691406 37.339844 84.019531 36.734375 85.390625 36.136719 C 86.761719 35.539062 88.171875 34.957031 89.621094 34.382812 C 91.074219 33.8125 92.5625 33.253906 94.089844 32.707031 C 95.617188 32.164062 97.179688 31.632812 98.78125 31.113281 C 100.382812 30.59375 102.019531 30.089844 103.6875 29.601562 C 105.359375 29.113281 107.0625 28.636719 108.796875 28.179688 C 110.53125 27.71875 112.296875 27.273438 114.09375 26.847656 C 115.890625 26.417969 117.714844 26.003906 119.566406 25.609375 C 121.421875 25.210938 123.300781 24.832031 125.203125 24.46875 C 127.109375 24.105469 129.039062 23.757812 130.992188 23.429688 C 132.945312 23.097656 134.917969 22.785156 136.914062 22.492188 C 138.910156 22.195312 140.925781 21.917969 142.960938 21.65625 C 144.996094 21.398438 147.046875 21.15625 149.113281 20.933594 C 151.179688 20.707031 153.261719 20.503906 155.359375 20.316406 C 157.453125 20.128906 159.5625 19.957031 161.679688 19.808594 C 163.796875 19.65625 165.925781 19.527344 168.0625 19.414062 C 170.199219 19.300781 172.34375 19.207031 174.492188 19.128906 C 176.644531 19.054688 178.796875 18.996094 180.957031 18.960938 C 183.113281 18.921875 185.273438 18.902344 187.433594 18.902344 C 189.59375 18.902344 191.753906 18.921875 193.910156 18.960938 C 196.066406 18.996094 198.222656 19.054688 200.371094 19.128906 C 202.523438 19.207031 204.664062 19.300781 206.800781 19.414062 C 208.9375 19.527344 211.066406 19.65625 213.1875 19.808594 C 215.304688 19.957031 217.414062 20.128906 219.507812 20.316406 C 221.605469 20.503906 223.683594 20.707031 225.753906 20.933594 C 227.820312 21.15625 229.871094 21.398438 231.90625 21.65625 C 233.9375 21.917969 235.953125 22.195312 237.949219 22.492188 C 239.945312 22.785156 241.921875 23.097656 243.875 23.429688 C 245.828125 23.757812 247.753906 24.105469 249.660156 24.46875 C 251.566406 24.832031 253.445312 25.210938 255.296875 25.609375 C 257.152344 26.003906 258.976562 26.417969 260.773438 26.847656 C 262.570312 27.273438 264.335938 27.71875 266.070312 28.179688 C 267.804688 28.636719 269.507812 29.113281 271.175781 29.601562 C 272.847656 30.089844 274.484375 30.59375 276.082031 31.113281 C 277.683594 31.632812 279.25 32.164062 280.777344 32.707031 C 282.304688 33.253906 283.792969 33.8125 285.242188 34.382812 C 286.695312 34.957031 288.105469 35.539062 289.476562 36.136719 C 290.847656 36.734375 292.175781 37.339844 293.460938 37.960938 C 294.75 38.578125 295.992188 39.210938 297.191406 39.851562 C 298.394531 40.492188 299.550781 41.144531 300.660156 41.804688 C 301.769531 42.46875 302.835938 43.140625 303.851562 43.820312 C 304.871094 44.5 305.84375 45.1875 306.765625 45.886719 C 307.691406 46.582031 308.566406 47.289062 309.390625 48 C 310.21875 48.714844 310.996094 49.433594 311.722656 50.160156 C 312.453125 50.886719 313.128906 51.617188 313.757812 52.355469 C 314.382812 53.09375 314.960938 53.839844 315.484375 54.585938 C 316.007812 55.335938 316.484375 56.085938 316.902344 56.84375 C 317.324219 57.601562 317.695312 58.359375 318.011719 59.125 C 318.328125 59.886719 318.59375 60.652344 318.804688 61.417969 C 319.015625 62.1875 319.175781 62.957031 319.28125 63.726562 C 319.386719 64.496094 319.441406 65.269531 319.441406 66.039062 Z M 319.441406 66.039062 " fill-opacity="1" fill-rule="nonzero"/><g clip-path="url(#id1)"><path fill="#43484a" d="M 325.058594 66.042969 C 325.058594 31.769531 254.148438 13.28125 187.433594 13.28125 C 120.714844 13.28125 49.808594 31.769531 49.808594 66.042969 L 49.808594 309.121094 C 49.808594 343.390625 120.714844 361.882812 187.433594 361.882812 C 254.148438 361.882812 325.058594 343.390625 325.058594 309.121094 Z M 187.433594 290.558594 C 112.949219 290.558594 61.042969 268.683594 61.042969 249.042969 L 61.042969 210.621094 C 83.613281 230.800781 136.714844 241.496094 187.433594 241.496094 C 238.148438 241.496094 291.253906 230.800781 313.824219 210.621094 L 313.824219 249.042969 C 313.824219 268.683594 261.917969 290.558594 187.433594 290.558594 Z M 187.433594 230.25 C 112.949219 230.25 61.042969 208.375 61.042969 188.738281 L 61.042969 147.082031 C 83.613281 167.257812 136.714844 177.957031 187.433594 177.957031 C 238.148438 177.957031 291.253906 167.261719 313.824219 147.082031 L 313.824219 188.738281 C 313.824219 208.375 261.917969 230.25 187.433594 230.25 Z M 61.042969 87.929688 C 83.613281 108.105469 136.714844 118.800781 187.433594 118.800781 C 238.148438 118.800781 291.253906 108.109375 313.824219 87.929688 L 313.824219 125.195312 C 313.824219 144.828125 261.917969 166.710938 187.433594 166.710938 C 112.949219 166.710938 61.042969 144.832031 61.042969 125.195312 Z M 187.433594 24.523438 C 261.917969 24.523438 313.824219 46.40625 313.824219 66.042969 C 313.824219 85.679688 261.917969 107.554688 187.433594 107.554688 C 112.949219 107.554688 61.042969 85.675781 61.042969 66.039062 C 61.042969 46.402344 112.949219 24.523438 187.433594 24.523438 Z M 187.433594 350.636719 C 112.949219 350.636719 61.042969 328.757812 61.042969 309.121094 L 61.042969 270.929688 C 83.613281 291.109375 136.714844 301.804688 187.433594 301.804688 C 238.148438 301.804688 291.253906 291.109375 313.824219 270.929688 L 313.824219 309.121094 C 313.824219 328.757812 261.917969 350.636719 187.433594 350.636719 Z M 187.433594 350.636719 " fill-opacity="1" fill-rule="nonzero"/></g></svg>