<svg xmlns="http://www.w3.org/2000/svg" xmlns:xlink="http://www.w3.org/1999/xlink" width="500" zoomAndPan="magnify" viewBox="0 0 375 374.999991" height="500" preserveAspectRatio="xMidYMid meet" version="1.0"><defs><clipPath id="id1"><path d="M 62 76 L 313.21875 76 L 313.21875 302 L 62 302 Z M 62 76 " clip-rule="nonzero"/></clipPath></defs><g clip-path="url(#id1)"><path fill="#c4773c" d="M 308.441406 117.484375 C 305.527344 115.253906 301.660156 114.554688 297.835938 115.582031 L 277.335938 121.070312 C 215.863281 41.265625 88.929688 75.351562 75.691406 175.0625 L 74.8125 175.296875 C 67.640625 177.21875 62.023438 184.679688 62.023438 192.285156 L 62.023438 251.105469 C 62.023438 255.273438 63.746094 258.984375 66.746094 261.285156 C 69.695312 263.574219 73.722656 264.1875 77.351562 263.191406 L 97.851562 257.703125 C 159.324219 337.507812 286.261719 303.417969 299.496094 203.710938 L 300.375 203.472656 C 307.546875 201.554688 313.164062 194.09375 313.164062 186.484375 L 313.164062 127.667969 C 313.164062 123.5 311.441406 119.785156 308.441406 117.484375 Z M 187.59375 86.453125 C 218.3125 86.453125 247.515625 100.3125 267.003906 123.835938 L 256.46875 126.65625 C 229.859375 96.75 183.769531 87.617188 147.769531 105.167969 C 145.324219 106.324219 144.277344 109.246094 145.4375 111.695312 C 146.59375 114.140625 149.519531 115.1875 151.96875 114.027344 C 182.519531 99.144531 221.578125 105.6875 245.625 129.5625 L 107.371094 166.578125 C 110.027344 157.199219 114.300781 148.429688 120.125 140.425781 C 121.71875 138.238281 121.234375 135.171875 119.042969 133.578125 C 116.855469 131.988281 113.785156 132.472656 112.191406 134.660156 C 104.539062 145.175781 99.28125 156.878906 96.539062 169.480469 L 86.003906 172.300781 C 94.191406 122.90625 136.734375 86.453125 187.59375 86.453125 Z M 187.59375 292.320312 C 156.875 292.320312 127.671875 278.460938 108.183594 254.9375 L 118.71875 252.113281 C 168.832031 307.839844 263.21875 282.445312 278.648438 209.292969 L 289.183594 206.472656 C 280.996094 255.863281 238.457031 292.320312 187.59375 292.320312 Z M 129.5625 249.210938 L 267.8125 212.195312 C 251.441406 272.078125 173.996094 293.078125 129.5625 249.210938 Z M 303.351562 186.488281 C 303.351562 189.648438 300.722656 193.234375 297.835938 194.007812 L 74.8125 253.722656 C 74.199219 253.886719 73.335938 253.984375 72.71875 253.507812 C 72.15625 253.078125 71.835938 252.203125 71.835938 251.105469 L 71.835938 192.285156 C 71.835938 189.125 74.464844 185.539062 77.351562 184.765625 L 300.375 125.050781 C 301.027344 124.875 301.875 124.804688 302.46875 125.261719 C 303.03125 125.695312 303.351562 126.570312 303.351562 127.667969 Z M 303.351562 186.488281 " fill-opacity="1" fill-rule="nonzero"/></g><path fill="#c4773c" d="M 131.128906 184.9375 C 127.988281 182.53125 123.730469 181.804688 119.449219 182.953125 L 109.285156 185.671875 C 107.140625 186.246094 105.652344 188.191406 105.652344 190.40625 L 105.652344 229.621094 C 105.910156 236.125 115.203125 236.117188 115.460938 229.621094 L 115.460938 213.773438 L 121.984375 212.027344 C 133.40625 209.25 141.230469 193.035156 131.128906 184.9375 Z M 119.449219 202.558594 L 115.460938 203.625 L 115.460938 194.167969 L 121.984375 192.421875 C 123.296875 192.070312 124.453125 192.179688 125.15625 192.71875 C 125.699219 193.132812 125.972656 193.824219 125.972656 194.769531 C 125.972656 197.933594 122.863281 201.644531 119.449219 202.558594 Z M 119.449219 202.558594 " fill-opacity="1" fill-rule="nonzero"/><path fill="#c4773c" d="M 165.777344 199.140625 C 173.773438 193.839844 177.433594 181.09375 169.234375 174.734375 C 166.089844 172.328125 161.832031 171.601562 157.550781 172.75 L 147.390625 175.46875 C 145.246094 176.042969 143.753906 177.988281 143.753906 180.203125 L 143.753906 219.417969 C 144.015625 225.921875 153.308594 225.914062 153.566406 219.417969 L 153.566406 203.570312 L 156.523438 202.78125 L 164.777344 216.5 C 166.183594 218.84375 169.226562 219.558594 171.511719 218.175781 C 173.832031 216.78125 174.582031 213.769531 173.1875 211.449219 Z M 153.566406 183.964844 L 160.089844 182.21875 C 161.402344 181.867188 162.558594 181.976562 163.261719 182.511719 C 163.800781 182.929688 164.078125 183.621094 164.078125 184.566406 C 164.078125 187.707031 161.007812 191.390625 157.621094 192.335938 C 157.570312 192.351562 157.515625 192.363281 157.460938 192.378906 L 153.566406 193.421875 Z M 153.566406 183.964844 " fill-opacity="1" fill-rule="nonzero"/><path fill="#c4773c" d="M 186.152344 165.265625 C 183.441406 165.265625 181.246094 167.460938 181.246094 170.167969 L 181.246094 209.378906 C 181.503906 215.882812 190.796875 215.878906 191.054688 209.378906 L 191.054688 170.167969 C 191.054688 167.460938 188.859375 165.265625 186.152344 165.265625 Z M 186.152344 165.265625 " fill-opacity="1" fill-rule="nonzero"/><path fill="#c4773c" d="M 265.902344 153.886719 C 268.519531 153.1875 270.070312 150.5 269.371094 147.882812 C 268.667969 145.269531 265.980469 143.714844 263.363281 144.417969 L 246.195312 149.015625 C 244.050781 149.589844 242.558594 151.53125 242.558594 153.75 L 242.558594 192.960938 C 242.558594 194.484375 243.269531 195.921875 244.476562 196.851562 C 245.691406 197.78125 247.273438 198.089844 248.734375 197.695312 L 265.902344 193.097656 C 268.519531 192.398438 270.070312 189.710938 269.371094 187.097656 C 268.667969 184.480469 265.980469 182.929688 263.363281 183.628906 L 252.371094 186.574219 L 252.371094 177.117188 L 259.035156 175.332031 C 265.253906 173.402344 262.84375 164.429688 256.496094 165.863281 L 252.371094 166.96875 L 252.371094 157.511719 Z M 265.902344 153.886719 " fill-opacity="1" fill-rule="nonzero"/><path fill="#c4773c" d="M 231.570312 153.613281 C 229.429688 153.039062 227.167969 153.96875 226.054688 155.886719 L 216.066406 173.078125 L 207.070312 162.410156 C 205.742188 160.835938 203.574219 160.257812 201.636719 160.964844 C 199.699219 161.671875 198.414062 163.511719 198.414062 165.570312 L 198.414062 204.78125 C 198.671875 211.285156 207.964844 211.28125 208.222656 204.78125 L 208.222656 178.992188 L 213.058594 184.722656 C 214.085938 185.941406 215.644531 186.582031 217.234375 186.449219 C 218.824219 186.308594 220.25 185.40625 221.050781 184.027344 L 225.390625 176.550781 L 225.390625 197.558594 C 225.652344 204.0625 234.945312 204.058594 235.203125 197.558594 L 235.203125 158.347656 C 235.203125 156.128906 233.714844 154.191406 231.570312 153.613281 Z M 231.570312 153.613281 " fill-opacity="1" fill-rule="nonzero"/><path fill="#c4773c" d="M 131.257812 126.355469 C 137.765625 126.097656 137.761719 116.808594 131.257812 116.554688 L 131.253906 116.554688 C 124.746094 116.8125 124.753906 126.101562 131.257812 126.355469 Z M 131.257812 126.355469 " fill-opacity="1" fill-rule="nonzero"/></svg>