<svg xmlns="http://www.w3.org/2000/svg" xmlns:xlink="http://www.w3.org/1999/xlink" width="500" zoomAndPan="magnify" viewBox="0 0 375 374.999991" height="500" preserveAspectRatio="xMidYMid meet" version="1.0"><defs><clipPath id="id1"><path d="M 27.5625 62.96875 L 337.3125 62.96875 L 337.3125 331.46875 L 27.5625 331.46875 Z M 27.5625 62.96875 " clip-rule="nonzero"/></clipPath><clipPath id="id2"><path d="M 101 113 L 264.796875 113 L 264.796875 281.550781 L 101 281.550781 Z M 101 113 " clip-rule="nonzero"/></clipPath></defs><g clip-path="url(#id1)"><path fill="#1d1e24" d="M 105.046875 331.46875 L 27.660156 197.21875 L 105.046875 62.96875 L 259.828125 62.96875 L 337.21875 197.21875 L 259.828125 331.46875 Z M 105.046875 331.46875 " fill-opacity="1" fill-rule="nonzero"/></g><g clip-path="url(#id2)"><path fill="#ffbd59" d="M 182.898438 281.296875 C 181.914062 281.304688 180.957031 281.152344 180.023438 280.84375 L 125.425781 262.65625 C 124.617188 262.386719 123.867188 262.015625 123.164062 261.535156 C 122.464844 261.054688 121.84375 260.492188 121.300781 259.839844 C 120.757812 259.1875 120.316406 258.472656 119.972656 257.695312 C 119.632812 256.917969 119.402344 256.109375 119.285156 255.269531 L 101.085938 123.402344 C 100.996094 122.761719 100.976562 122.113281 101.027344 121.464844 C 101.074219 120.816406 101.191406 120.183594 101.375 119.558594 C 101.5625 118.933594 101.8125 118.339844 102.125 117.769531 C 102.4375 117.199219 102.808594 116.667969 103.234375 116.179688 C 103.664062 115.6875 104.136719 115.25 104.660156 114.859375 C 105.179688 114.472656 105.738281 114.140625 106.328125 113.871094 C 106.921875 113.601562 107.535156 113.398438 108.171875 113.261719 C 108.804688 113.125 109.449219 113.054688 110.101562 113.054688 L 255.695312 113.054688 C 256.347656 113.054688 256.988281 113.125 257.625 113.261719 C 258.257812 113.398438 258.871094 113.601562 259.464844 113.871094 C 260.054688 114.140625 260.609375 114.46875 261.132812 114.855469 C 261.652344 115.246094 262.128906 115.683594 262.554688 116.175781 C 262.980469 116.664062 263.351562 117.191406 263.664062 117.761719 C 263.980469 118.332031 264.230469 118.925781 264.414062 119.550781 C 264.601562 120.171875 264.71875 120.804688 264.769531 121.453125 C 264.816406 122.101562 264.796875 122.746094 264.710938 123.390625 L 246.507812 255.257812 C 246.394531 256.097656 246.167969 256.90625 245.824219 257.6875 C 245.484375 258.464844 245.039062 259.179688 244.5 259.832031 C 243.957031 260.488281 243.335938 261.054688 242.632812 261.53125 C 241.933594 262.011719 241.179688 262.386719 240.371094 262.65625 L 185.773438 280.84375 C 184.839844 281.152344 183.882812 281.304688 182.898438 281.296875 Z M 136.542969 247.195312 L 182.898438 262.617188 L 229.253906 247.160156 L 245.253906 131.242188 L 120.566406 131.242188 Z M 136.542969 247.195312 " fill-opacity="1" fill-rule="nonzero"/></g><path fill="#ffbd59" d="M 169.25 240.375 C 167.816406 240.375 166.457031 240.054688 165.175781 239.414062 L 146.976562 230.320312 C 146.441406 230.054688 145.9375 229.738281 145.464844 229.371094 C 144.992188 229.003906 144.5625 228.597656 144.167969 228.144531 C 143.777344 227.695312 143.433594 227.207031 143.136719 226.6875 C 142.839844 226.171875 142.597656 225.628906 142.410156 225.058594 C 142.21875 224.492188 142.085938 223.914062 142.011719 223.320312 C 141.9375 222.726562 141.921875 222.132812 141.964844 221.539062 C 142.007812 220.941406 142.105469 220.355469 142.265625 219.777344 C 142.421875 219.203125 142.636719 218.648438 142.902344 218.113281 C 143.171875 217.578125 143.488281 217.074219 143.855469 216.601562 C 144.222656 216.132812 144.628906 215.699219 145.082031 215.308594 C 145.535156 214.917969 146.019531 214.574219 146.539062 214.277344 C 147.058594 213.984375 147.601562 213.742188 148.167969 213.550781 C 148.738281 213.363281 149.316406 213.230469 149.910156 213.15625 C 150.503906 213.082031 151.097656 213.066406 151.695312 213.109375 C 152.292969 213.152344 152.878906 213.253906 153.453125 213.410156 C 154.03125 213.570312 154.585938 213.785156 155.121094 214.050781 L 160.148438 216.566406 L 160.148438 167.621094 L 141.949219 167.621094 C 141.351562 167.621094 140.761719 167.5625 140.175781 167.445312 C 139.589844 167.328125 139.019531 167.15625 138.46875 166.929688 C 137.914062 166.699219 137.390625 166.417969 136.894531 166.085938 C 136.398438 165.757812 135.9375 165.378906 135.515625 164.957031 C 135.09375 164.535156 134.714844 164.074219 134.382812 163.578125 C 134.050781 163.082031 133.769531 162.558594 133.542969 162.007812 C 133.3125 161.453125 133.140625 160.886719 133.023438 160.300781 C 132.90625 159.714844 132.847656 159.125 132.847656 158.527344 C 132.847656 157.929688 132.90625 157.335938 133.023438 156.75 C 133.140625 156.167969 133.3125 155.597656 133.542969 155.046875 C 133.769531 154.496094 134.050781 153.96875 134.382812 153.472656 C 134.714844 152.976562 135.09375 152.519531 135.515625 152.09375 C 135.9375 151.671875 136.398438 151.296875 136.894531 150.964844 C 137.390625 150.632812 137.914062 150.351562 138.46875 150.125 C 139.019531 149.894531 139.589844 149.722656 140.175781 149.605469 C 140.761719 149.488281 141.351562 149.433594 141.949219 149.433594 L 169.25 149.433594 C 169.847656 149.433594 170.4375 149.488281 171.023438 149.605469 C 171.609375 149.722656 172.179688 149.894531 172.730469 150.125 C 173.28125 150.351562 173.808594 150.632812 174.304688 150.964844 C 174.800781 151.296875 175.261719 151.671875 175.683594 152.09375 C 176.105469 152.519531 176.484375 152.976562 176.816406 153.472656 C 177.148438 153.96875 177.425781 154.496094 177.65625 155.046875 C 177.882812 155.597656 178.058594 156.167969 178.171875 156.75 C 178.289062 157.335938 178.347656 157.929688 178.347656 158.527344 L 178.347656 231.28125 C 178.347656 231.878906 178.289062 232.46875 178.171875 233.054688 C 178.058594 233.640625 177.882812 234.207031 177.65625 234.761719 C 177.425781 235.3125 177.148438 235.835938 176.816406 236.332031 C 176.484375 236.828125 176.105469 237.289062 175.683594 237.710938 C 175.261719 238.132812 174.800781 238.511719 174.304688 238.839844 C 173.808594 239.171875 173.28125 239.453125 172.730469 239.683594 C 172.179688 239.910156 171.609375 240.082031 171.023438 240.199219 C 170.4375 240.316406 169.847656 240.375 169.25 240.375 Z M 169.25 240.375 " fill-opacity="1" fill-rule="nonzero"/><path fill="#ffbd59" d="M 196.546875 240.375 C 195.996094 240.375 195.453125 240.324219 194.910156 240.222656 C 194.367188 240.125 193.839844 239.976562 193.328125 239.78125 C 192.8125 239.585938 192.320312 239.347656 191.847656 239.0625 C 191.378906 238.777344 190.9375 238.453125 190.523438 238.089844 C 190.113281 237.722656 189.738281 237.324219 189.398438 236.890625 C 189.058594 236.460938 188.757812 236 188.503906 235.511719 C 188.246094 235.027344 188.039062 234.519531 187.871094 233.996094 C 187.707031 233.46875 187.59375 232.933594 187.527344 232.390625 C 187.457031 231.84375 187.441406 231.296875 187.472656 230.746094 C 187.507812 230.199219 187.585938 229.65625 187.71875 229.121094 C 187.847656 228.585938 188.027344 228.070312 188.25 227.566406 C 188.476562 227.066406 188.742188 226.585938 189.054688 226.132812 C 189.367188 225.679688 189.714844 225.257812 190.105469 224.867188 C 190.492188 224.480469 190.910156 224.125 191.363281 223.8125 C 191.816406 223.5 192.292969 223.226562 192.792969 223 C 193.292969 222.773438 193.8125 222.59375 194.34375 222.457031 L 206.628906 219.394531 L 208.800781 203.996094 L 201.097656 203.996094 C 200.203125 203.996094 199.3125 203.910156 198.433594 203.734375 C 197.554688 203.558594 196.703125 203.300781 195.875 202.957031 C 195.046875 202.617188 194.257812 202.195312 193.515625 201.699219 C 192.769531 201.199219 192.078125 200.636719 191.445312 200 C 190.8125 199.367188 190.246094 198.679688 189.75 197.933594 C 189.25 197.191406 188.828125 196.402344 188.488281 195.578125 C 188.144531 194.75 187.886719 193.894531 187.710938 193.015625 C 187.535156 192.140625 187.449219 191.25 187.449219 190.355469 L 187.449219 163.074219 C 187.449219 162.175781 187.535156 161.289062 187.710938 160.410156 C 187.886719 159.535156 188.144531 158.679688 188.488281 157.851562 C 188.828125 157.027344 189.25 156.238281 189.75 155.496094 C 190.246094 154.75 190.8125 154.0625 191.445312 153.425781 C 192.078125 152.792969 192.769531 152.226562 193.515625 151.730469 C 194.257812 151.234375 195.046875 150.8125 195.875 150.46875 C 196.703125 150.128906 197.554688 149.867188 198.433594 149.695312 C 199.3125 149.519531 200.203125 149.433594 201.097656 149.433594 L 223.847656 149.433594 C 224.445312 149.433594 225.035156 149.488281 225.621094 149.605469 C 226.207031 149.722656 226.777344 149.894531 227.328125 150.125 C 227.882812 150.351562 228.40625 150.632812 228.902344 150.964844 C 229.398438 151.296875 229.859375 151.671875 230.28125 152.09375 C 230.703125 152.519531 231.082031 152.976562 231.414062 153.472656 C 231.746094 153.96875 232.023438 154.496094 232.253906 155.046875 C 232.484375 155.597656 232.65625 156.167969 232.773438 156.75 C 232.886719 157.335938 232.945312 157.929688 232.945312 158.527344 C 232.945312 159.125 232.886719 159.714844 232.773438 160.300781 C 232.65625 160.886719 232.484375 161.453125 232.253906 162.007812 C 232.023438 162.558594 231.746094 163.082031 231.414062 163.578125 C 231.082031 164.074219 230.703125 164.535156 230.28125 164.957031 C 229.859375 165.378906 229.398438 165.757812 228.902344 166.085938 C 228.40625 166.417969 227.882812 166.699219 227.328125 166.929688 C 226.777344 167.15625 226.207031 167.328125 225.621094 167.445312 C 225.035156 167.5625 224.445312 167.621094 223.847656 167.621094 L 205.648438 167.621094 L 205.648438 185.808594 L 214.046875 185.808594 C 214.941406 185.808594 215.832031 185.894531 216.710938 186.070312 C 217.589844 186.246094 218.441406 186.503906 219.269531 186.847656 C 220.097656 187.191406 220.882812 187.609375 221.628906 188.109375 C 222.375 188.605469 223.0625 189.171875 223.699219 189.804688 C 224.332031 190.4375 224.898438 191.125 225.394531 191.871094 C 225.894531 192.617188 226.3125 193.402344 226.65625 194.230469 C 227 195.058594 227.257812 195.910156 227.433594 196.789062 C 227.609375 197.667969 227.695312 198.554688 227.695312 199.449219 C 227.695312 200.109375 227.648438 200.761719 227.550781 201.414062 L 223.753906 228.015625 C 223.628906 228.910156 223.371094 229.765625 222.988281 230.585938 C 222.605469 231.40625 222.109375 232.148438 221.503906 232.820312 C 220.898438 233.492188 220.207031 234.0625 219.433594 234.527344 C 218.65625 234.992188 217.832031 235.335938 216.953125 235.554688 L 198.753906 240.101562 C 198.03125 240.285156 197.292969 240.375 196.546875 240.375 Z M 209.546875 198.804688 Z M 209.546875 198.804688 " fill-opacity="1" fill-rule="nonzero"/></svg>