<svg xmlns="http://www.w3.org/2000/svg" xmlns:xlink="http://www.w3.org/1999/xlink" width="500" zoomAndPan="magnify" viewBox="0 0 375 374.999991" height="500" preserveAspectRatio="xMidYMid meet" version="1.0"><defs><clipPath id="id1"><path d="M 56.25 202 L 180 202 L 180 324.847656 L 56.25 324.847656 Z M 56.25 202 " clip-rule="nonzero"/></clipPath><clipPath id="id2"><path d="M 191 193 L 318.75 193 L 318.75 324.847656 L 191 324.847656 Z M 191 193 " clip-rule="nonzero"/></clipPath></defs><path fill="#cb6ce6" d="M 170.023438 266.304688 L 166.242188 262.527344 L 171.074219 257.695312 C 174.335938 254.4375 175.042969 249.3125 172.558594 245.429688 C 169.15625 240.117188 161.847656 239.746094 157.570312 243.8125 L 160.757812 240.625 C 164.539062 236.84375 164.539062 230.714844 160.757812 226.933594 C 157.011719 223.1875 150.851562 223.257812 147.0625 226.933594 C 147.027344 226.96875 142.636719 231.359375 142.601562 231.394531 C 146.382812 227.613281 146.382812 221.484375 142.601562 217.703125 C 138.820312 213.921875 132.6875 213.921875 128.90625 217.703125 L 122.449219 224.160156 C 126.230469 220.378906 126.230469 214.25 122.449219 210.46875 C 118.667969 206.683594 112.535156 206.683594 108.753906 210.46875 L 87.082031 232.140625 C 81.359375 237.863281 77.964844 245.5 77.546875 253.578125 L 76.757812 268.828125 L 61.863281 283.722656 L 61.863281 319.238281 L 109.976562 319.238281 L 118.570312 310.640625 L 133.78125 309.816406 C 141.832031 309.382812 149.4375 305.988281 155.136719 300.285156 L 170.023438 285.402344 C 175.296875 280.128906 175.296875 271.578125 170.023438 266.304688 Z M 170.023438 266.304688 " fill-opacity="1" fill-rule="nonzero"/><path fill="#cb6ce6" d="M 266.476562 216.730469 L 262.667969 220.480469 L 243.910156 201.496094 C 240.679688 198.210938 235.558594 197.460938 231.660156 199.917969 C 226.324219 203.277344 225.890625 210.582031 229.925781 214.894531 L 226.761719 211.679688 C 223.011719 207.867188 216.878906 207.820312 213.070312 211.570312 C 209.292969 215.289062 209.316406 221.445312 212.960938 225.265625 C 212.996094 225.300781 217.355469 229.726562 217.390625 229.761719 C 213.640625 225.953125 207.507812 225.902344 203.695312 229.65625 C 199.945312 233.367188 199.878906 239.582031 203.589844 243.347656 L 213.390625 253.304688 C 209.640625 249.496094 203.507812 249.445312 199.699219 253.199219 C 195.886719 256.949219 195.839844 263.082031 199.589844 266.890625 L 240.085938 307.960938 C 245.664062 313.628906 253.117188 317.070312 261.050781 317.636719 L 282.015625 319.234375 L 312.933594 319.234375 L 312.9375 245.863281 C 311.652344 243.78125 310.132812 241.832031 308.390625 240.0625 L 285.570312 216.878906 C 280.339844 211.566406 271.789062 211.5 266.476562 216.730469 Z M 266.476562 216.730469 " fill-opacity="1" fill-rule="nonzero"/><path fill="#38b6ff" d="M 153.390625 129.648438 L 158.734375 129.648438 C 158.734375 133.039062 158.355469 136.417969 157.601562 139.726562 L 148.304688 180.628906 C 147.117188 185.851562 150.144531 191.234375 155.316406 192.640625 C 160.777344 194.125 166.367188 190.746094 167.59375 185.222656 C 167.59375 185.222656 178.109375 139.269531 178.125 139.328125 L 189.464844 185.378906 C 190.78125 190.722656 196.40625 193.984375 201.699219 192.515625 C 206.910156 191.054688 210.007812 185.707031 208.683594 180.460938 L 198.628906 140.695312 C 200.269531 143.71875 203.46875 145.769531 207.148438 145.769531 C 212.496094 145.769531 216.832031 141.4375 216.832031 136.089844 L 216.832031 126.445312 C 216.832031 131.792969 221.164062 136.128906 226.511719 136.128906 C 231.859375 136.128906 236.195312 131.792969 236.195312 126.445312 L 236.195312 101.40625 C 236.195312 93.316406 233.195312 85.515625 227.777344 79.503906 L 217.554688 68.167969 L 158.421875 68.167969 L 148.25 79.503906 C 142.867188 85.503906 139.886719 93.28125 139.886719 101.34375 L 139.886719 116.144531 C 139.886719 123.601562 145.933594 129.648438 153.390625 129.648438 Z M 153.390625 129.648438 " fill-opacity="1" fill-rule="nonzero"/><g clip-path="url(#id1)"><path fill="#000000" d="M 65.472656 287.332031 L 80.367188 272.4375 C 81.261719 271.542969 81.789062 270.351562 81.855469 269.089844 L 82.644531 253.84375 C 82.996094 247.011719 85.855469 240.585938 90.691406 235.75 L 112.363281 214.078125 C 114.148438 212.289062 117.054688 212.289062 118.839844 214.078125 C 120.605469 215.839844 120.605469 218.789062 118.839844 220.550781 C 117.84375 221.550781 117.347656 222.855469 117.347656 224.160156 C 117.347656 225.464844 117.84375 226.773438 118.839844 227.769531 C 120.832031 229.761719 124.066406 229.761719 126.058594 227.769531 L 132.515625 221.3125 C 134.300781 219.523438 137.207031 219.527344 138.992188 221.3125 C 140.777344 223.097656 140.777344 226.003906 138.992188 227.789062 C 138.984375 227.796875 138.980469 227.800781 138.980469 227.800781 C 136.996094 229.796875 137.003906 233.023438 139 235.011719 C 140.992188 237 144.21875 236.996094 146.210938 235.003906 C 146.214844 234.996094 146.222656 234.988281 146.230469 234.984375 C 146.519531 234.695312 150.285156 230.929688 150.636719 230.578125 C 152.449219 228.835938 155.425781 228.816406 157.148438 230.539062 C 158.933594 232.328125 158.933594 235.230469 157.148438 237.015625 L 153.960938 240.207031 C 151.984375 242.179688 151.964844 245.375 153.914062 247.375 C 155.867188 249.375 159.0625 249.4375 161.085938 247.511719 C 163.136719 245.5625 166.695312 245.734375 168.261719 248.183594 C 169.417969 249.988281 169.082031 252.46875 167.46875 254.085938 L 162.636719 258.917969 C 162.632812 258.917969 162.632812 258.917969 162.632812 258.921875 L 148.316406 273.234375 C 146.324219 275.226562 146.324219 278.460938 148.316406 280.453125 C 150.308594 282.445312 153.539062 282.445312 155.535156 280.453125 L 166.242188 269.742188 L 166.414062 269.914062 C 168 271.5 168.875 273.609375 168.875 275.855469 C 168.875 278.097656 168 280.207031 166.414062 281.792969 L 151.527344 296.675781 C 146.710938 301.496094 140.308594 304.351562 133.503906 304.722656 L 118.296875 305.542969 C 117.039062 305.613281 115.851562 306.140625 114.960938 307.03125 L 106.367188 315.628906 C 104.375 317.621094 104.375 320.851562 106.367188 322.84375 C 108.332031 324.808594 111.617188 324.808594 113.585938 322.84375 L 120.796875 315.628906 L 134.054688 314.914062 C 143.378906 314.40625 152.144531 310.496094 158.746094 303.894531 L 173.632812 289.011719 C 180.886719 281.753906 180.886719 269.953125 173.632812 262.699219 L 173.460938 262.527344 L 174.683594 261.304688 C 179.664062 256.324219 180.578125 248.488281 176.855469 242.675781 C 174.894531 239.617188 171.898438 237.433594 168.441406 236.488281 C 169.296875 231.859375 167.9375 226.898438 164.367188 223.324219 C 160.441406 219.402344 154.761719 218.175781 149.707031 219.660156 C 148.996094 217.625 147.828125 215.71875 146.207031 214.09375 C 141.59375 209.484375 134.667969 208.5625 129.128906 211.328125 C 128.402344 209.683594 127.367188 208.171875 126.058594 206.859375 C 123.265625 204.066406 119.550781 202.527344 115.601562 202.527344 C 111.652344 202.527344 107.9375 204.066406 105.148438 206.859375 L 83.472656 228.535156 C 76.847656 235.160156 72.933594 243.960938 72.449219 253.316406 L 71.761719 266.605469 L 58.253906 280.113281 C 56.261719 282.105469 56.261719 285.339844 58.253906 287.332031 C 60.246094 289.324219 63.480469 289.324219 65.472656 287.332031 Z M 65.472656 287.332031 " fill-opacity="1" fill-rule="nonzero"/></g><g clip-path="url(#id2)"><path fill="#000000" d="M 262.894531 213.09375 L 262.714844 213.269531 L 247.546875 197.917969 C 242.605469 192.898438 234.78125 191.921875 228.941406 195.597656 C 225.867188 197.53125 223.664062 200.507812 222.6875 203.953125 C 217.917969 203.035156 212.953125 204.527344 209.492188 207.933594 C 205.539062 211.828125 204.269531 217.496094 205.710938 222.566406 C 203.671875 223.257812 201.753906 224.410156 200.117188 226.019531 C 194.398438 231.648438 194.292969 241.113281 199.894531 246.867188 C 198.535156 247.542969 197.257812 248.441406 196.121094 249.5625 C 190.371094 255.21875 190.300781 264.730469 195.957031 270.476562 L 236.449219 311.542969 C 242.902344 318.097656 251.511719 322.070312 260.667969 322.726562 L 281.632812 324.324219 C 281.761719 324.335938 281.894531 324.339844 282.023438 324.339844 C 284.667969 324.339844 286.902344 322.300781 287.105469 319.625 C 287.320312 316.8125 285.214844 314.363281 282.40625 314.148438 L 261.417969 312.550781 C 254.71875 312.070312 248.433594 309.167969 243.71875 304.378906 L 203.226562 263.3125 C 201.476562 261.53125 201.5 258.585938 203.28125 256.835938 C 205.078125 255.0625 207.984375 255.085938 209.757812 256.886719 C 209.789062 256.921875 209.828125 256.949219 209.859375 256.984375 L 229.121094 276.488281 C 231.074219 278.46875 234.359375 278.488281 236.335938 276.535156 C 238.339844 274.554688 238.363281 271.324219 236.382812 269.320312 L 207.226562 239.769531 C 205.476562 237.988281 205.5 235.042969 207.277344 233.292969 C 209.035156 231.5625 212.039062 231.535156 213.757812 233.347656 L 242.917969 262.902344 C 244.871094 264.882812 248.15625 264.902344 250.136719 262.949219 C 252.140625 260.972656 252.164062 257.742188 250.183594 255.734375 C 250.183594 255.734375 216.878906 221.972656 216.632812 221.71875 C 214.910156 219.894531 214.914062 216.917969 216.648438 215.207031 C 218.429688 213.457031 221.375 213.480469 223.125 215.257812 L 256.71875 249.316406 C 258.671875 251.296875 261.957031 251.320312 263.9375 249.367188 C 265.941406 247.386719 265.964844 244.15625 263.984375 242.148438 L 233.640625 211.390625 C 231.71875 209.320312 231.925781 205.78125 234.378906 204.234375 C 236.191406 203.09375 238.671875 203.445312 240.28125 205.082031 L 281.503906 246.890625 C 283.453125 248.871094 286.738281 248.894531 288.71875 246.945312 C 290.726562 244.96875 290.753906 241.738281 288.777344 239.730469 L 269.882812 220.535156 L 270.054688 220.367188 C 273.355469 217.117188 278.683594 217.160156 281.933594 220.460938 L 304.753906 243.644531 C 306.210938 245.125 307.5 246.769531 308.589844 248.539062 C 310.066406 250.941406 313.210938 251.6875 315.609375 250.210938 C 318.011719 248.734375 318.757812 245.589844 317.28125 243.191406 C 315.792969 240.769531 314.023438 238.511719 312.027344 236.484375 L 289.207031 213.300781 C 282.011719 205.988281 270.207031 205.898438 262.894531 213.09375 Z M 262.894531 213.09375 " fill-opacity="1" fill-rule="nonzero"/></g><path fill="#000000" d="M 143.328125 179.496094 C 141.503906 187.511719 146.183594 195.449219 153.980469 197.566406 C 162.125 199.78125 170.742188 194.597656 172.570312 186.359375 C 173.878906 180.628906 176.179688 170.582031 178.292969 161.355469 L 184.511719 186.601562 C 186.503906 194.699219 195.054688 199.691406 203.09375 197.421875 C 211.019531 195.191406 215.648438 187.199219 213.628906 179.210938 L 206.460938 150.859375 C 206.6875 150.867188 206.917969 150.875 207.148438 150.875 C 213.839844 150.875 219.511719 146.402344 221.324219 140.292969 C 222.941406 140.898438 224.6875 141.230469 226.511719 141.230469 C 234.667969 141.230469 241.300781 134.597656 241.300781 126.445312 L 241.300781 101.40625 C 241.300781 94.96875 239.636719 88.59375 236.492188 82.964844 C 235.117188 80.507812 232.011719 79.625 229.550781 81 C 227.089844 82.375 226.210938 85.484375 227.582031 87.945312 C 229.878906 92.054688 231.09375 96.707031 231.09375 101.40625 L 231.09375 126.445312 C 231.09375 128.96875 229.039062 131.023438 226.511719 131.023438 C 223.988281 131.023438 221.933594 128.96875 221.933594 126.445312 C 221.933594 123.625 219.648438 121.339844 216.832031 121.339844 C 214.011719 121.339844 211.726562 123.625 211.726562 126.445312 L 211.726562 136.085938 C 211.726562 138.613281 209.671875 140.667969 207.148438 140.667969 C 204.59375 140.667969 202.285156 138.285156 202.285156 135.726562 L 202.285156 133.164062 C 202.285156 130.347656 200 128.0625 197.179688 128.0625 C 194.363281 128.0625 192.078125 130.347656 192.078125 133.164062 L 192.078125 135.726562 C 192.078125 138.136719 192.675781 140.453125 193.851562 142.617188 L 203.734375 181.710938 C 204.386719 184.296875 202.890625 186.878906 200.324219 187.597656 C 197.769531 188.3125 195.054688 186.734375 194.421875 184.160156 L 183.082031 138.105469 C 182.507812 135.78125 180.410156 134.15625 177.996094 134.226562 C 176.808594 134.257812 173.953125 134.753906 173.035156 138.679688 C 173.035156 138.679688 162.621094 184.082031 162.613281 184.113281 C 162.027344 186.757812 159.273438 188.425781 156.65625 187.714844 C 154.199219 187.050781 152.6875 184.375 153.28125 181.757812 L 162.578125 140.855469 C 163.414062 137.1875 163.835938 133.417969 163.839844 129.652344 C 163.839844 129.652344 163.839844 129.648438 163.839844 129.648438 L 163.839844 115.648438 C 163.839844 112.828125 161.554688 110.546875 158.734375 110.546875 C 155.917969 110.546875 153.632812 112.828125 153.632812 115.648438 L 153.632812 124.542969 L 153.390625 124.542969 C 148.757812 124.542969 144.992188 120.777344 144.992188 116.144531 L 144.992188 101.34375 C 144.992188 94.53125 147.496094 87.984375 152.046875 82.910156 L 162.222656 71.574219 C 164.101562 69.476562 163.929688 66.25 161.832031 64.367188 C 159.734375 62.484375 156.507812 62.660156 154.625 64.757812 L 144.453125 76.09375 C 138.21875 83.042969 134.785156 92.011719 134.785156 101.34375 L 134.785156 116.144531 C 134.785156 126.375 143.085938 134.707031 153.308594 134.75 C 153.144531 136.042969 152.917969 137.324219 152.628906 138.59375 Z M 143.328125 179.496094 " fill-opacity="1" fill-rule="nonzero"/><path fill="#000000" d="M 221.792969 65.335938 C 220.269531 63.007812 217.019531 62.402344 214.722656 63.925781 C 212.402344 65.464844 211.78125 68.6875 213.3125 71 C 214.851562 73.320312 218.074219 73.941406 220.386719 72.40625 C 222.703125 70.871094 223.332031 67.640625 221.792969 65.335938 Z M 221.792969 65.335938 " fill-opacity="1" fill-rule="nonzero"/></svg>