<svg xmlns="http://www.w3.org/2000/svg" xmlns:xlink="http://www.w3.org/1999/xlink" width="500" zoomAndPan="magnify" viewBox="0 0 375 374.999991" height="500" preserveAspectRatio="xMidYMid meet" version="1.0"><path fill="#ffcc34" d="M 139.597656 107.703125 C 136.230469 109.808594 131.800781 108.785156 129.707031 105.4375 C 127.613281 102.082031 128.628906 97.664062 131.996094 95.570312 C 135.355469 93.464844 139.78125 94.503906 141.878906 97.847656 C 143.976562 101.191406 142.953125 105.609375 139.597656 107.703125 Z M 139.597656 107.703125 " fill-opacity="1" fill-rule="nonzero"/><path fill="#ffcc34" d="M 183.777344 152.441406 C 180.421875 154.535156 179.375 158.949219 181.472656 162.300781 C 183.589844 165.671875 188.019531 166.675781 191.375 164.578125 C 194.746094 162.488281 195.78125 158.078125 193.671875 154.703125 C 191.570312 151.34375 187.148438 150.339844 183.777344 152.441406 Z M 183.777344 152.441406 " fill-opacity="1" fill-rule="nonzero"/><path fill="#ffcc34" d="M 195.199219 270.585938 C 191.828125 272.6875 187.402344 271.667969 185.308594 268.308594 C 183.199219 264.964844 184.230469 260.542969 187.59375 258.441406 C 190.953125 256.351562 195.378906 257.371094 197.472656 260.730469 C 199.574219 264.082031 198.554688 268.492188 195.199219 270.585938 Z M 195.199219 270.585938 " fill-opacity="1" fill-rule="nonzero"/><path fill="#ffcc34" d="M 158.753906 215.503906 C 155.378906 217.613281 150.953125 216.601562 148.859375 213.230469 C 146.753906 209.882812 147.773438 205.449219 151.132812 203.351562 C 154.503906 201.261719 158.953125 202.273438 161.042969 205.632812 C 163.148438 208.992188 162.117188 213.410156 158.753906 215.503906 Z M 158.753906 215.503906 " fill-opacity="1" fill-rule="nonzero"/><path fill="#ffcc34" d="M 225.929688 95.25 C 222.566406 97.351562 218.136719 96.328125 216.035156 92.96875 C 213.9375 89.609375 214.953125 85.195312 218.324219 83.09375 C 221.679688 81.015625 226.105469 82.019531 228.203125 85.386719 C 230.3125 88.734375 229.289062 93.148438 225.929688 95.25 Z M 225.929688 95.25 " fill-opacity="1" fill-rule="nonzero"/><path fill="#ffcc34" d="M 230.558594 149.285156 C 232.101562 148.339844 232.941406 146.769531 233.113281 145.109375 C 234.269531 146.523438 236.324219 146.960938 237.914062 145.972656 C 239.65625 144.882812 240.199219 142.609375 239.105469 140.867188 C 238.015625 139.128906 235.734375 138.613281 233.988281 139.699219 C 233.21875 140.179688 232.714844 140.917969 232.46875 141.734375 C 232.433594 141.667969 232.4375 141.578125 232.386719 141.503906 C 230.726562 138.847656 227.246094 138.046875 224.566406 139.710938 C 221.921875 141.363281 221.109375 144.84375 222.765625 147.5 C 224.421875 150.144531 227.914062 150.9375 230.558594 149.285156 Z M 230.558594 149.285156 " fill-opacity="1" fill-rule="nonzero"/><path fill="#ffcc34" d="M 173.160156 160.449219 C 171.335938 161.582031 168.945312 161.03125 167.796875 159.207031 C 166.664062 157.386719 167.21875 155.003906 169.042969 153.863281 C 170.863281 152.734375 173.273438 153.277344 174.410156 155.082031 C 175.558594 156.90625 174.984375 159.308594 173.160156 160.449219 Z M 173.160156 160.449219 " fill-opacity="1" fill-rule="nonzero"/><path fill="#ffcc34" d="M 161.097656 193.257812 C 159.84375 194.035156 158.191406 193.652344 157.398438 192.394531 C 156.613281 191.152344 156.996094 189.511719 158.257812 188.714844 C 159.511719 187.941406 161.15625 188.3125 161.949219 189.558594 C 162.734375 190.824219 162.359375 192.464844 161.097656 193.257812 Z M 161.097656 193.257812 " fill-opacity="1" fill-rule="nonzero"/><path fill="#ffcc34" d="M 181.023438 226.714844 C 179.773438 227.492188 178.101562 227.117188 177.335938 225.871094 C 176.539062 224.621094 176.929688 222.964844 178.175781 222.1875 C 179.429688 221.40625 181.085938 221.785156 181.882812 223.035156 C 182.65625 224.28125 182.269531 225.929688 181.023438 226.714844 Z M 181.023438 226.714844 " fill-opacity="1" fill-rule="nonzero"/><path fill="#ffcc34" d="M 145.796875 196.875 C 144.863281 197.449219 143.613281 197.160156 143.03125 196.214844 C 142.4375 195.289062 142.730469 194.042969 143.664062 193.457031 C 144.613281 192.878906 145.851562 193.15625 146.4375 194.097656 C 147.035156 195.039062 146.75 196.277344 145.796875 196.875 Z M 145.796875 196.875 " fill-opacity="1" fill-rule="nonzero"/><path fill="#ffcc34" d="M 147.597656 233.136719 C 145.765625 234.277344 143.363281 233.734375 142.214844 231.902344 C 141.074219 230.078125 141.636719 227.675781 143.460938 226.535156 C 145.292969 225.398438 147.695312 225.949219 148.839844 227.78125 C 149.980469 229.605469 149.425781 232 147.597656 233.136719 Z M 147.597656 233.136719 " fill-opacity="1" fill-rule="nonzero"/><path fill="#ffcc34" d="M 201.828125 116.734375 C 199.992188 117.882812 197.589844 117.332031 196.449219 115.503906 C 195.300781 113.683594 195.851562 111.273438 197.6875 110.125 C 199.519531 108.996094 201.925781 109.554688 203.058594 111.378906 C 204.207031 113.210938 203.660156 115.597656 201.828125 116.734375 Z M 201.828125 116.734375 " fill-opacity="1" fill-rule="nonzero"/><path fill="#ffcc34" d="M 177.898438 45.023438 C 176.167969 46.113281 173.875 45.589844 172.789062 43.859375 C 171.722656 42.132812 172.238281 39.855469 173.976562 38.769531 C 175.710938 37.683594 177.988281 38.226562 179.078125 39.945312 C 180.148438 41.679688 179.628906 43.957031 177.898438 45.023438 Z M 177.898438 45.023438 " fill-opacity="1" fill-rule="nonzero"/><path fill="#ffcc34" d="M 145.046875 68.832031 C 143.304688 69.929688 141.019531 69.394531 139.929688 67.660156 C 138.855469 65.925781 139.375 63.636719 141.109375 62.5625 C 142.84375 61.476562 145.140625 62.007812 146.226562 63.746094 C 147.3125 65.46875 146.785156 67.757812 145.046875 68.832031 Z M 145.046875 68.832031 " fill-opacity="1" fill-rule="nonzero"/><path fill="#ffcc34" d="M 122.816406 115.75 C 119.445312 117.839844 115.011719 116.816406 112.90625 113.453125 C 110.820312 110.101562 111.839844 105.683594 115.199219 103.582031 C 118.570312 101.488281 122.996094 102.519531 125.097656 105.863281 C 127.199219 109.21875 126.167969 113.644531 122.816406 115.75 Z M 122.816406 115.75 " fill-opacity="1" fill-rule="nonzero"/><path fill="#ffcc34" d="M 191.875 86.789062 C 190.132812 87.878906 187.851562 87.34375 186.78125 85.625 C 185.691406 83.886719 186.21875 81.617188 187.960938 80.542969 C 189.679688 79.460938 191.960938 79.980469 193.046875 81.710938 C 194.121094 83.4375 193.601562 85.71875 191.875 86.789062 Z M 191.875 86.789062 " fill-opacity="1" fill-rule="nonzero"/><path fill="#ffcc34" d="M 168.148438 172.304688 C 169.890625 171.21875 170.402344 168.941406 169.308594 167.199219 C 168.238281 165.488281 165.953125 164.941406 164.222656 166.023438 C 162.476562 167.109375 161.957031 169.40625 163.03125 171.117188 C 164.121094 172.859375 166.414062 173.394531 168.148438 172.304688 Z M 168.148438 172.304688 " fill-opacity="1" fill-rule="nonzero"/><path fill="#ffcc34" d="M 179.644531 151.273438 C 177.898438 152.359375 175.613281 151.835938 174.53125 150.121094 C 173.453125 148.375 173.976562 146.097656 175.726562 145.011719 C 177.445312 143.933594 179.734375 144.457031 180.8125 146.203125 C 181.898438 147.921875 181.371094 150.203125 179.644531 151.273438 Z M 179.644531 151.273438 " fill-opacity="1" fill-rule="nonzero"/><path fill="#ffcc34" d="M 124.160156 168.457031 C 120.785156 170.558594 116.367188 169.53125 114.257812 166.167969 C 112.152344 162.804688 113.167969 158.394531 116.539062 156.289062 C 119.910156 154.191406 124.347656 155.203125 126.449219 158.574219 C 128.550781 161.9375 127.523438 166.355469 124.160156 168.457031 Z M 124.160156 168.457031 " fill-opacity="1" fill-rule="nonzero"/><path fill="#ffcc34" d="M 207.375 209.863281 C 204.011719 211.972656 199.574219 210.9375 197.472656 207.582031 C 195.363281 204.214844 196.390625 199.800781 199.765625 197.699219 C 203.128906 195.597656 207.546875 196.617188 209.65625 199.988281 C 211.757812 203.347656 210.746094 207.761719 207.375 209.863281 Z M 207.375 209.863281 " fill-opacity="1" fill-rule="nonzero"/><path fill="#ffcc34" d="M 260.164062 129.324219 C 256.785156 131.433594 252.355469 130.414062 250.246094 127.050781 C 248.140625 123.683594 249.15625 119.246094 252.539062 117.144531 C 255.902344 115.042969 260.339844 116.085938 262.449219 119.449219 C 264.554688 122.804688 263.535156 127.21875 260.164062 129.324219 Z M 260.164062 129.324219 " fill-opacity="1" fill-rule="nonzero"/><path fill="#ffcc34" d="M 197.1875 186.472656 C 192.285156 189.523438 185.835938 188.039062 182.785156 183.167969 C 179.722656 178.277344 181.21875 171.851562 186.113281 168.796875 C 191.003906 165.75 197.449219 167.226562 200.503906 172.113281 C 203.566406 176.988281 202.066406 183.429688 197.1875 186.472656 Z M 197.1875 186.472656 " fill-opacity="1" fill-rule="nonzero"/><path fill="#ffcc34" d="M 127.660156 74.285156 C 124.296875 76.386719 123.277344 80.800781 125.382812 84.152344 C 127.179688 87.019531 130.640625 88.050781 133.726562 87.027344 C 133.8125 87.367188 133.894531 87.671875 134.089844 87.972656 C 135.167969 89.707031 137.441406 90.21875 139.179688 89.144531 C 140.914062 88.0625 141.433594 85.785156 140.355469 84.070312 C 139.855469 83.265625 139.089844 82.757812 138.234375 82.488281 C 138.839844 80.578125 138.722656 78.421875 137.5625 76.574219 C 135.460938 73.203125 131.035156 72.183594 127.660156 74.285156 Z M 127.660156 74.285156 " fill-opacity="1" fill-rule="nonzero"/><path fill="#ffcc34" d="M 139.597656 107.703125 C 136.230469 109.808594 131.800781 108.785156 129.707031 105.4375 C 127.613281 102.082031 128.628906 97.664062 131.996094 95.570312 C 135.355469 93.464844 139.78125 94.503906 141.878906 97.847656 C 143.976562 101.191406 142.953125 105.609375 139.597656 107.703125 Z M 139.597656 107.703125 " fill-opacity="1" fill-rule="nonzero"/><path fill="#ffcc34" d="M 183.777344 152.441406 C 180.421875 154.535156 179.375 158.949219 181.472656 162.300781 C 183.589844 165.671875 188.019531 166.675781 191.375 164.578125 C 194.746094 162.488281 195.78125 158.078125 193.671875 154.703125 C 191.570312 151.34375 187.148438 150.339844 183.777344 152.441406 Z M 183.777344 152.441406 " fill-opacity="1" fill-rule="nonzero"/><path fill="#ffcc34" d="M 158.753906 215.503906 C 155.378906 217.613281 150.953125 216.601562 148.859375 213.230469 C 146.753906 209.882812 147.773438 205.449219 151.132812 203.351562 C 154.503906 201.261719 158.953125 202.273438 161.042969 205.632812 C 163.148438 208.992188 162.117188 213.410156 158.753906 215.503906 Z M 158.753906 215.503906 " fill-opacity="1" fill-rule="nonzero"/><path fill="#ffcc34" d="M 225.929688 95.25 C 222.566406 97.351562 218.136719 96.328125 216.035156 92.96875 C 213.9375 89.609375 214.953125 85.195312 218.324219 83.09375 C 221.679688 81.015625 226.105469 82.019531 228.203125 85.386719 C 230.3125 88.734375 229.289062 93.148438 225.929688 95.25 Z M 225.929688 95.25 " fill-opacity="1" fill-rule="nonzero"/><path fill="#ffcc34" d="M 230.558594 149.285156 C 232.101562 148.339844 232.941406 146.769531 233.113281 145.109375 C 234.269531 146.523438 236.324219 146.960938 237.914062 145.972656 C 239.65625 144.882812 240.199219 142.609375 239.105469 140.867188 C 238.015625 139.128906 235.734375 138.613281 233.988281 139.699219 C 233.21875 140.179688 232.714844 140.917969 232.46875 141.734375 C 232.433594 141.667969 232.4375 141.578125 232.386719 141.503906 C 230.726562 138.847656 227.246094 138.046875 224.566406 139.710938 C 221.921875 141.363281 221.109375 144.84375 222.765625 147.5 C 224.421875 150.144531 227.914062 150.9375 230.558594 149.285156 Z M 230.558594 149.285156 " fill-opacity="1" fill-rule="nonzero"/><path fill="#ffcc34" d="M 173.160156 160.449219 C 171.335938 161.582031 168.945312 161.03125 167.796875 159.207031 C 166.664062 157.386719 167.21875 155.003906 169.042969 153.863281 C 170.863281 152.734375 173.273438 153.277344 174.410156 155.082031 C 175.558594 156.90625 174.984375 159.308594 173.160156 160.449219 Z M 173.160156 160.449219 " fill-opacity="1" fill-rule="nonzero"/><path fill="#ffcc34" d="M 161.097656 193.257812 C 159.84375 194.035156 158.191406 193.652344 157.398438 192.394531 C 156.613281 191.152344 156.996094 189.511719 158.257812 188.714844 C 159.511719 187.941406 161.15625 188.3125 161.949219 189.558594 C 162.734375 190.824219 162.359375 192.464844 161.097656 193.257812 Z M 161.097656 193.257812 " fill-opacity="1" fill-rule="nonzero"/><path fill="#ffcc34" d="M 181.023438 226.714844 C 179.773438 227.492188 178.101562 227.117188 177.335938 225.871094 C 176.539062 224.621094 176.929688 222.964844 178.175781 222.1875 C 179.429688 221.40625 181.085938 221.785156 181.882812 223.035156 C 182.65625 224.28125 182.269531 225.929688 181.023438 226.714844 Z M 181.023438 226.714844 " fill-opacity="1" fill-rule="nonzero"/><path fill="#ffcc34" d="M 145.796875 196.875 C 144.863281 197.449219 143.613281 197.160156 143.03125 196.214844 C 142.4375 195.289062 142.730469 194.042969 143.664062 193.457031 C 144.613281 192.878906 145.851562 193.15625 146.4375 194.097656 C 147.035156 195.039062 146.75 196.277344 145.796875 196.875 Z M 145.796875 196.875 " fill-opacity="1" fill-rule="nonzero"/><path fill="#ffcc34" d="M 147.597656 233.136719 C 145.765625 234.277344 143.363281 233.734375 142.214844 231.902344 C 141.074219 230.078125 141.636719 227.675781 143.460938 226.535156 C 145.292969 225.398438 147.695312 225.949219 148.839844 227.78125 C 149.980469 229.605469 149.425781 232 147.597656 233.136719 Z M 147.597656 233.136719 " fill-opacity="1" fill-rule="nonzero"/><path fill="#ffcc34" d="M 201.828125 116.734375 C 199.992188 117.882812 197.589844 117.332031 196.449219 115.503906 C 195.300781 113.683594 195.851562 111.273438 197.6875 110.125 C 199.519531 108.996094 201.925781 109.554688 203.058594 111.378906 C 204.207031 113.210938 203.660156 115.597656 201.828125 116.734375 Z M 201.828125 116.734375 " fill-opacity="1" fill-rule="nonzero"/><path fill="#ffcc34" d="M 177.898438 45.023438 C 176.167969 46.113281 173.875 45.589844 172.789062 43.859375 C 171.722656 42.132812 172.238281 39.855469 173.976562 38.769531 C 175.710938 37.683594 177.988281 38.226562 179.078125 39.945312 C 180.148438 41.679688 179.628906 43.957031 177.898438 45.023438 Z M 177.898438 45.023438 " fill-opacity="1" fill-rule="nonzero"/><path fill="#ffcc34" d="M 145.046875 68.832031 C 143.304688 69.929688 141.019531 69.394531 139.929688 67.660156 C 138.855469 65.925781 139.375 63.636719 141.109375 62.5625 C 142.84375 61.476562 145.140625 62.007812 146.226562 63.746094 C 147.3125 65.46875 146.785156 67.757812 145.046875 68.832031 Z M 145.046875 68.832031 " fill-opacity="1" fill-rule="nonzero"/><path fill="#ffcc34" d="M 122.816406 115.75 C 119.445312 117.839844 115.011719 116.816406 112.90625 113.453125 C 110.820312 110.101562 111.839844 105.683594 115.199219 103.582031 C 118.570312 101.488281 122.996094 102.519531 125.097656 105.863281 C 127.199219 109.21875 126.167969 113.644531 122.816406 115.75 Z M 122.816406 115.75 " fill-opacity="1" fill-rule="nonzero"/><path fill="#ffcc34" d="M 191.875 86.789062 C 190.132812 87.878906 187.851562 87.34375 186.78125 85.625 C 185.691406 83.886719 186.21875 81.617188 187.960938 80.542969 C 189.679688 79.460938 191.960938 79.980469 193.046875 81.710938 C 194.121094 83.4375 193.601562 85.71875 191.875 86.789062 Z M 191.875 86.789062 " fill-opacity="1" fill-rule="nonzero"/><path fill="#ffcc34" d="M 168.148438 172.304688 C 169.890625 171.21875 170.402344 168.941406 169.308594 167.199219 C 168.238281 165.488281 165.953125 164.941406 164.222656 166.023438 C 162.476562 167.109375 161.957031 169.40625 163.03125 171.117188 C 164.121094 172.859375 166.414062 173.394531 168.148438 172.304688 Z M 168.148438 172.304688 " fill-opacity="1" fill-rule="nonzero"/><path fill="#ffcc34" d="M 179.644531 151.273438 C 177.898438 152.359375 175.613281 151.835938 174.53125 150.121094 C 173.453125 148.375 173.976562 146.097656 175.726562 145.011719 C 177.445312 143.933594 179.734375 144.457031 180.8125 146.203125 C 181.898438 147.921875 181.371094 150.203125 179.644531 151.273438 Z M 179.644531 151.273438 " fill-opacity="1" fill-rule="nonzero"/><path fill="#ffcc34" d="M 124.160156 168.457031 C 120.785156 170.558594 116.367188 169.53125 114.257812 166.167969 C 112.152344 162.804688 113.167969 158.394531 116.539062 156.289062 C 119.910156 154.191406 124.347656 155.203125 126.449219 158.574219 C 128.550781 161.9375 127.523438 166.355469 124.160156 168.457031 Z M 124.160156 168.457031 " fill-opacity="1" fill-rule="nonzero"/><path fill="#ffcc34" d="M 207.375 209.863281 C 204.011719 211.972656 199.574219 210.9375 197.472656 207.582031 C 195.363281 204.214844 196.390625 199.800781 199.765625 197.699219 C 203.128906 195.597656 207.546875 196.617188 209.65625 199.988281 C 211.757812 203.347656 210.746094 207.761719 207.375 209.863281 Z M 207.375 209.863281 " fill-opacity="1" fill-rule="nonzero"/><path fill="#ffcc34" d="M 260.164062 129.324219 C 256.785156 131.433594 252.355469 130.414062 250.246094 127.050781 C 248.140625 123.683594 249.15625 119.246094 252.539062 117.144531 C 255.902344 115.042969 260.339844 116.085938 262.449219 119.449219 C 264.554688 122.804688 263.535156 127.21875 260.164062 129.324219 Z M 260.164062 129.324219 " fill-opacity="1" fill-rule="nonzero"/><path fill="#ffcc34" d="M 175.421875 323.046875 C 170.523438 326.097656 164.074219 324.605469 161.023438 319.738281 C 157.964844 314.851562 159.457031 308.421875 164.355469 305.367188 C 169.242188 302.324219 175.6875 303.800781 178.75 308.683594 C 181.804688 313.554688 180.308594 320.003906 175.421875 323.046875 Z M 175.421875 323.046875 " fill-opacity="1" fill-rule="nonzero"/><path fill="#ffcc34" d="M 127.660156 74.285156 C 124.296875 76.386719 123.277344 80.800781 125.382812 84.152344 C 127.179688 87.019531 130.640625 88.050781 133.726562 87.027344 C 133.8125 87.367188 133.894531 87.671875 134.089844 87.972656 C 135.167969 89.707031 137.441406 90.21875 139.179688 89.144531 C 140.914062 88.0625 141.433594 85.785156 140.355469 84.070312 C 139.855469 83.265625 139.089844 82.757812 138.234375 82.488281 C 138.839844 80.578125 138.722656 78.421875 137.5625 76.574219 C 135.460938 73.203125 131.035156 72.183594 127.660156 74.285156 Z M 127.660156 74.285156 " fill-opacity="1" fill-rule="nonzero"/></svg>